<svg xmlns="http://www.w3.org/2000/svg" width="430" height="88" viewBox="0 0 430 88" role="img" aria-label="AI FAQ card"><title>AI FAQ card</title><rect x="2" y="2" width="426" height="84" rx="18" fill="#F5FBF7" stroke="#D9E9DE" stroke-width="1.3" opacity="1"/><circle cx="42" cy="44" r="26" fill="#E9F7EC" stroke-width="1" opacity="1"/><path d="M33 36 H51 Q53 36 53 38 V48 Q53 50 51 50 H43 L37 55 V50 H33 Q31 50 31 48 V38 Q31 36 33 36Z" fill="#2FA86A" stroke-width="1" stroke-linecap="round" stroke-linejoin="round" opacity="1"/><circle cx="38" cy="43" r="1.3" fill="#fff" stroke-width="1" opacity="1"/><circle cx="42" cy="43" r="1.3" fill="#fff" stroke-width="1" opacity="1"/><circle cx="46" cy="43" r="1.3" fill="#fff" stroke-width="1" opacity="1"/><g fill="#1F2937" opacity="1"><path d="M304 727Q421 727 480.0 650.5Q539 574 539 428Q539 282 480.0 205.5Q421 129 304 129Q187 129 128.5 205.5Q70 282 70 428Q70 574 128.5 650.5Q187 727 304 727ZM304 639Q230 639 198.5 585.0Q167 531 167 428Q167 325 198.5 271.0Q230 217 304 217Q379 217 410.5 271.0Q442 325 442 428Q442 531 410.5 585.0Q379 639 304 639ZM738 778Q758 778 773.5 768.0Q789 758 789 736V-44Q789 -66 773.5 -76.0Q758 -86 738 -86Q719 -86 703.5 -76.0Q688 -66 688 -44V736Q688 758 703.5 768.0Q719 778 738 778Z" transform="translate(84.000 30.280) scale(0.016000 -0.016000)"/><path d="M308 748Q328 748 343.5 738.0Q359 728 359 706V614Q359 566 374.5 531.5Q390 497 425 467Q460 438 491.0 414.0Q522 390 547 372Q564 360 564.5 342.5Q565 325 554 311Q544 297 527.0 291.5Q510 286 493 299Q473 313 444.0 335.5Q415 358 383 384Q345 414 329.5 434.0Q314 454 310 469H309Q305 452 288.0 431.0Q271 410 234 380Q202 354 171.5 330.0Q141 306 109 283Q92 271 74.5 276.5Q57 282 47 295Q37 309 37.0 327.5Q37 346 55 359Q90 385 123.0 410.0Q156 435 191 464Q226 494 241.5 528.5Q257 563 257 612V706Q257 728 272.5 738.0Q288 748 308 748ZM696 778Q716 778 731.0 768.0Q746 758 746 736V557H856Q876 557 884.5 544.0Q893 531 893 514Q893 495 884.5 482.5Q876 470 856 470H746V271Q746 250 731.0 240.0Q716 230 696 230Q676 230 661.0 240.0Q646 250 646 271V736Q646 758 661.0 768.0Q676 778 696 778ZM465 221Q602 221 676.5 173.5Q751 126 751 32Q751 -62 676.5 -109.5Q602 -157 465 -157Q328 -157 253.5 -109.5Q179 -62 179 32Q179 126 253.5 173.5Q328 221 465 221ZM465 140Q366 140 322.0 110.5Q278 81 278 32Q278 -18 322.0 -47.0Q366 -76 465 -76Q564 -76 608.0 -47.0Q652 -18 652 32Q652 82 608.0 111.0Q564 140 465 140Z" transform="translate(102.560 30.280) scale(0.016000 -0.016000)"/><path d="M435 667Q435 650 426.5 637.0Q418 624 399 624H180Q159 624 159 604V470H385Q403 470 411.5 457.5Q420 445 420 428Q420 411 411.5 399.0Q403 387 385 387H159V249Q159 229 180 229Q211 229 245.0 230.0Q279 231 312.0 233.0Q345 235 376.5 237.5Q408 240 434 244Q451 246 461.0 235.5Q471 225 473 208Q475 190 468.5 176.0Q462 162 445 159Q407 153 328.0 148.0Q249 143 139 143Q95 143 78.5 159.0Q62 175 62 218V635Q62 678 78.5 694.0Q95 710 139 710H399Q418 710 426.5 697.0Q435 684 435 667ZM771 778Q789 778 803.5 768.5Q818 759 818 739V-47Q818 -67 803.5 -76.5Q789 -86 771 -86Q754 -86 739.5 -76.5Q725 -67 725 -47V386H618V-5Q618 -25 603.5 -34.5Q589 -44 571 -44Q554 -44 539.5 -34.5Q525 -25 525 -5V729Q525 749 539.5 758.5Q554 768 571 768Q589 768 603.5 758.5Q618 749 618 729V471H725V739Q725 759 739.5 768.5Q754 778 771 778Z" transform="translate(117.120 30.280) scale(0.016000 -0.016000)"/><path d="M406 709Q450 709 466.5 693.0Q483 677 483 634V523Q483 481 478.0 447.5Q473 414 459.0 384.0Q445 354 420.5 325.5Q396 297 356.5 265.5Q317 234 261.0 197.0Q205 160 129 113Q112 103 95.0 109.5Q78 116 68 130Q58 144 58.5 163.0Q59 182 76 193Q146 236 196.0 268.5Q246 301 280.5 327.5Q315 354 335.0 376.5Q355 399 366.0 421.5Q377 444 380.0 469.5Q383 495 383 527V602Q383 613 378.5 617.5Q374 622 362 622H104Q85 622 76.5 635.0Q68 648 68 665Q68 683 76.5 696.0Q85 709 104 709ZM696 778Q716 778 731.0 768.0Q746 758 746 736V476H856Q876 476 884.5 463.5Q893 451 893 433Q893 415 884.5 402.0Q876 389 856 389H746V-44Q746 -66 731.0 -76.0Q716 -86 696 -86Q676 -86 661.0 -76.0Q646 -66 646 -44V736Q646 758 661.0 768.0Q676 778 696 778Z" transform="translate(131.680 30.280) scale(0.016000 -0.016000)"/><path d="M263 718Q316 718 356.0 703.0Q396 688 422.5 661.5Q449 635 462.0 598.5Q475 562 475 519Q475 476 462.0 439.5Q449 403 422.5 376.0Q396 349 356.0 334.0Q316 319 263 319Q210 319 170.0 334.0Q130 349 103.5 376.0Q77 403 64.0 439.5Q51 476 51 519Q51 562 64.0 598.5Q77 635 103.5 661.5Q130 688 170.0 703.0Q210 718 263 718ZM263 636Q232 636 209.0 627.0Q186 618 171.0 602.0Q156 586 149.0 565.0Q142 544 142 519Q142 469 171.5 435.5Q201 402 263 402Q325 402 354.5 435.5Q384 469 384 519Q384 544 377.0 565.0Q370 586 355.0 602.0Q340 618 317.0 627.0Q294 636 263 636ZM783 778Q801 778 815.5 768.5Q830 759 830 739V-47Q830 -67 815.5 -76.5Q801 -86 783 -86Q766 -86 751.5 -76.5Q737 -67 737 -47V356H640V-5Q640 -25 625.5 -34.5Q611 -44 593 -44Q576 -44 561.5 -34.5Q547 -25 547 -5V729Q547 749 561.5 758.5Q576 768 593 768Q611 768 625.5 758.5Q640 749 640 729V441H737V739Q737 759 751.5 768.5Q766 778 783 778ZM312 171Q352 173 391.5 174.5Q431 176 470 179Q487 181 496.5 169.5Q506 158 507 141Q508 124 500.5 111.0Q493 98 476 97Q393 91 283.5 87.5Q174 84 58 84Q40 84 31.5 97.0Q23 110 23 127Q23 144 31.5 156.0Q40 168 58 168Q96 168 135.5 168.0Q175 168 216 169V379H312Z" transform="translate(150.240 30.280) scale(0.016000 -0.016000)"/><path d="M754 635V552Q754 447 746.5 360.0Q739 273 722 194Q718 174 700.5 166.0Q683 158 661 162Q643 166 631.0 178.0Q619 190 624 210Q640 293 647.0 374.5Q654 456 654 534V601Q654 613 649.0 617.5Q644 622 633 622H174Q155 622 147.0 635.0Q139 648 139 665Q139 684 147.0 697.0Q155 710 174 710H677Q721 710 737.5 694.0Q754 678 754 635ZM875 44Q875 27 866.5 14.0Q858 1 840 1H70Q52 1 43.5 14.0Q35 27 35 44Q35 62 43.5 74.5Q52 87 70 87H840Q858 87 866.5 74.5Q875 62 875 44Z" transform="translate(168.800 30.280) scale(0.016000 -0.016000)"/><path d="M481 650V514Q481 471 464.5 455.0Q448 439 404 439H205Q194 439 189.0 434.5Q184 430 184 418V336Q184 316 205 316Q301 316 385.0 320.5Q469 325 549 336Q566 338 576.5 327.5Q587 317 589 300Q591 283 584.5 268.5Q578 254 561 252Q527 247 487.0 243.0Q447 239 398.5 236.5Q350 234 291.5 232.5Q233 231 163 231Q119 231 102.5 247.0Q86 263 86 306V444Q86 487 102.5 503.0Q119 519 163 519H362Q383 519 383 540V619Q383 631 378.0 635.5Q373 640 362 640H120Q102 640 94.0 653.0Q86 666 86 683Q86 700 94.0 712.5Q102 725 120 725H404Q448 725 464.5 709.0Q481 693 481 650ZM746 778Q765 778 780.0 768.0Q795 758 795 736V144Q795 122 780.0 112.0Q765 102 746 102Q726 102 711.0 112.0Q696 122 696 144V457H571Q552 457 543.5 469.5Q535 482 535 500Q535 518 543.5 530.5Q552 543 571 543H696V736Q696 758 711.0 768.0Q726 778 746 778ZM258 156Q277 156 292.5 146.0Q308 136 308 114V-25Q308 -36 312.5 -40.5Q317 -45 329 -45H783Q802 -45 810.5 -58.0Q819 -71 819 -89Q819 -106 810.5 -119.0Q802 -132 783 -132H284Q240 -132 223.5 -116.0Q207 -100 207 -57V114Q207 136 222.5 146.0Q238 156 258 156Z" transform="translate(183.360 30.280) scale(0.016000 -0.016000)"/><path d="M406 709Q450 709 466.5 693.0Q483 677 483 634V523Q483 481 478.0 447.5Q473 414 459.0 384.0Q445 354 420.5 325.5Q396 297 356.5 265.5Q317 234 261.0 197.0Q205 160 129 113Q112 103 95.0 109.5Q78 116 68 130Q58 144 58.5 163.0Q59 182 76 193Q146 236 196.0 268.5Q246 301 280.5 327.5Q315 354 335.0 376.5Q355 399 366.0 421.5Q377 444 380.0 469.5Q383 495 383 527V602Q383 613 378.5 617.5Q374 622 362 622H104Q85 622 76.5 635.0Q68 648 68 665Q68 683 76.5 696.0Q85 709 104 709ZM696 778Q716 778 731.0 768.0Q746 758 746 736V476H856Q876 476 884.5 463.5Q893 451 893 433Q893 415 884.5 402.0Q876 389 856 389H746V-44Q746 -66 731.0 -76.0Q716 -86 696 -86Q676 -86 661.0 -76.0Q646 -66 646 -44V736Q646 758 661.0 768.0Q676 778 696 778Z" transform="translate(197.920 30.280) scale(0.016000 -0.016000)"/><path d="M455 743Q527 743 584.5 727.0Q642 711 681.5 680.5Q721 650 742.0 605.5Q763 561 763 505Q763 392 681.5 329.5Q600 267 455 267Q310 267 229.0 329.5Q148 392 148 505Q148 561 169.0 605.5Q190 650 229.5 680.5Q269 711 326.0 727.0Q383 743 455 743ZM455 658Q401 658 362.0 646.5Q323 635 297.5 614.5Q272 594 260.0 566.0Q248 538 248 505Q248 472 260.0 444.0Q272 416 297.5 395.5Q323 375 362.0 363.5Q401 352 455 352Q509 352 548.0 363.5Q587 375 612.5 395.5Q638 416 650.0 444.0Q662 472 662 505Q662 538 650.0 566.0Q638 594 612.5 614.5Q587 635 548.0 646.5Q509 658 455 658ZM301 247Q321 247 336.0 237.0Q351 227 351 206V85H559V206Q559 227 574.0 237.0Q589 247 609 247Q629 247 644.0 237.0Q659 227 659 206V85H840Q858 85 866.5 73.0Q875 61 875 44Q875 27 866.5 14.0Q858 1 840 1H70Q52 1 43.5 14.0Q35 27 35 44Q35 61 43.5 73.0Q52 85 70 85H251V206Q251 227 266.0 237.0Q281 247 301 247Z" transform="translate(212.480 30.280) scale(0.016000 -0.016000)"/><path d="M263 726Q315 726 356.0 712.5Q397 699 425.5 675.0Q454 651 469.5 617.5Q485 584 485 543V533Q485 508 479.0 486.5Q473 465 459.5 443.5Q446 422 424.5 399.0Q403 376 373 349Q347 325 331.0 307.5Q315 290 307.0 275.5Q299 261 296.5 247.0Q294 233 294 216Q294 197 280.0 187.0Q266 177 248 177Q229 177 214.5 186.5Q200 196 200 218Q200 243 203.0 264.0Q206 285 215.5 304.5Q225 324 243.0 345.0Q261 366 290 392Q319 417 337.5 436.0Q356 455 366.5 471.0Q377 487 381.0 501.0Q385 515 385 532V539Q385 581 354.5 609.0Q324 637 261 637Q216 637 183.0 622.5Q150 608 122 585Q107 574 91.0 577.0Q75 580 63 595Q52 609 52.5 626.5Q53 644 68 656Q102 685 151.0 705.5Q200 726 263 726ZM247 95Q276 95 294.5 76.5Q313 58 313 30Q313 2 294.5 -17.0Q276 -36 247 -36Q219 -36 200.5 -17.0Q182 2 182 30Q182 58 200.5 76.5Q219 95 247 95Z" transform="translate(227.040 30.280) scale(0.016000 -0.016000)"/></g><g fill="#6B7280" opacity="1"><path d="M532 720Q545 720 551.0 711.0Q557 702 557 689Q557 675 551.0 666.0Q545 657 532 657H349V592Q349 541 365.0 506.5Q381 472 419 441Q457 411 490.5 386.0Q524 361 549 343Q562 334 563.0 321.5Q564 309 556 298Q549 288 537.0 284.0Q525 280 511 290Q491 303 459.0 326.5Q427 350 392 378Q353 410 335.0 431.5Q317 453 313 469H312Q308 452 290.0 429.5Q272 407 232 376Q197 348 162.5 322.5Q128 297 97 276Q84 267 72.0 270.5Q60 274 52 284Q44 295 44.5 308.5Q45 322 59 331Q132 382 205 439Q243 471 259.0 505.5Q275 540 275 591V657H86Q73 657 67.0 666.0Q61 675 61 689Q61 702 67.0 711.0Q73 720 86 720H532ZM700 774Q714 774 725.5 767.0Q737 760 737 744V552H864Q878 552 884.0 542.5Q890 533 890 519Q890 506 884.0 496.5Q878 487 864 487H737V269Q737 253 725.5 246.0Q714 239 700 239Q686 239 675.0 246.0Q664 253 664 269V744Q664 760 675.0 767.0Q686 774 700 774ZM668 188Q707 188 722.0 173.5Q737 159 737 121V-118Q737 -134 725.5 -141.0Q714 -148 700 -148Q686 -148 675.0 -141.0Q664 -134 664 -118V107Q664 125 645 125H187Q174 125 168.0 134.0Q162 143 162 156Q162 170 168.0 179.0Q174 188 187 188H668Z" transform="translate(84.000 60.790) scale(0.013000 -0.013000)"/><path d="M682 751Q721 751 736.0 736.5Q751 722 751 684V531Q751 493 736.0 478.5Q721 464 682 464H228Q189 464 174.0 478.5Q159 493 159 531V684Q159 722 174.0 736.5Q189 751 228 751ZM250 691Q239 691 235.0 687.5Q231 684 231 673V542Q231 531 235.0 527.5Q239 524 250 524H660Q671 524 675.0 527.5Q679 531 679 542V673Q679 684 675.0 687.5Q671 691 660 691ZM848 379Q860 379 866.0 370.5Q872 362 872 350Q872 337 866.0 328.0Q860 319 848 319H491V186H419V319H62Q50 319 44.0 328.0Q38 337 38 350Q38 362 44.0 370.5Q50 379 62 379H848ZM683 218Q722 218 737.0 203.5Q752 189 752 151V77Q752 39 737.0 24.5Q722 10 683 10H244Q228 10 228 -6V-68Q228 -83 244 -83H753Q765 -83 770.5 -92.0Q776 -101 776 -112Q776 -124 770.5 -133.0Q765 -142 753 -142H226Q187 -142 172.0 -127.5Q157 -113 157 -75V0Q157 38 172.0 52.5Q187 67 226 67H665Q682 67 682 82V144Q682 160 665 160H179Q167 160 161.0 168.5Q155 177 155 189Q155 200 161.0 209.0Q167 218 179 218H683Z" transform="translate(95.830 60.790) scale(0.013000 -0.013000)"/><path d="M310 744Q324 744 335.5 737.0Q347 730 347 714V612Q347 561 364.0 524.5Q381 488 419 456Q456 426 489.0 400.5Q522 375 550 355Q562 347 563.0 333.5Q564 320 556 309Q548 299 536.0 295.5Q524 292 511 301Q488 317 456.5 341.5Q425 366 391 393Q353 424 334.0 447.5Q315 471 311 486H310Q306 470 287.0 446.0Q268 422 230 391Q196 363 162.5 337.5Q129 312 95 288Q82 279 69.5 282.0Q57 285 49 296Q41 306 41.5 320.0Q42 334 55 343Q94 371 129.0 397.5Q164 424 201 455Q239 487 256.0 523.0Q273 559 273 610V714Q273 730 284.5 737.0Q296 744 310 744ZM700 774Q714 774 725.5 767.0Q737 760 737 744V547H864Q878 547 884.0 537.5Q890 528 890 514Q890 501 884.0 491.5Q878 482 864 482H737V257Q737 241 725.5 234.0Q714 227 700 227Q686 227 675.0 234.0Q664 241 664 257V744Q664 760 675.0 767.0Q686 774 700 774ZM466 215Q600 215 672.0 168.5Q744 122 744 32Q744 -58 672.0 -104.5Q600 -151 466 -151Q332 -151 260.5 -104.5Q189 -58 189 32Q189 122 260.5 168.5Q332 215 466 215ZM466 155Q360 155 310.5 122.0Q261 89 261 32Q261 -25 310.5 -58.0Q360 -91 466 -91Q572 -91 622.0 -58.0Q672 -25 672 32Q672 89 622.0 122.0Q572 155 466 155Z" transform="translate(110.910 60.790) scale(0.013000 -0.013000)"/><path d="M407 704Q420 704 426.0 695.0Q432 686 432 673Q432 659 426.0 650.0Q420 641 407 641H160Q141 641 141 623V460H392Q405 460 411.0 451.0Q417 442 417 429Q417 417 411.0 407.5Q405 398 392 398H141V230Q141 212 160 212Q196 212 235.0 213.5Q274 215 312.0 217.0Q350 219 384.5 222.5Q419 226 448 230Q459 232 467.0 224.5Q475 217 477 204Q479 190 473.5 179.5Q468 169 456 167Q411 159 327.0 154.0Q243 149 139 149Q100 149 85.0 163.5Q70 178 70 216V637Q70 675 85.0 689.5Q100 704 139 704H407ZM774 774Q788 774 798.5 767.0Q809 760 809 745V-53Q809 -68 798.5 -75.0Q788 -82 774 -82Q761 -82 750.5 -75.0Q740 -68 740 -53V397H607V-11Q607 -26 596.5 -33.0Q586 -40 572 -40Q559 -40 548.5 -33.0Q538 -26 538 -11V735Q538 750 548.5 757.0Q559 764 572 764Q586 764 596.5 757.0Q607 750 607 735V460H740V745Q740 760 750.5 767.0Q761 774 774 774Z" transform="translate(122.740 60.790) scale(0.013000 -0.013000)"/><path d="M119 713Q133 713 144.5 706.0Q156 699 156 683V235Q156 216 175 216Q284 216 375.5 222.0Q467 228 557 240Q569 242 577.0 234.5Q585 227 587 213Q589 199 583.5 188.5Q578 178 566 176Q527 171 483.5 166.5Q440 162 389.5 159.0Q339 156 280.0 154.5Q221 153 151 153Q112 153 97.0 167.5Q82 182 82 220V683Q82 699 93.5 706.0Q105 713 119 713ZM700 774Q714 774 725.5 767.0Q737 760 737 744V465H864Q878 465 884.0 455.5Q890 446 890 433Q890 419 884.0 409.5Q878 400 864 400H737V-52Q737 -68 725.5 -75.0Q714 -82 700 -82Q686 -82 675.0 -75.0Q664 -68 664 -52V744Q664 760 675.0 767.0Q686 774 700 774Z" transform="translate(134.570 60.790) scale(0.013000 -0.013000)"/><path d="M682 737Q721 737 736.0 722.5Q751 708 751 670V477Q751 439 736.0 424.5Q721 410 682 410H228Q189 410 174.0 424.5Q159 439 159 477V670Q159 708 174.0 722.5Q189 737 228 737ZM250 675Q239 675 235.0 671.5Q231 668 231 657V490Q231 479 235.0 475.5Q239 472 250 472H660Q671 472 675.0 475.5Q679 479 679 490V657Q679 668 675.0 671.5Q671 675 660 675ZM847 303Q860 303 866.0 294.0Q872 285 872 272Q872 259 866.0 250.0Q860 241 847 241H501V80Q501 65 490.5 58.5Q480 52 465 52Q451 52 440.0 58.5Q429 65 429 80V241H63Q50 241 44.0 250.0Q38 259 38 272Q38 285 44.0 294.0Q50 303 63 303H847ZM194 144Q208 144 219.0 137.0Q230 130 230 114V-49Q230 -68 249 -68H745Q758 -68 764.0 -77.0Q770 -86 770 -99Q770 -112 764.0 -121.0Q758 -130 745 -130H226Q187 -130 172.0 -115.5Q157 -101 157 -63V114Q157 130 168.0 137.0Q179 144 194 144Z" transform="translate(149.650 60.790) scale(0.013000 -0.013000)"/><path d="M452 696Q466 696 472.0 687.0Q478 678 478 664Q478 651 472.0 641.5Q466 632 452 632H304V514Q304 482 307.0 456.5Q310 431 317.5 409.5Q325 388 337.5 368.0Q350 348 368 327Q397 292 424.5 262.5Q452 233 474 210Q483 200 482.5 187.0Q482 174 471 164Q462 155 449.5 153.5Q437 152 426 163Q411 179 385.5 206.0Q360 233 334 264Q298 306 284.5 329.0Q271 352 269 369H268Q265 352 251.5 327.5Q238 303 202 262Q176 231 148.5 202.0Q121 173 95 147Q84 136 70.5 138.0Q57 140 49 148Q39 158 37.5 171.0Q36 184 47 195Q77 226 108.0 259.0Q139 292 168 327Q186 348 198.0 368.0Q210 388 217.5 409.5Q225 431 228.5 456.5Q232 482 232 514V632H76Q63 632 57.0 641.5Q51 651 51 664Q51 678 57.0 687.0Q63 696 76 696H452ZM598 764Q611 764 621.5 757.0Q632 750 632 735V-11Q632 -26 621.5 -33.0Q611 -40 598 -40Q584 -40 573.5 -33.0Q563 -26 563 -11V412H440Q427 412 421.0 421.5Q415 431 415 445Q415 458 421.0 467.0Q427 476 440 476H563V735Q563 750 573.5 757.0Q584 764 598 764ZM774 774Q788 774 798.5 767.0Q809 760 809 745V-53Q809 -68 798.5 -75.0Q788 -82 774 -82Q761 -82 750.5 -75.0Q740 -68 740 -53V745Q740 760 750.5 767.0Q761 774 774 774Z" transform="translate(161.480 60.790) scale(0.013000 -0.013000)"/><path d="M350 755Q408 755 451.0 743.0Q494 731 522.5 709.5Q551 688 565.5 658.0Q580 628 580 593Q580 558 565.5 528.0Q551 498 522.5 476.5Q494 455 451.0 443.0Q408 431 350 431Q292 431 248.5 443.0Q205 455 176.5 476.5Q148 498 134.0 528.0Q120 558 120 593Q120 628 134.0 658.0Q148 688 176.5 709.5Q205 731 248.5 743.0Q292 755 350 755ZM350 695Q267 695 228.5 665.5Q190 636 190 593Q190 549 228.5 520.0Q267 491 350 491Q433 491 471.5 520.0Q510 549 510 593Q510 637 471.5 666.0Q433 695 350 695ZM762 774Q776 774 787.0 767.0Q798 760 798 744V104Q798 88 787.0 81.0Q776 74 762 74Q748 74 737.0 81.0Q726 88 726 104V173H542Q530 173 524.0 182.0Q518 191 518 204Q518 216 524.0 225.0Q530 234 542 234H726V744Q726 760 737.0 767.0Q748 774 762 774ZM632 376Q644 378 651.5 370.0Q659 362 661 349Q662 335 656.5 326.0Q651 317 639 315Q579 307 513.0 302.5Q447 298 377 295V156Q377 141 366.0 134.5Q355 128 340 128Q326 128 315.0 134.5Q304 141 304 156V292Q247 290 189.5 289.5Q132 289 76 289Q63 289 57.0 298.0Q51 307 51 320Q51 333 57.0 342.0Q63 351 76 351Q207 351 349.0 355.0Q491 359 632 376ZM239 108Q253 108 264.5 101.0Q276 94 276 78V-47Q276 -66 295 -66H799Q812 -66 818.0 -75.0Q824 -84 824 -97Q824 -110 818.0 -119.0Q812 -128 799 -128H271Q232 -128 217.0 -113.5Q202 -99 202 -61V78Q202 94 213.5 101.0Q225 108 239 108Z" transform="translate(176.560 60.790) scale(0.013000 -0.013000)"/><path d="M304 728Q361 728 403.5 710.5Q446 693 474.0 662.0Q502 631 516.0 590.0Q530 549 530 501Q530 454 516.0 412.5Q502 371 474.0 340.5Q446 310 403.5 292.5Q361 275 304 275Q247 275 204.5 292.5Q162 310 134.0 340.5Q106 371 92.0 412.5Q78 454 78 501Q78 549 92.0 590.0Q106 631 134.0 662.0Q162 693 204.5 710.5Q247 728 304 728ZM304 665Q262 665 233.0 651.5Q204 638 185.0 615.5Q166 593 157.5 563.5Q149 534 149 501Q149 468 157.5 438.5Q166 409 185.0 386.5Q204 364 233.0 351.0Q262 338 304 338Q346 338 375.0 351.0Q404 364 423.0 386.5Q442 409 450.5 438.5Q459 468 459 501Q459 534 450.5 563.5Q442 593 423.0 615.5Q404 638 375.0 651.5Q346 665 304 665ZM744 774Q758 774 769.0 767.0Q780 760 780 744V134Q780 118 769.0 111.0Q758 104 744 104Q730 104 718.5 111.0Q707 118 707 134V744Q707 760 718.5 767.0Q730 774 744 774ZM250 182Q264 182 275.5 175.0Q287 168 287 152V-44Q287 -62 306 -62H780Q794 -62 800.0 -71.5Q806 -81 806 -94Q806 -107 800.0 -116.5Q794 -126 780 -126H282Q243 -126 228.0 -111.5Q213 -97 213 -59V152Q213 168 224.5 175.0Q236 182 250 182Z" transform="translate(188.390 60.790) scale(0.013000 -0.013000)"/><path d="M455 763Q598 763 674.5 725.0Q751 687 751 607Q751 528 674.5 490.0Q598 452 455 452Q312 452 235.5 490.0Q159 528 159 607Q159 687 235.5 725.0Q312 763 455 763ZM455 703Q340 703 286.0 679.0Q232 655 232 607Q232 560 286.0 535.5Q340 511 455 511Q570 511 624.0 535.5Q678 560 678 607Q678 655 624.0 679.0Q570 703 455 703ZM847 374Q860 374 866.0 365.0Q872 356 872 343Q872 330 866.0 321.0Q860 312 847 312H63Q50 312 44.0 321.0Q38 330 38 343Q38 356 44.0 365.0Q50 374 63 374H847ZM683 218Q722 218 737.0 203.5Q752 189 752 151V77Q752 39 737.0 24.5Q722 10 683 10H244Q228 10 228 -6V-68Q228 -83 244 -83H753Q765 -83 770.5 -92.0Q776 -101 776 -112Q776 -124 770.5 -133.0Q765 -142 753 -142H226Q187 -142 172.0 -127.5Q157 -113 157 -75V0Q157 38 172.0 52.5Q187 67 226 67H665Q682 67 682 82V144Q682 160 665 160H179Q167 160 161.0 168.5Q155 177 155 189Q155 200 161.0 209.0Q167 218 179 218H683Z" transform="translate(200.220 60.790) scale(0.013000 -0.013000)"/><path d="M283 746Q339 746 381.5 730.5Q424 715 452.0 688.0Q480 661 494.0 624.5Q508 588 508 546Q508 504 494.0 467.5Q480 431 452.0 404.5Q424 378 381.5 362.5Q339 347 283 347Q227 347 184.5 362.5Q142 378 114.0 404.5Q86 431 72.0 467.5Q58 504 58 546Q58 588 72.0 624.5Q86 661 114.0 688.0Q142 715 184.5 730.5Q227 746 283 746ZM283 685Q243 685 214.0 674.0Q185 663 166.0 644.0Q147 625 138.0 599.5Q129 574 129 546Q129 518 138.0 493.0Q147 468 166.0 449.0Q185 430 214.0 419.0Q243 408 283 408Q323 408 352.0 419.0Q381 430 400.0 449.0Q419 468 428.0 493.0Q437 518 437 546Q437 574 428.0 599.5Q419 625 400.0 644.0Q381 663 352.0 674.0Q323 685 283 685ZM700 774Q714 774 725.5 767.0Q737 760 737 744V579H864Q878 579 884.0 569.5Q890 560 890 546Q890 533 884.0 523.5Q878 514 864 514H737V336Q737 320 725.5 313.0Q714 306 700 306Q686 306 675.0 313.0Q664 320 664 336V744Q664 760 675.0 767.0Q686 774 700 774ZM668 256Q707 256 722.0 241.5Q737 227 737 189V97Q737 59 722.0 44.5Q707 30 668 30H272Q262 30 257.5 26.5Q253 23 253 12V-59Q253 -78 272 -78H737Q749 -78 755.0 -87.0Q761 -96 761 -108Q761 -120 755.0 -129.0Q749 -138 737 -138H251Q212 -138 197.0 -123.5Q182 -109 182 -71V22Q182 60 197.0 74.5Q212 89 251 89H647Q658 89 662.0 92.5Q666 96 666 107V178Q666 196 647 196H204Q192 196 186.0 205.0Q180 214 180 226Q180 238 186.0 247.0Q192 256 204 256H668Z" transform="translate(215.300 60.790) scale(0.013000 -0.013000)"/><path d="M405 710Q444 710 459.0 695.5Q474 681 474 643V458Q474 420 459.0 405.5Q444 391 405 391H185Q166 391 166 373V208Q166 190 185 190Q285 190 379.0 193.5Q473 197 556 206Q567 208 575.0 200.5Q583 193 585 180Q587 165 581.0 154.5Q575 144 563 143Q491 135 392.5 131.0Q294 127 163 127Q124 127 109.0 141.5Q94 156 94 194V385Q94 423 109.0 437.5Q124 452 163 452H383Q402 452 402 471V629Q402 647 383 647H119Q106 647 100.0 656.0Q94 665 94 679Q94 692 100.0 701.0Q106 710 119 710H405ZM750 774Q764 774 775.0 767.0Q786 760 786 744V-52Q786 -68 775.0 -75.0Q764 -82 750 -82Q736 -82 725.0 -75.0Q714 -68 714 -52V307H566Q552 307 546.0 316.5Q540 326 540 339Q540 352 546.0 361.0Q552 370 566 370H714V516H566Q552 516 546.0 525.5Q540 535 540 548Q540 561 546.0 570.0Q552 579 566 579H714V744Q714 760 725.0 767.0Q736 774 750 774Z" transform="translate(227.130 60.790) scale(0.013000 -0.013000)"/><path d="M725 712Q739 712 745.0 703.0Q751 694 751 681Q751 667 745.0 658.0Q739 649 725 649H249Q230 649 230 631V366Q230 347 249 347H735Q749 347 755.0 338.0Q761 329 761 316Q761 302 755.0 293.0Q749 284 735 284H226Q187 284 172.0 298.5Q157 313 157 351V645Q157 683 172.0 697.5Q187 712 226 712H725ZM846 75Q860 75 866.0 65.5Q872 56 872 42Q872 29 866.0 20.0Q860 11 846 11H64Q50 11 44.0 20.0Q38 29 38 42Q38 56 44.0 65.5Q50 75 64 75H846Z" transform="translate(238.960 60.790) scale(0.013000 -0.013000)"/><path d="M405 710Q444 710 459.0 695.5Q474 681 474 643V458Q474 420 459.0 405.5Q444 391 405 391H185Q166 391 166 373V208Q166 190 185 190Q285 190 379.0 193.5Q473 197 556 206Q567 208 575.0 200.5Q583 193 585 180Q587 165 581.0 154.5Q575 144 563 143Q491 135 392.5 131.0Q294 127 163 127Q124 127 109.0 141.5Q94 156 94 194V385Q94 423 109.0 437.5Q124 452 163 452H383Q402 452 402 471V629Q402 647 383 647H119Q106 647 100.0 656.0Q94 665 94 679Q94 692 100.0 701.0Q106 710 119 710H405ZM750 774Q764 774 775.0 767.0Q786 760 786 744V-52Q786 -68 775.0 -75.0Q764 -82 750 -82Q736 -82 725.0 -75.0Q714 -68 714 -52V307H566Q552 307 546.0 316.5Q540 326 540 339Q540 352 546.0 361.0Q552 370 566 370H714V516H566Q552 516 546.0 525.5Q540 535 540 548Q540 561 546.0 570.0Q552 579 566 579H714V744Q714 760 725.0 767.0Q736 774 750 774Z" transform="translate(250.790 60.790) scale(0.013000 -0.013000)"/><path d="M455 737Q599 737 676.5 675.5Q754 614 754 505Q754 396 676.5 334.5Q599 273 455 273Q311 273 233.5 334.5Q156 396 156 505Q156 614 233.5 675.5Q311 737 455 737ZM455 675Q398 675 355.5 662.0Q313 649 285.0 626.5Q257 604 243.0 573.0Q229 542 229 505Q229 469 243.0 438.0Q257 407 285.0 384.5Q313 362 355.5 349.0Q398 336 455 336Q512 336 554.5 349.0Q597 362 625.0 384.5Q653 407 667.0 438.0Q681 469 681 505Q681 542 667.0 573.0Q653 604 625.0 626.5Q597 649 554.5 662.0Q512 675 455 675ZM296 250Q311 250 322.0 243.0Q333 236 333 220V73H577V220Q577 236 588.0 243.0Q599 250 613 250Q627 250 638.5 243.0Q650 236 650 220V73H847Q860 73 866.0 64.0Q872 55 872 42Q872 29 866.0 20.0Q860 11 847 11H63Q50 11 44.0 20.0Q38 29 38 42Q38 55 44.0 64.0Q50 73 63 73H260V220Q260 236 271.0 243.0Q282 250 296 250Z" transform="translate(262.620 60.790) scale(0.013000 -0.013000)"/><path d="M115 87Q140 87 156.0 70.5Q172 54 172 30Q172 7 156.0 -9.5Q140 -26 115 -26Q91 -26 74.5 -9.5Q58 7 58 30Q58 54 74.5 70.5Q91 87 115 87Z" transform="translate(274.450 60.790) scale(0.013000 -0.013000)"/></g><polyline points="398.4,35.2 404.8,41.6 398.4,48.0" fill="none" stroke="#1F2937" stroke-width="1.6" stroke-linecap="round" stroke-linejoin="round" opacity="1"/></svg>