<svg xmlns="http://www.w3.org/2000/svg" width="430" height="88" viewBox="0 0 430 88" role="img" aria-label="농사 용어가 어려워요"><title>농사 용어가 어려워요</title><defs>
<linearGradient id="gGreen" x1="0" y1="0" x2="1" y2="1"><stop offset="0" stop-color="#4CC48B"/><stop offset="1" stop-color="#1E5E3E"/></linearGradient>
<linearGradient id="gMint" x1="0" y1="0" x2="1" y2="1"><stop offset="0" stop-color="#F6FFF8"/><stop offset="1" stop-color="#E9F7EC"/></linearGradient>
<linearGradient id="gBlue" x1="0" y1="0" x2="1" y2="1"><stop offset="0" stop-color="#DDF6FF"/><stop offset="1" stop-color="#8ED7F4"/></linearGradient>
<linearGradient id="gYellow" x1="0" y1="0" x2="1" y2="1"><stop offset="0" stop-color="#FFF8D8"/><stop offset="1" stop-color="#FFE1A4"/></linearGradient>
<filter id="shadow" x="-30%" y="-30%" width="160%" height="160%"><feDropShadow dx="0" dy="6" stdDeviation="8" flood-color="#103A26" flood-opacity=".11"/></filter>
<filter id="shadowSmall" x="-30%" y="-30%" width="160%" height="160%"><feDropShadow dx="0" dy="3" stdDeviation="4" flood-color="#103A26" flood-opacity=".09"/></filter>
</defs><rect x="0" y="0" width="430" height="88" rx="16" fill="url(#gMint)" stroke="#D8ECDD" stroke-width="1" opacity="1"/><g transform="translate(12 10) scale(.56)" opacity="1"><circle cx="60" cy="60" r="52" fill="#E9F7EC" stroke="none" stroke-width="1" opacity="1"/><g transform="translate(20 22) scale(.52)" opacity="1"><path d="M32 121 C29 60 71 24 140 28 C143 91 101 135 32 121Z" fill="url(#gGreen)" stroke="none" stroke-width="1" stroke-linecap="round" stroke-linejoin="round" opacity="1"/><path d="M43 113 C69 90 93 66 128 41" fill="none" stroke="#C7F0D0" stroke-width="5" stroke-linecap="round" stroke-linejoin="round" opacity="1"/><path d="M70 88 L51 70 M91 68 L83 48 M91 69 L113 75" fill="none" stroke="#B9E7C2" stroke-width="3" stroke-linecap="round" stroke-linejoin="round" opacity="1"/></g><rect x="48" y="72" width="30" height="16" rx="8" fill="#FFCE52" stroke="none" stroke-width="1" opacity="1"/><text x="63" y="84" font-family="Pretendard, 'Noto Sans KR', Arial, sans-serif" font-size="11" font-weight="800" fill="#1E5E3E" text-anchor="middle" opacity="1">A</text></g><text x="87" y="36" font-family="Pretendard, 'Noto Sans KR', Arial, sans-serif" font-size="15" font-weight="750" fill="#1F2937" text-anchor="start" opacity="1">농사 용어가 어려워요</text><text x="87" y="60" font-family="Pretendard, 'Noto Sans KR', Arial, sans-serif" font-size="12" font-weight="500" fill="#6B7280" text-anchor="start" opacity="1">쉬운 설명으로 이해를 도와드려요.</text><path d="M399 36 L405 44 L399 52" fill="none" stroke="#1F2937" stroke-width="2.2" stroke-linecap="round" stroke-linejoin="round" opacity="1"/></svg>