<svg xmlns="http://www.w3.org/2000/svg" width="430" height="88" viewBox="0 0 430 88" role="img" aria-label="이 시기에는 무엇을 조심해야 하나요?"><title>이 시기에는 무엇을 조심해야 하나요?</title><defs>
<linearGradient id="gGreen" x1="0" y1="0" x2="1" y2="1"><stop offset="0" stop-color="#4CC48B"/><stop offset="1" stop-color="#1E5E3E"/></linearGradient>
<linearGradient id="gMint" x1="0" y1="0" x2="1" y2="1"><stop offset="0" stop-color="#F6FFF8"/><stop offset="1" stop-color="#E9F7EC"/></linearGradient>
<linearGradient id="gBlue" x1="0" y1="0" x2="1" y2="1"><stop offset="0" stop-color="#DDF6FF"/><stop offset="1" stop-color="#8ED7F4"/></linearGradient>
<linearGradient id="gYellow" x1="0" y1="0" x2="1" y2="1"><stop offset="0" stop-color="#FFF8D8"/><stop offset="1" stop-color="#FFE1A4"/></linearGradient>
<filter id="shadow" x="-30%" y="-30%" width="160%" height="160%"><feDropShadow dx="0" dy="6" stdDeviation="8" flood-color="#103A26" flood-opacity=".11"/></filter>
<filter id="shadowSmall" x="-30%" y="-30%" width="160%" height="160%"><feDropShadow dx="0" dy="3" stdDeviation="4" flood-color="#103A26" flood-opacity=".09"/></filter>
</defs><rect x="0" y="0" width="430" height="88" rx="16" fill="url(#gMint)" stroke="#D8ECDD" stroke-width="1" opacity="1"/><g transform="translate(12 10) scale(.56)" opacity="1"><circle cx="60" cy="60" r="52" fill="#E6F7FE" stroke="none" stroke-width="1" opacity="1"/><circle cx="60" cy="61" r="30" fill="url(#gBlue)" stroke="none" stroke-width="1" opacity="1"/><path d="M33 62 Q60 42 87 62 M60 31 V91 M37 45 Q60 52 83 45 M37 78 Q60 70 83 78" fill="none" stroke="#FFFFFF" stroke-width="3" stroke-linecap="round" stroke-linejoin="round" opacity="0.75"/></g><text x="87" y="36" font-family="Pretendard, 'Noto Sans KR', Arial, sans-serif" font-size="15" font-weight="750" fill="#1F2937" text-anchor="start" opacity="1">이 시기에는 무엇을 조심해야 하나요?</text><text x="87" y="60" font-family="Pretendard, 'Noto Sans KR', Arial, sans-serif" font-size="12" font-weight="500" fill="#6B7280" text-anchor="start" opacity="1">시기별 주의사항과 관리 팁을 알려드려요.</text><path d="M399 36 L405 44 L399 52" fill="none" stroke="#1F2937" stroke-width="2.2" stroke-linecap="round" stroke-linejoin="round" opacity="1"/></svg>