<svg xmlns="http://www.w3.org/2000/svg" width="430" height="88" viewBox="0 0 430 88" role="img" aria-label="오늘 물을 줘야 하나요?"><title>오늘 물을 줘야 하나요?</title><defs>
<linearGradient id="gGreen" x1="0" y1="0" x2="1" y2="1"><stop offset="0" stop-color="#4CC48B"/><stop offset="1" stop-color="#1E5E3E"/></linearGradient>
<linearGradient id="gMint" x1="0" y1="0" x2="1" y2="1"><stop offset="0" stop-color="#F6FFF8"/><stop offset="1" stop-color="#E9F7EC"/></linearGradient>
<linearGradient id="gBlue" x1="0" y1="0" x2="1" y2="1"><stop offset="0" stop-color="#DDF6FF"/><stop offset="1" stop-color="#8ED7F4"/></linearGradient>
<linearGradient id="gYellow" x1="0" y1="0" x2="1" y2="1"><stop offset="0" stop-color="#FFF8D8"/><stop offset="1" stop-color="#FFE1A4"/></linearGradient>
<filter id="shadow" x="-30%" y="-30%" width="160%" height="160%"><feDropShadow dx="0" dy="6" stdDeviation="8" flood-color="#103A26" flood-opacity=".11"/></filter>
<filter id="shadowSmall" x="-30%" y="-30%" width="160%" height="160%"><feDropShadow dx="0" dy="3" stdDeviation="4" flood-color="#103A26" flood-opacity=".09"/></filter>
</defs><rect x="0" y="0" width="430" height="88" rx="16" fill="url(#gMint)" stroke="#D8ECDD" stroke-width="1" opacity="1"/><g transform="translate(12 10) scale(.56)" opacity="1"><circle cx="60" cy="60" r="52" fill="#E9F7EC" stroke="none" stroke-width="1" opacity="1"/><g transform="translate(20 12)" opacity="1"><g transform="translate(0 0) scale(0.45)" opacity="1"><ellipse cx="90" cy="126" rx="70" ry="19" fill="#8A5A2B" stroke="none" stroke-width="1" opacity="1"/><ellipse cx="90" cy="122" rx="62" ry="15" fill="#9B6838" stroke="none" stroke-width="1" opacity="1"/><path d="M88 119 C88 92 87 74 90 53" fill="none" stroke="#3C8B43" stroke-width="8" stroke-linecap="round" stroke-linejoin="round" opacity="1"/><path d="M88 82 C55 81 42 58 55 41 C79 41 93 56 88 82Z" fill="#5AC65D" stroke="none" stroke-width="1" stroke-linecap="round" stroke-linejoin="round" opacity="1"/><path d="M91 72 C119 72 132 49 122 34 C101 34 87 50 91 72Z" fill="#3EAB4C" stroke="none" stroke-width="1" stroke-linecap="round" stroke-linejoin="round" opacity="1"/></g></g></g><text x="87" y="36" font-family="Pretendard, 'Noto Sans KR', Arial, sans-serif" font-size="15" font-weight="750" fill="#1F2937" text-anchor="start" opacity="1">오늘 물을 줘야 하나요?</text><text x="87" y="60" font-family="Pretendard, 'Noto Sans KR', Arial, sans-serif" font-size="12" font-weight="500" fill="#6B7280" text-anchor="start" opacity="1">날씨와 토양 정보를 바탕으로 알려드려요.</text><path d="M399 36 L405 44 L399 52" fill="none" stroke="#1F2937" stroke-width="2.2" stroke-linecap="round" stroke-linejoin="round" opacity="1"/></svg>