<svg xmlns="http://www.w3.org/2000/svg" width="430" height="100" viewBox="0 0 430 100" role="img" aria-label="Recommendation card"><title>Recommendation card</title><defs><linearGradient id="card-recommend-bg" x1="0%" y1="0%" x2="100%" y2="0%"><stop offset="0%" stop-color="#F5FBF7" stop-opacity="1"/><stop offset="100%" stop-color="#E9F7EC" stop-opacity="1"/></linearGradient></defs><rect x="2" y="2" width="426" height="96" rx="18" fill="url(#card-recommend-bg)" stroke="#D5EBDD" stroke-width="1.3" opacity="1"/><ellipse cx="44.96" cy="22.400000000000002" rx="17.48" ry="25.76" fill="#7ED24E" stroke-width="1" opacity="1" transform="rotate(-25 44.96 22.400000000000002)"/><ellipse cx="32.08" cy="37.120000000000005" rx="15.64" ry="23.92" fill="#67C544" stroke-width="1" opacity="1" transform="rotate(-40 32.08 37.120000000000005)"/><ellipse cx="58.300000000000004" cy="37.120000000000005" rx="15.64" ry="23.92" fill="#53AE38" stroke-width="1" opacity="1" transform="rotate(40 58.300000000000004 37.120000000000005)"/><ellipse cx="42.2" cy="46.32" rx="15.64" ry="23.0" fill="#8DDB5A" stroke-width="1" opacity="1" transform="rotate(-8 42.2 46.32)"/><ellipse cx="54.160000000000004" cy="49.080000000000005" rx="14.72" ry="22.080000000000002" fill="#72C94A" stroke-width="1" opacity="1" transform="rotate(12 54.160000000000004 49.080000000000005)"/><ellipse cx="46.34" cy="35.28" rx="13.8" ry="22.080000000000002" fill="#4B9D34" stroke-width="1" opacity="1" transform="rotate(0 46.34 35.28)"/><path d="M29.32 61.96 Q45.88 70.24000000000001 63.36 61.96" fill="none" stroke="#469332" stroke-width="2.3000000000000003" stroke-linecap="round" stroke-linejoin="round" opacity="0.8"/><g fill="#1E5E3E" opacity="1"><path d="M557 683Q557 666 548.5 653.5Q540 641 522 641H360V596Q360 547 375.0 514.0Q390 481 426 452Q461 423 492.0 400.0Q523 377 547 360Q564 348 565.0 331.0Q566 314 555 299Q545 287 528.5 280.5Q512 274 493 287Q475 300 446.0 321.5Q417 343 385 369Q347 400 331.5 418.5Q316 437 312 452H311Q307 435 290.5 415.0Q274 395 236 365Q203 339 171.5 315.5Q140 292 110 271Q93 259 75.5 265.0Q58 271 49 284Q38 298 39.0 316.0Q40 334 57 347Q93 372 126.5 396.5Q160 421 195 449Q230 478 245.0 511.0Q260 544 260 593V641H91Q72 641 63.5 653.5Q55 666 55 683Q55 700 63.5 713.0Q72 726 91 726H522Q540 726 548.5 713.0Q557 700 557 683ZM696 778Q716 778 731.0 768.0Q746 758 746 736V557H856Q876 557 884.5 544.0Q893 531 893 514Q893 495 884.5 482.5Q876 470 856 470H746V271Q746 250 731.0 240.0Q716 230 696 230Q676 230 661.0 240.0Q646 250 646 271V736Q646 758 661.0 768.0Q676 778 696 778ZM465 221Q602 221 676.5 173.5Q751 126 751 32Q751 -62 676.5 -109.5Q602 -157 465 -157Q328 -157 253.5 -109.5Q179 -62 179 32Q179 126 253.5 173.5Q328 221 465 221ZM465 140Q366 140 322.0 110.5Q278 81 278 32Q278 -18 322.0 -47.0Q366 -76 465 -76Q564 -76 608.0 -47.0Q652 -18 652 32Q652 82 608.0 111.0Q564 140 465 140Z" transform="translate(103.000 35.280) scale(0.016000 -0.016000)"/><path d="M422 711Q466 711 482.5 695.0Q499 679 499 636V220Q499 177 482.5 161.0Q466 145 422 145H145Q101 145 84.5 161.0Q68 177 68 220V636Q68 679 84.5 695.0Q101 711 145 711ZM188 625Q167 625 167 605V251Q167 231 188 231H379Q400 231 400 251V605Q400 625 379 625ZM696 778Q716 778 731.0 768.0Q746 758 746 736V476H856Q876 476 884.5 463.5Q893 451 893 433Q893 415 884.5 402.0Q876 389 856 389H746V-44Q746 -66 731.0 -76.0Q716 -86 696 -86Q676 -86 661.0 -76.0Q646 -66 646 -44V736Q646 758 661.0 768.0Q676 778 696 778Z" transform="translate(117.560 35.280) scale(0.016000 -0.016000)"/><path d="M324 798Q344 798 359.0 788.0Q374 778 374 756V682H540Q558 682 566.5 669.0Q575 656 575 639Q575 622 566.5 609.5Q558 597 540 597H374V558Q374 519 388.5 492.0Q403 465 438 442Q476 418 505.0 400.0Q534 382 554 370Q571 360 573.5 343.0Q576 326 567 311Q559 297 543.0 291.0Q527 285 507 296Q487 307 463.0 322.0Q439 337 407 357Q363 385 347.5 402.5Q332 420 327 435H326Q321 418 303.5 399.5Q286 381 242 352Q209 332 182.0 315.5Q155 299 122 280Q103 269 87.0 276.5Q71 284 63 298Q55 313 56.0 330.0Q57 347 76 358Q110 377 141.0 396.0Q172 415 210 440Q245 463 259.5 489.5Q274 516 274 555V597H101Q82 597 73.5 609.5Q65 622 65 639Q65 656 73.5 669.0Q82 682 101 682H274V756Q274 778 289.5 788.0Q305 798 324 798ZM746 778Q765 778 780.0 768.0Q795 758 795 736V328Q795 306 780.0 296.0Q765 286 746 286Q726 286 711.0 296.0Q696 306 696 328V453H555Q537 453 528.5 466.0Q520 479 520 496Q520 513 528.5 525.5Q537 538 555 538H696V736Q696 758 711.0 768.0Q726 778 746 778ZM795 168V87Q795 44 778.5 28.0Q762 12 718 12H321Q306 12 306 -3V-50Q306 -65 321 -65H785Q802 -65 809.5 -77.0Q817 -89 817 -104Q817 -120 809.5 -132.0Q802 -144 785 -144H286Q242 -144 225.5 -128.0Q209 -112 209 -69V13Q209 56 225.5 71.5Q242 87 286 87H682Q698 87 698 103V148Q698 164 682 164H239Q222 164 214.5 176.0Q207 188 207 203Q207 219 214.5 231.0Q222 243 239 243H718Q762 243 778.5 227.0Q795 211 795 168Z" transform="translate(132.120 35.280) scale(0.016000 -0.016000)"/><path d="M308 748Q328 748 343.5 738.0Q359 728 359 706V614Q359 566 374.5 531.5Q390 497 425 467Q460 438 491.0 414.0Q522 390 547 372Q564 360 564.5 342.5Q565 325 554 311Q544 297 527.0 291.5Q510 286 493 299Q473 313 444.0 335.5Q415 358 383 384Q345 414 329.5 434.0Q314 454 310 469H309Q305 452 288.0 431.0Q271 410 234 380Q202 354 171.5 330.0Q141 306 109 283Q92 271 74.5 276.5Q57 282 47 295Q37 309 37.0 327.5Q37 346 55 359Q90 385 123.0 410.0Q156 435 191 464Q226 494 241.5 528.5Q257 563 257 612V706Q257 728 272.5 738.0Q288 748 308 748ZM696 778Q716 778 731.0 768.0Q746 758 746 736V557H856Q876 557 884.5 544.0Q893 531 893 514Q893 495 884.5 482.5Q876 470 856 470H746V271Q746 250 731.0 240.0Q716 230 696 230Q676 230 661.0 240.0Q646 250 646 271V736Q646 758 661.0 768.0Q676 778 696 778ZM465 221Q602 221 676.5 173.5Q751 126 751 32Q751 -62 676.5 -109.5Q602 -157 465 -157Q328 -157 253.5 -109.5Q179 -62 179 32Q179 126 253.5 173.5Q328 221 465 221ZM465 140Q366 140 322.0 110.5Q278 81 278 32Q278 -18 322.0 -47.0Q366 -76 465 -76Q564 -76 608.0 -47.0Q652 -18 652 32Q652 82 608.0 111.0Q564 140 465 140Z" transform="translate(150.680 35.280) scale(0.016000 -0.016000)"/><path d="M455 790Q475 790 490.5 780.0Q506 770 506 748V689H745Q764 689 772.5 676.5Q781 664 781 646Q781 629 772.5 616.5Q764 604 745 604H505V589Q505 549 525.0 522.0Q545 495 589 475Q640 452 686.5 433.0Q733 414 778 397Q795 391 799.0 374.0Q803 357 796 340Q789 323 773.5 316.0Q758 309 741 316Q701 331 658.5 348.5Q616 366 575 384Q541 398 519.0 410.5Q497 423 484.0 434.5Q471 446 464.5 455.5Q458 465 456 474H455Q452 465 446.0 454.5Q440 444 426.5 433.0Q413 422 391.0 409.0Q369 396 336 382Q294 364 252.0 346.5Q210 329 170 314Q152 307 136.5 314.5Q121 322 114 339Q107 356 111.0 373.5Q115 391 132 397Q177 414 223.5 433.0Q270 452 321 475Q365 495 385.0 522.0Q405 549 405 589V604H165Q146 604 137.5 616.5Q129 629 129 646Q129 664 137.5 676.5Q146 689 165 689H404V748Q404 770 419.5 780.0Q435 790 455 790ZM875 201Q875 184 866.5 171.5Q858 159 840 159H505V-114Q505 -136 490.0 -146.0Q475 -156 455 -156Q435 -156 420.0 -146.0Q405 -136 405 -114V159H70Q52 159 43.5 171.5Q35 184 35 201Q35 218 43.5 231.0Q52 244 70 244H840Q858 244 866.5 231.0Q875 218 875 201Z" transform="translate(165.240 35.280) scale(0.016000 -0.016000)"/><path d="M684 737Q728 737 744.5 721.0Q761 705 761 662V435Q761 392 744.5 376.0Q728 360 684 360H226Q182 360 166.0 376.0Q150 392 150 435V662Q150 705 166.0 721.0Q182 737 226 737ZM271 651Q250 651 250 631V466Q250 446 271 446H639Q660 446 660 466V631Q660 651 639 651ZM875 209Q875 192 866.5 179.5Q858 167 840 167H505V-114Q505 -136 490.0 -146.0Q475 -156 455 -156Q435 -156 420.0 -146.0Q405 -136 405 -114V167H70Q52 167 43.5 179.5Q35 192 35 209Q35 226 43.5 239.0Q52 252 70 252H840Q858 252 866.5 239.0Q875 226 875 209Z" transform="translate(183.800 35.280) scale(0.016000 -0.016000)"/><path d="M755 676V600Q755 557 738.5 541.0Q722 525 678 525H266Q251 525 251 510V468Q251 453 266 453H745Q762 453 769.5 441.5Q777 430 777 414Q777 398 769.5 386.0Q762 374 745 374H231Q187 374 170.5 390.0Q154 406 154 449V526Q154 569 170.5 585.0Q187 601 231 601H642Q658 601 658 616V657Q658 672 642 672H184Q167 672 159.5 683.5Q152 695 152 712Q152 727 159.5 739.0Q167 751 184 751H678Q722 751 738.5 735.0Q755 719 755 676ZM875 266Q875 248 866.5 236.0Q858 224 840 224H70Q52 224 43.5 236.0Q35 248 35 266Q35 283 43.5 295.0Q52 307 70 307H840Q858 307 866.5 295.0Q875 283 875 266ZM685 155Q729 155 745.5 139.0Q762 123 762 80V-68Q762 -111 745.5 -127.0Q729 -143 685 -143H225Q181 -143 165.0 -127.0Q149 -111 149 -68V80Q149 123 165.0 139.0Q181 155 225 155ZM268 74Q247 74 247 54V-41Q247 -53 252.0 -57.5Q257 -62 268 -62H642Q653 -62 658.0 -57.5Q663 -53 663 -41V54Q663 74 642 74Z" transform="translate(198.360 35.280) scale(0.016000 -0.016000)"/><path d="M132 737Q151 737 166.0 727.0Q181 717 181 696V584H403V696Q403 717 418.0 727.0Q433 737 451 737Q470 737 485.5 727.0Q501 717 501 696V371Q501 328 484.5 312.0Q468 296 424 296H160Q116 296 99.5 312.0Q83 328 83 371V696Q83 717 98.0 727.0Q113 737 132 737ZM181 399Q181 379 202 379H382Q403 379 403 399V501H181ZM746 778Q765 778 780.0 768.0Q795 758 795 736V265Q795 244 780.0 234.0Q765 224 746 224Q727 224 711.5 234.0Q696 244 696 265V380H580Q562 380 554.0 392.5Q546 405 546 423Q546 440 554.0 452.5Q562 465 580 465H696V558H580Q562 558 554.0 570.5Q546 583 546 601Q546 618 554.0 630.5Q562 643 580 643H696V736Q696 758 711.5 768.0Q727 778 746 778ZM507 215Q647 215 723.5 168.5Q800 122 800 29Q800 -64 723.5 -110.5Q647 -157 507 -157Q367 -157 290.5 -110.5Q214 -64 214 29Q214 122 290.5 168.5Q367 215 507 215ZM507 134Q405 134 359.0 105.5Q313 77 313 29Q313 -19 359.0 -47.5Q405 -76 507 -76Q609 -76 655.0 -47.5Q701 -19 701 29Q701 77 655.0 105.5Q609 134 507 134Z" transform="translate(212.920 35.280) scale(0.016000 -0.016000)"/><path d="M241 719Q344 719 392.0 645.0Q440 571 440 428Q440 285 392.0 211.0Q344 137 241 137Q138 137 90.0 211.0Q42 285 42 428Q42 571 90.0 645.0Q138 719 241 719ZM241 631Q182 631 158.0 579.5Q134 528 134 428Q134 328 158.0 276.5Q182 225 241 225Q300 225 324.0 276.5Q348 328 348 428Q348 528 324.0 579.5Q300 631 241 631ZM771 778Q789 778 803.5 768.5Q818 759 818 739V-47Q818 -67 803.5 -76.5Q789 -86 771 -86Q754 -86 739.5 -76.5Q725 -67 725 -47V739Q725 759 739.5 768.5Q754 778 771 778ZM595 768Q612 768 626.5 758.5Q641 749 641 729V-5Q641 -25 626.5 -34.5Q612 -44 595 -44Q578 -44 563.5 -34.5Q549 -25 549 -5V278H380V362H549V494H380V578H549V729Q549 749 563.5 758.5Q578 768 595 768Z" transform="translate(231.480 35.280) scale(0.016000 -0.016000)"/><path d="M118 737Q137 737 152.5 727.0Q168 717 168 695V584H398V695Q398 717 413.0 727.0Q428 737 447 737Q466 737 481.5 727.0Q497 717 497 695V371Q497 328 480.5 312.0Q464 296 420 296H146Q102 296 85.5 312.0Q69 328 69 371V695Q69 717 84.0 727.0Q99 737 118 737ZM168 399Q168 388 172.5 383.5Q177 379 189 379H377Q398 379 398 399V501H168ZM696 778Q716 778 731.0 768.0Q746 758 746 736V554H856Q876 554 884.5 541.0Q893 528 893 511Q893 492 884.5 479.5Q876 467 856 467H746V265Q746 244 731.0 234.0Q716 224 696 224Q676 224 661.0 234.0Q646 244 646 265V736Q646 758 661.0 768.0Q676 778 696 778ZM465 215Q602 215 676.5 168.5Q751 122 751 29Q751 -64 676.5 -110.5Q602 -157 465 -157Q328 -157 253.5 -110.5Q179 -64 179 29Q179 122 253.5 168.5Q328 215 465 215ZM465 134Q366 134 322.0 105.5Q278 77 278 29Q278 -19 322.0 -47.5Q366 -76 465 -76Q564 -76 608.0 -47.5Q652 -19 652 29Q652 77 608.0 105.5Q564 134 465 134Z" transform="translate(246.040 35.280) scale(0.016000 -0.016000)"/><path d="M132 739Q151 739 166.5 729.0Q182 719 182 697V591H408V697Q408 719 423.0 729.0Q438 739 457 739Q476 739 491.5 729.0Q507 719 507 697V385Q507 342 490.5 326.0Q474 310 430 310H160Q116 310 99.5 326.0Q83 342 83 385V697Q83 719 98.0 729.0Q113 739 132 739ZM182 413Q182 401 186.5 396.5Q191 392 203 392H387Q398 392 403.0 396.5Q408 401 408 413V509H182ZM746 778Q765 778 780.0 768.0Q795 758 795 736V319Q795 297 780.0 287.0Q765 277 746 277Q726 277 711.0 287.0Q696 297 696 319V481H461V566H696V736Q696 758 711.0 768.0Q726 778 746 778ZM255 234Q274 234 289.5 224.0Q305 214 305 193V113H697V193Q697 214 712.0 224.0Q727 234 745 234Q765 234 780.0 224.0Q795 214 795 193V-64Q795 -107 778.5 -123.0Q762 -139 718 -139H284Q240 -139 223.5 -123.0Q207 -107 207 -64V193Q207 214 222.0 224.0Q237 234 255 234ZM305 -36Q305 -47 309.5 -52.0Q314 -57 326 -57H676Q697 -57 697 -36V33H305Z" transform="translate(260.600 35.280) scale(0.016000 -0.016000)"/></g><g fill="#6B7280" opacity="1"><path d="M455 761Q469 761 480.5 753.5Q492 746 492 730V685Q492 642 514.5 613.0Q537 584 594 558Q648 535 693.0 515.5Q738 496 784 478Q798 473 801.0 460.5Q804 448 799 436Q794 424 783.5 418.0Q773 412 759 417Q713 435 667.0 454.5Q621 474 574 494Q512 522 486.5 545.0Q461 568 456 587H455Q450 567 424.0 544.0Q398 521 336 493Q290 473 245.0 454.0Q200 435 153 417Q138 411 127.0 417.5Q116 424 111 436Q106 447 109.0 460.0Q112 473 126 478Q172 496 217.0 515.5Q262 535 316 558Q373 584 395.5 613.0Q418 642 418 685V730Q418 746 429.5 753.5Q441 761 455 761ZM847 336Q860 336 866.0 327.0Q872 318 872 305Q872 291 866.0 282.0Q860 273 847 273H63Q50 273 44.0 282.0Q38 291 38 305Q38 318 44.0 327.0Q50 336 63 336H847ZM192 196Q206 196 217.0 189.0Q228 182 228 167V85H682V167Q682 182 692.5 189.0Q703 196 717 196Q731 196 742.0 189.0Q753 182 753 167V-70Q753 -108 738.0 -122.5Q723 -137 684 -137H226Q187 -137 172.0 -122.5Q157 -108 157 -70V167Q157 182 167.5 189.0Q178 196 192 196ZM228 -61Q228 -77 245 -77H665Q682 -77 682 -61V25H228Z" transform="translate(103.000 64.790) scale(0.013000 -0.013000)"/><path d="M725 716Q739 716 745.0 707.0Q751 698 751 685Q751 671 745.0 662.0Q739 653 725 653H249Q230 653 230 635V372Q230 354 249 354H735Q749 354 755.0 345.0Q761 336 761 323Q761 309 755.0 300.0Q749 291 735 291H226Q187 291 172.0 305.5Q157 320 157 358V649Q157 687 172.0 701.5Q187 716 226 716H725ZM492 74H846Q860 74 866.0 65.0Q872 56 872 42Q872 29 866.0 20.0Q860 11 846 11H64Q50 11 44.0 20.0Q38 29 38 42Q38 56 44.0 65.0Q50 74 64 74H419V319H492Z" transform="translate(114.830 64.790) scale(0.013000 -0.013000)"/><path d="M473 719Q512 719 527.0 704.5Q542 690 542 652V588Q542 542 537.0 500.5Q532 459 521 422Q517 408 505.0 402.5Q493 397 477 400Q463 404 455.5 414.0Q448 424 452 438Q461 476 465.5 512.5Q470 549 470 591V637Q470 648 465.5 651.5Q461 655 451 655H126Q112 655 106.0 664.5Q100 674 100 687Q100 701 106.0 710.0Q112 719 126 719H473ZM718 774Q732 774 743.0 767.0Q754 760 754 744V488H868Q882 488 888.0 478.5Q894 469 894 456Q894 442 888.0 432.5Q882 423 868 423H754V120Q754 104 743.0 97.0Q732 90 718 90Q704 90 693.0 97.0Q682 104 682 120V744Q682 760 693.0 767.0Q704 774 718 774ZM259 516Q273 516 284.5 509.0Q296 502 296 486V307Q366 309 439.0 313.0Q512 317 590 324Q601 325 608.5 317.5Q616 310 617 296Q618 283 612.5 273.5Q607 264 595 262Q462 251 332.0 247.0Q202 243 63 243Q49 243 43.0 252.0Q37 261 37 274Q37 287 43.0 296.0Q49 305 63 305Q103 305 143.0 305.0Q183 305 224 306V486Q224 502 234.5 509.0Q245 516 259 516ZM213 151Q227 151 238.5 144.0Q250 137 250 120V-47Q250 -66 269 -66H755Q768 -66 774.0 -75.0Q780 -84 780 -97Q780 -110 774.0 -119.0Q768 -128 755 -128H245Q206 -128 191.0 -113.5Q176 -99 176 -61V120Q176 137 187.5 144.0Q199 151 213 151Z" transform="translate(129.910 64.790) scale(0.013000 -0.013000)"/><path d="M431 711Q470 711 485.0 696.5Q500 682 500 644V459Q500 421 485.0 406.5Q470 392 431 392H191Q172 392 172 374V209Q172 191 191 191Q309 191 403.5 196.5Q498 202 587 215Q599 217 607.0 209.0Q615 201 617 188Q619 174 613.5 163.5Q608 153 596 151Q557 146 513.5 141.5Q470 137 418.0 134.0Q366 131 305.0 129.5Q244 128 169 128Q130 128 115.0 142.5Q100 157 100 195V386Q100 424 115.0 438.5Q130 453 169 453H409Q428 453 428 472V630Q428 648 409 648H125Q112 648 106.0 657.0Q100 666 100 680Q100 693 106.0 702.0Q112 711 125 711H431ZM743 774Q757 774 768.5 767.0Q780 760 780 744V-52Q780 -68 768.5 -75.0Q757 -82 743 -82Q729 -82 718.0 -75.0Q707 -68 707 -52V744Q707 760 718.0 767.0Q729 774 743 774Z" transform="translate(141.740 64.790) scale(0.013000 -0.013000)"/><path d="M319 725Q377 725 420.0 709.0Q463 693 491.5 665.0Q520 637 534.5 599.0Q549 561 549 517Q549 473 534.5 435.0Q520 397 491.5 369.0Q463 341 420.0 325.0Q377 309 319 309Q261 309 218.0 325.0Q175 341 146.5 369.0Q118 397 103.5 435.0Q89 473 89 517Q89 561 103.5 599.0Q118 637 146.5 665.0Q175 693 218.0 709.0Q261 725 319 725ZM319 662Q278 662 247.5 650.5Q217 639 197.5 619.5Q178 600 168.5 573.5Q159 547 159 517Q159 487 168.5 460.5Q178 434 197.5 414.5Q217 395 247.5 383.5Q278 372 319 372Q360 372 390.5 383.5Q421 395 440.5 414.5Q460 434 469.5 460.5Q479 487 479 517Q479 547 469.5 573.5Q460 600 440.5 619.5Q421 639 390.5 650.5Q360 662 319 662ZM718 774Q732 774 743.0 767.0Q754 760 754 744V435H868Q882 435 888.0 425.5Q894 416 894 403Q894 389 888.0 379.5Q882 370 868 370H754V-52Q754 -68 743.0 -75.0Q732 -82 718 -82Q704 -82 693.0 -75.0Q682 -68 682 -52V744Q682 760 693.0 767.0Q704 774 718 774ZM590 156Q601 158 608.5 150.0Q616 142 617 129Q618 115 612.5 105.5Q607 96 595 95Q462 84 332.0 79.5Q202 75 63 75Q49 75 43.0 84.0Q37 93 37 106Q37 119 43.0 128.5Q49 138 63 138Q118 138 172.5 138.0Q227 138 284 139V351H356V142Q413 144 470.5 147.0Q528 150 590 156Z" transform="translate(153.570 64.790) scale(0.013000 -0.013000)"/><path d="M136 236Q136 225 140.5 221.5Q145 218 155 218H335Q346 218 350.0 221.5Q354 225 354 236V431H136ZM101 707Q115 707 125.5 700.5Q136 694 136 679V494H354V679Q354 694 364.5 700.5Q375 707 389 707Q403 707 413.5 700.5Q424 694 424 679V222Q424 184 409.0 169.5Q394 155 355 155H136Q97 155 82.0 169.5Q67 184 67 222V679Q67 694 77.5 700.5Q88 707 101 707ZM774 774Q788 774 798.5 767.0Q809 760 809 745V-53Q809 -68 798.5 -75.0Q788 -82 774 -82Q761 -82 750.5 -75.0Q740 -68 740 -53V397H607V-11Q607 -26 596.5 -33.0Q586 -40 572 -40Q559 -40 548.5 -33.0Q538 -26 538 -11V735Q538 750 548.5 757.0Q559 764 572 764Q586 764 596.5 757.0Q607 750 607 735V460H740V745Q740 760 750.5 767.0Q761 774 774 774Z" transform="translate(168.650 64.790) scale(0.013000 -0.013000)"/><path d="M455 751Q469 751 480.5 743.5Q492 736 492 720V658Q492 604 517.5 568.0Q543 532 594 506Q651 477 697.5 453.5Q744 430 787 410Q801 404 802.5 390.5Q804 377 799 366Q794 354 782.5 348.0Q771 342 757 349Q661 394 567 444Q511 473 486.0 499.0Q461 525 456 545H455Q450 525 425.0 498.5Q400 472 344 443Q296 417 249.0 394.0Q202 371 154 348Q140 341 128.0 347.5Q116 354 111 365Q106 376 107.5 390.0Q109 404 123 410Q166 430 212.5 453.5Q259 477 316 506Q367 532 392.5 568.0Q418 604 418 658V720Q418 736 429.5 743.5Q441 751 455 751ZM846 242Q860 242 866.0 233.0Q872 224 872 210Q872 197 866.0 188.0Q860 179 846 179H492V-122Q492 -138 480.5 -145.0Q469 -152 455 -152Q441 -152 430.0 -145.0Q419 -138 419 -122V179H64Q50 179 44.0 188.0Q38 197 38 210Q38 224 44.0 233.0Q50 242 64 242H846Z" transform="translate(180.480 64.790) scale(0.013000 -0.013000)"/><path d="M341 697Q380 697 395.0 682.5Q410 668 410 630V525Q410 479 406.5 445.0Q403 411 392.0 382.5Q381 354 360.5 327.5Q340 301 307.0 272.0Q274 243 225.0 207.5Q176 172 109 124Q98 116 85.0 119.5Q72 123 64 134Q56 145 56.5 159.0Q57 173 68 181Q130 224 174.5 256.0Q219 288 249.0 313.5Q279 339 297.0 361.0Q315 383 324.5 407.5Q334 432 336.5 460.5Q339 489 339 528V615Q339 633 320 633H92Q78 633 72.0 642.5Q66 652 66 665Q66 678 72.0 687.5Q78 697 92 697H341ZM774 774Q788 774 798.5 767.0Q809 760 809 745V-53Q809 -68 798.5 -75.0Q788 -82 774 -82Q761 -82 750.5 -75.0Q740 -68 740 -53V397H601V-11Q601 -26 590.5 -33.0Q580 -40 566 -40Q553 -40 542.5 -33.0Q532 -26 532 -11V735Q532 750 542.5 757.0Q553 764 566 764Q580 764 590.5 757.0Q601 750 601 735V460H740V745Q740 760 750.5 767.0Q761 774 774 774Z" transform="translate(195.560 64.790) scale(0.013000 -0.013000)"/><path d="M322 736Q336 736 347.5 729.0Q359 722 359 706V589Q359 538 375.0 499.5Q391 461 429 428Q467 396 498.0 371.0Q529 346 558 325Q571 315 571.5 301.5Q572 288 564 278Q556 267 543.5 264.0Q531 261 518 271Q492 290 461.0 314.5Q430 339 395 369Q357 401 342.0 422.5Q327 444 323 460H322Q318 443 302.5 420.5Q287 398 249 366Q214 336 178.5 308.0Q143 280 109 256Q96 246 83.5 249.5Q71 253 63 264Q55 274 55.0 287.5Q55 301 68 311Q142 364 214 427Q252 460 268.5 498.0Q285 536 285 587V706Q285 722 296.0 729.0Q307 736 322 736ZM750 774Q764 774 775.0 767.0Q786 760 786 744V134Q786 118 775.0 111.0Q764 104 750 104Q736 104 725.0 111.0Q714 118 714 134V500H535Q522 500 516.0 509.0Q510 518 510 532Q510 545 516.0 554.5Q522 564 535 564H714V744Q714 760 725.0 767.0Q736 774 750 774ZM252 182Q266 182 277.5 175.0Q289 168 289 152V-44Q289 -62 308 -62H786Q800 -62 806.0 -71.5Q812 -81 812 -94Q812 -107 806.0 -116.5Q800 -126 786 -126H284Q245 -126 230.0 -111.5Q215 -97 215 -59V152Q215 168 226.5 175.0Q238 182 252 182Z" transform="translate(207.390 64.790) scale(0.013000 -0.013000)"/><path d="M306 721Q419 721 476.0 646.0Q533 571 533 428Q533 285 476.0 210.0Q419 135 306 135Q193 135 135.5 210.0Q78 285 78 428Q78 571 135.5 646.0Q193 721 306 721ZM306 656Q224 656 187.0 596.5Q150 537 150 428Q150 319 187.0 259.5Q224 200 306 200Q388 200 425.0 259.5Q462 319 462 428Q462 537 425.0 596.5Q388 656 306 656ZM743 774Q757 774 768.5 767.0Q780 760 780 744V-52Q780 -68 768.5 -75.0Q757 -82 743 -82Q729 -82 718.0 -75.0Q707 -68 707 -52V744Q707 760 718.0 767.0Q729 774 743 774Z" transform="translate(219.220 64.790) scale(0.013000 -0.013000)"/><path d="M742 737Q754 737 760.0 728.0Q766 719 766 706Q766 693 760.0 684.0Q754 675 742 675H492V652Q492 616 512.5 590.0Q533 564 589 540Q643 518 688.0 500.5Q733 483 776 467Q790 462 794.0 449.5Q798 437 793 426Q788 414 778.0 408.0Q768 402 753 407Q711 422 666.5 439.5Q622 457 572 478Q541 490 520.5 502.0Q500 514 486.5 524.5Q473 535 466.0 545.5Q459 556 456 565H455Q450 545 425.0 523.5Q400 502 339 477Q288 456 244.0 438.5Q200 421 158 406Q143 401 132.5 407.0Q122 413 117 425Q112 436 116.0 449.0Q120 462 134 467Q177 483 222.0 500.5Q267 518 321 540Q377 564 397.5 590.0Q418 616 418 652V675H168Q156 675 150.0 684.0Q144 693 144 706Q144 719 150.0 728.0Q156 737 168 737H742ZM847 340Q860 340 866.0 331.0Q872 322 872 309Q872 296 866.0 287.0Q860 278 847 278H491V138H419V278H63Q50 278 44.0 287.0Q38 296 38 309Q38 322 44.0 331.0Q50 340 63 340H847ZM455 177Q598 177 675.5 136.5Q753 96 753 11Q753 -74 675.5 -114.5Q598 -155 455 -155Q312 -155 234.5 -114.5Q157 -74 157 11Q157 96 234.5 136.5Q312 177 455 177ZM455 118Q340 118 285.0 90.5Q230 63 230 11Q230 -41 285.0 -68.5Q340 -96 455 -96Q570 -96 625.0 -68.5Q680 -41 680 11Q680 63 625.0 90.5Q570 118 455 118Z" transform="translate(234.300 64.790) scale(0.013000 -0.013000)"/><path d="M455 737Q599 737 676.5 675.5Q754 614 754 505Q754 396 676.5 334.5Q599 273 455 273Q311 273 233.5 334.5Q156 396 156 505Q156 614 233.5 675.5Q311 737 455 737ZM455 675Q398 675 355.5 662.0Q313 649 285.0 626.5Q257 604 243.0 573.0Q229 542 229 505Q229 469 243.0 438.0Q257 407 285.0 384.5Q313 362 355.5 349.0Q398 336 455 336Q512 336 554.5 349.0Q597 362 625.0 384.5Q653 407 667.0 438.0Q681 469 681 505Q681 542 667.0 573.0Q653 604 625.0 626.5Q597 649 554.5 662.0Q512 675 455 675ZM296 250Q311 250 322.0 243.0Q333 236 333 220V73H577V220Q577 236 588.0 243.0Q599 250 613 250Q627 250 638.5 243.0Q650 236 650 220V73H847Q860 73 866.0 64.0Q872 55 872 42Q872 29 866.0 20.0Q860 11 847 11H63Q50 11 44.0 20.0Q38 29 38 42Q38 55 44.0 64.0Q50 73 63 73H260V220Q260 236 271.0 243.0Q282 250 296 250Z" transform="translate(246.130 64.790) scale(0.013000 -0.013000)"/><path d="M265 499Q311 499 345.5 484.5Q380 470 403.0 444.5Q426 419 437.5 384.5Q449 350 449 310Q449 270 437.5 235.5Q426 201 403.0 175.5Q380 150 345.5 135.5Q311 121 265 121Q219 121 184.5 135.5Q150 150 127.5 175.5Q105 201 93.5 235.5Q82 270 82 310Q82 350 93.5 384.5Q105 419 127.5 444.5Q150 470 184.5 484.5Q219 499 265 499ZM265 768Q279 768 290.0 761.0Q301 754 301 738V637H465Q479 637 485.0 628.0Q491 619 491 606Q491 592 485.0 583.0Q479 574 465 574H53Q40 574 34.0 583.0Q28 592 28 606Q28 619 34.0 628.0Q40 637 53 637H229V738Q229 754 240.0 761.0Q251 768 265 768ZM265 437Q235 437 212.5 427.0Q190 417 175.5 400.0Q161 383 154.0 360.0Q147 337 147 310Q147 256 175.5 219.0Q204 182 265 182Q327 182 355.5 219.0Q384 256 384 310Q384 337 377.0 360.0Q370 383 355.5 400.0Q341 417 318.5 427.0Q296 437 265 437ZM774 774Q788 774 798.5 767.0Q809 760 809 745V-53Q809 -68 798.5 -75.0Q788 -82 774 -82Q761 -82 750.5 -75.0Q740 -68 740 -53V387H609V-11Q609 -26 598.5 -33.0Q588 -40 574 -40Q561 -40 550.5 -33.0Q540 -26 540 -11V735Q540 750 550.5 757.0Q561 764 574 764Q588 764 598.5 757.0Q609 750 609 735V450H740V745Q740 760 750.5 767.0Q761 774 774 774Z" transform="translate(257.960 64.790) scale(0.013000 -0.013000)"/><path d="M455 737Q599 737 676.5 675.5Q754 614 754 505Q754 396 676.5 334.5Q599 273 455 273Q311 273 233.5 334.5Q156 396 156 505Q156 614 233.5 675.5Q311 737 455 737ZM455 675Q398 675 355.5 662.0Q313 649 285.0 626.5Q257 604 243.0 573.0Q229 542 229 505Q229 469 243.0 438.0Q257 407 285.0 384.5Q313 362 355.5 349.0Q398 336 455 336Q512 336 554.5 349.0Q597 362 625.0 384.5Q653 407 667.0 438.0Q681 469 681 505Q681 542 667.0 573.0Q653 604 625.0 626.5Q597 649 554.5 662.0Q512 675 455 675ZM296 250Q311 250 322.0 243.0Q333 236 333 220V73H577V220Q577 236 588.0 243.0Q599 250 613 250Q627 250 638.5 243.0Q650 236 650 220V73H847Q860 73 866.0 64.0Q872 55 872 42Q872 29 866.0 20.0Q860 11 847 11H63Q50 11 44.0 20.0Q38 29 38 42Q38 55 44.0 64.0Q50 73 63 73H260V220Q260 236 271.0 243.0Q282 250 296 250Z" transform="translate(269.790 64.790) scale(0.013000 -0.013000)"/><path d="M115 87Q140 87 156.0 70.5Q172 54 172 30Q172 7 156.0 -9.5Q140 -26 115 -26Q91 -26 74.5 -9.5Q58 7 58 30Q58 54 74.5 70.5Q91 87 115 87Z" transform="translate(281.620 64.790) scale(0.013000 -0.013000)"/></g><polyline points="396.0,38.0 402.0,44.0 396.0,50.0" fill="none" stroke="#1E5E3E" stroke-width="1.5" stroke-linecap="round" stroke-linejoin="round" opacity="1"/></svg>