<svg xmlns="http://www.w3.org/2000/svg" width="190" height="108" viewBox="0 0 190 108" role="img" aria-label="재배 환경"><title>재배 환경</title><defs>
<linearGradient id="gGreen" x1="0" y1="0" x2="1" y2="1"><stop offset="0" stop-color="#4CC48B"/><stop offset="1" stop-color="#1E5E3E"/></linearGradient>
<linearGradient id="gMint" x1="0" y1="0" x2="1" y2="1"><stop offset="0" stop-color="#F6FFF8"/><stop offset="1" stop-color="#E9F7EC"/></linearGradient>
<linearGradient id="gBlue" x1="0" y1="0" x2="1" y2="1"><stop offset="0" stop-color="#DDF6FF"/><stop offset="1" stop-color="#8ED7F4"/></linearGradient>
<linearGradient id="gYellow" x1="0" y1="0" x2="1" y2="1"><stop offset="0" stop-color="#FFF8D8"/><stop offset="1" stop-color="#FFE1A4"/></linearGradient>
<filter id="shadow" x="-30%" y="-30%" width="160%" height="160%"><feDropShadow dx="0" dy="6" stdDeviation="8" flood-color="#103A26" flood-opacity=".11"/></filter>
<filter id="shadowSmall" x="-30%" y="-30%" width="160%" height="160%"><feDropShadow dx="0" dy="3" stdDeviation="4" flood-color="#103A26" flood-opacity=".09"/></filter>
</defs><rect x="0" y="0" width="190" height="108" rx="16" fill="#FFFFFF" stroke="#E1E8E4" stroke-width="1.2" opacity="1"/><g transform="translate(-5 -3) scale(.43)" opacity="1"><rect x="31" y="50" width="66" height="52" rx="5" fill="#EAF9EE" stroke="#2FA86A" stroke-width="4" opacity="1"/><path d="M25 53 L64 24 L103 53" fill="none" stroke="#2FA86A" stroke-width="5" stroke-linecap="round" stroke-linejoin="round" opacity="1"/><line x1="64" y1="25" x2="64" y2="101" stroke="#2FA86A" stroke-width="4" stroke-linecap="round" opacity="1"/><line x1="31" y1="75" x2="97" y2="75" stroke="#2FA86A" stroke-width="3" stroke-linecap="round" opacity="1"/><g transform="translate(38 46)" opacity="1"><g transform="translate(0 0) scale(0.3)" opacity="1"><ellipse cx="90" cy="126" rx="70" ry="19" fill="#8A5A2B" stroke="none" stroke-width="1" opacity="1"/><ellipse cx="90" cy="122" rx="62" ry="15" fill="#9B6838" stroke="none" stroke-width="1" opacity="1"/><path d="M88 119 C88 92 87 74 90 53" fill="none" stroke="#3C8B43" stroke-width="8" stroke-linecap="round" stroke-linejoin="round" opacity="1"/><path d="M88 82 C55 81 42 58 55 41 C79 41 93 56 88 82Z" fill="#5AC65D" stroke="none" stroke-width="1" stroke-linecap="round" stroke-linejoin="round" opacity="1"/><path d="M91 72 C119 72 132 49 122 34 C101 34 87 50 91 72Z" fill="#3EAB4C" stroke="none" stroke-width="1" stroke-linecap="round" stroke-linejoin="round" opacity="1"/></g></g></g><text x="58" y="45" font-family="Pretendard, 'Noto Sans KR', Arial, sans-serif" font-size="13" font-weight="500" fill="#6B7280" text-anchor="start" opacity="1">재배 환경</text><text x="58" y="75" font-family="Pretendard, 'Noto Sans KR', Arial, sans-serif" font-size="19" font-weight="750" fill="#1E5E3E" text-anchor="start" opacity="1">양호</text></svg>