<svg xmlns="http://www.w3.org/2000/svg" width="190" height="110" viewBox="0 0 190 110" role="img" aria-label="재배 환경"><title>재배 환경</title><rect x="2" y="2" width="186" height="106" rx="18" fill="#fff" stroke="#E7ECE9" stroke-width="1.2" opacity="1"/><path d="M22 60 V36 Q45 12 68 36 V60Z" fill="none" stroke="#2FA86A" stroke-width="3" stroke-linecap="round" stroke-linejoin="round" opacity="1"/><line x1="45" y1="20" x2="45" y2="60" stroke="#2FA86A" stroke-width="2" stroke-linecap="round" opacity="1"/><rect x="35" y="44" width="20" height="16" rx="2" fill="#BFEACC" stroke-width="1" opacity="1"/><g fill="#6B7280" opacity="1"><path d="M452 696Q466 696 472.0 687.0Q478 678 478 664Q478 651 472.0 641.5Q466 632 452 632H304V518Q304 486 307.0 460.5Q310 435 317.5 413.5Q325 392 337.5 372.0Q350 352 368 331Q397 296 424.5 266.5Q452 237 474 214Q483 204 482.5 191.0Q482 178 471 168Q462 159 449.5 157.5Q437 156 426 167Q411 183 385.5 210.0Q360 237 334 268Q298 310 284.5 333.0Q271 356 269 373H268Q265 356 251.5 331.5Q238 307 202 266Q176 235 148.5 206.0Q121 177 95 151Q84 140 70.5 142.0Q57 144 49 152Q39 162 37.5 175.0Q36 188 47 199Q77 230 108.0 263.0Q139 296 168 331Q186 352 198.0 372.0Q210 392 217.5 413.5Q225 435 228.5 460.5Q232 486 232 518V632H76Q63 632 57.0 641.5Q51 651 51 664Q51 678 57.0 687.0Q63 696 76 696H452ZM774 774Q788 774 798.5 767.0Q809 760 809 745V-53Q809 -68 798.5 -75.0Q788 -82 774 -82Q761 -82 750.5 -75.0Q740 -68 740 -53V397H607V-11Q607 -26 596.5 -33.0Q586 -40 572 -40Q559 -40 548.5 -33.0Q538 -26 538 -11V735Q538 750 548.5 757.0Q559 764 572 764Q586 764 596.5 757.0Q607 750 607 735V460H740V745Q740 760 750.5 767.0Q761 774 774 774Z" transform="translate(78.000 32.620) scale(0.014000 -0.014000)"/><path d="M136 236Q136 225 140.5 221.5Q145 218 155 218H335Q346 218 350.0 221.5Q354 225 354 236V431H136ZM101 707Q115 707 125.5 700.5Q136 694 136 679V494H354V679Q354 694 364.5 700.5Q375 707 389 707Q403 707 413.5 700.5Q424 694 424 679V222Q424 184 409.0 169.5Q394 155 355 155H136Q97 155 82.0 169.5Q67 184 67 222V679Q67 694 77.5 700.5Q88 707 101 707ZM774 774Q788 774 798.5 767.0Q809 760 809 745V-53Q809 -68 798.5 -75.0Q788 -82 774 -82Q761 -82 750.5 -75.0Q740 -68 740 -53V397H607V-11Q607 -26 596.5 -33.0Q586 -40 572 -40Q559 -40 548.5 -33.0Q538 -26 538 -11V735Q538 750 548.5 757.0Q559 764 572 764Q586 764 596.5 757.0Q607 750 607 735V460H740V745Q740 760 750.5 767.0Q761 774 774 774Z" transform="translate(90.740 32.620) scale(0.014000 -0.014000)"/><path d="M328 573Q426 573 478.5 537.0Q531 501 531 440Q531 379 478.5 343.0Q426 307 328 307Q230 307 177.5 343.0Q125 379 125 440Q125 501 177.5 537.0Q230 573 328 573ZM328 787Q342 787 353.5 780.0Q365 773 365 758V692H564Q577 692 583.0 683.0Q589 674 589 661Q589 648 583.0 639.5Q577 631 564 631H85Q72 631 66.0 639.5Q60 648 60 661Q60 674 66.0 683.0Q72 692 85 692H291V758Q291 773 302.5 780.0Q314 787 328 787ZM328 517Q259 517 225.5 495.5Q192 474 192 440Q192 406 225.5 384.5Q259 363 328 363Q397 363 430.5 384.5Q464 406 464 440Q464 474 430.5 495.5Q397 517 328 517ZM718 774Q732 774 743.0 767.0Q754 760 754 744V469H868Q882 469 888.0 459.5Q894 450 894 437Q894 423 888.0 413.5Q882 404 868 404H754V102Q754 86 743.0 79.0Q732 72 718 72Q704 72 693.0 79.0Q682 86 682 102V744Q682 760 693.0 767.0Q704 774 718 774ZM364 217Q473 221 592 232Q617 234 619 205Q620 193 614.5 183.5Q609 174 597 172Q464 161 333.0 157.0Q202 153 62 153Q49 153 43.0 162.0Q37 171 37 183Q37 195 43.0 204.0Q49 213 62 213Q119 213 176.0 213.0Q233 213 293 215V341H364ZM213 96Q227 96 238.0 89.0Q249 82 249 66V-49Q249 -60 253.0 -63.5Q257 -67 268 -67H756Q768 -67 774.0 -76.0Q780 -85 780 -98Q780 -110 774.0 -119.0Q768 -128 756 -128H245Q206 -128 191.0 -113.5Q176 -99 176 -61V66Q176 82 187.5 89.0Q199 96 213 96Z" transform="translate(106.980 32.620) scale(0.014000 -0.014000)"/><path d="M411 721Q450 721 465.0 706.5Q480 692 480 654V580Q480 524 467.5 486.5Q455 449 417.5 416.0Q380 383 310.5 346.5Q241 310 128 256Q116 251 103.5 255.5Q91 260 85 273Q79 284 80.5 297.5Q82 311 96 317Q167 350 217.5 375.0Q268 400 303.0 420.0Q338 440 358.5 457.5Q379 475 390.0 494.0Q401 513 404.5 534.0Q408 555 408 583V639Q408 658 389 658H116Q102 658 96.0 667.0Q90 676 90 689Q90 703 96.0 712.0Q102 721 116 721H411ZM750 774Q764 774 775.0 767.0Q786 760 786 744V257Q786 241 775.0 234.0Q764 227 750 227Q736 227 725.0 234.0Q714 241 714 257V379H549Q535 379 529.0 388.0Q523 397 523 411Q523 424 529.0 433.0Q535 442 549 442H714V563H557Q543 563 537.0 572.0Q531 581 531 595Q531 608 537.0 617.0Q543 626 557 626H714V744Q714 760 725.0 767.0Q736 774 750 774ZM508 215Q645 215 719.0 168.5Q793 122 793 32Q793 -58 719.0 -104.5Q645 -151 508 -151Q371 -151 297.5 -104.5Q224 -58 224 32Q224 122 297.5 168.5Q371 215 508 215ZM508 155Q399 155 347.5 122.0Q296 89 296 32Q296 -25 347.5 -58.0Q399 -91 508 -91Q617 -91 669.0 -58.0Q721 -25 721 32Q721 89 669.0 122.0Q617 155 508 155Z" transform="translate(119.720 32.620) scale(0.014000 -0.014000)"/></g><g fill="#2FA86A" opacity="1"><path d="M282 741Q340 741 383.5 724.0Q427 707 456.0 677.0Q485 647 499.5 606.5Q514 566 514 519Q514 471 499.5 430.5Q485 390 456.0 360.0Q427 330 383.5 313.0Q340 296 282 296Q224 296 180.5 313.0Q137 330 108.0 360.0Q79 390 64.5 430.5Q50 471 50 519Q50 566 64.5 606.5Q79 647 108.0 677.0Q137 707 180.5 724.0Q224 741 282 741ZM282 657Q245 657 219.5 646.0Q194 635 177.5 616.5Q161 598 153.5 572.5Q146 547 146 519Q146 490 153.5 465.0Q161 440 177.5 421.0Q194 402 219.5 391.0Q245 380 282 380Q319 380 344.5 391.0Q370 402 386.5 421.0Q403 440 410.5 465.0Q418 490 418 519Q418 547 410.5 572.5Q403 598 386.5 616.5Q370 635 344.5 646.0Q319 657 282 657ZM696 778Q716 778 731.0 768.0Q746 758 746 736V643H850Q867 643 875.5 630.0Q884 617 884 600Q884 583 875.5 570.0Q867 557 850 557H746V472H850Q867 472 875.5 459.0Q884 446 884 429Q884 412 875.5 399.0Q867 386 850 386H746V271Q746 250 731.0 240.0Q716 230 696 230Q676 230 661.0 240.0Q646 250 646 271V736Q646 758 661.0 768.0Q676 778 696 778ZM465 221Q602 221 676.5 173.5Q751 126 751 32Q751 -62 676.5 -109.5Q602 -157 465 -157Q328 -157 253.5 -109.5Q179 -62 179 32Q179 126 253.5 173.5Q328 221 465 221ZM465 140Q366 140 322.0 110.5Q278 81 278 32Q278 -18 322.0 -47.0Q366 -76 465 -76Q564 -76 608.0 -47.0Q652 -18 652 32Q652 82 608.0 111.0Q564 140 465 140Z" transform="translate(78.000 68.110) scale(0.017000 -0.017000)"/><path d="M455 530Q584 530 656.5 487.0Q729 444 729 360Q729 276 656.5 233.5Q584 191 455 191Q326 191 253.5 233.5Q181 276 181 360Q181 444 253.5 487.0Q326 530 455 530ZM455 451Q362 451 320.0 426.5Q278 402 278 360Q278 318 320.0 294.0Q362 270 455 270Q548 270 590.0 294.0Q632 318 632 360Q632 402 590.0 426.5Q548 451 455 451ZM455 792Q475 792 490.5 782.0Q506 772 506 750V678H771Q789 678 797.5 665.5Q806 653 806 635Q806 618 797.5 605.5Q789 593 771 593H139Q121 593 112.5 605.5Q104 618 104 635Q104 653 112.5 665.5Q121 678 139 678H404V750Q404 772 419.5 782.0Q435 792 455 792ZM505 86H840Q858 86 866.5 73.5Q875 61 875 44Q875 27 866.5 14.0Q858 1 840 1H70Q52 1 43.5 14.0Q35 27 35 44Q35 61 43.5 73.5Q52 86 70 86H405V238H505Z" transform="translate(93.470 68.110) scale(0.017000 -0.017000)"/></g></svg>