<svg xmlns="http://www.w3.org/2000/svg" width="190" height="110" viewBox="0 0 190 110" role="img" aria-label="위험도"><title>위험도</title><rect x="2" y="2" width="186" height="106" rx="18" fill="#fff" stroke="#E7ECE9" stroke-width="1.2" opacity="1"/><polygon points="39.6,21.6 57.6,55.800000000000004 21.6,55.800000000000004" fill="#FF7A45" stroke-width="1" opacity="1"/><line x1="39.6" y1="32.4" x2="39.6" y2="43.2" stroke="#fff" stroke-width="3.6" stroke-linecap="round" opacity="1"/><circle cx="39.6" cy="49.5" r="2.3400000000000003" fill="#fff" stroke-width="1" opacity="1"/><g fill="#6B7280" opacity="1"><path d="M347 737Q405 737 448.5 723.0Q492 709 521.5 684.0Q551 659 565.5 625.0Q580 591 580 551Q580 512 565.5 478.0Q551 444 521.5 419.0Q492 394 448.5 379.5Q405 365 347 365Q289 365 245.5 379.5Q202 394 172.5 419.0Q143 444 128.5 478.0Q114 512 114 551Q114 591 128.5 625.0Q143 659 172.5 684.0Q202 709 245.5 723.0Q289 737 347 737ZM347 676Q305 676 274.5 666.5Q244 657 224.0 640.0Q204 623 194.5 600.0Q185 577 185 551Q185 499 224.5 463.0Q264 427 347 427Q430 427 469.5 463.0Q509 499 509 551Q509 577 499.5 600.0Q490 623 470.0 640.0Q450 657 419.5 666.5Q389 676 347 676ZM762 774Q776 774 787.0 767.0Q798 760 798 744V-52Q798 -68 787.0 -75.0Q776 -82 762 -82Q748 -82 737.0 -75.0Q726 -68 726 -52V744Q726 760 737.0 767.0Q748 774 762 774ZM633 290Q645 291 652.0 283.5Q659 276 661 263Q662 249 656.0 239.5Q650 230 639 229Q575 223 512.5 219.0Q450 215 387 213V-42Q387 -58 376.0 -65.0Q365 -72 351 -72Q337 -72 326.0 -65.0Q315 -58 315 -42V210Q199 207 77 207Q63 207 57.0 216.0Q51 225 51 238Q51 251 57.0 260.0Q63 269 77 269Q146 269 213.0 269.5Q280 270 348.0 272.5Q416 275 486.5 279.0Q557 283 633 290Z" transform="translate(78.000 32.620) scale(0.014000 -0.014000)"/><path d="M321 551Q418 551 472.0 509.5Q526 468 526 398Q526 328 472.0 286.5Q418 245 321 245Q224 245 170.0 286.5Q116 328 116 398Q116 468 170.0 509.5Q224 551 321 551ZM321 784Q335 784 346.5 777.0Q358 770 358 754V677H555Q569 677 575.0 668.0Q581 659 581 646Q581 633 575.0 623.5Q569 614 555 614H77Q63 614 57.0 623.5Q51 633 51 646Q51 659 57.0 668.0Q63 677 77 677H284V754Q284 770 295.5 777.0Q307 784 321 784ZM321 492Q254 492 218.5 466.5Q183 441 183 398Q183 355 218.5 329.5Q254 304 321 304Q388 304 423.5 329.5Q459 355 459 398Q459 441 423.5 466.5Q388 492 321 492ZM750 774Q764 774 775.0 767.0Q786 760 786 744V251Q786 235 775.0 228.0Q764 221 750 221Q736 221 725.0 228.0Q714 235 714 251V416H588Q574 416 568.0 425.0Q562 434 562 448Q562 461 568.0 470.5Q574 480 588 480H714V744Q714 760 725.0 767.0Q736 774 750 774ZM717 171Q756 171 771.0 156.5Q786 142 786 104V-66Q786 -104 771.0 -118.5Q756 -133 717 -133H284Q245 -133 230.0 -118.5Q215 -104 215 -66V104Q215 142 230.0 156.5Q245 171 284 171ZM306 110Q287 110 287 92V-54Q287 -65 291.0 -68.5Q295 -72 306 -72H695Q706 -72 710.0 -68.5Q714 -65 714 -54V92Q714 110 695 110Z" transform="translate(90.740 32.620) scale(0.014000 -0.014000)"/><path d="M725 716Q739 716 745.0 707.0Q751 698 751 685Q751 671 745.0 662.0Q739 653 725 653H249Q230 653 230 635V372Q230 354 249 354H735Q749 354 755.0 345.0Q761 336 761 323Q761 309 755.0 300.0Q749 291 735 291H226Q187 291 172.0 305.5Q157 320 157 358V649Q157 687 172.0 701.5Q187 716 226 716H725ZM492 74H846Q860 74 866.0 65.0Q872 56 872 42Q872 29 866.0 20.0Q860 11 846 11H64Q50 11 44.0 20.0Q38 29 38 42Q38 56 44.0 65.0Q50 74 64 74H419V319H492Z" transform="translate(103.480 32.620) scale(0.014000 -0.014000)"/></g><g fill="#FF7A45" opacity="1"><path d="M773 690Q773 673 764.5 660.5Q756 648 737 648H506V636Q506 612 510.0 594.0Q514 576 524.0 561.0Q534 546 551.5 533.0Q569 520 595 507Q645 481 688.0 460.5Q731 440 778 419Q795 411 798.0 394.5Q801 378 793 361Q785 344 769.5 337.0Q754 330 738 337Q687 360 645.0 380.0Q603 400 556 424Q503 451 481.5 471.0Q460 491 456 509H455Q450 489 429.0 469.0Q408 449 355 422Q307 398 265.0 378.0Q223 358 173 335Q156 328 140.5 335.5Q125 343 117 360Q108 377 111.5 394.0Q115 411 132 419Q179 440 222.0 460.5Q265 481 316 507Q342 520 359.0 533.0Q376 546 386.0 561.0Q396 576 400.0 594.0Q404 612 404 636V648H173Q154 648 145.5 660.5Q137 673 137 690Q137 708 145.5 720.5Q154 733 173 733H737Q756 733 764.5 720.5Q773 708 773 690ZM875 209Q875 192 866.5 179.5Q858 167 840 167H505V-114Q505 -136 490.0 -146.0Q475 -156 455 -156Q435 -156 420.0 -146.0Q405 -136 405 -114V167H70Q52 167 43.5 179.5Q35 192 35 209Q35 226 43.5 239.0Q52 252 70 252H840Q858 252 866.5 239.0Q875 226 875 209Z" transform="translate(78.000 68.110) scale(0.017000 -0.017000)"/><path d="M343 726Q403 726 448.5 709.5Q494 693 524.0 663.5Q554 634 569.5 594.0Q585 554 585 508Q585 461 569.5 421.0Q554 381 524.0 351.5Q494 322 448.5 305.5Q403 289 343 289Q283 289 237.5 305.5Q192 322 162.0 351.5Q132 381 116.5 421.0Q101 461 101 508Q101 554 116.5 594.0Q132 634 162.0 663.5Q192 693 237.5 709.5Q283 726 343 726ZM343 642Q268 642 232.0 603.5Q196 565 196 508Q196 451 232.0 412.0Q268 373 343 373Q418 373 454.0 412.0Q490 451 490 508Q490 565 454.0 603.5Q418 642 343 642ZM618 176Q635 178 644.5 167.0Q654 156 655 138Q657 121 649.5 107.5Q642 94 625 92Q504 81 367.0 76.0Q230 71 82 71Q64 71 55.5 84.0Q47 97 47 114Q47 131 55.5 144.0Q64 157 82 157Q216 157 347.0 160.0Q478 163 618 176ZM757 778Q777 778 792.0 768.0Q807 758 807 736V-44Q807 -66 792.0 -76.0Q777 -86 757 -86Q738 -86 723.0 -76.0Q708 -66 708 -44V736Q708 758 723.0 768.0Q738 778 757 778Z" transform="translate(93.470 68.110) scale(0.017000 -0.017000)"/></g></svg>