<svg xmlns="http://www.w3.org/2000/svg" width="190" height="110" viewBox="0 0 190 110" role="img" aria-label="기후 적합도"><title>기후 적합도</title><rect x="2" y="2" width="186" height="106" rx="18" fill="#fff" stroke="#E7ECE9" stroke-width="1.2" opacity="1"/><circle cx="35" cy="35" r="12" fill="#FFD84D" stroke-width="1" opacity="1"/><circle cx="42" cy="49" r="12" fill="#E8EDF2" stroke-width="1" opacity="1"/><circle cx="57" cy="44" r="15" fill="#F0F4F6" stroke-width="1" opacity="1"/><rect x="31" y="49" width="37" height="13" rx="7" fill="#E8EDF2" stroke-width="1" opacity="1"/><g fill="#6B7280" opacity="1"><path d="M429 704Q468 704 483.0 689.5Q498 675 498 637V524Q498 482 493.0 449.0Q488 416 473.5 386.5Q459 357 433.5 329.0Q408 301 368.0 269.5Q328 238 271.0 201.0Q214 164 137 116Q126 109 113.5 113.0Q101 117 93 128Q85 139 86.0 153.0Q87 167 99 175Q208 241 273.0 285.0Q338 329 372.0 365.5Q406 402 416.0 438.5Q426 475 426 527V622Q426 640 407 640H122Q108 640 102.0 649.5Q96 659 96 672Q96 685 102.0 694.5Q108 704 122 704H429ZM743 774Q757 774 768.5 767.0Q780 760 780 744V-52Q780 -68 768.5 -75.0Q757 -82 743 -82Q729 -82 718.0 -75.0Q707 -68 707 -52V744Q707 760 718.0 767.0Q729 774 743 774Z" transform="translate(78.000 32.620) scale(0.014000 -0.014000)"/><path d="M455 566Q581 566 650.5 530.0Q720 494 720 422Q720 349 650.5 313.5Q581 278 455 278Q329 278 259.5 313.5Q190 349 190 422Q190 494 259.5 530.0Q329 566 455 566ZM455 795Q469 795 480.5 788.0Q492 781 492 767V697H775Q789 697 795.0 687.5Q801 678 801 665Q801 652 795.0 643.0Q789 634 775 634H135Q121 634 115.0 643.0Q109 652 109 665Q109 678 115.0 687.5Q121 697 135 697H418V767Q418 781 429.5 788.0Q441 795 455 795ZM455 507Q261 507 261 422Q261 336 455 336Q649 336 649 422Q649 507 455 507ZM846 204Q860 204 866.0 194.5Q872 185 872 172Q872 159 866.0 150.0Q860 141 846 141H492V-122Q492 -138 480.5 -145.0Q469 -152 455 -152Q441 -152 430.0 -145.0Q419 -138 419 -122V141H64Q50 141 44.0 150.0Q38 159 38 172Q38 185 44.0 194.5Q50 204 64 204H846Z" transform="translate(90.740 32.620) scale(0.014000 -0.014000)"/><path d="M542 720Q555 720 561.0 711.0Q567 702 567 689Q567 675 561.0 666.0Q555 657 542 657H361V586Q361 534 377.0 499.5Q393 465 431 434Q469 405 502.5 380.0Q536 355 559 338Q572 328 573.0 315.5Q574 303 566 292Q559 282 547.0 278.0Q535 274 521 284Q503 296 471.0 320.0Q439 344 404 371Q365 403 347.0 424.5Q329 446 325 462H324Q320 445 302.0 423.0Q284 401 244 369Q209 341 174.5 315.5Q140 290 111 270Q98 261 86.0 265.0Q74 269 66 279Q58 290 58.5 303.0Q59 316 73 325Q109 351 144.0 377.0Q179 403 217 433Q255 464 271.0 498.5Q287 533 287 584V657H100Q87 657 81.0 666.0Q75 675 75 689Q75 702 81.0 711.0Q87 720 100 720H542ZM750 774Q764 774 775.0 767.0Q786 760 786 744V269Q786 253 775.0 246.0Q764 239 750 239Q736 239 725.0 246.0Q714 253 714 269V475H543Q530 475 524.0 484.0Q518 493 518 507Q518 520 524.0 529.5Q530 539 543 539H714V744Q714 760 725.0 767.0Q736 774 750 774ZM717 188Q756 188 771.0 173.5Q786 159 786 121V-118Q786 -134 774.5 -141.0Q763 -148 749 -148Q735 -148 724.0 -141.0Q713 -134 713 -118V107Q713 125 694 125H222Q209 125 203.0 134.0Q197 143 197 156Q197 170 203.0 179.0Q209 188 222 188H717Z" transform="translate(106.980 32.620) scale(0.014000 -0.014000)"/><path d="M309 561Q407 561 461.5 519.5Q516 478 516 408Q516 339 461.5 297.5Q407 256 309 256Q211 256 156.5 297.5Q102 339 102 408Q102 478 156.5 519.5Q211 561 309 561ZM309 792Q323 792 334.5 785.0Q346 778 346 762V687H545Q559 687 565.0 677.5Q571 668 571 655Q571 642 565.0 633.0Q559 624 545 624H63Q49 624 43.0 633.0Q37 642 37 655Q37 668 43.0 677.5Q49 687 63 687H272V762Q272 778 283.5 785.0Q295 792 309 792ZM309 502Q241 502 205.0 476.5Q169 451 169 408Q169 366 205.0 340.5Q241 315 309 315Q377 315 413.0 340.5Q449 366 449 408Q449 451 413.0 476.5Q377 502 309 502ZM701 774Q715 774 726.0 767.0Q737 760 737 744V541H864Q878 541 884.0 531.5Q890 522 890 508Q890 495 884.0 485.5Q878 476 864 476H737V277Q737 261 726.0 254.0Q715 247 701 247Q687 247 676.0 254.0Q665 261 665 277V744Q665 760 676.0 767.0Q687 774 701 774ZM215 197Q229 197 240.0 190.0Q251 183 251 168V85H666V168Q666 183 677.0 190.0Q688 197 701 197Q715 197 726.0 190.0Q737 183 737 168V-66Q737 -104 722.0 -118.5Q707 -133 668 -133H249Q210 -133 195.0 -118.5Q180 -104 180 -66V168Q180 183 191.0 190.0Q202 197 215 197ZM251 -58Q251 -73 268 -73H650Q666 -73 666 -58V26H251Z" transform="translate(119.720 32.620) scale(0.014000 -0.014000)"/><path d="M725 716Q739 716 745.0 707.0Q751 698 751 685Q751 671 745.0 662.0Q739 653 725 653H249Q230 653 230 635V372Q230 354 249 354H735Q749 354 755.0 345.0Q761 336 761 323Q761 309 755.0 300.0Q749 291 735 291H226Q187 291 172.0 305.5Q157 320 157 358V649Q157 687 172.0 701.5Q187 716 226 716H725ZM492 74H846Q860 74 866.0 65.0Q872 56 872 42Q872 29 866.0 20.0Q860 11 846 11H64Q50 11 44.0 20.0Q38 29 38 42Q38 56 44.0 65.0Q50 74 64 74H419V319H492Z" transform="translate(132.460 32.620) scale(0.014000 -0.014000)"/></g><g fill="#2FA86A" opacity="1"><path d="M282 741Q340 741 383.5 724.0Q427 707 456.0 677.0Q485 647 499.5 606.5Q514 566 514 519Q514 471 499.5 430.5Q485 390 456.0 360.0Q427 330 383.5 313.0Q340 296 282 296Q224 296 180.5 313.0Q137 330 108.0 360.0Q79 390 64.5 430.5Q50 471 50 519Q50 566 64.5 606.5Q79 647 108.0 677.0Q137 707 180.5 724.0Q224 741 282 741ZM282 657Q245 657 219.5 646.0Q194 635 177.5 616.5Q161 598 153.5 572.5Q146 547 146 519Q146 490 153.5 465.0Q161 440 177.5 421.0Q194 402 219.5 391.0Q245 380 282 380Q319 380 344.5 391.0Q370 402 386.5 421.0Q403 440 410.5 465.0Q418 490 418 519Q418 547 410.5 572.5Q403 598 386.5 616.5Q370 635 344.5 646.0Q319 657 282 657ZM696 778Q716 778 731.0 768.0Q746 758 746 736V643H850Q867 643 875.5 630.0Q884 617 884 600Q884 583 875.5 570.0Q867 557 850 557H746V472H850Q867 472 875.5 459.0Q884 446 884 429Q884 412 875.5 399.0Q867 386 850 386H746V271Q746 250 731.0 240.0Q716 230 696 230Q676 230 661.0 240.0Q646 250 646 271V736Q646 758 661.0 768.0Q676 778 696 778ZM465 221Q602 221 676.5 173.5Q751 126 751 32Q751 -62 676.5 -109.5Q602 -157 465 -157Q328 -157 253.5 -109.5Q179 -62 179 32Q179 126 253.5 173.5Q328 221 465 221ZM465 140Q366 140 322.0 110.5Q278 81 278 32Q278 -18 322.0 -47.0Q366 -76 465 -76Q564 -76 608.0 -47.0Q652 -18 652 32Q652 82 608.0 111.0Q564 140 465 140Z" transform="translate(78.000 68.110) scale(0.017000 -0.017000)"/><path d="M455 530Q584 530 656.5 487.0Q729 444 729 360Q729 276 656.5 233.5Q584 191 455 191Q326 191 253.5 233.5Q181 276 181 360Q181 444 253.5 487.0Q326 530 455 530ZM455 451Q362 451 320.0 426.5Q278 402 278 360Q278 318 320.0 294.0Q362 270 455 270Q548 270 590.0 294.0Q632 318 632 360Q632 402 590.0 426.5Q548 451 455 451ZM455 792Q475 792 490.5 782.0Q506 772 506 750V678H771Q789 678 797.5 665.5Q806 653 806 635Q806 618 797.5 605.5Q789 593 771 593H139Q121 593 112.5 605.5Q104 618 104 635Q104 653 112.5 665.5Q121 678 139 678H404V750Q404 772 419.5 782.0Q435 792 455 792ZM505 86H840Q858 86 866.5 73.5Q875 61 875 44Q875 27 866.5 14.0Q858 1 840 1H70Q52 1 43.5 14.0Q35 27 35 44Q35 61 43.5 73.5Q52 86 70 86H405V238H505Z" transform="translate(93.470 68.110) scale(0.017000 -0.017000)"/></g></svg>