<svg xmlns="http://www.w3.org/2000/svg" width="190" height="110" viewBox="0 0 190 110" role="img" aria-label="토양 적합도"><title>토양 적합도</title><rect x="2" y="2" width="186" height="106" rx="18" fill="#fff" stroke="#E7ECE9" stroke-width="1.2" opacity="1"/><ellipse cx="36.8" cy="45.72" rx="18.72" ry="5.3999999999999995" fill="#8B5A33" stroke-width="1" opacity="1"/><ellipse cx="36.8" cy="43.559999999999995" rx="15.479999999999999" ry="4.32" fill="#B77A45" stroke-width="1" opacity="1"/><path d="M36.8 43.92 C35.72 33.48 37.16 25.56 36.8 19.439999999999998" fill="none" stroke="#398F42" stroke-width="1.7999999999999998" stroke-linecap="round" stroke-linejoin="round" opacity="1"/><path d="M18.439999999999998 30.599999999999998 C16.567999999999998 21.203999999999997 21.809599999999996 14.399999999999999 30.795199999999998 14.399999999999999 C37.16 16.83 37.16 25.415999999999997 18.439999999999998 30.599999999999998Z" fill="#54B84C" stroke-width="1" stroke-linecap="round" stroke-linejoin="round" opacity="1" transform="rotate(-20 27.799999999999997 22.5)"/><path d="M20.6864 27.36 Q26.863999999999997 22.176 32.2928 17.316" fill="none" stroke="#F4FFF6" stroke-width="1" stroke-linecap="round" stroke-linejoin="round" opacity="0.75" transform="rotate(-20 27.799999999999997 22.5)"/><path d="M36.08 27.0 C34.28 17.8128 39.32 11.16 47.96 11.16 C54.08 13.536 54.08 21.9312 36.08 27.0Z" fill="#3EA845" stroke-width="1" stroke-linecap="round" stroke-linejoin="round" opacity="1" transform="rotate(18 45.08 19.08)"/><path d="M38.239999999999995 23.832 Q44.18 18.763199999999998 49.4 14.0112" fill="none" stroke="#F4FFF6" stroke-width="1" stroke-linecap="round" stroke-linejoin="round" opacity="0.75" transform="rotate(18 45.08 19.08)"/><g fill="#6B7280" opacity="1"><path d="M726 719Q739 719 745.0 710.0Q751 701 751 688Q751 675 745.0 665.5Q739 656 726 656H248Q237 656 233.0 652.5Q229 649 229 638V516H716Q729 516 735.0 506.5Q741 497 741 486Q741 473 735.0 464.0Q729 455 716 455H229V332Q229 314 248 314H745Q758 314 764.0 305.0Q770 296 770 283Q770 270 764.0 260.5Q758 251 745 251H226Q187 251 172.0 265.5Q157 280 157 318V652Q157 690 172.0 704.5Q187 719 226 719H726ZM492 74H846Q860 74 866.0 65.0Q872 56 872 42Q872 29 866.0 20.0Q860 11 846 11H64Q50 11 44.0 20.0Q38 29 38 42Q38 56 44.0 65.0Q50 74 64 74H419V285H492Z" transform="translate(78.000 32.620) scale(0.014000 -0.014000)"/><path d="M283 736Q340 736 382.5 719.0Q425 702 452.5 673.0Q480 644 494.0 604.5Q508 565 508 519Q508 474 494.0 434.5Q480 395 452.5 365.5Q425 336 382.5 319.5Q340 303 283 303Q226 303 183.5 319.5Q141 336 113.5 365.5Q86 395 72.0 434.5Q58 474 58 519Q58 565 72.0 604.5Q86 644 113.5 673.0Q141 702 183.5 719.0Q226 736 283 736ZM283 673Q242 673 212.5 660.5Q183 648 164.5 627.0Q146 606 137.5 578.0Q129 550 129 519Q129 488 137.5 460.0Q146 432 164.5 411.0Q183 390 212.5 377.5Q242 365 283 365Q324 365 353.5 377.5Q383 390 401.5 411.0Q420 432 428.5 460.0Q437 488 437 519Q437 550 428.5 578.0Q420 606 401.5 627.0Q383 648 353.5 660.5Q324 673 283 673ZM700 774Q714 774 725.5 767.0Q737 760 737 744V632H858Q871 632 877.0 623.0Q883 614 883 600Q883 587 877.0 578.0Q871 569 858 569H737V460H858Q871 460 877.0 451.0Q883 442 883 428Q883 415 877.0 406.0Q871 397 858 397H737V257Q737 241 725.5 234.0Q714 227 700 227Q686 227 675.0 234.0Q664 241 664 257V744Q664 760 675.0 767.0Q686 774 700 774ZM466 215Q600 215 672.0 168.5Q744 122 744 32Q744 -58 672.0 -104.5Q600 -151 466 -151Q332 -151 260.5 -104.5Q189 -58 189 32Q189 122 260.5 168.5Q332 215 466 215ZM466 155Q360 155 310.5 122.0Q261 89 261 32Q261 -25 310.5 -58.0Q360 -91 466 -91Q572 -91 622.0 -58.0Q672 -25 672 32Q672 89 622.0 122.0Q572 155 466 155Z" transform="translate(90.740 32.620) scale(0.014000 -0.014000)"/><path d="M542 720Q555 720 561.0 711.0Q567 702 567 689Q567 675 561.0 666.0Q555 657 542 657H361V586Q361 534 377.0 499.5Q393 465 431 434Q469 405 502.5 380.0Q536 355 559 338Q572 328 573.0 315.5Q574 303 566 292Q559 282 547.0 278.0Q535 274 521 284Q503 296 471.0 320.0Q439 344 404 371Q365 403 347.0 424.5Q329 446 325 462H324Q320 445 302.0 423.0Q284 401 244 369Q209 341 174.5 315.5Q140 290 111 270Q98 261 86.0 265.0Q74 269 66 279Q58 290 58.5 303.0Q59 316 73 325Q109 351 144.0 377.0Q179 403 217 433Q255 464 271.0 498.5Q287 533 287 584V657H100Q87 657 81.0 666.0Q75 675 75 689Q75 702 81.0 711.0Q87 720 100 720H542ZM750 774Q764 774 775.0 767.0Q786 760 786 744V269Q786 253 775.0 246.0Q764 239 750 239Q736 239 725.0 246.0Q714 253 714 269V475H543Q530 475 524.0 484.0Q518 493 518 507Q518 520 524.0 529.5Q530 539 543 539H714V744Q714 760 725.0 767.0Q736 774 750 774ZM717 188Q756 188 771.0 173.5Q786 159 786 121V-118Q786 -134 774.5 -141.0Q763 -148 749 -148Q735 -148 724.0 -141.0Q713 -134 713 -118V107Q713 125 694 125H222Q209 125 203.0 134.0Q197 143 197 156Q197 170 203.0 179.0Q209 188 222 188H717Z" transform="translate(106.980 32.620) scale(0.014000 -0.014000)"/><path d="M309 561Q407 561 461.5 519.5Q516 478 516 408Q516 339 461.5 297.5Q407 256 309 256Q211 256 156.5 297.5Q102 339 102 408Q102 478 156.5 519.5Q211 561 309 561ZM309 792Q323 792 334.5 785.0Q346 778 346 762V687H545Q559 687 565.0 677.5Q571 668 571 655Q571 642 565.0 633.0Q559 624 545 624H63Q49 624 43.0 633.0Q37 642 37 655Q37 668 43.0 677.5Q49 687 63 687H272V762Q272 778 283.5 785.0Q295 792 309 792ZM309 502Q241 502 205.0 476.5Q169 451 169 408Q169 366 205.0 340.5Q241 315 309 315Q377 315 413.0 340.5Q449 366 449 408Q449 451 413.0 476.5Q377 502 309 502ZM701 774Q715 774 726.0 767.0Q737 760 737 744V541H864Q878 541 884.0 531.5Q890 522 890 508Q890 495 884.0 485.5Q878 476 864 476H737V277Q737 261 726.0 254.0Q715 247 701 247Q687 247 676.0 254.0Q665 261 665 277V744Q665 760 676.0 767.0Q687 774 701 774ZM215 197Q229 197 240.0 190.0Q251 183 251 168V85H666V168Q666 183 677.0 190.0Q688 197 701 197Q715 197 726.0 190.0Q737 183 737 168V-66Q737 -104 722.0 -118.5Q707 -133 668 -133H249Q210 -133 195.0 -118.5Q180 -104 180 -66V168Q180 183 191.0 190.0Q202 197 215 197ZM251 -58Q251 -73 268 -73H650Q666 -73 666 -58V26H251Z" transform="translate(119.720 32.620) scale(0.014000 -0.014000)"/><path d="M725 716Q739 716 745.0 707.0Q751 698 751 685Q751 671 745.0 662.0Q739 653 725 653H249Q230 653 230 635V372Q230 354 249 354H735Q749 354 755.0 345.0Q761 336 761 323Q761 309 755.0 300.0Q749 291 735 291H226Q187 291 172.0 305.5Q157 320 157 358V649Q157 687 172.0 701.5Q187 716 226 716H725ZM492 74H846Q860 74 866.0 65.0Q872 56 872 42Q872 29 866.0 20.0Q860 11 846 11H64Q50 11 44.0 20.0Q38 29 38 42Q38 56 44.0 65.0Q50 74 64 74H419V319H492Z" transform="translate(132.460 32.620) scale(0.014000 -0.014000)"/></g><g fill="#2FA86A" opacity="1"><path d="M567 683Q567 666 558.5 653.5Q550 641 532 641H372V587Q372 539 387.0 506.0Q402 473 438 444Q473 415 503.5 392.0Q534 369 557 353Q574 340 575.0 323.5Q576 307 565 292Q555 280 538.5 273.5Q522 267 503 280Q486 292 457.5 313.5Q429 335 397 361Q359 391 343.5 410.0Q328 429 324 444H323Q319 427 302.5 407.0Q286 387 248 356Q215 330 184.0 307.0Q153 284 124 264Q107 251 89.5 257.0Q72 263 63 276Q52 291 53.0 308.5Q54 326 71 339Q106 364 139.0 388.0Q172 412 207 441Q242 470 257.0 503.0Q272 536 272 585V641H105Q86 641 77.5 653.5Q69 666 69 683Q69 700 77.5 713.0Q86 726 105 726H532Q550 726 558.5 713.0Q567 700 567 683ZM746 778Q765 778 780.0 768.0Q795 758 795 736V279Q795 257 780.0 247.0Q765 237 746 237Q726 237 711.0 247.0Q696 257 696 279V464H552Q533 464 524.5 477.0Q516 490 516 507Q516 525 524.5 537.5Q533 550 552 550H696V736Q696 758 711.0 768.0Q726 778 746 778ZM718 194Q762 194 778.5 178.0Q795 162 795 119V-110Q795 -132 780.0 -142.0Q765 -152 745 -152Q725 -152 710.0 -142.0Q695 -132 695 -110V88Q695 108 674 108H225Q206 108 197.5 121.0Q189 134 189 151Q189 168 197.5 181.0Q206 194 225 194Z" transform="translate(78.000 68.110) scale(0.017000 -0.017000)"/><path d="M567 683Q567 666 558.5 653.5Q550 641 532 641H372V587Q372 539 387.0 506.0Q402 473 438 444Q473 415 503.5 392.0Q534 369 557 353Q574 340 575.0 323.5Q576 307 565 292Q555 280 538.5 273.5Q522 267 503 280Q486 292 457.5 313.5Q429 335 397 361Q359 391 343.5 410.0Q328 429 324 444H323Q319 427 302.5 407.0Q286 387 248 356Q215 330 184.0 307.0Q153 284 124 264Q107 251 89.5 257.0Q72 263 63 276Q52 291 53.0 308.5Q54 326 71 339Q106 364 139.0 388.0Q172 412 207 441Q242 470 257.0 503.0Q272 536 272 585V641H105Q86 641 77.5 653.5Q69 666 69 683Q69 700 77.5 713.0Q86 726 105 726H532Q550 726 558.5 713.0Q567 700 567 683ZM746 778Q765 778 780.0 768.0Q795 758 795 736V271Q795 250 780.0 240.0Q765 230 746 230Q726 230 711.0 240.0Q696 250 696 271V464H552Q533 464 524.5 477.0Q516 490 516 507Q516 525 524.5 537.5Q533 550 552 550H696V736Q696 758 711.0 768.0Q726 778 746 778ZM507 221Q647 221 723.5 173.5Q800 126 800 32Q800 -62 723.5 -109.5Q647 -157 507 -157Q367 -157 290.5 -109.5Q214 -62 214 32Q214 126 290.5 173.5Q367 221 507 221ZM507 140Q405 140 359.0 110.5Q313 81 313 32Q313 -18 359.0 -47.0Q405 -76 507 -76Q609 -76 655.0 -47.0Q701 -18 701 32Q701 82 655.0 111.0Q609 140 507 140Z" transform="translate(93.470 68.110) scale(0.017000 -0.017000)"/></g></svg>