<svg xmlns="http://www.w3.org/2000/svg" width="430" height="140" viewBox="0 0 430 140" role="img" aria-label="Todo checklist card"><title>Todo checklist card</title><defs><linearGradient id="card-todo-potato" x1="0%" y1="0%" x2="100%" y2="100%"><stop offset="0%" stop-color="#E8B36F" stop-opacity="1"/><stop offset="100%" stop-color="#B97A3E" stop-opacity="1"/></linearGradient></defs><rect x="2" y="2" width="426" height="136" rx="18" fill="#fff" stroke="#E1E8E4" stroke-width="1.5" opacity="1"/><path d="M31.2 38.28 C30.48 31.32 31.439999999999998 26.04 31.2 21.96" fill="none" stroke="#398F42" stroke-width="1.2" stroke-linecap="round" stroke-linejoin="round" opacity="1"/><path d="M18.96 29.4 C17.712 23.136000000000003 21.206400000000002 18.6 27.196800000000003 18.6 C31.44 20.220000000000002 31.44 25.944000000000003 18.96 29.4Z" fill="#54B84C" stroke-width="1" stroke-linecap="round" stroke-linejoin="round" opacity="1" transform="rotate(-20 25.200000000000003 24.0)"/><path d="M20.4576 27.240000000000002 Q24.576 23.784 28.1952 20.544" fill="none" stroke="#F4FFF6" stroke-width="1" stroke-linecap="round" stroke-linejoin="round" opacity="0.75" transform="rotate(-20 25.200000000000003 24.0)"/><path d="M30.72 26.999999999999996 C29.52 20.875199999999996 32.879999999999995 16.439999999999998 38.64 16.439999999999998 C42.72 18.023999999999997 42.72 23.620799999999996 30.72 26.999999999999996Z" fill="#3EA845" stroke-width="1" stroke-linecap="round" stroke-linejoin="round" opacity="1" transform="rotate(18 36.72 21.72)"/><path d="M32.16 24.887999999999998 Q36.12 21.508799999999997 39.599999999999994 18.340799999999998" fill="none" stroke="#F4FFF6" stroke-width="1" stroke-linecap="round" stroke-linejoin="round" opacity="0.75" transform="rotate(18 36.72 21.72)"/><g fill="#1F2937" opacity="1"><path d="M308 748Q328 748 343.5 738.0Q359 728 359 706V614Q359 566 374.5 531.5Q390 497 425 467Q460 438 491.0 414.0Q522 390 547 372Q564 360 564.5 342.5Q565 325 554 311Q544 297 527.0 291.5Q510 286 493 299Q473 313 444.0 335.5Q415 358 383 384Q345 414 329.5 434.0Q314 454 310 469H309Q305 452 288.0 431.0Q271 410 234 380Q202 354 171.5 330.0Q141 306 109 283Q92 271 74.5 276.5Q57 282 47 295Q37 309 37.0 327.5Q37 346 55 359Q90 385 123.0 410.0Q156 435 191 464Q226 494 241.5 528.5Q257 563 257 612V706Q257 728 272.5 738.0Q288 748 308 748ZM696 778Q716 778 731.0 768.0Q746 758 746 736V557H856Q876 557 884.5 544.0Q893 531 893 514Q893 495 884.5 482.5Q876 470 856 470H746V271Q746 250 731.0 240.0Q716 230 696 230Q676 230 661.0 240.0Q646 250 646 271V736Q646 758 661.0 768.0Q676 778 696 778ZM465 221Q602 221 676.5 173.5Q751 126 751 32Q751 -62 676.5 -109.5Q602 -157 465 -157Q328 -157 253.5 -109.5Q179 -62 179 32Q179 126 253.5 173.5Q328 221 465 221ZM465 140Q366 140 322.0 110.5Q278 81 278 32Q278 -18 322.0 -47.0Q366 -76 465 -76Q564 -76 608.0 -47.0Q652 -18 652 32Q652 82 608.0 111.0Q564 140 465 140Z" transform="translate(68.000 35.280) scale(0.016000 -0.016000)"/><path d="M455 790Q475 790 490.5 780.0Q506 770 506 748V689H745Q764 689 772.5 676.5Q781 664 781 646Q781 629 772.5 616.5Q764 604 745 604H505V589Q505 549 525.0 522.0Q545 495 589 475Q640 452 686.5 433.0Q733 414 778 397Q795 391 799.0 374.0Q803 357 796 340Q789 323 773.5 316.0Q758 309 741 316Q701 331 658.5 348.5Q616 366 575 384Q541 398 519.0 410.5Q497 423 484.0 434.5Q471 446 464.5 455.5Q458 465 456 474H455Q452 465 446.0 454.5Q440 444 426.5 433.0Q413 422 391.0 409.0Q369 396 336 382Q294 364 252.0 346.5Q210 329 170 314Q152 307 136.5 314.5Q121 322 114 339Q107 356 111.0 373.5Q115 391 132 397Q177 414 223.5 433.0Q270 452 321 475Q365 495 385.0 522.0Q405 549 405 589V604H165Q146 604 137.5 616.5Q129 629 129 646Q129 664 137.5 676.5Q146 689 165 689H404V748Q404 770 419.5 780.0Q435 790 455 790ZM875 201Q875 184 866.5 171.5Q858 159 840 159H505V-114Q505 -136 490.0 -146.0Q475 -156 455 -156Q435 -156 420.0 -146.0Q405 -136 405 -114V159H70Q52 159 43.5 171.5Q35 184 35 201Q35 218 43.5 231.0Q52 244 70 244H840Q858 244 866.5 231.0Q875 218 875 201Z" transform="translate(82.560 35.280) scale(0.016000 -0.016000)"/><path d="M118 747Q137 747 152.5 737.0Q168 727 168 705V609H398V705Q398 727 413.0 737.0Q428 747 447 747Q466 747 481.5 737.0Q497 727 497 705V415Q497 372 480.5 356.0Q464 340 420 340H146Q102 340 85.5 356.0Q69 372 69 415V705Q69 727 84.0 737.0Q99 747 118 747ZM168 442Q168 430 172.5 425.5Q177 421 189 421H377Q388 421 393.0 425.5Q398 430 398 442V528H168ZM696 778Q716 778 731.0 768.0Q746 758 746 736V586H856Q876 586 884.5 573.0Q893 560 893 543Q893 524 884.5 511.5Q876 499 856 499H746V342Q746 320 731.0 310.0Q716 300 696 300Q676 300 661.0 310.0Q646 320 646 342V736Q646 758 661.0 768.0Q676 778 696 778ZM758 211Q758 194 750.0 182.0Q742 170 725 170H290Q269 170 269 150V92H716Q733 92 740.5 80.5Q748 69 748 54Q748 38 740.5 26.5Q733 15 716 15H269V-43Q269 -64 290 -64H735Q752 -64 760.0 -76.0Q768 -88 768 -104Q768 -120 760.0 -132.0Q752 -144 735 -144H251Q207 -144 190.5 -128.0Q174 -112 174 -69V176Q174 219 190.5 235.0Q207 251 251 251H725Q742 251 750.0 239.0Q758 227 758 211Z" transform="translate(97.120 35.280) scale(0.016000 -0.016000)"/><path d="M683 757Q727 757 743.5 741.0Q760 725 760 682V533Q760 490 743.5 474.0Q727 458 683 458H227Q183 458 167.0 474.0Q151 490 151 533V682Q151 725 167.0 741.0Q183 757 227 757ZM271 676Q259 676 254.5 671.5Q250 667 250 655V560Q250 548 254.5 543.5Q259 539 271 539H639Q651 539 655.5 543.5Q660 548 660 560V655Q660 667 655.5 671.5Q651 676 639 676ZM875 348Q875 331 866.5 319.0Q858 307 841 307H504V182H406V307H69Q52 307 43.5 319.0Q35 331 35 348Q35 365 43.5 376.5Q52 388 69 388H841Q858 388 866.5 376.5Q875 365 875 348ZM761 150V76Q761 33 744.5 17.0Q728 1 684 1H261Q245 1 245 -14V-55Q245 -70 261 -70H750Q767 -70 775.0 -82.0Q783 -94 783 -109Q783 -125 775.0 -136.5Q767 -148 750 -148H225Q181 -148 164.5 -132.0Q148 -116 148 -73V1Q148 44 164.5 60.0Q181 76 225 76H648Q664 76 664 91V131Q664 147 648 147H178Q161 147 153.5 158.5Q146 170 146 186Q146 201 153.5 213.0Q161 225 178 225H684Q728 225 744.5 209.0Q761 193 761 150Z" transform="translate(115.680 35.280) scale(0.016000 -0.016000)"/><path d="M773 690Q773 673 764.5 660.5Q756 648 737 648H506V636Q506 612 510.0 594.0Q514 576 524.0 561.0Q534 546 551.5 533.0Q569 520 595 507Q645 481 688.0 460.5Q731 440 778 419Q795 411 798.0 394.5Q801 378 793 361Q785 344 769.5 337.0Q754 330 738 337Q687 360 645.0 380.0Q603 400 556 424Q503 451 481.5 471.0Q460 491 456 509H455Q450 489 429.0 469.0Q408 449 355 422Q307 398 265.0 378.0Q223 358 173 335Q156 328 140.5 335.5Q125 343 117 360Q108 377 111.5 394.0Q115 411 132 419Q179 440 222.0 460.5Q265 481 316 507Q342 520 359.0 533.0Q376 546 386.0 561.0Q396 576 400.0 594.0Q404 612 404 636V648H173Q154 648 145.5 660.5Q137 673 137 690Q137 708 145.5 720.5Q154 733 173 733H737Q756 733 764.5 720.5Q773 708 773 690ZM875 209Q875 192 866.5 179.5Q858 167 840 167H505V-114Q505 -136 490.0 -146.0Q475 -156 455 -156Q435 -156 420.0 -146.0Q405 -136 405 -114V167H70Q52 167 43.5 179.5Q35 192 35 209Q35 226 43.5 239.0Q52 252 70 252H840Q858 252 866.5 239.0Q875 226 875 209Z" transform="translate(134.240 35.280) scale(0.016000 -0.016000)"/><path d="M505 635V522Q505 480 500.0 446.5Q495 413 481.0 383.0Q467 353 442.0 324.5Q417 296 377.5 264.5Q338 233 282.0 196.0Q226 159 149 112Q132 102 115.0 108.5Q98 115 88 129Q78 143 78.5 162.0Q79 181 96 192Q167 235 217.5 267.5Q268 300 302.0 326.5Q336 353 356.5 375.5Q377 398 388.0 420.5Q399 443 402.0 468.5Q405 494 405 526V603Q405 614 400.5 618.5Q396 623 384 623H124Q105 623 96.5 636.0Q88 649 88 666Q88 684 96.5 697.0Q105 710 124 710H428Q472 710 488.5 694.0Q505 678 505 635ZM738 778Q758 778 773.5 768.0Q789 758 789 736V-44Q789 -66 773.5 -76.0Q758 -86 738 -86Q719 -86 703.5 -76.0Q688 -66 688 -44V736Q688 758 703.5 768.0Q719 778 738 778Z" transform="translate(148.800 35.280) scale(0.016000 -0.016000)"/></g><g fill="#6B7280" opacity="1"><path d="M455 737Q599 737 676.5 673.5Q754 610 754 500Q754 390 676.5 326.5Q599 263 455 263Q311 263 233.5 326.5Q156 390 156 500Q156 610 233.5 673.5Q311 737 455 737ZM455 675Q398 675 355.5 661.5Q313 648 285.0 625.0Q257 602 243.0 569.5Q229 537 229 500Q229 462 243.0 430.0Q257 398 285.0 375.0Q313 352 355.5 338.5Q398 325 455 325Q512 325 554.5 338.5Q597 352 625.0 375.0Q653 398 667.0 430.0Q681 462 681 500Q681 537 667.0 569.5Q653 602 625.0 625.0Q597 648 554.5 661.5Q512 675 455 675ZM492 74H846Q860 74 866.0 65.0Q872 56 872 42Q872 29 866.0 20.0Q860 11 846 11H64Q50 11 44.0 20.0Q38 29 38 42Q38 56 44.0 65.0Q50 74 64 74H419V319H492Z" transform="translate(322.000 33.790) scale(0.013000 -0.013000)"/><path d="M542 712Q555 712 561.0 703.0Q567 694 567 680Q567 667 561.0 657.5Q555 648 542 648H361V570Q361 516 379.0 478.5Q397 441 436 407Q470 379 503.0 353.5Q536 328 560 309Q572 300 573.0 287.5Q574 275 566 263Q558 252 545.5 249.5Q533 247 520 256Q497 274 468.5 296.0Q440 318 405 346Q365 378 347.0 402.5Q329 427 325 444H324Q320 426 301.5 401.0Q283 376 243 344Q209 315 176.0 290.0Q143 265 112 242Q99 233 87.0 236.5Q75 240 67 250Q59 261 59.0 274.0Q59 287 72 297Q105 321 141.5 349.0Q178 377 212 406Q251 439 269.0 477.0Q287 515 287 569V648H100Q87 648 81.0 657.5Q75 667 75 680Q75 694 81.0 703.0Q87 712 100 712H542ZM750 774Q764 774 775.0 767.0Q786 760 786 744V134Q786 118 775.0 111.0Q764 104 750 104Q736 104 725.0 111.0Q714 118 714 134V458H543Q530 458 524.0 467.0Q518 476 518 490Q518 503 524.0 512.5Q530 522 543 522H714V744Q714 760 725.0 767.0Q736 774 750 774ZM252 182Q266 182 277.5 175.0Q289 168 289 152V-44Q289 -62 308 -62H786Q800 -62 806.0 -71.5Q812 -81 812 -94Q812 -107 806.0 -116.5Q800 -126 786 -126H284Q245 -126 230.0 -111.5Q215 -97 215 -59V152Q215 168 226.5 175.0Q238 182 252 182Z" transform="translate(333.830 33.790) scale(0.013000 -0.013000)"/><path d="M742 737Q754 737 760.0 728.0Q766 719 766 706Q766 693 760.0 684.0Q754 675 742 675H492V652Q492 616 512.5 590.0Q533 564 589 540Q643 518 688.0 500.5Q733 483 776 467Q790 462 794.0 449.5Q798 437 793 426Q788 414 778.0 408.0Q768 402 753 407Q711 422 666.5 439.5Q622 457 572 478Q541 490 520.5 502.0Q500 514 486.5 524.5Q473 535 466.0 545.5Q459 556 456 565H455Q450 545 425.0 523.5Q400 502 339 477Q288 456 244.0 438.5Q200 421 158 406Q143 401 132.5 407.0Q122 413 117 425Q112 436 116.0 449.0Q120 462 134 467Q177 483 222.0 500.5Q267 518 321 540Q377 564 397.5 590.0Q418 616 418 652V675H168Q156 675 150.0 684.0Q144 693 144 706Q144 719 150.0 728.0Q156 737 168 737H742ZM847 340Q860 340 866.0 331.0Q872 322 872 309Q872 296 866.0 287.0Q860 278 847 278H491V138H419V278H63Q50 278 44.0 287.0Q38 296 38 309Q38 322 44.0 331.0Q50 340 63 340H847ZM455 177Q598 177 675.5 136.5Q753 96 753 11Q753 -74 675.5 -114.5Q598 -155 455 -155Q312 -155 234.5 -114.5Q157 -74 157 11Q157 96 234.5 136.5Q312 177 455 177ZM455 118Q340 118 285.0 90.5Q230 63 230 11Q230 -41 285.0 -68.5Q340 -96 455 -96Q570 -96 625.0 -68.5Q680 -41 680 11Q680 63 625.0 90.5Q570 118 455 118Z" transform="translate(348.910 33.790) scale(0.013000 -0.013000)"/></g><circle cx="397" cy="34" r="12" fill="none" stroke="#9AA4AD" stroke-width="1.6" opacity="1"/><line x1="20" y1="68" x2="410" y2="68" stroke="#E1E8E4" stroke-width="1" stroke-linecap="round" opacity="1"/><path d="M23.259999999999998 78.96000000000001 C24.36 70.82 33.16 69.72 38.44 73.46000000000001 C46.36 72.36 50.32 79.4 47.9 85.78 C49.22 92.16 42.4 96.12 36.019999999999996 93.92 C30.52 97.22 23.7 92.82 24.58 87.32 C19.52 84.46000000000001 20.4 80.72 23.259999999999998 78.96000000000001Z" fill="url(#card-todo-potato)" stroke-width="1" stroke-linecap="round" stroke-linejoin="round" opacity="1"/><ellipse cx="29.2" cy="78.3" rx="1.1" ry="0.66" fill="#8F5D34" stroke-width="1" opacity="0.7"/><ellipse cx="38.66" cy="76.76" rx="1.1" ry="0.66" fill="#8F5D34" stroke-width="1" opacity="0.7"/><ellipse cx="33.379999999999995" cy="85.12" rx="1.1" ry="0.66" fill="#8F5D34" stroke-width="1" opacity="0.7"/><ellipse cx="43.72" cy="86.88" rx="1.1" ry="0.66" fill="#8F5D34" stroke-width="1" opacity="0.7"/><ellipse cx="27.880000000000003" cy="88.42" rx="1.1" ry="0.66" fill="#8F5D34" stroke-width="1" opacity="0.7"/><ellipse cx="37.34" cy="91.72" rx="1.1" ry="0.66" fill="#8F5D34" stroke-width="1" opacity="0.7"/><path d="M26.78 81.38 C30.52 76.76 34.92 73.9 40.42 73.9" fill="none" stroke="#F5CE91" stroke-width="1.32" stroke-linecap="round" stroke-linejoin="round" opacity="0.45"/><g fill="#1F2937" opacity="1"><path d="M406 727Q450 727 466.5 711.0Q483 695 483 652V580Q483 528 470.0 491.5Q457 455 418.5 421.0Q380 387 309.0 350.0Q238 313 122 260Q105 252 88.5 260.0Q72 268 64 285Q57 299 59.5 317.5Q62 336 82 344Q186 391 246.0 422.0Q306 453 336.5 477.5Q367 502 375.0 526.5Q383 551 383 584V620Q383 631 378.5 636.0Q374 641 362 641H103Q85 641 76.5 653.5Q68 666 68 683Q68 701 76.5 714.0Q85 727 103 727ZM696 778Q716 778 731.0 768.0Q746 758 746 736V567H856Q876 567 884.5 554.0Q893 541 893 524Q893 505 884.5 492.5Q876 480 856 480H746V299Q746 277 731.0 267.0Q716 257 696 257Q676 257 661.0 267.0Q646 277 646 299V736Q646 758 661.0 768.0Q676 778 696 778ZM669 214Q713 214 729.5 198.0Q746 182 746 139V-64Q746 -107 729.5 -123.0Q713 -139 669 -139H249Q205 -139 188.5 -123.0Q172 -107 172 -64V139Q172 182 188.5 198.0Q205 214 249 214ZM292 130Q271 130 271 109V-34Q271 -55 292 -55H626Q647 -55 647 -34V109Q647 130 626 130Z" transform="translate(68.000 100.280) scale(0.016000 -0.016000)"/><path d="M559 665Q559 648 550.5 635.0Q542 622 524 622H361V528Q361 495 364.5 469.0Q368 443 377.0 420.5Q386 398 400.5 377.0Q415 356 437 334Q469 302 499.0 273.0Q529 244 554 223Q569 209 566.5 191.0Q564 173 552 161Q540 148 523.0 145.0Q506 142 491 155Q469 175 442.5 200.5Q416 226 385 256Q364 278 350.0 293.5Q336 309 328.0 321.0Q320 333 316.0 342.0Q312 351 311 359H310Q308 350 304.5 341.0Q301 332 292.5 320.0Q284 308 270.5 292.0Q257 276 235 254Q205 224 176.0 196.0Q147 168 115 140Q99 126 81.0 131.0Q63 136 52 149Q40 163 39.5 180.5Q39 198 54 211Q89 242 120.0 272.0Q151 302 183 334Q205 356 219.5 377.0Q234 398 243.0 420.5Q252 443 255.5 469.0Q259 495 259 528V622H91Q72 622 63.5 635.0Q55 648 55 665Q55 682 63.5 695.0Q72 708 91 708H524Q542 708 550.5 695.0Q559 682 559 665ZM696 778Q716 778 731.0 768.0Q746 758 746 736V476H856Q876 476 884.5 463.5Q893 451 893 433Q893 415 884.5 402.0Q876 389 856 389H746V-44Q746 -66 731.0 -76.0Q716 -86 696 -86Q676 -86 661.0 -76.0Q646 -66 646 -44V736Q646 758 661.0 768.0Q676 778 696 778Z" transform="translate(82.560 100.280) scale(0.016000 -0.016000)"/><path d="M118 747Q137 747 152.5 737.0Q168 727 168 705V609H398V705Q398 727 413.0 737.0Q428 747 447 747Q466 747 481.5 737.0Q497 727 497 705V415Q497 372 480.5 356.0Q464 340 420 340H146Q102 340 85.5 356.0Q69 372 69 415V705Q69 727 84.0 737.0Q99 747 118 747ZM168 442Q168 430 172.5 425.5Q177 421 189 421H377Q388 421 393.0 425.5Q398 430 398 442V528H168ZM696 778Q716 778 731.0 768.0Q746 758 746 736V586H856Q876 586 884.5 573.0Q893 560 893 543Q893 524 884.5 511.5Q876 499 856 499H746V342Q746 320 731.0 310.0Q716 300 696 300Q676 300 661.0 310.0Q646 320 646 342V736Q646 758 661.0 768.0Q676 778 696 778ZM758 211Q758 194 750.0 182.0Q742 170 725 170H290Q269 170 269 150V92H716Q733 92 740.5 80.5Q748 69 748 54Q748 38 740.5 26.5Q733 15 716 15H269V-43Q269 -64 290 -64H735Q752 -64 760.0 -76.0Q768 -88 768 -104Q768 -120 760.0 -132.0Q752 -144 735 -144H251Q207 -144 190.5 -128.0Q174 -112 174 -69V176Q174 219 190.5 235.0Q207 251 251 251H725Q742 251 750.0 239.0Q758 227 758 211Z" transform="translate(97.120 100.280) scale(0.016000 -0.016000)"/><path d="M319 731Q339 731 354.5 721.0Q370 711 370 689V534Q370 502 374.0 476.5Q378 451 387.0 428.5Q396 406 411.0 384.0Q426 362 449 338Q479 306 508.5 276.5Q538 247 564 224Q578 211 575.5 193.0Q573 175 561 162Q550 150 532.0 147.0Q514 144 500 157Q477 178 451.5 203.5Q426 229 397 259Q375 282 361.0 298.5Q347 315 338.5 327.0Q330 339 326.0 348.0Q322 357 320 365H319Q317 356 313.0 347.0Q309 338 300.5 325.5Q292 313 278.0 296.5Q264 280 242 257Q213 227 185.5 199.5Q158 172 126 143Q111 129 92.5 133.5Q74 138 63 151Q51 165 50.5 182.0Q50 199 64 213Q97 244 128.5 275.0Q160 306 190 338Q212 362 227.0 384.0Q242 406 251.5 428.5Q261 451 265.0 476.5Q269 502 269 534V689Q269 711 284.0 721.0Q299 731 319 731ZM745 778Q765 778 780.0 768.0Q795 758 795 736V-44Q795 -66 780.0 -76.0Q765 -86 745 -86Q726 -86 711.0 -76.0Q696 -66 696 -44V424H544Q525 424 516.5 436.5Q508 449 508 466Q508 484 516.5 496.5Q525 509 544 509H696V736Q696 758 711.0 768.0Q726 778 745 778Z" transform="translate(115.680 100.280) scale(0.016000 -0.016000)"/><path d="M505 642V456Q505 413 488.5 397.0Q472 381 428 381H212Q200 381 195.5 376.5Q191 372 191 361V228Q191 217 195.5 212.5Q200 208 212 208Q319 208 405.5 213.0Q492 218 573 229Q590 231 600.5 220.5Q611 210 613 193Q615 175 608.5 160.5Q602 146 585 144Q550 139 509.5 135.0Q469 131 418.5 128.0Q368 125 306.5 123.5Q245 122 169 122Q125 122 108.5 138.0Q92 154 92 197V389Q92 432 108.5 447.5Q125 463 169 463H386Q407 463 407 484V611Q407 631 386 631H127Q108 631 100.0 644.0Q92 657 92 674Q92 691 100.0 704.0Q108 717 127 717H428Q472 717 488.5 701.0Q505 685 505 642ZM738 778Q758 778 773.5 768.0Q789 758 789 736V-44Q789 -66 773.5 -76.0Q758 -86 738 -86Q719 -86 703.5 -76.0Q688 -66 688 -44V736Q688 758 703.5 768.0Q719 778 738 778Z" transform="translate(130.240 100.280) scale(0.016000 -0.016000)"/><path d="M435 661Q435 644 426.5 631.5Q418 619 399 619H183Q162 619 162 598V256Q162 235 183 235Q213 235 246.5 236.0Q280 237 313.0 239.0Q346 241 377.0 244.0Q408 247 434 251Q451 253 461.0 242.5Q471 232 473 214Q475 196 468.5 182.0Q462 168 445 165Q407 159 328.0 154.0Q249 149 139 149Q95 149 78.5 165.0Q62 181 62 224V630Q62 673 78.5 689.0Q95 705 139 705H399Q418 705 426.5 692.0Q435 679 435 661ZM771 778Q789 778 803.5 768.5Q818 759 818 739V-47Q818 -67 803.5 -76.5Q789 -86 771 -86Q754 -86 739.5 -76.5Q725 -67 725 -47V386H618V-5Q618 -25 603.5 -34.5Q589 -44 571 -44Q554 -44 539.5 -34.5Q525 -25 525 -5V729Q525 749 539.5 758.5Q554 768 571 768Q589 768 603.5 758.5Q618 749 618 729V471H725V739Q725 759 739.5 768.5Q754 778 771 778Z" transform="translate(148.800 100.280) scale(0.016000 -0.016000)"/><path d="M138 720Q157 720 172.5 710.0Q188 700 188 678V505H423V678Q423 700 438.0 710.0Q453 720 472 720Q491 720 506.0 710.0Q521 700 521 678V217Q521 174 504.5 158.0Q488 142 444 142H166Q122 142 105.5 158.0Q89 174 89 217V678Q89 700 104.0 710.0Q119 720 138 720ZM188 248Q188 236 192.5 231.5Q197 227 209 227H402Q413 227 418.0 231.5Q423 236 423 248V420H188ZM738 778Q758 778 773.5 768.0Q789 758 789 736V-44Q789 -66 773.5 -76.0Q758 -86 738 -86Q719 -86 703.5 -76.0Q688 -66 688 -44V736Q688 758 703.5 768.0Q719 778 738 778Z" transform="translate(163.360 100.280) scale(0.016000 -0.016000)"/><path d="M514 687Q514 670 505.5 657.0Q497 644 479 644H207Q196 644 191.0 639.5Q186 635 186 623V397Q186 377 207 377Q306 377 391.0 382.0Q476 387 557 398Q574 400 584.5 390.0Q595 380 597 363Q599 345 592.5 330.5Q586 316 569 314Q534 309 493.5 305.0Q453 301 404.0 298.0Q355 295 295.5 293.5Q236 292 163 292Q119 292 102.5 308.0Q86 324 86 367V654Q86 697 102.5 713.0Q119 729 163 729H479Q497 729 505.5 716.5Q514 704 514 687ZM745 778Q765 778 780.0 768.0Q795 758 795 736V293Q795 271 780.0 261.0Q765 251 745 251Q726 251 711.0 261.0Q696 271 696 293V480H494Q476 480 467.5 492.5Q459 505 459 522Q459 539 467.5 551.5Q476 564 494 564H696V736Q696 758 711.0 768.0Q726 778 745 778ZM781 203Q799 203 807.5 191.0Q816 179 816 162Q816 145 807.5 133.0Q799 121 781 121H689V-55H790Q808 -55 816.5 -67.0Q825 -79 825 -96Q825 -113 816.5 -125.0Q808 -137 790 -137H211Q193 -137 184.5 -125.0Q176 -113 176 -96Q176 -79 184.5 -67.0Q193 -55 211 -55H312V121H220Q202 121 193.5 133.0Q185 145 185 162Q185 179 193.5 191.0Q202 203 220 203ZM592 -55V121H409V-55Z" transform="translate(181.920 100.280) scale(0.016000 -0.016000)"/><path d="M337 703Q381 703 397.5 687.0Q414 671 414 628V522Q414 477 411.0 442.5Q408 408 397.5 379.0Q387 350 367.5 324.0Q348 298 315.5 268.5Q283 239 235.5 203.5Q188 168 121 121Q106 110 88.0 115.0Q70 120 59 134Q49 148 48.5 167.5Q48 187 64 198Q124 239 166.0 269.5Q208 300 236.5 324.5Q265 349 281.0 369.5Q297 390 305.5 413.0Q314 436 316.0 463.0Q318 490 318 526V596Q318 616 297 616H94Q75 616 66.5 629.0Q58 642 58 659Q58 677 66.5 690.0Q75 703 94 703ZM771 778Q789 778 803.5 768.5Q818 759 818 739V-47Q818 -67 803.5 -76.5Q789 -86 771 -86Q754 -86 739.5 -76.5Q725 -67 725 -47V386H612V-5Q612 -25 597.5 -34.5Q583 -44 565 -44Q548 -44 533.5 -34.5Q519 -25 519 -5V729Q519 749 533.5 758.5Q548 768 565 768Q583 768 597.5 758.5Q612 749 612 729V471H725V739Q725 759 739.5 768.5Q754 778 771 778Z" transform="translate(196.480 100.280) scale(0.016000 -0.016000)"/><path d="M230 724Q248 724 262.5 714.0Q277 704 277 684V597Q277 555 281.0 529.0Q285 503 298 480Q309 463 318.0 450.5Q327 438 339 424Q350 412 356.5 412.0Q363 412 373 424Q384 438 393.5 450.5Q403 463 414 480Q427 503 431.0 529.0Q435 555 435 597V684Q435 704 449.5 714.0Q464 724 482 724Q500 724 514.5 714.0Q529 704 529 684V599Q529 549 538.0 518.5Q547 488 572 458Q589 436 606.0 418.0Q623 400 641 381Q655 367 653.0 351.0Q651 335 640 322Q630 310 612.5 306.5Q595 303 580 318Q564 335 548.0 352.0Q532 369 516 388Q501 406 493.0 420.0Q485 434 483 450H482Q479 433 471.0 419.0Q463 405 448 385Q433 366 419.0 349.5Q405 333 389 316Q374 300 356.0 300.5Q338 301 323 316Q307 333 293.0 349.5Q279 366 264 385Q249 405 241.0 419.0Q233 433 230 450H229Q227 433 219.5 419.0Q212 405 196 386Q179 367 162.5 349.5Q146 332 126 312Q111 298 93.5 301.0Q76 304 66 316Q55 330 52.5 346.0Q50 362 65 376Q87 398 104.5 417.0Q122 436 140 458Q166 488 174.5 518.5Q183 549 183 599V684Q183 704 197.5 714.0Q212 724 230 724ZM631 177Q648 179 657.5 167.5Q667 156 668 139Q670 122 662.5 108.5Q655 95 638 93Q517 82 377.0 76.5Q237 71 82 71Q64 71 55.5 84.0Q47 97 47 114Q47 131 55.5 144.0Q64 157 82 157Q222 157 356.5 160.5Q491 164 631 177ZM768 778Q787 778 802.0 768.0Q817 758 817 737V-45Q817 -66 802.0 -76.0Q787 -86 768 -86Q749 -86 734.5 -76.0Q720 -66 720 -45V737Q720 758 734.5 768.0Q749 778 768 778Z" transform="translate(215.040 100.280) scale(0.016000 -0.016000)"/><path d="M455 753Q601 753 681.0 700.5Q761 648 761 548Q761 448 681.0 395.5Q601 343 455 343Q309 343 229.0 395.5Q149 448 149 548Q149 648 229.0 700.5Q309 753 455 753ZM455 668Q347 668 298.0 635.0Q249 602 249 548Q249 494 298.0 461.0Q347 428 455 428Q563 428 612.0 461.0Q661 494 661 548Q661 602 612.0 635.0Q563 668 455 668ZM875 209Q875 192 866.5 179.5Q858 167 840 167H505V-114Q505 -136 490.0 -146.0Q475 -156 455 -156Q435 -156 420.0 -146.0Q405 -136 405 -114V167H70Q52 167 43.5 179.5Q35 192 35 209Q35 226 43.5 239.0Q52 252 70 252H840Q858 252 866.5 239.0Q875 226 875 209Z" transform="translate(229.600 100.280) scale(0.016000 -0.016000)"/><path d="M505 635V522Q505 480 500.0 446.5Q495 413 481.0 383.0Q467 353 442.0 324.5Q417 296 377.5 264.5Q338 233 282.0 196.0Q226 159 149 112Q132 102 115.0 108.5Q98 115 88 129Q78 143 78.5 162.0Q79 181 96 192Q167 235 217.5 267.5Q268 300 302.0 326.5Q336 353 356.5 375.5Q377 398 388.0 420.5Q399 443 402.0 468.5Q405 494 405 526V603Q405 614 400.5 618.5Q396 623 384 623H124Q105 623 96.5 636.0Q88 649 88 666Q88 684 96.5 697.0Q105 710 124 710H428Q472 710 488.5 694.0Q505 678 505 635ZM738 778Q758 778 773.5 768.0Q789 758 789 736V-44Q789 -66 773.5 -76.0Q758 -86 738 -86Q719 -86 703.5 -76.0Q688 -66 688 -44V736Q688 758 703.5 768.0Q719 778 738 778Z" transform="translate(244.160 100.280) scale(0.016000 -0.016000)"/></g><g fill="#6B7280" opacity="1"><path d="M455 737Q599 737 676.5 673.5Q754 610 754 500Q754 390 676.5 326.5Q599 263 455 263Q311 263 233.5 326.5Q156 390 156 500Q156 610 233.5 673.5Q311 737 455 737ZM455 675Q398 675 355.5 661.5Q313 648 285.0 625.0Q257 602 243.0 569.5Q229 537 229 500Q229 462 243.0 430.0Q257 398 285.0 375.0Q313 352 355.5 338.5Q398 325 455 325Q512 325 554.5 338.5Q597 352 625.0 375.0Q653 398 667.0 430.0Q681 462 681 500Q681 537 667.0 569.5Q653 602 625.0 625.0Q597 648 554.5 661.5Q512 675 455 675ZM492 74H846Q860 74 866.0 65.0Q872 56 872 42Q872 29 866.0 20.0Q860 11 846 11H64Q50 11 44.0 20.0Q38 29 38 42Q38 56 44.0 65.0Q50 74 64 74H419V319H492Z" transform="translate(322.000 98.790) scale(0.013000 -0.013000)"/><path d="M455 566Q581 566 650.5 530.0Q720 494 720 422Q720 349 650.5 313.5Q581 278 455 278Q329 278 259.5 313.5Q190 349 190 422Q190 494 259.5 530.0Q329 566 455 566ZM455 795Q469 795 480.5 788.0Q492 781 492 767V697H775Q789 697 795.0 687.5Q801 678 801 665Q801 652 795.0 643.0Q789 634 775 634H135Q121 634 115.0 643.0Q109 652 109 665Q109 678 115.0 687.5Q121 697 135 697H418V767Q418 781 429.5 788.0Q441 795 455 795ZM455 507Q261 507 261 422Q261 336 455 336Q649 336 649 422Q649 507 455 507ZM846 204Q860 204 866.0 194.5Q872 185 872 172Q872 159 866.0 150.0Q860 141 846 141H492V-122Q492 -138 480.5 -145.0Q469 -152 455 -152Q441 -152 430.0 -145.0Q419 -138 419 -122V141H64Q50 141 44.0 150.0Q38 159 38 172Q38 185 44.0 194.5Q50 204 64 204H846Z" transform="translate(333.830 98.790) scale(0.013000 -0.013000)"/><path d="M542 712Q555 712 561.0 703.0Q567 694 567 680Q567 667 561.0 657.5Q555 648 542 648H361V570Q361 516 379.0 478.5Q397 441 436 407Q470 379 503.0 353.5Q536 328 560 309Q572 300 573.0 287.5Q574 275 566 263Q558 252 545.5 249.5Q533 247 520 256Q497 274 468.5 296.0Q440 318 405 346Q365 378 347.0 402.5Q329 427 325 444H324Q320 426 301.5 401.0Q283 376 243 344Q209 315 176.0 290.0Q143 265 112 242Q99 233 87.0 236.5Q75 240 67 250Q59 261 59.0 274.0Q59 287 72 297Q105 321 141.5 349.0Q178 377 212 406Q251 439 269.0 477.0Q287 515 287 569V648H100Q87 648 81.0 657.5Q75 667 75 680Q75 694 81.0 703.0Q87 712 100 712H542ZM750 774Q764 774 775.0 767.0Q786 760 786 744V134Q786 118 775.0 111.0Q764 104 750 104Q736 104 725.0 111.0Q714 118 714 134V458H543Q530 458 524.0 467.0Q518 476 518 490Q518 503 524.0 512.5Q530 522 543 522H714V744Q714 760 725.0 767.0Q736 774 750 774ZM252 182Q266 182 277.5 175.0Q289 168 289 152V-44Q289 -62 308 -62H786Q800 -62 806.0 -71.5Q812 -81 812 -94Q812 -107 806.0 -116.5Q800 -126 786 -126H284Q245 -126 230.0 -111.5Q215 -97 215 -59V152Q215 168 226.5 175.0Q238 182 252 182Z" transform="translate(348.910 98.790) scale(0.013000 -0.013000)"/></g><circle cx="397" cy="99" r="12" fill="none" stroke="#9AA4AD" stroke-width="1.6" opacity="1"/></svg>