<svg xmlns="http://www.w3.org/2000/svg" width="430" height="190" viewBox="0 0 430 190" role="img" aria-label="Warning alert card"><title>Warning alert card</title><defs><linearGradient id="card-warning-bg" x1="0%" y1="0%" x2="100%" y2="0%"><stop offset="0%" stop-color="#FFF2C6" stop-opacity="1"/><stop offset="100%" stop-color="#FFF7EA" stop-opacity="1"/></linearGradient></defs><rect x="2" y="2" width="426" height="186" rx="20" fill="url(#card-warning-bg)" stroke="#F5DDA8" stroke-width="1.3" opacity="1"/><polygon points="27.0,18.5 34.5,32.75 19.5,32.75" fill="#FF7A45" stroke-width="1" opacity="1"/><line x1="27.0" y1="23.0" x2="27.0" y2="27.5" stroke="#fff" stroke-width="1.5" stroke-linecap="round" opacity="1"/><circle cx="27.0" cy="30.125" r="0.9750000000000001" fill="#fff" stroke-width="1" opacity="1"/><g fill="#FF7A45" opacity="1"><path d="M455 743Q527 743 584.5 726.5Q642 710 681.5 678.5Q721 647 742.0 601.5Q763 556 763 499Q763 442 742.0 396.5Q721 351 681.5 319.5Q642 288 584.5 271.5Q527 255 455 255Q310 255 229.0 319.5Q148 384 148 499Q148 614 229.0 678.5Q310 743 455 743ZM455 658Q401 658 362.0 646.0Q323 634 297.5 612.5Q272 591 260.0 562.0Q248 533 248 499Q248 465 260.0 436.0Q272 407 297.5 385.5Q323 364 362.0 352.0Q401 340 455 340Q509 340 548.0 352.0Q587 364 612.5 385.5Q638 407 650.0 436.0Q662 465 662 499Q662 533 650.0 562.0Q638 591 612.5 612.5Q587 634 548.0 646.0Q509 658 455 658ZM505 86H840Q858 86 866.5 73.5Q875 61 875 44Q875 27 866.5 14.0Q858 1 840 1H70Q52 1 43.5 14.0Q35 27 35 44Q35 61 43.5 73.5Q52 86 70 86H405V319H505Z" transform="translate(52.000 32.450) scale(0.015000 -0.015000)"/><path d="M201 769Q221 769 236.0 759.0Q251 749 251 726V571Q251 551 272 551H742Q759 551 767.5 539.0Q776 527 776 510Q776 493 767.5 480.5Q759 468 742 468H227Q183 468 167.0 484.0Q151 500 151 543V726Q151 749 166.0 759.0Q181 769 201 769ZM875 348Q875 331 866.5 318.5Q858 306 841 306H69Q52 306 43.5 318.5Q35 331 35 348Q35 365 43.5 377.0Q52 389 69 389H841Q858 389 866.5 377.0Q875 365 875 348ZM761 150V76Q761 33 744.5 17.0Q728 1 684 1H261Q245 1 245 -14V-55Q245 -70 261 -70H750Q767 -70 775.0 -82.0Q783 -94 783 -109Q783 -125 775.0 -136.5Q767 -148 750 -148H225Q181 -148 164.5 -132.0Q148 -116 148 -73V1Q148 44 164.5 60.0Q181 76 225 76H648Q664 76 664 91V131Q664 147 648 147H178Q161 147 153.5 158.5Q146 170 146 186Q146 201 153.5 213.0Q161 225 178 225H684Q728 225 744.5 209.0Q761 193 761 150Z" transform="translate(65.650 32.450) scale(0.015000 -0.015000)"/><path d="M773 690Q773 673 764.5 660.5Q756 648 737 648H506V636Q506 612 510.0 594.0Q514 576 524.0 561.0Q534 546 551.5 533.0Q569 520 595 507Q645 481 688.0 460.5Q731 440 778 419Q795 411 798.0 394.5Q801 378 793 361Q785 344 769.5 337.0Q754 330 738 337Q687 360 645.0 380.0Q603 400 556 424Q503 451 481.5 471.0Q460 491 456 509H455Q450 489 429.0 469.0Q408 449 355 422Q307 398 265.0 378.0Q223 358 173 335Q156 328 140.5 335.5Q125 343 117 360Q108 377 111.5 394.0Q115 411 132 419Q179 440 222.0 460.5Q265 481 316 507Q342 520 359.0 533.0Q376 546 386.0 561.0Q396 576 400.0 594.0Q404 612 404 636V648H173Q154 648 145.5 660.5Q137 673 137 690Q137 708 145.5 720.5Q154 733 173 733H737Q756 733 764.5 720.5Q773 708 773 690ZM875 209Q875 192 866.5 179.5Q858 167 840 167H505V-114Q505 -136 490.0 -146.0Q475 -156 455 -156Q435 -156 420.0 -146.0Q405 -136 405 -114V167H70Q52 167 43.5 179.5Q35 192 35 209Q35 226 43.5 239.0Q52 252 70 252H840Q858 252 866.5 239.0Q875 226 875 209Z" transform="translate(83.050 32.450) scale(0.015000 -0.015000)"/><path d="M343 726Q403 726 448.5 709.5Q494 693 524.0 663.5Q554 634 569.5 594.0Q585 554 585 508Q585 461 569.5 421.0Q554 381 524.0 351.5Q494 322 448.5 305.5Q403 289 343 289Q283 289 237.5 305.5Q192 322 162.0 351.5Q132 381 116.5 421.0Q101 461 101 508Q101 554 116.5 594.0Q132 634 162.0 663.5Q192 693 237.5 709.5Q283 726 343 726ZM343 642Q268 642 232.0 603.5Q196 565 196 508Q196 451 232.0 412.0Q268 373 343 373Q418 373 454.0 412.0Q490 451 490 508Q490 565 454.0 603.5Q418 642 343 642ZM618 176Q635 178 644.5 167.0Q654 156 655 138Q657 121 649.5 107.5Q642 94 625 92Q504 81 367.0 76.0Q230 71 82 71Q64 71 55.5 84.0Q47 97 47 114Q47 131 55.5 144.0Q64 157 82 157Q216 157 347.0 160.0Q478 163 618 176ZM757 778Q777 778 792.0 768.0Q807 758 807 736V-44Q807 -66 792.0 -76.0Q777 -86 757 -86Q738 -86 723.0 -76.0Q708 -66 708 -44V736Q708 758 723.0 768.0Q738 778 757 778Z" transform="translate(96.700 32.450) scale(0.015000 -0.015000)"/><path d="M264 500Q310 500 345.0 485.5Q380 471 404.0 445.5Q428 420 440.0 384.5Q452 349 452 307Q452 265 440.0 230.0Q428 195 404.0 169.0Q380 143 345.0 128.5Q310 114 264 114Q218 114 182.5 128.5Q147 143 123.0 169.0Q99 195 87.0 230.0Q75 265 75 307Q75 349 87.0 384.5Q99 420 123.0 445.5Q147 471 182.5 485.5Q218 500 264 500ZM263 772Q283 772 298.0 762.0Q313 752 313 731V646H454Q472 646 480.5 633.5Q489 621 489 604Q489 587 480.5 574.0Q472 561 454 561H60Q41 561 32.5 574.0Q24 587 24 604Q24 621 32.5 633.5Q41 646 60 646H214V731Q214 752 229.5 762.0Q245 772 263 772ZM264 419Q213 419 187.5 388.5Q162 358 162 307Q162 257 187.5 226.5Q213 196 264 196Q314 196 340.0 226.5Q366 257 366 307Q366 358 340.0 388.5Q314 419 264 419ZM771 778Q789 778 803.5 768.5Q818 759 818 739V-47Q818 -67 803.5 -76.5Q789 -86 771 -86Q754 -86 739.5 -76.5Q725 -67 725 -47V376H619V-6Q619 -26 604.5 -35.0Q590 -44 573 -44Q556 -44 541.5 -35.0Q527 -26 527 -6V730Q527 750 541.5 759.0Q556 768 573 768Q590 768 604.5 759.0Q619 750 619 730V461H725V739Q725 759 739.5 768.5Q754 778 771 778Z" transform="translate(110.350 32.450) scale(0.015000 -0.015000)"/><path d="M283 726Q399 726 458.0 650.0Q517 574 517 428Q517 282 458.0 206.0Q399 130 283 130Q167 130 108.5 206.0Q50 282 50 428Q50 574 108.5 650.0Q167 726 283 726ZM283 638Q210 638 178.5 584.5Q147 531 147 428Q147 325 178.5 271.5Q210 218 283 218Q357 218 388.5 271.5Q420 325 420 428Q420 531 388.5 584.5Q357 638 283 638ZM696 778Q716 778 731.0 768.0Q746 758 746 736V590H849Q867 590 875.5 577.5Q884 565 884 547Q884 529 875.5 516.5Q867 504 849 504H746V362H849Q867 362 875.5 349.5Q884 337 884 319Q884 301 875.5 288.5Q867 276 849 276H746V-44Q746 -66 731.0 -76.0Q716 -86 696 -86Q676 -86 661.0 -76.0Q646 -66 646 -44V736Q646 758 661.0 768.0Q676 778 696 778Z" transform="translate(124.000 32.450) scale(0.015000 -0.015000)"/><path d="M306 571Q406 571 462.5 533.0Q519 495 519 426Q519 357 462.5 319.0Q406 281 306 281Q206 281 149.5 319.0Q93 357 93 426Q93 495 149.5 533.0Q206 571 306 571ZM306 798Q326 798 341.0 788.0Q356 778 356 758V701H536Q553 701 561.5 688.5Q570 676 570 659Q570 642 561.5 630.0Q553 618 536 618H67Q49 618 40.5 630.0Q32 642 32 659Q32 676 40.5 688.5Q49 701 67 701H256V758Q256 778 271.0 788.0Q286 798 306 798ZM306 497Q246 497 214.5 477.5Q183 458 183 426Q183 394 214.5 374.5Q246 355 306 355Q367 355 398.0 374.5Q429 394 429 426Q429 458 398.0 477.5Q367 497 306 497ZM696 778Q716 778 731.0 768.0Q746 758 746 736V570H857Q876 570 884.5 557.0Q893 544 893 526Q893 509 884.5 496.0Q876 483 857 483H746V310Q746 288 731.0 278.0Q716 268 696 268Q677 268 662.0 278.0Q647 288 647 310V736Q647 758 662.0 768.0Q677 778 696 778ZM746 150V78Q746 35 729.5 19.0Q713 3 669 3H286Q270 3 270 -12V-51Q270 -67 286 -67H736Q753 -67 760.5 -79.0Q768 -91 768 -105Q768 -121 760.5 -132.5Q753 -144 736 -144H251Q207 -144 190.5 -128.0Q174 -112 174 -69V3Q174 46 190.5 61.5Q207 77 251 77H634Q650 77 650 93V132Q650 147 634 147H204Q187 147 179.5 159.0Q172 171 172 186Q172 201 179.5 213.0Q187 225 204 225H669Q713 225 729.5 209.0Q746 193 746 150Z" transform="translate(141.400 32.450) scale(0.015000 -0.015000)"/><path d="M303 751Q360 751 404.0 735.5Q448 720 477.0 692.5Q506 665 521.0 627.5Q536 590 536 546Q536 502 521.0 464.0Q506 426 477.0 398.5Q448 371 404.0 355.5Q360 340 303 340Q246 340 202.0 355.5Q158 371 129.0 398.5Q100 426 85.0 464.0Q70 502 70 546Q70 590 85.0 627.5Q100 665 129.0 692.5Q158 720 202.0 735.5Q246 751 303 751ZM303 669Q267 669 241.0 659.0Q215 649 198.5 632.0Q182 615 174.0 593.0Q166 571 166 546Q166 521 174.0 498.5Q182 476 198.5 459.0Q215 442 241.0 432.0Q267 422 303 422Q339 422 365.0 432.0Q391 442 407.5 459.0Q424 476 432.0 498.5Q440 521 440 546Q440 571 432.0 593.0Q424 615 407.5 632.0Q391 649 365.0 659.0Q339 669 303 669ZM739 778Q759 778 774.0 768.0Q789 758 789 736V348Q789 326 774.0 316.0Q759 306 739 306Q719 306 704.0 316.0Q689 326 689 348V736Q689 758 704.0 768.0Q719 778 739 778ZM789 188V96Q789 53 772.5 37.0Q756 21 712 21H325Q314 21 309.0 16.5Q304 12 304 0V-43Q304 -64 325 -64H778Q795 -64 803.0 -76.0Q811 -88 811 -104Q811 -120 803.0 -132.0Q795 -144 778 -144H284Q240 -144 223.5 -128.0Q207 -112 207 -69V23Q207 66 223.5 82.0Q240 98 284 98H670Q682 98 686.5 102.5Q691 107 691 119V162Q691 173 686.5 177.5Q682 182 670 182H238Q221 182 213.0 194.0Q205 206 205 223Q205 239 213.0 251.0Q221 263 238 263H712Q756 263 772.5 247.0Q789 231 789 188Z" transform="translate(158.800 32.450) scale(0.015000 -0.015000)"/><path d="M304 727Q421 727 480.0 650.5Q539 574 539 428Q539 282 480.0 205.5Q421 129 304 129Q187 129 128.5 205.5Q70 282 70 428Q70 574 128.5 650.5Q187 727 304 727ZM304 639Q230 639 198.5 585.0Q167 531 167 428Q167 325 198.5 271.0Q230 217 304 217Q379 217 410.5 271.0Q442 325 442 428Q442 531 410.5 585.0Q379 639 304 639ZM738 778Q758 778 773.5 768.0Q789 758 789 736V-44Q789 -66 773.5 -76.0Q758 -86 738 -86Q719 -86 703.5 -76.0Q688 -66 688 -44V736Q688 758 703.5 768.0Q719 778 738 778Z" transform="translate(172.450 32.450) scale(0.015000 -0.015000)"/><path d="M371 720Q394 720 408.5 710.0Q423 700 423 677V41Q423 19 408.0 9.0Q393 -1 373 -1Q353 -1 338.0 9.0Q323 19 323 41V602L173 510Q154 499 137.0 506.0Q120 513 110 530Q102 546 104.5 563.5Q107 581 125 591L304 698Q324 709 340.0 714.5Q356 720 371 720Z" transform="translate(189.850 32.450) scale(0.015000 -0.015000)"/><path d="M337 703Q381 703 397.5 687.0Q414 671 414 628V522Q414 477 411.0 442.5Q408 408 397.5 379.0Q387 350 367.5 324.0Q348 298 315.5 268.5Q283 239 235.5 203.5Q188 168 121 121Q106 110 88.0 115.0Q70 120 59 134Q49 148 48.5 167.5Q48 187 64 198Q124 239 166.0 269.5Q208 300 236.5 324.5Q265 349 281.0 369.5Q297 390 305.5 413.0Q314 436 316.0 463.0Q318 490 318 526V596Q318 616 297 616H94Q75 616 66.5 629.0Q58 642 58 659Q58 677 66.5 690.0Q75 703 94 703ZM771 778Q789 778 803.5 768.5Q818 759 818 739V-47Q818 -67 803.5 -76.5Q789 -86 771 -86Q754 -86 739.5 -76.5Q725 -67 725 -47V386H612V-5Q612 -25 597.5 -34.5Q583 -44 565 -44Q548 -44 533.5 -34.5Q519 -25 519 -5V729Q519 749 533.5 758.5Q548 768 565 768Q583 768 597.5 758.5Q612 749 612 729V471H725V739Q725 759 739.5 768.5Q754 778 771 778Z" transform="translate(199.000 32.450) scale(0.015000 -0.015000)"/><path d="M303 741Q361 741 405.0 724.5Q449 708 478.0 679.0Q507 650 521.5 610.0Q536 570 536 524Q536 477 521.5 437.0Q507 397 478.0 368.0Q449 339 405.0 322.5Q361 306 303 306Q244 306 200.5 322.5Q157 339 128.0 368.0Q99 397 84.5 437.0Q70 477 70 524Q70 570 84.5 610.0Q99 650 128.0 679.0Q157 708 200.5 724.5Q244 741 303 741ZM303 658Q266 658 240.0 647.5Q214 637 197.5 618.5Q181 600 173.5 575.5Q166 551 166 524Q166 497 173.5 472.5Q181 448 197.5 429.5Q214 411 240.0 400.5Q266 390 303 390Q340 390 366.0 400.5Q392 411 408.5 429.5Q425 448 432.5 472.5Q440 497 440 524Q440 551 432.5 575.5Q425 600 408.5 618.5Q392 637 366.0 647.5Q340 658 303 658ZM739 778Q759 778 774.0 768.0Q789 758 789 736V299Q789 277 774.0 267.0Q759 257 739 257Q719 257 704.0 267.0Q689 277 689 299V736Q689 758 704.0 768.0Q719 778 739 778ZM333 233Q353 233 367.5 223.0Q382 213 382 192V144Q382 122 384.0 106.0Q386 90 391.5 75.5Q397 61 406.0 48.0Q415 35 429 19Q455 -8 479 -31Q490 -40 497.0 -40.0Q504 -40 514 -31Q526 -20 539.0 -7.0Q552 6 564 19Q578 35 587.0 48.0Q596 61 601.5 75.5Q607 90 609.0 106.0Q611 122 611 144V192Q611 213 625.5 223.0Q640 233 660 233Q679 233 694.0 223.0Q709 213 709 192V144Q709 121 712.0 104.0Q715 87 721.5 72.5Q728 58 739.5 44.5Q751 31 768 15Q788 -4 813.0 -23.5Q838 -43 863 -61Q877 -72 876.5 -88.5Q876 -105 865 -119Q854 -134 837.5 -137.0Q821 -140 804 -128Q783 -112 764.0 -96.5Q745 -81 728 -66Q693 -37 679.0 -19.0Q665 -1 660 14H659Q657 6 653.0 -2.0Q649 -10 641.5 -19.5Q634 -29 622.5 -41.0Q611 -53 595 -70Q583 -82 571.5 -93.0Q560 -104 548 -114Q519 -139 497.0 -139.0Q475 -139 446 -114Q422 -94 399 -70Q366 -36 352.0 -19.5Q338 -3 334 14H333Q328 -3 314.0 -20.5Q300 -38 266 -68Q249 -82 230.0 -97.5Q211 -113 189 -129Q172 -142 156.0 -138.5Q140 -135 128 -121Q117 -106 117.0 -89.0Q117 -72 131 -61Q155 -43 180.0 -23.5Q205 -4 225 15Q242 31 253.5 44.5Q265 58 271.5 72.5Q278 87 281.0 104.0Q284 121 284 144V192Q284 213 299.0 223.0Q314 233 333 233Z" transform="translate(216.400 32.450) scale(0.015000 -0.015000)"/><path d="M295 726Q410 726 468.5 650.0Q527 574 527 428Q527 282 468.5 206.0Q410 130 295 130Q180 130 122.0 206.0Q64 282 64 428Q64 574 122.0 650.0Q180 726 295 726ZM295 638Q223 638 192.0 584.5Q161 531 161 428Q161 325 192.0 271.5Q223 218 295 218Q368 218 399.0 271.5Q430 325 430 428Q430 531 399.0 584.5Q368 638 295 638ZM745 778Q765 778 780.0 768.0Q795 758 795 736V-44Q795 -66 780.0 -76.0Q765 -86 745 -86Q726 -86 711.0 -76.0Q696 -66 696 -44V386H463V471H696V736Q696 758 711.0 768.0Q726 778 745 778Z" transform="translate(230.050 32.450) scale(0.015000 -0.015000)"/><path d="M455 743Q527 743 584.5 727.0Q642 711 681.5 680.5Q721 650 742.0 605.5Q763 561 763 505Q763 392 681.5 329.5Q600 267 455 267Q310 267 229.0 329.5Q148 392 148 505Q148 561 169.0 605.5Q190 650 229.5 680.5Q269 711 326.0 727.0Q383 743 455 743ZM455 658Q401 658 362.0 646.5Q323 635 297.5 614.5Q272 594 260.0 566.0Q248 538 248 505Q248 472 260.0 444.0Q272 416 297.5 395.5Q323 375 362.0 363.5Q401 352 455 352Q509 352 548.0 363.5Q587 375 612.5 395.5Q638 416 650.0 444.0Q662 472 662 505Q662 538 650.0 566.0Q638 594 612.5 614.5Q587 635 548.0 646.5Q509 658 455 658ZM301 247Q321 247 336.0 237.0Q351 227 351 206V85H559V206Q559 227 574.0 237.0Q589 247 609 247Q629 247 644.0 237.0Q659 227 659 206V85H840Q858 85 866.5 73.0Q875 61 875 44Q875 27 866.5 14.0Q858 1 840 1H70Q52 1 43.5 14.0Q35 27 35 44Q35 61 43.5 73.0Q52 85 70 85H251V206Q251 227 266.0 237.0Q281 247 301 247Z" transform="translate(243.700 32.450) scale(0.015000 -0.015000)"/></g><g fill="#1F2937" opacity="1"><path d="M308 748Q328 748 343.5 738.0Q359 728 359 706V614Q359 566 374.5 531.5Q390 497 425 467Q460 438 491.0 414.0Q522 390 547 372Q564 360 564.5 342.5Q565 325 554 311Q544 297 527.0 291.5Q510 286 493 299Q473 313 444.0 335.5Q415 358 383 384Q345 414 329.5 434.0Q314 454 310 469H309Q305 452 288.0 431.0Q271 410 234 380Q202 354 171.5 330.0Q141 306 109 283Q92 271 74.5 276.5Q57 282 47 295Q37 309 37.0 327.5Q37 346 55 359Q90 385 123.0 410.0Q156 435 191 464Q226 494 241.5 528.5Q257 563 257 612V706Q257 728 272.5 738.0Q288 748 308 748ZM696 778Q716 778 731.0 768.0Q746 758 746 736V557H856Q876 557 884.5 544.0Q893 531 893 514Q893 495 884.5 482.5Q876 470 856 470H746V271Q746 250 731.0 240.0Q716 230 696 230Q676 230 661.0 240.0Q646 250 646 271V736Q646 758 661.0 768.0Q676 778 696 778ZM465 221Q602 221 676.5 173.5Q751 126 751 32Q751 -62 676.5 -109.5Q602 -157 465 -157Q328 -157 253.5 -109.5Q179 -62 179 32Q179 126 253.5 173.5Q328 221 465 221ZM465 140Q366 140 322.0 110.5Q278 81 278 32Q278 -18 322.0 -47.0Q366 -76 465 -76Q564 -76 608.0 -47.0Q652 -18 652 32Q652 82 608.0 111.0Q564 140 465 140Z" transform="translate(24.000 79.110) scale(0.017000 -0.017000)"/><path d="M455 790Q475 790 490.5 780.0Q506 770 506 748V689H745Q764 689 772.5 676.5Q781 664 781 646Q781 629 772.5 616.5Q764 604 745 604H505V589Q505 549 525.0 522.0Q545 495 589 475Q640 452 686.5 433.0Q733 414 778 397Q795 391 799.0 374.0Q803 357 796 340Q789 323 773.5 316.0Q758 309 741 316Q701 331 658.5 348.5Q616 366 575 384Q541 398 519.0 410.5Q497 423 484.0 434.5Q471 446 464.5 455.5Q458 465 456 474H455Q452 465 446.0 454.5Q440 444 426.5 433.0Q413 422 391.0 409.0Q369 396 336 382Q294 364 252.0 346.5Q210 329 170 314Q152 307 136.5 314.5Q121 322 114 339Q107 356 111.0 373.5Q115 391 132 397Q177 414 223.5 433.0Q270 452 321 475Q365 495 385.0 522.0Q405 549 405 589V604H165Q146 604 137.5 616.5Q129 629 129 646Q129 664 137.5 676.5Q146 689 165 689H404V748Q404 770 419.5 780.0Q435 790 455 790ZM875 201Q875 184 866.5 171.5Q858 159 840 159H505V-114Q505 -136 490.0 -146.0Q475 -156 455 -156Q435 -156 420.0 -146.0Q405 -136 405 -114V159H70Q52 159 43.5 171.5Q35 184 35 201Q35 218 43.5 231.0Q52 244 70 244H840Q858 244 866.5 231.0Q875 218 875 201Z" transform="translate(39.470 79.110) scale(0.017000 -0.017000)"/><path d="M118 747Q137 747 152.5 737.0Q168 727 168 705V609H398V705Q398 727 413.0 737.0Q428 747 447 747Q466 747 481.5 737.0Q497 727 497 705V415Q497 372 480.5 356.0Q464 340 420 340H146Q102 340 85.5 356.0Q69 372 69 415V705Q69 727 84.0 737.0Q99 747 118 747ZM168 442Q168 430 172.5 425.5Q177 421 189 421H377Q388 421 393.0 425.5Q398 430 398 442V528H168ZM696 778Q716 778 731.0 768.0Q746 758 746 736V586H856Q876 586 884.5 573.0Q893 560 893 543Q893 524 884.5 511.5Q876 499 856 499H746V342Q746 320 731.0 310.0Q716 300 696 300Q676 300 661.0 310.0Q646 320 646 342V736Q646 758 661.0 768.0Q676 778 696 778ZM758 211Q758 194 750.0 182.0Q742 170 725 170H290Q269 170 269 150V92H716Q733 92 740.5 80.5Q748 69 748 54Q748 38 740.5 26.5Q733 15 716 15H269V-43Q269 -64 290 -64H735Q752 -64 760.0 -76.0Q768 -88 768 -104Q768 -120 760.0 -132.0Q752 -144 735 -144H251Q207 -144 190.5 -128.0Q174 -112 174 -69V176Q174 219 190.5 235.0Q207 251 251 251H725Q742 251 750.0 239.0Q758 227 758 211Z" transform="translate(54.940 79.110) scale(0.017000 -0.017000)"/></g><g fill="#6B7280" opacity="1"><path d="M455 811Q469 811 480.5 804.0Q492 797 492 781V720H776Q788 720 794.0 711.5Q800 703 800 691Q800 680 794.0 671.0Q788 662 776 662H134Q122 662 116.0 671.0Q110 680 110 691Q110 703 116.0 711.5Q122 720 134 720H418V781Q418 797 429.5 804.0Q441 811 455 811ZM455 608Q580 608 649.5 579.5Q719 551 719 486Q719 421 649.5 392.5Q580 364 455 364Q330 364 260.5 393.0Q191 422 191 486Q191 551 260.5 579.5Q330 608 455 608ZM455 554Q262 554 262 486Q262 418 455 418Q648 418 648 486Q648 554 455 554ZM848 300Q861 300 866.5 291.0Q872 282 872 270Q872 259 866.5 250.0Q861 241 848 241H62Q49 241 43.5 250.0Q38 259 38 270Q38 282 43.5 291.0Q49 300 62 300H848ZM374 162Q414 162 428.5 148.0Q443 134 443 95V50Q443 11 428.5 -2.5Q414 -16 374 -16H217Q201 -16 201 -31V-70Q201 -84 217 -84Q302 -84 366.5 -81.5Q431 -79 487 -73Q499 -71 505.0 -78.5Q511 -86 513 -97Q515 -109 509.5 -117.0Q504 -125 492 -127Q450 -132 381.0 -136.0Q312 -140 204 -140Q165 -140 150.5 -126.0Q136 -112 136 -74V-29Q136 10 150.0 23.5Q164 37 204 37H362Q377 37 377 52V91Q377 106 362 106H158Q146 106 140.5 114.0Q135 122 135 133Q135 144 140.5 153.0Q146 162 158 162ZM692 162Q731 162 746.0 147.5Q761 133 761 95V-117Q761 -133 750.5 -140.0Q740 -147 726 -147Q713 -147 702.0 -140.0Q691 -133 691 -117V83Q691 94 687.0 97.5Q683 101 672 101H515Q502 101 496.5 110.0Q491 119 491 131Q491 144 496.5 153.0Q502 162 515 162Z" transform="translate(24.000 105.620) scale(0.014000 -0.014000)"/><path d="M306 721Q419 721 476.0 646.0Q533 571 533 428Q533 285 476.0 210.0Q419 135 306 135Q193 135 135.5 210.0Q78 285 78 428Q78 571 135.5 646.0Q193 721 306 721ZM306 656Q224 656 187.0 596.5Q150 537 150 428Q150 319 187.0 259.5Q224 200 306 200Q388 200 425.0 259.5Q462 319 462 428Q462 537 425.0 596.5Q388 656 306 656ZM743 774Q757 774 768.5 767.0Q780 760 780 744V-52Q780 -68 768.5 -75.0Q757 -82 743 -82Q729 -82 718.0 -75.0Q707 -68 707 -52V744Q707 760 718.0 767.0Q729 774 743 774Z" transform="translate(36.740 105.620) scale(0.014000 -0.014000)"/><path d="M743 712Q756 712 762.0 702.5Q768 693 768 680Q768 667 762.0 657.5Q756 648 743 648H492V610Q492 576 496.5 551.0Q501 526 512.0 506.0Q523 486 542.5 469.0Q562 452 591 434Q615 419 637.5 405.5Q660 392 683.0 378.5Q706 365 730.5 351.5Q755 338 783 323Q796 316 796.5 303.0Q797 290 791 279Q783 267 771.5 262.0Q760 257 749 263Q703 288 656.5 315.0Q610 342 565 369Q509 403 485.0 427.5Q461 452 456 472H455Q450 452 426.0 427.0Q402 402 346 368Q301 341 254.5 314.0Q208 287 162 262Q150 256 138.5 261.0Q127 266 119 278Q112 289 113.5 302.5Q115 316 126 322Q182 353 226.5 378.5Q271 404 319 434Q348 452 367.0 469.0Q386 486 397.5 506.0Q409 526 413.5 551.0Q418 576 418 610V648H167Q154 648 148.0 657.5Q142 667 142 680Q142 693 148.0 702.5Q154 712 167 712H743ZM455 280Q469 280 480.5 273.0Q492 266 492 250V74H846Q860 74 866.0 65.0Q872 56 872 42Q872 29 866.0 20.0Q860 11 846 11H64Q50 11 44.0 20.0Q38 29 38 42Q38 56 44.0 65.0Q50 74 64 74H419V250Q419 266 430.0 273.0Q441 280 455 280Z" transform="translate(52.980 105.620) scale(0.014000 -0.014000)"/><path d="M674 735Q713 735 728.0 720.5Q743 706 743 668V614Q743 544 732.0 477.5Q721 411 704 364L638 379Q671 487 671 609V654Q671 672 652 672H174Q161 672 155.0 681.0Q149 690 149 704Q149 717 155.0 726.0Q161 735 174 735H674ZM846 396Q860 396 866.0 387.0Q872 378 872 364Q872 351 866.0 342.0Q860 333 846 333H64Q50 333 44.0 342.0Q38 351 38 364Q38 378 44.0 387.0Q50 396 64 396H846ZM684 196Q723 196 738.0 181.5Q753 167 753 129V-68Q753 -106 738.0 -120.5Q723 -135 684 -135H226Q187 -135 172.0 -120.5Q157 -106 157 -68V129Q157 167 172.0 181.5Q187 196 226 196ZM248 135Q229 135 229 117V-56Q229 -74 248 -74H662Q681 -74 681 -56V117Q681 135 662 135Z" transform="translate(65.720 105.620) scale(0.014000 -0.014000)"/><path d="M421 733Q460 733 475.0 718.5Q490 704 490 666V426Q490 388 475.0 373.5Q460 359 421 359H145Q106 359 91.0 373.5Q76 388 76 426V666Q76 704 91.0 718.5Q106 733 145 733ZM167 672Q148 672 148 653V439Q148 421 167 421H399Q418 421 418 439V653Q418 672 399 672ZM700 774Q714 774 725.5 767.0Q737 760 737 744V579H864Q878 579 884.0 569.5Q890 560 890 546Q890 533 884.0 523.5Q878 514 864 514H737V336Q737 320 725.5 313.0Q714 306 700 306Q686 306 675.0 313.0Q664 320 664 336V744Q664 760 675.0 767.0Q686 774 700 774ZM668 256Q707 256 722.0 241.5Q737 227 737 189V97Q737 59 722.0 44.5Q707 30 668 30H272Q262 30 257.5 26.5Q253 23 253 12V-59Q253 -78 272 -78H737Q749 -78 755.0 -87.0Q761 -96 761 -108Q761 -120 755.0 -129.0Q749 -138 737 -138H251Q212 -138 197.0 -123.5Q182 -109 182 -71V22Q182 60 197.0 74.5Q212 89 251 89H647Q658 89 662.0 92.5Q666 96 666 107V178Q666 196 647 196H204Q192 196 186.0 205.0Q180 214 180 226Q180 238 186.0 247.0Q192 256 204 256H668Z" transform="translate(81.960 105.620) scale(0.014000 -0.014000)"/><path d="M409 710Q448 710 463.0 695.5Q478 681 478 643V459Q478 421 463.0 406.5Q448 392 409 392H171Q152 392 152 374V210Q152 192 171 192Q282 192 375.0 197.5Q468 203 557 216Q569 218 577.0 210.0Q585 202 587 189Q589 175 583.5 164.5Q578 154 566 152Q527 147 483.5 142.5Q440 138 389.5 135.0Q339 132 279.5 130.5Q220 129 149 129Q110 129 95.0 143.5Q80 158 80 196V386Q80 424 95.0 438.5Q110 453 149 453H387Q406 453 406 472V629Q406 647 387 647H105Q92 647 86.0 656.0Q80 665 80 679Q80 692 86.0 701.0Q92 710 105 710H409ZM700 774Q714 774 725.5 767.0Q737 760 737 744V465H864Q878 465 884.0 455.5Q890 446 890 433Q890 419 884.0 409.5Q878 400 864 400H737V-52Q737 -68 725.5 -75.0Q714 -82 700 -82Q686 -82 675.0 -75.0Q664 -68 664 -52V744Q664 760 675.0 767.0Q686 774 700 774Z" transform="translate(94.700 105.620) scale(0.014000 -0.014000)"/><path d="M304 736Q361 736 403.5 719.5Q446 703 474.0 674.5Q502 646 516.0 607.5Q530 569 530 524Q530 479 516.0 440.5Q502 402 474.0 373.5Q446 345 403.5 329.0Q361 313 304 313Q247 313 204.5 329.0Q162 345 134.0 373.5Q106 402 92.0 440.5Q78 479 78 524Q78 569 92.0 607.5Q106 646 134.0 674.5Q162 703 204.5 719.5Q247 736 304 736ZM304 674Q262 674 233.0 662.0Q204 650 185.0 629.5Q166 609 157.5 581.5Q149 554 149 524Q149 494 157.5 466.5Q166 439 185.0 419.0Q204 399 233.0 387.0Q262 375 304 375Q346 375 375.0 387.0Q404 399 423.0 419.0Q442 439 450.5 466.5Q459 494 459 524Q459 554 450.5 581.5Q442 609 423.0 629.5Q404 650 375.0 662.0Q346 674 304 674ZM744 774Q758 774 769.0 767.0Q780 760 780 744V289Q780 273 769.0 266.0Q758 259 744 259Q730 259 718.5 266.0Q707 273 707 289V744Q707 760 718.5 767.0Q730 774 744 774ZM334 229Q348 229 358.5 222.0Q369 215 369 199V145Q369 120 371.5 102.0Q374 84 380.5 68.5Q387 53 398.0 37.5Q409 22 426 3Q439 -11 453.0 -26.5Q467 -42 481 -54Q496 -69 512 -54Q525 -42 539.5 -26.5Q554 -11 567 3Q584 22 595.0 37.5Q606 53 612.0 68.5Q618 84 620.5 102.0Q623 120 623 145V199Q623 215 634.0 222.0Q645 229 659 229Q673 229 684.0 222.0Q695 215 695 199V145Q695 120 697.5 101.5Q700 83 707.5 67.0Q715 51 728.0 36.0Q741 21 761 3Q780 -15 806.0 -36.0Q832 -57 859 -77Q869 -85 869.0 -97.0Q869 -109 861 -120Q852 -131 840.0 -133.0Q828 -135 816 -126Q790 -106 768.0 -88.0Q746 -70 729 -55Q694 -25 679.0 -6.5Q664 12 659 27H658Q656 19 651.5 11.0Q647 3 639.5 -6.5Q632 -16 620.5 -29.0Q609 -42 592 -60Q566 -87 541 -111Q515 -134 496.0 -134.0Q477 -134 451 -111Q438 -99 426.0 -86.5Q414 -74 400 -60Q383 -42 371.5 -29.0Q360 -16 352.5 -6.5Q345 3 341.0 11.0Q337 19 335 27H334Q329 11 313.5 -7.5Q298 -26 263 -56Q246 -70 224.0 -88.5Q202 -107 176 -127Q165 -135 152.5 -133.0Q140 -131 132 -120Q123 -109 123.5 -97.0Q124 -85 133 -77Q161 -57 186.5 -36.0Q212 -15 232 3Q252 21 265.0 36.0Q278 51 285.5 67.0Q293 83 295.5 101.5Q298 120 298 145V199Q298 215 309.0 222.0Q320 229 334 229Z" transform="translate(110.940 105.620) scale(0.014000 -0.014000)"/><path d="M297 720Q409 720 465.0 645.5Q521 571 521 428Q521 285 465.0 210.5Q409 136 297 136Q185 136 128.5 210.5Q72 285 72 428Q72 571 128.5 645.5Q185 720 297 720ZM297 655Q216 655 180.0 596.0Q144 537 144 428Q144 319 180.0 260.0Q216 201 297 201Q378 201 414.0 260.0Q450 319 450 428Q450 537 414.0 596.0Q378 655 297 655ZM750 774Q764 774 775.0 767.0Q786 760 786 744V-52Q786 -68 775.0 -75.0Q764 -82 750 -82Q736 -82 725.0 -75.0Q714 -68 714 -52V397H470V460H714V744Q714 760 725.0 767.0Q736 774 750 774Z" transform="translate(123.680 105.620) scale(0.014000 -0.014000)"/><path d="M455 737Q599 737 676.5 675.5Q754 614 754 505Q754 396 676.5 334.5Q599 273 455 273Q311 273 233.5 334.5Q156 396 156 505Q156 614 233.5 675.5Q311 737 455 737ZM455 675Q398 675 355.5 662.0Q313 649 285.0 626.5Q257 604 243.0 573.0Q229 542 229 505Q229 469 243.0 438.0Q257 407 285.0 384.5Q313 362 355.5 349.0Q398 336 455 336Q512 336 554.5 349.0Q597 362 625.0 384.5Q653 407 667.0 438.0Q681 469 681 505Q681 542 667.0 573.0Q653 604 625.0 626.5Q597 649 554.5 662.0Q512 675 455 675ZM296 250Q311 250 322.0 243.0Q333 236 333 220V73H577V220Q577 236 588.0 243.0Q599 250 613 250Q627 250 638.5 243.0Q650 236 650 220V73H847Q860 73 866.0 64.0Q872 55 872 42Q872 29 866.0 20.0Q860 11 847 11H63Q50 11 44.0 20.0Q38 29 38 42Q38 55 44.0 64.0Q50 73 63 73H260V220Q260 236 271.0 243.0Q282 250 296 250Z" transform="translate(136.420 105.620) scale(0.014000 -0.014000)"/><path d="M115 87Q140 87 156.0 70.5Q172 54 172 30Q172 7 156.0 -9.5Q140 -26 115 -26Q91 -26 74.5 -9.5Q58 7 58 30Q58 54 74.5 70.5Q91 87 115 87Z" transform="translate(149.160 105.620) scale(0.014000 -0.014000)"/></g><g fill="#6B7280" opacity="1"><path d="M556 703Q569 703 575.0 694.0Q581 685 581 671Q581 658 575.0 648.5Q569 639 556 639H370V524Q370 491 374.0 464.5Q378 438 387.0 415.5Q396 393 411.5 371.0Q427 349 451 325Q485 291 518.0 259.5Q551 228 578 205Q589 195 587.5 181.5Q586 168 578 159Q568 150 555.5 147.5Q543 145 532 156Q507 177 478.0 205.0Q449 233 415 267Q391 291 376.5 308.0Q362 325 353.0 338.0Q344 351 340.0 360.5Q336 370 334 378H333Q331 369 327.0 359.5Q323 350 314.0 337.0Q305 324 290.0 307.0Q275 290 252 266Q218 232 187.0 202.5Q156 173 121 143Q109 132 96.0 135.0Q83 138 75 147Q66 158 65.0 171.0Q64 184 75 193Q113 226 147.0 258.5Q181 291 215 325Q239 349 254.5 371.0Q270 393 279.0 415.5Q288 438 292.0 464.5Q296 491 296 524V639H106Q93 639 87.0 648.5Q81 658 81 671Q81 685 87.0 694.0Q93 703 106 703H556ZM743 774Q757 774 768.5 767.0Q780 760 780 744V-52Q780 -68 768.5 -75.0Q757 -82 743 -82Q729 -82 718.0 -75.0Q707 -68 707 -52V744Q707 760 718.0 767.0Q729 774 743 774Z" transform="translate(24.000 131.620) scale(0.014000 -0.014000)"/><path d="M674 735Q713 735 728.0 720.5Q743 706 743 668V614Q743 544 732.0 477.5Q721 411 704 364L638 379Q671 487 671 609V654Q671 672 652 672H174Q161 672 155.0 681.0Q149 690 149 704Q149 717 155.0 726.0Q161 735 174 735H674ZM846 396Q860 396 866.0 387.0Q872 378 872 364Q872 351 866.0 342.0Q860 333 846 333H64Q50 333 44.0 342.0Q38 351 38 364Q38 378 44.0 387.0Q50 396 64 396H846ZM684 196Q723 196 738.0 181.5Q753 167 753 129V-68Q753 -106 738.0 -120.5Q723 -135 684 -135H226Q187 -135 172.0 -120.5Q157 -106 157 -68V129Q157 167 172.0 181.5Q187 196 226 196ZM248 135Q229 135 229 117V-56Q229 -74 248 -74H662Q681 -74 681 -56V117Q681 135 662 135Z" transform="translate(36.740 131.620) scale(0.014000 -0.014000)"/><path d="M682 751Q721 751 736.0 736.5Q751 722 751 684V531Q751 493 736.0 478.5Q721 464 682 464H228Q189 464 174.0 478.5Q159 493 159 531V684Q159 722 174.0 736.5Q189 751 228 751ZM250 691Q239 691 235.0 687.5Q231 684 231 673V542Q231 531 235.0 527.5Q239 524 250 524H660Q671 524 675.0 527.5Q679 531 679 542V673Q679 684 675.0 687.5Q671 691 660 691ZM848 379Q860 379 866.0 370.5Q872 362 872 350Q872 337 866.0 328.0Q860 319 848 319H491V186H419V319H62Q50 319 44.0 328.0Q38 337 38 350Q38 362 44.0 370.5Q50 379 62 379H848ZM683 218Q722 218 737.0 203.5Q752 189 752 151V77Q752 39 737.0 24.5Q722 10 683 10H244Q228 10 228 -6V-68Q228 -83 244 -83H753Q765 -83 770.5 -92.0Q776 -101 776 -112Q776 -124 770.5 -133.0Q765 -142 753 -142H226Q187 -142 172.0 -127.5Q157 -113 157 -75V0Q157 38 172.0 52.5Q187 67 226 67H665Q682 67 682 82V144Q682 160 665 160H179Q167 160 161.0 168.5Q155 177 155 189Q155 200 161.0 209.0Q167 218 179 218H683Z" transform="translate(52.980 131.620) scale(0.014000 -0.014000)"/><path d="M742 727Q755 727 761.0 717.5Q767 708 767 695Q767 682 761.0 672.5Q755 663 742 663H492V646Q492 617 496.0 596.0Q500 575 510.5 558.0Q521 541 539.5 526.5Q558 512 586 497Q638 470 685.0 447.0Q732 424 780 402Q791 396 794.0 383.0Q797 370 791 358Q784 346 772.5 341.0Q761 336 750 341Q700 364 656.0 385.0Q612 406 564 432Q535 447 515.0 460.5Q495 474 482.5 485.0Q470 496 464.0 506.0Q458 516 456 525H455Q451 506 428.5 484.0Q406 462 347 431Q299 405 254.5 384.0Q210 363 161 340Q150 335 138.0 340.0Q126 345 119 357Q113 370 115.5 383.0Q118 396 130 402Q178 424 225.0 447.0Q272 470 324 497Q352 512 370.5 526.5Q389 541 399.5 558.0Q410 575 414.0 596.0Q418 617 418 646V663H168Q155 663 149.0 672.5Q143 682 143 695Q143 708 149.0 717.5Q155 727 168 727H742ZM846 242Q860 242 866.0 233.0Q872 224 872 210Q872 197 866.0 188.0Q860 179 846 179H492V-122Q492 -138 480.5 -145.0Q469 -152 455 -152Q441 -152 430.0 -145.0Q419 -138 419 -122V179H64Q50 179 44.0 188.0Q38 197 38 210Q38 224 44.0 233.0Q50 242 64 242H846Z" transform="translate(65.720 131.620) scale(0.014000 -0.014000)"/><path d="M425 715Q464 715 479.0 700.5Q494 686 494 648V354Q494 316 479.0 301.5Q464 287 425 287H159Q120 287 105.0 301.5Q90 316 90 354V648Q90 686 105.0 700.5Q120 715 159 715ZM181 652Q170 652 166.0 648.5Q162 645 162 634V369Q162 350 181 350H404Q423 350 423 369V634Q423 645 418.5 648.5Q414 652 404 652ZM750 774Q764 774 775.0 767.0Q786 760 786 744V134Q786 118 775.0 111.0Q764 104 750 104Q736 104 725.0 111.0Q714 118 714 134V369H571Q558 369 552.0 378.0Q546 387 546 401Q546 414 552.0 423.0Q558 432 571 432H714V566H571Q558 566 552.0 575.5Q546 585 546 598Q546 611 552.0 620.0Q558 629 571 629H714V744Q714 760 725.0 767.0Q736 774 750 774ZM252 182Q266 182 277.5 175.0Q289 168 289 152V-44Q289 -62 308 -62H786Q800 -62 806.0 -71.5Q812 -81 812 -94Q812 -107 806.0 -116.5Q800 -126 786 -126H284Q245 -126 230.0 -111.5Q215 -97 215 -59V152Q215 168 226.5 175.0Q238 182 252 182Z" transform="translate(78.460 131.620) scale(0.014000 -0.014000)"/><path d="M742 747Q754 747 760.0 738.5Q766 730 766 717Q766 704 760.0 695.0Q754 686 742 686H492V664Q492 646 496.5 632.5Q501 619 511.5 607.5Q522 596 540.5 586.0Q559 576 587 565Q690 526 776 496Q790 491 794.0 479.5Q798 468 793 456Q788 444 778.0 438.0Q768 432 753 437Q711 451 666.0 467.5Q621 484 570 504Q540 515 519.5 525.0Q499 535 486.0 544.5Q473 554 466.0 563.5Q459 573 456 582H455Q450 563 426.0 544.0Q402 525 341 503Q290 483 244.5 466.5Q199 450 158 436Q143 431 132.5 437.0Q122 443 117 455Q112 468 116.0 479.5Q120 491 134 496Q219 526 323 565Q351 576 369.5 586.0Q388 596 398.5 607.5Q409 619 413.5 632.5Q418 646 418 664V686H168Q156 686 150.0 695.0Q144 704 144 717Q144 730 150.0 738.5Q156 747 168 747H742ZM455 480Q469 480 480.0 473.0Q491 466 491 450V361H848Q860 361 866.0 352.0Q872 343 872 330Q872 318 866.0 309.0Q860 300 848 300H62Q50 300 44.0 309.0Q38 318 38 330Q38 343 44.0 352.0Q50 361 62 361H419V450Q419 466 430.0 473.0Q441 480 455 480ZM455 60Q569 60 633.5 31.5Q698 3 698 -54Q698 -111 633.5 -139.0Q569 -167 455 -167Q341 -167 276.5 -139.0Q212 -111 212 -54Q212 3 276.5 31.5Q341 60 455 60ZM455 7Q281 7 281 -54Q281 -114 455 -114Q629 -114 629 -54Q629 7 455 7ZM455 255Q470 255 480.5 248.5Q491 242 491 227V169H749Q761 169 766.5 160.0Q772 151 772 140Q772 129 766.5 120.5Q761 112 749 112H156Q145 112 139.0 120.5Q133 129 133 140Q133 151 139.0 160.0Q145 169 156 169H419V227Q419 242 430.0 248.5Q441 255 455 255Z" transform="translate(94.700 131.620) scale(0.014000 -0.014000)"/><path d="M285 720Q397 720 454.0 645.5Q511 571 511 428Q511 285 454.0 210.5Q397 136 285 136Q173 136 115.5 210.5Q58 285 58 428Q58 571 115.5 645.5Q173 720 285 720ZM285 655Q204 655 167.0 596.0Q130 537 130 428Q130 319 167.0 260.0Q204 201 285 201Q366 201 403.0 260.0Q440 319 440 428Q440 537 403.0 596.0Q366 655 285 655ZM700 774Q714 774 725.5 767.0Q737 760 737 744V465H864Q878 465 884.0 455.5Q890 446 890 433Q890 419 884.0 409.5Q878 400 864 400H737V-52Q737 -68 725.5 -75.0Q714 -82 700 -82Q686 -82 675.0 -75.0Q664 -68 664 -52V744Q664 760 675.0 767.0Q686 774 700 774Z" transform="translate(107.440 131.620) scale(0.014000 -0.014000)"/><path d="M455 737Q599 737 676.5 675.5Q754 614 754 505Q754 396 676.5 334.5Q599 273 455 273Q311 273 233.5 334.5Q156 396 156 505Q156 614 233.5 675.5Q311 737 455 737ZM455 675Q398 675 355.5 662.0Q313 649 285.0 626.5Q257 604 243.0 573.0Q229 542 229 505Q229 469 243.0 438.0Q257 407 285.0 384.5Q313 362 355.5 349.0Q398 336 455 336Q512 336 554.5 349.0Q597 362 625.0 384.5Q653 407 667.0 438.0Q681 469 681 505Q681 542 667.0 573.0Q653 604 625.0 626.5Q597 649 554.5 662.0Q512 675 455 675ZM296 250Q311 250 322.0 243.0Q333 236 333 220V73H577V220Q577 236 588.0 243.0Q599 250 613 250Q627 250 638.5 243.0Q650 236 650 220V73H847Q860 73 866.0 64.0Q872 55 872 42Q872 29 866.0 20.0Q860 11 847 11H63Q50 11 44.0 20.0Q38 29 38 42Q38 55 44.0 64.0Q50 73 63 73H260V220Q260 236 271.0 243.0Q282 250 296 250Z" transform="translate(120.180 131.620) scale(0.014000 -0.014000)"/><path d="M115 87Q140 87 156.0 70.5Q172 54 172 30Q172 7 156.0 -9.5Q140 -26 115 -26Q91 -26 74.5 -9.5Q58 7 58 30Q58 54 74.5 70.5Q91 87 115 87Z" transform="translate(132.920 131.620) scale(0.014000 -0.014000)"/></g><rect x="24" y="147" width="118" height="32" rx="16" fill="#fff" stroke="#F1D29A" stroke-width="1" opacity="1"/><g fill="#FF7A45" opacity="1"><path d="M435 661Q435 644 426.5 631.5Q418 619 399 619H183Q162 619 162 598V256Q162 235 183 235Q213 235 246.5 236.0Q280 237 313.0 239.0Q346 241 377.0 244.0Q408 247 434 251Q451 253 461.0 242.5Q471 232 473 214Q475 196 468.5 182.0Q462 168 445 165Q407 159 328.0 154.0Q249 149 139 149Q95 149 78.5 165.0Q62 181 62 224V630Q62 673 78.5 689.0Q95 705 139 705H399Q418 705 426.5 692.0Q435 679 435 661ZM771 778Q789 778 803.5 768.5Q818 759 818 739V-47Q818 -67 803.5 -76.5Q789 -86 771 -86Q754 -86 739.5 -76.5Q725 -67 725 -47V386H618V-5Q618 -25 603.5 -34.5Q589 -44 571 -44Q554 -44 539.5 -34.5Q525 -25 525 -5V729Q525 749 539.5 758.5Q554 768 571 768Q589 768 603.5 758.5Q618 749 618 729V471H725V739Q725 759 739.5 768.5Q754 778 771 778Z" transform="translate(51.800 165.790) scale(0.013000 -0.013000)"/><path d="M455 759Q599 759 679.0 717.0Q759 675 759 587Q759 498 679.0 456.5Q599 415 455 415Q311 415 231.0 456.5Q151 498 151 587Q151 675 231.0 717.0Q311 759 455 759ZM455 678Q347 678 298.5 655.0Q250 632 250 587Q250 542 298.5 519.0Q347 496 455 496Q563 496 611.5 519.0Q660 542 660 587Q660 632 611.5 655.0Q563 678 455 678ZM875 300Q875 283 866.5 270.5Q858 258 840 258H70Q52 258 43.5 270.5Q35 283 35 300Q35 318 43.5 330.0Q52 342 70 342H840Q858 342 866.5 330.0Q875 318 875 300ZM455 183Q600 183 680.5 141.0Q761 99 761 11Q761 -78 680.5 -119.5Q600 -161 455 -161Q310 -161 229.5 -119.5Q149 -78 149 11Q149 99 229.5 141.0Q310 183 455 183ZM455 103Q346 103 297.0 79.5Q248 56 248 11Q248 -34 297.0 -57.5Q346 -81 455 -81Q564 -81 613.0 -57.5Q662 -34 662 11Q662 56 613.0 79.5Q564 103 455 103Z" transform="translate(63.630 165.790) scale(0.013000 -0.013000)"/><path d="M132 739Q151 739 166.5 729.0Q182 719 182 697V591H408V697Q408 719 423.0 729.0Q438 739 457 739Q476 739 491.5 729.0Q507 719 507 697V385Q507 342 490.5 326.0Q474 310 430 310H160Q116 310 99.5 326.0Q83 342 83 385V697Q83 719 98.0 729.0Q113 739 132 739ZM182 413Q182 401 186.5 396.5Q191 392 203 392H387Q398 392 403.0 396.5Q408 401 408 413V509H182ZM746 778Q765 778 780.0 768.0Q795 758 795 736V319Q795 297 780.0 287.0Q765 277 746 277Q726 277 711.0 287.0Q696 297 696 319V481H461V566H696V736Q696 758 711.0 768.0Q726 778 746 778ZM255 234Q274 234 289.5 224.0Q305 214 305 193V113H697V193Q697 214 712.0 224.0Q727 234 745 234Q765 234 780.0 224.0Q795 214 795 193V-64Q795 -107 778.5 -123.0Q762 -139 718 -139H284Q240 -139 223.5 -123.0Q207 -107 207 -64V193Q207 214 222.0 224.0Q237 234 255 234ZM305 -36Q305 -47 309.5 -52.0Q314 -57 326 -57H676Q697 -57 697 -36V33H305Z" transform="translate(75.460 165.790) scale(0.013000 -0.013000)"/><path d="M198 736Q217 736 232.5 725.5Q248 715 248 694V575H662V694Q662 715 677.5 725.5Q693 736 711 736Q731 736 746.5 725.5Q762 715 762 694V341Q762 298 745.5 282.0Q729 266 685 266H225Q181 266 165.0 282.0Q149 298 149 341V694Q149 715 164.0 725.5Q179 736 198 736ZM248 371Q248 351 269 351H641Q662 351 662 371V490H248ZM505 86H840Q858 86 866.5 73.5Q875 61 875 44Q875 27 866.5 14.0Q858 1 840 1H70Q52 1 43.5 14.0Q35 27 35 44Q35 61 43.5 73.5Q52 86 70 86H405V319H505Z" transform="translate(90.540 165.790) scale(0.013000 -0.013000)"/><path d="M505 635V522Q505 480 500.0 446.5Q495 413 481.0 383.0Q467 353 442.0 324.5Q417 296 377.5 264.5Q338 233 282.0 196.0Q226 159 149 112Q132 102 115.0 108.5Q98 115 88 129Q78 143 78.5 162.0Q79 181 96 192Q167 235 217.5 267.5Q268 300 302.0 326.5Q336 353 356.5 375.5Q377 398 388.0 420.5Q399 443 402.0 468.5Q405 494 405 526V603Q405 614 400.5 618.5Q396 623 384 623H124Q105 623 96.5 636.0Q88 649 88 666Q88 684 96.5 697.0Q105 710 124 710H428Q472 710 488.5 694.0Q505 678 505 635ZM738 778Q758 778 773.5 768.0Q789 758 789 736V-44Q789 -66 773.5 -76.0Q758 -86 738 -86Q719 -86 703.5 -76.0Q688 -66 688 -44V736Q688 758 703.5 768.0Q719 778 738 778Z" transform="translate(102.370 165.790) scale(0.013000 -0.013000)"/></g><path d="M340 55 C319 84 298 105 298 133 C298 158 317 176 340 176 C363 176 382 158 382 133 C382 105 361 84 340 55Z" fill="#7ED7F2" stroke-width="1" stroke-linecap="round" stroke-linejoin="round" opacity="1"/><circle cx="329" cy="126" r="3.5" fill="#1F2937" stroke-width="1" opacity="1"/><circle cx="351" cy="126" r="3.5" fill="#1F2937" stroke-width="1" opacity="1"/><path d="M331 141 Q340 149 349 141" fill="none" stroke="#1F2937" stroke-width="3" stroke-linecap="round" stroke-linejoin="round" opacity="1"/><path d="M300 139 Q286 140 281 129 M380 139 Q394 140 399 129" fill="none" stroke="#55C2E1" stroke-width="8" stroke-linecap="round" stroke-linejoin="round" opacity="1"/></svg>