<svg xmlns="http://www.w3.org/2000/svg" width="430" height="170" viewBox="0 0 430 170" role="img" aria-label="Weather summary card"><title>Weather summary card</title><defs><linearGradient id="card-weather-bg" x1="0%" y1="0%" x2="100%" y2="0%"><stop offset="0%" stop-color="#DDF6FF" stop-opacity="1"/><stop offset="100%" stop-color="#A9E3FA" stop-opacity="1"/></linearGradient></defs><rect x="2" y="2" width="426" height="166" rx="22" fill="url(#card-weather-bg)" stroke-width="1" opacity="1"/><g fill="#557488" opacity="1"><path d="M567 675Q567 658 558.5 645.0Q550 632 532 632H372V569Q372 519 388.5 483.5Q405 448 441 417Q474 389 504.5 365.0Q535 341 558 324Q575 312 575.5 295.0Q576 278 565 263Q555 250 537.5 244.5Q520 239 503 252Q483 267 456.0 288.5Q429 310 397 336Q359 367 343.5 386.5Q328 406 324 423H323Q319 405 302.5 383.5Q286 362 248 331Q216 305 185.0 281.0Q154 257 125 236Q108 223 90.5 228.5Q73 234 64 247Q53 262 53.0 280.0Q53 298 71 311Q103 335 136.5 360.5Q170 386 203 415Q239 446 255.5 481.0Q272 516 272 566V632H105Q86 632 77.5 645.0Q69 658 69 675Q69 692 77.5 705.0Q86 718 105 718H532Q550 718 558.5 705.0Q567 692 567 675ZM746 778Q765 778 780.0 768.0Q795 758 795 736V144Q795 122 780.0 112.0Q765 102 746 102Q726 102 711.0 112.0Q696 122 696 144V447H552Q533 447 524.5 460.0Q516 473 516 490Q516 508 524.5 520.5Q533 533 552 533H696V736Q696 758 711.0 768.0Q726 778 746 778ZM258 186Q277 186 292.5 176.0Q308 166 308 144V-25Q308 -36 312.5 -40.5Q317 -45 329 -45H783Q802 -45 810.5 -58.0Q819 -71 819 -89Q819 -106 810.5 -119.0Q802 -132 783 -132H284Q240 -132 223.5 -116.0Q207 -100 207 -57V144Q207 166 222.5 176.0Q238 186 258 186Z" transform="translate(24.000 33.620) scale(0.014000 -0.014000)"/><path d="M199 761Q218 761 233.0 751.0Q248 741 248 720V651H662V720Q662 741 677.0 751.0Q692 761 710 761Q729 761 744.5 751.0Q760 741 760 720V479Q760 436 743.5 420.0Q727 404 683 404H227Q183 404 167.0 420.0Q151 436 151 479V720Q151 741 166.0 751.0Q181 761 199 761ZM248 501Q248 485 264 485H646Q662 485 662 501V570H248ZM875 285Q875 268 866.5 256.0Q858 244 841 244H504V101H406V244H69Q52 244 43.5 256.0Q35 268 35 285Q35 302 43.5 314.5Q52 327 69 327H841Q858 327 866.5 314.5Q875 302 875 285ZM762 73V-114Q762 -136 746.5 -146.0Q731 -156 711 -156Q692 -156 677.0 -146.0Q662 -136 662 -114V44Q662 65 641 65H171Q153 65 145.0 77.0Q137 89 137 106Q137 123 145.0 135.5Q153 148 171 148H685Q729 148 745.5 132.0Q762 116 762 73Z" transform="translate(36.740 33.620) scale(0.014000 -0.014000)"/><path d="M685 714Q729 714 745.5 698.0Q762 682 762 639V547Q762 455 753.5 382.5Q745 310 730 241Q725 221 708.0 212.5Q691 204 669 209Q651 212 639.5 224.0Q628 236 632 256Q646 327 654.0 397.0Q662 467 662 550V606Q662 627 641 627H172Q153 627 145.0 639.5Q137 652 137 670Q137 688 145.0 701.0Q153 714 172 714ZM392 421Q412 421 427.0 411.0Q442 401 442 379V86H840Q858 86 866.5 73.5Q875 61 875 44Q875 27 866.5 14.0Q858 1 840 1H70Q52 1 43.5 14.0Q35 27 35 44Q35 61 43.5 73.5Q52 86 70 86H343V379Q343 401 358.0 411.0Q373 421 392 421Z" transform="translate(52.980 33.620) scale(0.014000 -0.014000)"/><path d="M312 788Q332 788 347.0 778.0Q362 768 362 746V672H530Q548 672 556.5 659.0Q565 646 565 629Q565 612 556.5 599.5Q548 587 530 587H362V547Q362 502 376.5 473.5Q391 445 425 419Q496 368 545 337Q562 326 564.5 308.0Q567 290 556 275Q548 262 531.0 256.5Q514 251 495 262Q476 274 448.5 292.5Q421 311 390 334Q351 363 334.0 381.5Q317 400 314 415H313Q309 398 291.5 378.0Q274 358 234 329Q202 306 172.0 285.5Q142 265 111 245Q94 234 77.0 240.5Q60 247 52 261Q42 275 43.0 293.0Q44 311 62 322Q97 345 130.0 367.5Q163 390 199 417Q233 442 247.5 470.5Q262 499 262 545V587H87Q68 587 59.5 599.5Q51 612 51 629Q51 646 59.5 659.0Q68 672 87 672H262V746Q262 768 277.5 778.0Q293 788 312 788ZM696 778Q716 778 731.0 768.0Q746 758 746 736V547H856Q876 547 884.5 534.0Q893 521 893 504Q893 485 884.5 472.5Q876 460 856 460H746V251Q746 230 731.0 220.0Q716 210 696 210Q676 210 661.0 220.0Q646 230 646 251V736Q646 758 661.0 768.0Q676 778 696 778ZM465 201Q602 201 676.5 155.5Q751 110 751 22Q751 -66 676.5 -111.5Q602 -157 465 -157Q328 -157 253.5 -111.5Q179 -66 179 22Q179 110 253.5 155.5Q328 201 465 201ZM465 120Q366 120 322.0 93.0Q278 66 278 22Q278 -22 322.0 -49.0Q366 -76 465 -76Q564 -76 608.0 -49.5Q652 -23 652 22Q652 67 608.0 93.5Q564 120 465 120Z" transform="translate(65.720 33.620) scale(0.014000 -0.014000)"/><path d="M675 737Q719 737 735.5 721.0Q752 705 752 662V590Q752 555 749.0 518.5Q746 482 740.5 448.0Q735 414 727.5 383.5Q720 353 711 330L621 350Q637 405 644.5 465.0Q652 525 652 584V629Q652 641 647.5 645.5Q643 650 631 650H176Q157 650 149.0 663.0Q141 676 141 693Q141 711 149.0 724.0Q157 737 176 737ZM840 383Q858 383 866.5 370.5Q875 358 875 341Q875 324 866.5 311.5Q858 299 840 299H516V109Q516 89 501.5 80.0Q487 71 466 71Q446 71 431.5 80.0Q417 89 417 109V299H70Q52 299 43.5 311.5Q35 324 35 341Q35 358 43.5 370.5Q52 383 70 383ZM199 170Q219 170 234.0 160.0Q249 150 249 128V-27Q249 -39 254.0 -43.5Q259 -48 270 -48H743Q761 -48 769.5 -61.0Q778 -74 778 -91Q778 -108 769.5 -121.0Q761 -134 743 -134H225Q181 -134 165.0 -118.0Q149 -102 149 -59V128Q149 150 164.0 160.0Q179 170 199 170Z" transform="translate(78.460 33.620) scale(0.014000 -0.014000)"/></g><g fill="#1F2937" opacity="1"><path d="M371 720Q394 720 408.5 710.0Q423 700 423 677V41Q423 19 408.0 9.0Q393 -1 373 -1Q353 -1 338.0 9.0Q323 19 323 41V602L173 510Q154 499 137.0 506.0Q120 513 110 530Q102 546 104.5 563.5Q107 581 125 591L304 698Q324 709 340.0 714.5Q356 720 371 720Z" transform="translate(24.000 101.160) scale(0.052000 -0.052000)"/><path d="M421 712Q437 701 442.0 684.5Q447 668 433 648L150 239H392V422Q392 444 407.0 454.0Q422 464 441 464Q461 464 476.0 454.0Q491 444 491 422V239H564Q583 239 590.5 227.0Q598 215 598 198Q598 181 590.5 169.0Q583 157 564 157H491V41Q491 19 476.0 9.0Q461 -1 441 -1Q422 -1 407.0 9.0Q392 19 392 41V157H95Q60 157 45.0 169.0Q30 181 30 206Q30 216 34.0 226.5Q38 237 57 265L359 700Q371 717 388.0 719.5Q405 722 421 712Z" transform="translate(55.720 101.160) scale(0.052000 -0.052000)"/></g><g fill="#1F2937" opacity="1"><path d="M156 746Q184 746 207.0 736.0Q230 726 246.0 709.5Q262 693 271.0 670.0Q280 647 280 622Q280 596 271.0 573.5Q262 551 246.0 534.5Q230 518 207.0 508.0Q184 498 156 498Q128 498 105.0 508.0Q82 518 66.0 534.5Q50 551 41.0 573.5Q32 596 32 622Q32 647 41.0 670.0Q50 693 66.0 709.5Q82 726 105.0 736.0Q128 746 156 746ZM156 688Q127 688 110.0 668.5Q93 649 93 622Q93 595 110.0 576.0Q127 557 156 557Q185 557 202.0 576.0Q219 595 219 622Q219 649 202.0 668.5Q185 688 156 688Z" transform="translate(91.000 94.260) scale(0.022000 -0.022000)"/><path d="M355 726Q424 726 474.5 711.0Q525 696 560 672Q578 660 580.0 642.5Q582 625 571 608Q560 593 544.0 588.0Q528 583 511 594Q477 614 441.0 624.0Q405 634 353 634Q257 634 208.5 571.5Q160 509 160 375V344Q160 212 207.0 149.0Q254 86 354 86Q409 86 451.0 99.5Q493 113 528 139Q544 150 561.5 147.5Q579 145 591 128Q603 111 601.0 91.5Q599 72 580 58Q538 27 481.0 10.0Q424 -7 352 -7Q210 -7 134.5 77.0Q59 161 59 336V383Q59 558 135.5 642.0Q212 726 355 726Z" transform="translate(97.864 94.260) scale(0.022000 -0.022000)"/></g><g fill="#1F2937" opacity="1"><path d="M676 731Q720 731 736.5 715.0Q753 699 753 656V593Q753 505 742.0 424.0Q731 343 709 279L617 295Q637 367 645.0 439.0Q653 511 653 588V623Q653 635 648.5 639.5Q644 644 632 644H175Q156 644 148.0 657.0Q140 670 140 687Q140 705 148.0 718.0Q156 731 175 731ZM840 322Q858 322 866.5 309.0Q875 296 875 279Q875 262 866.5 249.5Q858 237 840 237H505V-114Q505 -136 490.0 -146.0Q475 -156 455 -156Q435 -156 420.0 -146.0Q405 -136 405 -114V237H70Q52 237 43.5 249.5Q35 262 35 279Q35 296 43.5 309.0Q52 322 70 322Z" transform="translate(138.000 91.280) scale(0.016000 -0.016000)"/><path d="M755 676V600Q755 557 738.5 541.0Q722 525 678 525H266Q251 525 251 510V468Q251 453 266 453H745Q762 453 769.5 441.5Q777 430 777 414Q777 398 769.5 386.0Q762 374 745 374H231Q187 374 170.5 390.0Q154 406 154 449V526Q154 569 170.5 585.0Q187 601 231 601H642Q658 601 658 616V657Q658 672 642 672H184Q167 672 159.5 683.5Q152 695 152 712Q152 727 159.5 739.0Q167 751 184 751H678Q722 751 738.5 735.0Q755 719 755 676ZM875 266Q875 248 866.5 236.0Q858 224 840 224H70Q52 224 43.5 236.0Q35 248 35 266Q35 283 43.5 295.0Q52 307 70 307H840Q858 307 866.5 295.0Q875 283 875 266ZM685 155Q729 155 745.5 139.0Q762 123 762 80V-68Q762 -111 745.5 -127.0Q729 -143 685 -143H225Q181 -143 165.0 -127.0Q149 -111 149 -68V80Q149 123 165.0 139.0Q181 155 225 155ZM268 74Q247 74 247 54V-41Q247 -53 252.0 -57.5Q257 -62 268 -62H642Q653 -62 658.0 -57.5Q663 -53 663 -41V54Q663 74 642 74Z" transform="translate(152.560 91.280) scale(0.016000 -0.016000)"/><path d="M420 731Q464 731 480.5 715.0Q497 699 497 656V398Q497 355 480.5 339.0Q464 323 420 323H145Q101 323 84.5 339.0Q68 355 68 398V656Q68 699 84.5 715.0Q101 731 145 731ZM188 647Q176 647 171.5 642.0Q167 637 167 626V427Q167 416 171.5 411.5Q176 407 188 407H377Q398 407 398 427V626Q398 647 377 647ZM696 778Q716 778 731.0 768.0Q746 758 746 736V589H856Q876 589 884.5 576.0Q893 563 893 546Q893 527 884.5 514.5Q876 502 856 502H746V348Q746 326 731.0 316.0Q716 306 696 306Q676 306 661.0 316.0Q646 326 646 348V736Q646 758 661.0 768.0Q676 778 696 778ZM165 219Q184 219 199.0 209.0Q214 199 214 177V-26Q214 -46 235 -46Q271 -46 302.0 -45.0Q333 -44 358 -41Q375 -40 385.0 -50.5Q395 -61 397 -78Q399 -95 391.5 -108.5Q384 -122 367 -124Q337 -129 292.0 -130.0Q247 -131 193 -131Q149 -131 132.5 -115.0Q116 -99 116 -56V177Q116 199 131.0 209.0Q146 219 165 219ZM595 91Q676 91 720.5 57.0Q765 23 765 -37Q765 -97 720.5 -131.0Q676 -165 595 -165Q514 -165 469.0 -131.0Q424 -97 424 -37Q424 23 469.0 57.0Q514 91 595 91ZM595 21Q550 21 531.0 4.5Q512 -12 512 -37Q512 -62 531.0 -78.5Q550 -95 595 -95Q640 -95 659.0 -78.5Q678 -62 678 -37Q678 -12 659.0 4.5Q640 21 595 21ZM594 296Q614 296 629.0 286.0Q644 276 644 254V206H784Q800 206 807.5 194.5Q815 183 815 169Q815 154 807.5 142.5Q800 131 784 131H404Q388 131 380.5 142.5Q373 154 373 169Q373 183 380.5 194.5Q388 206 404 206H544V254Q544 276 559.0 286.0Q574 296 594 296Z" transform="translate(171.120 91.280) scale(0.016000 -0.016000)"/><path d="M455 759Q599 759 679.0 717.0Q759 675 759 587Q759 498 679.0 456.5Q599 415 455 415Q311 415 231.0 456.5Q151 498 151 587Q151 675 231.0 717.0Q311 759 455 759ZM455 678Q347 678 298.5 655.0Q250 632 250 587Q250 542 298.5 519.0Q347 496 455 496Q563 496 611.5 519.0Q660 542 660 587Q660 632 611.5 655.0Q563 678 455 678ZM875 303Q875 286 866.5 273.5Q858 261 840 261H70Q52 261 43.5 273.5Q35 286 35 303Q35 321 43.5 333.0Q52 345 70 345H840Q858 345 866.5 333.0Q875 321 875 303ZM685 176Q729 176 745.5 160.0Q762 144 762 101V-68Q762 -111 745.5 -127.0Q729 -143 685 -143H225Q181 -143 165.0 -127.0Q149 -111 149 -68V101Q149 144 165.0 160.0Q181 176 225 176ZM269 93Q257 93 252.5 88.5Q248 84 248 73V-40Q248 -51 252.5 -55.5Q257 -60 269 -60H641Q653 -60 657.5 -55.5Q662 -51 662 -40V73Q662 84 657.5 88.5Q653 93 641 93Z" transform="translate(185.680 91.280) scale(0.016000 -0.016000)"/></g><g fill="#557488" opacity="1"><path d="M270 768Q284 768 295.0 761.0Q306 754 306 739V642H454Q468 642 474.0 633.0Q480 624 480 611Q480 597 474.0 588.0Q468 579 454 579H306V485Q306 454 309.5 430.0Q313 406 321.0 385.0Q329 364 342.0 345.0Q355 326 374 305Q403 273 429.0 246.0Q455 219 474 201Q483 193 482.0 179.5Q481 166 471 157Q462 147 450.0 146.5Q438 146 428 155Q407 175 384.5 198.0Q362 221 341 244Q307 280 291.0 305.5Q275 331 272 351H271Q267 330 250.5 304.0Q234 278 200 242Q179 219 152.5 192.0Q126 165 96 136Q87 128 74.0 128.5Q61 129 52 138Q42 149 41.0 161.5Q40 174 48 183Q80 213 109.0 243.0Q138 273 166 305Q185 326 198.0 345.0Q211 364 219.0 385.0Q227 406 230.5 430.0Q234 454 234 485V579H73Q59 579 53.0 588.0Q47 597 47 611Q47 624 53.0 633.0Q59 642 73 642H234V739Q234 754 245.0 761.0Q256 768 270 768ZM598 764Q611 764 621.5 757.0Q632 750 632 735V-11Q632 -26 621.5 -33.0Q611 -40 598 -40Q584 -40 573.5 -33.0Q563 -26 563 -11V388H443Q429 388 423.0 397.0Q417 406 417 420Q417 433 423.0 442.0Q429 451 443 451H563V735Q563 750 573.5 757.0Q584 764 598 764ZM774 774Q788 774 798.5 767.0Q809 760 809 745V-53Q809 -68 798.5 -75.0Q788 -82 774 -82Q761 -82 750.5 -75.0Q740 -68 740 -53V745Q740 760 750.5 767.0Q761 774 774 774Z" transform="translate(24.000 142.790) scale(0.013000 -0.013000)"/><path d="M407 721Q446 721 461.0 706.5Q476 692 476 654V583Q476 531 463.0 495.0Q450 459 411.0 426.0Q372 393 300.5 356.0Q229 319 113 266Q102 261 90.0 265.5Q78 270 71 283Q65 294 66.5 307.5Q68 321 82 327Q154 359 206.0 384.0Q258 409 294.0 429.5Q330 450 351.5 467.5Q373 485 384.5 503.0Q396 521 400.0 541.0Q404 561 404 586V639Q404 658 385 658H102Q88 658 82.0 667.0Q76 676 76 689Q76 703 82.0 712.0Q88 721 102 721H407ZM700 774Q714 774 725.5 767.0Q737 760 737 744V557H864Q878 557 884.0 547.5Q890 538 890 524Q890 511 884.0 501.5Q878 492 864 492H737V289Q737 273 725.5 266.0Q714 259 700 259Q686 259 675.0 266.0Q664 273 664 289V744Q664 760 675.0 767.0Q686 774 700 774ZM668 208Q707 208 722.0 193.5Q737 179 737 141V-66Q737 -104 722.0 -118.5Q707 -133 668 -133H249Q210 -133 195.0 -118.5Q180 -104 180 -66V141Q180 179 195.0 193.5Q210 208 249 208ZM272 146Q253 146 253 127V-52Q253 -71 272 -71H646Q665 -71 665 -52V127Q665 146 646 146Z" transform="translate(35.830 142.790) scale(0.013000 -0.013000)"/><path d="M363 719Q380 719 391.0 711.5Q402 704 402 687V30Q402 14 391.0 7.0Q380 0 365 0Q351 0 340.0 7.0Q329 14 329 30V631L159 523Q145 515 133.5 520.0Q122 525 114 537Q107 548 108.5 561.0Q110 574 123 582L312 700Q344 719 363 719Z" transform="translate(50.910 142.790) scale(0.013000 -0.013000)"/><path d="M289 726Q341 726 381.5 712.5Q422 699 450.0 674.5Q478 650 492.5 617.0Q507 584 507 545V540Q507 517 500.5 492.5Q494 468 479.0 446.0Q464 424 439.5 405.5Q415 387 380 375Q450 364 493.0 321.5Q536 279 536 210V200Q536 160 521.5 122.5Q507 85 477.5 56.5Q448 28 402.5 10.5Q357 -7 295 -7Q235 -7 180.5 10.5Q126 28 84 57Q71 66 69.0 79.0Q67 92 75 106Q93 135 121 116Q159 89 201.5 74.0Q244 59 292 59Q337 59 369.5 71.0Q402 83 422.5 103.5Q443 124 453.0 149.5Q463 175 463 202V210Q463 250 447.0 275.5Q431 301 406.5 315.5Q382 330 351.5 335.5Q321 341 292 341H230Q216 341 210.0 350.0Q204 359 204 373Q204 387 210.0 396.5Q216 406 230 406H287Q314 406 340.5 413.5Q367 421 388.5 437.0Q410 453 423.0 478.0Q436 503 436 539V542Q436 595 398.5 628.0Q361 661 289 661Q241 661 206.5 642.5Q172 624 145 590Q135 579 122.5 579.0Q110 579 100 590Q89 600 88.5 612.0Q88 624 96 635Q125 673 173.5 699.5Q222 726 289 726Z" transform="translate(58.710 142.790) scale(0.013000 -0.013000)"/><path d="M151 732Q177 732 198.5 723.0Q220 714 235.0 698.0Q250 682 258.5 661.0Q267 640 267 616Q267 592 258.5 571.0Q250 550 235.0 534.0Q220 518 198.5 509.0Q177 500 151 500Q125 500 103.5 509.0Q82 518 67.0 534.0Q52 550 43.5 571.0Q35 592 35 616Q35 640 43.5 661.0Q52 682 67.0 698.0Q82 714 103.5 723.0Q125 732 151 732ZM151 684Q120 684 102.5 664.5Q85 645 85 616Q85 587 102.5 567.0Q120 547 151 547Q182 547 199.5 567.0Q217 587 217 616Q217 645 199.5 664.5Q182 684 151 684Z" transform="translate(66.510 142.790) scale(0.013000 -0.013000)"/><path d="M351 726Q418 726 468.0 711.5Q518 697 556 673Q569 664 570.5 651.0Q572 638 564 625Q556 614 544.5 610.5Q533 607 520 615Q485 637 446.0 647.5Q407 658 349 658Q138 658 138 379V340Q138 202 189.5 132.0Q241 62 351 62Q411 62 456.5 76.5Q502 91 539 120Q550 128 563.0 126.0Q576 124 585 112Q595 99 593.5 85.0Q592 71 578 61Q537 29 481.0 11.0Q425 -7 350 -7Q207 -7 135.5 78.5Q64 164 64 332V387Q64 555 136.0 640.5Q208 726 351 726Z" transform="translate(70.436 142.790) scale(0.013000 -0.013000)"/><path d="M143 800Q157 800 167.5 793.0Q178 786 178 770V-97Q178 -113 167.5 -120.0Q157 -127 143 -127Q129 -127 118.5 -120.0Q108 -113 108 -97V770Q108 786 118.5 793.0Q129 800 143 800Z" transform="translate(85.321 142.790) scale(0.013000 -0.013000)"/><path d="M455 761Q469 761 480.5 753.5Q492 746 492 730V685Q492 642 514.5 613.0Q537 584 594 558Q648 535 693.0 515.5Q738 496 784 478Q798 473 801.0 460.5Q804 448 799 436Q794 424 783.5 418.0Q773 412 759 417Q713 435 667.0 454.5Q621 474 574 494Q512 522 486.5 545.0Q461 568 456 587H455Q450 567 424.0 544.0Q398 521 336 493Q290 473 245.0 454.0Q200 435 153 417Q138 411 127.0 417.5Q116 424 111 436Q106 447 109.0 460.0Q112 473 126 478Q172 496 217.0 515.5Q262 535 316 558Q373 584 395.5 613.0Q418 642 418 685V730Q418 746 429.5 753.5Q441 761 455 761ZM847 336Q860 336 866.0 327.0Q872 318 872 305Q872 291 866.0 282.0Q860 273 847 273H63Q50 273 44.0 282.0Q38 291 38 305Q38 318 44.0 327.0Q50 336 63 336H847ZM192 196Q206 196 217.0 189.0Q228 182 228 167V85H682V167Q682 182 692.5 189.0Q703 196 717 196Q731 196 742.0 189.0Q753 182 753 167V-70Q753 -108 738.0 -122.5Q723 -137 684 -137H226Q187 -137 172.0 -122.5Q157 -108 157 -70V167Q157 182 167.5 189.0Q178 196 192 196ZM228 -61Q228 -77 245 -77H665Q682 -77 682 -61V25H228Z" transform="translate(95.539 142.790) scale(0.013000 -0.013000)"/><path d="M725 716Q739 716 745.0 707.0Q751 698 751 685Q751 671 745.0 662.0Q739 653 725 653H249Q230 653 230 635V372Q230 354 249 354H735Q749 354 755.0 345.0Q761 336 761 323Q761 309 755.0 300.0Q749 291 735 291H226Q187 291 172.0 305.5Q157 320 157 358V649Q157 687 172.0 701.5Q187 716 226 716H725ZM492 74H846Q860 74 866.0 65.0Q872 56 872 42Q872 29 866.0 20.0Q860 11 846 11H64Q50 11 44.0 20.0Q38 29 38 42Q38 56 44.0 65.0Q50 74 64 74H419V319H492Z" transform="translate(107.369 142.790) scale(0.013000 -0.013000)"/><path d="M337 726Q386 726 428.0 715.0Q470 704 498 688Q511 680 514.0 668.5Q517 657 511 643Q505 630 493.5 626.0Q482 622 468 629Q439 643 407.5 651.0Q376 659 336 659Q286 659 251.0 638.5Q216 618 192.0 580.0Q168 542 155.0 486.5Q142 431 138 362Q150 386 169.5 404.0Q189 422 214.0 435.0Q239 448 267.0 454.5Q295 461 325 461Q376 461 417.0 445.5Q458 430 487.5 401.0Q517 372 532.5 330.5Q548 289 548 238V222Q548 169 530.0 126.5Q512 84 480.5 54.5Q449 25 405.5 9.0Q362 -7 311 -7Q257 -7 212.5 11.5Q168 30 135.5 67.0Q103 104 85.0 160.5Q67 217 67 293V314Q67 428 86.5 507.0Q106 586 141.0 634.5Q176 683 226.0 704.5Q276 726 337 726ZM313 397Q274 397 242.5 384.5Q211 372 189.5 351.0Q168 330 156.5 301.5Q145 273 145 241V236Q145 196 157.0 163.5Q169 131 191.0 108.0Q213 85 243.5 72.5Q274 60 310 60Q383 60 429.5 101.5Q476 143 476 224V231Q476 312 435.0 354.5Q394 397 313 397Z" transform="translate(122.449 142.790) scale(0.013000 -0.013000)"/><path d="M300 726Q432 726 489.0 639.5Q546 553 546 387V332Q546 165 489.0 79.0Q432 -7 300 -7Q168 -7 111.0 79.0Q54 165 54 332V387Q54 553 111.0 639.5Q168 726 300 726ZM300 658Q251 658 218.0 641.5Q185 625 164.5 590.5Q144 556 135.5 503.5Q127 451 127 380V339Q127 268 135.5 215.5Q144 163 164.5 128.5Q185 94 218.0 77.5Q251 61 300 61Q349 61 382.0 77.5Q415 94 435.5 128.5Q456 163 464.5 215.5Q473 268 473 339V380Q473 451 464.5 503.5Q456 556 435.5 590.5Q415 625 382.0 641.5Q349 658 300 658Z" transform="translate(130.249 142.790) scale(0.013000 -0.013000)"/><path d="M226 726Q305 726 344.0 679.5Q383 633 383 552V529Q383 448 344.0 401.5Q305 355 226 355Q147 355 108.0 401.5Q69 448 69 529V552Q69 633 108.0 679.5Q147 726 226 726ZM660 715Q671 709 674.5 699.0Q678 689 671 677L264 14Q257 3 246.5 1.5Q236 0 225 5Q214 10 210.0 20.5Q206 31 214 43L620 706Q627 717 638.0 718.5Q649 720 660 715ZM226 672Q176 672 152.5 642.5Q129 613 129 548V532Q129 468 152.5 438.5Q176 409 226 409Q275 409 299.0 438.5Q323 468 323 532V548Q323 613 299.0 642.5Q275 672 226 672ZM657 365Q736 365 775.0 318.5Q814 272 814 190V168Q814 87 775.0 40.5Q736 -6 657 -6Q578 -6 539.0 40.5Q500 87 500 168V190Q500 272 539.0 318.5Q578 365 657 365ZM657 311Q608 311 584.0 281.5Q560 252 560 187V171Q560 106 584.0 77.0Q608 48 657 48Q707 48 730.5 77.0Q754 106 754 171V187Q754 252 730.5 281.5Q707 311 657 311Z" transform="translate(138.049 142.790) scale(0.013000 -0.013000)"/><path d="M143 800Q157 800 167.5 793.0Q178 786 178 770V-97Q178 -113 167.5 -120.0Q157 -127 143 -127Q129 -127 118.5 -120.0Q108 -113 108 -97V770Q108 786 118.5 793.0Q129 800 143 800Z" transform="translate(156.028 142.790) scale(0.013000 -0.013000)"/><path d="M113 713Q127 713 138.0 706.0Q149 699 149 684V494H422V684Q422 699 432.5 706.0Q443 713 457 713Q471 713 482.5 706.0Q494 699 494 684V216Q494 178 479.0 163.5Q464 149 425 149H146Q107 149 92.0 163.5Q77 178 77 216V684Q77 699 88.0 706.0Q99 713 113 713ZM149 230Q149 219 153.0 215.5Q157 212 168 212H403Q413 212 417.5 215.5Q422 219 422 230V431H149ZM700 774Q714 774 725.5 767.0Q737 760 737 744V465H864Q878 465 884.0 455.5Q890 446 890 433Q890 419 884.0 409.5Q878 400 864 400H737V-52Q737 -68 725.5 -75.0Q714 -82 700 -82Q686 -82 675.0 -75.0Q664 -68 664 -52V744Q664 760 675.0 767.0Q686 774 700 774Z" transform="translate(166.246 142.790) scale(0.013000 -0.013000)"/><path d="M405 727Q444 727 459.0 712.5Q474 698 474 660V542Q474 504 459.0 489.5Q444 475 405 475H171Q160 475 156.0 471.5Q152 468 152 457V361Q152 343 171 343Q282 343 375.0 348.5Q468 354 557 367Q569 369 577.0 361.0Q585 353 587 340Q589 327 583.5 316.5Q578 306 566 304Q527 299 483.5 294.5Q440 290 389.5 287.0Q339 284 279.5 282.5Q220 281 149 281Q110 281 95.0 295.5Q80 310 80 348V468Q80 506 95.0 520.5Q110 535 149 535H384Q394 535 398.5 538.5Q403 542 403 553V647Q403 658 398.5 661.5Q394 665 384 665H104Q91 665 85.5 674.5Q80 684 80 696Q80 709 85.5 718.0Q91 727 104 727H405ZM700 774Q714 774 725.5 767.0Q737 760 737 744V542H864Q878 542 884.0 532.5Q890 523 890 509Q890 496 884.0 486.5Q878 477 864 477H737V259Q737 243 725.5 236.0Q714 229 700 229Q686 229 675.0 236.0Q664 243 664 259V744Q664 760 675.0 767.0Q686 774 700 774ZM668 178Q707 178 722.0 163.5Q737 149 737 111V-66Q737 -104 722.0 -118.5Q707 -133 668 -133H249Q210 -133 195.0 -118.5Q180 -104 180 -66V111Q180 149 195.0 163.5Q210 178 249 178ZM272 117Q253 117 253 99V-54Q253 -72 272 -72H646Q665 -72 665 -54V99Q665 117 646 117Z" transform="translate(178.076 142.790) scale(0.013000 -0.013000)"/><path d="M300 726Q352 726 392.0 712.5Q432 699 459.0 675.0Q486 651 499.5 619.0Q513 587 513 550V541Q513 513 507.5 488.5Q502 464 490.5 440.0Q479 416 461.0 392.0Q443 368 418 341L169 67H517Q531 67 537.5 58.0Q544 49 544 36Q544 22 537.5 13.0Q531 4 517 4H128Q98 4 85.5 13.5Q73 23 73 43Q73 53 78.5 63.0Q84 73 100 91L355 371Q380 399 396.5 421.0Q413 443 423.0 462.5Q433 482 436.5 500.0Q440 518 440 539V545Q440 598 405.0 629.0Q370 660 302 660Q246 660 209.0 636.0Q172 612 143 568Q135 557 122.5 554.5Q110 552 98 560Q86 568 82.5 580.5Q79 593 87 606Q119 657 171.0 691.5Q223 726 300 726Z" transform="translate(193.156 142.790) scale(0.013000 -0.013000)"/><path d="M314 534Q378 534 416.5 507.0Q455 480 469 438Q492 480 534.0 507.0Q576 534 642 534Q687 534 720.5 520.0Q754 506 776.0 481.0Q798 456 809.0 421.5Q820 387 820 347V30Q820 14 808.5 7.0Q797 0 783 0Q769 0 758.5 7.0Q748 14 748 30V330Q748 401 719.0 435.5Q690 470 626 470Q592 470 566.5 458.0Q541 446 523.5 427.0Q506 408 497.5 384.5Q489 361 489 337V30Q489 14 478.0 7.0Q467 0 453 0Q439 0 428.0 7.0Q417 14 417 30V330Q417 400 388.5 435.0Q360 470 294 470Q259 470 234.0 457.5Q209 445 192.0 426.0Q175 407 167.0 383.5Q159 360 159 338V30Q159 14 148.0 7.0Q137 0 123 0Q109 0 98.0 7.0Q87 14 87 30V498Q87 513 97.5 520.0Q108 527 121 527Q135 527 145.5 520.0Q156 513 156 498V444Q165 461 179.0 477.5Q193 494 212.5 506.5Q232 519 257.0 526.5Q282 534 314 534Z" transform="translate(200.956 142.790) scale(0.013000 -0.013000)"/><path d="M356 798Q369 794 376.0 784.0Q383 774 378 760L90 -107Q85 -122 72.5 -126.0Q60 -130 47 -125Q34 -121 27.5 -111.5Q21 -102 26 -88L313 780Q318 795 330.5 799.0Q343 803 356 798Z" transform="translate(212.669 142.790) scale(0.013000 -0.013000)"/><path d="M260 534Q311 534 351.5 523.5Q392 513 421 496Q434 488 437.0 476.5Q440 465 433 452Q427 441 417.0 437.0Q407 433 394 440Q367 455 334.0 464.0Q301 473 262 473Q196 473 166.0 450.5Q136 428 136 395V392Q136 375 142.0 362.0Q148 349 163.0 339.0Q178 329 203.5 320.5Q229 312 269 305Q324 294 361.0 281.5Q398 269 420.0 251.0Q442 233 451.0 208.0Q460 183 460 148V142Q460 111 446.0 84.0Q432 57 406.0 37.5Q380 18 342.5 7.0Q305 -4 258 -4Q200 -4 151.0 11.0Q102 26 70 46Q57 54 55.0 66.5Q53 79 59 90Q67 103 78.0 106.5Q89 110 103 102Q132 84 172.5 71.0Q213 58 258 58Q324 58 356.5 82.0Q389 106 389 143V146Q389 166 384.0 180.5Q379 195 363.5 205.5Q348 216 319.0 224.5Q290 233 242 242Q150 259 107.5 292.5Q65 326 65 389V396Q65 424 77.0 449.0Q89 474 113.0 493.0Q137 512 173.5 523.0Q210 534 260 534Z" transform="translate(217.908 142.790) scale(0.013000 -0.013000)"/></g><circle cx="278" cy="50" r="23" fill="#FFD84D" stroke-width="1" opacity="1"/><circle cx="293" cy="77" r="20" fill="#EDF2F7" stroke-width="1" opacity="1"/><circle cx="321" cy="68" r="27" fill="#F3F7FA" stroke-width="1" opacity="1"/><circle cx="346" cy="80" r="18" fill="#EDF2F7" stroke-width="1" opacity="1"/><rect x="274" y="79" width="88" height="25" rx="12" fill="#EDF2F7" stroke-width="1" opacity="1"/><line x1="368" y1="24" x2="368" y2="140" stroke="#fff" stroke-width="1.5" stroke-linecap="round" opacity="1"/><g fill="#557488" opacity="1"><path d="M455 743Q527 743 584.5 726.5Q642 710 681.5 678.5Q721 647 742.0 601.5Q763 556 763 499Q763 442 742.0 396.5Q721 351 681.5 319.5Q642 288 584.5 271.5Q527 255 455 255Q310 255 229.0 319.5Q148 384 148 499Q148 614 229.0 678.5Q310 743 455 743ZM455 658Q401 658 362.0 646.0Q323 634 297.5 612.5Q272 591 260.0 562.0Q248 533 248 499Q248 465 260.0 436.0Q272 407 297.5 385.5Q323 364 362.0 352.0Q401 340 455 340Q509 340 548.0 352.0Q587 364 612.5 385.5Q638 407 650.0 436.0Q662 465 662 499Q662 533 650.0 562.0Q638 591 612.5 612.5Q587 634 548.0 646.0Q509 658 455 658ZM505 86H840Q858 86 866.5 73.5Q875 61 875 44Q875 27 866.5 14.0Q858 1 840 1H70Q52 1 43.5 14.0Q35 27 35 44Q35 61 43.5 73.5Q52 86 70 86H405V319H505Z" transform="translate(360.715 40.790) scale(0.013000 -0.013000)"/><path d="M201 769Q221 769 236.0 759.0Q251 749 251 726V571Q251 551 272 551H742Q759 551 767.5 539.0Q776 527 776 510Q776 493 767.5 480.5Q759 468 742 468H227Q183 468 167.0 484.0Q151 500 151 543V726Q151 749 166.0 759.0Q181 769 201 769ZM875 348Q875 331 866.5 318.5Q858 306 841 306H69Q52 306 43.5 318.5Q35 331 35 348Q35 365 43.5 377.0Q52 389 69 389H841Q858 389 866.5 377.0Q875 365 875 348ZM761 150V76Q761 33 744.5 17.0Q728 1 684 1H261Q245 1 245 -14V-55Q245 -70 261 -70H750Q767 -70 775.0 -82.0Q783 -94 783 -109Q783 -125 775.0 -136.5Q767 -148 750 -148H225Q181 -148 164.5 -132.0Q148 -116 148 -73V1Q148 44 164.5 60.0Q181 76 225 76H648Q664 76 664 91V131Q664 147 648 147H178Q161 147 153.5 158.5Q146 170 146 186Q146 201 153.5 213.0Q161 225 178 225H684Q728 225 744.5 209.0Q761 193 761 150Z" transform="translate(372.545 40.790) scale(0.013000 -0.013000)"/><path d="M455 743Q527 743 584.5 726.5Q642 710 681.5 678.5Q721 647 742.0 601.5Q763 556 763 499Q763 442 742.0 396.5Q721 351 681.5 319.5Q642 288 584.5 271.5Q527 255 455 255Q310 255 229.0 319.5Q148 384 148 499Q148 614 229.0 678.5Q310 743 455 743ZM455 658Q401 658 362.0 646.0Q323 634 297.5 612.5Q272 591 260.0 562.0Q248 533 248 499Q248 465 260.0 436.0Q272 407 297.5 385.5Q323 364 362.0 352.0Q401 340 455 340Q509 340 548.0 352.0Q587 364 612.5 385.5Q638 407 650.0 436.0Q662 465 662 499Q662 533 650.0 562.0Q638 591 612.5 612.5Q587 634 548.0 646.0Q509 658 455 658ZM505 86H840Q858 86 866.5 73.5Q875 61 875 44Q875 27 866.5 14.0Q858 1 840 1H70Q52 1 43.5 14.0Q35 27 35 44Q35 61 43.5 73.5Q52 86 70 86H405V319H505Z" transform="translate(387.625 40.790) scale(0.013000 -0.013000)"/><path d="M455 566Q583 566 655.5 530.0Q728 494 728 418Q728 343 655.5 306.5Q583 270 455 270Q327 270 254.5 306.5Q182 343 182 418Q182 494 254.5 530.0Q327 566 455 566ZM455 799Q475 799 490.5 790.0Q506 781 506 761V703H770Q788 703 796.5 690.5Q805 678 805 661Q805 644 796.5 631.5Q788 619 770 619H140Q122 619 113.5 631.5Q105 644 105 661Q105 678 113.5 690.5Q122 703 140 703H404V761Q404 781 419.5 790.0Q435 799 455 799ZM455 488Q362 488 320.5 470.0Q279 452 279 418Q279 385 320.5 366.5Q362 348 455 348Q548 348 589.5 366.5Q631 385 631 418Q631 452 589.5 470.0Q548 488 455 488ZM875 171Q875 154 866.5 141.5Q858 129 840 129H505V-114Q505 -136 490.0 -146.0Q475 -156 455 -156Q435 -156 420.0 -146.0Q405 -136 405 -114V129H70Q52 129 43.5 141.5Q35 154 35 171Q35 188 43.5 200.5Q52 213 70 213H840Q858 213 866.5 200.5Q875 188 875 171Z" transform="translate(399.455 40.790) scale(0.013000 -0.013000)"/></g><g fill="#557488" opacity="1"><path d="M133 714Q147 714 158.0 707.0Q169 700 169 685V494H444V685Q444 700 454.5 707.0Q465 714 479 714Q493 714 504.5 707.0Q516 700 516 685V215Q516 177 501.0 162.5Q486 148 447 148H166Q127 148 112.0 162.5Q97 177 97 215V685Q97 700 108.0 707.0Q119 714 133 714ZM169 229Q169 218 173.0 214.5Q177 211 188 211H425Q435 211 439.5 214.5Q444 218 444 229V431H169ZM743 774Q757 774 768.5 767.0Q780 760 780 744V-52Q780 -68 768.5 -75.0Q757 -82 743 -82Q729 -82 718.0 -75.0Q707 -68 707 -52V744Q707 760 718.0 767.0Q729 774 743 774Z" transform="translate(347.260 72.790) scale(0.013000 -0.013000)"/><path d="M455 736Q469 736 480.5 728.5Q492 721 492 705V643Q492 607 496.5 580.5Q501 554 512.0 532.0Q523 510 543.0 491.5Q563 473 593 453Q638 424 687.5 394.5Q737 365 793 334Q804 328 805.0 314.5Q806 301 799 290Q792 278 780.0 273.5Q768 269 757 275Q710 301 659.5 330.5Q609 360 566 388Q510 424 486.0 450.5Q462 477 456 497H455Q449 476 425.0 449.5Q401 423 345 387Q301 359 251.0 329.5Q201 300 154 274Q142 268 130.5 272.5Q119 277 111 289Q104 300 105.0 314.0Q106 328 117 334Q173 365 222.5 394.5Q272 424 317 453Q347 473 367.0 491.5Q387 510 398.0 532.0Q409 554 413.5 580.5Q418 607 418 643V705Q418 721 429.5 728.5Q441 736 455 736ZM455 280Q469 280 480.5 273.0Q492 266 492 250V74H846Q860 74 866.0 65.0Q872 56 872 42Q872 29 866.0 20.0Q860 11 846 11H64Q50 11 44.0 20.0Q38 29 38 42Q38 56 44.0 65.0Q50 74 64 74H419V250Q419 266 430.0 273.0Q441 280 455 280Z" transform="translate(362.340 72.790) scale(0.013000 -0.013000)"/><path d="M331 744Q345 744 356.5 737.0Q368 730 368 714V612Q368 561 385.5 524.5Q403 488 441 456Q478 426 511.0 400.5Q544 375 572 355Q584 347 585.0 333.5Q586 320 578 309Q570 299 558.0 295.5Q546 292 533 301Q510 317 478.5 341.5Q447 366 413 393Q375 423 355.5 447.0Q336 471 332 487H331Q327 470 307.5 445.5Q288 421 250 391Q216 363 182.5 337.5Q149 312 115 288Q102 279 89.5 282.0Q77 285 69 296Q61 306 61.5 320.0Q62 334 75 343Q114 371 149.0 397.5Q184 424 221 455Q259 487 276.5 523.5Q294 560 294 611V714Q294 730 305.5 737.0Q317 744 331 744ZM744 774Q758 774 769.0 767.0Q780 760 780 744V269Q780 253 769.0 246.0Q758 239 744 239Q730 239 718.5 246.0Q707 253 707 269V744Q707 760 718.5 767.0Q730 774 744 774ZM711 188Q750 188 765.0 173.5Q780 159 780 121V-118Q780 -134 768.5 -141.0Q757 -148 743 -148Q729 -148 718.0 -141.0Q707 -134 707 -118V107Q707 125 688 125H220Q207 125 201.0 134.0Q195 143 195 156Q195 170 201.0 179.0Q207 188 220 188H711Z" transform="translate(374.170 72.790) scale(0.013000 -0.013000)"/><path d="M304 736Q361 736 403.5 719.5Q446 703 474.0 674.5Q502 646 516.0 607.5Q530 569 530 524Q530 479 516.0 440.5Q502 402 474.0 373.5Q446 345 403.5 329.0Q361 313 304 313Q247 313 204.5 329.0Q162 345 134.0 373.5Q106 402 92.0 440.5Q78 479 78 524Q78 569 92.0 607.5Q106 646 134.0 674.5Q162 703 204.5 719.5Q247 736 304 736ZM304 674Q262 674 233.0 662.0Q204 650 185.0 629.5Q166 609 157.5 581.5Q149 554 149 524Q149 494 157.5 466.5Q166 439 185.0 419.0Q204 399 233.0 387.0Q262 375 304 375Q346 375 375.0 387.0Q404 399 423.0 419.0Q442 439 450.5 466.5Q459 494 459 524Q459 554 450.5 581.5Q442 609 423.0 629.5Q404 650 375.0 662.0Q346 674 304 674ZM744 774Q758 774 769.0 767.0Q780 760 780 744V289Q780 273 769.0 266.0Q758 259 744 259Q730 259 718.5 266.0Q707 273 707 289V744Q707 760 718.5 767.0Q730 774 744 774ZM334 229Q348 229 358.5 222.0Q369 215 369 199V145Q369 120 371.5 102.0Q374 84 380.5 68.5Q387 53 398.0 37.5Q409 22 426 3Q439 -11 453.0 -26.5Q467 -42 481 -54Q496 -69 512 -54Q525 -42 539.5 -26.5Q554 -11 567 3Q584 22 595.0 37.5Q606 53 612.0 68.5Q618 84 620.5 102.0Q623 120 623 145V199Q623 215 634.0 222.0Q645 229 659 229Q673 229 684.0 222.0Q695 215 695 199V145Q695 120 697.5 101.5Q700 83 707.5 67.0Q715 51 728.0 36.0Q741 21 761 3Q780 -15 806.0 -36.0Q832 -57 859 -77Q869 -85 869.0 -97.0Q869 -109 861 -120Q852 -131 840.0 -133.0Q828 -135 816 -126Q790 -106 768.0 -88.0Q746 -70 729 -55Q694 -25 679.0 -6.5Q664 12 659 27H658Q656 19 651.5 11.0Q647 3 639.5 -6.5Q632 -16 620.5 -29.0Q609 -42 592 -60Q566 -87 541 -111Q515 -134 496.0 -134.0Q477 -134 451 -111Q438 -99 426.0 -86.5Q414 -74 400 -60Q383 -42 371.5 -29.0Q360 -16 352.5 -6.5Q345 3 341.0 11.0Q337 19 335 27H334Q329 11 313.5 -7.5Q298 -26 263 -56Q246 -70 224.0 -88.5Q202 -107 176 -127Q165 -135 152.5 -133.0Q140 -131 132 -120Q123 -109 123.5 -97.0Q124 -85 133 -77Q161 -57 186.5 -36.0Q212 -15 232 3Q252 21 265.0 36.0Q278 51 285.5 67.0Q293 83 295.5 101.5Q298 120 298 145V199Q298 215 309.0 222.0Q320 229 334 229Z" transform="translate(389.250 72.790) scale(0.013000 -0.013000)"/><path d="M297 720Q409 720 465.0 645.5Q521 571 521 428Q521 285 465.0 210.5Q409 136 297 136Q185 136 128.5 210.5Q72 285 72 428Q72 571 128.5 645.5Q185 720 297 720ZM297 655Q216 655 180.0 596.0Q144 537 144 428Q144 319 180.0 260.0Q216 201 297 201Q378 201 414.0 260.0Q450 319 450 428Q450 537 414.0 596.0Q378 655 297 655ZM750 774Q764 774 775.0 767.0Q786 760 786 744V-52Q786 -68 775.0 -75.0Q764 -82 750 -82Q736 -82 725.0 -75.0Q714 -68 714 -52V397H470V460H714V744Q714 760 725.0 767.0Q736 774 750 774Z" transform="translate(401.080 72.790) scale(0.013000 -0.013000)"/><path d="M455 737Q599 737 676.5 675.5Q754 614 754 505Q754 396 676.5 334.5Q599 273 455 273Q311 273 233.5 334.5Q156 396 156 505Q156 614 233.5 675.5Q311 737 455 737ZM455 675Q398 675 355.5 662.0Q313 649 285.0 626.5Q257 604 243.0 573.0Q229 542 229 505Q229 469 243.0 438.0Q257 407 285.0 384.5Q313 362 355.5 349.0Q398 336 455 336Q512 336 554.5 349.0Q597 362 625.0 384.5Q653 407 667.0 438.0Q681 469 681 505Q681 542 667.0 573.0Q653 604 625.0 626.5Q597 649 554.5 662.0Q512 675 455 675ZM296 250Q311 250 322.0 243.0Q333 236 333 220V73H577V220Q577 236 588.0 243.0Q599 250 613 250Q627 250 638.5 243.0Q650 236 650 220V73H847Q860 73 866.0 64.0Q872 55 872 42Q872 29 866.0 20.0Q860 11 847 11H63Q50 11 44.0 20.0Q38 29 38 42Q38 55 44.0 64.0Q50 73 63 73H260V220Q260 236 271.0 243.0Q282 250 296 250Z" transform="translate(412.910 72.790) scale(0.013000 -0.013000)"/></g><g fill="#557488" opacity="1"><path d="M407 721Q446 721 461.0 706.5Q476 692 476 654V580Q476 544 470.5 516.5Q465 489 450.0 465.0Q435 441 409.5 419.0Q384 397 343.5 373.0Q303 349 246.5 320.5Q190 292 114 256Q102 251 89.5 255.5Q77 260 71 273Q65 284 66.5 297.5Q68 311 82 317Q190 367 253.5 400.5Q317 434 350.5 461.5Q384 489 394.0 516.5Q404 544 404 583V639Q404 658 385 658H102Q88 658 82.0 667.0Q76 676 76 689Q76 703 82.0 712.0Q88 721 102 721H407ZM700 774Q714 774 725.5 767.0Q737 760 737 744V547H864Q878 547 884.0 537.5Q890 528 890 514Q890 501 884.0 491.5Q878 482 864 482H737V257Q737 241 725.5 234.0Q714 227 700 227Q686 227 675.0 234.0Q664 241 664 257V744Q664 760 675.0 767.0Q686 774 700 774ZM466 215Q600 215 672.0 168.5Q744 122 744 32Q744 -58 672.0 -104.5Q600 -151 466 -151Q332 -151 260.5 -104.5Q189 -58 189 32Q189 122 260.5 168.5Q332 215 466 215ZM466 155Q360 155 310.5 122.0Q261 89 261 32Q261 -25 310.5 -58.0Q360 -91 466 -91Q572 -91 622.0 -58.0Q672 -25 672 32Q672 89 622.0 122.0Q572 155 466 155Z" transform="translate(347.175 100.790) scale(0.013000 -0.013000)"/><path d="M455 751Q469 751 480.5 743.5Q492 736 492 720V658Q492 604 517.5 568.0Q543 532 594 506Q651 477 697.5 453.5Q744 430 787 410Q801 404 802.5 390.5Q804 377 799 366Q794 354 782.5 348.0Q771 342 757 349Q661 394 567 444Q511 473 486.0 499.0Q461 525 456 545H455Q450 525 425.0 498.5Q400 472 344 443Q296 417 249.0 394.0Q202 371 154 348Q140 341 128.0 347.5Q116 354 111 365Q106 376 107.5 390.0Q109 404 123 410Q166 430 212.5 453.5Q259 477 316 506Q367 532 392.5 568.0Q418 604 418 658V720Q418 736 429.5 743.5Q441 751 455 751ZM846 242Q860 242 866.0 233.0Q872 224 872 210Q872 197 866.0 188.0Q860 179 846 179H492V-122Q492 -138 480.5 -145.0Q469 -152 455 -152Q441 -152 430.0 -145.0Q419 -138 419 -122V179H64Q50 179 44.0 188.0Q38 197 38 210Q38 224 44.0 233.0Q50 242 64 242H846Z" transform="translate(359.005 100.790) scale(0.013000 -0.013000)"/><path d="M328 578Q426 578 478.5 544.0Q531 510 531 451Q531 392 478.5 357.5Q426 323 328 323Q230 323 177.5 357.5Q125 392 125 451Q125 510 177.5 544.0Q230 578 328 578ZM328 523Q259 523 225.5 503.0Q192 483 192 451Q192 419 225.5 399.0Q259 379 328 379Q397 379 430.5 399.0Q464 419 464 451Q464 483 430.5 503.0Q397 523 328 523ZM328 791Q342 791 353.5 784.0Q365 777 365 762V696H564Q577 696 583.0 687.0Q589 678 589 666Q589 653 583.0 644.5Q577 636 564 636H84Q72 636 66.0 644.5Q60 653 60 666Q60 678 66.0 687.0Q72 696 84 696H291V762Q291 777 302.5 784.0Q314 791 328 791ZM718 774Q732 774 743.0 767.0Q754 760 754 744V495H868Q882 495 888.0 485.5Q894 476 894 463Q894 449 888.0 439.5Q882 430 868 430H754V181Q754 165 743.0 158.0Q732 151 718 151Q704 151 693.0 158.0Q682 165 682 181V744Q682 760 693.0 767.0Q704 774 718 774ZM364 242Q419 244 475.5 247.5Q532 251 592 256Q603 258 610.5 250.5Q618 243 619 230Q620 217 614.5 208.0Q609 199 598 197Q464 186 333.0 182.0Q202 178 62 178Q49 178 43.0 186.5Q37 195 37 208Q37 220 43.0 229.0Q49 238 62 238Q119 238 176.0 238.0Q233 238 293 240V353H364ZM685 101Q724 101 739.0 86.5Q754 72 754 34V-120Q754 -136 743.0 -143.0Q732 -150 718 -150Q704 -150 693.0 -143.0Q682 -136 682 -120V22Q682 41 663 41H187Q175 41 169.0 50.0Q163 59 163 71Q163 83 169.0 92.0Q175 101 187 101H685Z" transform="translate(370.835 100.790) scale(0.013000 -0.013000)"/><path d="M678 755Q717 755 732.0 740.5Q747 726 747 688V627Q747 589 732.0 574.5Q717 560 678 560H249Q233 560 233 544V494Q233 478 249 478H747Q759 478 765.0 469.0Q771 460 771 449Q771 438 765.0 429.0Q759 420 747 420H231Q192 420 177.0 434.5Q162 449 162 487V549Q162 587 177.0 601.5Q192 616 231 616H660Q677 616 677 631V682Q677 697 660 697H184Q172 697 166.0 706.0Q160 715 160 727Q160 738 166.0 746.5Q172 755 184 755H678ZM848 346Q860 346 866.0 337.5Q872 329 872 317Q872 304 866.0 295.5Q860 287 848 287H622V162H552V287H358V162H288V287H62Q50 287 44.0 295.5Q38 304 38 317Q38 329 44.0 337.5Q50 346 62 346H848ZM683 194Q722 194 737.0 179.5Q752 165 752 127V65Q752 27 737.0 12.5Q722 -2 683 -2H244Q227 -2 227 -18V-68Q227 -84 244 -84H753Q765 -84 770.5 -93.0Q776 -102 776 -113Q776 -124 770.5 -133.0Q765 -142 753 -142H226Q187 -142 172.0 -128.0Q157 -114 157 -76V-13Q157 25 172.0 39.5Q187 54 226 54H666Q682 54 682 70V120Q682 136 666 136H179Q167 136 161.0 144.5Q155 153 155 165Q155 176 161.0 185.0Q167 194 179 194H683Z" transform="translate(382.665 100.790) scale(0.013000 -0.013000)"/><path d="M337 726Q386 726 428.0 715.0Q470 704 498 688Q511 680 514.0 668.5Q517 657 511 643Q505 630 493.5 626.0Q482 622 468 629Q439 643 407.5 651.0Q376 659 336 659Q286 659 251.0 638.5Q216 618 192.0 580.0Q168 542 155.0 486.5Q142 431 138 362Q150 386 169.5 404.0Q189 422 214.0 435.0Q239 448 267.0 454.5Q295 461 325 461Q376 461 417.0 445.5Q458 430 487.5 401.0Q517 372 532.5 330.5Q548 289 548 238V222Q548 169 530.0 126.5Q512 84 480.5 54.5Q449 25 405.5 9.0Q362 -7 311 -7Q257 -7 212.5 11.5Q168 30 135.5 67.0Q103 104 85.0 160.5Q67 217 67 293V314Q67 428 86.5 507.0Q106 586 141.0 634.5Q176 683 226.0 704.5Q276 726 337 726ZM313 397Q274 397 242.5 384.5Q211 372 189.5 351.0Q168 330 156.5 301.5Q145 273 145 241V236Q145 196 157.0 163.5Q169 131 191.0 108.0Q213 85 243.5 72.5Q274 60 310 60Q383 60 429.5 101.5Q476 143 476 224V231Q476 312 435.0 354.5Q394 397 313 397Z" transform="translate(397.745 100.790) scale(0.013000 -0.013000)"/><path d="M300 726Q432 726 489.0 639.5Q546 553 546 387V332Q546 165 489.0 79.0Q432 -7 300 -7Q168 -7 111.0 79.0Q54 165 54 332V387Q54 553 111.0 639.5Q168 726 300 726ZM300 658Q251 658 218.0 641.5Q185 625 164.5 590.5Q144 556 135.5 503.5Q127 451 127 380V339Q127 268 135.5 215.5Q144 163 164.5 128.5Q185 94 218.0 77.5Q251 61 300 61Q349 61 382.0 77.5Q415 94 435.5 128.5Q456 163 464.5 215.5Q473 268 473 339V380Q473 451 464.5 503.5Q456 556 435.5 590.5Q415 625 382.0 641.5Q349 658 300 658Z" transform="translate(405.545 100.790) scale(0.013000 -0.013000)"/><path d="M226 726Q305 726 344.0 679.5Q383 633 383 552V529Q383 448 344.0 401.5Q305 355 226 355Q147 355 108.0 401.5Q69 448 69 529V552Q69 633 108.0 679.5Q147 726 226 726ZM660 715Q671 709 674.5 699.0Q678 689 671 677L264 14Q257 3 246.5 1.5Q236 0 225 5Q214 10 210.0 20.5Q206 31 214 43L620 706Q627 717 638.0 718.5Q649 720 660 715ZM226 672Q176 672 152.5 642.5Q129 613 129 548V532Q129 468 152.5 438.5Q176 409 226 409Q275 409 299.0 438.5Q323 468 323 532V548Q323 613 299.0 642.5Q275 672 226 672ZM657 365Q736 365 775.0 318.5Q814 272 814 190V168Q814 87 775.0 40.5Q736 -6 657 -6Q578 -6 539.0 40.5Q500 87 500 168V190Q500 272 539.0 318.5Q578 365 657 365ZM657 311Q608 311 584.0 281.5Q560 252 560 187V171Q560 106 584.0 77.0Q608 48 657 48Q707 48 730.5 77.0Q754 106 754 171V187Q754 252 730.5 281.5Q707 311 657 311Z" transform="translate(413.345 100.790) scale(0.013000 -0.013000)"/></g></svg>