<svg xmlns="http://www.w3.org/2000/svg" width="360" height="72" viewBox="0 0 360 72" role="img" aria-label="카카오로 시작하기"><title>카카오로 시작하기</title><rect x="4" y="4" width="352" height="64" rx="32" fill="#FFD84D" stroke-width="1" opacity="1"/><path d="M43.15 27.2 H62.05 Q64.15 27.2 64.15 29.3 V39.8 Q64.15 41.900000000000006 62.05 41.900000000000006 H53.65 L47.35 47.150000000000006 V41.900000000000006 H43.15 Q41.05 41.900000000000006 41.05 39.8 V29.3 Q41.05 27.2 43.15 27.2Z" fill="#1F2937" stroke-width="1" stroke-linecap="round" stroke-linejoin="round" opacity="1"/><circle cx="48.4" cy="34.55" r="1.3650000000000002" fill="#fff" stroke-width="1" opacity="1"/><circle cx="52.6" cy="34.55" r="1.3650000000000002" fill="#fff" stroke-width="1" opacity="1"/><circle cx="56.8" cy="34.55" r="1.3650000000000002" fill="#fff" stroke-width="1" opacity="1"/><g fill="#1F2937" opacity="1"><path d="M491 636V510Q491 465 485.5 429.5Q480 394 466.0 363.5Q452 333 427.0 304.5Q402 276 362.5 245.5Q323 215 267.0 180.0Q211 145 136 101Q120 92 103.0 97.0Q86 102 76 118Q66 133 68.0 152.0Q70 171 87 181Q165 226 218.0 258.5Q271 291 305.5 317.0Q340 343 358.5 366.0Q377 389 385 415L92 398Q74 396 65.0 408.5Q56 421 54 439Q53 455 60.5 469.0Q68 483 87 484L394 498V604Q394 616 389.0 620.5Q384 625 373 625H114Q95 625 86.5 638.0Q78 651 78 668Q78 685 86.5 698.0Q95 711 114 711H414Q458 711 474.5 695.0Q491 679 491 636ZM696 778Q716 778 731.0 768.0Q746 758 746 736V476H856Q876 476 884.5 463.5Q893 451 893 433Q893 415 884.5 402.0Q876 389 856 389H746V-44Q746 -66 731.0 -76.0Q716 -86 696 -86Q676 -86 661.0 -76.0Q646 -66 646 -44V736Q646 758 661.0 768.0Q676 778 696 778Z" transform="translate(130.230 35.940) scale(0.018000 -0.018000)"/><path d="M491 636V510Q491 465 485.5 429.5Q480 394 466.0 363.5Q452 333 427.0 304.5Q402 276 362.5 245.5Q323 215 267.0 180.0Q211 145 136 101Q120 92 103.0 97.0Q86 102 76 118Q66 133 68.0 152.0Q70 171 87 181Q165 226 218.0 258.5Q271 291 305.5 317.0Q340 343 358.5 366.0Q377 389 385 415L92 398Q74 396 65.0 408.5Q56 421 54 439Q53 455 60.5 469.0Q68 483 87 484L394 498V604Q394 616 389.0 620.5Q384 625 373 625H114Q95 625 86.5 638.0Q78 651 78 668Q78 685 86.5 698.0Q95 711 114 711H414Q458 711 474.5 695.0Q491 679 491 636ZM696 778Q716 778 731.0 768.0Q746 758 746 736V476H856Q876 476 884.5 463.5Q893 451 893 433Q893 415 884.5 402.0Q876 389 856 389H746V-44Q746 -66 731.0 -76.0Q716 -86 696 -86Q676 -86 661.0 -76.0Q646 -66 646 -44V736Q646 758 661.0 768.0Q676 778 696 778Z" transform="translate(146.610 35.940) scale(0.018000 -0.018000)"/><path d="M455 743Q527 743 584.5 726.5Q642 710 681.5 678.5Q721 647 742.0 601.5Q763 556 763 499Q763 442 742.0 396.5Q721 351 681.5 319.5Q642 288 584.5 271.5Q527 255 455 255Q310 255 229.0 319.5Q148 384 148 499Q148 614 229.0 678.5Q310 743 455 743ZM455 658Q401 658 362.0 646.0Q323 634 297.5 612.5Q272 591 260.0 562.0Q248 533 248 499Q248 465 260.0 436.0Q272 407 297.5 385.5Q323 364 362.0 352.0Q401 340 455 340Q509 340 548.0 352.0Q587 364 612.5 385.5Q638 407 650.0 436.0Q662 465 662 499Q662 533 650.0 562.0Q638 591 612.5 612.5Q587 634 548.0 646.0Q509 658 455 658ZM505 86H840Q858 86 866.5 73.5Q875 61 875 44Q875 27 866.5 14.0Q858 1 840 1H70Q52 1 43.5 14.0Q35 27 35 44Q35 61 43.5 73.5Q52 86 70 86H405V319H505Z" transform="translate(162.990 35.940) scale(0.018000 -0.018000)"/><path d="M757 651V518Q757 476 740.5 460.0Q724 444 680 444H271Q250 444 250 423V348Q250 328 271 328H744Q762 328 770.5 315.0Q779 302 779 285Q779 268 770.5 255.5Q762 243 744 243H229Q185 243 168.5 259.0Q152 275 152 318V451Q152 494 168.5 509.5Q185 525 229 525H638Q659 525 659 546V620Q659 641 638 641H185Q167 641 158.5 653.5Q150 666 150 683Q150 700 158.5 713.0Q167 726 185 726H680Q724 726 740.5 710.0Q757 694 757 651ZM505 86H840Q858 86 866.5 73.5Q875 61 875 44Q875 27 866.5 14.0Q858 1 840 1H70Q52 1 43.5 14.0Q35 27 35 44Q35 61 43.5 73.5Q52 86 70 86H405V286H505Z" transform="translate(179.370 35.940) scale(0.018000 -0.018000)"/><path d="M329 732Q349 732 364.5 722.0Q380 712 380 690V539Q380 507 384.0 481.5Q388 456 398.0 433.0Q408 410 423.0 388.0Q438 366 461 342Q491 310 520.5 280.5Q550 251 576 227Q591 214 588.5 196.0Q586 178 574 165Q563 153 544.5 150.0Q526 147 512 160Q466 203 409 263Q387 285 372.5 302.0Q358 319 349.0 331.5Q340 344 335.5 353.5Q331 363 330 371H329Q327 362 322.5 352.0Q318 342 309.0 329.5Q300 317 286.0 300.0Q272 283 250 261Q221 231 193.0 203.5Q165 176 133 146Q117 132 99.0 136.5Q81 141 70 154Q58 168 57.0 185.0Q56 202 70 216Q104 248 136.0 279.0Q168 310 198 342Q220 366 235.5 388.0Q251 410 260.5 433.0Q270 456 274.0 481.5Q278 507 278 539V690Q278 712 293.5 722.0Q309 732 329 732ZM738 778Q758 778 773.5 768.0Q789 758 789 736V-44Q789 -66 773.5 -76.0Q758 -86 738 -86Q719 -86 703.5 -76.0Q688 -66 688 -44V736Q688 758 703.5 768.0Q719 778 738 778Z" transform="translate(200.250 35.940) scale(0.018000 -0.018000)"/><path d="M557 683Q557 666 548.5 653.5Q540 641 522 641H360V596Q360 547 375.0 514.0Q390 481 426 452Q461 423 492.0 400.0Q523 377 547 360Q564 348 565.0 331.0Q566 314 555 299Q545 287 528.5 280.5Q512 274 493 287Q475 300 446.0 321.5Q417 343 385 369Q347 400 331.5 418.5Q316 437 312 452H311Q307 435 290.5 415.0Q274 395 236 365Q203 339 171.5 315.5Q140 292 110 271Q93 259 75.5 265.0Q58 271 49 284Q38 298 39.0 316.0Q40 334 57 347Q93 372 126.5 396.5Q160 421 195 449Q230 478 245.0 511.0Q260 544 260 593V641H91Q72 641 63.5 653.5Q55 666 55 683Q55 700 63.5 713.0Q72 726 91 726H522Q540 726 548.5 713.0Q557 700 557 683ZM696 778Q716 778 731.0 768.0Q746 758 746 736V562H856Q876 562 884.5 549.0Q893 536 893 519Q893 500 884.5 487.5Q876 475 856 475H746V279Q746 257 731.0 247.0Q716 237 696 237Q676 237 661.0 247.0Q646 257 646 279V736Q646 758 661.0 768.0Q676 778 696 778ZM669 194Q713 194 729.5 178.0Q746 162 746 119V-110Q746 -132 731.0 -142.0Q716 -152 696 -152Q676 -152 661.0 -142.0Q646 -132 646 -110V88Q646 108 625 108H190Q171 108 162.5 121.0Q154 134 154 151Q154 168 162.5 181.0Q171 194 190 194Z" transform="translate(216.630 35.940) scale(0.018000 -0.018000)"/><path d="M308 502Q358 502 398.0 487.5Q438 473 465.5 447.0Q493 421 508.0 385.0Q523 349 523 305Q523 261 508.0 225.0Q493 189 465.5 163.0Q438 137 398.0 122.5Q358 108 308 108Q258 108 218.0 122.5Q178 137 150.0 163.0Q122 189 107.5 225.0Q93 261 93 305Q93 349 107.5 385.0Q122 421 150.0 447.0Q178 473 218.0 487.5Q258 502 308 502ZM308 780Q328 780 343.0 770.0Q358 760 358 738V652H538Q556 652 564.5 639.5Q573 627 573 610Q573 593 564.5 580.0Q556 567 538 567H67Q49 567 40.5 580.0Q32 593 32 610Q32 627 40.5 639.5Q49 652 67 652H258V738Q258 760 273.5 770.0Q289 780 308 780ZM308 421Q251 421 217.5 389.5Q184 358 184 305Q184 253 217.5 221.0Q251 189 308 189Q365 189 398.5 221.0Q432 253 432 305Q432 358 398.5 389.5Q365 421 308 421ZM696 778Q716 778 731.0 768.0Q746 758 746 736V466H856Q876 466 884.5 453.5Q893 441 893 423Q893 405 884.5 392.0Q876 379 856 379H746V-44Q746 -66 731.0 -76.0Q716 -86 696 -86Q677 -86 662.0 -76.0Q647 -66 647 -44V736Q647 758 662.0 768.0Q677 778 696 778Z" transform="translate(233.010 35.940) scale(0.018000 -0.018000)"/><path d="M505 635V522Q505 480 500.0 446.5Q495 413 481.0 383.0Q467 353 442.0 324.5Q417 296 377.5 264.5Q338 233 282.0 196.0Q226 159 149 112Q132 102 115.0 108.5Q98 115 88 129Q78 143 78.5 162.0Q79 181 96 192Q167 235 217.5 267.5Q268 300 302.0 326.5Q336 353 356.5 375.5Q377 398 388.0 420.5Q399 443 402.0 468.5Q405 494 405 526V603Q405 614 400.5 618.5Q396 623 384 623H124Q105 623 96.5 636.0Q88 649 88 666Q88 684 96.5 697.0Q105 710 124 710H428Q472 710 488.5 694.0Q505 678 505 635ZM738 778Q758 778 773.5 768.0Q789 758 789 736V-44Q789 -66 773.5 -76.0Q758 -86 738 -86Q719 -86 703.5 -76.0Q688 -66 688 -44V736Q688 758 703.5 768.0Q719 778 738 778Z" transform="translate(249.390 35.940) scale(0.018000 -0.018000)"/></g></svg>