<svg xmlns="http://www.w3.org/2000/svg" width="360" height="72" viewBox="0 0 360 72" role="img" aria-label="자세히 보기"><title>자세히 보기</title><rect x="4" y="4" width="352" height="64" rx="32" fill="#fff" stroke="#2FA86A" stroke-width="2" opacity="1"/><g fill="#2FA86A" opacity="1"><path d="M559 665Q559 648 550.5 635.0Q542 622 524 622H361V528Q361 495 364.5 469.0Q368 443 377.0 420.5Q386 398 400.5 377.0Q415 356 437 334Q469 302 499.0 273.0Q529 244 554 223Q569 209 566.5 191.0Q564 173 552 161Q540 148 523.0 145.0Q506 142 491 155Q469 175 442.5 200.5Q416 226 385 256Q364 278 350.0 293.5Q336 309 328.0 321.0Q320 333 316.0 342.0Q312 351 311 359H310Q308 350 304.5 341.0Q301 332 292.5 320.0Q284 308 270.5 292.0Q257 276 235 254Q205 224 176.0 196.0Q147 168 115 140Q99 126 81.0 131.0Q63 136 52 149Q40 163 39.5 180.5Q39 198 54 211Q89 242 120.0 272.0Q151 302 183 334Q205 356 219.5 377.0Q234 398 243.0 420.5Q252 443 255.5 469.0Q259 495 259 528V622H91Q72 622 63.5 635.0Q55 648 55 665Q55 682 63.5 695.0Q72 708 91 708H524Q542 708 550.5 695.0Q559 682 559 665ZM696 778Q716 778 731.0 768.0Q746 758 746 736V476H856Q876 476 884.5 463.5Q893 451 893 433Q893 415 884.5 402.0Q876 389 856 389H746V-44Q746 -66 731.0 -76.0Q716 -86 696 -86Q676 -86 661.0 -76.0Q646 -66 646 -44V736Q646 758 661.0 768.0Q676 778 696 778Z" transform="translate(136.800 35.940) scale(0.018000 -0.018000)"/><path d="M263 725Q283 725 298.0 715.0Q313 705 313 683V530Q313 498 316.0 473.0Q319 448 326.5 425.5Q334 403 345.5 382.5Q357 362 375 341Q401 309 426.5 281.0Q452 253 472 231Q485 217 483.0 198.5Q481 180 467 168Q455 157 437.0 156.0Q419 155 405 169Q390 185 368.5 209.0Q347 233 324 260Q290 300 278.5 321.5Q267 343 264 359H263Q260 342 248.5 319.5Q237 297 203 256Q180 230 156.5 203.5Q133 177 109 152Q95 138 76.0 139.5Q57 141 46 152Q32 166 30.0 184.5Q28 203 42 217Q71 248 98.5 278.5Q126 309 152 341Q169 362 181.0 382.5Q193 403 200.0 425.5Q207 448 210.0 473.0Q213 498 213 530V683Q213 705 228.5 715.0Q244 725 263 725ZM771 778Q789 778 803.5 768.5Q818 759 818 739V-47Q818 -67 803.5 -76.5Q789 -86 771 -86Q754 -86 739.5 -76.5Q725 -67 725 -47V739Q725 759 739.5 768.5Q754 778 771 778ZM592 768Q609 768 623.5 758.5Q638 749 638 729V-5Q638 -25 623.5 -34.5Q609 -44 592 -44Q574 -44 559.5 -34.5Q545 -25 545 -5V424H445Q427 424 418.5 436.5Q410 449 410 467Q410 485 418.5 497.5Q427 510 445 510H545V729Q545 749 559.5 758.5Q574 768 592 768Z" transform="translate(153.180 35.940) scale(0.018000 -0.018000)"/><path d="M329 502Q380 502 420.0 487.5Q460 473 487.5 447.0Q515 421 530.0 385.0Q545 349 545 305Q545 261 530.0 225.0Q515 189 487.5 163.0Q460 137 420.0 122.5Q380 108 329 108Q278 108 238.0 122.5Q198 137 170.5 163.0Q143 189 128.0 225.0Q113 261 113 305Q113 349 128.0 385.0Q143 421 170.5 447.0Q198 473 238.0 487.5Q278 502 329 502ZM329 780Q349 780 364.0 770.0Q379 760 379 738V652H560Q578 652 586.5 639.5Q595 627 595 610Q595 593 586.5 580.0Q578 567 560 567H87Q69 567 60.5 580.0Q52 593 52 610Q52 627 60.5 639.5Q69 652 87 652H279V738Q279 760 294.5 770.0Q310 780 329 780ZM329 421Q271 421 237.5 389.5Q204 358 204 305Q204 253 237.5 221.0Q271 189 329 189Q387 189 420.5 221.0Q454 253 454 305Q454 358 420.5 389.5Q387 421 329 421ZM738 778Q758 778 773.5 768.0Q789 758 789 736V-44Q789 -66 773.5 -76.0Q758 -86 738 -86Q719 -86 703.5 -76.0Q688 -66 688 -44V736Q688 758 703.5 768.0Q719 778 738 778Z" transform="translate(169.560 35.940) scale(0.018000 -0.018000)"/><path d="M198 736Q217 736 232.5 725.5Q248 715 248 694V575H662V694Q662 715 677.5 725.5Q693 736 711 736Q731 736 746.5 725.5Q762 715 762 694V341Q762 298 745.5 282.0Q729 266 685 266H225Q181 266 165.0 282.0Q149 298 149 341V694Q149 715 164.0 725.5Q179 736 198 736ZM248 371Q248 351 269 351H641Q662 351 662 371V490H248ZM505 86H840Q858 86 866.5 73.5Q875 61 875 44Q875 27 866.5 14.0Q858 1 840 1H70Q52 1 43.5 14.0Q35 27 35 44Q35 61 43.5 73.5Q52 86 70 86H405V319H505Z" transform="translate(190.440 35.940) scale(0.018000 -0.018000)"/><path d="M505 635V522Q505 480 500.0 446.5Q495 413 481.0 383.0Q467 353 442.0 324.5Q417 296 377.5 264.5Q338 233 282.0 196.0Q226 159 149 112Q132 102 115.0 108.5Q98 115 88 129Q78 143 78.5 162.0Q79 181 96 192Q167 235 217.5 267.5Q268 300 302.0 326.5Q336 353 356.5 375.5Q377 398 388.0 420.5Q399 443 402.0 468.5Q405 494 405 526V603Q405 614 400.5 618.5Q396 623 384 623H124Q105 623 96.5 636.0Q88 649 88 666Q88 684 96.5 697.0Q105 710 124 710H428Q472 710 488.5 694.0Q505 678 505 635ZM738 778Q758 778 773.5 768.0Q789 758 789 736V-44Q789 -66 773.5 -76.0Q758 -86 738 -86Q719 -86 703.5 -76.0Q688 -66 688 -44V736Q688 758 703.5 768.0Q719 778 738 778Z" transform="translate(206.820 35.940) scale(0.018000 -0.018000)"/></g><polyline points="325.6,26.8 331.2,32.4 325.6,38.0" fill="none" stroke="#2FA86A" stroke-width="1.4" stroke-linecap="round" stroke-linejoin="round" opacity="1"/></svg>