<svg xmlns="http://www.w3.org/2000/svg" width="360" height="72" viewBox="0 0 360 72" role="img" aria-label="장마철 상추 무름병 예방법"><title>장마철 상추 무름병 예방법</title><rect x="4" y="4" width="352" height="64" rx="32" fill="#E9F7EC" stroke-width="1" opacity="1"/><g fill="#1E5E3E" opacity="1"><path d="M557 683Q557 666 548.5 653.5Q540 641 522 641H360V596Q360 547 375.0 514.0Q390 481 426 452Q461 423 492.0 400.0Q523 377 547 360Q564 348 565.0 331.0Q566 314 555 299Q545 287 528.5 280.5Q512 274 493 287Q475 300 446.0 321.5Q417 343 385 369Q347 400 331.5 418.5Q316 437 312 452H311Q307 435 290.5 415.0Q274 395 236 365Q203 339 171.5 315.5Q140 292 110 271Q93 259 75.5 265.0Q58 271 49 284Q38 298 39.0 316.0Q40 334 57 347Q93 372 126.5 396.5Q160 421 195 449Q230 478 245.0 511.0Q260 544 260 593V641H91Q72 641 63.5 653.5Q55 666 55 683Q55 700 63.5 713.0Q72 726 91 726H522Q540 726 548.5 713.0Q557 700 557 683ZM696 778Q716 778 731.0 768.0Q746 758 746 736V557H856Q876 557 884.5 544.0Q893 531 893 514Q893 495 884.5 482.5Q876 470 856 470H746V271Q746 250 731.0 240.0Q716 230 696 230Q676 230 661.0 240.0Q646 250 646 271V736Q646 758 661.0 768.0Q676 778 696 778ZM465 221Q602 221 676.5 173.5Q751 126 751 32Q751 -62 676.5 -109.5Q602 -157 465 -157Q328 -157 253.5 -109.5Q179 -62 179 32Q179 126 253.5 173.5Q328 221 465 221ZM465 140Q366 140 322.0 110.5Q278 81 278 32Q278 -18 322.0 -47.0Q366 -76 465 -76Q564 -76 608.0 -47.0Q652 -18 652 32Q652 82 608.0 111.0Q564 140 465 140Z" transform="translate(83.160 35.940) scale(0.018000 -0.018000)"/><path d="M422 711Q466 711 482.5 695.0Q499 679 499 636V220Q499 177 482.5 161.0Q466 145 422 145H145Q101 145 84.5 161.0Q68 177 68 220V636Q68 679 84.5 695.0Q101 711 145 711ZM188 625Q167 625 167 605V251Q167 231 188 231H379Q400 231 400 251V605Q400 625 379 625ZM696 778Q716 778 731.0 768.0Q746 758 746 736V476H856Q876 476 884.5 463.5Q893 451 893 433Q893 415 884.5 402.0Q876 389 856 389H746V-44Q746 -66 731.0 -76.0Q716 -86 696 -86Q676 -86 661.0 -76.0Q646 -66 646 -44V736Q646 758 661.0 768.0Q676 778 696 778Z" transform="translate(99.540 35.940) scale(0.018000 -0.018000)"/><path d="M324 798Q344 798 359.0 788.0Q374 778 374 756V682H540Q558 682 566.5 669.0Q575 656 575 639Q575 622 566.5 609.5Q558 597 540 597H374V558Q374 519 388.5 492.0Q403 465 438 442Q476 418 505.0 400.0Q534 382 554 370Q571 360 573.5 343.0Q576 326 567 311Q559 297 543.0 291.0Q527 285 507 296Q487 307 463.0 322.0Q439 337 407 357Q363 385 347.5 402.5Q332 420 327 435H326Q321 418 303.5 399.5Q286 381 242 352Q209 332 182.0 315.5Q155 299 122 280Q103 269 87.0 276.5Q71 284 63 298Q55 313 56.0 330.0Q57 347 76 358Q110 377 141.0 396.0Q172 415 210 440Q245 463 259.5 489.5Q274 516 274 555V597H101Q82 597 73.5 609.5Q65 622 65 639Q65 656 73.5 669.0Q82 682 101 682H274V756Q274 778 289.5 788.0Q305 798 324 798ZM746 778Q765 778 780.0 768.0Q795 758 795 736V328Q795 306 780.0 296.0Q765 286 746 286Q726 286 711.0 296.0Q696 306 696 328V453H555Q537 453 528.5 466.0Q520 479 520 496Q520 513 528.5 525.5Q537 538 555 538H696V736Q696 758 711.0 768.0Q726 778 746 778ZM795 168V87Q795 44 778.5 28.0Q762 12 718 12H321Q306 12 306 -3V-50Q306 -65 321 -65H785Q802 -65 809.5 -77.0Q817 -89 817 -104Q817 -120 809.5 -132.0Q802 -144 785 -144H286Q242 -144 225.5 -128.0Q209 -112 209 -69V13Q209 56 225.5 71.5Q242 87 286 87H682Q698 87 698 103V148Q698 164 682 164H239Q222 164 214.5 176.0Q207 188 207 203Q207 219 214.5 231.0Q222 243 239 243H718Q762 243 778.5 227.0Q795 211 795 168Z" transform="translate(115.920 35.940) scale(0.018000 -0.018000)"/><path d="M308 748Q328 748 343.5 738.0Q359 728 359 706V614Q359 566 374.5 531.5Q390 497 425 467Q460 438 491.0 414.0Q522 390 547 372Q564 360 564.5 342.5Q565 325 554 311Q544 297 527.0 291.5Q510 286 493 299Q473 313 444.0 335.5Q415 358 383 384Q345 414 329.5 434.0Q314 454 310 469H309Q305 452 288.0 431.0Q271 410 234 380Q202 354 171.5 330.0Q141 306 109 283Q92 271 74.5 276.5Q57 282 47 295Q37 309 37.0 327.5Q37 346 55 359Q90 385 123.0 410.0Q156 435 191 464Q226 494 241.5 528.5Q257 563 257 612V706Q257 728 272.5 738.0Q288 748 308 748ZM696 778Q716 778 731.0 768.0Q746 758 746 736V557H856Q876 557 884.5 544.0Q893 531 893 514Q893 495 884.5 482.5Q876 470 856 470H746V271Q746 250 731.0 240.0Q716 230 696 230Q676 230 661.0 240.0Q646 250 646 271V736Q646 758 661.0 768.0Q676 778 696 778ZM465 221Q602 221 676.5 173.5Q751 126 751 32Q751 -62 676.5 -109.5Q602 -157 465 -157Q328 -157 253.5 -109.5Q179 -62 179 32Q179 126 253.5 173.5Q328 221 465 221ZM465 140Q366 140 322.0 110.5Q278 81 278 32Q278 -18 322.0 -47.0Q366 -76 465 -76Q564 -76 608.0 -47.0Q652 -18 652 32Q652 82 608.0 111.0Q564 140 465 140Z" transform="translate(136.800 35.940) scale(0.018000 -0.018000)"/><path d="M455 790Q475 790 490.5 780.0Q506 770 506 748V689H745Q764 689 772.5 676.5Q781 664 781 646Q781 629 772.5 616.5Q764 604 745 604H505V589Q505 549 525.0 522.0Q545 495 589 475Q640 452 686.5 433.0Q733 414 778 397Q795 391 799.0 374.0Q803 357 796 340Q789 323 773.5 316.0Q758 309 741 316Q701 331 658.5 348.5Q616 366 575 384Q541 398 519.0 410.5Q497 423 484.0 434.5Q471 446 464.5 455.5Q458 465 456 474H455Q452 465 446.0 454.5Q440 444 426.5 433.0Q413 422 391.0 409.0Q369 396 336 382Q294 364 252.0 346.5Q210 329 170 314Q152 307 136.5 314.5Q121 322 114 339Q107 356 111.0 373.5Q115 391 132 397Q177 414 223.5 433.0Q270 452 321 475Q365 495 385.0 522.0Q405 549 405 589V604H165Q146 604 137.5 616.5Q129 629 129 646Q129 664 137.5 676.5Q146 689 165 689H404V748Q404 770 419.5 780.0Q435 790 455 790ZM875 201Q875 184 866.5 171.5Q858 159 840 159H505V-114Q505 -136 490.0 -146.0Q475 -156 455 -156Q435 -156 420.0 -146.0Q405 -136 405 -114V159H70Q52 159 43.5 171.5Q35 184 35 201Q35 218 43.5 231.0Q52 244 70 244H840Q858 244 866.5 231.0Q875 218 875 201Z" transform="translate(153.180 35.940) scale(0.018000 -0.018000)"/><path d="M684 737Q728 737 744.5 721.0Q761 705 761 662V435Q761 392 744.5 376.0Q728 360 684 360H226Q182 360 166.0 376.0Q150 392 150 435V662Q150 705 166.0 721.0Q182 737 226 737ZM271 651Q250 651 250 631V466Q250 446 271 446H639Q660 446 660 466V631Q660 651 639 651ZM875 209Q875 192 866.5 179.5Q858 167 840 167H505V-114Q505 -136 490.0 -146.0Q475 -156 455 -156Q435 -156 420.0 -146.0Q405 -136 405 -114V167H70Q52 167 43.5 179.5Q35 192 35 209Q35 226 43.5 239.0Q52 252 70 252H840Q858 252 866.5 239.0Q875 226 875 209Z" transform="translate(174.060 35.940) scale(0.018000 -0.018000)"/><path d="M755 676V600Q755 557 738.5 541.0Q722 525 678 525H266Q251 525 251 510V468Q251 453 266 453H745Q762 453 769.5 441.5Q777 430 777 414Q777 398 769.5 386.0Q762 374 745 374H231Q187 374 170.5 390.0Q154 406 154 449V526Q154 569 170.5 585.0Q187 601 231 601H642Q658 601 658 616V657Q658 672 642 672H184Q167 672 159.5 683.5Q152 695 152 712Q152 727 159.5 739.0Q167 751 184 751H678Q722 751 738.5 735.0Q755 719 755 676ZM875 266Q875 248 866.5 236.0Q858 224 840 224H70Q52 224 43.5 236.0Q35 248 35 266Q35 283 43.5 295.0Q52 307 70 307H840Q858 307 866.5 295.0Q875 283 875 266ZM685 155Q729 155 745.5 139.0Q762 123 762 80V-68Q762 -111 745.5 -127.0Q729 -143 685 -143H225Q181 -143 165.0 -127.0Q149 -111 149 -68V80Q149 123 165.0 139.0Q181 155 225 155ZM268 74Q247 74 247 54V-41Q247 -53 252.0 -57.5Q257 -62 268 -62H642Q653 -62 658.0 -57.5Q663 -53 663 -41V54Q663 74 642 74Z" transform="translate(190.440 35.940) scale(0.018000 -0.018000)"/><path d="M132 737Q151 737 166.0 727.0Q181 717 181 696V584H403V696Q403 717 418.0 727.0Q433 737 451 737Q470 737 485.5 727.0Q501 717 501 696V371Q501 328 484.5 312.0Q468 296 424 296H160Q116 296 99.5 312.0Q83 328 83 371V696Q83 717 98.0 727.0Q113 737 132 737ZM181 399Q181 379 202 379H382Q403 379 403 399V501H181ZM746 778Q765 778 780.0 768.0Q795 758 795 736V265Q795 244 780.0 234.0Q765 224 746 224Q727 224 711.5 234.0Q696 244 696 265V380H580Q562 380 554.0 392.5Q546 405 546 423Q546 440 554.0 452.5Q562 465 580 465H696V558H580Q562 558 554.0 570.5Q546 583 546 601Q546 618 554.0 630.5Q562 643 580 643H696V736Q696 758 711.5 768.0Q727 778 746 778ZM507 215Q647 215 723.5 168.5Q800 122 800 29Q800 -64 723.5 -110.5Q647 -157 507 -157Q367 -157 290.5 -110.5Q214 -64 214 29Q214 122 290.5 168.5Q367 215 507 215ZM507 134Q405 134 359.0 105.5Q313 77 313 29Q313 -19 359.0 -47.5Q405 -76 507 -76Q609 -76 655.0 -47.5Q701 -19 701 29Q701 77 655.0 105.5Q609 134 507 134Z" transform="translate(206.820 35.940) scale(0.018000 -0.018000)"/><path d="M241 719Q344 719 392.0 645.0Q440 571 440 428Q440 285 392.0 211.0Q344 137 241 137Q138 137 90.0 211.0Q42 285 42 428Q42 571 90.0 645.0Q138 719 241 719ZM241 631Q182 631 158.0 579.5Q134 528 134 428Q134 328 158.0 276.5Q182 225 241 225Q300 225 324.0 276.5Q348 328 348 428Q348 528 324.0 579.5Q300 631 241 631ZM771 778Q789 778 803.5 768.5Q818 759 818 739V-47Q818 -67 803.5 -76.5Q789 -86 771 -86Q754 -86 739.5 -76.5Q725 -67 725 -47V739Q725 759 739.5 768.5Q754 778 771 778ZM595 768Q612 768 626.5 758.5Q641 749 641 729V-5Q641 -25 626.5 -34.5Q612 -44 595 -44Q578 -44 563.5 -34.5Q549 -25 549 -5V278H380V362H549V494H380V578H549V729Q549 749 563.5 758.5Q578 768 595 768Z" transform="translate(227.700 35.940) scale(0.018000 -0.018000)"/><path d="M118 737Q137 737 152.5 727.0Q168 717 168 695V584H398V695Q398 717 413.0 727.0Q428 737 447 737Q466 737 481.5 727.0Q497 717 497 695V371Q497 328 480.5 312.0Q464 296 420 296H146Q102 296 85.5 312.0Q69 328 69 371V695Q69 717 84.0 727.0Q99 737 118 737ZM168 399Q168 388 172.5 383.5Q177 379 189 379H377Q398 379 398 399V501H168ZM696 778Q716 778 731.0 768.0Q746 758 746 736V554H856Q876 554 884.5 541.0Q893 528 893 511Q893 492 884.5 479.5Q876 467 856 467H746V265Q746 244 731.0 234.0Q716 224 696 224Q676 224 661.0 234.0Q646 244 646 265V736Q646 758 661.0 768.0Q676 778 696 778ZM465 215Q602 215 676.5 168.5Q751 122 751 29Q751 -64 676.5 -110.5Q602 -157 465 -157Q328 -157 253.5 -110.5Q179 -64 179 29Q179 122 253.5 168.5Q328 215 465 215ZM465 134Q366 134 322.0 105.5Q278 77 278 29Q278 -19 322.0 -47.5Q366 -76 465 -76Q564 -76 608.0 -47.5Q652 -19 652 29Q652 77 608.0 105.5Q564 134 465 134Z" transform="translate(244.080 35.940) scale(0.018000 -0.018000)"/><path d="M132 739Q151 739 166.5 729.0Q182 719 182 697V591H408V697Q408 719 423.0 729.0Q438 739 457 739Q476 739 491.5 729.0Q507 719 507 697V385Q507 342 490.5 326.0Q474 310 430 310H160Q116 310 99.5 326.0Q83 342 83 385V697Q83 719 98.0 729.0Q113 739 132 739ZM182 413Q182 401 186.5 396.5Q191 392 203 392H387Q398 392 403.0 396.5Q408 401 408 413V509H182ZM746 778Q765 778 780.0 768.0Q795 758 795 736V319Q795 297 780.0 287.0Q765 277 746 277Q726 277 711.0 287.0Q696 297 696 319V481H461V566H696V736Q696 758 711.0 768.0Q726 778 746 778ZM255 234Q274 234 289.5 224.0Q305 214 305 193V113H697V193Q697 214 712.0 224.0Q727 234 745 234Q765 234 780.0 224.0Q795 214 795 193V-64Q795 -107 778.5 -123.0Q762 -139 718 -139H284Q240 -139 223.5 -123.0Q207 -107 207 -64V193Q207 214 222.0 224.0Q237 234 255 234ZM305 -36Q305 -47 309.5 -52.0Q314 -57 326 -57H676Q697 -57 697 -36V33H305Z" transform="translate(260.460 35.940) scale(0.018000 -0.018000)"/></g><polyline points="325.6,26.8 331.2,32.4 325.6,38.0" fill="none" stroke="#1E5E3E" stroke-width="1.4" stroke-linecap="round" stroke-linejoin="round" opacity="1"/></svg>