<svg xmlns="http://www.w3.org/2000/svg" width="360" height="72" viewBox="0 0 360 72" role="img" aria-label="농작물 등록하기"><title>농작물 등록하기</title><rect x="4" y="4" width="352" height="64" rx="32" fill="#2FA86A" stroke-width="1" opacity="1"/><g fill="#fff" opacity="1"><path d="M201 759Q221 759 236.0 749.0Q251 739 251 716V543Q251 531 256.0 526.5Q261 522 272 522H741Q759 522 767.5 509.5Q776 497 776 480Q776 463 767.5 450.5Q759 438 741 438H227Q183 438 167.0 454.0Q151 470 151 513V716Q151 739 166.0 749.0Q181 759 201 759ZM504 334H841Q858 334 866.5 322.0Q875 310 875 293Q875 276 866.5 263.5Q858 251 841 251H69Q52 251 43.5 263.5Q35 276 35 293Q35 310 43.5 322.0Q52 334 69 334H406V475H504ZM455 183Q600 183 680.5 141.0Q761 99 761 11Q761 -78 680.5 -119.5Q600 -161 455 -161Q310 -161 229.5 -119.5Q149 -78 149 11Q149 99 229.5 141.0Q310 183 455 183ZM455 103Q346 103 297.0 79.5Q248 56 248 11Q248 -34 297.0 -57.5Q346 -81 455 -81Q564 -81 613.0 -57.5Q662 -34 662 11Q662 56 613.0 79.5Q564 103 455 103Z" transform="translate(120.420 35.940) scale(0.018000 -0.018000)"/><path d="M557 683Q557 666 548.5 653.5Q540 641 522 641H360V596Q360 547 375.0 514.0Q390 481 426 452Q461 423 492.0 400.0Q523 377 547 360Q564 348 565.0 331.0Q566 314 555 299Q545 287 528.5 280.5Q512 274 493 287Q475 300 446.0 321.5Q417 343 385 369Q347 400 331.5 418.5Q316 437 312 452H311Q307 435 290.5 415.0Q274 395 236 365Q203 339 171.5 315.5Q140 292 110 271Q93 259 75.5 265.0Q58 271 49 284Q38 298 39.0 316.0Q40 334 57 347Q93 372 126.5 396.5Q160 421 195 449Q230 478 245.0 511.0Q260 544 260 593V641H91Q72 641 63.5 653.5Q55 666 55 683Q55 700 63.5 713.0Q72 726 91 726H522Q540 726 548.5 713.0Q557 700 557 683ZM696 778Q716 778 731.0 768.0Q746 758 746 736V562H856Q876 562 884.5 549.0Q893 536 893 519Q893 500 884.5 487.5Q876 475 856 475H746V279Q746 257 731.0 247.0Q716 237 696 237Q676 237 661.0 247.0Q646 257 646 279V736Q646 758 661.0 768.0Q676 778 696 778ZM669 194Q713 194 729.5 178.0Q746 162 746 119V-110Q746 -132 731.0 -142.0Q716 -152 696 -152Q676 -152 661.0 -142.0Q646 -132 646 -110V88Q646 108 625 108H190Q171 108 162.5 121.0Q154 134 154 151Q154 168 162.5 181.0Q171 194 190 194Z" transform="translate(136.800 35.940) scale(0.018000 -0.018000)"/><path d="M683 757Q727 757 743.5 741.0Q760 725 760 682V533Q760 490 743.5 474.0Q727 458 683 458H227Q183 458 167.0 474.0Q151 490 151 533V682Q151 725 167.0 741.0Q183 757 227 757ZM271 676Q259 676 254.5 671.5Q250 667 250 655V560Q250 548 254.5 543.5Q259 539 271 539H639Q651 539 655.5 543.5Q660 548 660 560V655Q660 667 655.5 671.5Q651 676 639 676ZM875 348Q875 331 866.5 319.0Q858 307 841 307H504V182H406V307H69Q52 307 43.5 319.0Q35 331 35 348Q35 365 43.5 376.5Q52 388 69 388H841Q858 388 866.5 376.5Q875 365 875 348ZM761 150V76Q761 33 744.5 17.0Q728 1 684 1H261Q245 1 245 -14V-55Q245 -70 261 -70H750Q767 -70 775.0 -82.0Q783 -94 783 -109Q783 -125 775.0 -136.5Q767 -148 750 -148H225Q181 -148 164.5 -132.0Q148 -116 148 -73V1Q148 44 164.5 60.0Q181 76 225 76H648Q664 76 664 91V131Q664 147 648 147H178Q161 147 153.5 158.5Q146 170 146 186Q146 201 153.5 213.0Q161 225 178 225H684Q728 225 744.5 209.0Q761 193 761 150Z" transform="translate(153.180 35.940) scale(0.018000 -0.018000)"/><path d="M756 705Q756 688 747.5 676.0Q739 664 722 664H272Q251 664 251 643V534Q251 513 272 513H732Q749 513 757.5 501.0Q766 489 766 472Q766 455 757.5 442.5Q749 430 732 430H227Q183 430 167.0 446.0Q151 462 151 505V672Q151 715 167.0 731.0Q183 747 227 747H722Q739 747 747.5 734.5Q756 722 756 705ZM875 300Q875 283 866.5 270.5Q858 258 840 258H70Q52 258 43.5 270.5Q35 283 35 300Q35 318 43.5 330.0Q52 342 70 342H840Q858 342 866.5 330.0Q875 318 875 300ZM455 183Q600 183 680.5 141.0Q761 99 761 11Q761 -78 680.5 -119.5Q600 -161 455 -161Q310 -161 229.5 -119.5Q149 -78 149 11Q149 99 229.5 141.0Q310 183 455 183ZM455 103Q346 103 297.0 79.5Q248 56 248 11Q248 -34 297.0 -57.5Q346 -81 455 -81Q564 -81 613.0 -57.5Q662 -34 662 11Q662 56 613.0 79.5Q564 103 455 103Z" transform="translate(174.060 35.940) scale(0.018000 -0.018000)"/><path d="M755 676V595Q755 552 738.5 536.0Q722 520 678 520H266Q251 520 251 505V459Q251 444 266 444H745Q762 444 769.5 432.0Q777 420 777 404Q777 388 769.5 376.0Q762 364 745 364H231Q187 364 170.5 380.0Q154 396 154 439V521Q154 564 170.5 580.0Q187 596 231 596H642Q658 596 658 612V656Q658 671 642 671H184Q167 671 159.5 683.0Q152 695 152 711Q152 727 159.5 739.0Q167 751 184 751H678Q722 751 738.5 735.0Q755 719 755 676ZM504 283H841Q858 283 866.5 271.0Q875 259 875 242Q875 225 866.5 213.0Q858 201 841 201H69Q52 201 43.5 213.0Q35 225 35 242Q35 259 43.5 271.0Q52 283 69 283H406V404H504ZM762 60V-114Q762 -136 746.5 -146.0Q731 -156 712 -156Q693 -156 677.5 -146.0Q662 -136 662 -114V32Q662 43 657.5 48.0Q653 53 641 53H171Q153 53 145.0 65.0Q137 77 137 94Q137 111 145.0 123.0Q153 135 171 135H685Q729 135 745.5 119.0Q762 103 762 60Z" transform="translate(190.440 35.940) scale(0.018000 -0.018000)"/><path d="M308 502Q358 502 398.0 487.5Q438 473 465.5 447.0Q493 421 508.0 385.0Q523 349 523 305Q523 261 508.0 225.0Q493 189 465.5 163.0Q438 137 398.0 122.5Q358 108 308 108Q258 108 218.0 122.5Q178 137 150.0 163.0Q122 189 107.5 225.0Q93 261 93 305Q93 349 107.5 385.0Q122 421 150.0 447.0Q178 473 218.0 487.5Q258 502 308 502ZM308 780Q328 780 343.0 770.0Q358 760 358 738V652H538Q556 652 564.5 639.5Q573 627 573 610Q573 593 564.5 580.0Q556 567 538 567H67Q49 567 40.5 580.0Q32 593 32 610Q32 627 40.5 639.5Q49 652 67 652H258V738Q258 760 273.5 770.0Q289 780 308 780ZM308 421Q251 421 217.5 389.5Q184 358 184 305Q184 253 217.5 221.0Q251 189 308 189Q365 189 398.5 221.0Q432 253 432 305Q432 358 398.5 389.5Q365 421 308 421ZM696 778Q716 778 731.0 768.0Q746 758 746 736V466H856Q876 466 884.5 453.5Q893 441 893 423Q893 405 884.5 392.0Q876 379 856 379H746V-44Q746 -66 731.0 -76.0Q716 -86 696 -86Q677 -86 662.0 -76.0Q647 -66 647 -44V736Q647 758 662.0 768.0Q677 778 696 778Z" transform="translate(206.820 35.940) scale(0.018000 -0.018000)"/><path d="M505 635V522Q505 480 500.0 446.5Q495 413 481.0 383.0Q467 353 442.0 324.5Q417 296 377.5 264.5Q338 233 282.0 196.0Q226 159 149 112Q132 102 115.0 108.5Q98 115 88 129Q78 143 78.5 162.0Q79 181 96 192Q167 235 217.5 267.5Q268 300 302.0 326.5Q336 353 356.5 375.5Q377 398 388.0 420.5Q399 443 402.0 468.5Q405 494 405 526V603Q405 614 400.5 618.5Q396 623 384 623H124Q105 623 96.5 636.0Q88 649 88 666Q88 684 96.5 697.0Q105 710 124 710H428Q472 710 488.5 694.0Q505 678 505 635ZM738 778Q758 778 773.5 768.0Q789 758 789 736V-44Q789 -66 773.5 -76.0Q758 -86 738 -86Q719 -86 703.5 -76.0Q688 -66 688 -44V736Q688 758 703.5 768.0Q719 778 738 778Z" transform="translate(223.200 35.940) scale(0.018000 -0.018000)"/></g></svg>