<svg xmlns="http://www.w3.org/2000/svg" width="160" height="80" viewBox="0 0 160 80" role="img" aria-label="sparkle group"><title>sparkle group</title><path d="M 24 17 C 26 29 27 30 39 32 C 27 34 26 35 24 47 C 22 35 21 34 9 32 C 21 30 22 29 24 17Z" fill="#FFD84D" stroke-width="1" stroke-linecap="round" stroke-linejoin="round" opacity="1"/><path d="M 66 11 C 68 17 69 18 75 20 C 69 22 68 23 66 29 C 64 23 63 22 57 20 C 63 18 64 17 66 11Z" fill="#7ED7F2" stroke-width="1" stroke-linecap="round" stroke-linejoin="round" opacity="1"/><path d="M 101 30 C 103 40 104 41 114 43 C 104 45 103 46 101 56 C 99 46 98 45 88 43 C 98 41 99 40 101 30Z" fill="#4CC48B" stroke-width="1" stroke-linecap="round" stroke-linejoin="round" opacity="1"/><path d="M 137 13 C 139 20 140 21 147 23 C 140 25 139 26 137 33 C 135 26 134 25 127 23 C 134 21 135 20 137 13Z" fill="#FF8DB0" stroke-width="1" stroke-linecap="round" stroke-linejoin="round" opacity="1"/></svg>