<svg xmlns="http://www.w3.org/2000/svg" width="280" height="280" viewBox="0 0 280 280" role="img" aria-label="Score ring 86"><title>Score ring 86</title><defs><linearGradient id="chart-score-86-ring" x1="0%" y1="0%" x2="100%" y2="100%"><stop offset="0%" stop-color="#4CC48B" stop-opacity="1"/><stop offset="100%" stop-color="#7ED7F2" stop-opacity="1"/></linearGradient><linearGradient id="chart-score-86-potato" x1="0%" y1="0%" x2="100%" y2="100%"><stop offset="0%" stop-color="#E8B36F" stop-opacity="1"/><stop offset="100%" stop-color="#B97A3E" stop-opacity="1"/></linearGradient></defs><circle cx="140" cy="140" r="98" fill="none" stroke="#E6F1EA" stroke-width="24" opacity="1"/><circle cx="140" cy="140" r="98" fill="none" stroke="url(#chart-score-86-ring)" stroke-width="24" stroke-linecap="round" stroke-dasharray="529.55 86.21" transform="rotate(-90 140 140)"/><g fill="#1E5E3E" opacity="1"><path d="M304 726Q357 726 398.5 710.5Q440 695 468.5 669.0Q497 643 512.0 608.5Q527 574 527 535V526Q527 481 500.5 438.5Q474 396 421 369Q476 353 512.0 308.0Q548 263 548 203V191Q548 148 531.5 111.5Q515 75 484.0 49.0Q453 23 408.5 8.0Q364 -7 307 -7Q249 -7 203.5 8.0Q158 23 126.5 49.0Q95 75 78.5 111.5Q62 148 62 191V203Q62 233 72.0 259.5Q82 286 99.0 308.0Q116 330 139.0 345.5Q162 361 189 369Q137 394 109.5 437.5Q82 481 82 526V535Q82 574 96.5 608.5Q111 643 139.0 669.0Q167 695 208.5 710.5Q250 726 304 726ZM305 638Q250 638 216.5 609.0Q183 580 183 529V523Q183 496 193.0 475.5Q203 455 219.5 440.5Q236 426 258.5 418.5Q281 411 306 411Q357 411 392.0 440.0Q427 469 427 523V529Q427 580 394.0 609.0Q361 638 305 638ZM306 323Q277 323 251.5 315.5Q226 308 206.5 293.0Q187 278 175.5 255.0Q164 232 164 202V196Q164 145 202.0 113.0Q240 81 306 81Q372 81 409.0 113.0Q446 145 446 196V202Q446 232 435.0 254.5Q424 277 405.5 292.0Q387 307 361.5 315.0Q336 323 306 323Z" transform="translate(103.400 139.800) scale(0.060000 -0.060000)"/><path d="M342 726Q391 726 432.0 716.0Q473 706 501 690Q518 679 522.5 663.5Q527 648 519 631Q511 613 495.5 607.0Q480 601 460 609Q433 622 403.0 628.5Q373 635 338 635Q179 635 163 387Q188 426 236.0 447.5Q284 469 337 469Q389 469 430.5 453.0Q472 437 501.0 407.0Q530 377 545.5 335.0Q561 293 561 241V225Q561 173 543.5 130.5Q526 88 493.5 57.5Q461 27 415.5 10.0Q370 -7 315 -7Q192 -7 128.0 71.0Q64 149 64 296V324Q64 441 85.0 518.0Q106 595 143.0 641.5Q180 688 231.0 707.0Q282 726 342 726ZM317 381Q280 381 252.0 370.0Q224 359 205.0 340.0Q186 321 176.5 295.5Q167 270 167 242V234Q167 165 206.0 124.5Q245 84 313 84Q383 84 423.0 121.0Q463 158 463 229V236Q463 381 317 381Z" transform="translate(140.000 139.800) scale(0.060000 -0.060000)"/></g><g fill="#6B7280" opacity="1"><path d="M366 798Q383 793 392.5 779.5Q402 766 396 747L110 -104Q103 -124 86.0 -129.0Q69 -134 51 -129Q34 -124 25.0 -110.5Q16 -97 22 -78L308 773Q315 793 331.5 798.0Q348 803 366 798Z" transform="translate(119.768 180.940) scale(0.018000 -0.018000)"/><path d="M371 720Q394 720 408.5 710.0Q423 700 423 677V41Q423 19 408.0 9.0Q393 -1 373 -1Q353 -1 338.0 9.0Q323 19 323 41V602L173 510Q154 499 137.0 506.0Q120 513 110 530Q102 546 104.5 563.5Q107 581 125 591L304 698Q324 709 340.0 714.5Q356 720 371 720Z" transform="translate(127.292 180.940) scale(0.018000 -0.018000)"/><path d="M305 726Q440 726 500.5 638.0Q561 550 561 384V335Q561 169 500.5 81.0Q440 -7 305 -7Q170 -7 109.5 81.0Q49 169 49 335V384Q49 550 109.5 638.0Q170 726 305 726ZM305 632Q261 632 231.0 617.0Q201 602 183.0 570.5Q165 539 157.5 491.0Q150 443 150 376V343Q150 276 157.5 228.0Q165 180 183.0 148.5Q201 117 231.0 102.0Q261 87 305 87Q349 87 379.0 102.0Q409 117 427.0 148.5Q445 180 452.5 228.0Q460 276 460 343V376Q460 443 452.5 491.0Q445 539 427.0 570.5Q409 602 379.0 617.0Q349 632 305 632Z" transform="translate(138.272 180.940) scale(0.018000 -0.018000)"/><path d="M305 726Q440 726 500.5 638.0Q561 550 561 384V335Q561 169 500.5 81.0Q440 -7 305 -7Q170 -7 109.5 81.0Q49 169 49 335V384Q49 550 109.5 638.0Q170 726 305 726ZM305 632Q261 632 231.0 617.0Q201 602 183.0 570.5Q165 539 157.5 491.0Q150 443 150 376V343Q150 276 157.5 228.0Q165 180 183.0 148.5Q201 117 231.0 102.0Q261 87 305 87Q349 87 379.0 102.0Q409 117 427.0 148.5Q445 180 452.5 228.0Q460 276 460 343V376Q460 443 452.5 491.0Q445 539 427.0 570.5Q409 602 379.0 617.0Q349 632 305 632Z" transform="translate(149.252 180.940) scale(0.018000 -0.018000)"/></g><path d="M195.86 208.56 C197.96 193.02 214.76 190.92 224.84 198.06 C239.96 195.96 247.51999999999998 209.4 242.9 221.57999999999998 C245.42 233.76 232.4 241.32 220.22 237.12 C209.72 243.42 196.7 235.01999999999998 198.38 224.51999999999998 C188.72 219.06 190.4 211.92 195.86 208.56Z" fill="url(#chart-score-86-potato)" stroke-width="1" stroke-linecap="round" stroke-linejoin="round" opacity="1"/><ellipse cx="207.2" cy="207.3" rx="2.1" ry="1.26" fill="#8F5D34" stroke-width="1" opacity="0.7"/><ellipse cx="225.26" cy="204.36" rx="2.1" ry="1.26" fill="#8F5D34" stroke-width="1" opacity="0.7"/><ellipse cx="215.18" cy="220.32" rx="2.1" ry="1.26" fill="#8F5D34" stroke-width="1" opacity="0.7"/><ellipse cx="234.92" cy="223.68" rx="2.1" ry="1.26" fill="#8F5D34" stroke-width="1" opacity="0.7"/><ellipse cx="204.68" cy="226.62" rx="2.1" ry="1.26" fill="#8F5D34" stroke-width="1" opacity="0.7"/><ellipse cx="222.74" cy="232.92" rx="2.1" ry="1.26" fill="#8F5D34" stroke-width="1" opacity="0.7"/><path d="M202.57999999999998 213.18 C209.72 204.36 218.12 198.9 228.62 198.9" fill="none" stroke="#F5CE91" stroke-width="2.52" stroke-linecap="round" stroke-linejoin="round" opacity="0.45"/></svg>