<svg xmlns="http://www.w3.org/2000/svg" width="180" height="160" viewBox="0 0 180 160" role="img" aria-label="snow"><title>snow</title><circle cx="62" cy="62" r="30" fill="#E5EBF2" stroke-width="1" opacity="1"/><circle cx="104" cy="50" r="38" fill="#EDF2F7" stroke-width="1" opacity="1"/><circle cx="143" cy="68" r="26" fill="#E5EBF2" stroke-width="1" opacity="1"/><rect x="34" y="67" width="130" height="36" rx="18" fill="#E5EBF2" stroke-width="1" opacity="1"/><line x1="54" y1="130" x2="70" y2="130" stroke="#9FD9F7" stroke-width="3" stroke-linecap="round" opacity="1"/><line x1="62" y1="122" x2="62" y2="138" stroke="#9FD9F7" stroke-width="3" stroke-linecap="round" opacity="1"/><line x1="56" y1="124" x2="68" y2="136" stroke="#9FD9F7" stroke-width="3" stroke-linecap="round" opacity="1"/><line x1="68" y1="124" x2="56" y2="136" stroke="#9FD9F7" stroke-width="3" stroke-linecap="round" opacity="1"/><line x1="86" y1="130" x2="102" y2="130" stroke="#9FD9F7" stroke-width="3" stroke-linecap="round" opacity="1"/><line x1="94" y1="122" x2="94" y2="138" stroke="#9FD9F7" stroke-width="3" stroke-linecap="round" opacity="1"/><line x1="88" y1="124" x2="100" y2="136" stroke="#9FD9F7" stroke-width="3" stroke-linecap="round" opacity="1"/><line x1="100" y1="124" x2="88" y2="136" stroke="#9FD9F7" stroke-width="3" stroke-linecap="round" opacity="1"/><line x1="118" y1="130" x2="134" y2="130" stroke="#9FD9F7" stroke-width="3" stroke-linecap="round" opacity="1"/><line x1="126" y1="122" x2="126" y2="138" stroke="#9FD9F7" stroke-width="3" stroke-linecap="round" opacity="1"/><line x1="120" y1="124" x2="132" y2="136" stroke="#9FD9F7" stroke-width="3" stroke-linecap="round" opacity="1"/><line x1="132" y1="124" x2="120" y2="136" stroke="#9FD9F7" stroke-width="3" stroke-linecap="round" opacity="1"/></svg>