<svg xmlns="http://www.w3.org/2000/svg" width="220" height="240" viewBox="0 0 220 240" role="img" aria-label="water-drop"><title>water-drop</title><defs><linearGradient id="water-drop-drop" x1="0%" y1="0%" x2="100%" y2="100%"><stop offset="0%" stop-color="#DDF6FF" stop-opacity="1"/><stop offset="100%" stop-color="#7ED7F2" stop-opacity="1"/></linearGradient></defs><path d="M110 18 C82 58 48 94 48 139 C48 183 76 213 110 213 C144 213 172 183 172 139 C172 94 138 58 110 18Z" fill="url(#water-drop-drop)" stroke-width="1" stroke-linecap="round" stroke-linejoin="round" opacity="1"/><path d="M84 78 C69 98 64 116 65 130" fill="none" stroke="#fff" stroke-width="10" stroke-linecap="round" stroke-linejoin="round" opacity="0.65"/><circle cx="91" cy="132" r="5" fill="#1F2937" stroke-width="1" opacity="1"/><circle cx="129" cy="132" r="5" fill="#1F2937" stroke-width="1" opacity="1"/><path d="M95 153 Q110 167 125 153" fill="none" stroke="#1F2937" stroke-width="4" stroke-linecap="round" stroke-linejoin="round" opacity="1"/><ellipse cx="77" cy="151" rx="10" ry="6" fill="#FF9E99" stroke-width="1" opacity="0.45"/><ellipse cx="143" cy="151" rx="10" ry="6" fill="#FF9E99" stroke-width="1" opacity="0.45"/><path d="M52 150 Q27 151 20 132" fill="none" stroke="#55C2E1" stroke-width="12" stroke-linecap="round" stroke-linejoin="round" opacity="1"/><path d="M168 150 Q193 151 200 132" fill="none" stroke="#55C2E1" stroke-width="12" stroke-linecap="round" stroke-linejoin="round" opacity="1"/><ellipse cx="82" cy="223" rx="22" ry="8" fill="#6A4A32" stroke-width="1" opacity="1"/><ellipse cx="138" cy="223" rx="22" ry="8" fill="#6A4A32" stroke-width="1" opacity="1"/></svg>