<svg xmlns="http://www.w3.org/2000/svg" width="220" height="230" viewBox="0 0 220 230" role="img" aria-label="Water drop alert character"><title>Water drop alert character</title><defs>
<linearGradient id="gGreen" x1="0" y1="0" x2="1" y2="1"><stop offset="0" stop-color="#4CC48B"/><stop offset="1" stop-color="#1E5E3E"/></linearGradient>
<linearGradient id="gMint" x1="0" y1="0" x2="1" y2="1"><stop offset="0" stop-color="#F6FFF8"/><stop offset="1" stop-color="#E9F7EC"/></linearGradient>
<linearGradient id="gBlue" x1="0" y1="0" x2="1" y2="1"><stop offset="0" stop-color="#DDF6FF"/><stop offset="1" stop-color="#8ED7F4"/></linearGradient>
<linearGradient id="gYellow" x1="0" y1="0" x2="1" y2="1"><stop offset="0" stop-color="#FFF8D8"/><stop offset="1" stop-color="#FFE1A4"/></linearGradient>
<filter id="shadow" x="-30%" y="-30%" width="160%" height="160%"><feDropShadow dx="0" dy="6" stdDeviation="8" flood-color="#103A26" flood-opacity=".11"/></filter>
<filter id="shadowSmall" x="-30%" y="-30%" width="160%" height="160%"><feDropShadow dx="0" dy="3" stdDeviation="4" flood-color="#103A26" flood-opacity=".09"/></filter>
</defs><path d="M110 18 C82 58 49 91 49 132 C49 171 76 199 110 199 C144 199 171 171 171 132 C171 91 138 58 110 18Z" fill="url(#gBlue)" stroke="none" stroke-width="1" stroke-linecap="round" stroke-linejoin="round" opacity="1"/><path d="M84 77 C69 96 64 112 65 128" fill="none" stroke="#FFFFFF" stroke-width="10" stroke-linecap="round" stroke-linejoin="round" opacity="0.65"/><circle cx="91" cy="126" r="5" fill="#243341" stroke="none" stroke-width="1" opacity="1"/><circle cx="129" cy="126" r="5" fill="#243341" stroke="none" stroke-width="1" opacity="1"/><path d="M96 145 Q110 157 124 145" fill="none" stroke="#243341" stroke-width="4" stroke-linecap="round" stroke-linejoin="round" opacity="1"/><ellipse cx="77" cy="144" rx="10" ry="6" fill="#FF9E99" stroke="none" stroke-width="1" opacity="0.45"/><ellipse cx="143" cy="144" rx="10" ry="6" fill="#FF9E99" stroke="none" stroke-width="1" opacity="0.45"/><path d="M53 143 Q30 145 24 127" fill="none" stroke="#60C8E6" stroke-width="12" stroke-linecap="round" stroke-linejoin="round" opacity="1"/><path d="M167 143 Q190 145 196 127" fill="none" stroke="#60C8E6" stroke-width="12" stroke-linecap="round" stroke-linejoin="round" opacity="1"/><ellipse cx="82" cy="209" rx="22" ry="8" fill="#6A4A32" stroke="none" stroke-width="1" opacity="1"/><ellipse cx="138" cy="209" rx="22" ry="8" fill="#6A4A32" stroke="none" stroke-width="1" opacity="1"/></svg>