<svg xmlns="http://www.w3.org/2000/svg" width="390" height="66" viewBox="0 0 390 66" role="img" aria-label="지역을 선택하세요"><title>지역을 선택하세요</title><rect x="2" y="2" width="386" height="62" rx="20" fill="#fff" stroke="#E1E8E4" stroke-width="1.5" opacity="1"/><path d="M27.6 37.6 C24.4 33.6 22.0 30.4 22.0 27.2 C22.0 20.8 33.2 20.8 33.2 27.2 C33.2 30.4 30.8 33.6 27.6 37.6Z" fill="#6B7280" stroke-width="1" stroke-linecap="round" stroke-linejoin="round" opacity="1"/><circle cx="27.6" cy="27.2" r="2.4000000000000004" fill="#fff" stroke-width="1" opacity="1"/><g fill="#6B7280" opacity="1"><path d="M556 703Q569 703 575.0 694.0Q581 685 581 671Q581 658 575.0 648.5Q569 639 556 639H370V524Q370 491 374.0 464.5Q378 438 387.0 415.5Q396 393 411.5 371.0Q427 349 451 325Q485 291 518.0 259.5Q551 228 578 205Q589 195 587.5 181.5Q586 168 578 159Q568 150 555.5 147.5Q543 145 532 156Q507 177 478.0 205.0Q449 233 415 267Q391 291 376.5 308.0Q362 325 353.0 338.0Q344 351 340.0 360.5Q336 370 334 378H333Q331 369 327.0 359.5Q323 350 314.0 337.0Q305 324 290.0 307.0Q275 290 252 266Q218 232 187.0 202.5Q156 173 121 143Q109 132 96.0 135.0Q83 138 75 147Q66 158 65.0 171.0Q64 184 75 193Q113 226 147.0 258.5Q181 291 215 325Q239 349 254.5 371.0Q270 393 279.0 415.5Q288 438 292.0 464.5Q296 491 296 524V639H106Q93 639 87.0 648.5Q81 658 81 671Q81 685 87.0 694.0Q93 703 106 703H556ZM743 774Q757 774 768.5 767.0Q780 760 780 744V-52Q780 -68 768.5 -75.0Q757 -82 743 -82Q729 -82 718.0 -75.0Q707 -68 707 -52V744Q707 760 718.0 767.0Q729 774 743 774Z" transform="translate(60.000 33.450) scale(0.015000 -0.015000)"/><path d="M292 736Q348 736 389.5 719.0Q431 702 458.0 673.0Q485 644 498.5 604.5Q512 565 512 519Q512 474 498.5 434.5Q485 395 458.0 365.5Q431 336 389.5 319.5Q348 303 292 303Q236 303 194.5 319.5Q153 336 126.0 365.5Q99 395 85.5 434.5Q72 474 72 519Q72 565 85.5 604.5Q99 644 126.0 673.0Q153 702 194.5 719.0Q236 736 292 736ZM292 673Q252 673 223.5 660.5Q195 648 177.0 627.0Q159 606 151.0 578.0Q143 550 143 519Q143 488 151.0 460.0Q159 432 177.0 411.0Q195 390 223.5 377.5Q252 365 292 365Q332 365 360.5 377.5Q389 390 407.0 411.0Q425 432 433.0 460.0Q441 488 441 519Q441 550 433.0 578.0Q425 606 407.0 627.0Q389 648 360.5 660.5Q332 673 292 673ZM750 774Q764 774 775.0 767.0Q786 760 786 744V269Q786 253 775.0 246.0Q764 239 750 239Q736 239 725.0 246.0Q714 253 714 269V397H571Q558 397 552.0 406.0Q546 415 546 429Q546 442 552.0 451.0Q558 460 571 460H714V574H571Q558 574 552.0 583.5Q546 593 546 606Q546 619 552.0 628.0Q558 637 571 637H714V744Q714 760 725.0 767.0Q736 774 750 774ZM717 188Q756 188 771.0 173.5Q786 159 786 121V-118Q786 -134 774.5 -141.0Q763 -148 749 -148Q735 -148 724.0 -141.0Q713 -134 713 -118V107Q713 125 694 125H222Q209 125 203.0 134.0Q197 143 197 156Q197 170 203.0 179.0Q209 188 222 188H717Z" transform="translate(73.650 33.450) scale(0.015000 -0.015000)"/><path d="M455 763Q598 763 674.5 725.0Q751 687 751 607Q751 528 674.5 490.0Q598 452 455 452Q312 452 235.5 490.0Q159 528 159 607Q159 687 235.5 725.0Q312 763 455 763ZM455 703Q340 703 286.0 679.0Q232 655 232 607Q232 560 286.0 535.5Q340 511 455 511Q570 511 624.0 535.5Q678 560 678 607Q678 655 624.0 679.0Q570 703 455 703ZM847 374Q860 374 866.0 365.0Q872 356 872 343Q872 330 866.0 321.0Q860 312 847 312H63Q50 312 44.0 321.0Q38 330 38 343Q38 356 44.0 365.0Q50 374 63 374H847ZM683 218Q722 218 737.0 203.5Q752 189 752 151V77Q752 39 737.0 24.5Q722 10 683 10H244Q228 10 228 -6V-68Q228 -83 244 -83H753Q765 -83 770.5 -92.0Q776 -101 776 -112Q776 -124 770.5 -133.0Q765 -142 753 -142H226Q187 -142 172.0 -127.5Q157 -113 157 -75V0Q157 38 172.0 52.5Q187 67 226 67H665Q682 67 682 82V144Q682 160 665 160H179Q167 160 161.0 168.5Q155 177 155 189Q155 200 161.0 209.0Q167 218 179 218H683Z" transform="translate(87.300 33.450) scale(0.015000 -0.015000)"/><path d="M322 736Q336 736 347.5 729.0Q359 722 359 706V589Q359 538 375.0 499.5Q391 461 429 428Q467 396 498.0 371.0Q529 346 558 325Q571 315 571.5 301.5Q572 288 564 278Q556 267 543.5 264.0Q531 261 518 271Q492 290 461.0 314.5Q430 339 395 369Q357 401 342.0 422.5Q327 444 323 460H322Q318 443 302.5 420.5Q287 398 249 366Q214 336 178.5 308.0Q143 280 109 256Q96 246 83.5 249.5Q71 253 63 264Q55 274 55.0 287.5Q55 301 68 311Q142 364 214 427Q252 460 268.5 498.0Q285 536 285 587V706Q285 722 296.0 729.0Q307 736 322 736ZM750 774Q764 774 775.0 767.0Q786 760 786 744V134Q786 118 775.0 111.0Q764 104 750 104Q736 104 725.0 111.0Q714 118 714 134V500H535Q522 500 516.0 509.0Q510 518 510 532Q510 545 516.0 554.5Q522 564 535 564H714V744Q714 760 725.0 767.0Q736 774 750 774ZM252 182Q266 182 277.5 175.0Q289 168 289 152V-44Q289 -62 308 -62H786Q800 -62 806.0 -71.5Q812 -81 812 -94Q812 -107 806.0 -116.5Q800 -126 786 -126H284Q245 -126 230.0 -111.5Q215 -97 215 -59V152Q215 168 226.5 175.0Q238 182 252 182Z" transform="translate(104.700 33.450) scale(0.015000 -0.015000)"/><path d="M407 721Q420 721 426.0 712.0Q432 703 432 690Q432 677 426.0 668.0Q420 659 407 659H160Q141 659 141 640V532H392Q405 532 411.0 522.5Q417 513 417 501Q417 489 411.0 480.0Q405 471 392 471H141V359Q141 340 160 340Q196 340 235.0 341.5Q274 343 312.0 345.0Q350 347 384.5 350.5Q419 354 448 359Q459 361 467.0 353.0Q475 345 477 332Q479 318 473.5 308.0Q468 298 456 296Q411 288 327.0 283.0Q243 278 139 278Q100 278 85.0 292.5Q70 307 70 345V654Q70 692 85.0 706.5Q100 721 139 721H407ZM774 774Q788 774 798.5 767.0Q809 760 809 745V247Q809 232 798.5 225.5Q788 219 774 219Q761 219 750.5 225.5Q740 232 740 247V472H607V252Q607 237 596.5 230.5Q586 224 572 224Q559 224 548.5 230.5Q538 237 538 252V740Q538 755 548.5 762.0Q559 769 572 769Q586 769 596.5 762.0Q607 755 607 740V535H740V745Q740 760 750.5 767.0Q761 774 774 774ZM740 168Q779 168 794.0 153.5Q809 139 809 101V-118Q809 -134 797.5 -141.0Q786 -148 772 -148Q758 -148 747.0 -141.0Q736 -134 736 -118V87Q736 105 717 105H224Q211 105 205.0 114.0Q199 123 199 136Q199 150 205.0 159.0Q211 168 224 168H740Z" transform="translate(118.350 33.450) scale(0.015000 -0.015000)"/><path d="M311 500Q360 500 399.0 485.5Q438 471 465.0 445.5Q492 420 506.0 384.5Q520 349 520 307Q520 265 506.0 229.5Q492 194 465.0 168.5Q438 143 399.0 128.5Q360 114 311 114Q262 114 223.0 128.5Q184 143 157.0 168.5Q130 194 116.0 229.5Q102 265 102 307Q102 349 116.0 384.5Q130 420 157.0 445.5Q184 471 223.0 485.5Q262 500 311 500ZM311 774Q325 774 336.5 767.0Q348 760 348 744V643H549Q562 643 568.0 634.0Q574 625 574 612Q574 598 568.0 589.0Q562 580 549 580H63Q49 580 43.0 589.0Q37 598 37 612Q37 625 43.0 634.0Q49 643 63 643H274V744Q274 760 285.5 767.0Q297 774 311 774ZM311 439Q245 439 207.5 402.5Q170 366 170 307Q170 248 207.5 211.5Q245 175 311 175Q377 175 414.5 211.5Q452 248 452 307Q452 366 414.5 402.5Q377 439 311 439ZM701 774Q715 774 726.0 767.0Q737 760 737 744V455H864Q878 455 884.0 445.5Q890 436 890 423Q890 409 884.0 399.5Q878 390 864 390H737V-52Q737 -68 726.0 -75.0Q715 -82 701 -82Q687 -82 676.0 -75.0Q665 -68 665 -52V744Q665 760 676.0 767.0Q687 774 701 774Z" transform="translate(132.000 33.450) scale(0.015000 -0.015000)"/><path d="M265 721Q279 721 290.5 714.0Q302 707 302 691V526Q302 494 305.0 468.5Q308 443 315.5 421.0Q323 399 335.5 378.0Q348 357 367 335Q396 300 423.5 269.5Q451 239 474 214Q483 204 482.0 190.5Q481 177 471 168Q462 160 449.0 159.5Q436 159 425 170Q407 187 382.5 214.5Q358 242 332 273Q294 316 281.5 340.0Q269 364 267 380H266Q264 372 260.5 362.0Q257 352 249.5 339.5Q242 327 230.0 310.0Q218 293 199 271Q173 240 146.5 210.5Q120 181 94 154Q83 143 69.0 144.5Q55 146 47 154Q37 163 35.5 176.5Q34 190 44 201Q74 233 104.5 266.5Q135 300 164 335Q183 357 195.5 378.0Q208 399 215.5 421.0Q223 443 226.0 468.5Q229 494 229 526V691Q229 707 240.0 714.0Q251 721 265 721ZM774 774Q788 774 798.5 767.0Q809 760 809 745V-53Q809 -68 798.5 -75.0Q788 -82 774 -82Q761 -82 750.5 -75.0Q740 -68 740 -53V745Q740 760 750.5 767.0Q761 774 774 774ZM598 764Q611 764 621.5 757.0Q632 750 632 735V-11Q632 -26 621.5 -33.0Q611 -40 598 -40Q584 -40 573.5 -33.0Q563 -26 563 -11V435H437Q423 435 417.0 444.0Q411 453 411 467Q411 480 417.0 489.5Q423 499 437 499H563V735Q563 750 573.5 757.0Q584 764 598 764Z" transform="translate(145.650 33.450) scale(0.015000 -0.015000)"/><path d="M455 737Q599 737 676.5 675.5Q754 614 754 505Q754 396 676.5 334.5Q599 273 455 273Q311 273 233.5 334.5Q156 396 156 505Q156 614 233.5 675.5Q311 737 455 737ZM455 675Q398 675 355.5 662.0Q313 649 285.0 626.5Q257 604 243.0 573.0Q229 542 229 505Q229 469 243.0 438.0Q257 407 285.0 384.5Q313 362 355.5 349.0Q398 336 455 336Q512 336 554.5 349.0Q597 362 625.0 384.5Q653 407 667.0 438.0Q681 469 681 505Q681 542 667.0 573.0Q653 604 625.0 626.5Q597 649 554.5 662.0Q512 675 455 675ZM296 250Q311 250 322.0 243.0Q333 236 333 220V73H577V220Q577 236 588.0 243.0Q599 250 613 250Q627 250 638.5 243.0Q650 236 650 220V73H847Q860 73 866.0 64.0Q872 55 872 42Q872 29 866.0 20.0Q860 11 847 11H63Q50 11 44.0 20.0Q38 29 38 42Q38 55 44.0 64.0Q50 73 63 73H260V220Q260 236 271.0 243.0Q282 250 296 250Z" transform="translate(159.300 33.450) scale(0.015000 -0.015000)"/></g><polyline points="353.2,27.4 359.6,33.8 366.0,27.4" fill="none" stroke="#6B7280" stroke-width="1.6" stroke-linecap="round" stroke-linejoin="round" opacity="1"/></svg>