<svg xmlns="http://www.w3.org/2000/svg" width="380" height="58" viewBox="0 0 380 58" role="img" aria-label="지역을 선택하세요"><title>지역을 선택하세요</title><defs>
<linearGradient id="gGreen" x1="0" y1="0" x2="1" y2="1"><stop offset="0" stop-color="#4CC48B"/><stop offset="1" stop-color="#1E5E3E"/></linearGradient>
<linearGradient id="gMint" x1="0" y1="0" x2="1" y2="1"><stop offset="0" stop-color="#F6FFF8"/><stop offset="1" stop-color="#E9F7EC"/></linearGradient>
<linearGradient id="gBlue" x1="0" y1="0" x2="1" y2="1"><stop offset="0" stop-color="#DDF6FF"/><stop offset="1" stop-color="#8ED7F4"/></linearGradient>
<linearGradient id="gYellow" x1="0" y1="0" x2="1" y2="1"><stop offset="0" stop-color="#FFF8D8"/><stop offset="1" stop-color="#FFE1A4"/></linearGradient>
<filter id="shadow" x="-30%" y="-30%" width="160%" height="160%"><feDropShadow dx="0" dy="6" stdDeviation="8" flood-color="#103A26" flood-opacity=".11"/></filter>
<filter id="shadowSmall" x="-30%" y="-30%" width="160%" height="160%"><feDropShadow dx="0" dy="3" stdDeviation="4" flood-color="#103A26" flood-opacity=".09"/></filter>
</defs><rect x="1" y="1" width="378" height="56" rx="16" fill="#fff" stroke="#E1E8E4" stroke-width="1.5" opacity="1"/><g transform="translate(15 17) scale(.85)" opacity="1"><g fill="none" stroke="#6B7280" stroke-width="1.8" stroke-linecap="round" stroke-linejoin="round"><path d="M20 10c0 6-8 11-8 11S4 16 4 10a8 8 0 1 1 16 0z"/><circle cx="12" cy="10" r="2.5"/></g></g><text x="52" y="36" font-family="Pretendard, 'Noto Sans KR', Arial, sans-serif" font-size="15" font-weight="500" fill="#9CA3AF" text-anchor="start" opacity="1">지역을 선택하세요</text><path d="M348 24 L354 30 L360 24" fill="none" stroke="#6B7280" stroke-width="2.2" stroke-linecap="round" stroke-linejoin="round" opacity="1"/></svg>