<svg xmlns="http://www.w3.org/2000/svg" width="390" height="66" viewBox="0 0 390 66" role="img" aria-label="궁금한 것을 입력하세요..."><title>궁금한 것을 입력하세요...</title><rect x="2" y="2" width="386" height="62" rx="20" fill="#fff" stroke="#E1E8E4" stroke-width="1.5" opacity="1"/><g fill="#9AA4AD" opacity="1"><path d="M674 735Q713 735 728.0 720.5Q743 706 743 668V614Q743 544 732.0 477.5Q721 411 704 364L638 379Q671 487 671 609V654Q671 672 652 672H174Q161 672 155.0 681.0Q149 690 149 704Q149 717 155.0 726.0Q161 735 174 735H674ZM847 403Q860 403 866.0 394.0Q872 385 872 372Q872 359 866.0 350.0Q860 341 847 341H491V152H419V341H63Q50 341 44.0 350.0Q38 359 38 372Q38 385 44.0 394.0Q50 403 63 403H847ZM455 195Q598 195 675.5 150.5Q753 106 753 21Q753 -64 675.5 -108.5Q598 -153 455 -153Q312 -153 234.5 -108.5Q157 -64 157 21Q157 106 234.5 150.5Q312 195 455 195ZM455 136Q340 136 285.0 104.5Q230 73 230 21Q230 -31 285.0 -62.5Q340 -94 455 -94Q570 -94 625.0 -62.5Q680 -31 680 21Q680 73 625.0 104.5Q570 136 455 136Z" transform="translate(22.000 33.450) scale(0.015000 -0.015000)"/><path d="M674 735Q713 735 728.0 720.5Q743 706 743 668V614Q743 544 732.0 477.5Q721 411 704 364L638 379Q671 487 671 609V654Q671 672 652 672H174Q161 672 155.0 681.0Q149 690 149 704Q149 717 155.0 726.0Q161 735 174 735H674ZM846 396Q860 396 866.0 387.0Q872 378 872 364Q872 351 866.0 342.0Q860 333 846 333H64Q50 333 44.0 342.0Q38 351 38 364Q38 378 44.0 387.0Q50 396 64 396H846ZM684 196Q723 196 738.0 181.5Q753 167 753 129V-68Q753 -106 738.0 -120.5Q723 -135 684 -135H226Q187 -135 172.0 -120.5Q157 -106 157 -68V129Q157 167 172.0 181.5Q187 196 226 196ZM248 135Q229 135 229 117V-56Q229 -74 248 -74H662Q681 -74 681 -56V117Q681 135 662 135Z" transform="translate(35.650 33.450) scale(0.015000 -0.015000)"/><path d="M309 533Q407 533 461.5 488.5Q516 444 516 370Q516 296 461.5 251.5Q407 207 309 207Q211 207 156.5 251.5Q102 296 102 370Q102 444 156.5 488.5Q211 533 309 533ZM309 776Q323 776 334.5 769.0Q346 762 346 746V667H545Q559 667 565.0 658.0Q571 649 571 636Q571 622 565.0 613.0Q559 604 545 604H63Q49 604 43.0 613.0Q37 622 37 636Q37 649 43.0 658.0Q49 667 63 667H272V746Q272 762 283.5 769.0Q295 776 309 776ZM309 474Q241 474 205.0 445.5Q169 417 169 370Q169 323 205.0 294.5Q241 266 309 266Q377 266 413.0 294.5Q449 323 449 370Q449 417 413.0 445.5Q377 474 309 474ZM701 774Q715 774 726.0 767.0Q737 760 737 744V501H864Q878 501 884.0 491.5Q890 482 890 469Q890 456 884.0 446.5Q878 437 864 437H737V124Q737 108 726.0 101.0Q715 94 701 94Q687 94 676.0 101.0Q665 108 665 124V744Q665 760 676.0 767.0Q687 774 701 774ZM217 144Q231 144 242.5 137.0Q254 130 254 114V-44Q254 -62 273 -62H737Q751 -62 757.0 -71.5Q763 -81 763 -94Q763 -107 757.0 -116.5Q751 -126 737 -126H249Q210 -126 195.0 -111.5Q180 -97 180 -59V114Q180 130 191.5 137.0Q203 144 217 144Z" transform="translate(49.300 33.450) scale(0.015000 -0.015000)"/><path d="M417 721Q456 721 471.0 706.5Q486 692 486 654V580Q486 544 480.5 516.0Q475 488 461.0 464.0Q447 440 421.5 418.0Q396 396 356.5 372.0Q317 348 260.5 320.0Q204 292 128 256Q116 251 103.5 255.5Q91 260 85 273Q79 284 80.5 297.5Q82 311 96 317Q204 367 267.0 400.0Q330 433 362.5 460.0Q395 487 404.5 515.0Q414 543 414 583V639Q414 658 395 658H116Q102 658 96.0 667.0Q90 676 90 689Q90 703 96.0 712.0Q102 721 116 721H417ZM750 774Q764 774 775.0 767.0Q786 760 786 744V212Q786 196 775.0 189.0Q764 182 750 182Q736 182 725.0 189.0Q714 196 714 212V488H464V551H714V744Q714 760 725.0 767.0Q736 774 750 774ZM500 237Q514 237 525.5 230.0Q537 223 537 207V158Q537 131 541.5 111.0Q546 91 557.0 75.0Q568 59 585.5 45.0Q603 31 630 16Q673 -7 718.5 -29.5Q764 -52 811 -72Q822 -77 824.5 -89.0Q827 -101 821 -113Q808 -141 780 -129Q736 -110 695.0 -89.5Q654 -69 615 -49Q559 -19 533.0 3.0Q507 25 502 45H501Q496 25 469.5 2.5Q443 -20 387 -50Q348 -70 307.0 -90.5Q266 -111 222 -130Q208 -136 197.5 -131.5Q187 -127 180 -114Q175 -102 177.5 -89.5Q180 -77 191 -72Q237 -52 283.0 -29.5Q329 -7 372 16Q398 31 416.0 45.0Q434 59 444.5 75.0Q455 91 459.5 111.0Q464 131 464 158V207Q464 223 475.0 230.0Q486 237 500 237Z" transform="translate(66.700 33.450) scale(0.015000 -0.015000)"/><path d="M455 763Q598 763 674.5 725.0Q751 687 751 607Q751 528 674.5 490.0Q598 452 455 452Q312 452 235.5 490.0Q159 528 159 607Q159 687 235.5 725.0Q312 763 455 763ZM455 703Q340 703 286.0 679.0Q232 655 232 607Q232 560 286.0 535.5Q340 511 455 511Q570 511 624.0 535.5Q678 560 678 607Q678 655 624.0 679.0Q570 703 455 703ZM847 374Q860 374 866.0 365.0Q872 356 872 343Q872 330 866.0 321.0Q860 312 847 312H63Q50 312 44.0 321.0Q38 330 38 343Q38 356 44.0 365.0Q50 374 63 374H847ZM683 218Q722 218 737.0 203.5Q752 189 752 151V77Q752 39 737.0 24.5Q722 10 683 10H244Q228 10 228 -6V-68Q228 -83 244 -83H753Q765 -83 770.5 -92.0Q776 -101 776 -112Q776 -124 770.5 -133.0Q765 -142 753 -142H226Q187 -142 172.0 -127.5Q157 -113 157 -75V0Q157 38 172.0 52.5Q187 67 226 67H665Q682 67 682 82V144Q682 160 665 160H179Q167 160 161.0 168.5Q155 177 155 189Q155 200 161.0 209.0Q167 218 179 218H683Z" transform="translate(80.350 33.450) scale(0.015000 -0.015000)"/><path d="M304 738Q361 738 403.5 722.0Q446 706 474.0 677.5Q502 649 516.0 610.5Q530 572 530 527Q530 483 516.0 444.5Q502 406 474.0 377.5Q446 349 403.5 333.0Q361 317 304 317Q247 317 204.5 333.0Q162 349 134.0 377.5Q106 406 92.0 444.5Q78 483 78 527Q78 572 92.0 610.5Q106 649 134.0 677.5Q162 706 204.5 722.0Q247 738 304 738ZM304 676Q262 676 233.0 664.0Q204 652 185.0 631.5Q166 611 157.5 584.0Q149 557 149 527Q149 497 157.5 470.0Q166 443 185.0 423.0Q204 403 233.0 391.0Q262 379 304 379Q346 379 375.0 391.0Q404 403 423.0 423.0Q442 443 450.5 470.0Q459 497 459 527Q459 557 450.5 584.0Q442 611 423.0 631.5Q404 652 375.0 664.0Q346 676 304 676ZM744 774Q758 774 769.0 767.0Q780 760 780 744V315Q780 299 769.0 292.0Q758 285 744 285Q730 285 718.5 292.0Q707 299 707 315V744Q707 760 718.5 767.0Q730 774 744 774ZM249 234Q263 234 274.0 227.0Q285 220 285 205V104H708V205Q708 220 719.0 227.0Q730 234 744 234Q758 234 769.0 227.0Q780 220 780 205V-66Q780 -104 765.0 -118.5Q750 -133 711 -133H282Q243 -133 228.0 -118.5Q213 -104 213 -66V205Q213 220 224.0 227.0Q235 234 249 234ZM285 -53Q285 -72 304 -72H689Q708 -72 708 -53V43H285Z" transform="translate(97.750 33.450) scale(0.015000 -0.015000)"/><path d="M401 727Q440 727 455.0 712.5Q470 698 470 660V533Q470 495 455.0 480.5Q440 466 401 466H185Q174 466 170.0 462.5Q166 459 166 448V343Q166 325 185 325Q283 325 378.5 329.0Q474 333 556 341Q567 343 575.0 335.5Q583 328 585 315Q587 301 581.0 291.0Q575 281 563 279Q491 271 391.5 267.0Q292 263 163 263Q124 263 109.0 277.5Q94 292 94 330V459Q94 497 109.0 511.5Q124 526 163 526H380Q390 526 394.5 529.5Q399 533 399 544V647Q399 658 394.5 661.5Q390 665 380 665H118Q105 665 99.5 674.5Q94 684 94 696Q94 709 99.5 718.0Q105 727 118 727H401ZM750 774Q764 774 775.0 767.0Q786 760 786 744V239Q786 223 775.0 216.0Q764 209 750 209Q736 209 725.0 216.0Q714 223 714 239V415H562Q548 415 542.5 424.0Q537 433 537 446Q537 459 542.5 468.0Q548 477 562 477H714V570H562Q548 570 542.5 579.0Q537 588 537 601Q537 614 542.5 623.0Q548 632 562 632H714V744Q714 760 725.0 767.0Q736 774 750 774ZM717 158Q756 158 771.0 143.5Q786 129 786 91V-118Q786 -134 774.5 -141.0Q763 -148 749 -148Q735 -148 724.0 -141.0Q713 -134 713 -118V77Q713 95 694 95H222Q209 95 203.0 104.0Q197 113 197 126Q197 140 203.0 149.0Q209 158 222 158H717Z" transform="translate(111.400 33.450) scale(0.015000 -0.015000)"/><path d="M311 500Q360 500 399.0 485.5Q438 471 465.0 445.5Q492 420 506.0 384.5Q520 349 520 307Q520 265 506.0 229.5Q492 194 465.0 168.5Q438 143 399.0 128.5Q360 114 311 114Q262 114 223.0 128.5Q184 143 157.0 168.5Q130 194 116.0 229.5Q102 265 102 307Q102 349 116.0 384.5Q130 420 157.0 445.5Q184 471 223.0 485.5Q262 500 311 500ZM311 774Q325 774 336.5 767.0Q348 760 348 744V643H549Q562 643 568.0 634.0Q574 625 574 612Q574 598 568.0 589.0Q562 580 549 580H63Q49 580 43.0 589.0Q37 598 37 612Q37 625 43.0 634.0Q49 643 63 643H274V744Q274 760 285.5 767.0Q297 774 311 774ZM311 439Q245 439 207.5 402.5Q170 366 170 307Q170 248 207.5 211.5Q245 175 311 175Q377 175 414.5 211.5Q452 248 452 307Q452 366 414.5 402.5Q377 439 311 439ZM701 774Q715 774 726.0 767.0Q737 760 737 744V455H864Q878 455 884.0 445.5Q890 436 890 423Q890 409 884.0 399.5Q878 390 864 390H737V-52Q737 -68 726.0 -75.0Q715 -82 701 -82Q687 -82 676.0 -75.0Q665 -68 665 -52V744Q665 760 676.0 767.0Q687 774 701 774Z" transform="translate(125.050 33.450) scale(0.015000 -0.015000)"/><path d="M265 721Q279 721 290.5 714.0Q302 707 302 691V526Q302 494 305.0 468.5Q308 443 315.5 421.0Q323 399 335.5 378.0Q348 357 367 335Q396 300 423.5 269.5Q451 239 474 214Q483 204 482.0 190.5Q481 177 471 168Q462 160 449.0 159.5Q436 159 425 170Q407 187 382.5 214.5Q358 242 332 273Q294 316 281.5 340.0Q269 364 267 380H266Q264 372 260.5 362.0Q257 352 249.5 339.5Q242 327 230.0 310.0Q218 293 199 271Q173 240 146.5 210.5Q120 181 94 154Q83 143 69.0 144.5Q55 146 47 154Q37 163 35.5 176.5Q34 190 44 201Q74 233 104.5 266.5Q135 300 164 335Q183 357 195.5 378.0Q208 399 215.5 421.0Q223 443 226.0 468.5Q229 494 229 526V691Q229 707 240.0 714.0Q251 721 265 721ZM774 774Q788 774 798.5 767.0Q809 760 809 745V-53Q809 -68 798.5 -75.0Q788 -82 774 -82Q761 -82 750.5 -75.0Q740 -68 740 -53V745Q740 760 750.5 767.0Q761 774 774 774ZM598 764Q611 764 621.5 757.0Q632 750 632 735V-11Q632 -26 621.5 -33.0Q611 -40 598 -40Q584 -40 573.5 -33.0Q563 -26 563 -11V435H437Q423 435 417.0 444.0Q411 453 411 467Q411 480 417.0 489.5Q423 499 437 499H563V735Q563 750 573.5 757.0Q584 764 598 764Z" transform="translate(138.700 33.450) scale(0.015000 -0.015000)"/><path d="M455 737Q599 737 676.5 675.5Q754 614 754 505Q754 396 676.5 334.5Q599 273 455 273Q311 273 233.5 334.5Q156 396 156 505Q156 614 233.5 675.5Q311 737 455 737ZM455 675Q398 675 355.5 662.0Q313 649 285.0 626.5Q257 604 243.0 573.0Q229 542 229 505Q229 469 243.0 438.0Q257 407 285.0 384.5Q313 362 355.5 349.0Q398 336 455 336Q512 336 554.5 349.0Q597 362 625.0 384.5Q653 407 667.0 438.0Q681 469 681 505Q681 542 667.0 573.0Q653 604 625.0 626.5Q597 649 554.5 662.0Q512 675 455 675ZM296 250Q311 250 322.0 243.0Q333 236 333 220V73H577V220Q577 236 588.0 243.0Q599 250 613 250Q627 250 638.5 243.0Q650 236 650 220V73H847Q860 73 866.0 64.0Q872 55 872 42Q872 29 866.0 20.0Q860 11 847 11H63Q50 11 44.0 20.0Q38 29 38 42Q38 55 44.0 64.0Q50 73 63 73H260V220Q260 236 271.0 243.0Q282 250 296 250Z" transform="translate(152.350 33.450) scale(0.015000 -0.015000)"/><path d="M115 87Q140 87 156.0 70.5Q172 54 172 30Q172 7 156.0 -9.5Q140 -26 115 -26Q91 -26 74.5 -9.5Q58 7 58 30Q58 54 74.5 70.5Q91 87 115 87Z" transform="translate(166.000 33.450) scale(0.015000 -0.015000)"/><path d="M115 87Q140 87 156.0 70.5Q172 54 172 30Q172 7 156.0 -9.5Q140 -26 115 -26Q91 -26 74.5 -9.5Q58 7 58 30Q58 54 74.5 70.5Q91 87 115 87Z" transform="translate(169.465 33.450) scale(0.015000 -0.015000)"/><path d="M115 87Q140 87 156.0 70.5Q172 54 172 30Q172 7 156.0 -9.5Q140 -26 115 -26Q91 -26 74.5 -9.5Q58 7 58 30Q58 54 74.5 70.5Q91 87 115 87Z" transform="translate(172.930 33.450) scale(0.015000 -0.015000)"/></g><circle cx="354" cy="33" r="22" fill="#2FA86A" stroke-width="1" opacity="1"/><polyline points="346,36 354,28 362,36" fill="none" stroke="#fff" stroke-width="2" stroke-linecap="round" stroke-linejoin="round" opacity="1"/></svg>