<svg xmlns="http://www.w3.org/2000/svg" width="110" height="110" viewBox="0 0 110 110" role="img" aria-label="crop-question"><title>crop-question</title><circle cx="55" cy="55" r="48" fill="#E9F7EC" stroke-width="1" opacity="1"/><path d="M52.0 77.10000000000001 C50.35 61.150000000000006 52.550000000000004 49.050000000000004 52.0 39.7" fill="none" stroke="#398F42" stroke-width="2.75" stroke-linecap="round" stroke-linejoin="round" opacity="1"/><path d="M23.950000000000003 56.75 C21.090000000000003 42.395 29.098000000000003 32.0 42.82600000000001 32.0 C52.550000000000004 35.7125 52.550000000000004 48.830000000000005 23.950000000000003 56.75Z" fill="#54B84C" stroke-width="1" stroke-linecap="round" stroke-linejoin="round" opacity="1" transform="rotate(-20 38.25 44.375)"/><path d="M27.382 51.800000000000004 Q36.82000000000001 43.88 45.114000000000004 36.455" fill="none" stroke="#F4FFF6" stroke-width="1.1440000000000001" stroke-linecap="round" stroke-linejoin="round" opacity="0.75" transform="rotate(-20 38.25 44.375)"/><path d="M50.900000000000006 51.25 C48.150000000000006 37.214 55.85000000000001 27.05 69.05000000000001 27.05 C78.4 30.68 78.4 43.506 50.900000000000006 51.25Z" fill="#3EA845" stroke-width="1" stroke-linecap="round" stroke-linejoin="round" opacity="1" transform="rotate(18 64.65 39.150000000000006)"/><path d="M54.2 46.410000000000004 Q63.275000000000006 38.666000000000004 71.25 31.406000000000002" fill="none" stroke="#F4FFF6" stroke-width="1.1" stroke-linecap="round" stroke-linejoin="round" opacity="0.75" transform="rotate(18 64.65 39.150000000000006)"/></svg>