<svg xmlns="http://www.w3.org/2000/svg" width="390" height="844" viewBox="0 0 390 844" role="img" aria-label="Settings"><title>Settings</title><defs><linearGradient id="screen-settings-hood" x1="0%" y1="0%" x2="100%" y2="100%"><stop offset="0%" stop-color="#4CC48B" stop-opacity="1"/><stop offset="100%" stop-color="#1E5E3E" stop-opacity="1"/></linearGradient><linearGradient id="screen-settings-hood-1" x1="0%" y1="0%" x2="100%" y2="100%"><stop offset="0%" stop-color="#4CC48B" stop-opacity="1"/><stop offset="100%" stop-color="#1E5E3E" stop-opacity="1"/></linearGradient></defs><rect x="0" y="0" width="390" height="844" rx="0" fill="#fff" stroke-width="1" opacity="1"/><rect x="0.5" y="0.5" width="389" height="843" rx="34" fill="none" stroke="#E1E8E4" stroke-width="1" opacity="1"/><g fill="#1F2937" opacity="1"><path d="M319 758Q339 758 354.5 748.0Q370 738 370 716V629Q370 584 385.5 552.5Q401 521 436 495Q471 469 500.0 449.0Q529 429 555 412Q572 401 573.0 383.0Q574 365 563 351Q554 337 537.5 331.5Q521 326 504 337Q482 351 454.0 370.5Q426 390 392 415Q355 442 340.0 460.0Q325 478 321 492H320Q316 476 300.5 457.0Q285 438 247 410Q213 386 181.5 364.0Q150 342 118 321Q101 310 84.0 317.0Q67 324 58 338Q49 352 49.5 370.0Q50 388 67 399Q103 422 135.5 444.5Q168 467 203 493Q238 519 253.5 550.5Q269 582 269 627V716Q269 738 284.0 748.0Q299 758 319 758ZM746 778Q765 778 780.0 768.0Q795 758 795 736V348Q795 326 780.0 316.0Q765 306 746 306Q726 306 711.0 316.0Q696 326 696 348V535H544Q525 535 516.5 548.0Q508 561 508 578Q508 596 516.5 608.5Q525 621 544 621H696V736Q696 758 711.0 768.0Q726 778 746 778ZM718 263Q762 263 778.5 247.0Q795 231 795 188V96Q795 53 778.5 37.0Q762 21 718 21H327Q316 21 311.0 16.5Q306 12 306 0V-43Q306 -64 327 -64H784Q801 -64 809.0 -76.0Q817 -88 817 -104Q817 -120 809.0 -132.0Q801 -144 784 -144H286Q242 -144 225.5 -128.0Q209 -112 209 -69V23Q209 66 225.5 82.0Q242 98 286 98H676Q688 98 692.5 102.5Q697 107 697 119V162Q697 173 692.5 177.5Q688 182 676 182H240Q223 182 215.0 194.0Q207 206 207 223Q207 239 215.0 251.0Q223 263 240 263Z" transform="translate(24.000 39.770) scale(0.019000 -0.019000)"/><path d="M567 683Q567 666 558.5 653.5Q550 641 532 641H372V587Q372 539 387.0 506.0Q402 473 438 444Q473 415 503.5 392.0Q534 369 557 353Q574 340 575.0 323.5Q576 307 565 292Q555 280 538.5 273.5Q522 267 503 280Q486 292 457.5 313.5Q429 335 397 361Q359 391 343.5 410.0Q328 429 324 444H323Q319 427 302.5 407.0Q286 387 248 356Q215 330 184.0 307.0Q153 284 124 264Q107 251 89.5 257.0Q72 263 63 276Q52 291 53.0 308.5Q54 326 71 339Q106 364 139.0 388.0Q172 412 207 441Q242 470 257.0 503.0Q272 536 272 585V641H105Q86 641 77.5 653.5Q69 666 69 683Q69 700 77.5 713.0Q86 726 105 726H532Q550 726 558.5 713.0Q567 700 567 683ZM746 778Q765 778 780.0 768.0Q795 758 795 736V271Q795 250 780.0 240.0Q765 230 746 230Q726 230 711.0 240.0Q696 250 696 271V464H552Q533 464 524.5 477.0Q516 490 516 507Q516 525 524.5 537.5Q533 550 552 550H696V736Q696 758 711.0 768.0Q726 778 746 778ZM507 221Q647 221 723.5 173.5Q800 126 800 32Q800 -62 723.5 -109.5Q647 -157 507 -157Q367 -157 290.5 -109.5Q214 -62 214 32Q214 126 290.5 173.5Q367 221 507 221ZM507 140Q405 140 359.0 110.5Q313 81 313 32Q313 -18 359.0 -47.0Q405 -76 507 -76Q609 -76 655.0 -47.0Q701 -18 701 32Q701 82 655.0 111.0Q609 140 507 140Z" transform="translate(41.290 39.770) scale(0.019000 -0.019000)"/></g><path d="M316 39 H328 C327 37 327 35 327 31 C327 24 317 24 317 31 C317 35 317 37 316 39Z" fill="none" stroke="#1F2937" stroke-width="1.7" stroke-linecap="round" stroke-linejoin="round" opacity="1"/><path d="M320 42 Q322 44 324 42" fill="none" stroke="#1F2937" stroke-width="1.7" stroke-linecap="round" stroke-linejoin="round" opacity="1"/><circle cx="360" cy="34" r="20" fill="#E9F7EC" stroke-width="1" opacity="1"/><ellipse cx="360.6" cy="61.800000000000004" rx="9.92" ry="1.92" fill="#DDE8E1" stroke-width="1" opacity="0.8"/><ellipse cx="356.6" cy="60.2" rx="3.84" ry="1.44" fill="#6C4930" stroke-width="1" opacity="1"/><ellipse cx="364.6" cy="60.2" rx="3.84" ry="1.44" fill="#6C4930" stroke-width="1" opacity="1"/><rect x="354.84" y="53.480000000000004" width="3.52" height="6.72" rx="1.76" fill="#FFB04D" stroke-width="1" opacity="1"/><rect x="362.84" y="53.480000000000004" width="3.52" height="6.72" rx="1.76" fill="#FFB04D" stroke-width="1" opacity="1"/><path d="M351.64 40.36 Q360.6 35.879999999999995 369.56 40.36 L368.28 54.76 Q360.6 57.96 352.92 54.76Z" fill="#FFB04D" stroke-width="1" stroke-linecap="round" stroke-linejoin="round" opacity="1"/><path d="M354.04 42.6 Q360.6 39.400000000000006 367.16 42.6 L366.36 52.2 Q360.6 54.76 354.84 52.2Z" fill="#F5A916" stroke-width="1" stroke-linecap="round" stroke-linejoin="round" opacity="0.78"/><path d="M357.4 49.160000000000004 Q360.6 51.4 363.8 49.160000000000004 L363.48 53.64 Q360.6 55.24 357.72 53.64Z" fill="#FFC62F" stroke-width="1" stroke-linecap="round" stroke-linejoin="round" opacity="0.9"/><path d="M352.12 44.04 Q349.48 42.52 346.84 41.0" fill="none" stroke="#FFB04D" stroke-width="3.2" stroke-linecap="round" stroke-linejoin="round" opacity="1"/><path d="M369.08 44.04 Q371.72 42.52 374.36 41.0" fill="none" stroke="#FFB04D" stroke-width="3.2" stroke-linecap="round" stroke-linejoin="round" opacity="1"/><circle cx="346.84" cy="41.0" r="1.28" fill="#FFD8BF" stroke-width="1" opacity="1"/><circle cx="374.36" cy="41.0" r="1.28" fill="#FFD8BF" stroke-width="1" opacity="1"/><circle cx="360.6" cy="30.92" r="14.56" fill="url(#screen-settings-hood)" stroke-width="1" opacity="1"/><path d="M351.16 32.04 C351.48 23.4 356.28 18.28 363.16 17.16 C356.92 18.92 352.92 23.880000000000003 352.44 31.56 C352.28 35.879999999999995 353.72 39.56 356.6 41.64 C352.76 39.879999999999995 350.84 36.04 351.16 32.04Z" fill="#0B6336" stroke-width="1" stroke-linecap="round" stroke-linejoin="round" opacity="0.28"/><path d="M358.2 16.68 C356.28 12.04 359.32 10.44 362.36 13.32 C362.36 16.52 360.12 17.96 358.2 16.68Z" fill="#2D8A43" stroke-width="1" stroke-linecap="round" stroke-linejoin="round" opacity="1"/><path d="M361.4 14.76 C364.44 10.92 367.48 12.68 367.32 15.879999999999999 C365.08 17.32 363.16 17.16 361.4 14.76Z" fill="#54B858" stroke-width="1" stroke-linecap="round" stroke-linejoin="round" opacity="1"/><circle cx="360.6" cy="32.04" r="10.24" fill="#FFF8EC" stroke-width="1" opacity="1"/><ellipse cx="354.68" cy="33.8" rx="1.6" ry="0.88" fill="#FF9E99" stroke-width="1" opacity="0.5"/><ellipse cx="366.52" cy="33.8" rx="1.6" ry="0.88" fill="#FF9E99" stroke-width="1" opacity="0.5"/><circle cx="357.08" cy="31.080000000000002" r="0.72" fill="#1F2937" stroke-width="1" opacity="1"/><circle cx="364.12" cy="31.080000000000002" r="0.72" fill="#1F2937" stroke-width="1" opacity="1"/><path d="M359.16 34.120000000000005 Q360.6 35.72 362.04 34.120000000000005" fill="none" stroke="#1F2937" stroke-width="0.48" stroke-linecap="round" stroke-linejoin="round" opacity="1"/><path d="M 344.76 27.88 C 346.76 26.16 347.76 27.16 346.03999999999996 29.16 C 347.76 31.16 346.76 32.16 344.76 30.44 C 342.76 32.16 341.76 31.16 343.48 29.16 C 341.76 27.16 342.76 26.16 344.76 27.88Z" fill="#FFD84D" stroke-width="1" stroke-linecap="round" stroke-linejoin="round" opacity="1"/><path d="M 376.92 30.599999999999998 C 378.92 28.72 379.92 29.72 378.04 31.72 C 379.92 33.72 378.92 34.72 376.92 32.839999999999996 C 374.92 34.72 373.92 33.72 375.8 31.72 C 373.92 29.72 374.92 28.72 376.92 30.599999999999998Z" fill="#7ED7F2" stroke-width="1" stroke-linecap="round" stroke-linejoin="round" opacity="1"/><line x1="18" y1="64" x2="372" y2="64" stroke="#E1E8E4" stroke-width="1" stroke-linecap="round" opacity="1"/><rect x="18" y="86" width="354" height="84" rx="15" fill="#F5FBF7" stroke="#D8E9DE" stroke-width="1" opacity="1"/><ellipse cx="66.2" cy="152.6" rx="13.64" ry="2.64" fill="#DDE8E1" stroke-width="1" opacity="0.8"/><ellipse cx="60.7" cy="150.4" rx="5.28" ry="1.98" fill="#6C4930" stroke-width="1" opacity="1"/><ellipse cx="71.7" cy="150.4" rx="5.28" ry="1.98" fill="#6C4930" stroke-width="1" opacity="1"/><rect x="58.28" y="141.16" width="4.84" height="9.24" rx="2.42" fill="#FFB04D" stroke-width="1" opacity="1"/><rect x="69.28" y="141.16" width="4.84" height="9.24" rx="2.42" fill="#FFB04D" stroke-width="1" opacity="1"/><path d="M53.879999999999995 123.12 Q66.2 116.96000000000001 78.52000000000001 123.12 L76.75999999999999 142.92000000000002 Q66.2 147.32 55.64 142.92000000000002Z" fill="#FFB04D" stroke-width="1" stroke-linecap="round" stroke-linejoin="round" opacity="1"/><path d="M57.18 126.2 Q66.2 121.8 75.22 126.2 L74.12 139.4 Q66.2 142.92000000000002 58.28 139.4Z" fill="#F5A916" stroke-width="1" stroke-linecap="round" stroke-linejoin="round" opacity="0.78"/><path d="M61.8 135.22 Q66.2 138.3 70.6 135.22 L70.16 141.38 Q66.2 143.57999999999998 62.239999999999995 141.38Z" fill="#FFC62F" stroke-width="1" stroke-linecap="round" stroke-linejoin="round" opacity="0.9"/><path d="M54.54 128.18 Q50.91 126.09 47.28 124.0" fill="none" stroke="#FFB04D" stroke-width="4.4" stroke-linecap="round" stroke-linejoin="round" opacity="1"/><path d="M77.86 128.18 Q81.49000000000001 126.09 85.12 124.0" fill="none" stroke="#FFB04D" stroke-width="4.4" stroke-linecap="round" stroke-linejoin="round" opacity="1"/><circle cx="47.28" cy="124.0" r="1.76" fill="#FFD8BF" stroke-width="1" opacity="1"/><circle cx="85.12" cy="124.0" r="1.76" fill="#FFD8BF" stroke-width="1" opacity="1"/><circle cx="66.2" cy="110.14" r="20.02" fill="url(#screen-settings-hood-1)" stroke-width="1" opacity="1"/><path d="M53.22 111.68 C53.66 99.8 60.260000000000005 92.76 69.72 91.22 C61.14 93.64 55.64 100.46000000000001 54.980000000000004 111.02 C54.760000000000005 116.96000000000001 56.739999999999995 122.02000000000001 60.7 124.88 C55.42 122.46000000000001 52.78 117.18 53.22 111.68Z" fill="#0B6336" stroke-width="1" stroke-linecap="round" stroke-linejoin="round" opacity="0.28"/><path d="M62.9 90.56 C60.260000000000005 84.18 64.44 81.98 68.62 85.94 C68.62 90.34 65.53999999999999 92.32 62.9 90.56Z" fill="#2D8A43" stroke-width="1" stroke-linecap="round" stroke-linejoin="round" opacity="1"/><path d="M67.3 87.92 C71.47999999999999 82.64 75.66 85.06 75.44 89.46000000000001 C72.36 91.44 69.72 91.22 67.3 87.92Z" fill="#54B858" stroke-width="1" stroke-linecap="round" stroke-linejoin="round" opacity="1"/><circle cx="66.2" cy="111.68" r="14.08" fill="#FFF8EC" stroke-width="1" opacity="1"/><ellipse cx="58.06" cy="114.1" rx="2.2" ry="1.21" fill="#FF9E99" stroke-width="1" opacity="0.5"/><ellipse cx="74.34" cy="114.1" rx="2.2" ry="1.21" fill="#FF9E99" stroke-width="1" opacity="0.5"/><circle cx="61.36" cy="110.36" r="0.99" fill="#1F2937" stroke-width="1" opacity="1"/><circle cx="71.03999999999999" cy="110.36" r="0.99" fill="#1F2937" stroke-width="1" opacity="1"/><path d="M64.22 114.53999999999999 Q66.2 116.74000000000001 68.18 114.53999999999999" fill="none" stroke="#1F2937" stroke-width="0.66" stroke-linecap="round" stroke-linejoin="round" opacity="1"/><path d="M 44.42 105.96 C 46.42 104.72 47.42 105.72 46.18 107.72 C 47.42 109.72 46.42 110.72 44.42 109.48 C 42.42 110.72 41.42 109.72 42.660000000000004 107.72 C 41.42 105.72 42.42 104.72 44.42 105.96Z" fill="#FFD84D" stroke-width="1" stroke-linecap="round" stroke-linejoin="round" opacity="1"/><path d="M 88.64 109.69999999999999 C 90.64 108.24 91.64 109.24 90.18 111.24 C 91.64 113.24 90.64 114.24 88.64 112.78 C 86.64 114.24 85.64 113.24 87.1 111.24 C 85.64 109.24 86.64 108.24 88.64 109.69999999999999Z" fill="#7ED7F2" stroke-width="1" stroke-linecap="round" stroke-linejoin="round" opacity="1"/><g fill="#1F2937" opacity="1"><path d="M305 726Q440 726 500.5 638.0Q561 550 561 384V335Q561 169 500.5 81.0Q440 -7 305 -7Q170 -7 109.5 81.0Q49 169 49 335V384Q49 550 109.5 638.0Q170 726 305 726ZM305 632Q261 632 231.0 617.0Q201 602 183.0 570.5Q165 539 157.5 491.0Q150 443 150 376V343Q150 276 157.5 228.0Q165 180 183.0 148.5Q201 117 231.0 102.0Q261 87 305 87Q349 87 379.0 102.0Q409 117 427.0 148.5Q445 180 452.5 228.0Q460 276 460 343V376Q460 443 452.5 491.0Q445 539 427.0 570.5Q409 602 379.0 617.0Q349 632 305 632Z" transform="translate(107.000 119.450) scale(0.015000 -0.015000)"/><path d="M305 726Q440 726 500.5 638.0Q561 550 561 384V335Q561 169 500.5 81.0Q440 -7 305 -7Q170 -7 109.5 81.0Q49 169 49 335V384Q49 550 109.5 638.0Q170 726 305 726ZM305 632Q261 632 231.0 617.0Q201 602 183.0 570.5Q165 539 157.5 491.0Q150 443 150 376V343Q150 276 157.5 228.0Q165 180 183.0 148.5Q201 117 231.0 102.0Q261 87 305 87Q349 87 379.0 102.0Q409 117 427.0 148.5Q445 180 452.5 228.0Q460 276 460 343V376Q460 443 452.5 491.0Q445 539 427.0 570.5Q409 602 379.0 617.0Q349 632 305 632Z" transform="translate(116.150 119.450) scale(0.015000 -0.015000)"/><path d="M145 737Q165 737 180.0 727.0Q195 717 195 694V433Q195 413 216 413Q320 413 406.0 418.0Q492 423 573 434Q590 436 600.5 425.0Q611 414 613 397Q615 379 608.5 365.0Q602 351 585 349Q550 344 509.5 340.0Q469 336 419.0 333.0Q369 330 308.0 328.5Q247 327 171 327Q127 327 111.0 343.0Q95 359 95 402V694Q95 717 110.0 727.0Q125 737 145 737ZM739 778Q759 778 774.0 768.0Q789 758 789 736V299Q789 277 774.0 267.0Q759 257 739 257Q719 257 704.0 267.0Q689 277 689 299V736Q689 758 704.0 768.0Q719 778 739 778ZM712 214Q756 214 772.5 198.0Q789 182 789 139V-64Q789 -107 772.5 -123.0Q756 -139 712 -139H282Q238 -139 221.5 -123.0Q205 -107 205 -64V139Q205 182 221.5 198.0Q238 214 282 214ZM325 130Q304 130 304 109V-34Q304 -55 325 -55H669Q690 -55 690 -34V109Q690 130 669 130Z" transform="translate(125.300 119.450) scale(0.015000 -0.015000)"/></g><g fill="#6B7280" opacity="1"><path d="M499 715Q513 715 519.0 706.0Q525 697 525 683Q525 669 519.0 660.0Q513 651 499 651H165V388H478Q492 388 498.0 379.0Q504 370 504 357Q504 343 498.0 334.0Q492 325 478 325H165V30Q165 14 154.0 7.0Q143 0 128 0Q114 0 103.0 7.0Q92 14 92 30V649Q92 687 106.5 701.0Q121 715 159 715H499Z" transform="translate(107.000 141.885) scale(0.009500 -0.009500)"/><path d="M275 534Q367 534 419.5 488.0Q472 442 472 362V28Q472 13 461.5 6.5Q451 0 438 0Q425 0 414.5 6.5Q404 13 404 28V77H403Q387 43 346 21Q325 10 298.0 3.0Q271 -4 237 -4Q154 -4 106.0 36.5Q58 77 58 150V160Q58 192 68.5 219.5Q79 247 102.5 267.0Q126 287 162.0 298.5Q198 310 249 310H400V347Q400 410 369.5 440.5Q339 471 273 471Q235 471 200.0 459.5Q165 448 133 428Q121 420 109.5 424.0Q98 428 91 439Q84 450 85.5 462.0Q87 474 99 482Q131 504 177.0 519.0Q223 534 275 534ZM251 252Q184 252 156.5 225.5Q129 199 129 158V152Q129 108 158.0 83.0Q187 58 242 58Q300 58 339 78Q367 93 384.0 117.5Q401 142 401 177V252Z" transform="translate(112.463 141.885) scale(0.009500 -0.009500)"/><path d="M309 534Q343 534 367 525Q391 515 383 486Q375 452 346 458Q335 460 322.0 462.5Q309 465 295 465Q263 465 237.5 452.0Q212 439 194.5 416.0Q177 393 168.0 361.5Q159 330 159 293V30Q159 14 148.0 7.0Q137 0 123 0Q109 0 98.0 7.0Q87 14 87 30V498Q87 513 97.5 520.0Q108 527 122 527Q136 527 146.5 520.0Q157 513 157 498V428H158Q165 447 178.5 466.0Q192 485 211.0 500.0Q230 515 254.5 524.5Q279 534 309 534Z" transform="translate(117.707 141.885) scale(0.009500 -0.009500)"/><path d="M314 534Q378 534 416.5 507.0Q455 480 469 438Q492 480 534.0 507.0Q576 534 642 534Q687 534 720.5 520.0Q754 506 776.0 481.0Q798 456 809.0 421.5Q820 387 820 347V30Q820 14 808.5 7.0Q797 0 783 0Q769 0 758.5 7.0Q748 14 748 30V330Q748 401 719.0 435.5Q690 470 626 470Q592 470 566.5 458.0Q541 446 523.5 427.0Q506 408 497.5 384.5Q489 361 489 337V30Q489 14 478.0 7.0Q467 0 453 0Q439 0 428.0 7.0Q417 14 417 30V330Q417 400 388.5 435.0Q360 470 294 470Q259 470 234.0 457.5Q209 445 192.0 426.0Q175 407 167.0 383.5Q159 360 159 338V30Q159 14 148.0 7.0Q137 0 123 0Q109 0 98.0 7.0Q87 14 87 30V498Q87 513 97.5 520.0Q108 527 121 527Q135 527 145.5 520.0Q156 513 156 498V444Q165 461 179.0 477.5Q193 494 212.5 506.5Q232 519 257.0 526.5Q282 534 314 534Z" transform="translate(121.554 141.885) scale(0.009500 -0.009500)"/><path d="M270 746Q307 746 334 736Q360 727 354 701Q348 673 322 678Q309 682 299.0 683.0Q289 684 275 684Q230 684 210.5 660.0Q191 636 191 587V523H317Q330 523 336.0 514.5Q342 506 342 494Q342 481 336.0 472.5Q330 464 317 464H191V30Q191 14 180.0 7.0Q169 0 155 0Q141 0 130.0 7.0Q119 14 119 30V464H49Q36 464 30.0 472.5Q24 481 24 494Q24 506 30.0 514.5Q36 523 49 523H119V589Q119 746 270 746Z" transform="translate(130.113 141.885) scale(0.009500 -0.009500)"/><path d="M123 744Q137 744 148.0 737.0Q159 730 159 714V30Q159 14 148.0 7.0Q137 0 123 0Q109 0 98.0 7.0Q87 14 87 30V714Q87 730 98.0 737.0Q109 744 123 744Z" transform="translate(133.647 141.885) scale(0.009500 -0.009500)"/><path d="M275 534Q367 534 419.5 488.0Q472 442 472 362V28Q472 13 461.5 6.5Q451 0 438 0Q425 0 414.5 6.5Q404 13 404 28V77H403Q387 43 346 21Q325 10 298.0 3.0Q271 -4 237 -4Q154 -4 106.0 36.5Q58 77 58 150V160Q58 192 68.5 219.5Q79 247 102.5 267.0Q126 287 162.0 298.5Q198 310 249 310H400V347Q400 410 369.5 440.5Q339 471 273 471Q235 471 200.0 459.5Q165 448 133 428Q121 420 109.5 424.0Q98 428 91 439Q84 450 85.5 462.0Q87 474 99 482Q131 504 177.0 519.0Q223 534 275 534ZM251 252Q184 252 156.5 225.5Q129 199 129 158V152Q129 108 158.0 83.0Q187 58 242 58Q300 58 339 78Q367 93 384.0 117.5Q401 142 401 177V252Z" transform="translate(135.984 141.885) scale(0.009500 -0.009500)"/><path d="M154 666Q168 666 179.5 659.0Q191 652 191 636V523H318Q330 523 336.0 514.5Q342 506 342 494Q342 481 336.0 472.5Q330 464 318 464H191V158Q191 100 207.0 79.0Q223 58 264 58Q293 58 316 68Q327 72 337.0 68.0Q347 64 352 50Q362 23 336 10Q306 -4 260 -4Q188 -4 153.5 31.0Q119 66 119 152V464H49Q36 464 30.0 472.5Q24 481 24 494Q24 506 30.0 514.5Q36 523 49 523H119V636Q119 652 129.5 659.0Q140 666 154 666Z" transform="translate(141.228 141.885) scale(0.009500 -0.009500)"/><path d="M286 534Q389 534 448.5 472.5Q508 411 508 298V296Q508 267 495.0 254.0Q482 241 450 241H131V236Q131 146 173.5 102.0Q216 58 294 58Q341 58 376.5 67.5Q412 77 444 96Q457 103 468.0 99.5Q479 96 485 84Q491 72 488.5 60.5Q486 49 474 41Q440 21 394.5 8.5Q349 -4 290 -4Q183 -4 121.5 58.0Q60 120 60 244V286Q60 409 121.5 471.5Q183 534 286 534ZM286 473Q214 473 172.5 428.5Q131 384 131 303V298H438V306Q438 386 398.5 429.5Q359 473 286 473Z" transform="translate(144.933 141.885) scale(0.009500 -0.009500)"/><path d="M678 755Q717 755 732.0 740.5Q747 726 747 688V625Q747 587 732.0 572.5Q717 558 678 558H249Q233 558 233 542V489Q233 474 249 474H747Q759 474 765.0 465.0Q771 456 771 445Q771 433 765.0 424.5Q759 416 747 416H231Q192 416 177.0 430.5Q162 445 162 483V547Q162 585 177.0 599.5Q192 614 231 614H660Q677 614 677 629V682Q677 697 660 697H184Q172 697 166.0 706.0Q160 715 160 727Q160 738 166.0 746.5Q172 755 184 755H678ZM848 337Q860 337 866.0 328.0Q872 319 872 307Q872 294 866.0 285.5Q860 277 848 277H62Q50 277 44.0 285.5Q38 294 38 307Q38 319 44.0 328.0Q50 337 62 337H848ZM683 198Q722 198 737.0 183.5Q752 169 752 131V67Q752 29 737.0 14.5Q722 0 683 0H244Q227 0 227 -16V-68Q227 -84 244 -84H753Q765 -84 770.5 -93.0Q776 -102 776 -113Q776 -124 770.5 -133.0Q765 -142 753 -142H226Q187 -142 172.0 -128.0Q157 -114 157 -76V-11Q157 27 172.0 41.5Q187 56 226 56H666Q682 56 682 72V124Q682 140 666 140H179Q167 140 161.0 148.5Q155 157 155 169Q155 180 161.0 189.0Q167 198 179 198H683Z" transform="translate(150.320 141.885) scale(0.009500 -0.009500)"/><path d="M306 721Q419 721 476.0 646.0Q533 571 533 428Q533 285 476.0 210.0Q419 135 306 135Q193 135 135.5 210.0Q78 285 78 428Q78 571 135.5 646.0Q193 721 306 721ZM306 656Q224 656 187.0 596.5Q150 537 150 428Q150 319 187.0 259.5Q224 200 306 200Q388 200 425.0 259.5Q462 319 462 428Q462 537 425.0 596.5Q388 656 306 656ZM743 774Q757 774 768.5 767.0Q780 760 780 744V-52Q780 -68 768.5 -75.0Q757 -82 743 -82Q729 -82 718.0 -75.0Q707 -68 707 -52V744Q707 760 718.0 767.0Q729 774 743 774Z" transform="translate(161.340 141.885) scale(0.009500 -0.009500)"/><path d="M455 753Q598 753 674.5 713.0Q751 673 751 589Q751 505 674.5 465.0Q598 425 455 425Q312 425 235.5 465.0Q159 505 159 589Q159 673 235.5 713.0Q312 753 455 753ZM455 693Q340 693 286.0 666.5Q232 640 232 589Q232 538 286.0 511.5Q340 485 455 485Q570 485 624.0 511.5Q678 538 678 589Q678 640 624.0 666.5Q570 693 455 693ZM347 314H563V470H633V314H847Q860 314 866.0 305.0Q872 296 872 283Q872 270 866.0 261.0Q860 252 847 252H63Q50 252 44.0 261.0Q38 270 38 283Q38 296 44.0 305.0Q50 314 63 314H277V470H347ZM455 173Q598 173 675.5 133.0Q753 93 753 9Q753 -75 675.5 -115.0Q598 -155 455 -155Q312 -155 234.5 -115.0Q157 -75 157 9Q157 93 234.5 133.0Q312 173 455 173ZM455 114Q340 114 285.0 87.0Q230 60 230 9Q230 -42 285.0 -69.0Q340 -96 455 -96Q570 -96 625.0 -69.0Q680 -42 680 9Q680 60 625.0 87.0Q570 114 455 114Z" transform="translate(169.985 141.885) scale(0.009500 -0.009500)"/><path d="M265 499Q311 499 345.5 484.5Q380 470 403.0 444.5Q426 419 437.5 384.5Q449 350 449 310Q449 270 437.5 235.5Q426 201 403.0 175.5Q380 150 345.5 135.5Q311 121 265 121Q219 121 184.5 135.5Q150 150 127.5 175.5Q105 201 93.5 235.5Q82 270 82 310Q82 350 93.5 384.5Q105 419 127.5 444.5Q150 470 184.5 484.5Q219 499 265 499ZM265 768Q279 768 290.0 761.0Q301 754 301 738V637H465Q479 637 485.0 628.0Q491 619 491 606Q491 592 485.0 583.0Q479 574 465 574H53Q40 574 34.0 583.0Q28 592 28 606Q28 619 34.0 628.0Q40 637 53 637H229V738Q229 754 240.0 761.0Q251 768 265 768ZM265 437Q235 437 212.5 427.0Q190 417 175.5 400.0Q161 383 154.0 360.0Q147 337 147 310Q147 256 175.5 219.0Q204 182 265 182Q327 182 355.5 219.0Q384 256 384 310Q384 337 377.0 360.0Q370 383 355.5 400.0Q341 417 318.5 427.0Q296 437 265 437ZM774 774Q788 774 798.5 767.0Q809 760 809 745V-53Q809 -68 798.5 -75.0Q788 -82 774 -82Q761 -82 750.5 -75.0Q740 -68 740 -53V387H609V-11Q609 -26 598.5 -33.0Q588 -40 574 -40Q561 -40 550.5 -33.0Q540 -26 540 -11V735Q540 750 550.5 757.0Q561 764 574 764Q588 764 598.5 757.0Q609 750 609 735V450H740V745Q740 760 750.5 767.0Q761 774 774 774Z" transform="translate(178.630 141.885) scale(0.009500 -0.009500)"/><path d="M742 727Q755 727 761.0 717.5Q767 708 767 695Q767 682 761.0 672.5Q755 663 742 663H492V646Q492 617 496.0 596.0Q500 575 510.5 558.0Q521 541 539.5 526.5Q558 512 586 497Q638 470 685.0 447.0Q732 424 780 402Q791 396 794.0 383.0Q797 370 791 358Q784 346 772.5 341.0Q761 336 750 341Q700 364 656.0 385.0Q612 406 564 432Q535 447 515.0 460.5Q495 474 482.5 485.0Q470 496 464.0 506.0Q458 516 456 525H455Q451 506 428.5 484.0Q406 462 347 431Q299 405 254.5 384.0Q210 363 161 340Q150 335 138.0 340.0Q126 345 119 357Q113 370 115.5 383.0Q118 396 130 402Q178 424 225.0 447.0Q272 470 324 497Q352 512 370.5 526.5Q389 541 399.5 558.0Q410 575 414.0 596.0Q418 617 418 646V663H168Q155 663 149.0 672.5Q143 682 143 695Q143 708 149.0 717.5Q155 727 168 727H742ZM846 242Q860 242 866.0 233.0Q872 224 872 210Q872 197 866.0 188.0Q860 179 846 179H492V-122Q492 -138 480.5 -145.0Q469 -152 455 -152Q441 -152 430.0 -145.0Q419 -138 419 -122V179H64Q50 179 44.0 188.0Q38 197 38 210Q38 224 44.0 233.0Q50 242 64 242H846Z" transform="translate(189.650 141.885) scale(0.009500 -0.009500)"/><path d="M319 727Q333 727 344.5 720.0Q356 713 356 696V526Q356 493 359.5 467.0Q363 441 372.0 418.0Q381 395 396.0 373.0Q411 351 435 326Q468 291 499.5 260.0Q531 229 560 203Q571 194 569.5 180.5Q568 167 559 157Q551 149 538.0 146.5Q525 144 514 155Q488 178 460.0 205.5Q432 233 399 266Q375 291 360.5 309.0Q346 327 337.5 340.0Q329 353 325.0 363.0Q321 373 320 381H319Q317 372 313.0 362.5Q309 353 300.5 339.5Q292 326 277.5 308.0Q263 290 239 265Q206 232 176.0 202.5Q146 173 112 142Q100 131 86.5 134.0Q73 137 65 146Q56 157 55.0 169.5Q54 182 65 192Q101 225 135.0 258.0Q169 291 202 326Q226 351 241.5 373.0Q257 395 266.0 418.0Q275 441 278.5 467.0Q282 493 282 526V696Q282 713 293.0 720.0Q304 727 319 727ZM750 774Q764 774 775.0 767.0Q786 760 786 744V-52Q786 -68 775.0 -75.0Q764 -82 750 -82Q736 -82 725.0 -75.0Q714 -68 714 -52V342H545Q532 342 526.0 351.0Q520 360 520 374Q520 387 526.0 396.0Q532 405 545 405H714V530H545Q532 530 526.0 539.0Q520 548 520 562Q520 575 526.0 584.0Q532 593 545 593H714V744Q714 760 725.0 767.0Q736 774 750 774Z" transform="translate(198.295 141.885) scale(0.009500 -0.009500)"/><path d="M322 727Q336 727 347.5 720.0Q359 713 359 696V530Q359 497 363.0 471.0Q367 445 376.5 422.0Q386 399 401.5 377.0Q417 355 441 330Q474 295 505.5 264.0Q537 233 566 207Q577 198 575.5 184.5Q574 171 565 161Q557 153 544.0 150.5Q531 148 520 159Q494 182 466.0 209.5Q438 237 405 270Q381 295 366.0 313.0Q351 331 342.0 344.0Q333 357 328.5 367.0Q324 377 323 385H322Q320 376 315.5 366.5Q311 357 302.0 343.5Q293 330 278.0 312.0Q263 294 239 269Q206 236 176.0 206.5Q146 177 112 146Q100 135 86.5 138.0Q73 141 65 150Q56 161 55.0 173.5Q54 186 65 196Q101 229 135.0 262.0Q169 295 202 330Q226 355 241.5 377.0Q257 399 267.0 422.0Q277 445 281.0 471.0Q285 497 285 530V696Q285 713 296.0 720.0Q307 727 322 727ZM750 774Q764 774 775.0 767.0Q786 760 786 744V-52Q786 -68 775.0 -75.0Q764 -82 750 -82Q736 -82 725.0 -75.0Q714 -68 714 -52V435H535Q522 435 516.0 444.0Q510 453 510 467Q510 480 516.0 489.0Q522 498 535 498H714V744Q714 760 725.0 767.0Q736 774 750 774Z" transform="translate(206.940 141.885) scale(0.009500 -0.009500)"/><path d="M407 721Q446 721 461.0 706.5Q476 692 476 654V583Q476 531 463.0 495.0Q450 459 411.0 426.0Q372 393 300.5 356.0Q229 319 113 266Q102 261 90.0 265.5Q78 270 71 283Q65 294 66.5 307.5Q68 321 82 327Q154 359 206.0 384.0Q258 409 294.0 429.5Q330 450 351.5 467.5Q373 485 384.5 503.0Q396 521 400.0 541.0Q404 561 404 586V639Q404 658 385 658H102Q88 658 82.0 667.0Q76 676 76 689Q76 703 82.0 712.0Q88 721 102 721H407ZM700 774Q714 774 725.5 767.0Q737 760 737 744V557H864Q878 557 884.0 547.5Q890 538 890 524Q890 511 884.0 501.5Q878 492 864 492H737V289Q737 273 725.5 266.0Q714 259 700 259Q686 259 675.0 266.0Q664 273 664 289V744Q664 760 675.0 767.0Q686 774 700 774ZM668 208Q707 208 722.0 193.5Q737 179 737 141V-66Q737 -104 722.0 -118.5Q707 -133 668 -133H249Q210 -133 195.0 -118.5Q180 -104 180 -66V141Q180 179 195.0 193.5Q210 208 249 208ZM272 146Q253 146 253 127V-52Q253 -71 272 -71H646Q665 -71 665 -52V127Q665 146 646 146Z" transform="translate(217.960 141.885) scale(0.009500 -0.009500)"/><path d="M310 727Q324 727 335.5 720.0Q347 713 347 696V536Q347 503 351.0 477.0Q355 451 365.0 427.5Q375 404 390.5 382.0Q406 360 430 335Q497 265 557 211Q568 202 566.0 188.5Q564 175 555 165Q547 157 534.0 154.5Q521 152 510 163Q483 187 455.0 214.5Q427 242 394 276Q370 300 355.0 318.0Q340 336 331.0 349.5Q322 363 317.5 373.0Q313 383 311 391H310Q308 382 303.5 372.0Q299 362 289.5 348.5Q280 335 265.0 317.0Q250 299 226 275Q194 241 163.5 211.5Q133 182 98 150Q86 139 73.0 142.0Q60 145 51 154Q42 165 41.5 177.5Q41 190 52 200Q125 267 190 335Q214 360 229.5 382.0Q245 404 255.0 427.5Q265 451 269.0 477.0Q273 503 273 536V696Q273 713 284.5 720.0Q296 727 310 727ZM700 774Q714 774 725.5 767.0Q737 760 737 744V465H864Q878 465 884.0 455.5Q890 446 890 433Q890 419 884.0 409.5Q878 400 864 400H737V-52Q737 -68 725.5 -75.0Q714 -82 700 -82Q686 -82 675.0 -75.0Q664 -68 664 -52V744Q664 760 675.0 767.0Q686 774 700 774Z" transform="translate(226.605 141.885) scale(0.009500 -0.009500)"/><path d="M309 561Q407 561 461.5 519.5Q516 478 516 408Q516 339 461.5 297.5Q407 256 309 256Q211 256 156.5 297.5Q102 339 102 408Q102 478 156.5 519.5Q211 561 309 561ZM309 792Q323 792 334.5 785.0Q346 778 346 762V687H545Q559 687 565.0 677.5Q571 668 571 655Q571 642 565.0 633.0Q559 624 545 624H63Q49 624 43.0 633.0Q37 642 37 655Q37 668 43.0 677.5Q49 687 63 687H272V762Q272 778 283.5 785.0Q295 792 309 792ZM309 502Q241 502 205.0 476.5Q169 451 169 408Q169 366 205.0 340.5Q241 315 309 315Q377 315 413.0 340.5Q449 366 449 408Q449 451 413.0 476.5Q377 502 309 502ZM701 774Q715 774 726.0 767.0Q737 760 737 744V541H864Q878 541 884.0 531.5Q890 522 890 508Q890 495 884.0 485.5Q878 476 864 476H737V277Q737 261 726.0 254.0Q715 247 701 247Q687 247 676.0 254.0Q665 261 665 277V744Q665 760 676.0 767.0Q687 774 701 774ZM215 197Q229 197 240.0 190.0Q251 183 251 168V85H666V168Q666 183 677.0 190.0Q688 197 701 197Q715 197 726.0 190.0Q737 183 737 168V-66Q737 -104 722.0 -118.5Q707 -133 668 -133H249Q210 -133 195.0 -118.5Q180 -104 180 -66V168Q180 183 191.0 190.0Q202 197 215 197ZM251 -58Q251 -73 268 -73H650Q666 -73 666 -58V26H251Z" transform="translate(235.250 141.885) scale(0.009500 -0.009500)"/><path d="M139 714Q154 714 165.0 707.0Q176 700 176 684V234Q176 215 195 215Q310 215 404.0 221.0Q498 227 587 239Q599 241 607.0 233.5Q615 226 617 212Q619 198 613.5 187.5Q608 177 596 175Q557 170 513.5 165.5Q470 161 418.5 158.0Q367 155 306.0 153.5Q245 152 172 152Q133 152 118.0 166.5Q103 181 103 219V684Q103 700 114.0 707.0Q125 714 139 714ZM743 774Q757 774 768.5 767.0Q780 760 780 744V-52Q780 -68 768.5 -75.0Q757 -82 743 -82Q729 -82 718.0 -75.0Q707 -68 707 -52V744Q707 760 718.0 767.0Q729 774 743 774Z" transform="translate(243.895 141.885) scale(0.009500 -0.009500)"/><path d="M481 705Q495 705 501.0 696.0Q507 687 507 674Q507 660 501.0 651.0Q495 642 481 642H172Q153 642 153 623V231Q153 212 172 212Q283 212 375.0 218.0Q467 224 557 236Q569 238 577.0 230.5Q585 223 587 209Q589 195 583.5 184.5Q578 174 566 172Q527 167 483.5 162.5Q440 158 389.5 155.0Q339 152 279.5 150.5Q220 149 149 149Q110 149 95.0 163.5Q80 178 80 216V638Q80 676 95.0 690.5Q110 705 149 705H481ZM700 774Q714 774 725.5 767.0Q737 760 737 744V465H864Q878 465 884.0 455.5Q890 446 890 433Q890 419 884.0 409.5Q878 400 864 400H737V-52Q737 -68 725.5 -75.0Q714 -82 700 -82Q686 -82 675.0 -75.0Q664 -68 664 -52V744Q664 760 675.0 767.0Q686 774 700 774Z" transform="translate(252.540 141.885) scale(0.009500 -0.009500)"/><path d="M143 735Q161 735 172.0 726.5Q183 718 183 700L174 213Q174 196 165.0 188.5Q156 181 143 181Q129 181 120.5 188.5Q112 196 111 213L103 700Q102 718 113.5 726.5Q125 735 143 735ZM143 85Q166 85 182.5 68.5Q199 52 199 29Q199 6 182.5 -10.0Q166 -26 143 -26Q119 -26 103.0 -10.0Q87 6 87 29Q87 52 103.0 68.5Q119 85 143 85Z" transform="translate(261.185 141.885) scale(0.009500 -0.009500)"/></g><polyline points="347.6,114.8 353.2,120.4 347.6,126.0" fill="none" stroke="#1F2937" stroke-width="1.4" stroke-linecap="round" stroke-linejoin="round" opacity="1"/><g fill="#1F2937" opacity="1"><path d="M331 703Q375 703 391.5 687.0Q408 671 408 628V522Q408 476 405.0 441.0Q402 406 392.0 377.0Q382 348 363.0 322.0Q344 296 312.0 267.0Q280 238 233.0 203.0Q186 168 120 121Q106 110 87.5 115.0Q69 120 59 134Q48 148 48.0 167.5Q48 187 64 198Q123 239 164.5 269.0Q206 299 233.5 323.0Q261 347 277.0 368.0Q293 389 301.0 411.5Q309 434 311.0 461.5Q313 489 313 526V596Q313 616 292 616H93Q74 616 65.5 629.0Q57 642 57 659Q57 677 65.5 690.0Q74 703 93 703ZM771 778Q789 778 803.5 768.5Q818 759 818 739V-47Q818 -67 803.5 -76.5Q789 -86 771 -86Q754 -86 739.5 -76.5Q725 -67 725 -47V739Q725 759 739.5 768.5Q754 778 771 778ZM589 768Q606 768 620.5 758.5Q635 749 635 729V-5Q635 -25 620.5 -34.5Q606 -44 589 -44Q572 -44 557.5 -34.5Q543 -25 543 -5V270H444Q427 270 419.5 282.5Q412 295 412 312Q412 331 419.5 343.0Q427 355 444 355H543V496H367V580H543V729Q543 749 557.5 758.5Q572 768 589 768Z" transform="translate(24.000 203.960) scale(0.012000 -0.012000)"/><path d="M567 683Q567 666 558.5 653.5Q550 641 532 641H372V587Q372 539 387.0 506.0Q402 473 438 444Q473 415 503.5 392.0Q534 369 557 353Q574 340 575.0 323.5Q576 307 565 292Q555 280 538.5 273.5Q522 267 503 280Q486 292 457.5 313.5Q429 335 397 361Q359 391 343.5 410.0Q328 429 324 444H323Q319 427 302.5 407.0Q286 387 248 356Q215 330 184.0 307.0Q153 284 124 264Q107 251 89.5 257.0Q72 263 63 276Q52 291 53.0 308.5Q54 326 71 339Q106 364 139.0 388.0Q172 412 207 441Q242 470 257.0 503.0Q272 536 272 585V641H105Q86 641 77.5 653.5Q69 666 69 683Q69 700 77.5 713.0Q86 726 105 726H532Q550 726 558.5 713.0Q567 700 567 683ZM746 778Q765 778 780.0 768.0Q795 758 795 736V271Q795 250 780.0 240.0Q765 230 746 230Q726 230 711.0 240.0Q696 250 696 271V464H552Q533 464 524.5 477.0Q516 490 516 507Q516 525 524.5 537.5Q533 550 552 550H696V736Q696 758 711.0 768.0Q726 778 746 778ZM507 221Q647 221 723.5 173.5Q800 126 800 32Q800 -62 723.5 -109.5Q647 -157 507 -157Q367 -157 290.5 -109.5Q214 -62 214 32Q214 126 290.5 173.5Q367 221 507 221ZM507 140Q405 140 359.0 110.5Q313 81 313 32Q313 -18 359.0 -47.0Q405 -76 507 -76Q609 -76 655.0 -47.0Q701 -18 701 32Q701 82 655.0 111.0Q609 140 507 140Z" transform="translate(34.920 203.960) scale(0.012000 -0.012000)"/></g><rect x="18" y="222" width="354" height="138" rx="14" fill="#fff" stroke="#E1E8E4" stroke-width="1" opacity="1"/><circle cx="40.4" cy="238.9" r="2.8" fill="none" stroke="#6B7280" stroke-width="1.26" opacity="1"/><path d="M34.8 249.4 Q34.8 243.8 40.4 243.8 Q46.0 243.8 46.0 249.4" fill="none" stroke="#6B7280" stroke-width="1.26" stroke-linecap="round" stroke-linejoin="round" opacity="1"/><g fill="#1F2937" opacity="1"><path d="M109 707Q123 707 134.5 700.0Q146 693 146 677V241Q146 222 165 222Q197 222 233.5 223.5Q270 225 307.0 227.0Q344 229 378.5 232.5Q413 236 442 241Q453 243 461.0 235.5Q469 228 471 214Q473 200 467.5 189.5Q462 179 450 177Q427 173 394.5 170.0Q362 167 322.0 164.5Q282 162 236.0 160.5Q190 159 141 159Q102 159 87.0 173.5Q72 188 72 226V677Q72 693 83.5 700.0Q95 707 109 707ZM774 774Q788 774 798.5 767.0Q809 760 809 745V-53Q809 -68 798.5 -75.0Q788 -82 774 -82Q761 -82 750.5 -75.0Q740 -68 740 -53V397H601V-11Q601 -26 590.5 -33.0Q580 -40 566 -40Q553 -40 542.5 -33.0Q532 -26 532 -11V735Q532 750 542.5 757.0Q553 764 566 764Q580 764 590.5 757.0Q601 750 601 735V460H740V745Q740 760 750.5 767.0Q761 774 774 774Z" transform="translate(66.000 245.130) scale(0.011000 -0.011000)"/><path d="M542 720Q555 720 561.0 711.0Q567 702 567 689Q567 675 561.0 666.0Q555 657 542 657H361V586Q361 534 377.0 499.5Q393 465 431 434Q469 405 502.5 380.0Q536 355 559 338Q572 328 573.0 315.5Q574 303 566 292Q559 282 547.0 278.0Q535 274 521 284Q503 296 471.0 320.0Q439 344 404 371Q365 403 347.0 424.5Q329 446 325 462H324Q320 445 302.0 423.0Q284 401 244 369Q209 341 174.5 315.5Q140 290 111 270Q98 261 86.0 265.0Q74 269 66 279Q58 290 58.5 303.0Q59 316 73 325Q109 351 144.0 377.0Q179 403 217 433Q255 464 271.0 498.5Q287 533 287 584V657H100Q87 657 81.0 666.0Q75 675 75 689Q75 702 81.0 711.0Q87 720 100 720H542ZM750 774Q764 774 775.0 767.0Q786 760 786 744V257Q786 241 775.0 234.0Q764 227 750 227Q736 227 725.0 234.0Q714 241 714 257V475H543Q530 475 524.0 484.0Q518 493 518 507Q518 520 524.0 529.5Q530 539 543 539H714V744Q714 760 725.0 767.0Q736 774 750 774ZM508 215Q645 215 719.0 168.5Q793 122 793 32Q793 -58 719.0 -104.5Q645 -151 508 -151Q371 -151 297.5 -104.5Q224 -58 224 32Q224 122 297.5 168.5Q371 215 508 215ZM508 155Q399 155 347.5 122.0Q296 89 296 32Q296 -25 347.5 -58.0Q399 -91 508 -91Q617 -91 669.0 -58.0Q721 -25 721 32Q721 89 669.0 122.0Q617 155 508 155Z" transform="translate(78.760 245.130) scale(0.011000 -0.011000)"/><path d="M193 730Q207 730 218.0 723.0Q229 716 229 700V561H681V700Q681 716 692.0 723.0Q703 730 717 730Q731 730 742.0 723.0Q753 716 753 700V341Q753 303 738.0 288.5Q723 274 684 274H226Q187 274 172.0 288.5Q157 303 157 341V700Q157 716 168.0 723.0Q179 730 193 730ZM229 355Q229 337 248 337H662Q681 337 681 355V498H229ZM492 74H846Q860 74 866.0 65.0Q872 56 872 42Q872 29 866.0 20.0Q860 11 846 11H64Q50 11 44.0 20.0Q38 29 38 42Q38 56 44.0 65.0Q50 74 64 74H419V319H492Z" transform="translate(88.770 245.130) scale(0.011000 -0.011000)"/><path d="M473 719Q512 719 527.0 704.5Q542 690 542 652V588Q542 542 537.0 500.5Q532 459 521 422Q517 408 505.0 402.5Q493 397 477 400Q463 404 455.5 414.0Q448 424 452 438Q461 476 465.5 512.5Q470 549 470 591V637Q470 648 465.5 651.5Q461 655 451 655H126Q112 655 106.0 664.5Q100 674 100 687Q100 701 106.0 710.0Q112 719 126 719H473ZM718 774Q732 774 743.0 767.0Q754 760 754 744V488H868Q882 488 888.0 478.5Q894 469 894 456Q894 442 888.0 432.5Q882 423 868 423H754V120Q754 104 743.0 97.0Q732 90 718 90Q704 90 693.0 97.0Q682 104 682 120V744Q682 760 693.0 767.0Q704 774 718 774ZM259 516Q273 516 284.5 509.0Q296 502 296 486V307Q366 309 439.0 313.0Q512 317 590 324Q601 325 608.5 317.5Q616 310 617 296Q618 283 612.5 273.5Q607 264 595 262Q462 251 332.0 247.0Q202 243 63 243Q49 243 43.0 252.0Q37 261 37 274Q37 287 43.0 296.0Q49 305 63 305Q103 305 143.0 305.0Q183 305 224 306V486Q224 502 234.5 509.0Q245 516 259 516ZM213 151Q227 151 238.5 144.0Q250 137 250 120V-47Q250 -66 269 -66H755Q768 -66 774.0 -75.0Q780 -84 780 -97Q780 -110 774.0 -119.0Q768 -128 755 -128H245Q206 -128 191.0 -113.5Q176 -99 176 -61V120Q176 137 187.5 144.0Q199 151 213 151Z" transform="translate(101.530 245.130) scale(0.011000 -0.011000)"/><path d="M431 711Q470 711 485.0 696.5Q500 682 500 644V459Q500 421 485.0 406.5Q470 392 431 392H191Q172 392 172 374V209Q172 191 191 191Q309 191 403.5 196.5Q498 202 587 215Q599 217 607.0 209.0Q615 201 617 188Q619 174 613.5 163.5Q608 153 596 151Q557 146 513.5 141.5Q470 137 418.0 134.0Q366 131 305.0 129.5Q244 128 169 128Q130 128 115.0 142.5Q100 157 100 195V386Q100 424 115.0 438.5Q130 453 169 453H409Q428 453 428 472V630Q428 648 409 648H125Q112 648 106.0 657.0Q100 666 100 680Q100 693 106.0 702.0Q112 711 125 711H431ZM743 774Q757 774 768.5 767.0Q780 760 780 744V-52Q780 -68 768.5 -75.0Q757 -82 743 -82Q729 -82 718.0 -75.0Q707 -68 707 -52V744Q707 760 718.0 767.0Q729 774 743 774Z" transform="translate(111.540 245.130) scale(0.011000 -0.011000)"/></g><polyline points="347.2,236.6 352.4,241.8 347.2,247.0" fill="none" stroke="#6B7280" stroke-width="1.3" stroke-linecap="round" stroke-linejoin="round" opacity="1"/><line x1="30" y1="268" x2="360" y2="268" stroke="#E1E8E4" stroke-width="1" stroke-linecap="round" opacity="1"/><circle cx="40.4" cy="284.9" r="2.8" fill="none" stroke="#6B7280" stroke-width="1.26" opacity="1"/><path d="M34.8 295.4 Q34.8 289.8 40.4 289.8 Q46.0 289.8 46.0 295.4" fill="none" stroke="#6B7280" stroke-width="1.26" stroke-linecap="round" stroke-linejoin="round" opacity="1"/><g fill="#1F2937" opacity="1"><path d="M283 746Q339 746 381.5 730.5Q424 715 452.0 688.0Q480 661 494.0 624.5Q508 588 508 546Q508 504 494.0 467.5Q480 431 452.0 404.5Q424 378 381.5 362.5Q339 347 283 347Q227 347 184.5 362.5Q142 378 114.0 404.5Q86 431 72.0 467.5Q58 504 58 546Q58 588 72.0 624.5Q86 661 114.0 688.0Q142 715 184.5 730.5Q227 746 283 746ZM283 685Q243 685 214.0 674.0Q185 663 166.0 644.0Q147 625 138.0 599.5Q129 574 129 546Q129 518 138.0 493.0Q147 468 166.0 449.0Q185 430 214.0 419.0Q243 408 283 408Q323 408 352.0 419.0Q381 430 400.0 449.0Q419 468 428.0 493.0Q437 518 437 546Q437 574 428.0 599.5Q419 625 400.0 644.0Q381 663 352.0 674.0Q323 685 283 685ZM700 774Q714 774 725.5 767.0Q737 760 737 744V579H864Q878 579 884.0 569.5Q890 560 890 546Q890 533 884.0 523.5Q878 514 864 514H737V336Q737 320 725.5 313.0Q714 306 700 306Q686 306 675.0 313.0Q664 320 664 336V744Q664 760 675.0 767.0Q686 774 700 774ZM668 256Q707 256 722.0 241.5Q737 227 737 189V97Q737 59 722.0 44.5Q707 30 668 30H272Q262 30 257.5 26.5Q253 23 253 12V-59Q253 -78 272 -78H737Q749 -78 755.0 -87.0Q761 -96 761 -108Q761 -120 755.0 -129.0Q749 -138 737 -138H251Q212 -138 197.0 -123.5Q182 -109 182 -71V22Q182 60 197.0 74.5Q212 89 251 89H647Q658 89 662.0 92.5Q666 96 666 107V178Q666 196 647 196H204Q192 196 186.0 205.0Q180 214 180 226Q180 238 186.0 247.0Q192 256 204 256H668Z" transform="translate(66.000 291.130) scale(0.011000 -0.011000)"/><path d="M427 727Q466 727 481.0 712.5Q496 698 496 660V542Q496 504 481.0 489.5Q466 475 427 475H191Q180 475 176.0 471.5Q172 468 172 457V361Q172 343 191 343Q306 343 401.5 348.5Q497 354 587 367Q599 369 607.0 361.0Q615 353 617 340Q619 327 613.5 316.5Q608 306 596 304Q518 293 416.0 287.0Q314 281 169 281Q130 281 115.0 295.5Q100 310 100 348V468Q100 506 115.0 520.5Q130 535 169 535H406Q416 535 420.5 538.5Q425 542 425 553V647Q425 658 420.5 661.5Q416 665 406 665H124Q111 665 105.5 674.5Q100 684 100 696Q100 709 105.5 718.0Q111 727 124 727H427ZM744 774Q758 774 769.0 767.0Q780 760 780 744V259Q780 243 769.0 236.0Q758 229 744 229Q730 229 718.5 236.0Q707 243 707 259V744Q707 760 718.5 767.0Q730 774 744 774ZM711 178Q750 178 765.0 163.5Q780 149 780 111V-66Q780 -104 765.0 -118.5Q750 -133 711 -133H282Q243 -133 228.0 -118.5Q213 -104 213 -66V111Q213 149 228.0 163.5Q243 178 282 178ZM305 117Q286 117 286 99V-54Q286 -72 305 -72H689Q708 -72 708 -54V99Q708 117 689 117Z" transform="translate(76.010 291.130) scale(0.011000 -0.011000)"/><path d="M322 754Q336 754 347.5 747.0Q359 740 359 724V628Q359 578 374.5 546.5Q390 515 428 487Q466 459 496.5 437.5Q527 416 557 396Q570 388 571.0 374.5Q572 361 565 350Q558 340 545.5 336.5Q533 333 521 341Q496 358 466.0 378.5Q436 399 400 426Q360 455 343.0 475.0Q326 495 323 510H322Q319 494 301.5 473.0Q284 452 244 423Q208 397 173.0 372.5Q138 348 105 327Q92 319 80.0 322.5Q68 326 60 337Q53 348 54.0 361.5Q55 375 68 383Q106 408 141.5 432.5Q177 457 215 485Q253 514 269.0 545.5Q285 577 285 626V724Q285 740 296.0 747.0Q307 754 322 754ZM750 774Q764 774 775.0 767.0Q786 760 786 744V336Q786 320 775.0 313.0Q764 306 750 306Q736 306 725.0 313.0Q714 320 714 336V546H535Q522 546 516.0 555.0Q510 564 510 578Q510 591 516.0 600.5Q522 610 535 610H714V744Q714 760 725.0 767.0Q736 774 750 774ZM717 256Q756 256 771.0 241.5Q786 227 786 189V97Q786 59 771.0 44.5Q756 30 717 30H307Q297 30 292.5 26.5Q288 23 288 12V-59Q288 -78 307 -78H786Q798 -78 804.0 -87.0Q810 -96 810 -108Q810 -120 804.0 -129.0Q798 -138 786 -138H286Q247 -138 232.0 -123.5Q217 -109 217 -71V22Q217 60 232.0 74.5Q247 89 286 89H696Q707 89 711.0 92.5Q715 96 715 107V178Q715 196 696 196H239Q227 196 221.0 205.0Q215 214 215 226Q215 238 221.0 247.0Q227 256 239 256H717Z" transform="translate(88.770 291.130) scale(0.011000 -0.011000)"/><path d="M542 720Q555 720 561.0 711.0Q567 702 567 689Q567 675 561.0 666.0Q555 657 542 657H361V586Q361 534 377.0 499.5Q393 465 431 434Q469 405 502.5 380.0Q536 355 559 338Q572 328 573.0 315.5Q574 303 566 292Q559 282 547.0 278.0Q535 274 521 284Q503 296 471.0 320.0Q439 344 404 371Q365 403 347.0 424.5Q329 446 325 462H324Q320 445 302.0 423.0Q284 401 244 369Q209 341 174.5 315.5Q140 290 111 270Q98 261 86.0 265.0Q74 269 66 279Q58 290 58.5 303.0Q59 316 73 325Q109 351 144.0 377.0Q179 403 217 433Q255 464 271.0 498.5Q287 533 287 584V657H100Q87 657 81.0 666.0Q75 675 75 689Q75 702 81.0 711.0Q87 720 100 720H542ZM750 774Q764 774 775.0 767.0Q786 760 786 744V257Q786 241 775.0 234.0Q764 227 750 227Q736 227 725.0 234.0Q714 241 714 257V475H543Q530 475 524.0 484.0Q518 493 518 507Q518 520 524.0 529.5Q530 539 543 539H714V744Q714 760 725.0 767.0Q736 774 750 774ZM508 215Q645 215 719.0 168.5Q793 122 793 32Q793 -58 719.0 -104.5Q645 -151 508 -151Q371 -151 297.5 -104.5Q224 -58 224 32Q224 122 297.5 168.5Q371 215 508 215ZM508 155Q399 155 347.5 122.0Q296 89 296 32Q296 -25 347.5 -58.0Q399 -91 508 -91Q617 -91 669.0 -58.0Q721 -25 721 32Q721 89 669.0 122.0Q617 155 508 155Z" transform="translate(98.780 291.130) scale(0.011000 -0.011000)"/></g><polyline points="347.2,282.6 352.4,287.8 347.2,293.0" fill="none" stroke="#6B7280" stroke-width="1.3" stroke-linecap="round" stroke-linejoin="round" opacity="1"/><line x1="30" y1="314" x2="360" y2="314" stroke="#E1E8E4" stroke-width="1" stroke-linecap="round" opacity="1"/><circle cx="40.4" cy="330.9" r="2.8" fill="none" stroke="#6B7280" stroke-width="1.26" opacity="1"/><path d="M34.8 341.4 Q34.8 335.8 40.4 335.8 Q46.0 335.8 46.0 341.4" fill="none" stroke="#6B7280" stroke-width="1.26" stroke-linecap="round" stroke-linejoin="round" opacity="1"/><g fill="#1F2937" opacity="1"><path d="M292 728Q348 728 389.5 710.5Q431 693 458.0 662.0Q485 631 498.5 590.0Q512 549 512 501Q512 454 498.5 412.5Q485 371 458.0 340.5Q431 310 389.5 292.5Q348 275 292 275Q236 275 194.5 292.5Q153 310 126.0 340.5Q99 371 85.5 412.5Q72 454 72 501Q72 549 85.5 590.0Q99 631 126.0 662.0Q153 693 194.5 710.5Q236 728 292 728ZM292 665Q252 665 223.5 651.5Q195 638 177.0 615.5Q159 593 151.0 563.5Q143 534 143 501Q143 468 151.0 438.5Q159 409 177.0 386.5Q195 364 223.5 351.0Q252 338 292 338Q332 338 360.5 351.0Q389 364 407.0 386.5Q425 409 433.0 438.5Q441 468 441 501Q441 534 433.0 563.5Q425 593 407.0 615.5Q389 638 360.5 651.5Q332 665 292 665ZM750 774Q764 774 775.0 767.0Q786 760 786 744V134Q786 118 775.0 111.0Q764 104 750 104Q736 104 725.0 111.0Q714 118 714 134V369H571Q558 369 552.0 378.0Q546 387 546 401Q546 414 552.0 423.0Q558 432 571 432H714V566H571Q558 566 552.0 575.5Q546 585 546 598Q546 611 552.0 620.0Q558 629 571 629H714V744Q714 760 725.0 767.0Q736 774 750 774ZM252 182Q266 182 277.5 175.0Q289 168 289 152V-44Q289 -62 308 -62H786Q800 -62 806.0 -71.5Q812 -81 812 -94Q812 -107 806.0 -116.5Q800 -126 786 -126H284Q245 -126 230.0 -111.5Q215 -97 215 -59V152Q215 168 226.5 175.0Q238 182 252 182Z" transform="translate(66.000 337.130) scale(0.011000 -0.011000)"/><path d="M411 731Q450 731 465.0 716.5Q480 702 480 664V600Q480 566 475.5 540.0Q471 514 457.5 492.5Q444 471 420.0 451.5Q396 432 356.5 410.0Q317 388 260.5 361.5Q204 335 127 301Q116 295 104.0 299.5Q92 304 85 317Q79 328 81.0 342.0Q83 356 97 362Q205 409 267.0 439.0Q329 469 360.5 493.0Q392 517 400.0 542.0Q408 567 408 604V650Q408 668 389 668H116Q102 668 96.0 677.0Q90 686 90 699Q90 713 96.0 722.0Q102 731 116 731H411ZM750 774Q764 774 775.0 767.0Q786 760 786 744V336Q786 320 775.0 313.0Q764 306 750 306Q736 306 725.0 313.0Q714 320 714 336V417H547Q535 417 529.0 426.0Q523 435 523 448Q523 460 529.0 469.0Q535 478 547 478H714V577H555Q543 577 537.0 586.0Q531 595 531 608Q531 620 537.0 629.0Q543 638 555 638H714V744Q714 760 725.0 767.0Q736 774 750 774ZM717 256Q756 256 771.0 241.5Q786 227 786 189V97Q786 59 771.0 44.5Q756 30 717 30H307Q297 30 292.5 26.5Q288 23 288 12V-59Q288 -78 307 -78H786Q798 -78 804.0 -87.0Q810 -96 810 -108Q810 -120 804.0 -129.0Q798 -138 786 -138H286Q247 -138 232.0 -123.5Q217 -109 217 -71V22Q217 60 232.0 74.5Q247 89 286 89H696Q707 89 711.0 92.5Q715 96 715 107V178Q715 196 696 196H239Q227 196 221.0 205.0Q215 214 215 226Q215 238 221.0 247.0Q227 256 239 256H717Z" transform="translate(76.010 337.130) scale(0.011000 -0.011000)"/><path d="M544 727Q557 727 563.0 718.0Q569 709 569 696Q569 683 563.0 674.0Q557 665 544 665H216Q197 665 197 646V499Q197 480 216 480H554Q567 480 573.0 471.0Q579 462 579 449Q579 436 573.0 427.0Q567 418 554 418H194Q155 418 140.0 432.5Q125 447 125 485V660Q125 698 140.0 712.5Q155 727 194 727H544ZM762 774Q776 774 787.0 767.0Q798 760 798 744V114Q798 98 787.0 91.0Q776 84 762 84Q748 84 737.0 91.0Q726 98 726 114V744Q726 760 737.0 767.0Q748 774 762 774ZM633 298Q645 300 652.0 292.5Q659 285 661 271Q662 258 656.0 248.5Q650 239 639 237Q569 231 500.5 227.0Q432 223 363.0 220.5Q294 218 223.0 217.0Q152 216 77 216Q63 216 57.0 225.0Q51 234 51 247Q51 260 57.0 269.0Q63 278 77 278Q137 278 195.0 278.0Q253 278 313 280V440H385V283Q445 285 506.0 288.5Q567 292 633 298ZM243 144Q257 144 268.5 137.0Q280 130 280 114V-47Q280 -66 299 -66H799Q812 -66 818.0 -75.0Q824 -84 824 -97Q824 -110 818.0 -119.0Q812 -128 799 -128H275Q236 -128 221.0 -113.5Q206 -99 206 -61V114Q206 130 217.5 137.0Q229 144 243 144Z" transform="translate(86.020 337.130) scale(0.011000 -0.011000)"/><path d="M322 727Q336 727 347.5 720.0Q359 713 359 696V530Q359 497 363.0 471.0Q367 445 376.5 422.0Q386 399 401.5 377.0Q417 355 441 330Q474 295 505.5 264.0Q537 233 566 207Q577 198 575.5 184.5Q574 171 565 161Q557 153 544.0 150.5Q531 148 520 159Q494 182 466.0 209.5Q438 237 405 270Q381 295 366.0 313.0Q351 331 342.0 344.0Q333 357 328.5 367.0Q324 377 323 385H322Q320 376 315.5 366.5Q311 357 302.0 343.5Q293 330 278.0 312.0Q263 294 239 269Q206 236 176.0 206.5Q146 177 112 146Q100 135 86.5 138.0Q73 141 65 150Q56 161 55.0 173.5Q54 186 65 196Q101 229 135.0 262.0Q169 295 202 330Q226 355 241.5 377.0Q257 399 267.0 422.0Q277 445 281.0 471.0Q285 497 285 530V696Q285 713 296.0 720.0Q307 727 322 727ZM750 774Q764 774 775.0 767.0Q786 760 786 744V-52Q786 -68 775.0 -75.0Q764 -82 750 -82Q736 -82 725.0 -75.0Q714 -68 714 -52V435H535Q522 435 516.0 444.0Q510 453 510 467Q510 480 516.0 489.0Q522 498 535 498H714V744Q714 760 725.0 767.0Q736 774 750 774Z" transform="translate(98.780 337.130) scale(0.011000 -0.011000)"/><path d="M133 714Q147 714 158.0 707.0Q169 700 169 685V494H444V685Q444 700 454.5 707.0Q465 714 479 714Q493 714 504.5 707.0Q516 700 516 685V215Q516 177 501.0 162.5Q486 148 447 148H166Q127 148 112.0 162.5Q97 177 97 215V685Q97 700 108.0 707.0Q119 714 133 714ZM169 229Q169 218 173.0 214.5Q177 211 188 211H425Q435 211 439.5 214.5Q444 218 444 229V431H169ZM743 774Q757 774 768.5 767.0Q780 760 780 744V-52Q780 -68 768.5 -75.0Q757 -82 743 -82Q729 -82 718.0 -75.0Q707 -68 707 -52V744Q707 760 718.0 767.0Q729 774 743 774Z" transform="translate(108.790 337.130) scale(0.011000 -0.011000)"/><path d="M455 732Q469 732 480.5 724.5Q492 717 492 701V636Q492 601 496.5 574.0Q501 547 512.0 525.5Q523 504 543.0 485.0Q563 466 593 446Q638 417 687.5 387.5Q737 358 793 327Q804 322 805.0 308.0Q806 294 799 283Q792 272 780.0 267.0Q768 262 757 269Q710 295 659.5 324.5Q609 354 566 382Q510 417 486.0 443.5Q462 470 456 490H455Q449 469 425.0 442.5Q401 416 345 381Q301 353 251.0 323.5Q201 294 154 268Q142 261 130.5 266.0Q119 271 111 283Q104 294 105.0 308.0Q106 322 117 327Q173 358 222.5 387.5Q272 417 317 446Q347 466 367.0 485.0Q387 504 398.0 525.5Q409 547 413.5 574.0Q418 601 418 636V701Q418 717 429.5 724.5Q441 732 455 732ZM846 75Q860 75 866.0 65.5Q872 56 872 42Q872 29 866.0 20.0Q860 11 846 11H64Q50 11 44.0 20.0Q38 29 38 42Q38 56 44.0 65.5Q50 75 64 75H846Z" transform="translate(118.800 337.130) scale(0.011000 -0.011000)"/></g><polyline points="347.2,328.6 352.4,333.8 347.2,339.0" fill="none" stroke="#6B7280" stroke-width="1.3" stroke-linecap="round" stroke-linejoin="round" opacity="1"/><g fill="#1F2937" opacity="1"><path d="M244 736Q296 736 334.0 719.5Q372 703 397.0 674.5Q422 646 434.0 606.5Q446 567 446 521Q446 474 434.0 434.5Q422 395 397.0 366.5Q372 338 334.0 321.5Q296 305 244 305Q192 305 154.0 321.5Q116 338 91.0 366.5Q66 395 54.0 434.5Q42 474 42 521Q42 567 54.0 606.5Q66 646 91.0 674.5Q116 703 154.0 719.5Q192 736 244 736ZM244 653Q214 653 193.0 642.5Q172 632 159.0 614.0Q146 596 140.0 572.0Q134 548 134 521Q134 494 140.0 470.0Q146 446 159.0 428.0Q172 410 193.0 399.5Q214 389 244 389Q274 389 295.0 399.5Q316 410 329.0 428.0Q342 446 348.0 470.0Q354 494 354 521Q354 548 348.0 572.0Q342 596 329.0 614.0Q316 632 295.0 642.5Q274 653 244 653ZM771 778Q789 778 803.5 768.5Q818 759 818 739V322Q818 302 803.5 292.5Q789 283 771 283Q754 283 739.5 292.5Q725 302 725 322V479H618V327Q618 307 603.5 297.5Q589 288 571 288Q554 288 539.5 297.5Q525 307 525 327V734Q525 754 539.5 763.5Q554 773 571 773Q589 773 603.5 763.5Q618 754 618 734V563H725V739Q725 759 739.5 768.5Q754 778 771 778ZM257 240Q276 240 291.5 230.0Q307 220 307 199V115H720V199Q720 220 735.0 230.0Q750 240 768 240Q788 240 803.0 230.0Q818 220 818 199V-64Q818 -107 801.5 -123.0Q785 -139 741 -139H286Q242 -139 225.5 -123.0Q209 -107 209 -64V199Q209 220 224.0 230.0Q239 240 257 240ZM307 -36Q307 -47 311.5 -52.0Q316 -57 328 -57H699Q720 -57 720 -36V35H307Z" transform="translate(24.000 397.960) scale(0.012000 -0.012000)"/><path d="M319 758Q339 758 354.5 748.0Q370 738 370 716V629Q370 584 385.5 552.5Q401 521 436 495Q471 469 500.0 449.0Q529 429 555 412Q572 401 573.0 383.0Q574 365 563 351Q554 337 537.5 331.5Q521 326 504 337Q482 351 454.0 370.5Q426 390 392 415Q355 442 340.0 460.0Q325 478 321 492H320Q316 476 300.5 457.0Q285 438 247 410Q213 386 181.5 364.0Q150 342 118 321Q101 310 84.0 317.0Q67 324 58 338Q49 352 49.5 370.0Q50 388 67 399Q103 422 135.5 444.5Q168 467 203 493Q238 519 253.5 550.5Q269 582 269 627V716Q269 738 284.0 748.0Q299 758 319 758ZM746 778Q765 778 780.0 768.0Q795 758 795 736V348Q795 326 780.0 316.0Q765 306 746 306Q726 306 711.0 316.0Q696 326 696 348V535H544Q525 535 516.5 548.0Q508 561 508 578Q508 596 516.5 608.5Q525 621 544 621H696V736Q696 758 711.0 768.0Q726 778 746 778ZM718 263Q762 263 778.5 247.0Q795 231 795 188V96Q795 53 778.5 37.0Q762 21 718 21H327Q316 21 311.0 16.5Q306 12 306 0V-43Q306 -64 327 -64H784Q801 -64 809.0 -76.0Q817 -88 817 -104Q817 -120 809.0 -132.0Q801 -144 784 -144H286Q242 -144 225.5 -128.0Q209 -112 209 -69V23Q209 66 225.5 82.0Q242 98 286 98H676Q688 98 692.5 102.5Q697 107 697 119V162Q697 173 692.5 177.5Q688 182 676 182H240Q223 182 215.0 194.0Q207 206 207 223Q207 239 215.0 251.0Q223 263 240 263Z" transform="translate(37.920 397.960) scale(0.012000 -0.012000)"/><path d="M567 683Q567 666 558.5 653.5Q550 641 532 641H372V587Q372 539 387.0 506.0Q402 473 438 444Q473 415 503.5 392.0Q534 369 557 353Q574 340 575.0 323.5Q576 307 565 292Q555 280 538.5 273.5Q522 267 503 280Q486 292 457.5 313.5Q429 335 397 361Q359 391 343.5 410.0Q328 429 324 444H323Q319 427 302.5 407.0Q286 387 248 356Q215 330 184.0 307.0Q153 284 124 264Q107 251 89.5 257.0Q72 263 63 276Q52 291 53.0 308.5Q54 326 71 339Q106 364 139.0 388.0Q172 412 207 441Q242 470 257.0 503.0Q272 536 272 585V641H105Q86 641 77.5 653.5Q69 666 69 683Q69 700 77.5 713.0Q86 726 105 726H532Q550 726 558.5 713.0Q567 700 567 683ZM746 778Q765 778 780.0 768.0Q795 758 795 736V271Q795 250 780.0 240.0Q765 230 746 230Q726 230 711.0 240.0Q696 250 696 271V464H552Q533 464 524.5 477.0Q516 490 516 507Q516 525 524.5 537.5Q533 550 552 550H696V736Q696 758 711.0 768.0Q726 778 746 778ZM507 221Q647 221 723.5 173.5Q800 126 800 32Q800 -62 723.5 -109.5Q647 -157 507 -157Q367 -157 290.5 -109.5Q214 -62 214 32Q214 126 290.5 173.5Q367 221 507 221ZM507 140Q405 140 359.0 110.5Q313 81 313 32Q313 -18 359.0 -47.0Q405 -76 507 -76Q609 -76 655.0 -47.0Q701 -18 701 32Q701 82 655.0 111.0Q609 140 507 140Z" transform="translate(48.840 397.960) scale(0.012000 -0.012000)"/></g><rect x="18" y="416" width="354" height="92" rx="14" fill="#fff" stroke="#E1E8E4" stroke-width="1" opacity="1"/><circle cx="40.4" cy="432.9" r="2.8" fill="none" stroke="#6B7280" stroke-width="1.26" opacity="1"/><path d="M34.8 443.4 Q34.8 437.8 40.4 437.8 Q46.0 437.8 46.0 443.4" fill="none" stroke="#6B7280" stroke-width="1.26" stroke-linecap="round" stroke-linejoin="round" opacity="1"/><g fill="#1F2937" opacity="1"><path d="M407 704Q420 704 426.0 695.0Q432 686 432 673Q432 659 426.0 650.0Q420 641 407 641H160Q141 641 141 623V459H360Q374 459 380.0 450.0Q386 441 386 428Q386 416 380.0 406.5Q374 397 360 397H141V228Q141 210 160 210Q196 210 235.0 211.5Q274 213 312.0 215.0Q350 217 384.5 220.5Q419 224 448 228Q459 230 467.0 222.5Q475 215 477 202Q479 188 473.5 177.5Q468 167 456 165Q411 157 327.0 152.0Q243 147 139 147Q100 147 85.0 161.5Q70 176 70 214V637Q70 675 85.0 689.5Q100 704 139 704H407ZM598 764Q611 764 621.5 757.0Q632 750 632 735V-11Q632 -26 621.5 -33.0Q611 -40 598 -40Q584 -40 573.5 -33.0Q563 -26 563 -11V402H458Q445 402 439.5 411.0Q434 420 434 434Q434 448 439.5 457.0Q445 466 458 466H563V735Q563 750 573.5 757.0Q584 764 598 764ZM774 774Q788 774 798.5 767.0Q809 760 809 745V-53Q809 -68 798.5 -75.0Q788 -82 774 -82Q761 -82 750.5 -75.0Q740 -68 740 -53V745Q740 760 750.5 767.0Q761 774 774 774Z" transform="translate(66.000 439.130) scale(0.011000 -0.011000)"/><path d="M425 705Q464 705 479.0 690.5Q494 676 494 638V218Q494 180 479.0 165.5Q464 151 425 151H145Q106 151 91.0 165.5Q76 180 76 218V638Q76 676 91.0 690.5Q106 705 145 705ZM167 642Q148 642 148 624V232Q148 214 167 214H402Q421 214 421 232V624Q421 642 402 642ZM700 774Q714 774 725.5 767.0Q737 760 737 744V465H864Q878 465 884.0 455.5Q890 446 890 433Q890 419 884.0 409.5Q878 400 864 400H737V-52Q737 -68 725.5 -75.0Q714 -82 700 -82Q686 -82 675.0 -75.0Q664 -68 664 -52V744Q664 760 675.0 767.0Q686 774 700 774Z" transform="translate(76.010 439.130) scale(0.011000 -0.011000)"/><path d="M322 754Q336 754 347.5 747.0Q359 740 359 724V628Q359 578 374.5 546.5Q390 515 428 487Q466 459 496.5 437.5Q527 416 557 396Q570 388 571.0 374.5Q572 361 565 350Q558 340 545.5 336.5Q533 333 521 341Q496 358 466.0 378.5Q436 399 400 426Q360 455 343.0 475.0Q326 495 323 510H322Q319 494 301.5 473.0Q284 452 244 423Q208 397 173.0 372.5Q138 348 105 327Q92 319 80.0 322.5Q68 326 60 337Q53 348 54.0 361.5Q55 375 68 383Q106 408 141.5 432.5Q177 457 215 485Q253 514 269.0 545.5Q285 577 285 626V724Q285 740 296.0 747.0Q307 754 322 754ZM750 774Q764 774 775.0 767.0Q786 760 786 744V336Q786 320 775.0 313.0Q764 306 750 306Q736 306 725.0 313.0Q714 320 714 336V546H535Q522 546 516.0 555.0Q510 564 510 578Q510 591 516.0 600.5Q522 610 535 610H714V744Q714 760 725.0 767.0Q736 774 750 774ZM717 256Q756 256 771.0 241.5Q786 227 786 189V97Q786 59 771.0 44.5Q756 30 717 30H307Q297 30 292.5 26.5Q288 23 288 12V-59Q288 -78 307 -78H786Q798 -78 804.0 -87.0Q810 -96 810 -108Q810 -120 804.0 -129.0Q798 -138 786 -138H286Q247 -138 232.0 -123.5Q217 -109 217 -71V22Q217 60 232.0 74.5Q247 89 286 89H696Q707 89 711.0 92.5Q715 96 715 107V178Q715 196 696 196H239Q227 196 221.0 205.0Q215 214 215 226Q215 238 221.0 247.0Q227 256 239 256H717Z" transform="translate(88.770 439.130) scale(0.011000 -0.011000)"/><path d="M542 720Q555 720 561.0 711.0Q567 702 567 689Q567 675 561.0 666.0Q555 657 542 657H361V586Q361 534 377.0 499.5Q393 465 431 434Q469 405 502.5 380.0Q536 355 559 338Q572 328 573.0 315.5Q574 303 566 292Q559 282 547.0 278.0Q535 274 521 284Q503 296 471.0 320.0Q439 344 404 371Q365 403 347.0 424.5Q329 446 325 462H324Q320 445 302.0 423.0Q284 401 244 369Q209 341 174.5 315.5Q140 290 111 270Q98 261 86.0 265.0Q74 269 66 279Q58 290 58.5 303.0Q59 316 73 325Q109 351 144.0 377.0Q179 403 217 433Q255 464 271.0 498.5Q287 533 287 584V657H100Q87 657 81.0 666.0Q75 675 75 689Q75 702 81.0 711.0Q87 720 100 720H542ZM750 774Q764 774 775.0 767.0Q786 760 786 744V257Q786 241 775.0 234.0Q764 227 750 227Q736 227 725.0 234.0Q714 241 714 257V475H543Q530 475 524.0 484.0Q518 493 518 507Q518 520 524.0 529.5Q530 539 543 539H714V744Q714 760 725.0 767.0Q736 774 750 774ZM508 215Q645 215 719.0 168.5Q793 122 793 32Q793 -58 719.0 -104.5Q645 -151 508 -151Q371 -151 297.5 -104.5Q224 -58 224 32Q224 122 297.5 168.5Q371 215 508 215ZM508 155Q399 155 347.5 122.0Q296 89 296 32Q296 -25 347.5 -58.0Q399 -91 508 -91Q617 -91 669.0 -58.0Q721 -25 721 32Q721 89 669.0 122.0Q617 155 508 155Z" transform="translate(98.780 439.130) scale(0.011000 -0.011000)"/></g><polyline points="347.2,430.6 352.4,435.8 347.2,441.0" fill="none" stroke="#6B7280" stroke-width="1.3" stroke-linecap="round" stroke-linejoin="round" opacity="1"/><line x1="30" y1="462" x2="360" y2="462" stroke="#E1E8E4" stroke-width="1" stroke-linecap="round" opacity="1"/><circle cx="40.4" cy="478.9" r="2.8" fill="none" stroke="#6B7280" stroke-width="1.26" opacity="1"/><path d="M34.8 489.4 Q34.8 483.8 40.4 483.8 Q46.0 483.8 46.0 489.4" fill="none" stroke="#6B7280" stroke-width="1.26" stroke-linecap="round" stroke-linejoin="round" opacity="1"/><g fill="#1F2937" opacity="1"><path d="M331 728Q345 728 356.5 721.0Q368 714 368 697V536Q368 503 372.5 476.5Q377 450 386.5 426.5Q396 403 412.0 381.0Q428 359 452 334Q519 264 579 210Q590 201 588.0 187.5Q586 174 577 164Q569 156 556.0 153.5Q543 151 532 162Q505 186 477.0 213.5Q449 241 416 275Q392 299 377.0 317.0Q362 335 352.5 348.5Q343 362 338.5 372.0Q334 382 332 391H331Q329 382 324.5 371.5Q320 361 310.5 347.5Q301 334 285.5 316.0Q270 298 246 274Q214 240 183.5 210.5Q153 181 118 149Q106 138 93.0 141.0Q80 144 71 153Q62 164 61.5 176.5Q61 189 72 199Q145 266 210 334Q234 359 250.0 381.0Q266 403 275.5 426.5Q285 450 289.5 476.5Q294 503 294 536V697Q294 714 305.5 721.0Q317 728 331 728ZM743 774Q757 774 768.5 767.0Q780 760 780 744V-52Q780 -68 768.5 -75.0Q757 -82 743 -82Q729 -82 718.0 -75.0Q707 -68 707 -52V744Q707 760 718.0 767.0Q729 774 743 774Z" transform="translate(66.000 485.130) scale(0.011000 -0.011000)"/><path d="M455 732Q469 732 480.5 724.5Q492 717 492 701V636Q492 601 496.5 574.0Q501 547 512.0 525.5Q523 504 543.0 485.0Q563 466 593 446Q638 417 687.5 387.5Q737 358 793 327Q804 322 805.0 308.0Q806 294 799 283Q792 272 780.0 267.0Q768 262 757 269Q710 295 659.5 324.5Q609 354 566 382Q510 417 486.0 443.5Q462 470 456 490H455Q449 469 425.0 442.5Q401 416 345 381Q301 353 251.0 323.5Q201 294 154 268Q142 261 130.5 266.0Q119 271 111 283Q104 294 105.0 308.0Q106 322 117 327Q173 358 222.5 387.5Q272 417 317 446Q347 466 367.0 485.0Q387 504 398.0 525.5Q409 547 413.5 574.0Q418 601 418 636V701Q418 717 429.5 724.5Q441 732 455 732ZM846 75Q860 75 866.0 65.5Q872 56 872 42Q872 29 866.0 20.0Q860 11 846 11H64Q50 11 44.0 20.0Q38 29 38 42Q38 56 44.0 65.5Q50 75 64 75H846Z" transform="translate(76.010 485.130) scale(0.011000 -0.011000)"/><path d="M407 721Q420 721 426.0 712.0Q432 703 432 690Q432 677 426.0 668.0Q420 659 407 659H160Q141 659 141 640V537H360Q374 537 380.0 527.5Q386 518 386 506Q386 494 380.0 485.0Q374 476 360 476H141V369Q141 350 160 350Q196 350 235.0 351.5Q274 353 312.0 355.0Q350 357 384.5 360.5Q419 364 448 369Q459 371 467.0 363.0Q475 355 477 342Q479 328 473.5 318.0Q468 308 456 306Q411 298 327.0 293.0Q243 288 139 288Q100 288 85.0 302.5Q70 317 70 355V654Q70 692 85.0 706.5Q100 721 139 721H407ZM774 774Q788 774 798.5 767.0Q809 760 809 745V267Q809 252 798.5 245.5Q788 239 774 239Q761 239 750.5 245.5Q740 252 740 267V745Q740 760 750.5 767.0Q761 774 774 774ZM598 769Q611 769 621.5 762.0Q632 755 632 740V272Q632 257 621.5 250.5Q611 244 598 244Q584 244 573.5 250.5Q563 257 563 272V490H458Q445 490 439.5 499.5Q434 509 434 523Q434 536 439.5 545.0Q445 554 458 554H563V740Q563 755 573.5 762.0Q584 769 598 769ZM740 188Q779 188 794.0 173.5Q809 159 809 121V-66Q809 -104 794.0 -118.5Q779 -133 740 -133H286Q247 -133 232.0 -118.5Q217 -104 217 -66V121Q217 159 232.0 173.5Q247 188 286 188ZM309 126Q290 126 290 108V-53Q290 -71 309 -71H718Q737 -71 737 -53V108Q737 126 718 126Z" transform="translate(86.020 485.130) scale(0.011000 -0.011000)"/><path d="M322 754Q336 754 347.5 747.0Q359 740 359 724V628Q359 578 374.5 546.5Q390 515 428 487Q466 459 496.5 437.5Q527 416 557 396Q570 388 571.0 374.5Q572 361 565 350Q558 340 545.5 336.5Q533 333 521 341Q496 358 466.0 378.5Q436 399 400 426Q360 455 343.0 475.0Q326 495 323 510H322Q319 494 301.5 473.0Q284 452 244 423Q208 397 173.0 372.5Q138 348 105 327Q92 319 80.0 322.5Q68 326 60 337Q53 348 54.0 361.5Q55 375 68 383Q106 408 141.5 432.5Q177 457 215 485Q253 514 269.0 545.5Q285 577 285 626V724Q285 740 296.0 747.0Q307 754 322 754ZM750 774Q764 774 775.0 767.0Q786 760 786 744V336Q786 320 775.0 313.0Q764 306 750 306Q736 306 725.0 313.0Q714 320 714 336V546H535Q522 546 516.0 555.0Q510 564 510 578Q510 591 516.0 600.5Q522 610 535 610H714V744Q714 760 725.0 767.0Q736 774 750 774ZM717 256Q756 256 771.0 241.5Q786 227 786 189V97Q786 59 771.0 44.5Q756 30 717 30H307Q297 30 292.5 26.5Q288 23 288 12V-59Q288 -78 307 -78H786Q798 -78 804.0 -87.0Q810 -96 810 -108Q810 -120 804.0 -129.0Q798 -138 786 -138H286Q247 -138 232.0 -123.5Q217 -109 217 -71V22Q217 60 232.0 74.5Q247 89 286 89H696Q707 89 711.0 92.5Q715 96 715 107V178Q715 196 696 196H239Q227 196 221.0 205.0Q215 214 215 226Q215 238 221.0 247.0Q227 256 239 256H717Z" transform="translate(98.780 485.130) scale(0.011000 -0.011000)"/><path d="M542 720Q555 720 561.0 711.0Q567 702 567 689Q567 675 561.0 666.0Q555 657 542 657H361V586Q361 534 377.0 499.5Q393 465 431 434Q469 405 502.5 380.0Q536 355 559 338Q572 328 573.0 315.5Q574 303 566 292Q559 282 547.0 278.0Q535 274 521 284Q503 296 471.0 320.0Q439 344 404 371Q365 403 347.0 424.5Q329 446 325 462H324Q320 445 302.0 423.0Q284 401 244 369Q209 341 174.5 315.5Q140 290 111 270Q98 261 86.0 265.0Q74 269 66 279Q58 290 58.5 303.0Q59 316 73 325Q109 351 144.0 377.0Q179 403 217 433Q255 464 271.0 498.5Q287 533 287 584V657H100Q87 657 81.0 666.0Q75 675 75 689Q75 702 81.0 711.0Q87 720 100 720H542ZM750 774Q764 774 775.0 767.0Q786 760 786 744V257Q786 241 775.0 234.0Q764 227 750 227Q736 227 725.0 234.0Q714 241 714 257V475H543Q530 475 524.0 484.0Q518 493 518 507Q518 520 524.0 529.5Q530 539 543 539H714V744Q714 760 725.0 767.0Q736 774 750 774ZM508 215Q645 215 719.0 168.5Q793 122 793 32Q793 -58 719.0 -104.5Q645 -151 508 -151Q371 -151 297.5 -104.5Q224 -58 224 32Q224 122 297.5 168.5Q371 215 508 215ZM508 155Q399 155 347.5 122.0Q296 89 296 32Q296 -25 347.5 -58.0Q399 -91 508 -91Q617 -91 669.0 -58.0Q721 -25 721 32Q721 89 669.0 122.0Q617 155 508 155Z" transform="translate(108.790 485.130) scale(0.011000 -0.011000)"/></g><polyline points="347.2,476.6 352.4,481.8 347.2,487.0" fill="none" stroke="#6B7280" stroke-width="1.3" stroke-linecap="round" stroke-linejoin="round" opacity="1"/><g fill="#1F2937" opacity="1"><path d="M685 714Q729 714 745.5 698.0Q762 682 762 639V547Q762 455 753.5 382.5Q745 310 730 241Q725 221 708.0 212.5Q691 204 669 209Q651 212 639.5 224.0Q628 236 632 256Q646 327 654.0 397.0Q662 467 662 550V606Q662 627 641 627H172Q153 627 145.0 639.5Q137 652 137 670Q137 688 145.0 701.0Q153 714 172 714ZM392 421Q412 421 427.0 411.0Q442 401 442 379V86H840Q858 86 866.5 73.5Q875 61 875 44Q875 27 866.5 14.0Q858 1 840 1H70Q52 1 43.5 14.0Q35 27 35 44Q35 61 43.5 73.5Q52 86 70 86H343V379Q343 401 358.0 411.0Q373 421 392 421Z" transform="translate(24.000 545.960) scale(0.012000 -0.012000)"/><path d="M337 721Q381 721 397.5 705.0Q414 689 414 646V570Q414 517 405.5 481.0Q397 445 366.0 411.5Q335 378 276.0 340.0Q217 302 115 246Q99 237 81.5 243.5Q64 250 56 264Q47 280 48.5 298.5Q50 317 67 326Q155 374 205.5 404.5Q256 435 281.0 460.0Q306 485 312.0 510.0Q318 535 318 573V614Q318 635 297 635H93Q75 635 66.5 647.5Q58 660 58 677Q58 695 66.5 708.0Q75 721 93 721ZM771 778Q789 778 803.5 768.5Q818 759 818 739V276Q818 256 803.5 246.5Q789 237 771 237Q754 237 739.5 246.5Q725 256 725 276V471H612V281Q612 261 597.5 251.5Q583 242 565 242Q548 242 533.5 251.5Q519 261 519 281V734Q519 754 533.5 763.5Q548 773 565 773Q583 773 597.5 763.5Q612 754 612 734V555H725V739Q725 759 739.5 768.5Q754 778 771 778ZM818 119V-110Q818 -132 803.0 -142.0Q788 -152 768 -152Q748 -152 733.0 -142.0Q718 -132 718 -110V88Q718 108 697 108H227Q208 108 199.5 121.0Q191 134 191 151Q191 168 199.5 181.0Q208 194 227 194H741Q785 194 801.5 178.0Q818 162 818 119Z" transform="translate(34.920 545.960) scale(0.012000 -0.012000)"/><path d="M581 666Q581 649 572.5 636.0Q564 623 546 623H382V527Q382 494 385.5 468.0Q389 442 398.0 419.5Q407 397 422.0 376.0Q437 355 459 333Q491 301 521.0 272.0Q551 243 576 222Q591 208 588.5 190.0Q586 172 574 160Q562 147 545.0 144.0Q528 141 513 154Q491 174 464.5 199.5Q438 225 407 255Q386 277 372.0 292.5Q358 308 349.5 320.0Q341 332 337.0 341.0Q333 350 332 358H331Q329 349 325.0 340.0Q321 331 313.0 319.0Q305 307 291.0 291.0Q277 275 255 253Q225 223 196.0 195.0Q167 167 135 139Q119 125 101.0 130.0Q83 135 72 148Q60 162 59.5 179.5Q59 197 74 210Q109 241 140.0 271.0Q171 301 203 333Q225 355 240.0 376.0Q255 397 264.0 419.5Q273 442 276.5 468.0Q280 494 280 527V623H111Q92 623 83.5 636.0Q75 649 75 666Q75 683 83.5 696.0Q92 709 111 709H546Q564 709 572.5 696.0Q581 683 581 666ZM738 778Q758 778 773.5 768.0Q789 758 789 736V-44Q789 -66 773.5 -76.0Q758 -86 738 -86Q719 -86 703.5 -76.0Q688 -66 688 -44V736Q688 758 703.5 768.0Q719 778 738 778Z" transform="translate(48.840 545.960) scale(0.012000 -0.012000)"/><path d="M348 761Q467 761 526.0 714.5Q585 668 585 594Q585 520 526.0 473.5Q467 427 348 427Q229 427 170.5 473.0Q112 519 112 594Q112 669 170.5 715.0Q229 761 348 761ZM348 682Q274 682 240.0 657.0Q206 632 206 594Q206 556 240.0 531.0Q274 506 348 506Q422 506 456.5 531.0Q491 556 491 594Q491 632 456.5 657.0Q422 682 348 682ZM757 778Q777 778 792.0 768.0Q807 758 807 736V114Q807 92 792.0 82.0Q777 72 757 72Q738 72 723.0 82.0Q708 92 708 114V160H548Q531 160 522.5 171.5Q514 183 514 200Q514 217 522.5 229.0Q531 241 548 241H708V736Q708 758 723.0 768.0Q738 778 757 778ZM617 386Q634 388 644.0 377.5Q654 367 655 349Q657 332 649.5 319.0Q642 306 625 304Q573 297 513.5 292.5Q454 288 389 285V167Q389 147 374.5 137.5Q360 128 339 128Q319 128 304.5 137.5Q290 147 290 167V282Q185 279 82 279Q64 279 55.5 291.0Q47 303 47 320Q47 337 55.5 349.5Q64 362 82 362Q208 362 345.5 366.0Q483 370 617 386ZM245 112Q264 112 279.5 102.0Q295 92 295 70V-28Q295 -39 299.5 -44.0Q304 -49 316 -49H796Q814 -49 822.5 -61.5Q831 -74 831 -91Q831 -108 822.5 -121.0Q814 -134 796 -134H271Q227 -134 210.5 -118.0Q194 -102 194 -59V70Q194 92 209.5 102.0Q225 112 245 112Z" transform="translate(59.760 545.960) scale(0.012000 -0.012000)"/></g><rect x="18" y="564" width="354" height="138" rx="14" fill="#fff" stroke="#E1E8E4" stroke-width="1" opacity="1"/><circle cx="40.4" cy="580.9" r="2.8" fill="none" stroke="#6B7280" stroke-width="1.26" opacity="1"/><path d="M34.8 591.4 Q34.8 585.8 40.4 585.8 Q46.0 585.8 46.0 591.4" fill="none" stroke="#6B7280" stroke-width="1.26" stroke-linecap="round" stroke-linejoin="round" opacity="1"/><g fill="#1F2937" opacity="1"><path d="M306 721Q419 721 476.0 646.0Q533 571 533 428Q533 285 476.0 210.0Q419 135 306 135Q193 135 135.5 210.0Q78 285 78 428Q78 571 135.5 646.0Q193 721 306 721ZM306 656Q224 656 187.0 596.5Q150 537 150 428Q150 319 187.0 259.5Q224 200 306 200Q388 200 425.0 259.5Q462 319 462 428Q462 537 425.0 596.5Q388 656 306 656ZM743 774Q757 774 768.5 767.0Q780 760 780 744V-52Q780 -68 768.5 -75.0Q757 -82 743 -82Q729 -82 718.0 -75.0Q707 -68 707 -52V744Q707 760 718.0 767.0Q729 774 743 774Z" transform="translate(66.000 587.130) scale(0.011000 -0.011000)"/><path d="M455 753Q598 753 674.5 713.0Q751 673 751 589Q751 505 674.5 465.0Q598 425 455 425Q312 425 235.5 465.0Q159 505 159 589Q159 673 235.5 713.0Q312 753 455 753ZM455 693Q340 693 286.0 666.5Q232 640 232 589Q232 538 286.0 511.5Q340 485 455 485Q570 485 624.0 511.5Q678 538 678 589Q678 640 624.0 666.5Q570 693 455 693ZM347 314H563V470H633V314H847Q860 314 866.0 305.0Q872 296 872 283Q872 270 866.0 261.0Q860 252 847 252H63Q50 252 44.0 261.0Q38 270 38 283Q38 296 44.0 305.0Q50 314 63 314H277V470H347ZM455 173Q598 173 675.5 133.0Q753 93 753 9Q753 -75 675.5 -115.0Q598 -155 455 -155Q312 -155 234.5 -115.0Q157 -75 157 9Q157 93 234.5 133.0Q312 173 455 173ZM455 114Q340 114 285.0 87.0Q230 60 230 9Q230 -42 285.0 -69.0Q340 -96 455 -96Q570 -96 625.0 -69.0Q680 -42 680 9Q680 60 625.0 87.0Q570 114 455 114Z" transform="translate(76.010 587.130) scale(0.011000 -0.011000)"/><path d="M407 703Q446 703 461.0 688.5Q476 674 476 636V525Q476 483 471.0 450.0Q466 417 451.5 387.5Q437 358 412.0 330.0Q387 302 347.5 270.5Q308 239 251.0 202.0Q194 165 117 117Q106 110 93.5 114.0Q81 118 73 129Q65 140 66.0 154.0Q67 168 79 176Q151 220 203.5 254.0Q256 288 292.0 315.5Q328 343 350.0 366.5Q372 390 384.0 414.5Q396 439 400.0 466.0Q404 493 404 528V621Q404 639 385 639H102Q88 639 82.0 648.5Q76 658 76 671Q76 684 82.0 693.5Q88 703 102 703H407ZM700 774Q714 774 725.5 767.0Q737 760 737 744V465H864Q878 465 884.0 455.5Q890 446 890 433Q890 419 884.0 409.5Q878 400 864 400H737V-52Q737 -68 725.5 -75.0Q714 -82 700 -82Q686 -82 675.0 -75.0Q664 -68 664 -52V744Q664 760 675.0 767.0Q686 774 700 774Z" transform="translate(88.770 587.130) scale(0.011000 -0.011000)"/><path d="M306 721Q419 721 476.0 646.0Q533 571 533 428Q533 285 476.0 210.0Q419 135 306 135Q193 135 135.5 210.0Q78 285 78 428Q78 571 135.5 646.0Q193 721 306 721ZM306 656Q224 656 187.0 596.5Q150 537 150 428Q150 319 187.0 259.5Q224 200 306 200Q388 200 425.0 259.5Q462 319 462 428Q462 537 425.0 596.5Q388 656 306 656ZM743 774Q757 774 768.5 767.0Q780 760 780 744V-52Q780 -68 768.5 -75.0Q757 -82 743 -82Q729 -82 718.0 -75.0Q707 -68 707 -52V744Q707 760 718.0 767.0Q729 774 743 774Z" transform="translate(98.780 587.130) scale(0.011000 -0.011000)"/><path d="M725 712Q739 712 745.0 703.0Q751 694 751 681Q751 667 745.0 658.0Q739 649 725 649H249Q230 649 230 631V366Q230 347 249 347H735Q749 347 755.0 338.0Q761 329 761 316Q761 302 755.0 293.0Q749 284 735 284H226Q187 284 172.0 298.5Q157 313 157 351V645Q157 683 172.0 697.5Q187 712 226 712H725ZM846 75Q860 75 866.0 65.5Q872 56 872 42Q872 29 866.0 20.0Q860 11 846 11H64Q50 11 44.0 20.0Q38 29 38 42Q38 56 44.0 65.5Q50 75 64 75H846Z" transform="translate(108.790 587.130) scale(0.011000 -0.011000)"/></g><polyline points="347.2,578.6 352.4,583.8 347.2,589.0" fill="none" stroke="#6B7280" stroke-width="1.3" stroke-linecap="round" stroke-linejoin="round" opacity="1"/><line x1="30" y1="610" x2="360" y2="610" stroke="#E1E8E4" stroke-width="1" stroke-linecap="round" opacity="1"/><circle cx="40.4" cy="626.9" r="2.8" fill="none" stroke="#6B7280" stroke-width="1.26" opacity="1"/><path d="M34.8 637.4 Q34.8 631.8 40.4 631.8 Q46.0 631.8 46.0 637.4" fill="none" stroke="#6B7280" stroke-width="1.26" stroke-linecap="round" stroke-linejoin="round" opacity="1"/><g fill="#1F2937" opacity="1"><path d="M682 737Q721 737 736.0 722.5Q751 708 751 670V477Q751 439 736.0 424.5Q721 410 682 410H228Q189 410 174.0 424.5Q159 439 159 477V670Q159 708 174.0 722.5Q189 737 228 737ZM250 675Q239 675 235.0 671.5Q231 668 231 657V490Q231 479 235.0 475.5Q239 472 250 472H660Q671 472 675.0 475.5Q679 479 679 490V657Q679 668 675.0 671.5Q671 675 660 675ZM847 303Q860 303 866.0 294.0Q872 285 872 272Q872 259 866.0 250.0Q860 241 847 241H501V80Q501 65 490.5 58.5Q480 52 465 52Q451 52 440.0 58.5Q429 65 429 80V241H63Q50 241 44.0 250.0Q38 259 38 272Q38 285 44.0 294.0Q50 303 63 303H847ZM194 144Q208 144 219.0 137.0Q230 130 230 114V-49Q230 -68 249 -68H745Q758 -68 764.0 -77.0Q770 -86 770 -99Q770 -112 764.0 -121.0Q758 -130 745 -130H226Q187 -130 172.0 -115.5Q157 -101 157 -63V114Q157 130 168.0 137.0Q179 144 194 144Z" transform="translate(66.000 633.130) scale(0.011000 -0.011000)"/><path d="M344 721Q403 721 447.0 704.5Q491 688 520.5 659.5Q550 631 565.0 592.0Q580 553 580 508Q580 463 565.0 424.5Q550 386 520.5 357.5Q491 329 447.0 312.5Q403 296 344 296Q285 296 241.0 312.5Q197 329 167.5 357.5Q138 386 123.0 424.5Q108 463 108 508Q108 553 123.0 592.0Q138 631 167.5 659.5Q197 688 241.0 704.5Q285 721 344 721ZM344 658Q302 658 271.0 646.0Q240 634 219.5 614.0Q199 594 189.0 566.5Q179 539 179 508Q179 477 189.0 449.5Q199 422 219.5 402.0Q240 382 271.0 370.0Q302 358 344 358Q386 358 417.0 370.0Q448 382 468.5 402.0Q489 422 499.0 449.5Q509 477 509 508Q509 539 499.0 566.5Q489 594 468.5 614.0Q448 634 417.0 646.0Q386 658 344 658ZM633 163Q645 165 652.0 157.0Q659 149 661 136Q662 122 656.0 112.0Q650 102 639 101Q569 95 500.5 91.0Q432 87 363.0 84.0Q294 81 223.0 80.0Q152 79 77 79Q63 79 57.0 88.0Q51 97 51 111Q51 124 57.0 133.5Q63 143 77 143Q146 143 213.0 143.5Q280 144 348.0 146.0Q416 148 486.5 152.0Q557 156 633 163ZM762 774Q776 774 787.0 767.0Q798 760 798 744V-52Q798 -68 787.0 -75.0Q776 -82 762 -82Q748 -82 737.0 -75.0Q726 -68 726 -52V744Q726 760 737.0 767.0Q748 774 762 774Z" transform="translate(76.010 633.130) scale(0.011000 -0.011000)"/><path d="M311 500Q360 500 399.0 485.5Q438 471 465.0 445.5Q492 420 506.0 384.5Q520 349 520 307Q520 265 506.0 229.5Q492 194 465.0 168.5Q438 143 399.0 128.5Q360 114 311 114Q262 114 223.0 128.5Q184 143 157.0 168.5Q130 194 116.0 229.5Q102 265 102 307Q102 349 116.0 384.5Q130 420 157.0 445.5Q184 471 223.0 485.5Q262 500 311 500ZM311 774Q325 774 336.5 767.0Q348 760 348 744V643H549Q562 643 568.0 634.0Q574 625 574 612Q574 598 568.0 589.0Q562 580 549 580H63Q49 580 43.0 589.0Q37 598 37 612Q37 625 43.0 634.0Q49 643 63 643H274V744Q274 760 285.5 767.0Q297 774 311 774ZM311 439Q245 439 207.5 402.5Q170 366 170 307Q170 248 207.5 211.5Q245 175 311 175Q377 175 414.5 211.5Q452 248 452 307Q452 366 414.5 402.5Q377 439 311 439ZM701 774Q715 774 726.0 767.0Q737 760 737 744V455H864Q878 455 884.0 445.5Q890 436 890 423Q890 409 884.0 399.5Q878 390 864 390H737V-52Q737 -68 726.0 -75.0Q715 -82 701 -82Q687 -82 676.0 -75.0Q665 -68 665 -52V744Q665 760 676.0 767.0Q687 774 701 774Z" transform="translate(86.020 633.130) scale(0.011000 -0.011000)"/><path d="M429 704Q468 704 483.0 689.5Q498 675 498 637V524Q498 482 493.0 449.0Q488 416 473.5 386.5Q459 357 433.5 329.0Q408 301 368.0 269.5Q328 238 271.0 201.0Q214 164 137 116Q126 109 113.5 113.0Q101 117 93 128Q85 139 86.0 153.0Q87 167 99 175Q208 241 273.0 285.0Q338 329 372.0 365.5Q406 402 416.0 438.5Q426 475 426 527V622Q426 640 407 640H122Q108 640 102.0 649.5Q96 659 96 672Q96 685 102.0 694.5Q108 704 122 704H429ZM743 774Q757 774 768.5 767.0Q780 760 780 744V-52Q780 -68 768.5 -75.0Q757 -82 743 -82Q729 -82 718.0 -75.0Q707 -68 707 -52V744Q707 760 718.0 767.0Q729 774 743 774Z" transform="translate(96.030 633.130) scale(0.011000 -0.011000)"/></g><polyline points="347.2,624.6 352.4,629.8 347.2,635.0" fill="none" stroke="#6B7280" stroke-width="1.3" stroke-linecap="round" stroke-linejoin="round" opacity="1"/><line x1="30" y1="656" x2="360" y2="656" stroke="#E1E8E4" stroke-width="1" stroke-linecap="round" opacity="1"/><circle cx="40.4" cy="672.9" r="2.8" fill="none" stroke="#6B7280" stroke-width="1.26" opacity="1"/><path d="M34.8 683.4 Q34.8 677.8 40.4 677.8 Q46.0 677.8 46.0 683.4" fill="none" stroke="#6B7280" stroke-width="1.26" stroke-linecap="round" stroke-linejoin="round" opacity="1"/><g fill="#1F2937" opacity="1"><path d="M283 736Q340 736 382.5 719.0Q425 702 452.5 673.0Q480 644 494.0 604.5Q508 565 508 519Q508 474 494.0 434.5Q480 395 452.5 365.5Q425 336 382.5 319.5Q340 303 283 303Q226 303 183.5 319.5Q141 336 113.5 365.5Q86 395 72.0 434.5Q58 474 58 519Q58 565 72.0 604.5Q86 644 113.5 673.0Q141 702 183.5 719.0Q226 736 283 736ZM283 673Q242 673 212.5 660.5Q183 648 164.5 627.0Q146 606 137.5 578.0Q129 550 129 519Q129 488 137.5 460.0Q146 432 164.5 411.0Q183 390 212.5 377.5Q242 365 283 365Q324 365 353.5 377.5Q383 390 401.5 411.0Q420 432 428.5 460.0Q437 488 437 519Q437 550 428.5 578.0Q420 606 401.5 627.0Q383 648 353.5 660.5Q324 673 283 673ZM700 774Q714 774 725.5 767.0Q737 760 737 744V637H858Q871 637 877.0 628.0Q883 619 883 605Q883 592 877.0 583.0Q871 574 858 574H737V465H858Q871 465 877.0 456.0Q883 447 883 433Q883 420 877.0 411.0Q871 402 858 402H737V269Q737 253 725.5 246.0Q714 239 700 239Q686 239 675.0 246.0Q664 253 664 269V744Q664 760 675.0 767.0Q686 774 700 774ZM668 188Q707 188 722.0 173.5Q737 159 737 121V-118Q737 -134 725.5 -141.0Q714 -148 700 -148Q686 -148 675.0 -141.0Q664 -134 664 -118V107Q664 125 645 125H187Q174 125 168.0 134.0Q162 143 162 156Q162 170 168.0 179.0Q174 188 187 188H668Z" transform="translate(66.000 679.130) scale(0.011000 -0.011000)"/><path d="M473 719Q512 719 527.0 704.5Q542 690 542 652V588Q542 542 537.0 500.5Q532 459 521 422Q517 408 505.0 402.5Q493 397 477 400Q463 404 455.5 414.0Q448 424 452 438Q461 476 465.5 512.5Q470 549 470 591V637Q470 648 465.5 651.5Q461 655 451 655H126Q112 655 106.0 664.5Q100 674 100 687Q100 701 106.0 710.0Q112 719 126 719H473ZM718 774Q732 774 743.0 767.0Q754 760 754 744V488H868Q882 488 888.0 478.5Q894 469 894 456Q894 442 888.0 432.5Q882 423 868 423H754V120Q754 104 743.0 97.0Q732 90 718 90Q704 90 693.0 97.0Q682 104 682 120V744Q682 760 693.0 767.0Q704 774 718 774ZM259 516Q273 516 284.5 509.0Q296 502 296 486V307Q366 309 439.0 313.0Q512 317 590 324Q601 325 608.5 317.5Q616 310 617 296Q618 283 612.5 273.5Q607 264 595 262Q462 251 332.0 247.0Q202 243 63 243Q49 243 43.0 252.0Q37 261 37 274Q37 287 43.0 296.0Q49 305 63 305Q103 305 143.0 305.0Q183 305 224 306V486Q224 502 234.5 509.0Q245 516 259 516ZM213 151Q227 151 238.5 144.0Q250 137 250 120V-47Q250 -66 269 -66H755Q768 -66 774.0 -75.0Q780 -84 780 -97Q780 -110 774.0 -119.0Q768 -128 755 -128H245Q206 -128 191.0 -113.5Q176 -99 176 -61V120Q176 137 187.5 144.0Q199 151 213 151Z" transform="translate(76.010 679.130) scale(0.011000 -0.011000)"/><path d="M443 725Q482 725 497.0 710.5Q512 696 512 658V396Q512 358 497.0 343.5Q482 329 443 329H165Q126 329 111.0 343.5Q96 358 96 396V658Q96 696 111.0 710.5Q126 725 165 725ZM187 663Q168 663 168 644V410Q168 392 187 392H421Q440 392 440 410V644Q440 663 421 663ZM744 774Q758 774 769.0 767.0Q780 760 780 744V289Q780 273 769.0 266.0Q758 259 744 259Q730 259 718.5 266.0Q707 273 707 289V744Q707 760 718.5 767.0Q730 774 744 774ZM496 276Q510 276 521.5 269.0Q533 262 533 246V173H784Q796 173 801.5 164.0Q807 155 807 144Q807 132 801.5 123.0Q796 114 784 114H533V96Q533 78 537.5 63.0Q542 48 553.0 35.5Q564 23 582.5 11.0Q601 -1 630 -13Q671 -30 713.0 -45.5Q755 -61 800 -76Q813 -81 816.0 -90.5Q819 -100 815 -113Q810 -124 802.0 -130.5Q794 -137 780 -132Q736 -118 697.0 -103.0Q658 -88 620 -72Q566 -51 535.5 -28.5Q505 -6 498 15H497Q481 -31 374 -73Q336 -89 297.0 -104.0Q258 -119 214 -133Q201 -138 192.0 -131.5Q183 -125 179 -113Q174 -101 177.5 -91.0Q181 -81 194 -76Q239 -61 280.5 -45.5Q322 -30 363 -13Q391 -1 410.0 11.0Q429 23 440.0 35.5Q451 48 455.5 63.0Q460 78 460 96V114H205Q193 114 187.0 123.0Q181 132 181 144Q181 155 187.0 164.0Q193 173 205 173H460V246Q460 262 471.0 269.0Q482 276 496 276Z" transform="translate(88.770 679.130) scale(0.011000 -0.011000)"/><path d="M542 720Q555 720 561.0 711.0Q567 702 567 689Q567 675 561.0 666.0Q555 657 542 657H361V586Q361 534 377.0 499.5Q393 465 431 434Q469 405 502.5 380.0Q536 355 559 338Q572 328 573.0 315.5Q574 303 566 292Q559 282 547.0 278.0Q535 274 521 284Q503 296 471.0 320.0Q439 344 404 371Q365 403 347.0 424.5Q329 446 325 462H324Q320 445 302.0 423.0Q284 401 244 369Q209 341 174.5 315.5Q140 290 111 270Q98 261 86.0 265.0Q74 269 66 279Q58 290 58.5 303.0Q59 316 73 325Q109 351 144.0 377.0Q179 403 217 433Q255 464 271.0 498.5Q287 533 287 584V657H100Q87 657 81.0 666.0Q75 675 75 689Q75 702 81.0 711.0Q87 720 100 720H542ZM750 774Q764 774 775.0 767.0Q786 760 786 744V257Q786 241 775.0 234.0Q764 227 750 227Q736 227 725.0 234.0Q714 241 714 257V475H543Q530 475 524.0 484.0Q518 493 518 507Q518 520 524.0 529.5Q530 539 543 539H714V744Q714 760 725.0 767.0Q736 774 750 774ZM508 215Q645 215 719.0 168.5Q793 122 793 32Q793 -58 719.0 -104.5Q645 -151 508 -151Q371 -151 297.5 -104.5Q224 -58 224 32Q224 122 297.5 168.5Q371 215 508 215ZM508 155Q399 155 347.5 122.0Q296 89 296 32Q296 -25 347.5 -58.0Q399 -91 508 -91Q617 -91 669.0 -58.0Q721 -25 721 32Q721 89 669.0 122.0Q617 155 508 155Z" transform="translate(101.530 679.130) scale(0.011000 -0.011000)"/><path d="M270 778Q284 778 295.0 771.0Q306 764 306 748V660H454Q467 660 473.0 651.0Q479 642 479 629Q479 615 473.0 606.0Q467 597 454 597H306V550Q306 525 308.5 505.0Q311 485 318.0 467.5Q325 450 337.0 434.0Q349 418 368 401Q397 375 422.5 353.0Q448 331 469 314Q480 305 480.5 292.0Q481 279 473 269Q464 258 451.5 256.5Q439 255 428 263Q408 278 385.5 297.5Q363 317 340 338Q304 370 289.0 389.5Q274 409 272 423H271Q268 407 253.0 386.5Q238 366 201 334Q174 310 149.5 289.0Q125 268 97 246Q85 237 73.0 239.5Q61 242 52 253Q44 263 43.5 276.0Q43 289 54 297Q83 320 113.5 346.0Q144 372 173 399Q192 416 203.5 431.5Q215 447 222.0 464.5Q229 482 231.5 502.0Q234 522 234 547V597H73Q59 597 53.0 606.0Q47 615 47 629Q47 642 53.0 651.0Q59 660 73 660H234V748Q234 764 245.0 771.0Q256 778 270 778ZM774 774Q788 774 798.5 767.0Q809 760 809 745V247Q809 232 798.5 225.5Q788 219 774 219Q761 219 750.5 225.5Q740 232 740 247V472H607V252Q607 237 596.5 230.5Q586 224 572 224Q559 224 548.5 230.5Q538 237 538 252V740Q538 755 548.5 762.0Q559 769 572 769Q586 769 596.5 762.0Q607 755 607 740V535H740V745Q740 760 750.5 767.0Q761 774 774 774ZM740 168Q779 168 794.0 153.5Q809 139 809 101V-118Q809 -134 797.5 -141.0Q786 -148 772 -148Q758 -148 747.0 -141.0Q736 -134 736 -118V87Q736 105 717 105H224Q211 105 205.0 114.0Q199 123 199 136Q199 150 205.0 159.0Q211 168 224 168H740Z" transform="translate(111.540 679.130) scale(0.011000 -0.011000)"/></g><polyline points="347.2,670.6 352.4,675.8 347.2,681.0" fill="none" stroke="#6B7280" stroke-width="1.3" stroke-linecap="round" stroke-linejoin="round" opacity="1"/><rect x="18" y="688" width="354" height="44" rx="10" fill="#fff" stroke="#FFB6AD" stroke-width="1.2" opacity="1"/><g fill="#FF6B5F" opacity="1"><path d="M757 651V518Q757 476 740.5 460.0Q724 444 680 444H271Q250 444 250 423V348Q250 328 271 328H744Q762 328 770.5 315.0Q779 302 779 285Q779 268 770.5 255.5Q762 243 744 243H229Q185 243 168.5 259.0Q152 275 152 318V451Q152 494 168.5 509.5Q185 525 229 525H638Q659 525 659 546V620Q659 641 638 641H185Q167 641 158.5 653.5Q150 666 150 683Q150 700 158.5 713.0Q167 726 185 726H680Q724 726 740.5 710.0Q757 694 757 651ZM505 86H840Q858 86 866.5 73.5Q875 61 875 44Q875 27 866.5 14.0Q858 1 840 1H70Q52 1 43.5 14.0Q35 27 35 44Q35 61 43.5 73.5Q52 86 70 86H405V286H505Z" transform="translate(173.160 709.960) scale(0.012000 -0.012000)"/><path d="M754 635V552Q754 447 746.5 360.0Q739 273 722 194Q718 174 700.5 166.0Q683 158 661 162Q643 166 631.0 178.0Q619 190 624 210Q640 293 647.0 374.5Q654 456 654 534V601Q654 613 649.0 617.5Q644 622 633 622H174Q155 622 147.0 635.0Q139 648 139 665Q139 684 147.0 697.0Q155 710 174 710H677Q721 710 737.5 694.0Q754 678 754 635ZM875 44Q875 27 866.5 14.0Q858 1 840 1H70Q52 1 43.5 14.0Q35 27 35 44Q35 62 43.5 74.5Q52 87 70 87H840Q858 87 866.5 74.5Q875 62 875 44Z" transform="translate(184.080 709.960) scale(0.012000 -0.012000)"/><path d="M283 726Q399 726 458.0 650.0Q517 574 517 428Q517 282 458.0 206.0Q399 130 283 130Q167 130 108.5 206.0Q50 282 50 428Q50 574 108.5 650.0Q167 726 283 726ZM283 638Q210 638 178.5 584.5Q147 531 147 428Q147 325 178.5 271.5Q210 218 283 218Q357 218 388.5 271.5Q420 325 420 428Q420 531 388.5 584.5Q357 638 283 638ZM696 778Q716 778 731.0 768.0Q746 758 746 736V476H856Q876 476 884.5 463.5Q893 451 893 433Q893 415 884.5 402.0Q876 389 856 389H746V-44Q746 -66 731.0 -76.0Q716 -86 696 -86Q676 -86 661.0 -76.0Q646 -66 646 -44V736Q646 758 661.0 768.0Q676 778 696 778Z" transform="translate(195.000 709.960) scale(0.012000 -0.012000)"/><path d="M455 759Q599 759 679.0 717.0Q759 675 759 587Q759 498 679.0 456.5Q599 415 455 415Q311 415 231.0 456.5Q151 498 151 587Q151 675 231.0 717.0Q311 759 455 759ZM455 678Q347 678 298.5 655.0Q250 632 250 587Q250 542 298.5 519.0Q347 496 455 496Q563 496 611.5 519.0Q660 542 660 587Q660 632 611.5 655.0Q563 678 455 678ZM875 311Q875 294 866.5 281.5Q858 269 841 269H504V216Q504 196 489.5 186.5Q475 177 455 177Q435 177 420.5 186.5Q406 196 406 216V269H69Q52 269 43.5 281.5Q35 294 35 311Q35 328 43.5 340.5Q52 353 69 353H841Q858 353 866.5 340.5Q875 328 875 311ZM455 181Q476 181 490.5 171.5Q505 162 505 142V131Q505 89 530.5 62.0Q556 35 612 10Q657 -10 697.5 -26.5Q738 -43 781 -60Q795 -66 799.0 -82.5Q803 -99 796 -115Q790 -131 774.5 -138.0Q759 -145 740 -138Q705 -124 665.5 -107.5Q626 -91 588 -74Q520 -44 491.5 -21.5Q463 1 456 21H455Q449 0 420.0 -23.0Q391 -46 323 -76Q285 -93 245.5 -109.5Q206 -126 171 -140Q152 -147 137.0 -140.0Q122 -133 115 -116Q108 -101 111.0 -84.0Q114 -67 130 -60Q173 -43 213.5 -26.5Q254 -10 299 10Q354 35 379.5 62.0Q405 89 405 131V142Q405 162 420.0 171.5Q435 181 455 181Z" transform="translate(205.920 709.960) scale(0.012000 -0.012000)"/></g><rect x="0" y="756" width="390" height="88" rx="0" fill="#fff" stroke-width="1" opacity="1"/><line x1="0" y1="757" x2="390" y2="757" stroke="#E1E8E4" stroke-width="1" stroke-linecap="round" opacity="1"/><path d="M30 780 L39 772 L48 780 V790 H42 V784 H36 V790 H30Z" fill="none" stroke="#9AA4AD" stroke-width="1.8" stroke-linecap="round" stroke-linejoin="round" opacity="1"/><g fill="#9AA4AD" opacity="1"><path d="M455 801Q469 801 480.5 794.0Q492 787 492 771V705H776Q788 705 794.0 696.0Q800 687 800 675Q800 663 794.0 654.0Q788 645 776 645H134Q122 645 116.0 654.0Q110 663 110 675Q110 687 116.0 696.0Q122 705 134 705H418V771Q418 787 429.5 794.0Q441 801 455 801ZM455 588Q580 588 649.5 557.5Q719 527 719 461Q719 395 649.5 364.0Q580 333 455 333Q330 333 260.5 364.0Q191 395 191 461Q191 527 260.5 557.5Q330 588 455 588ZM455 532Q262 532 262 461Q262 390 455 390Q648 390 648 461Q648 532 455 532ZM491 254H848Q860 254 866.0 245.0Q872 236 872 224Q872 213 866.0 204.0Q860 195 848 195H62Q50 195 44.0 204.0Q38 213 38 224Q38 236 44.0 245.0Q50 254 62 254H419V360H491ZM680 120Q719 120 734.0 105.5Q749 91 749 53V-70Q749 -108 734.0 -122.5Q719 -137 680 -137H230Q191 -137 176.0 -122.5Q161 -108 161 -70V53Q161 91 176.0 105.5Q191 120 230 120ZM251 61Q232 61 232 43V-60Q232 -79 251 -79H659Q678 -79 678 -60V43Q678 61 659 61Z" transform="translate(34.222 820.715) scale(0.010500 -0.010500)"/></g><path d="M108 793 V779 H126 V793 M106 779 H128 M112 779 V776 Q117 770 122 776 V779" fill="none" stroke="#9AA4AD" stroke-width="1.7" stroke-linecap="round" stroke-linejoin="round" opacity="1"/><g fill="#9AA4AD" opacity="1"><path d="M113 741Q127 741 138.0 734.0Q149 727 149 712V599H418V712Q418 727 429.0 734.0Q440 741 454 741Q468 741 479.0 734.0Q490 727 490 712V415Q490 377 475.0 362.5Q460 348 421 348H146Q107 348 92.0 362.5Q77 377 77 415V712Q77 727 88.0 734.0Q99 741 113 741ZM149 427Q149 416 153.0 412.5Q157 409 168 409H399Q410 409 414.0 412.5Q418 416 418 427V538H149ZM700 774Q714 774 725.5 767.0Q737 760 737 744V576H864Q878 576 884.0 566.5Q890 557 890 543Q890 530 884.0 520.5Q878 511 864 511H737V330Q737 314 725.5 307.0Q714 300 700 300Q686 300 675.0 307.0Q664 314 664 330V744Q664 760 675.0 767.0Q686 774 700 774ZM727 244Q739 244 745.0 235.0Q751 226 751 214Q751 202 745.0 193.0Q739 184 727 184H271Q252 184 252 166V83H717Q729 83 735.0 74.0Q741 65 741 53Q741 41 735.0 32.5Q729 24 717 24H252V-59Q252 -78 271 -78H737Q749 -78 755.0 -87.0Q761 -96 761 -108Q761 -120 755.0 -129.0Q749 -138 737 -138H251Q212 -138 197.0 -123.5Q182 -109 182 -71V177Q182 215 197.0 229.5Q212 244 251 244H727Z" transform="translate(101.355 820.715) scale(0.010500 -0.010500)"/><path d="M473 719Q512 719 527.0 704.5Q542 690 542 652V588Q542 542 537.0 500.5Q532 459 521 422Q517 408 505.0 402.5Q493 397 477 400Q463 404 455.5 414.0Q448 424 452 438Q461 476 465.5 512.5Q470 549 470 591V637Q470 648 465.5 651.5Q461 655 451 655H126Q112 655 106.0 664.5Q100 674 100 687Q100 701 106.0 710.0Q112 719 126 719H473ZM718 774Q732 774 743.0 767.0Q754 760 754 744V488H868Q882 488 888.0 478.5Q894 469 894 456Q894 442 888.0 432.5Q882 423 868 423H754V120Q754 104 743.0 97.0Q732 90 718 90Q704 90 693.0 97.0Q682 104 682 120V744Q682 760 693.0 767.0Q704 774 718 774ZM259 516Q273 516 284.5 509.0Q296 502 296 486V307Q366 309 439.0 313.0Q512 317 590 324Q601 325 608.5 317.5Q616 310 617 296Q618 283 612.5 273.5Q607 264 595 262Q462 251 332.0 247.0Q202 243 63 243Q49 243 43.0 252.0Q37 261 37 274Q37 287 43.0 296.0Q49 305 63 305Q103 305 143.0 305.0Q183 305 224 306V486Q224 502 234.5 509.0Q245 516 259 516ZM213 151Q227 151 238.5 144.0Q250 137 250 120V-47Q250 -66 269 -66H755Q768 -66 774.0 -75.0Q780 -84 780 -97Q780 -110 774.0 -119.0Q768 -128 755 -128H245Q206 -128 191.0 -113.5Q176 -99 176 -61V120Q176 137 187.5 144.0Q199 151 213 151Z" transform="translate(113.535 820.715) scale(0.010500 -0.010500)"/><path d="M431 711Q470 711 485.0 696.5Q500 682 500 644V459Q500 421 485.0 406.5Q470 392 431 392H191Q172 392 172 374V209Q172 191 191 191Q309 191 403.5 196.5Q498 202 587 215Q599 217 607.0 209.0Q615 201 617 188Q619 174 613.5 163.5Q608 153 596 151Q557 146 513.5 141.5Q470 137 418.0 134.0Q366 131 305.0 129.5Q244 128 169 128Q130 128 115.0 142.5Q100 157 100 195V386Q100 424 115.0 438.5Q130 453 169 453H409Q428 453 428 472V630Q428 648 409 648H125Q112 648 106.0 657.0Q100 666 100 680Q100 693 106.0 702.0Q112 711 125 711H431ZM743 774Q757 774 768.5 767.0Q780 760 780 744V-52Q780 -68 768.5 -75.0Q757 -82 743 -82Q729 -82 718.0 -75.0Q707 -68 707 -52V744Q707 760 718.0 767.0Q729 774 743 774Z" transform="translate(123.090 820.715) scale(0.010500 -0.010500)"/></g><path d="M186 773 H204 Q206 773 206 775 V785 Q206 787 204 787 H196 L190 792 V787 H186 Q184 787 184 785 V775 Q184 773 186 773Z" fill="none" stroke="#9AA4AD" stroke-width="1.8" stroke-linecap="round" stroke-linejoin="round" opacity="1"/><circle cx="191" cy="780" r="1.3" fill="#9AA4AD" stroke-width="1" opacity="1"/><circle cx="195" cy="780" r="1.3" fill="#9AA4AD" stroke-width="1" opacity="1"/><circle cx="199" cy="780" r="1.3" fill="#9AA4AD" stroke-width="1" opacity="1"/><g fill="#9AA4AD" opacity="1"><path d="M331 719Q346 719 357.0 712.0Q368 705 375 687L623 47Q629 31 622.5 19.5Q616 8 602 3Q587 -2 573.5 1.5Q560 5 554 22L479 221H179L103 21Q97 5 84.0 1.5Q71 -2 56 3Q42 8 36.5 19.0Q31 30 37 46L286 687Q293 705 304.5 712.0Q316 719 331 719ZM330 632Q319 596 307.0 560.5Q295 525 278 483L202 283H457L383 483Q367 524 354.0 561.0Q341 598 330 632Z" transform="translate(179.318 820.715) scale(0.010500 -0.010500)"/><path d="M128 719Q143 719 154.0 712.0Q165 705 165 689V30Q165 14 154.0 7.0Q143 0 128 0Q114 0 103.0 7.0Q92 14 92 30V689Q92 705 103.0 712.0Q114 719 128 719Z" transform="translate(186.248 820.715) scale(0.010500 -0.010500)"/><path d="M310 744Q324 744 335.5 737.0Q347 730 347 714V612Q347 561 364.0 524.5Q381 488 419 456Q456 426 489.0 400.5Q522 375 550 355Q562 347 563.0 333.5Q564 320 556 309Q548 299 536.0 295.5Q524 292 511 301Q488 317 456.5 341.5Q425 366 391 393Q353 424 334.0 447.5Q315 471 311 486H310Q306 470 287.0 446.0Q268 422 230 391Q196 363 162.5 337.5Q129 312 95 288Q82 279 69.5 282.0Q57 285 49 296Q41 306 41.5 320.0Q42 334 55 343Q94 371 129.0 397.5Q164 424 201 455Q239 487 256.0 523.0Q273 559 273 610V714Q273 730 284.5 737.0Q296 744 310 744ZM700 774Q714 774 725.5 767.0Q737 760 737 744V547H864Q878 547 884.0 537.5Q890 528 890 514Q890 501 884.0 491.5Q878 482 864 482H737V257Q737 241 725.5 234.0Q714 227 700 227Q686 227 675.0 234.0Q664 241 664 257V744Q664 760 675.0 767.0Q686 774 700 774ZM466 215Q600 215 672.0 168.5Q744 122 744 32Q744 -58 672.0 -104.5Q600 -151 466 -151Q332 -151 260.5 -104.5Q189 -58 189 32Q189 122 260.5 168.5Q332 215 466 215ZM466 155Q360 155 310.5 122.0Q261 89 261 32Q261 -25 310.5 -58.0Q360 -91 466 -91Q572 -91 622.0 -58.0Q672 -25 672 32Q672 89 622.0 122.0Q572 155 466 155Z" transform="translate(191.572 820.715) scale(0.010500 -0.010500)"/><path d="M477 723Q491 723 497.0 714.0Q503 705 503 692Q503 678 497.0 669.0Q491 660 477 660H172Q153 660 153 642V405Q153 394 157.0 390.5Q161 387 172 387Q283 387 375.0 392.5Q467 398 557 410Q569 412 577.0 404.5Q585 397 587 384Q589 370 583.5 359.5Q578 349 566 347Q527 341 483.5 336.5Q440 332 389.5 329.0Q339 326 279.5 324.5Q220 323 149 323Q110 323 95.0 337.5Q80 352 80 390V656Q80 694 95.0 708.5Q110 723 149 723H477ZM700 774Q714 774 725.5 767.0Q737 760 737 744V557H864Q878 557 884.0 547.5Q890 538 890 524Q890 511 884.0 501.5Q878 492 864 492H737V289Q737 273 725.5 266.0Q714 259 700 259Q686 259 675.0 266.0Q664 273 664 289V744Q664 760 675.0 767.0Q686 774 700 774ZM668 208Q707 208 722.0 193.5Q737 179 737 141V-66Q737 -104 722.0 -118.5Q707 -133 668 -133H249Q210 -133 195.0 -118.5Q180 -104 180 -66V141Q180 179 195.0 193.5Q210 208 249 208ZM272 146Q253 146 253 127V-52Q253 -71 272 -71H646Q665 -71 665 -52V127Q665 146 646 146Z" transform="translate(201.127 820.715) scale(0.010500 -0.010500)"/></g><path d="M262 773 H278 Q281 773 281 776 V786 Q281 789 278 789 H271 L266 793 V789 H262 Q259 789 259 786 V776 Q259 773 262 773Z" fill="none" stroke="#9AA4AD" stroke-width="1.6" stroke-linecap="round" stroke-linejoin="round" opacity="1"/><g fill="#9AA4AD" opacity="1"><path d="M427 705Q466 705 481.0 690.5Q496 676 496 638V509Q496 442 483.5 395.5Q471 349 433.0 307.0Q395 265 325.0 218.5Q255 172 140 105Q128 98 116.0 102.0Q104 106 96 117Q88 128 89.5 142.5Q91 157 103 164Q190 214 247.5 249.5Q305 285 341.0 314.0Q377 343 394.5 370.0Q412 397 418 430L104 412Q90 410 83.5 419.5Q77 429 76 442Q75 455 80.5 465.0Q86 475 100 476L424 491V504V623Q424 634 420.0 637.5Q416 641 405 641H126Q112 641 106.0 650.5Q100 660 100 673Q100 686 106.0 695.5Q112 705 126 705H427ZM750 774Q764 774 775.0 767.0Q786 760 786 744V-52Q786 -68 775.0 -75.0Q764 -82 750 -82Q736 -82 725.0 -75.0Q714 -68 714 -52V397H470V460H714V744Q714 760 725.0 767.0Q736 774 750 774Z" transform="translate(253.890 820.715) scale(0.010500 -0.010500)"/><path d="M683 731Q722 731 737.0 716.5Q752 702 752 664V433Q752 395 737.0 380.5Q722 366 683 366H227Q188 366 173.0 380.5Q158 395 158 433V664Q158 702 173.0 716.5Q188 731 227 731ZM250 668Q231 668 231 650V447Q231 429 250 429H660Q679 429 679 447V650Q679 668 660 668ZM847 242Q860 242 866.0 233.0Q872 224 872 211Q872 198 866.0 189.0Q860 180 847 180H636V-117Q636 -133 625.5 -140.0Q615 -147 601 -147Q587 -147 576.5 -140.0Q566 -133 566 -117V180H344V-117Q344 -133 333.5 -140.0Q323 -147 309 -147Q295 -147 284.5 -140.0Q274 -133 274 -117V180H63Q50 180 44.0 189.0Q38 198 38 211Q38 224 44.0 233.0Q50 242 63 242H847Z" transform="translate(263.445 820.715) scale(0.010500 -0.010500)"/><path d="M139 714Q154 714 165.0 707.0Q176 700 176 684V234Q176 215 195 215Q310 215 404.0 221.0Q498 227 587 239Q599 241 607.0 233.5Q615 226 617 212Q619 198 613.5 187.5Q608 177 596 175Q557 170 513.5 165.5Q470 161 418.5 158.0Q367 155 306.0 153.5Q245 152 172 152Q133 152 118.0 166.5Q103 181 103 219V684Q103 700 114.0 707.0Q125 714 139 714ZM743 774Q757 774 768.5 767.0Q780 760 780 744V-52Q780 -68 768.5 -75.0Q757 -82 743 -82Q729 -82 718.0 -75.0Q707 -68 707 -52V744Q707 760 718.0 767.0Q729 774 743 774Z" transform="translate(273.000 820.715) scale(0.010500 -0.010500)"/><path d="M503 711Q517 711 523.0 702.0Q529 693 529 680Q529 666 523.0 657.0Q517 648 503 648H191Q172 648 172 630V460H493Q507 460 513.0 451.0Q519 442 519 429Q519 416 513.0 407.0Q507 398 493 398H172V223Q172 205 191 205Q309 205 403.5 210.5Q498 216 587 229Q599 231 607.0 223.5Q615 216 617 202Q619 188 613.5 177.5Q608 167 596 165Q557 160 513.5 155.5Q470 151 418.0 148.0Q366 145 305.0 143.5Q244 142 169 142Q130 142 115.0 156.5Q100 171 100 209V644Q100 682 115.0 696.5Q130 711 169 711H503ZM743 774Q757 774 768.5 767.0Q780 760 780 744V-52Q780 -68 768.5 -75.0Q757 -82 743 -82Q729 -82 718.0 -75.0Q707 -68 707 -52V744Q707 760 718.0 767.0Q729 774 743 774Z" transform="translate(282.555 820.715) scale(0.010500 -0.010500)"/></g><circle cx="351" cy="781" r="3.2" fill="none" stroke="#2FA86A" stroke-width="1.8" opacity="1"/><line x1="358.0" y1="781.0" x2="361.0" y2="781.0" stroke="#2FA86A" stroke-width="2" stroke-linecap="round" opacity="1"/><line x1="355.9497474683058" y1="785.9497474683059" x2="358.0710678118655" y2="788.0710678118654" stroke="#2FA86A" stroke-width="2" stroke-linecap="round" opacity="1"/><line x1="351.0" y1="788.0" x2="351.0" y2="791.0" stroke="#2FA86A" stroke-width="2" stroke-linecap="round" opacity="1"/><line x1="346.0502525316942" y1="785.9497474683059" x2="343.9289321881345" y2="788.0710678118655" stroke="#2FA86A" stroke-width="2" stroke-linecap="round" opacity="1"/><line x1="344.0" y1="781.0" x2="341.0" y2="781.0" stroke="#2FA86A" stroke-width="2" stroke-linecap="round" opacity="1"/><line x1="346.0502525316942" y1="776.0502525316941" x2="343.9289321881345" y2="773.9289321881346" stroke="#2FA86A" stroke-width="2" stroke-linecap="round" opacity="1"/><line x1="351.0" y1="774.0" x2="351.0" y2="771.0" stroke="#2FA86A" stroke-width="2" stroke-linecap="round" opacity="1"/><line x1="355.9497474683058" y1="776.0502525316941" x2="358.0710678118655" y2="773.9289321881345" stroke="#2FA86A" stroke-width="2" stroke-linecap="round" opacity="1"/><circle cx="351" cy="781" r="8" fill="none" stroke="#2FA86A" stroke-width="1.5" opacity="1"/><g fill="#2FA86A" opacity="1"><path d="M319 758Q339 758 354.5 748.0Q370 738 370 716V629Q370 584 385.5 552.5Q401 521 436 495Q471 469 500.0 449.0Q529 429 555 412Q572 401 573.0 383.0Q574 365 563 351Q554 337 537.5 331.5Q521 326 504 337Q482 351 454.0 370.5Q426 390 392 415Q355 442 340.0 460.0Q325 478 321 492H320Q316 476 300.5 457.0Q285 438 247 410Q213 386 181.5 364.0Q150 342 118 321Q101 310 84.0 317.0Q67 324 58 338Q49 352 49.5 370.0Q50 388 67 399Q103 422 135.5 444.5Q168 467 203 493Q238 519 253.5 550.5Q269 582 269 627V716Q269 738 284.0 748.0Q299 758 319 758ZM746 778Q765 778 780.0 768.0Q795 758 795 736V348Q795 326 780.0 316.0Q765 306 746 306Q726 306 711.0 316.0Q696 326 696 348V535H544Q525 535 516.5 548.0Q508 561 508 578Q508 596 516.5 608.5Q525 621 544 621H696V736Q696 758 711.0 768.0Q726 778 746 778ZM718 263Q762 263 778.5 247.0Q795 231 795 188V96Q795 53 778.5 37.0Q762 21 718 21H327Q316 21 311.0 16.5Q306 12 306 0V-43Q306 -64 327 -64H784Q801 -64 809.0 -76.0Q817 -88 817 -104Q817 -120 809.0 -132.0Q801 -144 784 -144H286Q242 -144 225.5 -128.0Q209 -112 209 -69V23Q209 66 225.5 82.0Q242 98 286 98H676Q688 98 692.5 102.5Q697 107 697 119V162Q697 173 692.5 177.5Q688 182 676 182H240Q223 182 215.0 194.0Q207 206 207 223Q207 239 215.0 251.0Q223 263 240 263Z" transform="translate(341.445 820.715) scale(0.010500 -0.010500)"/><path d="M567 683Q567 666 558.5 653.5Q550 641 532 641H372V587Q372 539 387.0 506.0Q402 473 438 444Q473 415 503.5 392.0Q534 369 557 353Q574 340 575.0 323.5Q576 307 565 292Q555 280 538.5 273.5Q522 267 503 280Q486 292 457.5 313.5Q429 335 397 361Q359 391 343.5 410.0Q328 429 324 444H323Q319 427 302.5 407.0Q286 387 248 356Q215 330 184.0 307.0Q153 284 124 264Q107 251 89.5 257.0Q72 263 63 276Q52 291 53.0 308.5Q54 326 71 339Q106 364 139.0 388.0Q172 412 207 441Q242 470 257.0 503.0Q272 536 272 585V641H105Q86 641 77.5 653.5Q69 666 69 683Q69 700 77.5 713.0Q86 726 105 726H532Q550 726 558.5 713.0Q567 700 567 683ZM746 778Q765 778 780.0 768.0Q795 758 795 736V271Q795 250 780.0 240.0Q765 230 746 230Q726 230 711.0 240.0Q696 250 696 271V464H552Q533 464 524.5 477.0Q516 490 516 507Q516 525 524.5 537.5Q533 550 552 550H696V736Q696 758 711.0 768.0Q726 778 746 778ZM507 221Q647 221 723.5 173.5Q800 126 800 32Q800 -62 723.5 -109.5Q647 -157 507 -157Q367 -157 290.5 -109.5Q214 -62 214 32Q214 126 290.5 173.5Q367 221 507 221ZM507 140Q405 140 359.0 110.5Q313 81 313 32Q313 -18 359.0 -47.0Q405 -76 507 -76Q609 -76 655.0 -47.0Q701 -18 701 32Q701 82 655.0 111.0Q609 140 507 140Z" transform="translate(351.000 820.715) scale(0.010500 -0.010500)"/></g></svg>