<svg xmlns="http://www.w3.org/2000/svg" width="110" height="110" viewBox="0 0 110 110" role="img" aria-label="field-preparation"><title>field-preparation</title><rect x="5" y="5" width="100" height="100" rx="22" fill="#FFFFFF" stroke="#E1E8E4" stroke-width="2" opacity="1"/><ellipse cx="53.0" cy="77.85000000000001" rx="28.6" ry="8.25" fill="#8B5A33" stroke-width="1" opacity="1"/><ellipse cx="53.0" cy="74.55000000000001" rx="23.650000000000002" ry="6.6000000000000005" fill="#B77A45" stroke-width="1" opacity="1"/><path d="M53.0 75.10000000000001 C51.35 59.150000000000006 53.550000000000004 47.050000000000004 53.0 37.7" fill="none" stroke="#398F42" stroke-width="2.75" stroke-linecap="round" stroke-linejoin="round" opacity="1"/><path d="M24.950000000000003 54.75 C22.090000000000003 40.395 30.098000000000003 30.0 43.82600000000001 30.0 C53.550000000000004 33.7125 53.550000000000004 46.830000000000005 24.950000000000003 54.75Z" fill="#54B84C" stroke-width="1" stroke-linecap="round" stroke-linejoin="round" opacity="1" transform="rotate(-20 39.25 42.375)"/><path d="M28.382 49.800000000000004 Q37.82000000000001 41.88 46.114000000000004 34.455" fill="none" stroke="#F4FFF6" stroke-width="1.1440000000000001" stroke-linecap="round" stroke-linejoin="round" opacity="0.75" transform="rotate(-20 39.25 42.375)"/><path d="M51.900000000000006 49.25 C49.150000000000006 35.214 56.85000000000001 25.05 70.05000000000001 25.05 C79.4 28.68 79.4 41.506 51.900000000000006 49.25Z" fill="#3EA845" stroke-width="1" stroke-linecap="round" stroke-linejoin="round" opacity="1" transform="rotate(18 65.65 37.150000000000006)"/><path d="M55.2 44.410000000000004 Q64.275 36.666000000000004 72.25 29.406000000000002" fill="none" stroke="#F4FFF6" stroke-width="1.1" stroke-linecap="round" stroke-linejoin="round" opacity="0.75" transform="rotate(18 65.65 37.150000000000006)"/></svg>