<svg xmlns="http://www.w3.org/2000/svg" width="110" height="110" viewBox="0 0 110 110" role="img" aria-label="seed-potato"><title>seed-potato</title><defs><linearGradient id="prep-seed-potato-potato" x1="0%" y1="0%" x2="100%" y2="100%"><stop offset="0%" stop-color="#E8B36F" stop-opacity="1"/><stop offset="100%" stop-color="#B97A3E" stop-opacity="1"/></linearGradient></defs><rect x="5" y="5" width="100" height="100" rx="22" fill="#FFFFFF" stroke="#E1E8E4" stroke-width="2" opacity="1"/><path d="M28.150000000000002 47.400000000000006 C30.900000000000002 27.05 52.900000000000006 24.3 66.1 33.650000000000006 C85.9 30.900000000000002 95.80000000000001 48.5 89.75 64.45 C93.05000000000001 80.4 76.0 90.30000000000001 60.050000000000004 84.80000000000001 C46.300000000000004 93.05000000000001 29.25 82.05000000000001 31.450000000000003 68.30000000000001 C18.8 61.150000000000006 21.0 51.800000000000004 28.150000000000002 47.400000000000006Z" fill="url(#prep-seed-potato-potato)" stroke-width="1" stroke-linecap="round" stroke-linejoin="round" opacity="1"/><ellipse cx="43.0" cy="45.75" rx="2.75" ry="1.6500000000000001" fill="#8F5D34" stroke-width="1" opacity="0.7"/><ellipse cx="66.65" cy="41.900000000000006" rx="2.75" ry="1.6500000000000001" fill="#8F5D34" stroke-width="1" opacity="0.7"/><ellipse cx="53.45" cy="62.800000000000004" rx="2.75" ry="1.6500000000000001" fill="#8F5D34" stroke-width="1" opacity="0.7"/><ellipse cx="79.30000000000001" cy="67.2" rx="2.75" ry="1.6500000000000001" fill="#8F5D34" stroke-width="1" opacity="0.7"/><ellipse cx="39.7" cy="71.05000000000001" rx="2.75" ry="1.6500000000000001" fill="#8F5D34" stroke-width="1" opacity="0.7"/><ellipse cx="63.35" cy="79.30000000000001" rx="2.75" ry="1.6500000000000001" fill="#8F5D34" stroke-width="1" opacity="0.7"/><path d="M36.95 53.45 C46.300000000000004 41.900000000000006 57.300000000000004 34.75 71.05000000000001 34.75" fill="none" stroke="#F5CE91" stroke-width="3.3000000000000003" stroke-linecap="round" stroke-linejoin="round" opacity="0.45"/></svg>