<svg xmlns="http://www.w3.org/2000/svg" width="100" height="48" viewBox="0 0 100 48" role="img" aria-label="전체"><title>전체</title><rect x="2" y="2" width="96" height="44" rx="22" fill="#2FA86A" stroke-width="1.3" opacity="1"/><g fill="#fff" opacity="1"><path d="M567 675Q567 658 558.5 645.0Q550 632 532 632H372V569Q372 519 388.5 483.5Q405 448 441 417Q474 389 504.5 365.0Q535 341 558 324Q575 312 575.5 295.0Q576 278 565 263Q555 250 537.5 244.5Q520 239 503 252Q483 267 456.0 288.5Q429 310 397 336Q359 367 343.5 386.5Q328 406 324 423H323Q319 405 302.5 383.5Q286 362 248 331Q216 305 185.0 281.0Q154 257 125 236Q108 223 90.5 228.5Q73 234 64 247Q53 262 53.0 280.0Q53 298 71 311Q103 335 136.5 360.5Q170 386 203 415Q239 446 255.5 481.0Q272 516 272 566V632H105Q86 632 77.5 645.0Q69 658 69 675Q69 692 77.5 705.0Q86 718 105 718H532Q550 718 558.5 705.0Q567 692 567 675ZM746 778Q765 778 780.0 768.0Q795 758 795 736V144Q795 122 780.0 112.0Q765 102 746 102Q726 102 711.0 112.0Q696 122 696 144V447H552Q533 447 524.5 460.0Q516 473 516 490Q516 508 524.5 520.5Q533 533 552 533H696V736Q696 758 711.0 768.0Q726 778 746 778ZM258 186Q277 186 292.5 176.0Q308 166 308 144V-25Q308 -36 312.5 -40.5Q317 -45 329 -45H783Q802 -45 810.5 -58.0Q819 -71 819 -89Q819 -106 810.5 -119.0Q802 -132 783 -132H284Q240 -132 223.5 -116.0Q207 -100 207 -57V144Q207 166 222.5 176.0Q238 186 258 186Z" transform="translate(35.440 26.280) scale(0.016000 -0.016000)"/><path d="M268 774Q287 774 302.0 764.0Q317 754 317 732V648H447Q465 648 473.5 635.0Q482 622 482 605Q482 588 473.5 575.5Q465 563 447 563H317V487Q317 457 320.0 434.0Q323 411 330.0 391.5Q337 372 348.5 354.0Q360 336 378 316Q404 286 429.5 260.0Q455 234 472 218Q486 205 483.5 187.5Q481 170 469 157Q456 144 439.0 143.0Q422 142 408 155Q390 173 370.5 193.0Q351 213 331 234Q299 269 286.0 290.5Q273 312 270 330H269Q266 310 252.0 288.0Q238 266 206 231Q185 208 161.5 184.0Q138 160 112 135Q98 122 80.0 123.5Q62 125 50 138Q37 152 35.0 169.0Q33 186 47 200Q76 229 104.0 257.5Q132 286 159 316Q177 336 188.5 354.0Q200 372 206.5 391.5Q213 411 216.0 434.0Q219 457 219 487V563H77Q59 563 50.5 575.5Q42 588 42 605Q42 622 50.5 635.0Q59 648 77 648H219V732Q219 754 234.0 764.0Q249 774 268 774ZM592 768Q609 768 623.5 758.5Q638 749 638 729V-5Q638 -25 623.5 -34.5Q609 -44 592 -44Q574 -44 559.5 -34.5Q545 -25 545 -5V374H450Q432 374 423.5 386.5Q415 399 415 416Q415 434 423.5 446.5Q432 459 450 459H545V729Q545 749 559.5 758.5Q574 768 592 768ZM771 778Q789 778 803.5 768.5Q818 759 818 739V-47Q818 -67 803.5 -76.5Q789 -86 771 -86Q754 -86 739.5 -76.5Q725 -67 725 -47V739Q725 759 739.5 768.5Q754 778 771 778Z" transform="translate(50.000 26.280) scale(0.016000 -0.016000)"/></g></svg>