<svg xmlns="http://www.w3.org/2000/svg" width="100" height="48" viewBox="0 0 100 48" role="img" aria-label="작물"><title>작물</title><rect x="2" y="2" width="96" height="44" rx="22" fill="#E9F7EC" stroke-width="1.3" opacity="1"/><g fill="#2FA86A" opacity="1"><path d="M557 683Q557 666 548.5 653.5Q540 641 522 641H360V596Q360 547 375.0 514.0Q390 481 426 452Q461 423 492.0 400.0Q523 377 547 360Q564 348 565.0 331.0Q566 314 555 299Q545 287 528.5 280.5Q512 274 493 287Q475 300 446.0 321.5Q417 343 385 369Q347 400 331.5 418.5Q316 437 312 452H311Q307 435 290.5 415.0Q274 395 236 365Q203 339 171.5 315.5Q140 292 110 271Q93 259 75.5 265.0Q58 271 49 284Q38 298 39.0 316.0Q40 334 57 347Q93 372 126.5 396.5Q160 421 195 449Q230 478 245.0 511.0Q260 544 260 593V641H91Q72 641 63.5 653.5Q55 666 55 683Q55 700 63.5 713.0Q72 726 91 726H522Q540 726 548.5 713.0Q557 700 557 683ZM696 778Q716 778 731.0 768.0Q746 758 746 736V562H856Q876 562 884.5 549.0Q893 536 893 519Q893 500 884.5 487.5Q876 475 856 475H746V279Q746 257 731.0 247.0Q716 237 696 237Q676 237 661.0 247.0Q646 257 646 279V736Q646 758 661.0 768.0Q676 778 696 778ZM669 194Q713 194 729.5 178.0Q746 162 746 119V-110Q746 -132 731.0 -142.0Q716 -152 696 -152Q676 -152 661.0 -142.0Q646 -132 646 -110V88Q646 108 625 108H190Q171 108 162.5 121.0Q154 134 154 151Q154 168 162.5 181.0Q171 194 190 194Z" transform="translate(35.440 26.280) scale(0.016000 -0.016000)"/><path d="M683 757Q727 757 743.5 741.0Q760 725 760 682V533Q760 490 743.5 474.0Q727 458 683 458H227Q183 458 167.0 474.0Q151 490 151 533V682Q151 725 167.0 741.0Q183 757 227 757ZM271 676Q259 676 254.5 671.5Q250 667 250 655V560Q250 548 254.5 543.5Q259 539 271 539H639Q651 539 655.5 543.5Q660 548 660 560V655Q660 667 655.5 671.5Q651 676 639 676ZM875 348Q875 331 866.5 319.0Q858 307 841 307H504V182H406V307H69Q52 307 43.5 319.0Q35 331 35 348Q35 365 43.5 376.5Q52 388 69 388H841Q858 388 866.5 376.5Q875 365 875 348ZM761 150V76Q761 33 744.5 17.0Q728 1 684 1H261Q245 1 245 -14V-55Q245 -70 261 -70H750Q767 -70 775.0 -82.0Q783 -94 783 -109Q783 -125 775.0 -136.5Q767 -148 750 -148H225Q181 -148 164.5 -132.0Q148 -116 148 -73V1Q148 44 164.5 60.0Q181 76 225 76H648Q664 76 664 91V131Q664 147 648 147H178Q161 147 153.5 158.5Q146 170 146 186Q146 201 153.5 213.0Q161 225 178 225H684Q728 225 744.5 209.0Q761 193 761 150Z" transform="translate(50.000 26.280) scale(0.016000 -0.016000)"/></g></svg>