<svg xmlns="http://www.w3.org/2000/svg" width="100" height="48" viewBox="0 0 100 48" role="img" aria-label="위험"><title>위험</title><rect x="2" y="2" width="96" height="44" rx="22" fill="#FFF0EF" stroke="#FF6B5F" stroke-width="1.3" opacity="1"/><g fill="#FF6B5F" opacity="1"><path d="M346 743Q406 743 450.5 728.5Q495 714 525.0 688.5Q555 663 570.0 628.0Q585 593 585 551Q585 509 570.0 474.0Q555 439 525.0 413.5Q495 388 450.5 373.5Q406 359 346 359Q286 359 241.5 373.5Q197 388 167.0 413.5Q137 439 122.0 474.0Q107 509 107 551Q107 593 122.0 628.0Q137 663 167.0 688.5Q197 714 241.5 728.5Q286 743 346 743ZM346 660Q272 660 237.0 629.5Q202 599 202 551Q202 503 237.0 472.5Q272 442 346 442Q420 442 455.0 472.5Q490 503 490 551Q490 599 455.0 629.5Q420 660 346 660ZM757 778Q777 778 792.0 768.0Q807 758 807 736V-44Q807 -66 792.0 -76.0Q777 -86 757 -86Q738 -86 723.0 -76.0Q708 -66 708 -44V736Q708 758 723.0 768.0Q738 778 757 778ZM617 300Q635 302 644.5 291.5Q654 281 655 263Q657 246 649.5 233.0Q642 220 625 218Q519 209 398 203V-34Q398 -56 383.0 -66.0Q368 -76 349 -76Q330 -76 314.5 -66.0Q299 -56 299 -34V200Q192 197 82 197Q64 197 55.5 210.0Q47 223 47 240Q47 257 55.5 269.0Q64 281 82 281Q216 281 346.5 284.5Q477 288 617 300Z" transform="translate(35.440 26.280) scale(0.016000 -0.016000)"/><path d="M318 551Q418 551 473.5 508.5Q529 466 529 394Q529 322 473.5 279.5Q418 237 318 237Q218 237 162.5 279.5Q107 322 107 394Q107 466 162.5 508.5Q218 551 318 551ZM318 788Q338 788 353.0 778.0Q368 768 368 746V685H545Q563 685 571.5 672.0Q580 659 580 642Q580 625 571.5 612.5Q563 600 545 600H81Q63 600 54.5 612.5Q46 625 46 642Q46 659 54.5 672.0Q63 685 81 685H268V746Q268 768 283.5 778.0Q299 788 318 788ZM318 473Q258 473 227.5 451.0Q197 429 197 394Q197 359 227.5 337.0Q258 315 318 315Q378 315 408.5 337.0Q439 359 439 394Q439 429 408.5 451.0Q378 473 318 473ZM746 778Q765 778 780.0 768.0Q795 758 795 736V262Q795 241 780.0 231.0Q765 221 746 221Q727 221 711.5 231.0Q696 241 696 262V405H596Q577 405 568.5 417.5Q560 430 560 448Q560 466 568.5 478.5Q577 491 596 491H696V736Q696 758 711.5 768.0Q727 778 746 778ZM718 177Q762 177 778.5 161.0Q795 145 795 102V-64Q795 -107 778.5 -123.0Q762 -139 718 -139H284Q240 -139 223.5 -123.0Q207 -107 207 -64V102Q207 145 223.5 161.0Q240 177 284 177ZM326 95Q314 95 309.5 90.5Q305 86 305 75V-36Q305 -48 309.5 -52.5Q314 -57 326 -57H676Q687 -57 692.0 -52.5Q697 -48 697 -36V75Q697 95 676 95Z" transform="translate(50.000 26.280) scale(0.016000 -0.016000)"/></g></svg>