<svg xmlns="http://www.w3.org/2000/svg" width="100" height="48" viewBox="0 0 100 48" role="img" aria-label="장비"><title>장비</title><rect x="2" y="2" width="96" height="44" rx="22" fill="#E9F7EC" stroke-width="1.3" opacity="1"/><g fill="#2FA86A" opacity="1"><path d="M557 683Q557 666 548.5 653.5Q540 641 522 641H360V596Q360 547 375.0 514.0Q390 481 426 452Q461 423 492.0 400.0Q523 377 547 360Q564 348 565.0 331.0Q566 314 555 299Q545 287 528.5 280.5Q512 274 493 287Q475 300 446.0 321.5Q417 343 385 369Q347 400 331.5 418.5Q316 437 312 452H311Q307 435 290.5 415.0Q274 395 236 365Q203 339 171.5 315.5Q140 292 110 271Q93 259 75.5 265.0Q58 271 49 284Q38 298 39.0 316.0Q40 334 57 347Q93 372 126.5 396.5Q160 421 195 449Q230 478 245.0 511.0Q260 544 260 593V641H91Q72 641 63.5 653.5Q55 666 55 683Q55 700 63.5 713.0Q72 726 91 726H522Q540 726 548.5 713.0Q557 700 557 683ZM696 778Q716 778 731.0 768.0Q746 758 746 736V557H856Q876 557 884.5 544.0Q893 531 893 514Q893 495 884.5 482.5Q876 470 856 470H746V271Q746 250 731.0 240.0Q716 230 696 230Q676 230 661.0 240.0Q646 250 646 271V736Q646 758 661.0 768.0Q676 778 696 778ZM465 221Q602 221 676.5 173.5Q751 126 751 32Q751 -62 676.5 -109.5Q602 -157 465 -157Q328 -157 253.5 -109.5Q179 -62 179 32Q179 126 253.5 173.5Q328 221 465 221ZM465 140Q366 140 322.0 110.5Q278 81 278 32Q278 -18 322.0 -47.0Q366 -76 465 -76Q564 -76 608.0 -47.0Q652 -18 652 32Q652 82 608.0 111.0Q564 140 465 140Z" transform="translate(35.440 26.280) scale(0.016000 -0.016000)"/><path d="M138 720Q157 720 172.5 710.0Q188 700 188 678V505H423V678Q423 700 438.0 710.0Q453 720 472 720Q491 720 506.0 710.0Q521 700 521 678V217Q521 174 504.5 158.0Q488 142 444 142H166Q122 142 105.5 158.0Q89 174 89 217V678Q89 700 104.0 710.0Q119 720 138 720ZM188 248Q188 236 192.5 231.5Q197 227 209 227H402Q413 227 418.0 231.5Q423 236 423 248V420H188ZM738 778Q758 778 773.5 768.0Q789 758 789 736V-44Q789 -66 773.5 -76.0Q758 -86 738 -86Q719 -86 703.5 -76.0Q688 -66 688 -44V736Q688 758 703.5 768.0Q719 778 738 778Z" transform="translate(50.000 26.280) scale(0.016000 -0.016000)"/></g></svg>