<svg xmlns="http://www.w3.org/2000/svg" width="100" height="48" viewBox="0 0 100 48" role="img" aria-label="좋음"><title>좋음</title><rect x="2" y="2" width="96" height="44" rx="22" fill="#EFF9F1" stroke="#2FA86A" stroke-width="1.3" opacity="1"/><g fill="#2FA86A" opacity="1"><path d="M772 714Q772 697 763.5 685.0Q755 673 738 673H506V658Q506 630 524.5 612.5Q543 595 594 575Q694 539 774 513Q791 508 796.5 492.5Q802 477 796 460Q790 443 776.0 436.0Q762 429 742 434Q705 446 662.0 461.0Q619 476 573 493Q542 504 521.0 513.5Q500 523 486.5 532.0Q473 541 466.0 550.0Q459 559 456 568H455Q449 549 424.0 531.0Q399 513 337 491Q292 474 249.0 459.0Q206 444 168 432Q148 427 134.0 434.5Q120 442 114 459Q108 476 113.0 492.0Q118 508 136 513Q216 539 316 575Q367 595 385.5 612.5Q404 630 404 658V673H172Q155 673 146.5 685.0Q138 697 138 714Q138 731 146.5 743.0Q155 755 172 755H738Q755 755 763.5 743.0Q772 731 772 714ZM455 482Q474 482 489.0 472.5Q504 463 504 441V372H841Q858 372 866.5 360.5Q875 349 875 332Q875 315 866.5 303.0Q858 291 841 291H69Q52 291 43.5 303.0Q35 315 35 332Q35 349 43.5 360.5Q52 372 69 372H406V441Q406 463 421.0 472.5Q436 482 455 482ZM455 58Q570 58 635.0 30.0Q700 2 700 -57Q700 -116 635.0 -144.5Q570 -173 455 -173Q340 -173 275.0 -144.5Q210 -116 210 -57Q210 2 275.0 30.0Q340 58 455 58ZM455 -13Q376 -13 340.5 -24.5Q305 -36 305 -57Q305 -78 340.5 -89.5Q376 -101 455 -101Q534 -101 569.5 -89.5Q605 -78 605 -57Q605 -36 569.5 -24.5Q534 -13 455 -13ZM455 258Q475 258 489.5 248.5Q504 239 504 219V176H748Q764 176 771.5 164.5Q779 153 779 138Q779 123 771.5 111.5Q764 100 748 100H158Q141 100 134.0 111.5Q127 123 127 138Q127 153 134.0 164.5Q141 176 158 176H406V219Q406 239 420.5 248.5Q435 258 455 258Z" transform="translate(35.440 26.280) scale(0.016000 -0.016000)"/><path d="M455 759Q599 759 679.0 717.0Q759 675 759 587Q759 498 679.0 456.5Q599 415 455 415Q311 415 231.0 456.5Q151 498 151 587Q151 675 231.0 717.0Q311 759 455 759ZM455 678Q347 678 298.5 655.0Q250 632 250 587Q250 542 298.5 519.0Q347 496 455 496Q563 496 611.5 519.0Q660 542 660 587Q660 632 611.5 655.0Q563 678 455 678ZM875 303Q875 286 866.5 273.5Q858 261 840 261H70Q52 261 43.5 273.5Q35 286 35 303Q35 321 43.5 333.0Q52 345 70 345H840Q858 345 866.5 333.0Q875 321 875 303ZM685 176Q729 176 745.5 160.0Q762 144 762 101V-68Q762 -111 745.5 -127.0Q729 -143 685 -143H225Q181 -143 165.0 -127.0Q149 -111 149 -68V101Q149 144 165.0 160.0Q181 176 225 176ZM269 93Q257 93 252.5 88.5Q248 84 248 73V-40Q248 -51 252.5 -55.5Q257 -60 269 -60H641Q653 -60 657.5 -55.5Q662 -51 662 -40V73Q662 84 657.5 88.5Q653 93 641 93Z" transform="translate(50.000 26.280) scale(0.016000 -0.016000)"/></g></svg>