<svg xmlns="http://www.w3.org/2000/svg" width="100" height="48" viewBox="0 0 100 48" role="img" aria-label="보통"><title>보통</title><rect x="2" y="2" width="96" height="44" rx="22" fill="#FFF8E3" stroke="#D68A00" stroke-width="1.3" opacity="1"/><g fill="#D68A00" opacity="1"><path d="M198 736Q217 736 232.5 725.5Q248 715 248 694V575H662V694Q662 715 677.5 725.5Q693 736 711 736Q731 736 746.5 725.5Q762 715 762 694V341Q762 298 745.5 282.0Q729 266 685 266H225Q181 266 165.0 282.0Q149 298 149 341V694Q149 715 164.0 725.5Q179 736 198 736ZM248 371Q248 351 269 351H641Q662 351 662 371V490H248ZM505 86H840Q858 86 866.5 73.5Q875 61 875 44Q875 27 866.5 14.0Q858 1 840 1H70Q52 1 43.5 14.0Q35 27 35 44Q35 61 43.5 73.5Q52 86 70 86H405V319H505Z" transform="translate(35.440 26.280) scale(0.016000 -0.016000)"/><path d="M757 711Q757 695 749.5 683.0Q742 671 725 671H263Q247 671 247 656V600H715Q732 600 739.5 589.0Q747 578 747 563Q747 547 739.5 536.0Q732 525 715 525H247V468Q247 453 263 453H742Q759 453 766.5 441.5Q774 430 774 414Q774 398 766.5 386.0Q759 374 742 374H228Q184 374 167.5 390.0Q151 406 151 449V675Q151 718 167.5 734.0Q184 750 228 750H725Q742 750 749.5 738.5Q757 727 757 711ZM504 295H841Q858 295 866.5 283.0Q875 271 875 254Q875 237 866.5 225.0Q858 213 841 213H69Q52 213 43.5 225.0Q35 237 35 254Q35 271 43.5 283.0Q52 295 69 295H406V418H504ZM455 159Q600 159 680.5 121.0Q761 83 761 -1Q761 -84 680.5 -122.5Q600 -161 455 -161Q310 -161 229.5 -122.5Q149 -84 149 -1Q149 83 229.5 121.0Q310 159 455 159ZM455 80Q346 80 297.0 59.0Q248 38 248 -1Q248 -40 297.0 -60.5Q346 -81 455 -81Q564 -81 613.0 -60.5Q662 -40 662 -1Q662 38 613.0 59.0Q564 80 455 80Z" transform="translate(50.000 26.280) scale(0.016000 -0.016000)"/></g></svg>