<svg xmlns="http://www.w3.org/2000/svg" width="100" height="48" viewBox="0 0 100 48" role="img" aria-label="토양"><title>토양</title><rect x="2" y="2" width="96" height="44" rx="22" fill="#E9F7EC" stroke-width="1.3" opacity="1"/><g fill="#2FA86A" opacity="1"><path d="M759 682Q759 665 750.5 652.5Q742 640 724 640H268Q256 640 251.5 635.5Q247 631 247 619V525H714Q732 525 740.5 513.0Q749 501 749 484Q749 468 740.5 455.5Q732 443 714 443H247V348Q247 337 251.5 332.5Q256 328 268 328H741Q759 328 767.5 315.0Q776 302 776 285Q776 268 767.5 255.5Q759 243 741 243H226Q182 243 165.5 259.0Q149 275 149 318V650Q149 693 165.5 709.0Q182 725 226 725H724Q742 725 750.5 712.0Q759 699 759 682ZM505 86H840Q858 86 866.5 73.5Q875 61 875 44Q875 27 866.5 14.0Q858 1 840 1H70Q52 1 43.5 14.0Q35 27 35 44Q35 61 43.5 73.5Q52 86 70 86H405V286H505Z" transform="translate(35.440 26.280) scale(0.016000 -0.016000)"/><path d="M282 741Q340 741 383.5 724.0Q427 707 456.0 677.0Q485 647 499.5 606.5Q514 566 514 519Q514 471 499.5 430.5Q485 390 456.0 360.0Q427 330 383.5 313.0Q340 296 282 296Q224 296 180.5 313.0Q137 330 108.0 360.0Q79 390 64.5 430.5Q50 471 50 519Q50 566 64.5 606.5Q79 647 108.0 677.0Q137 707 180.5 724.0Q224 741 282 741ZM282 657Q245 657 219.5 646.0Q194 635 177.5 616.5Q161 598 153.5 572.5Q146 547 146 519Q146 490 153.5 465.0Q161 440 177.5 421.0Q194 402 219.5 391.0Q245 380 282 380Q319 380 344.5 391.0Q370 402 386.5 421.0Q403 440 410.5 465.0Q418 490 418 519Q418 547 410.5 572.5Q403 598 386.5 616.5Q370 635 344.5 646.0Q319 657 282 657ZM696 778Q716 778 731.0 768.0Q746 758 746 736V643H850Q867 643 875.5 630.0Q884 617 884 600Q884 583 875.5 570.0Q867 557 850 557H746V472H850Q867 472 875.5 459.0Q884 446 884 429Q884 412 875.5 399.0Q867 386 850 386H746V271Q746 250 731.0 240.0Q716 230 696 230Q676 230 661.0 240.0Q646 250 646 271V736Q646 758 661.0 768.0Q676 778 696 778ZM465 221Q602 221 676.5 173.5Q751 126 751 32Q751 -62 676.5 -109.5Q602 -157 465 -157Q328 -157 253.5 -109.5Q179 -62 179 32Q179 126 253.5 173.5Q328 221 465 221ZM465 140Q366 140 322.0 110.5Q278 81 278 32Q278 -18 322.0 -47.0Q366 -76 465 -76Q564 -76 608.0 -47.0Q652 -18 652 32Q652 82 608.0 111.0Q564 140 465 140Z" transform="translate(50.000 26.280) scale(0.016000 -0.016000)"/></g></svg>