<svg xmlns="http://www.w3.org/2000/svg" width="100" height="48" viewBox="0 0 100 48" role="img" aria-label="주의"><title>주의</title><rect x="2" y="2" width="96" height="44" rx="22" fill="#FFF2E8" stroke="#FF7A45" stroke-width="1.3" opacity="1"/><g fill="#FF7A45" opacity="1"><path d="M773 690Q773 673 764.5 660.5Q756 648 737 648H506V636Q506 612 510.0 594.0Q514 576 524.0 561.0Q534 546 551.5 533.0Q569 520 595 507Q645 481 688.0 460.5Q731 440 778 419Q795 411 798.0 394.5Q801 378 793 361Q785 344 769.5 337.0Q754 330 738 337Q687 360 645.0 380.0Q603 400 556 424Q503 451 481.5 471.0Q460 491 456 509H455Q450 489 429.0 469.0Q408 449 355 422Q307 398 265.0 378.0Q223 358 173 335Q156 328 140.5 335.5Q125 343 117 360Q108 377 111.5 394.0Q115 411 132 419Q179 440 222.0 460.5Q265 481 316 507Q342 520 359.0 533.0Q376 546 386.0 561.0Q396 576 400.0 594.0Q404 612 404 636V648H173Q154 648 145.5 660.5Q137 673 137 690Q137 708 145.5 720.5Q154 733 173 733H737Q756 733 764.5 720.5Q773 708 773 690ZM875 209Q875 192 866.5 179.5Q858 167 840 167H505V-114Q505 -136 490.0 -146.0Q475 -156 455 -156Q435 -156 420.0 -146.0Q405 -136 405 -114V167H70Q52 167 43.5 179.5Q35 192 35 209Q35 226 43.5 239.0Q52 252 70 252H840Q858 252 866.5 239.0Q875 226 875 209Z" transform="translate(35.440 26.280) scale(0.016000 -0.016000)"/><path d="M343 726Q403 726 448.5 709.5Q494 693 524.0 663.5Q554 634 569.5 594.0Q585 554 585 508Q585 461 569.5 421.0Q554 381 524.0 351.5Q494 322 448.5 305.5Q403 289 343 289Q283 289 237.5 305.5Q192 322 162.0 351.5Q132 381 116.5 421.0Q101 461 101 508Q101 554 116.5 594.0Q132 634 162.0 663.5Q192 693 237.5 709.5Q283 726 343 726ZM343 642Q268 642 232.0 603.5Q196 565 196 508Q196 451 232.0 412.0Q268 373 343 373Q418 373 454.0 412.0Q490 451 490 508Q490 565 454.0 603.5Q418 642 343 642ZM618 176Q635 178 644.5 167.0Q654 156 655 138Q657 121 649.5 107.5Q642 94 625 92Q504 81 367.0 76.0Q230 71 82 71Q64 71 55.5 84.0Q47 97 47 114Q47 131 55.5 144.0Q64 157 82 157Q216 157 347.0 160.0Q478 163 618 176ZM757 778Q777 778 792.0 768.0Q807 758 807 736V-44Q807 -66 792.0 -76.0Q777 -86 757 -86Q738 -86 723.0 -76.0Q708 -66 708 -44V736Q708 758 723.0 768.0Q738 778 757 778Z" transform="translate(50.000 26.280) scale(0.016000 -0.016000)"/></g></svg>