<svg xmlns="http://www.w3.org/2000/svg" width="430" height="88" viewBox="0 0 430 88" role="img" aria-label="Bottom nav settings"><title>Bottom nav settings</title><rect x="0" y="0" width="430" height="88" rx="0" fill="#fff" stroke-width="1" opacity="1"/><line x1="0" y1="1" x2="430" y2="1" stroke="#E1E8E4" stroke-width="1" stroke-linecap="round" opacity="1"/><path d="M34 25 L43 17 L52 25 V35 H46 V29 H40 V35 H34Z" fill="none" stroke="#9AA4AD" stroke-width="1.8" stroke-linecap="round" stroke-linejoin="round" opacity="1"/><g fill="#9AA4AD" opacity="1"><path d="M455 801Q469 801 480.5 794.0Q492 787 492 771V705H776Q788 705 794.0 696.0Q800 687 800 675Q800 663 794.0 654.0Q788 645 776 645H134Q122 645 116.0 654.0Q110 663 110 675Q110 687 116.0 696.0Q122 705 134 705H418V771Q418 787 429.5 794.0Q441 801 455 801ZM455 588Q580 588 649.5 557.5Q719 527 719 461Q719 395 649.5 364.0Q580 333 455 333Q330 333 260.5 364.0Q191 395 191 461Q191 527 260.5 557.5Q330 588 455 588ZM455 532Q262 532 262 461Q262 390 455 390Q648 390 648 461Q648 532 455 532ZM491 254H848Q860 254 866.0 245.0Q872 236 872 224Q872 213 866.0 204.0Q860 195 848 195H62Q50 195 44.0 204.0Q38 213 38 224Q38 236 44.0 245.0Q50 254 62 254H419V360H491ZM680 120Q719 120 734.0 105.5Q749 91 749 53V-70Q749 -108 734.0 -122.5Q719 -137 680 -137H230Q191 -137 176.0 -122.5Q161 -108 161 -70V53Q161 91 176.0 105.5Q191 120 230 120ZM251 61Q232 61 232 43V-60Q232 -79 251 -79H659Q678 -79 678 -60V43Q678 61 659 61Z" transform="translate(37.995 66.130) scale(0.011000 -0.011000)"/></g><path d="M120 36 V22 H138 V36 M118 22 H140 M124 22 V19 Q129 13 134 19 V22" fill="none" stroke="#9AA4AD" stroke-width="1.7" stroke-linecap="round" stroke-linejoin="round" opacity="1"/><g fill="#9AA4AD" opacity="1"><path d="M113 741Q127 741 138.0 734.0Q149 727 149 712V599H418V712Q418 727 429.0 734.0Q440 741 454 741Q468 741 479.0 734.0Q490 727 490 712V415Q490 377 475.0 362.5Q460 348 421 348H146Q107 348 92.0 362.5Q77 377 77 415V712Q77 727 88.0 734.0Q99 741 113 741ZM149 427Q149 416 153.0 412.5Q157 409 168 409H399Q410 409 414.0 412.5Q418 416 418 427V538H149ZM700 774Q714 774 725.5 767.0Q737 760 737 744V576H864Q878 576 884.0 566.5Q890 557 890 543Q890 530 884.0 520.5Q878 511 864 511H737V330Q737 314 725.5 307.0Q714 300 700 300Q686 300 675.0 307.0Q664 314 664 330V744Q664 760 675.0 767.0Q686 774 700 774ZM727 244Q739 244 745.0 235.0Q751 226 751 214Q751 202 745.0 193.0Q739 184 727 184H271Q252 184 252 166V83H717Q729 83 735.0 74.0Q741 65 741 53Q741 41 735.0 32.5Q729 24 717 24H252V-59Q252 -78 271 -78H737Q749 -78 755.0 -87.0Q761 -96 761 -108Q761 -120 755.0 -129.0Q749 -138 737 -138H251Q212 -138 197.0 -123.5Q182 -109 182 -71V177Q182 215 197.0 229.5Q212 244 251 244H727Z" transform="translate(112.610 66.130) scale(0.011000 -0.011000)"/><path d="M473 719Q512 719 527.0 704.5Q542 690 542 652V588Q542 542 537.0 500.5Q532 459 521 422Q517 408 505.0 402.5Q493 397 477 400Q463 404 455.5 414.0Q448 424 452 438Q461 476 465.5 512.5Q470 549 470 591V637Q470 648 465.5 651.5Q461 655 451 655H126Q112 655 106.0 664.5Q100 674 100 687Q100 701 106.0 710.0Q112 719 126 719H473ZM718 774Q732 774 743.0 767.0Q754 760 754 744V488H868Q882 488 888.0 478.5Q894 469 894 456Q894 442 888.0 432.5Q882 423 868 423H754V120Q754 104 743.0 97.0Q732 90 718 90Q704 90 693.0 97.0Q682 104 682 120V744Q682 760 693.0 767.0Q704 774 718 774ZM259 516Q273 516 284.5 509.0Q296 502 296 486V307Q366 309 439.0 313.0Q512 317 590 324Q601 325 608.5 317.5Q616 310 617 296Q618 283 612.5 273.5Q607 264 595 262Q462 251 332.0 247.0Q202 243 63 243Q49 243 43.0 252.0Q37 261 37 274Q37 287 43.0 296.0Q49 305 63 305Q103 305 143.0 305.0Q183 305 224 306V486Q224 502 234.5 509.0Q245 516 259 516ZM213 151Q227 151 238.5 144.0Q250 137 250 120V-47Q250 -66 269 -66H755Q768 -66 774.0 -75.0Q780 -84 780 -97Q780 -110 774.0 -119.0Q768 -128 755 -128H245Q206 -128 191.0 -113.5Q176 -99 176 -61V120Q176 137 187.5 144.0Q199 151 213 151Z" transform="translate(125.370 66.130) scale(0.011000 -0.011000)"/><path d="M431 711Q470 711 485.0 696.5Q500 682 500 644V459Q500 421 485.0 406.5Q470 392 431 392H191Q172 392 172 374V209Q172 191 191 191Q309 191 403.5 196.5Q498 202 587 215Q599 217 607.0 209.0Q615 201 617 188Q619 174 613.5 163.5Q608 153 596 151Q557 146 513.5 141.5Q470 137 418.0 134.0Q366 131 305.0 129.5Q244 128 169 128Q130 128 115.0 142.5Q100 157 100 195V386Q100 424 115.0 438.5Q130 453 169 453H409Q428 453 428 472V630Q428 648 409 648H125Q112 648 106.0 657.0Q100 666 100 680Q100 693 106.0 702.0Q112 711 125 711H431ZM743 774Q757 774 768.5 767.0Q780 760 780 744V-52Q780 -68 768.5 -75.0Q757 -82 743 -82Q729 -82 718.0 -75.0Q707 -68 707 -52V744Q707 760 718.0 767.0Q729 774 743 774Z" transform="translate(135.380 66.130) scale(0.011000 -0.011000)"/></g><path d="M206 18 H224 Q226 18 226 20 V30 Q226 32 224 32 H216 L210 37 V32 H206 Q204 32 204 30 V20 Q204 18 206 18Z" fill="none" stroke="#9AA4AD" stroke-width="1.8" stroke-linecap="round" stroke-linejoin="round" opacity="1"/><circle cx="211" cy="25" r="1.3" fill="#9AA4AD" stroke-width="1" opacity="1"/><circle cx="215" cy="25" r="1.3" fill="#9AA4AD" stroke-width="1" opacity="1"/><circle cx="219" cy="25" r="1.3" fill="#9AA4AD" stroke-width="1" opacity="1"/><g fill="#9AA4AD" opacity="1"><path d="M331 719Q346 719 357.0 712.0Q368 705 375 687L623 47Q629 31 622.5 19.5Q616 8 602 3Q587 -2 573.5 1.5Q560 5 554 22L479 221H179L103 21Q97 5 84.0 1.5Q71 -2 56 3Q42 8 36.5 19.0Q31 30 37 46L286 687Q293 705 304.5 712.0Q316 719 331 719ZM330 632Q319 596 307.0 560.5Q295 525 278 483L202 283H457L383 483Q367 524 354.0 561.0Q341 598 330 632Z" transform="translate(198.572 66.130) scale(0.011000 -0.011000)"/><path d="M128 719Q143 719 154.0 712.0Q165 705 165 689V30Q165 14 154.0 7.0Q143 0 128 0Q114 0 103.0 7.0Q92 14 92 30V689Q92 705 103.0 712.0Q114 719 128 719Z" transform="translate(205.832 66.130) scale(0.011000 -0.011000)"/><path d="M310 744Q324 744 335.5 737.0Q347 730 347 714V612Q347 561 364.0 524.5Q381 488 419 456Q456 426 489.0 400.5Q522 375 550 355Q562 347 563.0 333.5Q564 320 556 309Q548 299 536.0 295.5Q524 292 511 301Q488 317 456.5 341.5Q425 366 391 393Q353 424 334.0 447.5Q315 471 311 486H310Q306 470 287.0 446.0Q268 422 230 391Q196 363 162.5 337.5Q129 312 95 288Q82 279 69.5 282.0Q57 285 49 296Q41 306 41.5 320.0Q42 334 55 343Q94 371 129.0 397.5Q164 424 201 455Q239 487 256.0 523.0Q273 559 273 610V714Q273 730 284.5 737.0Q296 744 310 744ZM700 774Q714 774 725.5 767.0Q737 760 737 744V547H864Q878 547 884.0 537.5Q890 528 890 514Q890 501 884.0 491.5Q878 482 864 482H737V257Q737 241 725.5 234.0Q714 227 700 227Q686 227 675.0 234.0Q664 241 664 257V744Q664 760 675.0 767.0Q686 774 700 774ZM466 215Q600 215 672.0 168.5Q744 122 744 32Q744 -58 672.0 -104.5Q600 -151 466 -151Q332 -151 260.5 -104.5Q189 -58 189 32Q189 122 260.5 168.5Q332 215 466 215ZM466 155Q360 155 310.5 122.0Q261 89 261 32Q261 -25 310.5 -58.0Q360 -91 466 -91Q572 -91 622.0 -58.0Q672 -25 672 32Q672 89 622.0 122.0Q572 155 466 155Z" transform="translate(211.409 66.130) scale(0.011000 -0.011000)"/><path d="M477 723Q491 723 497.0 714.0Q503 705 503 692Q503 678 497.0 669.0Q491 660 477 660H172Q153 660 153 642V405Q153 394 157.0 390.5Q161 387 172 387Q283 387 375.0 392.5Q467 398 557 410Q569 412 577.0 404.5Q585 397 587 384Q589 370 583.5 359.5Q578 349 566 347Q527 341 483.5 336.5Q440 332 389.5 329.0Q339 326 279.5 324.5Q220 323 149 323Q110 323 95.0 337.5Q80 352 80 390V656Q80 694 95.0 708.5Q110 723 149 723H477ZM700 774Q714 774 725.5 767.0Q737 760 737 744V557H864Q878 557 884.0 547.5Q890 538 890 524Q890 511 884.0 501.5Q878 492 864 492H737V289Q737 273 725.5 266.0Q714 259 700 259Q686 259 675.0 266.0Q664 273 664 289V744Q664 760 675.0 767.0Q686 774 700 774ZM668 208Q707 208 722.0 193.5Q737 179 737 141V-66Q737 -104 722.0 -118.5Q707 -133 668 -133H249Q210 -133 195.0 -118.5Q180 -104 180 -66V141Q180 179 195.0 193.5Q210 208 249 208ZM272 146Q253 146 253 127V-52Q253 -71 272 -71H646Q665 -71 665 -52V127Q665 146 646 146Z" transform="translate(221.418 66.130) scale(0.011000 -0.011000)"/></g><path d="M290 18 H306 Q309 18 309 21 V31 Q309 34 306 34 H299 L294 38 V34 H290 Q287 34 287 31 V21 Q287 18 290 18Z" fill="none" stroke="#9AA4AD" stroke-width="1.6" stroke-linecap="round" stroke-linejoin="round" opacity="1"/><g fill="#9AA4AD" opacity="1"><path d="M427 705Q466 705 481.0 690.5Q496 676 496 638V509Q496 442 483.5 395.5Q471 349 433.0 307.0Q395 265 325.0 218.5Q255 172 140 105Q128 98 116.0 102.0Q104 106 96 117Q88 128 89.5 142.5Q91 157 103 164Q190 214 247.5 249.5Q305 285 341.0 314.0Q377 343 394.5 370.0Q412 397 418 430L104 412Q90 410 83.5 419.5Q77 429 76 442Q75 455 80.5 465.0Q86 475 100 476L424 491V504V623Q424 634 420.0 637.5Q416 641 405 641H126Q112 641 106.0 650.5Q100 660 100 673Q100 686 106.0 695.5Q112 705 126 705H427ZM750 774Q764 774 775.0 767.0Q786 760 786 744V-52Q786 -68 775.0 -75.0Q764 -82 750 -82Q736 -82 725.0 -75.0Q714 -68 714 -52V397H470V460H714V744Q714 760 725.0 767.0Q736 774 750 774Z" transform="translate(280.980 66.130) scale(0.011000 -0.011000)"/><path d="M683 731Q722 731 737.0 716.5Q752 702 752 664V433Q752 395 737.0 380.5Q722 366 683 366H227Q188 366 173.0 380.5Q158 395 158 433V664Q158 702 173.0 716.5Q188 731 227 731ZM250 668Q231 668 231 650V447Q231 429 250 429H660Q679 429 679 447V650Q679 668 660 668ZM847 242Q860 242 866.0 233.0Q872 224 872 211Q872 198 866.0 189.0Q860 180 847 180H636V-117Q636 -133 625.5 -140.0Q615 -147 601 -147Q587 -147 576.5 -140.0Q566 -133 566 -117V180H344V-117Q344 -133 333.5 -140.0Q323 -147 309 -147Q295 -147 284.5 -140.0Q274 -133 274 -117V180H63Q50 180 44.0 189.0Q38 198 38 211Q38 224 44.0 233.0Q50 242 63 242H847Z" transform="translate(290.990 66.130) scale(0.011000 -0.011000)"/><path d="M139 714Q154 714 165.0 707.0Q176 700 176 684V234Q176 215 195 215Q310 215 404.0 221.0Q498 227 587 239Q599 241 607.0 233.5Q615 226 617 212Q619 198 613.5 187.5Q608 177 596 175Q557 170 513.5 165.5Q470 161 418.5 158.0Q367 155 306.0 153.5Q245 152 172 152Q133 152 118.0 166.5Q103 181 103 219V684Q103 700 114.0 707.0Q125 714 139 714ZM743 774Q757 774 768.5 767.0Q780 760 780 744V-52Q780 -68 768.5 -75.0Q757 -82 743 -82Q729 -82 718.0 -75.0Q707 -68 707 -52V744Q707 760 718.0 767.0Q729 774 743 774Z" transform="translate(301.000 66.130) scale(0.011000 -0.011000)"/><path d="M503 711Q517 711 523.0 702.0Q529 693 529 680Q529 666 523.0 657.0Q517 648 503 648H191Q172 648 172 630V460H493Q507 460 513.0 451.0Q519 442 519 429Q519 416 513.0 407.0Q507 398 493 398H172V223Q172 205 191 205Q309 205 403.5 210.5Q498 216 587 229Q599 231 607.0 223.5Q615 216 617 202Q619 188 613.5 177.5Q608 167 596 165Q557 160 513.5 155.5Q470 151 418.0 148.0Q366 145 305.0 143.5Q244 142 169 142Q130 142 115.0 156.5Q100 171 100 209V644Q100 682 115.0 696.5Q130 711 169 711H503ZM743 774Q757 774 768.5 767.0Q780 760 780 744V-52Q780 -68 768.5 -75.0Q757 -82 743 -82Q729 -82 718.0 -75.0Q707 -68 707 -52V744Q707 760 718.0 767.0Q729 774 743 774Z" transform="translate(311.010 66.130) scale(0.011000 -0.011000)"/></g><circle cx="387" cy="26" r="3.2" fill="none" stroke="#2FA86A" stroke-width="1.8" opacity="1"/><line x1="394.0" y1="26.0" x2="397.0" y2="26.0" stroke="#2FA86A" stroke-width="2" stroke-linecap="round" opacity="1"/><line x1="391.9497474683058" y1="30.94974746830583" x2="394.0710678118655" y2="33.071067811865476" stroke="#2FA86A" stroke-width="2" stroke-linecap="round" opacity="1"/><line x1="387.0" y1="33.0" x2="387.0" y2="36.0" stroke="#2FA86A" stroke-width="2" stroke-linecap="round" opacity="1"/><line x1="382.0502525316942" y1="30.949747468305834" x2="379.9289321881345" y2="33.071067811865476" stroke="#2FA86A" stroke-width="2" stroke-linecap="round" opacity="1"/><line x1="380.0" y1="26.0" x2="377.0" y2="26.0" stroke="#2FA86A" stroke-width="2" stroke-linecap="round" opacity="1"/><line x1="382.0502525316942" y1="21.05025253169417" x2="379.9289321881345" y2="18.928932188134524" stroke="#2FA86A" stroke-width="2" stroke-linecap="round" opacity="1"/><line x1="387.0" y1="19.0" x2="387.0" y2="16.0" stroke="#2FA86A" stroke-width="2" stroke-linecap="round" opacity="1"/><line x1="391.9497474683058" y1="21.050252531694166" x2="394.0710678118655" y2="18.928932188134524" stroke="#2FA86A" stroke-width="2" stroke-linecap="round" opacity="1"/><circle cx="387" cy="26" r="8" fill="none" stroke="#2FA86A" stroke-width="1.5" opacity="1"/><g fill="#2FA86A" opacity="1"><path d="M319 758Q339 758 354.5 748.0Q370 738 370 716V629Q370 584 385.5 552.5Q401 521 436 495Q471 469 500.0 449.0Q529 429 555 412Q572 401 573.0 383.0Q574 365 563 351Q554 337 537.5 331.5Q521 326 504 337Q482 351 454.0 370.5Q426 390 392 415Q355 442 340.0 460.0Q325 478 321 492H320Q316 476 300.5 457.0Q285 438 247 410Q213 386 181.5 364.0Q150 342 118 321Q101 310 84.0 317.0Q67 324 58 338Q49 352 49.5 370.0Q50 388 67 399Q103 422 135.5 444.5Q168 467 203 493Q238 519 253.5 550.5Q269 582 269 627V716Q269 738 284.0 748.0Q299 758 319 758ZM746 778Q765 778 780.0 768.0Q795 758 795 736V348Q795 326 780.0 316.0Q765 306 746 306Q726 306 711.0 316.0Q696 326 696 348V535H544Q525 535 516.5 548.0Q508 561 508 578Q508 596 516.5 608.5Q525 621 544 621H696V736Q696 758 711.0 768.0Q726 778 746 778ZM718 263Q762 263 778.5 247.0Q795 231 795 188V96Q795 53 778.5 37.0Q762 21 718 21H327Q316 21 311.0 16.5Q306 12 306 0V-43Q306 -64 327 -64H784Q801 -64 809.0 -76.0Q817 -88 817 -104Q817 -120 809.0 -132.0Q801 -144 784 -144H286Q242 -144 225.5 -128.0Q209 -112 209 -69V23Q209 66 225.5 82.0Q242 98 286 98H676Q688 98 692.5 102.5Q697 107 697 119V162Q697 173 692.5 177.5Q688 182 676 182H240Q223 182 215.0 194.0Q207 206 207 223Q207 239 215.0 251.0Q223 263 240 263Z" transform="translate(376.990 66.130) scale(0.011000 -0.011000)"/><path d="M567 683Q567 666 558.5 653.5Q550 641 532 641H372V587Q372 539 387.0 506.0Q402 473 438 444Q473 415 503.5 392.0Q534 369 557 353Q574 340 575.0 323.5Q576 307 565 292Q555 280 538.5 273.5Q522 267 503 280Q486 292 457.5 313.5Q429 335 397 361Q359 391 343.5 410.0Q328 429 324 444H323Q319 427 302.5 407.0Q286 387 248 356Q215 330 184.0 307.0Q153 284 124 264Q107 251 89.5 257.0Q72 263 63 276Q52 291 53.0 308.5Q54 326 71 339Q106 364 139.0 388.0Q172 412 207 441Q242 470 257.0 503.0Q272 536 272 585V641H105Q86 641 77.5 653.5Q69 666 69 683Q69 700 77.5 713.0Q86 726 105 726H532Q550 726 558.5 713.0Q567 700 567 683ZM746 778Q765 778 780.0 768.0Q795 758 795 736V271Q795 250 780.0 240.0Q765 230 746 230Q726 230 711.0 240.0Q696 250 696 271V464H552Q533 464 524.5 477.0Q516 490 516 507Q516 525 524.5 537.5Q533 550 552 550H696V736Q696 758 711.0 768.0Q726 778 746 778ZM507 221Q647 221 723.5 173.5Q800 126 800 32Q800 -62 723.5 -109.5Q647 -157 507 -157Q367 -157 290.5 -109.5Q214 -62 214 32Q214 126 290.5 173.5Q367 221 507 221ZM507 140Q405 140 359.0 110.5Q313 81 313 32Q313 -18 359.0 -47.0Q405 -76 507 -76Q609 -76 655.0 -47.0Q701 -18 701 32Q701 82 655.0 111.0Q609 140 507 140Z" transform="translate(387.000 66.130) scale(0.011000 -0.011000)"/></g></svg>