<svg xmlns="http://www.w3.org/2000/svg" width="430" height="88" viewBox="0 0 430 88" role="img" aria-label="Bottom navigation home"><title>Bottom navigation home</title><defs>
<linearGradient id="gGreen" x1="0" y1="0" x2="1" y2="1"><stop offset="0" stop-color="#4CC48B"/><stop offset="1" stop-color="#1E5E3E"/></linearGradient>
<linearGradient id="gMint" x1="0" y1="0" x2="1" y2="1"><stop offset="0" stop-color="#F6FFF8"/><stop offset="1" stop-color="#E9F7EC"/></linearGradient>
<linearGradient id="gBlue" x1="0" y1="0" x2="1" y2="1"><stop offset="0" stop-color="#DDF6FF"/><stop offset="1" stop-color="#8ED7F4"/></linearGradient>
<linearGradient id="gYellow" x1="0" y1="0" x2="1" y2="1"><stop offset="0" stop-color="#FFF8D8"/><stop offset="1" stop-color="#FFE1A4"/></linearGradient>
<filter id="shadow" x="-30%" y="-30%" width="160%" height="160%"><feDropShadow dx="0" dy="6" stdDeviation="8" flood-color="#103A26" flood-opacity=".11"/></filter>
<filter id="shadowSmall" x="-30%" y="-30%" width="160%" height="160%"><feDropShadow dx="0" dy="3" stdDeviation="4" flood-color="#103A26" flood-opacity=".09"/></filter>
</defs><rect x="0" y="0" width="430" height="88" rx="0" fill="#FFFFFF" stroke="none" stroke-width="1" opacity="1"/><line x1="0" y1="1" x2="430" y2="1" stroke="#E1E8E4" stroke-width="1" stroke-linecap="round" opacity="1"/><g transform="translate(31 13)" fill="none" stroke="#2FA86A" stroke-width="1.8" stroke-linecap="round" stroke-linejoin="round"><path d="M3 10.5 12 3l9 7.5V21a1 1 0 0 1-1 1h-5v-7H9v7H4a1 1 0 0 1-1-1z"/></g><text x="43" y="70" font-family="Pretendard, 'Noto Sans KR', Arial, sans-serif" font-size="11" font-weight="650" fill="#2FA86A" text-anchor="middle" opacity="1">홈</text><g transform="translate(117 13)" fill="none" stroke="#8A949D" stroke-width="1.8" stroke-linecap="round" stroke-linejoin="round"><path d="M5 21V8m14 13V8M3 8h18M7 8V5a5 5 0 0 1 10 0v3M8 14c3-2 5-2 8 0M8 18c3-2 5-2 8 0"/></g><text x="129" y="70" font-family="Pretendard, 'Noto Sans KR', Arial, sans-serif" font-size="11" font-weight="650" fill="#8A949D" text-anchor="middle" opacity="1">밭 관리</text><g transform="translate(203 13)" fill="none" stroke="#8A949D" stroke-width="1.8" stroke-linecap="round" stroke-linejoin="round"><path d="M4 5h16a2 2 0 0 1 2 2v8a2 2 0 0 1-2 2h-8l-5 4v-4H4a2 2 0 0 1-2-2V7a2 2 0 0 1 2-2z"/><circle cx="8" cy="11" r="1"/><circle cx="12" cy="11" r="1"/><circle cx="16" cy="11" r="1"/></g><text x="215" y="70" font-family="Pretendard, 'Noto Sans KR', Arial, sans-serif" font-size="11" font-weight="650" fill="#8A949D" text-anchor="middle" opacity="1">AI 상담</text><g transform="translate(289 13)" fill="none" stroke="#8A949D" stroke-width="1.8" stroke-linecap="round" stroke-linejoin="round"><path d="M3 4h13a2 2 0 0 1 2 2v8a2 2 0 0 1-2 2H9l-4 3v-3H3a2 2 0 0 1-2-2V6a2 2 0 0 1 2-2z"/><path d="M18 8h3a2 2 0 0 1 2 2v7a2 2 0 0 1-2 2h-2v3l-4-3h-2"/></g><text x="301" y="70" font-family="Pretendard, 'Noto Sans KR', Arial, sans-serif" font-size="11" font-weight="650" fill="#8A949D" text-anchor="middle" opacity="1">커뮤니티</text><g transform="translate(375 13)" fill="none" stroke="#8A949D" stroke-width="1.8" stroke-linecap="round" stroke-linejoin="round"><circle cx="12" cy="12" r="3"/><path d="M19.4 15a1.7 1.7 0 0 0 .34 1.88l.06.06-2.83 2.83-.06-.06A1.7 1.7 0 0 0 15 19.4a1.7 1.7 0 0 0-1 .6 1.7 1.7 0 0 0-.4 1.1V21h-4v-.1A1.7 1.7 0 0 0 8.6 19.4a1.7 1.7 0 0 0-1.88.34l-.06.06-2.83-2.83.06-.06A1.7 1.7 0 0 0 4.6 15a1.7 1.7 0 0 0-.6-1 1.7 1.7 0 0 0-1.1-.4H3v-4h.1A1.7 1.7 0 0 0 4.6 8.6a1.7 1.7 0 0 0-.34-1.88l-.06-.06 2.83-2.83.06.06A1.7 1.7 0 0 0 9 4.6a1.7 1.7 0 0 0 1-.6 1.7 1.7 0 0 0 .4-1.1V3h4v.1A1.7 1.7 0 0 0 15.4 4.6a1.7 1.7 0 0 0 1.88-.34l.06-.06 2.83 2.83-.06.06A1.7 1.7 0 0 0 19.4 9c.1.37.3.72.6 1 .3.28.67.44 1.1.4h.1v4h-.1A1.7 1.7 0 0 0 19.4 15z"/></g><text x="387" y="70" font-family="Pretendard, 'Noto Sans KR', Arial, sans-serif" font-size="11" font-weight="650" fill="#8A949D" text-anchor="middle" opacity="1">설정</text></svg>