<svg xmlns="http://www.w3.org/2000/svg" width="430" height="88" viewBox="0 0 430 88" role="img" aria-label="Bottom nav community"><title>Bottom nav community</title><rect x="0" y="0" width="430" height="88" rx="0" fill="#fff" stroke-width="1" opacity="1"/><line x1="0" y1="1" x2="430" y2="1" stroke="#E1E8E4" stroke-width="1" stroke-linecap="round" opacity="1"/><path d="M34 25 L43 17 L52 25 V35 H46 V29 H40 V35 H34Z" fill="none" stroke="#9AA4AD" stroke-width="1.8" stroke-linecap="round" stroke-linejoin="round" opacity="1"/><g fill="#9AA4AD" opacity="1"><path d="M455 801Q469 801 480.5 794.0Q492 787 492 771V705H776Q788 705 794.0 696.0Q800 687 800 675Q800 663 794.0 654.0Q788 645 776 645H134Q122 645 116.0 654.0Q110 663 110 675Q110 687 116.0 696.0Q122 705 134 705H418V771Q418 787 429.5 794.0Q441 801 455 801ZM455 588Q580 588 649.5 557.5Q719 527 719 461Q719 395 649.5 364.0Q580 333 455 333Q330 333 260.5 364.0Q191 395 191 461Q191 527 260.5 557.5Q330 588 455 588ZM455 532Q262 532 262 461Q262 390 455 390Q648 390 648 461Q648 532 455 532ZM491 254H848Q860 254 866.0 245.0Q872 236 872 224Q872 213 866.0 204.0Q860 195 848 195H62Q50 195 44.0 204.0Q38 213 38 224Q38 236 44.0 245.0Q50 254 62 254H419V360H491ZM680 120Q719 120 734.0 105.5Q749 91 749 53V-70Q749 -108 734.0 -122.5Q719 -137 680 -137H230Q191 -137 176.0 -122.5Q161 -108 161 -70V53Q161 91 176.0 105.5Q191 120 230 120ZM251 61Q232 61 232 43V-60Q232 -79 251 -79H659Q678 -79 678 -60V43Q678 61 659 61Z" transform="translate(37.995 66.130) scale(0.011000 -0.011000)"/></g><path d="M120 36 V22 H138 V36 M118 22 H140 M124 22 V19 Q129 13 134 19 V22" fill="none" stroke="#9AA4AD" stroke-width="1.7" stroke-linecap="round" stroke-linejoin="round" opacity="1"/><g fill="#9AA4AD" opacity="1"><path d="M113 741Q127 741 138.0 734.0Q149 727 149 712V599H418V712Q418 727 429.0 734.0Q440 741 454 741Q468 741 479.0 734.0Q490 727 490 712V415Q490 377 475.0 362.5Q460 348 421 348H146Q107 348 92.0 362.5Q77 377 77 415V712Q77 727 88.0 734.0Q99 741 113 741ZM149 427Q149 416 153.0 412.5Q157 409 168 409H399Q410 409 414.0 412.5Q418 416 418 427V538H149ZM700 774Q714 774 725.5 767.0Q737 760 737 744V576H864Q878 576 884.0 566.5Q890 557 890 543Q890 530 884.0 520.5Q878 511 864 511H737V330Q737 314 725.5 307.0Q714 300 700 300Q686 300 675.0 307.0Q664 314 664 330V744Q664 760 675.0 767.0Q686 774 700 774ZM727 244Q739 244 745.0 235.0Q751 226 751 214Q751 202 745.0 193.0Q739 184 727 184H271Q252 184 252 166V83H717Q729 83 735.0 74.0Q741 65 741 53Q741 41 735.0 32.5Q729 24 717 24H252V-59Q252 -78 271 -78H737Q749 -78 755.0 -87.0Q761 -96 761 -108Q761 -120 755.0 -129.0Q749 -138 737 -138H251Q212 -138 197.0 -123.5Q182 -109 182 -71V177Q182 215 197.0 229.5Q212 244 251 244H727Z" transform="translate(112.610 66.130) scale(0.011000 -0.011000)"/><path d="M473 719Q512 719 527.0 704.5Q542 690 542 652V588Q542 542 537.0 500.5Q532 459 521 422Q517 408 505.0 402.5Q493 397 477 400Q463 404 455.5 414.0Q448 424 452 438Q461 476 465.5 512.5Q470 549 470 591V637Q470 648 465.5 651.5Q461 655 451 655H126Q112 655 106.0 664.5Q100 674 100 687Q100 701 106.0 710.0Q112 719 126 719H473ZM718 774Q732 774 743.0 767.0Q754 760 754 744V488H868Q882 488 888.0 478.5Q894 469 894 456Q894 442 888.0 432.5Q882 423 868 423H754V120Q754 104 743.0 97.0Q732 90 718 90Q704 90 693.0 97.0Q682 104 682 120V744Q682 760 693.0 767.0Q704 774 718 774ZM259 516Q273 516 284.5 509.0Q296 502 296 486V307Q366 309 439.0 313.0Q512 317 590 324Q601 325 608.5 317.5Q616 310 617 296Q618 283 612.5 273.5Q607 264 595 262Q462 251 332.0 247.0Q202 243 63 243Q49 243 43.0 252.0Q37 261 37 274Q37 287 43.0 296.0Q49 305 63 305Q103 305 143.0 305.0Q183 305 224 306V486Q224 502 234.5 509.0Q245 516 259 516ZM213 151Q227 151 238.5 144.0Q250 137 250 120V-47Q250 -66 269 -66H755Q768 -66 774.0 -75.0Q780 -84 780 -97Q780 -110 774.0 -119.0Q768 -128 755 -128H245Q206 -128 191.0 -113.5Q176 -99 176 -61V120Q176 137 187.5 144.0Q199 151 213 151Z" transform="translate(125.370 66.130) scale(0.011000 -0.011000)"/><path d="M431 711Q470 711 485.0 696.5Q500 682 500 644V459Q500 421 485.0 406.5Q470 392 431 392H191Q172 392 172 374V209Q172 191 191 191Q309 191 403.5 196.5Q498 202 587 215Q599 217 607.0 209.0Q615 201 617 188Q619 174 613.5 163.5Q608 153 596 151Q557 146 513.5 141.5Q470 137 418.0 134.0Q366 131 305.0 129.5Q244 128 169 128Q130 128 115.0 142.5Q100 157 100 195V386Q100 424 115.0 438.5Q130 453 169 453H409Q428 453 428 472V630Q428 648 409 648H125Q112 648 106.0 657.0Q100 666 100 680Q100 693 106.0 702.0Q112 711 125 711H431ZM743 774Q757 774 768.5 767.0Q780 760 780 744V-52Q780 -68 768.5 -75.0Q757 -82 743 -82Q729 -82 718.0 -75.0Q707 -68 707 -52V744Q707 760 718.0 767.0Q729 774 743 774Z" transform="translate(135.380 66.130) scale(0.011000 -0.011000)"/></g><path d="M206 18 H224 Q226 18 226 20 V30 Q226 32 224 32 H216 L210 37 V32 H206 Q204 32 204 30 V20 Q204 18 206 18Z" fill="none" stroke="#9AA4AD" stroke-width="1.8" stroke-linecap="round" stroke-linejoin="round" opacity="1"/><circle cx="211" cy="25" r="1.3" fill="#9AA4AD" stroke-width="1" opacity="1"/><circle cx="215" cy="25" r="1.3" fill="#9AA4AD" stroke-width="1" opacity="1"/><circle cx="219" cy="25" r="1.3" fill="#9AA4AD" stroke-width="1" opacity="1"/><g fill="#9AA4AD" opacity="1"><path d="M331 719Q346 719 357.0 712.0Q368 705 375 687L623 47Q629 31 622.5 19.5Q616 8 602 3Q587 -2 573.5 1.5Q560 5 554 22L479 221H179L103 21Q97 5 84.0 1.5Q71 -2 56 3Q42 8 36.5 19.0Q31 30 37 46L286 687Q293 705 304.5 712.0Q316 719 331 719ZM330 632Q319 596 307.0 560.5Q295 525 278 483L202 283H457L383 483Q367 524 354.0 561.0Q341 598 330 632Z" transform="translate(198.572 66.130) scale(0.011000 -0.011000)"/><path d="M128 719Q143 719 154.0 712.0Q165 705 165 689V30Q165 14 154.0 7.0Q143 0 128 0Q114 0 103.0 7.0Q92 14 92 30V689Q92 705 103.0 712.0Q114 719 128 719Z" transform="translate(205.832 66.130) scale(0.011000 -0.011000)"/><path d="M310 744Q324 744 335.5 737.0Q347 730 347 714V612Q347 561 364.0 524.5Q381 488 419 456Q456 426 489.0 400.5Q522 375 550 355Q562 347 563.0 333.5Q564 320 556 309Q548 299 536.0 295.5Q524 292 511 301Q488 317 456.5 341.5Q425 366 391 393Q353 424 334.0 447.5Q315 471 311 486H310Q306 470 287.0 446.0Q268 422 230 391Q196 363 162.5 337.5Q129 312 95 288Q82 279 69.5 282.0Q57 285 49 296Q41 306 41.5 320.0Q42 334 55 343Q94 371 129.0 397.5Q164 424 201 455Q239 487 256.0 523.0Q273 559 273 610V714Q273 730 284.5 737.0Q296 744 310 744ZM700 774Q714 774 725.5 767.0Q737 760 737 744V547H864Q878 547 884.0 537.5Q890 528 890 514Q890 501 884.0 491.5Q878 482 864 482H737V257Q737 241 725.5 234.0Q714 227 700 227Q686 227 675.0 234.0Q664 241 664 257V744Q664 760 675.0 767.0Q686 774 700 774ZM466 215Q600 215 672.0 168.5Q744 122 744 32Q744 -58 672.0 -104.5Q600 -151 466 -151Q332 -151 260.5 -104.5Q189 -58 189 32Q189 122 260.5 168.5Q332 215 466 215ZM466 155Q360 155 310.5 122.0Q261 89 261 32Q261 -25 310.5 -58.0Q360 -91 466 -91Q572 -91 622.0 -58.0Q672 -25 672 32Q672 89 622.0 122.0Q572 155 466 155Z" transform="translate(211.409 66.130) scale(0.011000 -0.011000)"/><path d="M477 723Q491 723 497.0 714.0Q503 705 503 692Q503 678 497.0 669.0Q491 660 477 660H172Q153 660 153 642V405Q153 394 157.0 390.5Q161 387 172 387Q283 387 375.0 392.5Q467 398 557 410Q569 412 577.0 404.5Q585 397 587 384Q589 370 583.5 359.5Q578 349 566 347Q527 341 483.5 336.5Q440 332 389.5 329.0Q339 326 279.5 324.5Q220 323 149 323Q110 323 95.0 337.5Q80 352 80 390V656Q80 694 95.0 708.5Q110 723 149 723H477ZM700 774Q714 774 725.5 767.0Q737 760 737 744V557H864Q878 557 884.0 547.5Q890 538 890 524Q890 511 884.0 501.5Q878 492 864 492H737V289Q737 273 725.5 266.0Q714 259 700 259Q686 259 675.0 266.0Q664 273 664 289V744Q664 760 675.0 767.0Q686 774 700 774ZM668 208Q707 208 722.0 193.5Q737 179 737 141V-66Q737 -104 722.0 -118.5Q707 -133 668 -133H249Q210 -133 195.0 -118.5Q180 -104 180 -66V141Q180 179 195.0 193.5Q210 208 249 208ZM272 146Q253 146 253 127V-52Q253 -71 272 -71H646Q665 -71 665 -52V127Q665 146 646 146Z" transform="translate(221.418 66.130) scale(0.011000 -0.011000)"/></g><path d="M290 18 H306 Q309 18 309 21 V31 Q309 34 306 34 H299 L294 38 V34 H290 Q287 34 287 31 V21 Q287 18 290 18Z" fill="none" stroke="#2FA86A" stroke-width="1.6" stroke-linecap="round" stroke-linejoin="round" opacity="1"/><g fill="#2FA86A" opacity="1"><path d="M501 636V509Q501 464 496.0 428.0Q491 392 477.0 361.5Q463 331 438.5 303.0Q414 275 375.0 244.5Q336 214 280.5 179.5Q225 145 150 101Q134 92 117.0 97.0Q100 102 90 118Q80 133 82.0 152.0Q84 171 101 181Q180 226 233.0 258.5Q286 291 319.5 317.0Q353 343 370.5 366.0Q388 389 396 415L106 398Q88 396 79.0 408.5Q70 421 68 439Q67 455 74.5 469.0Q82 483 101 484L404 498V604Q404 616 399.0 620.5Q394 625 383 625H128Q109 625 100.5 638.0Q92 651 92 668Q92 685 100.5 698.0Q109 711 128 711H424Q468 711 484.5 695.0Q501 679 501 636ZM745 778Q765 778 780.0 768.0Q795 758 795 736V-44Q795 -66 780.0 -76.0Q765 -86 745 -86Q726 -86 711.0 -76.0Q696 -66 696 -44V386H463V471H696V736Q696 758 711.0 768.0Q726 778 745 778Z" transform="translate(280.980 66.130) scale(0.011000 -0.011000)"/><path d="M684 737Q728 737 744.5 721.0Q761 705 761 662V435Q761 392 744.5 376.0Q728 360 684 360H226Q182 360 166.0 376.0Q150 392 150 435V662Q150 705 166.0 721.0Q182 737 226 737ZM271 651Q250 651 250 631V466Q250 446 271 446H639Q660 446 660 466V631Q660 651 639 651ZM875 209Q875 192 866.5 180.0Q858 168 840 168H646V-110Q646 -132 631.5 -141.5Q617 -151 599 -151Q580 -151 565.0 -141.5Q550 -132 550 -110V168H360V-110Q360 -132 345.0 -141.5Q330 -151 312 -151Q293 -151 278.5 -141.5Q264 -132 264 -110V168H70Q52 168 43.5 180.0Q35 192 35 209Q35 226 43.5 239.0Q52 252 70 252H840Q858 252 866.5 239.0Q875 226 875 209Z" transform="translate(290.990 66.130) scale(0.011000 -0.011000)"/><path d="M145 720Q165 720 180.0 710.0Q195 700 195 677V253Q195 232 216 232Q320 232 406.0 237.5Q492 243 573 254Q590 256 600.5 245.0Q611 234 613 217Q615 199 608.5 184.5Q602 170 585 168Q550 163 509.5 159.0Q469 155 419.0 152.0Q369 149 308.0 147.5Q247 146 171 146Q127 146 111.0 162.0Q95 178 95 221V677Q95 700 110.0 710.0Q125 720 145 720ZM738 778Q758 778 773.5 768.0Q789 758 789 736V-44Q789 -66 773.5 -76.0Q758 -86 738 -86Q719 -86 703.5 -76.0Q688 -66 688 -44V736Q688 758 703.5 768.0Q719 778 738 778Z" transform="translate(301.000 66.130) scale(0.011000 -0.011000)"/><path d="M530 674Q530 657 521.5 644.0Q513 631 494 631H212Q191 631 191 611V470H486Q503 470 511.5 458.0Q520 446 520 429Q520 412 511.5 399.5Q503 387 486 387H191V242Q191 222 212 222Q319 222 405.5 227.0Q492 232 573 243Q590 245 600.5 234.5Q611 224 613 206Q615 189 608.5 174.5Q602 160 585 158Q550 153 509.5 149.0Q469 145 418.5 142.0Q368 139 306.5 137.5Q245 136 169 136Q125 136 108.5 152.0Q92 168 92 211V642Q92 685 108.5 701.0Q125 717 169 717H494Q513 717 521.5 704.0Q530 691 530 674ZM738 778Q758 778 773.5 768.0Q789 758 789 736V-44Q789 -66 773.5 -76.0Q758 -86 738 -86Q719 -86 703.5 -76.0Q688 -66 688 -44V736Q688 758 703.5 768.0Q719 778 738 778Z" transform="translate(311.010 66.130) scale(0.011000 -0.011000)"/></g><circle cx="387" cy="26" r="3.2" fill="none" stroke="#9AA4AD" stroke-width="1.8" opacity="1"/><line x1="394.0" y1="26.0" x2="397.0" y2="26.0" stroke="#9AA4AD" stroke-width="2" stroke-linecap="round" opacity="1"/><line x1="391.9497474683058" y1="30.94974746830583" x2="394.0710678118655" y2="33.071067811865476" stroke="#9AA4AD" stroke-width="2" stroke-linecap="round" opacity="1"/><line x1="387.0" y1="33.0" x2="387.0" y2="36.0" stroke="#9AA4AD" stroke-width="2" stroke-linecap="round" opacity="1"/><line x1="382.0502525316942" y1="30.949747468305834" x2="379.9289321881345" y2="33.071067811865476" stroke="#9AA4AD" stroke-width="2" stroke-linecap="round" opacity="1"/><line x1="380.0" y1="26.0" x2="377.0" y2="26.0" stroke="#9AA4AD" stroke-width="2" stroke-linecap="round" opacity="1"/><line x1="382.0502525316942" y1="21.05025253169417" x2="379.9289321881345" y2="18.928932188134524" stroke="#9AA4AD" stroke-width="2" stroke-linecap="round" opacity="1"/><line x1="387.0" y1="19.0" x2="387.0" y2="16.0" stroke="#9AA4AD" stroke-width="2" stroke-linecap="round" opacity="1"/><line x1="391.9497474683058" y1="21.050252531694166" x2="394.0710678118655" y2="18.928932188134524" stroke="#9AA4AD" stroke-width="2" stroke-linecap="round" opacity="1"/><circle cx="387" cy="26" r="8" fill="none" stroke="#9AA4AD" stroke-width="1.5" opacity="1"/><g fill="#9AA4AD" opacity="1"><path d="M322 754Q336 754 347.5 747.0Q359 740 359 724V628Q359 578 374.5 546.5Q390 515 428 487Q466 459 496.5 437.5Q527 416 557 396Q570 388 571.0 374.5Q572 361 565 350Q558 340 545.5 336.5Q533 333 521 341Q496 358 466.0 378.5Q436 399 400 426Q360 455 343.0 475.0Q326 495 323 510H322Q319 494 301.5 473.0Q284 452 244 423Q208 397 173.0 372.5Q138 348 105 327Q92 319 80.0 322.5Q68 326 60 337Q53 348 54.0 361.5Q55 375 68 383Q106 408 141.5 432.5Q177 457 215 485Q253 514 269.0 545.5Q285 577 285 626V724Q285 740 296.0 747.0Q307 754 322 754ZM750 774Q764 774 775.0 767.0Q786 760 786 744V336Q786 320 775.0 313.0Q764 306 750 306Q736 306 725.0 313.0Q714 320 714 336V546H535Q522 546 516.0 555.0Q510 564 510 578Q510 591 516.0 600.5Q522 610 535 610H714V744Q714 760 725.0 767.0Q736 774 750 774ZM717 256Q756 256 771.0 241.5Q786 227 786 189V97Q786 59 771.0 44.5Q756 30 717 30H307Q297 30 292.5 26.5Q288 23 288 12V-59Q288 -78 307 -78H786Q798 -78 804.0 -87.0Q810 -96 810 -108Q810 -120 804.0 -129.0Q798 -138 786 -138H286Q247 -138 232.0 -123.5Q217 -109 217 -71V22Q217 60 232.0 74.5Q247 89 286 89H696Q707 89 711.0 92.5Q715 96 715 107V178Q715 196 696 196H239Q227 196 221.0 205.0Q215 214 215 226Q215 238 221.0 247.0Q227 256 239 256H717Z" transform="translate(376.990 66.130) scale(0.011000 -0.011000)"/><path d="M542 720Q555 720 561.0 711.0Q567 702 567 689Q567 675 561.0 666.0Q555 657 542 657H361V586Q361 534 377.0 499.5Q393 465 431 434Q469 405 502.5 380.0Q536 355 559 338Q572 328 573.0 315.5Q574 303 566 292Q559 282 547.0 278.0Q535 274 521 284Q503 296 471.0 320.0Q439 344 404 371Q365 403 347.0 424.5Q329 446 325 462H324Q320 445 302.0 423.0Q284 401 244 369Q209 341 174.5 315.5Q140 290 111 270Q98 261 86.0 265.0Q74 269 66 279Q58 290 58.5 303.0Q59 316 73 325Q109 351 144.0 377.0Q179 403 217 433Q255 464 271.0 498.5Q287 533 287 584V657H100Q87 657 81.0 666.0Q75 675 75 689Q75 702 81.0 711.0Q87 720 100 720H542ZM750 774Q764 774 775.0 767.0Q786 760 786 744V257Q786 241 775.0 234.0Q764 227 750 227Q736 227 725.0 234.0Q714 241 714 257V475H543Q530 475 524.0 484.0Q518 493 518 507Q518 520 524.0 529.5Q530 539 543 539H714V744Q714 760 725.0 767.0Q736 774 750 774ZM508 215Q645 215 719.0 168.5Q793 122 793 32Q793 -58 719.0 -104.5Q645 -151 508 -151Q371 -151 297.5 -104.5Q224 -58 224 32Q224 122 297.5 168.5Q371 215 508 215ZM508 155Q399 155 347.5 122.0Q296 89 296 32Q296 -25 347.5 -58.0Q399 -91 508 -91Q617 -91 669.0 -58.0Q721 -25 721 32Q721 89 669.0 122.0Q617 155 508 155Z" transform="translate(387.000 66.130) scale(0.011000 -0.011000)"/></g></svg>