<svg xmlns="http://www.w3.org/2000/svg" width="430" height="88" viewBox="0 0 430 88" role="img" aria-label="Bottom nav field"><title>Bottom nav field</title><rect x="0" y="0" width="430" height="88" rx="0" fill="#fff" stroke-width="1" opacity="1"/><line x1="0" y1="1" x2="430" y2="1" stroke="#E1E8E4" stroke-width="1" stroke-linecap="round" opacity="1"/><path d="M34 25 L43 17 L52 25 V35 H46 V29 H40 V35 H34Z" fill="none" stroke="#9AA4AD" stroke-width="1.8" stroke-linecap="round" stroke-linejoin="round" opacity="1"/><g fill="#9AA4AD" opacity="1"><path d="M455 801Q469 801 480.5 794.0Q492 787 492 771V705H776Q788 705 794.0 696.0Q800 687 800 675Q800 663 794.0 654.0Q788 645 776 645H134Q122 645 116.0 654.0Q110 663 110 675Q110 687 116.0 696.0Q122 705 134 705H418V771Q418 787 429.5 794.0Q441 801 455 801ZM455 588Q580 588 649.5 557.5Q719 527 719 461Q719 395 649.5 364.0Q580 333 455 333Q330 333 260.5 364.0Q191 395 191 461Q191 527 260.5 557.5Q330 588 455 588ZM455 532Q262 532 262 461Q262 390 455 390Q648 390 648 461Q648 532 455 532ZM491 254H848Q860 254 866.0 245.0Q872 236 872 224Q872 213 866.0 204.0Q860 195 848 195H62Q50 195 44.0 204.0Q38 213 38 224Q38 236 44.0 245.0Q50 254 62 254H419V360H491ZM680 120Q719 120 734.0 105.5Q749 91 749 53V-70Q749 -108 734.0 -122.5Q719 -137 680 -137H230Q191 -137 176.0 -122.5Q161 -108 161 -70V53Q161 91 176.0 105.5Q191 120 230 120ZM251 61Q232 61 232 43V-60Q232 -79 251 -79H659Q678 -79 678 -60V43Q678 61 659 61Z" transform="translate(37.995 66.130) scale(0.011000 -0.011000)"/></g><path d="M120 36 V22 H138 V36 M118 22 H140 M124 22 V19 Q129 13 134 19 V22" fill="none" stroke="#2FA86A" stroke-width="1.7" stroke-linecap="round" stroke-linejoin="round" opacity="1"/><g fill="#2FA86A" opacity="1"><path d="M118 747Q137 747 152.5 737.0Q168 727 168 705V609H398V705Q398 727 413.0 737.0Q428 747 447 747Q466 747 481.5 737.0Q497 727 497 705V415Q497 372 480.5 356.0Q464 340 420 340H146Q102 340 85.5 356.0Q69 372 69 415V705Q69 727 84.0 737.0Q99 747 118 747ZM168 442Q168 430 172.5 425.5Q177 421 189 421H377Q388 421 393.0 425.5Q398 430 398 442V528H168ZM696 778Q716 778 731.0 768.0Q746 758 746 736V586H856Q876 586 884.5 573.0Q893 560 893 543Q893 524 884.5 511.5Q876 499 856 499H746V342Q746 320 731.0 310.0Q716 300 696 300Q676 300 661.0 310.0Q646 320 646 342V736Q646 758 661.0 768.0Q676 778 696 778ZM758 211Q758 194 750.0 182.0Q742 170 725 170H290Q269 170 269 150V92H716Q733 92 740.5 80.5Q748 69 748 54Q748 38 740.5 26.5Q733 15 716 15H269V-43Q269 -64 290 -64H735Q752 -64 760.0 -76.0Q768 -88 768 -104Q768 -120 760.0 -132.0Q752 -144 735 -144H251Q207 -144 190.5 -128.0Q174 -112 174 -69V176Q174 219 190.5 235.0Q207 251 251 251H725Q742 251 750.0 239.0Q758 227 758 211Z" transform="translate(112.610 66.130) scale(0.011000 -0.011000)"/><path d="M471 727Q515 727 531.5 711.0Q548 695 548 652V580Q548 495 530 429Q524 409 506.5 401.5Q489 394 469 399Q449 404 439.0 416.5Q429 429 434 450Q442 483 445.5 515.0Q449 547 449 583V619Q449 631 444.0 635.5Q439 640 428 640H127Q109 640 100.5 653.0Q92 666 92 683Q92 701 100.5 714.0Q109 727 127 727ZM713 778Q733 778 748.0 768.0Q763 758 763 737V500H860Q880 500 888.5 487.0Q897 474 897 456Q897 438 888.5 425.0Q880 412 860 412H763V127Q763 106 748.0 96.0Q733 86 713 86Q694 86 679.0 96.0Q664 106 664 127V737Q664 758 679.0 768.0Q694 778 713 778ZM258 517Q277 517 292.0 507.0Q307 497 307 476V316Q373 318 439.5 321.5Q506 325 575 331Q592 333 601.0 322.0Q610 311 612 293Q614 276 606.5 263.0Q599 250 582 248Q467 238 337.0 234.0Q207 230 68 230Q50 230 41.5 242.5Q33 255 33 272Q33 289 41.5 301.5Q50 314 68 314H209V476Q209 497 224.0 507.0Q239 517 258 517ZM219 151Q238 151 253.5 141.0Q269 131 269 109V-28Q269 -39 273.5 -44.0Q278 -49 290 -49H752Q770 -49 778.5 -61.5Q787 -74 787 -91Q787 -108 778.5 -121.0Q770 -134 752 -134H245Q201 -134 184.5 -118.0Q168 -102 168 -59V109Q168 131 183.5 141.0Q199 151 219 151Z" transform="translate(125.370 66.130) scale(0.011000 -0.011000)"/><path d="M505 642V456Q505 413 488.5 397.0Q472 381 428 381H212Q200 381 195.5 376.5Q191 372 191 361V228Q191 217 195.5 212.5Q200 208 212 208Q319 208 405.5 213.0Q492 218 573 229Q590 231 600.5 220.5Q611 210 613 193Q615 175 608.5 160.5Q602 146 585 144Q550 139 509.5 135.0Q469 131 418.5 128.0Q368 125 306.5 123.5Q245 122 169 122Q125 122 108.5 138.0Q92 154 92 197V389Q92 432 108.5 447.5Q125 463 169 463H386Q407 463 407 484V611Q407 631 386 631H127Q108 631 100.0 644.0Q92 657 92 674Q92 691 100.0 704.0Q108 717 127 717H428Q472 717 488.5 701.0Q505 685 505 642ZM738 778Q758 778 773.5 768.0Q789 758 789 736V-44Q789 -66 773.5 -76.0Q758 -86 738 -86Q719 -86 703.5 -76.0Q688 -66 688 -44V736Q688 758 703.5 768.0Q719 778 738 778Z" transform="translate(135.380 66.130) scale(0.011000 -0.011000)"/></g><path d="M206 18 H224 Q226 18 226 20 V30 Q226 32 224 32 H216 L210 37 V32 H206 Q204 32 204 30 V20 Q204 18 206 18Z" fill="none" stroke="#9AA4AD" stroke-width="1.8" stroke-linecap="round" stroke-linejoin="round" opacity="1"/><circle cx="211" cy="25" r="1.3" fill="#9AA4AD" stroke-width="1" opacity="1"/><circle cx="215" cy="25" r="1.3" fill="#9AA4AD" stroke-width="1" opacity="1"/><circle cx="219" cy="25" r="1.3" fill="#9AA4AD" stroke-width="1" opacity="1"/><g fill="#9AA4AD" opacity="1"><path d="M331 719Q346 719 357.0 712.0Q368 705 375 687L623 47Q629 31 622.5 19.5Q616 8 602 3Q587 -2 573.5 1.5Q560 5 554 22L479 221H179L103 21Q97 5 84.0 1.5Q71 -2 56 3Q42 8 36.5 19.0Q31 30 37 46L286 687Q293 705 304.5 712.0Q316 719 331 719ZM330 632Q319 596 307.0 560.5Q295 525 278 483L202 283H457L383 483Q367 524 354.0 561.0Q341 598 330 632Z" transform="translate(198.572 66.130) scale(0.011000 -0.011000)"/><path d="M128 719Q143 719 154.0 712.0Q165 705 165 689V30Q165 14 154.0 7.0Q143 0 128 0Q114 0 103.0 7.0Q92 14 92 30V689Q92 705 103.0 712.0Q114 719 128 719Z" transform="translate(205.832 66.130) scale(0.011000 -0.011000)"/><path d="M310 744Q324 744 335.5 737.0Q347 730 347 714V612Q347 561 364.0 524.5Q381 488 419 456Q456 426 489.0 400.5Q522 375 550 355Q562 347 563.0 333.5Q564 320 556 309Q548 299 536.0 295.5Q524 292 511 301Q488 317 456.5 341.5Q425 366 391 393Q353 424 334.0 447.5Q315 471 311 486H310Q306 470 287.0 446.0Q268 422 230 391Q196 363 162.5 337.5Q129 312 95 288Q82 279 69.5 282.0Q57 285 49 296Q41 306 41.5 320.0Q42 334 55 343Q94 371 129.0 397.5Q164 424 201 455Q239 487 256.0 523.0Q273 559 273 610V714Q273 730 284.5 737.0Q296 744 310 744ZM700 774Q714 774 725.5 767.0Q737 760 737 744V547H864Q878 547 884.0 537.5Q890 528 890 514Q890 501 884.0 491.5Q878 482 864 482H737V257Q737 241 725.5 234.0Q714 227 700 227Q686 227 675.0 234.0Q664 241 664 257V744Q664 760 675.0 767.0Q686 774 700 774ZM466 215Q600 215 672.0 168.5Q744 122 744 32Q744 -58 672.0 -104.5Q600 -151 466 -151Q332 -151 260.5 -104.5Q189 -58 189 32Q189 122 260.5 168.5Q332 215 466 215ZM466 155Q360 155 310.5 122.0Q261 89 261 32Q261 -25 310.5 -58.0Q360 -91 466 -91Q572 -91 622.0 -58.0Q672 -25 672 32Q672 89 622.0 122.0Q572 155 466 155Z" transform="translate(211.409 66.130) scale(0.011000 -0.011000)"/><path d="M477 723Q491 723 497.0 714.0Q503 705 503 692Q503 678 497.0 669.0Q491 660 477 660H172Q153 660 153 642V405Q153 394 157.0 390.5Q161 387 172 387Q283 387 375.0 392.5Q467 398 557 410Q569 412 577.0 404.5Q585 397 587 384Q589 370 583.5 359.5Q578 349 566 347Q527 341 483.5 336.5Q440 332 389.5 329.0Q339 326 279.5 324.5Q220 323 149 323Q110 323 95.0 337.5Q80 352 80 390V656Q80 694 95.0 708.5Q110 723 149 723H477ZM700 774Q714 774 725.5 767.0Q737 760 737 744V557H864Q878 557 884.0 547.5Q890 538 890 524Q890 511 884.0 501.5Q878 492 864 492H737V289Q737 273 725.5 266.0Q714 259 700 259Q686 259 675.0 266.0Q664 273 664 289V744Q664 760 675.0 767.0Q686 774 700 774ZM668 208Q707 208 722.0 193.5Q737 179 737 141V-66Q737 -104 722.0 -118.5Q707 -133 668 -133H249Q210 -133 195.0 -118.5Q180 -104 180 -66V141Q180 179 195.0 193.5Q210 208 249 208ZM272 146Q253 146 253 127V-52Q253 -71 272 -71H646Q665 -71 665 -52V127Q665 146 646 146Z" transform="translate(221.418 66.130) scale(0.011000 -0.011000)"/></g><path d="M290 18 H306 Q309 18 309 21 V31 Q309 34 306 34 H299 L294 38 V34 H290 Q287 34 287 31 V21 Q287 18 290 18Z" fill="none" stroke="#9AA4AD" stroke-width="1.6" stroke-linecap="round" stroke-linejoin="round" opacity="1"/><g fill="#9AA4AD" opacity="1"><path d="M427 705Q466 705 481.0 690.5Q496 676 496 638V509Q496 442 483.5 395.5Q471 349 433.0 307.0Q395 265 325.0 218.5Q255 172 140 105Q128 98 116.0 102.0Q104 106 96 117Q88 128 89.5 142.5Q91 157 103 164Q190 214 247.5 249.5Q305 285 341.0 314.0Q377 343 394.5 370.0Q412 397 418 430L104 412Q90 410 83.5 419.5Q77 429 76 442Q75 455 80.5 465.0Q86 475 100 476L424 491V504V623Q424 634 420.0 637.5Q416 641 405 641H126Q112 641 106.0 650.5Q100 660 100 673Q100 686 106.0 695.5Q112 705 126 705H427ZM750 774Q764 774 775.0 767.0Q786 760 786 744V-52Q786 -68 775.0 -75.0Q764 -82 750 -82Q736 -82 725.0 -75.0Q714 -68 714 -52V397H470V460H714V744Q714 760 725.0 767.0Q736 774 750 774Z" transform="translate(280.980 66.130) scale(0.011000 -0.011000)"/><path d="M683 731Q722 731 737.0 716.5Q752 702 752 664V433Q752 395 737.0 380.5Q722 366 683 366H227Q188 366 173.0 380.5Q158 395 158 433V664Q158 702 173.0 716.5Q188 731 227 731ZM250 668Q231 668 231 650V447Q231 429 250 429H660Q679 429 679 447V650Q679 668 660 668ZM847 242Q860 242 866.0 233.0Q872 224 872 211Q872 198 866.0 189.0Q860 180 847 180H636V-117Q636 -133 625.5 -140.0Q615 -147 601 -147Q587 -147 576.5 -140.0Q566 -133 566 -117V180H344V-117Q344 -133 333.5 -140.0Q323 -147 309 -147Q295 -147 284.5 -140.0Q274 -133 274 -117V180H63Q50 180 44.0 189.0Q38 198 38 211Q38 224 44.0 233.0Q50 242 63 242H847Z" transform="translate(290.990 66.130) scale(0.011000 -0.011000)"/><path d="M139 714Q154 714 165.0 707.0Q176 700 176 684V234Q176 215 195 215Q310 215 404.0 221.0Q498 227 587 239Q599 241 607.0 233.5Q615 226 617 212Q619 198 613.5 187.5Q608 177 596 175Q557 170 513.5 165.5Q470 161 418.5 158.0Q367 155 306.0 153.5Q245 152 172 152Q133 152 118.0 166.5Q103 181 103 219V684Q103 700 114.0 707.0Q125 714 139 714ZM743 774Q757 774 768.5 767.0Q780 760 780 744V-52Q780 -68 768.5 -75.0Q757 -82 743 -82Q729 -82 718.0 -75.0Q707 -68 707 -52V744Q707 760 718.0 767.0Q729 774 743 774Z" transform="translate(301.000 66.130) scale(0.011000 -0.011000)"/><path d="M503 711Q517 711 523.0 702.0Q529 693 529 680Q529 666 523.0 657.0Q517 648 503 648H191Q172 648 172 630V460H493Q507 460 513.0 451.0Q519 442 519 429Q519 416 513.0 407.0Q507 398 493 398H172V223Q172 205 191 205Q309 205 403.5 210.5Q498 216 587 229Q599 231 607.0 223.5Q615 216 617 202Q619 188 613.5 177.5Q608 167 596 165Q557 160 513.5 155.5Q470 151 418.0 148.0Q366 145 305.0 143.5Q244 142 169 142Q130 142 115.0 156.5Q100 171 100 209V644Q100 682 115.0 696.5Q130 711 169 711H503ZM743 774Q757 774 768.5 767.0Q780 760 780 744V-52Q780 -68 768.5 -75.0Q757 -82 743 -82Q729 -82 718.0 -75.0Q707 -68 707 -52V744Q707 760 718.0 767.0Q729 774 743 774Z" transform="translate(311.010 66.130) scale(0.011000 -0.011000)"/></g><circle cx="387" cy="26" r="3.2" fill="none" stroke="#9AA4AD" stroke-width="1.8" opacity="1"/><line x1="394.0" y1="26.0" x2="397.0" y2="26.0" stroke="#9AA4AD" stroke-width="2" stroke-linecap="round" opacity="1"/><line x1="391.9497474683058" y1="30.94974746830583" x2="394.0710678118655" y2="33.071067811865476" stroke="#9AA4AD" stroke-width="2" stroke-linecap="round" opacity="1"/><line x1="387.0" y1="33.0" x2="387.0" y2="36.0" stroke="#9AA4AD" stroke-width="2" stroke-linecap="round" opacity="1"/><line x1="382.0502525316942" y1="30.949747468305834" x2="379.9289321881345" y2="33.071067811865476" stroke="#9AA4AD" stroke-width="2" stroke-linecap="round" opacity="1"/><line x1="380.0" y1="26.0" x2="377.0" y2="26.0" stroke="#9AA4AD" stroke-width="2" stroke-linecap="round" opacity="1"/><line x1="382.0502525316942" y1="21.05025253169417" x2="379.9289321881345" y2="18.928932188134524" stroke="#9AA4AD" stroke-width="2" stroke-linecap="round" opacity="1"/><line x1="387.0" y1="19.0" x2="387.0" y2="16.0" stroke="#9AA4AD" stroke-width="2" stroke-linecap="round" opacity="1"/><line x1="391.9497474683058" y1="21.050252531694166" x2="394.0710678118655" y2="18.928932188134524" stroke="#9AA4AD" stroke-width="2" stroke-linecap="round" opacity="1"/><circle cx="387" cy="26" r="8" fill="none" stroke="#9AA4AD" stroke-width="1.5" opacity="1"/><g fill="#9AA4AD" opacity="1"><path d="M322 754Q336 754 347.5 747.0Q359 740 359 724V628Q359 578 374.5 546.5Q390 515 428 487Q466 459 496.5 437.5Q527 416 557 396Q570 388 571.0 374.5Q572 361 565 350Q558 340 545.5 336.5Q533 333 521 341Q496 358 466.0 378.5Q436 399 400 426Q360 455 343.0 475.0Q326 495 323 510H322Q319 494 301.5 473.0Q284 452 244 423Q208 397 173.0 372.5Q138 348 105 327Q92 319 80.0 322.5Q68 326 60 337Q53 348 54.0 361.5Q55 375 68 383Q106 408 141.5 432.5Q177 457 215 485Q253 514 269.0 545.5Q285 577 285 626V724Q285 740 296.0 747.0Q307 754 322 754ZM750 774Q764 774 775.0 767.0Q786 760 786 744V336Q786 320 775.0 313.0Q764 306 750 306Q736 306 725.0 313.0Q714 320 714 336V546H535Q522 546 516.0 555.0Q510 564 510 578Q510 591 516.0 600.5Q522 610 535 610H714V744Q714 760 725.0 767.0Q736 774 750 774ZM717 256Q756 256 771.0 241.5Q786 227 786 189V97Q786 59 771.0 44.5Q756 30 717 30H307Q297 30 292.5 26.5Q288 23 288 12V-59Q288 -78 307 -78H786Q798 -78 804.0 -87.0Q810 -96 810 -108Q810 -120 804.0 -129.0Q798 -138 786 -138H286Q247 -138 232.0 -123.5Q217 -109 217 -71V22Q217 60 232.0 74.5Q247 89 286 89H696Q707 89 711.0 92.5Q715 96 715 107V178Q715 196 696 196H239Q227 196 221.0 205.0Q215 214 215 226Q215 238 221.0 247.0Q227 256 239 256H717Z" transform="translate(376.990 66.130) scale(0.011000 -0.011000)"/><path d="M542 720Q555 720 561.0 711.0Q567 702 567 689Q567 675 561.0 666.0Q555 657 542 657H361V586Q361 534 377.0 499.5Q393 465 431 434Q469 405 502.5 380.0Q536 355 559 338Q572 328 573.0 315.5Q574 303 566 292Q559 282 547.0 278.0Q535 274 521 284Q503 296 471.0 320.0Q439 344 404 371Q365 403 347.0 424.5Q329 446 325 462H324Q320 445 302.0 423.0Q284 401 244 369Q209 341 174.5 315.5Q140 290 111 270Q98 261 86.0 265.0Q74 269 66 279Q58 290 58.5 303.0Q59 316 73 325Q109 351 144.0 377.0Q179 403 217 433Q255 464 271.0 498.5Q287 533 287 584V657H100Q87 657 81.0 666.0Q75 675 75 689Q75 702 81.0 711.0Q87 720 100 720H542ZM750 774Q764 774 775.0 767.0Q786 760 786 744V257Q786 241 775.0 234.0Q764 227 750 227Q736 227 725.0 234.0Q714 241 714 257V475H543Q530 475 524.0 484.0Q518 493 518 507Q518 520 524.0 529.5Q530 539 543 539H714V744Q714 760 725.0 767.0Q736 774 750 774ZM508 215Q645 215 719.0 168.5Q793 122 793 32Q793 -58 719.0 -104.5Q645 -151 508 -151Q371 -151 297.5 -104.5Q224 -58 224 32Q224 122 297.5 168.5Q371 215 508 215ZM508 155Q399 155 347.5 122.0Q296 89 296 32Q296 -25 347.5 -58.0Q399 -91 508 -91Q617 -91 669.0 -58.0Q721 -25 721 32Q721 89 669.0 122.0Q617 155 508 155Z" transform="translate(387.000 66.130) scale(0.011000 -0.011000)"/></g></svg>