<svg xmlns="http://www.w3.org/2000/svg" width="430" height="88" viewBox="0 0 430 88" role="img" aria-label="Bottom nav home"><title>Bottom nav home</title><rect x="0" y="0" width="430" height="88" rx="0" fill="#fff" stroke-width="1" opacity="1"/><line x1="0" y1="1" x2="430" y2="1" stroke="#E1E8E4" stroke-width="1" stroke-linecap="round" opacity="1"/><path d="M34 25 L43 17 L52 25 V35 H46 V29 H40 V35 H34Z" fill="none" stroke="#2FA86A" stroke-width="1.8" stroke-linecap="round" stroke-linejoin="round" opacity="1"/><g fill="#2FA86A" opacity="1"><path d="M455 805Q475 805 490.5 795.0Q506 785 506 764V712H771Q788 712 796.0 700.0Q804 688 804 672Q804 657 796.0 645.0Q788 633 771 633H139Q122 633 114.0 645.0Q106 657 106 672Q106 688 114.0 700.0Q122 712 139 712H404V764Q404 785 419.5 795.0Q435 805 455 805ZM455 589Q519 589 569.5 581.5Q620 574 655.0 558.0Q690 542 708.5 517.5Q727 493 727 459Q727 425 708.5 400.5Q690 376 655.0 360.5Q620 345 569.5 337.5Q519 330 455 330Q327 330 255.0 360.5Q183 391 183 459Q183 527 255.0 558.0Q327 589 455 589ZM455 516Q363 516 321.5 502.0Q280 488 280 459Q280 430 321.5 416.5Q363 403 455 403Q547 403 588.5 416.5Q630 430 630 459Q630 488 588.5 502.0Q547 516 455 516ZM504 264H842Q859 264 867.0 252.5Q875 241 875 225Q875 209 867.0 197.5Q859 186 842 186H68Q51 186 43.0 197.5Q35 209 35 225Q35 241 43.0 252.5Q51 264 68 264H406V368H504ZM681 126Q725 126 741.5 110.0Q758 94 758 51V-68Q758 -111 741.5 -127.0Q725 -143 681 -143H229Q185 -143 169.0 -127.0Q153 -111 153 -68V51Q153 94 169.0 110.0Q185 126 229 126ZM270 48Q249 48 249 28V-44Q249 -65 270 -65H640Q661 -65 661 -44V28Q661 48 640 48Z" transform="translate(37.995 66.130) scale(0.011000 -0.011000)"/></g><path d="M120 36 V22 H138 V36 M118 22 H140 M124 22 V19 Q129 13 134 19 V22" fill="none" stroke="#9AA4AD" stroke-width="1.7" stroke-linecap="round" stroke-linejoin="round" opacity="1"/><g fill="#9AA4AD" opacity="1"><path d="M113 741Q127 741 138.0 734.0Q149 727 149 712V599H418V712Q418 727 429.0 734.0Q440 741 454 741Q468 741 479.0 734.0Q490 727 490 712V415Q490 377 475.0 362.5Q460 348 421 348H146Q107 348 92.0 362.5Q77 377 77 415V712Q77 727 88.0 734.0Q99 741 113 741ZM149 427Q149 416 153.0 412.5Q157 409 168 409H399Q410 409 414.0 412.5Q418 416 418 427V538H149ZM700 774Q714 774 725.5 767.0Q737 760 737 744V576H864Q878 576 884.0 566.5Q890 557 890 543Q890 530 884.0 520.5Q878 511 864 511H737V330Q737 314 725.5 307.0Q714 300 700 300Q686 300 675.0 307.0Q664 314 664 330V744Q664 760 675.0 767.0Q686 774 700 774ZM727 244Q739 244 745.0 235.0Q751 226 751 214Q751 202 745.0 193.0Q739 184 727 184H271Q252 184 252 166V83H717Q729 83 735.0 74.0Q741 65 741 53Q741 41 735.0 32.5Q729 24 717 24H252V-59Q252 -78 271 -78H737Q749 -78 755.0 -87.0Q761 -96 761 -108Q761 -120 755.0 -129.0Q749 -138 737 -138H251Q212 -138 197.0 -123.5Q182 -109 182 -71V177Q182 215 197.0 229.5Q212 244 251 244H727Z" transform="translate(112.610 66.130) scale(0.011000 -0.011000)"/><path d="M473 719Q512 719 527.0 704.5Q542 690 542 652V588Q542 542 537.0 500.5Q532 459 521 422Q517 408 505.0 402.5Q493 397 477 400Q463 404 455.5 414.0Q448 424 452 438Q461 476 465.5 512.5Q470 549 470 591V637Q470 648 465.5 651.5Q461 655 451 655H126Q112 655 106.0 664.5Q100 674 100 687Q100 701 106.0 710.0Q112 719 126 719H473ZM718 774Q732 774 743.0 767.0Q754 760 754 744V488H868Q882 488 888.0 478.5Q894 469 894 456Q894 442 888.0 432.5Q882 423 868 423H754V120Q754 104 743.0 97.0Q732 90 718 90Q704 90 693.0 97.0Q682 104 682 120V744Q682 760 693.0 767.0Q704 774 718 774ZM259 516Q273 516 284.5 509.0Q296 502 296 486V307Q366 309 439.0 313.0Q512 317 590 324Q601 325 608.5 317.5Q616 310 617 296Q618 283 612.5 273.5Q607 264 595 262Q462 251 332.0 247.0Q202 243 63 243Q49 243 43.0 252.0Q37 261 37 274Q37 287 43.0 296.0Q49 305 63 305Q103 305 143.0 305.0Q183 305 224 306V486Q224 502 234.5 509.0Q245 516 259 516ZM213 151Q227 151 238.5 144.0Q250 137 250 120V-47Q250 -66 269 -66H755Q768 -66 774.0 -75.0Q780 -84 780 -97Q780 -110 774.0 -119.0Q768 -128 755 -128H245Q206 -128 191.0 -113.5Q176 -99 176 -61V120Q176 137 187.5 144.0Q199 151 213 151Z" transform="translate(125.370 66.130) scale(0.011000 -0.011000)"/><path d="M431 711Q470 711 485.0 696.5Q500 682 500 644V459Q500 421 485.0 406.5Q470 392 431 392H191Q172 392 172 374V209Q172 191 191 191Q309 191 403.5 196.5Q498 202 587 215Q599 217 607.0 209.0Q615 201 617 188Q619 174 613.5 163.5Q608 153 596 151Q557 146 513.5 141.5Q470 137 418.0 134.0Q366 131 305.0 129.5Q244 128 169 128Q130 128 115.0 142.5Q100 157 100 195V386Q100 424 115.0 438.5Q130 453 169 453H409Q428 453 428 472V630Q428 648 409 648H125Q112 648 106.0 657.0Q100 666 100 680Q100 693 106.0 702.0Q112 711 125 711H431ZM743 774Q757 774 768.5 767.0Q780 760 780 744V-52Q780 -68 768.5 -75.0Q757 -82 743 -82Q729 -82 718.0 -75.0Q707 -68 707 -52V744Q707 760 718.0 767.0Q729 774 743 774Z" transform="translate(135.380 66.130) scale(0.011000 -0.011000)"/></g><path d="M206 18 H224 Q226 18 226 20 V30 Q226 32 224 32 H216 L210 37 V32 H206 Q204 32 204 30 V20 Q204 18 206 18Z" fill="none" stroke="#9AA4AD" stroke-width="1.8" stroke-linecap="round" stroke-linejoin="round" opacity="1"/><circle cx="211" cy="25" r="1.3" fill="#9AA4AD" stroke-width="1" opacity="1"/><circle cx="215" cy="25" r="1.3" fill="#9AA4AD" stroke-width="1" opacity="1"/><circle cx="219" cy="25" r="1.3" fill="#9AA4AD" stroke-width="1" opacity="1"/><g fill="#9AA4AD" opacity="1"><path d="M331 719Q346 719 357.0 712.0Q368 705 375 687L623 47Q629 31 622.5 19.5Q616 8 602 3Q587 -2 573.5 1.5Q560 5 554 22L479 221H179L103 21Q97 5 84.0 1.5Q71 -2 56 3Q42 8 36.5 19.0Q31 30 37 46L286 687Q293 705 304.5 712.0Q316 719 331 719ZM330 632Q319 596 307.0 560.5Q295 525 278 483L202 283H457L383 483Q367 524 354.0 561.0Q341 598 330 632Z" transform="translate(198.572 66.130) scale(0.011000 -0.011000)"/><path d="M128 719Q143 719 154.0 712.0Q165 705 165 689V30Q165 14 154.0 7.0Q143 0 128 0Q114 0 103.0 7.0Q92 14 92 30V689Q92 705 103.0 712.0Q114 719 128 719Z" transform="translate(205.832 66.130) scale(0.011000 -0.011000)"/><path d="M310 744Q324 744 335.5 737.0Q347 730 347 714V612Q347 561 364.0 524.5Q381 488 419 456Q456 426 489.0 400.5Q522 375 550 355Q562 347 563.0 333.5Q564 320 556 309Q548 299 536.0 295.5Q524 292 511 301Q488 317 456.5 341.5Q425 366 391 393Q353 424 334.0 447.5Q315 471 311 486H310Q306 470 287.0 446.0Q268 422 230 391Q196 363 162.5 337.5Q129 312 95 288Q82 279 69.5 282.0Q57 285 49 296Q41 306 41.5 320.0Q42 334 55 343Q94 371 129.0 397.5Q164 424 201 455Q239 487 256.0 523.0Q273 559 273 610V714Q273 730 284.5 737.0Q296 744 310 744ZM700 774Q714 774 725.5 767.0Q737 760 737 744V547H864Q878 547 884.0 537.5Q890 528 890 514Q890 501 884.0 491.5Q878 482 864 482H737V257Q737 241 725.5 234.0Q714 227 700 227Q686 227 675.0 234.0Q664 241 664 257V744Q664 760 675.0 767.0Q686 774 700 774ZM466 215Q600 215 672.0 168.5Q744 122 744 32Q744 -58 672.0 -104.5Q600 -151 466 -151Q332 -151 260.5 -104.5Q189 -58 189 32Q189 122 260.5 168.5Q332 215 466 215ZM466 155Q360 155 310.5 122.0Q261 89 261 32Q261 -25 310.5 -58.0Q360 -91 466 -91Q572 -91 622.0 -58.0Q672 -25 672 32Q672 89 622.0 122.0Q572 155 466 155Z" transform="translate(211.409 66.130) scale(0.011000 -0.011000)"/><path d="M477 723Q491 723 497.0 714.0Q503 705 503 692Q503 678 497.0 669.0Q491 660 477 660H172Q153 660 153 642V405Q153 394 157.0 390.5Q161 387 172 387Q283 387 375.0 392.5Q467 398 557 410Q569 412 577.0 404.5Q585 397 587 384Q589 370 583.5 359.5Q578 349 566 347Q527 341 483.5 336.5Q440 332 389.5 329.0Q339 326 279.5 324.5Q220 323 149 323Q110 323 95.0 337.5Q80 352 80 390V656Q80 694 95.0 708.5Q110 723 149 723H477ZM700 774Q714 774 725.5 767.0Q737 760 737 744V557H864Q878 557 884.0 547.5Q890 538 890 524Q890 511 884.0 501.5Q878 492 864 492H737V289Q737 273 725.5 266.0Q714 259 700 259Q686 259 675.0 266.0Q664 273 664 289V744Q664 760 675.0 767.0Q686 774 700 774ZM668 208Q707 208 722.0 193.5Q737 179 737 141V-66Q737 -104 722.0 -118.5Q707 -133 668 -133H249Q210 -133 195.0 -118.5Q180 -104 180 -66V141Q180 179 195.0 193.5Q210 208 249 208ZM272 146Q253 146 253 127V-52Q253 -71 272 -71H646Q665 -71 665 -52V127Q665 146 646 146Z" transform="translate(221.418 66.130) scale(0.011000 -0.011000)"/></g><path d="M290 18 H306 Q309 18 309 21 V31 Q309 34 306 34 H299 L294 38 V34 H290 Q287 34 287 31 V21 Q287 18 290 18Z" fill="none" stroke="#9AA4AD" stroke-width="1.6" stroke-linecap="round" stroke-linejoin="round" opacity="1"/><g fill="#9AA4AD" opacity="1"><path d="M427 705Q466 705 481.0 690.5Q496 676 496 638V509Q496 442 483.5 395.5Q471 349 433.0 307.0Q395 265 325.0 218.5Q255 172 140 105Q128 98 116.0 102.0Q104 106 96 117Q88 128 89.5 142.5Q91 157 103 164Q190 214 247.5 249.5Q305 285 341.0 314.0Q377 343 394.5 370.0Q412 397 418 430L104 412Q90 410 83.5 419.5Q77 429 76 442Q75 455 80.5 465.0Q86 475 100 476L424 491V504V623Q424 634 420.0 637.5Q416 641 405 641H126Q112 641 106.0 650.5Q100 660 100 673Q100 686 106.0 695.5Q112 705 126 705H427ZM750 774Q764 774 775.0 767.0Q786 760 786 744V-52Q786 -68 775.0 -75.0Q764 -82 750 -82Q736 -82 725.0 -75.0Q714 -68 714 -52V397H470V460H714V744Q714 760 725.0 767.0Q736 774 750 774Z" transform="translate(280.980 66.130) scale(0.011000 -0.011000)"/><path d="M683 731Q722 731 737.0 716.5Q752 702 752 664V433Q752 395 737.0 380.5Q722 366 683 366H227Q188 366 173.0 380.5Q158 395 158 433V664Q158 702 173.0 716.5Q188 731 227 731ZM250 668Q231 668 231 650V447Q231 429 250 429H660Q679 429 679 447V650Q679 668 660 668ZM847 242Q860 242 866.0 233.0Q872 224 872 211Q872 198 866.0 189.0Q860 180 847 180H636V-117Q636 -133 625.5 -140.0Q615 -147 601 -147Q587 -147 576.5 -140.0Q566 -133 566 -117V180H344V-117Q344 -133 333.5 -140.0Q323 -147 309 -147Q295 -147 284.5 -140.0Q274 -133 274 -117V180H63Q50 180 44.0 189.0Q38 198 38 211Q38 224 44.0 233.0Q50 242 63 242H847Z" transform="translate(290.990 66.130) scale(0.011000 -0.011000)"/><path d="M139 714Q154 714 165.0 707.0Q176 700 176 684V234Q176 215 195 215Q310 215 404.0 221.0Q498 227 587 239Q599 241 607.0 233.5Q615 226 617 212Q619 198 613.5 187.5Q608 177 596 175Q557 170 513.5 165.5Q470 161 418.5 158.0Q367 155 306.0 153.5Q245 152 172 152Q133 152 118.0 166.5Q103 181 103 219V684Q103 700 114.0 707.0Q125 714 139 714ZM743 774Q757 774 768.5 767.0Q780 760 780 744V-52Q780 -68 768.5 -75.0Q757 -82 743 -82Q729 -82 718.0 -75.0Q707 -68 707 -52V744Q707 760 718.0 767.0Q729 774 743 774Z" transform="translate(301.000 66.130) scale(0.011000 -0.011000)"/><path d="M503 711Q517 711 523.0 702.0Q529 693 529 680Q529 666 523.0 657.0Q517 648 503 648H191Q172 648 172 630V460H493Q507 460 513.0 451.0Q519 442 519 429Q519 416 513.0 407.0Q507 398 493 398H172V223Q172 205 191 205Q309 205 403.5 210.5Q498 216 587 229Q599 231 607.0 223.5Q615 216 617 202Q619 188 613.5 177.5Q608 167 596 165Q557 160 513.5 155.5Q470 151 418.0 148.0Q366 145 305.0 143.5Q244 142 169 142Q130 142 115.0 156.5Q100 171 100 209V644Q100 682 115.0 696.5Q130 711 169 711H503ZM743 774Q757 774 768.5 767.0Q780 760 780 744V-52Q780 -68 768.5 -75.0Q757 -82 743 -82Q729 -82 718.0 -75.0Q707 -68 707 -52V744Q707 760 718.0 767.0Q729 774 743 774Z" transform="translate(311.010 66.130) scale(0.011000 -0.011000)"/></g><circle cx="387" cy="26" r="3.2" fill="none" stroke="#9AA4AD" stroke-width="1.8" opacity="1"/><line x1="394.0" y1="26.0" x2="397.0" y2="26.0" stroke="#9AA4AD" stroke-width="2" stroke-linecap="round" opacity="1"/><line x1="391.9497474683058" y1="30.94974746830583" x2="394.0710678118655" y2="33.071067811865476" stroke="#9AA4AD" stroke-width="2" stroke-linecap="round" opacity="1"/><line x1="387.0" y1="33.0" x2="387.0" y2="36.0" stroke="#9AA4AD" stroke-width="2" stroke-linecap="round" opacity="1"/><line x1="382.0502525316942" y1="30.949747468305834" x2="379.9289321881345" y2="33.071067811865476" stroke="#9AA4AD" stroke-width="2" stroke-linecap="round" opacity="1"/><line x1="380.0" y1="26.0" x2="377.0" y2="26.0" stroke="#9AA4AD" stroke-width="2" stroke-linecap="round" opacity="1"/><line x1="382.0502525316942" y1="21.05025253169417" x2="379.9289321881345" y2="18.928932188134524" stroke="#9AA4AD" stroke-width="2" stroke-linecap="round" opacity="1"/><line x1="387.0" y1="19.0" x2="387.0" y2="16.0" stroke="#9AA4AD" stroke-width="2" stroke-linecap="round" opacity="1"/><line x1="391.9497474683058" y1="21.050252531694166" x2="394.0710678118655" y2="18.928932188134524" stroke="#9AA4AD" stroke-width="2" stroke-linecap="round" opacity="1"/><circle cx="387" cy="26" r="8" fill="none" stroke="#9AA4AD" stroke-width="1.5" opacity="1"/><g fill="#9AA4AD" opacity="1"><path d="M322 754Q336 754 347.5 747.0Q359 740 359 724V628Q359 578 374.5 546.5Q390 515 428 487Q466 459 496.5 437.5Q527 416 557 396Q570 388 571.0 374.5Q572 361 565 350Q558 340 545.5 336.5Q533 333 521 341Q496 358 466.0 378.5Q436 399 400 426Q360 455 343.0 475.0Q326 495 323 510H322Q319 494 301.5 473.0Q284 452 244 423Q208 397 173.0 372.5Q138 348 105 327Q92 319 80.0 322.5Q68 326 60 337Q53 348 54.0 361.5Q55 375 68 383Q106 408 141.5 432.5Q177 457 215 485Q253 514 269.0 545.5Q285 577 285 626V724Q285 740 296.0 747.0Q307 754 322 754ZM750 774Q764 774 775.0 767.0Q786 760 786 744V336Q786 320 775.0 313.0Q764 306 750 306Q736 306 725.0 313.0Q714 320 714 336V546H535Q522 546 516.0 555.0Q510 564 510 578Q510 591 516.0 600.5Q522 610 535 610H714V744Q714 760 725.0 767.0Q736 774 750 774ZM717 256Q756 256 771.0 241.5Q786 227 786 189V97Q786 59 771.0 44.5Q756 30 717 30H307Q297 30 292.5 26.5Q288 23 288 12V-59Q288 -78 307 -78H786Q798 -78 804.0 -87.0Q810 -96 810 -108Q810 -120 804.0 -129.0Q798 -138 786 -138H286Q247 -138 232.0 -123.5Q217 -109 217 -71V22Q217 60 232.0 74.5Q247 89 286 89H696Q707 89 711.0 92.5Q715 96 715 107V178Q715 196 696 196H239Q227 196 221.0 205.0Q215 214 215 226Q215 238 221.0 247.0Q227 256 239 256H717Z" transform="translate(376.990 66.130) scale(0.011000 -0.011000)"/><path d="M542 720Q555 720 561.0 711.0Q567 702 567 689Q567 675 561.0 666.0Q555 657 542 657H361V586Q361 534 377.0 499.5Q393 465 431 434Q469 405 502.5 380.0Q536 355 559 338Q572 328 573.0 315.5Q574 303 566 292Q559 282 547.0 278.0Q535 274 521 284Q503 296 471.0 320.0Q439 344 404 371Q365 403 347.0 424.5Q329 446 325 462H324Q320 445 302.0 423.0Q284 401 244 369Q209 341 174.5 315.5Q140 290 111 270Q98 261 86.0 265.0Q74 269 66 279Q58 290 58.5 303.0Q59 316 73 325Q109 351 144.0 377.0Q179 403 217 433Q255 464 271.0 498.5Q287 533 287 584V657H100Q87 657 81.0 666.0Q75 675 75 689Q75 702 81.0 711.0Q87 720 100 720H542ZM750 774Q764 774 775.0 767.0Q786 760 786 744V257Q786 241 775.0 234.0Q764 227 750 227Q736 227 725.0 234.0Q714 241 714 257V475H543Q530 475 524.0 484.0Q518 493 518 507Q518 520 524.0 529.5Q530 539 543 539H714V744Q714 760 725.0 767.0Q736 774 750 774ZM508 215Q645 215 719.0 168.5Q793 122 793 32Q793 -58 719.0 -104.5Q645 -151 508 -151Q371 -151 297.5 -104.5Q224 -58 224 32Q224 122 297.5 168.5Q371 215 508 215ZM508 155Q399 155 347.5 122.0Q296 89 296 32Q296 -25 347.5 -58.0Q399 -91 508 -91Q617 -91 669.0 -58.0Q721 -25 721 32Q721 89 669.0 122.0Q617 155 508 155Z" transform="translate(387.000 66.130) scale(0.011000 -0.011000)"/></g></svg>