<svg xmlns="http://www.w3.org/2000/svg" width="430" height="88" viewBox="0 0 430 88" role="img" aria-label="Bottom nav ai"><title>Bottom nav ai</title><rect x="0" y="0" width="430" height="88" rx="0" fill="#fff" stroke-width="1" opacity="1"/><line x1="0" y1="1" x2="430" y2="1" stroke="#E1E8E4" stroke-width="1" stroke-linecap="round" opacity="1"/><path d="M34 25 L43 17 L52 25 V35 H46 V29 H40 V35 H34Z" fill="none" stroke="#9AA4AD" stroke-width="1.8" stroke-linecap="round" stroke-linejoin="round" opacity="1"/><g fill="#9AA4AD" opacity="1"><path d="M455 801Q469 801 480.5 794.0Q492 787 492 771V705H776Q788 705 794.0 696.0Q800 687 800 675Q800 663 794.0 654.0Q788 645 776 645H134Q122 645 116.0 654.0Q110 663 110 675Q110 687 116.0 696.0Q122 705 134 705H418V771Q418 787 429.5 794.0Q441 801 455 801ZM455 588Q580 588 649.5 557.5Q719 527 719 461Q719 395 649.5 364.0Q580 333 455 333Q330 333 260.5 364.0Q191 395 191 461Q191 527 260.5 557.5Q330 588 455 588ZM455 532Q262 532 262 461Q262 390 455 390Q648 390 648 461Q648 532 455 532ZM491 254H848Q860 254 866.0 245.0Q872 236 872 224Q872 213 866.0 204.0Q860 195 848 195H62Q50 195 44.0 204.0Q38 213 38 224Q38 236 44.0 245.0Q50 254 62 254H419V360H491ZM680 120Q719 120 734.0 105.5Q749 91 749 53V-70Q749 -108 734.0 -122.5Q719 -137 680 -137H230Q191 -137 176.0 -122.5Q161 -108 161 -70V53Q161 91 176.0 105.5Q191 120 230 120ZM251 61Q232 61 232 43V-60Q232 -79 251 -79H659Q678 -79 678 -60V43Q678 61 659 61Z" transform="translate(37.995 66.130) scale(0.011000 -0.011000)"/></g><path d="M120 36 V22 H138 V36 M118 22 H140 M124 22 V19 Q129 13 134 19 V22" fill="none" stroke="#9AA4AD" stroke-width="1.7" stroke-linecap="round" stroke-linejoin="round" opacity="1"/><g fill="#9AA4AD" opacity="1"><path d="M113 741Q127 741 138.0 734.0Q149 727 149 712V599H418V712Q418 727 429.0 734.0Q440 741 454 741Q468 741 479.0 734.0Q490 727 490 712V415Q490 377 475.0 362.5Q460 348 421 348H146Q107 348 92.0 362.5Q77 377 77 415V712Q77 727 88.0 734.0Q99 741 113 741ZM149 427Q149 416 153.0 412.5Q157 409 168 409H399Q410 409 414.0 412.5Q418 416 418 427V538H149ZM700 774Q714 774 725.5 767.0Q737 760 737 744V576H864Q878 576 884.0 566.5Q890 557 890 543Q890 530 884.0 520.5Q878 511 864 511H737V330Q737 314 725.5 307.0Q714 300 700 300Q686 300 675.0 307.0Q664 314 664 330V744Q664 760 675.0 767.0Q686 774 700 774ZM727 244Q739 244 745.0 235.0Q751 226 751 214Q751 202 745.0 193.0Q739 184 727 184H271Q252 184 252 166V83H717Q729 83 735.0 74.0Q741 65 741 53Q741 41 735.0 32.5Q729 24 717 24H252V-59Q252 -78 271 -78H737Q749 -78 755.0 -87.0Q761 -96 761 -108Q761 -120 755.0 -129.0Q749 -138 737 -138H251Q212 -138 197.0 -123.5Q182 -109 182 -71V177Q182 215 197.0 229.5Q212 244 251 244H727Z" transform="translate(112.610 66.130) scale(0.011000 -0.011000)"/><path d="M473 719Q512 719 527.0 704.5Q542 690 542 652V588Q542 542 537.0 500.5Q532 459 521 422Q517 408 505.0 402.5Q493 397 477 400Q463 404 455.5 414.0Q448 424 452 438Q461 476 465.5 512.5Q470 549 470 591V637Q470 648 465.5 651.5Q461 655 451 655H126Q112 655 106.0 664.5Q100 674 100 687Q100 701 106.0 710.0Q112 719 126 719H473ZM718 774Q732 774 743.0 767.0Q754 760 754 744V488H868Q882 488 888.0 478.5Q894 469 894 456Q894 442 888.0 432.5Q882 423 868 423H754V120Q754 104 743.0 97.0Q732 90 718 90Q704 90 693.0 97.0Q682 104 682 120V744Q682 760 693.0 767.0Q704 774 718 774ZM259 516Q273 516 284.5 509.0Q296 502 296 486V307Q366 309 439.0 313.0Q512 317 590 324Q601 325 608.5 317.5Q616 310 617 296Q618 283 612.5 273.5Q607 264 595 262Q462 251 332.0 247.0Q202 243 63 243Q49 243 43.0 252.0Q37 261 37 274Q37 287 43.0 296.0Q49 305 63 305Q103 305 143.0 305.0Q183 305 224 306V486Q224 502 234.5 509.0Q245 516 259 516ZM213 151Q227 151 238.5 144.0Q250 137 250 120V-47Q250 -66 269 -66H755Q768 -66 774.0 -75.0Q780 -84 780 -97Q780 -110 774.0 -119.0Q768 -128 755 -128H245Q206 -128 191.0 -113.5Q176 -99 176 -61V120Q176 137 187.5 144.0Q199 151 213 151Z" transform="translate(125.370 66.130) scale(0.011000 -0.011000)"/><path d="M431 711Q470 711 485.0 696.5Q500 682 500 644V459Q500 421 485.0 406.5Q470 392 431 392H191Q172 392 172 374V209Q172 191 191 191Q309 191 403.5 196.5Q498 202 587 215Q599 217 607.0 209.0Q615 201 617 188Q619 174 613.5 163.5Q608 153 596 151Q557 146 513.5 141.5Q470 137 418.0 134.0Q366 131 305.0 129.5Q244 128 169 128Q130 128 115.0 142.5Q100 157 100 195V386Q100 424 115.0 438.5Q130 453 169 453H409Q428 453 428 472V630Q428 648 409 648H125Q112 648 106.0 657.0Q100 666 100 680Q100 693 106.0 702.0Q112 711 125 711H431ZM743 774Q757 774 768.5 767.0Q780 760 780 744V-52Q780 -68 768.5 -75.0Q757 -82 743 -82Q729 -82 718.0 -75.0Q707 -68 707 -52V744Q707 760 718.0 767.0Q729 774 743 774Z" transform="translate(135.380 66.130) scale(0.011000 -0.011000)"/></g><path d="M206 18 H224 Q226 18 226 20 V30 Q226 32 224 32 H216 L210 37 V32 H206 Q204 32 204 30 V20 Q204 18 206 18Z" fill="#2FA86A" stroke-width="1" stroke-linecap="round" stroke-linejoin="round" opacity="1"/><circle cx="211" cy="25" r="1.3" fill="#fff" stroke-width="1" opacity="1"/><circle cx="215" cy="25" r="1.3" fill="#fff" stroke-width="1" opacity="1"/><circle cx="219" cy="25" r="1.3" fill="#fff" stroke-width="1" opacity="1"/><g fill="#2FA86A" opacity="1"><path d="M337 720Q357 720 372.5 710.5Q388 701 398 675L635 64Q643 42 634.5 25.5Q626 9 607 3Q587 -3 568.0 1.5Q549 6 540 31L474 210H197L129 28Q121 5 103.5 0.5Q86 -4 66 3Q47 10 39.0 24.5Q31 39 39 61L277 675Q287 701 302.0 710.5Q317 720 337 720ZM336 597Q326 564 316.0 534.5Q306 505 292 467L227 294H444L380 467Q366 505 355.5 536.0Q345 567 336 597Z" transform="translate(198.401 66.130) scale(0.011000 -0.011000)"/><path d="M136 720Q156 720 171.5 710.0Q187 700 187 678V41Q187 19 171.5 9.0Q156 -1 136 -1Q116 -1 101.0 9.0Q86 19 86 41V678Q86 700 101.0 710.0Q116 720 136 720Z" transform="translate(205.826 66.130) scale(0.011000 -0.011000)"/><path d="M308 748Q328 748 343.5 738.0Q359 728 359 706V614Q359 566 374.5 531.5Q390 497 425 467Q460 438 491.0 414.0Q522 390 547 372Q564 360 564.5 342.5Q565 325 554 311Q544 297 527.0 291.5Q510 286 493 299Q473 313 444.0 335.5Q415 358 383 384Q345 414 329.5 434.0Q314 454 310 469H309Q305 452 288.0 431.0Q271 410 234 380Q202 354 171.5 330.0Q141 306 109 283Q92 271 74.5 276.5Q57 282 47 295Q37 309 37.0 327.5Q37 346 55 359Q90 385 123.0 410.0Q156 435 191 464Q226 494 241.5 528.5Q257 563 257 612V706Q257 728 272.5 738.0Q288 748 308 748ZM696 778Q716 778 731.0 768.0Q746 758 746 736V557H856Q876 557 884.5 544.0Q893 531 893 514Q893 495 884.5 482.5Q876 470 856 470H746V271Q746 250 731.0 240.0Q716 230 696 230Q676 230 661.0 240.0Q646 250 646 271V736Q646 758 661.0 768.0Q676 778 696 778ZM465 221Q602 221 676.5 173.5Q751 126 751 32Q751 -62 676.5 -109.5Q602 -157 465 -157Q328 -157 253.5 -109.5Q179 -62 179 32Q179 126 253.5 173.5Q328 221 465 221ZM465 140Q366 140 322.0 110.5Q278 81 278 32Q278 -18 322.0 -47.0Q366 -76 465 -76Q564 -76 608.0 -47.0Q652 -18 652 32Q652 82 608.0 111.0Q564 140 465 140Z" transform="translate(211.579 66.130) scale(0.011000 -0.011000)"/><path d="M504 686Q504 669 495.5 656.0Q487 643 469 643H193Q172 643 172 623V423Q172 411 177.0 406.5Q182 402 193 402Q292 402 377.0 407.0Q462 412 543 423Q560 425 570.5 414.5Q581 404 583 387Q585 369 578.5 355.0Q572 341 555 339Q520 334 479.5 330.0Q439 326 390.0 323.0Q341 320 281.5 318.5Q222 317 149 317Q105 317 88.5 333.0Q72 349 72 392V654Q72 697 88.5 713.0Q105 729 149 729H469Q487 729 495.5 716.0Q504 703 504 686ZM696 778Q716 778 731.0 768.0Q746 758 746 736V567H856Q876 567 884.5 554.0Q893 541 893 524Q893 505 884.5 492.5Q876 480 856 480H746V299Q746 277 731.0 267.0Q716 257 696 257Q676 257 661.0 267.0Q646 277 646 299V736Q646 758 661.0 768.0Q676 778 696 778ZM669 214Q713 214 729.5 198.0Q746 182 746 139V-64Q746 -107 729.5 -123.0Q713 -139 669 -139H249Q205 -139 188.5 -123.0Q172 -107 172 -64V139Q172 182 188.5 198.0Q205 214 249 214ZM292 130Q271 130 271 109V-34Q271 -55 292 -55H626Q647 -55 647 -34V109Q647 130 626 130Z" transform="translate(221.589 66.130) scale(0.011000 -0.011000)"/></g><path d="M290 18 H306 Q309 18 309 21 V31 Q309 34 306 34 H299 L294 38 V34 H290 Q287 34 287 31 V21 Q287 18 290 18Z" fill="none" stroke="#9AA4AD" stroke-width="1.6" stroke-linecap="round" stroke-linejoin="round" opacity="1"/><g fill="#9AA4AD" opacity="1"><path d="M427 705Q466 705 481.0 690.5Q496 676 496 638V509Q496 442 483.5 395.5Q471 349 433.0 307.0Q395 265 325.0 218.5Q255 172 140 105Q128 98 116.0 102.0Q104 106 96 117Q88 128 89.5 142.5Q91 157 103 164Q190 214 247.5 249.5Q305 285 341.0 314.0Q377 343 394.5 370.0Q412 397 418 430L104 412Q90 410 83.5 419.5Q77 429 76 442Q75 455 80.5 465.0Q86 475 100 476L424 491V504V623Q424 634 420.0 637.5Q416 641 405 641H126Q112 641 106.0 650.5Q100 660 100 673Q100 686 106.0 695.5Q112 705 126 705H427ZM750 774Q764 774 775.0 767.0Q786 760 786 744V-52Q786 -68 775.0 -75.0Q764 -82 750 -82Q736 -82 725.0 -75.0Q714 -68 714 -52V397H470V460H714V744Q714 760 725.0 767.0Q736 774 750 774Z" transform="translate(280.980 66.130) scale(0.011000 -0.011000)"/><path d="M683 731Q722 731 737.0 716.5Q752 702 752 664V433Q752 395 737.0 380.5Q722 366 683 366H227Q188 366 173.0 380.5Q158 395 158 433V664Q158 702 173.0 716.5Q188 731 227 731ZM250 668Q231 668 231 650V447Q231 429 250 429H660Q679 429 679 447V650Q679 668 660 668ZM847 242Q860 242 866.0 233.0Q872 224 872 211Q872 198 866.0 189.0Q860 180 847 180H636V-117Q636 -133 625.5 -140.0Q615 -147 601 -147Q587 -147 576.5 -140.0Q566 -133 566 -117V180H344V-117Q344 -133 333.5 -140.0Q323 -147 309 -147Q295 -147 284.5 -140.0Q274 -133 274 -117V180H63Q50 180 44.0 189.0Q38 198 38 211Q38 224 44.0 233.0Q50 242 63 242H847Z" transform="translate(290.990 66.130) scale(0.011000 -0.011000)"/><path d="M139 714Q154 714 165.0 707.0Q176 700 176 684V234Q176 215 195 215Q310 215 404.0 221.0Q498 227 587 239Q599 241 607.0 233.5Q615 226 617 212Q619 198 613.5 187.5Q608 177 596 175Q557 170 513.5 165.5Q470 161 418.5 158.0Q367 155 306.0 153.5Q245 152 172 152Q133 152 118.0 166.5Q103 181 103 219V684Q103 700 114.0 707.0Q125 714 139 714ZM743 774Q757 774 768.5 767.0Q780 760 780 744V-52Q780 -68 768.5 -75.0Q757 -82 743 -82Q729 -82 718.0 -75.0Q707 -68 707 -52V744Q707 760 718.0 767.0Q729 774 743 774Z" transform="translate(301.000 66.130) scale(0.011000 -0.011000)"/><path d="M503 711Q517 711 523.0 702.0Q529 693 529 680Q529 666 523.0 657.0Q517 648 503 648H191Q172 648 172 630V460H493Q507 460 513.0 451.0Q519 442 519 429Q519 416 513.0 407.0Q507 398 493 398H172V223Q172 205 191 205Q309 205 403.5 210.5Q498 216 587 229Q599 231 607.0 223.5Q615 216 617 202Q619 188 613.5 177.5Q608 167 596 165Q557 160 513.5 155.5Q470 151 418.0 148.0Q366 145 305.0 143.5Q244 142 169 142Q130 142 115.0 156.5Q100 171 100 209V644Q100 682 115.0 696.5Q130 711 169 711H503ZM743 774Q757 774 768.5 767.0Q780 760 780 744V-52Q780 -68 768.5 -75.0Q757 -82 743 -82Q729 -82 718.0 -75.0Q707 -68 707 -52V744Q707 760 718.0 767.0Q729 774 743 774Z" transform="translate(311.010 66.130) scale(0.011000 -0.011000)"/></g><circle cx="387" cy="26" r="3.2" fill="none" stroke="#9AA4AD" stroke-width="1.8" opacity="1"/><line x1="394.0" y1="26.0" x2="397.0" y2="26.0" stroke="#9AA4AD" stroke-width="2" stroke-linecap="round" opacity="1"/><line x1="391.9497474683058" y1="30.94974746830583" x2="394.0710678118655" y2="33.071067811865476" stroke="#9AA4AD" stroke-width="2" stroke-linecap="round" opacity="1"/><line x1="387.0" y1="33.0" x2="387.0" y2="36.0" stroke="#9AA4AD" stroke-width="2" stroke-linecap="round" opacity="1"/><line x1="382.0502525316942" y1="30.949747468305834" x2="379.9289321881345" y2="33.071067811865476" stroke="#9AA4AD" stroke-width="2" stroke-linecap="round" opacity="1"/><line x1="380.0" y1="26.0" x2="377.0" y2="26.0" stroke="#9AA4AD" stroke-width="2" stroke-linecap="round" opacity="1"/><line x1="382.0502525316942" y1="21.05025253169417" x2="379.9289321881345" y2="18.928932188134524" stroke="#9AA4AD" stroke-width="2" stroke-linecap="round" opacity="1"/><line x1="387.0" y1="19.0" x2="387.0" y2="16.0" stroke="#9AA4AD" stroke-width="2" stroke-linecap="round" opacity="1"/><line x1="391.9497474683058" y1="21.050252531694166" x2="394.0710678118655" y2="18.928932188134524" stroke="#9AA4AD" stroke-width="2" stroke-linecap="round" opacity="1"/><circle cx="387" cy="26" r="8" fill="none" stroke="#9AA4AD" stroke-width="1.5" opacity="1"/><g fill="#9AA4AD" opacity="1"><path d="M322 754Q336 754 347.5 747.0Q359 740 359 724V628Q359 578 374.5 546.5Q390 515 428 487Q466 459 496.5 437.5Q527 416 557 396Q570 388 571.0 374.5Q572 361 565 350Q558 340 545.5 336.5Q533 333 521 341Q496 358 466.0 378.5Q436 399 400 426Q360 455 343.0 475.0Q326 495 323 510H322Q319 494 301.5 473.0Q284 452 244 423Q208 397 173.0 372.5Q138 348 105 327Q92 319 80.0 322.5Q68 326 60 337Q53 348 54.0 361.5Q55 375 68 383Q106 408 141.5 432.5Q177 457 215 485Q253 514 269.0 545.5Q285 577 285 626V724Q285 740 296.0 747.0Q307 754 322 754ZM750 774Q764 774 775.0 767.0Q786 760 786 744V336Q786 320 775.0 313.0Q764 306 750 306Q736 306 725.0 313.0Q714 320 714 336V546H535Q522 546 516.0 555.0Q510 564 510 578Q510 591 516.0 600.5Q522 610 535 610H714V744Q714 760 725.0 767.0Q736 774 750 774ZM717 256Q756 256 771.0 241.5Q786 227 786 189V97Q786 59 771.0 44.5Q756 30 717 30H307Q297 30 292.5 26.5Q288 23 288 12V-59Q288 -78 307 -78H786Q798 -78 804.0 -87.0Q810 -96 810 -108Q810 -120 804.0 -129.0Q798 -138 786 -138H286Q247 -138 232.0 -123.5Q217 -109 217 -71V22Q217 60 232.0 74.5Q247 89 286 89H696Q707 89 711.0 92.5Q715 96 715 107V178Q715 196 696 196H239Q227 196 221.0 205.0Q215 214 215 226Q215 238 221.0 247.0Q227 256 239 256H717Z" transform="translate(376.990 66.130) scale(0.011000 -0.011000)"/><path d="M542 720Q555 720 561.0 711.0Q567 702 567 689Q567 675 561.0 666.0Q555 657 542 657H361V586Q361 534 377.0 499.5Q393 465 431 434Q469 405 502.5 380.0Q536 355 559 338Q572 328 573.0 315.5Q574 303 566 292Q559 282 547.0 278.0Q535 274 521 284Q503 296 471.0 320.0Q439 344 404 371Q365 403 347.0 424.5Q329 446 325 462H324Q320 445 302.0 423.0Q284 401 244 369Q209 341 174.5 315.5Q140 290 111 270Q98 261 86.0 265.0Q74 269 66 279Q58 290 58.5 303.0Q59 316 73 325Q109 351 144.0 377.0Q179 403 217 433Q255 464 271.0 498.5Q287 533 287 584V657H100Q87 657 81.0 666.0Q75 675 75 689Q75 702 81.0 711.0Q87 720 100 720H542ZM750 774Q764 774 775.0 767.0Q786 760 786 744V257Q786 241 775.0 234.0Q764 227 750 227Q736 227 725.0 234.0Q714 241 714 257V475H543Q530 475 524.0 484.0Q518 493 518 507Q518 520 524.0 529.5Q530 539 543 539H714V744Q714 760 725.0 767.0Q736 774 750 774ZM508 215Q645 215 719.0 168.5Q793 122 793 32Q793 -58 719.0 -104.5Q645 -151 508 -151Q371 -151 297.5 -104.5Q224 -58 224 32Q224 122 297.5 168.5Q371 215 508 215ZM508 155Q399 155 347.5 122.0Q296 89 296 32Q296 -25 347.5 -58.0Q399 -91 508 -91Q617 -91 669.0 -58.0Q721 -25 721 32Q721 89 669.0 122.0Q617 155 508 155Z" transform="translate(387.000 66.130) scale(0.011000 -0.011000)"/></g></svg>