<svg xmlns="http://www.w3.org/2000/svg" width="280" height="330" viewBox="0 0 280 330" role="img" aria-label="Landing hand"><title>Landing hand</title><defs><linearGradient id="landing-hand-skin" x1="0%" y1="0%" x2="100%" y2="100%"><stop offset="0%" stop-color="#FFE3D1" stop-opacity="1"/><stop offset="100%" stop-color="#F6B48E" stop-opacity="1"/></linearGradient></defs><path d="M48 328 C30 276 40 228 66 204 C81 190 87 167 89 136 C91 105 106 89 123 96 C139 103 133 132 131 151 C147 112 161 101 174 108 C189 117 169 149 162 166 C180 134 195 130 207 140 C220 152 198 178 187 194 C205 174 222 176 231 188 C242 204 220 227 203 244 C180 268 172 301 169 328Z" fill="url(#landing-hand-skin)" stroke-width="1" stroke-linecap="round" stroke-linejoin="round" opacity="1"/><path d="M95 137 Q110 151 130 151 M161 166 Q174 178 186 194" fill="none" stroke="#E99B74" stroke-width="4" stroke-linecap="round" stroke-linejoin="round" opacity="0.45"/></svg>