<svg xmlns="http://www.w3.org/2000/svg" width="250" height="160" viewBox="0 0 250 160" role="img" aria-label="Farm house and tree"><title>Farm house and tree</title><defs>
<linearGradient id="gGreen" x1="0" y1="0" x2="1" y2="1"><stop offset="0" stop-color="#4CC48B"/><stop offset="1" stop-color="#1E5E3E"/></linearGradient>
<linearGradient id="gMint" x1="0" y1="0" x2="1" y2="1"><stop offset="0" stop-color="#F6FFF8"/><stop offset="1" stop-color="#E9F7EC"/></linearGradient>
<linearGradient id="gBlue" x1="0" y1="0" x2="1" y2="1"><stop offset="0" stop-color="#DDF6FF"/><stop offset="1" stop-color="#8ED7F4"/></linearGradient>
<linearGradient id="gYellow" x1="0" y1="0" x2="1" y2="1"><stop offset="0" stop-color="#FFF8D8"/><stop offset="1" stop-color="#FFE1A4"/></linearGradient>
<filter id="shadow" x="-30%" y="-30%" width="160%" height="160%"><feDropShadow dx="0" dy="6" stdDeviation="8" flood-color="#103A26" flood-opacity=".11"/></filter>
<filter id="shadowSmall" x="-30%" y="-30%" width="160%" height="160%"><feDropShadow dx="0" dy="3" stdDeviation="4" flood-color="#103A26" flood-opacity=".09"/></filter>
</defs><rect x="70" y="76" width="92" height="62" rx="6" fill="#FFF9EC" stroke="none" stroke-width="1" opacity="1"/><path d="M58 80 L116 34 L176 80 Z" fill="#F28A5B" stroke="none" stroke-width="1" stroke-linecap="round" stroke-linejoin="round" opacity="1"/><rect x="108" y="101" width="22" height="37" rx="4" fill="#6DAA84" stroke="none" stroke-width="1" opacity="1"/><rect x="78" y="94" width="19" height="19" rx="3" fill="#A6E0F0" stroke="none" stroke-width="1" opacity="1"/><rect x="140" y="94" width="19" height="19" rx="3" fill="#A6E0F0" stroke="none" stroke-width="1" opacity="1"/><rect x="188" y="63" width="22" height="76" rx="8" fill="#7A4F2B" stroke="none" stroke-width="1" opacity="1"/><circle cx="199" cy="54" r="34" fill="#4FAE66" stroke="none" stroke-width="1" opacity="1"/><circle cx="217" cy="72" r="28" fill="#59B76C" stroke="none" stroke-width="1" opacity="1"/><circle cx="181" cy="73" r="28" fill="#3B9C59" stroke="none" stroke-width="1" opacity="1"/></svg>