<svg xmlns="http://www.w3.org/2000/svg" width="250" height="380" viewBox="0 0 250 380" role="img" aria-label="Landing phone"><title>Landing phone</title><defs><linearGradient id="landing-phone-screen" x1="0%" y1="0%" x2="100%" y2="100%"><stop offset="0%" stop-color="#FFFFFF" stop-opacity="1"/><stop offset="100%" stop-color="#F5FBF7" stop-opacity="1"/></linearGradient></defs><rect x="32" y="12" width="186" height="348" rx="22" fill="url(#landing-phone-screen)" stroke="#2FA86A" stroke-width="4" opacity="1"/><circle cx="125" cy="28" r="4" fill="#E1E8E4" stroke-width="1" opacity="1"/><circle cx="58" cy="76" r="12" fill="#E9F7EC" stroke-width="1" opacity="1"/><path d="M49.7 83.0 C49.7 72.2 56.9 67.7 65.9 68.6 C65.9 77.6 61.4 83.9 49.7 83.0Z" fill="#2FA86A" stroke-width="1" stroke-linecap="round" stroke-linejoin="round" opacity="1"/><path d="M52.4 81.2 Q57.8 75.8 63.2 71.3" fill="none" stroke="#fff" stroke-width="1.26" stroke-linecap="round" stroke-linejoin="round" opacity="0.75"/><g fill="#1F2937" opacity="1"><path d="M759 682Q759 665 750.5 652.5Q742 640 724 640H268Q256 640 251.5 635.5Q247 631 247 619V525H714Q732 525 740.5 513.0Q749 501 749 484Q749 468 740.5 455.5Q732 443 714 443H247V348Q247 337 251.5 332.5Q256 328 268 328H741Q759 328 767.5 315.0Q776 302 776 285Q776 268 767.5 255.5Q759 243 741 243H226Q182 243 165.5 259.0Q149 275 149 318V650Q149 693 165.5 709.0Q182 725 226 725H724Q742 725 750.5 712.0Q759 699 759 682ZM505 86H840Q858 86 866.5 73.5Q875 61 875 44Q875 27 866.5 14.0Q858 1 840 1H70Q52 1 43.5 14.0Q35 27 35 44Q35 61 43.5 73.5Q52 86 70 86H405V286H505Z" transform="translate(82.000 80.940) scale(0.018000 -0.018000)"/><path d="M282 741Q340 741 383.5 724.0Q427 707 456.0 677.0Q485 647 499.5 606.5Q514 566 514 519Q514 471 499.5 430.5Q485 390 456.0 360.0Q427 330 383.5 313.0Q340 296 282 296Q224 296 180.5 313.0Q137 330 108.0 360.0Q79 390 64.5 430.5Q50 471 50 519Q50 566 64.5 606.5Q79 647 108.0 677.0Q137 707 180.5 724.0Q224 741 282 741ZM282 657Q245 657 219.5 646.0Q194 635 177.5 616.5Q161 598 153.5 572.5Q146 547 146 519Q146 490 153.5 465.0Q161 440 177.5 421.0Q194 402 219.5 391.0Q245 380 282 380Q319 380 344.5 391.0Q370 402 386.5 421.0Q403 440 410.5 465.0Q418 490 418 519Q418 547 410.5 572.5Q403 598 386.5 616.5Q370 635 344.5 646.0Q319 657 282 657ZM696 778Q716 778 731.0 768.0Q746 758 746 736V643H850Q867 643 875.5 630.0Q884 617 884 600Q884 583 875.5 570.0Q867 557 850 557H746V472H850Q867 472 875.5 459.0Q884 446 884 429Q884 412 875.5 399.0Q867 386 850 386H746V271Q746 250 731.0 240.0Q716 230 696 230Q676 230 661.0 240.0Q646 250 646 271V736Q646 758 661.0 768.0Q676 778 696 778ZM465 221Q602 221 676.5 173.5Q751 126 751 32Q751 -62 676.5 -109.5Q602 -157 465 -157Q328 -157 253.5 -109.5Q179 -62 179 32Q179 126 253.5 173.5Q328 221 465 221ZM465 140Q366 140 322.0 110.5Q278 81 278 32Q278 -18 322.0 -47.0Q366 -76 465 -76Q564 -76 608.0 -47.0Q652 -18 652 32Q652 82 608.0 111.0Q564 140 465 140Z" transform="translate(98.380 80.940) scale(0.018000 -0.018000)"/><path d="M199 757Q218 757 233.0 747.0Q248 737 248 716V642H662V716Q662 737 677.0 747.0Q692 757 710 757Q729 757 744.5 747.0Q760 737 760 716V465Q760 422 743.5 406.0Q727 390 683 390H227Q183 390 167.0 406.0Q151 422 151 465V716Q151 737 166.0 747.0Q181 757 199 757ZM248 488Q248 473 264 473H646Q662 473 662 488V560H248ZM875 260Q875 243 866.5 231.0Q858 219 840 219H516V88Q516 68 501.5 59.0Q487 50 466 50Q446 50 431.5 59.0Q417 68 417 88V219H70Q52 219 43.5 231.0Q35 243 35 260Q35 277 43.5 290.0Q52 303 70 303H840Q858 303 866.5 290.0Q875 277 875 260ZM199 140Q219 140 234.0 130.0Q249 120 249 98V-30Q249 -51 270 -51H743Q761 -51 769.5 -63.5Q778 -76 778 -93Q778 -110 769.5 -123.0Q761 -136 743 -136H225Q181 -136 165.0 -120.0Q149 -104 149 -61V98Q149 120 164.0 130.0Q179 140 199 140Z" transform="translate(119.260 80.940) scale(0.018000 -0.018000)"/><path d="M319 748Q339 748 354.5 738.0Q370 728 370 706V608Q370 560 385.0 526.0Q400 492 435 462Q470 433 501.0 409.0Q532 385 556 368Q573 356 573.5 338.5Q574 321 563 307Q553 294 536.0 288.0Q519 282 501 295Q482 309 453.5 331.5Q425 354 393 380Q356 409 340.5 428.5Q325 448 321 463H320Q316 446 299.5 425.5Q283 405 247 375Q215 349 184.0 325.0Q153 301 122 279Q105 267 87.5 272.5Q70 278 60 291Q50 305 50.0 323.5Q50 342 68 355Q103 380 136.0 405.0Q169 430 204 459Q239 489 254.0 523.5Q269 558 269 606V706Q269 728 284.0 738.0Q299 748 319 748ZM746 778Q765 778 780.0 768.0Q795 758 795 736V279Q795 257 780.0 247.0Q765 237 746 237Q726 237 711.0 247.0Q696 257 696 279V508H544Q525 508 516.5 520.5Q508 533 508 550Q508 568 516.5 580.5Q525 593 544 593H696V736Q696 758 711.0 768.0Q726 778 746 778ZM718 194Q762 194 778.5 178.0Q795 162 795 119V-110Q795 -132 780.0 -142.0Q765 -152 745 -152Q725 -152 710.0 -142.0Q695 -132 695 -110V88Q695 108 674 108H225Q206 108 197.5 121.0Q189 134 189 151Q189 168 197.5 181.0Q206 194 225 194Z" transform="translate(135.640 80.940) scale(0.018000 -0.018000)"/></g><circle cx="58" cy="128" r="12" fill="#E9F7EC" stroke-width="1" opacity="1"/><path d="M49.7 135.0 C49.7 124.2 56.9 119.7 65.9 120.6 C65.9 129.6 61.4 135.9 49.7 135.0Z" fill="#7ED7F2" stroke-width="1" stroke-linecap="round" stroke-linejoin="round" opacity="1"/><path d="M52.4 133.2 Q57.8 127.8 63.2 123.3" fill="none" stroke="#fff" stroke-width="1.26" stroke-linecap="round" stroke-linejoin="round" opacity="0.75"/><g fill="#1F2937" opacity="1"><path d="M124 747Q144 747 159.5 737.0Q175 727 175 704V467Q175 447 196 447Q293 447 377.5 452.0Q462 457 543 468Q560 470 570.5 459.0Q581 448 583 431Q585 413 578.5 399.0Q572 385 555 383Q520 378 479.5 374.0Q439 370 390.0 367.0Q341 364 282.0 362.5Q223 361 151 361Q107 361 90.5 377.0Q74 393 74 436V704Q74 727 89.0 737.0Q104 747 124 747ZM696 778Q716 778 731.0 768.0Q746 758 746 736V589H856Q876 589 884.5 576.0Q893 563 893 546Q893 527 884.5 514.5Q876 502 856 502H746V348Q746 326 731.0 316.0Q716 306 696 306Q676 306 661.0 316.0Q646 326 646 348V736Q646 758 661.0 768.0Q676 778 696 778ZM669 263Q713 263 729.5 247.0Q746 231 746 188V96Q746 53 729.5 37.0Q713 21 669 21H292Q281 21 276.0 16.5Q271 12 271 0V-43Q271 -64 292 -64H735Q752 -64 760.0 -76.0Q768 -88 768 -104Q768 -120 760.0 -132.0Q752 -144 735 -144H251Q207 -144 190.5 -128.0Q174 -112 174 -69V23Q174 66 190.5 82.0Q207 98 251 98H627Q639 98 643.5 102.5Q648 107 648 119V162Q648 173 643.5 177.5Q639 182 627 182H205Q188 182 180.0 194.0Q172 206 172 223Q172 239 180.0 251.0Q188 263 205 263Z" transform="translate(82.000 132.940) scale(0.018000 -0.018000)"/><path d="M224 728Q242 728 256.0 718.0Q270 708 270 688V531Q270 477 278.0 439.0Q286 401 301 369Q311 349 319.0 333.0Q327 317 338 300Q348 283 354.0 283.0Q360 283 371 300Q382 317 390.0 333.0Q398 349 408 369Q423 401 430.5 439.0Q438 477 438 531V688Q438 708 452.5 718.0Q467 728 485 728Q503 728 517.5 718.0Q532 708 532 688V531Q532 474 542.0 429.5Q552 385 581 341Q599 312 619.0 283.0Q639 254 659 228Q671 212 667.5 196.0Q664 180 650 169Q638 158 620.0 157.0Q602 156 589 173Q571 197 555.5 219.5Q540 242 524 266Q506 293 496.5 314.0Q487 335 485 349H484Q482 335 472.5 312.0Q463 289 445 258Q431 235 417.5 214.5Q404 194 389 174Q373 152 354.5 152.0Q336 152 319 174Q292 213 264 258Q228 319 225 349H224Q219 317 186 265Q169 241 153.0 218.0Q137 195 117 168Q104 151 86.0 152.0Q68 153 56 163Q42 174 38.0 190.5Q34 207 46 224Q91 283 128 341Q157 385 167.0 429.5Q177 474 177 531V688Q177 708 191.0 718.0Q205 728 224 728ZM766 778Q784 778 798.5 768.0Q813 758 813 738V-46Q813 -66 798.5 -76.0Q784 -86 766 -86Q748 -86 733.5 -76.0Q719 -66 719 -46V738Q719 758 733.5 768.0Q748 778 766 778Z" transform="translate(98.380 132.940) scale(0.018000 -0.018000)"/><path d="M241 719Q344 719 392.0 645.0Q440 571 440 428Q440 285 392.0 211.0Q344 137 241 137Q138 137 90.0 211.0Q42 285 42 428Q42 571 90.0 645.0Q138 719 241 719ZM241 631Q182 631 158.0 579.5Q134 528 134 428Q134 328 158.0 276.5Q182 225 241 225Q300 225 324.0 276.5Q348 328 348 428Q348 528 324.0 579.5Q300 631 241 631ZM771 778Q789 778 803.5 768.5Q818 759 818 739V-47Q818 -67 803.5 -76.5Q789 -86 771 -86Q754 -86 739.5 -76.5Q725 -67 725 -47V739Q725 759 739.5 768.5Q754 778 771 778ZM595 768Q612 768 626.5 758.5Q641 749 641 729V-5Q641 -25 626.5 -34.5Q612 -44 595 -44Q578 -44 563.5 -34.5Q549 -25 549 -5V278H380V362H549V494H380V578H549V729Q549 749 563.5 758.5Q578 768 595 768Z" transform="translate(119.260 132.940) scale(0.018000 -0.018000)"/><path d="M198 736Q217 736 232.5 725.5Q248 715 248 694V575H662V694Q662 715 677.5 725.5Q693 736 711 736Q731 736 746.5 725.5Q762 715 762 694V341Q762 298 745.5 282.0Q729 266 685 266H225Q181 266 165.0 282.0Q149 298 149 341V694Q149 715 164.0 725.5Q179 736 198 736ZM248 371Q248 351 269 351H641Q662 351 662 371V490H248ZM505 86H840Q858 86 866.5 73.5Q875 61 875 44Q875 27 866.5 14.0Q858 1 840 1H70Q52 1 43.5 14.0Q35 27 35 44Q35 61 43.5 73.5Q52 86 70 86H405V319H505Z" transform="translate(135.640 132.940) scale(0.018000 -0.018000)"/></g><circle cx="58" cy="180" r="12" fill="#E9F7EC" stroke-width="1" opacity="1"/><path d="M49.7 187.0 C49.7 176.2 56.9 171.7 65.9 172.6 C65.9 181.6 61.4 187.9 49.7 187.0Z" fill="#4CC48B" stroke-width="1" stroke-linecap="round" stroke-linejoin="round" opacity="1"/><path d="M52.4 185.2 Q57.8 179.8 63.2 175.3" fill="none" stroke="#fff" stroke-width="1.26" stroke-linecap="round" stroke-linejoin="round" opacity="0.75"/><g fill="#1F2937" opacity="1"><path d="M567 683Q567 666 558.5 653.5Q550 641 532 641H372V587Q372 539 387.0 506.0Q402 473 438 444Q473 415 503.5 392.0Q534 369 557 353Q574 340 575.0 323.5Q576 307 565 292Q555 280 538.5 273.5Q522 267 503 280Q486 292 457.5 313.5Q429 335 397 361Q359 391 343.5 410.0Q328 429 324 444H323Q319 427 302.5 407.0Q286 387 248 356Q215 330 184.0 307.0Q153 284 124 264Q107 251 89.5 257.0Q72 263 63 276Q52 291 53.0 308.5Q54 326 71 339Q106 364 139.0 388.0Q172 412 207 441Q242 470 257.0 503.0Q272 536 272 585V641H105Q86 641 77.5 653.5Q69 666 69 683Q69 700 77.5 713.0Q86 726 105 726H532Q550 726 558.5 713.0Q567 700 567 683ZM746 778Q765 778 780.0 768.0Q795 758 795 736V279Q795 257 780.0 247.0Q765 237 746 237Q726 237 711.0 247.0Q696 257 696 279V464H552Q533 464 524.5 477.0Q516 490 516 507Q516 525 524.5 537.5Q533 550 552 550H696V736Q696 758 711.0 768.0Q726 778 746 778ZM718 194Q762 194 778.5 178.0Q795 162 795 119V-110Q795 -132 780.0 -142.0Q765 -152 745 -152Q725 -152 710.0 -142.0Q695 -132 695 -110V88Q695 108 674 108H225Q206 108 197.5 121.0Q189 134 189 151Q189 168 197.5 181.0Q206 194 225 194Z" transform="translate(82.000 184.940) scale(0.018000 -0.018000)"/><path d="M306 561Q406 561 462.5 519.5Q519 478 519 406Q519 334 462.5 292.0Q406 250 306 250Q206 250 149.5 292.0Q93 334 93 406Q93 478 149.5 519.5Q206 561 306 561ZM306 798Q326 798 341.0 788.0Q356 778 356 756V695H535Q553 695 561.5 682.5Q570 670 570 653Q570 636 561.5 623.5Q553 611 535 611H67Q49 611 40.5 623.5Q32 636 32 653Q32 670 40.5 682.5Q49 695 67 695H256V756Q256 778 271.5 788.0Q287 798 306 798ZM306 484Q246 484 214.5 462.5Q183 441 183 406Q183 371 214.5 349.5Q246 328 306 328Q367 328 398.0 349.5Q429 371 429 406Q429 441 398.0 462.5Q367 484 306 484ZM696 778Q716 778 731.0 768.0Q746 758 746 736V551H857Q876 551 884.5 538.0Q893 525 893 508Q893 490 884.5 477.0Q876 464 857 464H746V288Q746 267 731.0 257.0Q716 247 696 247Q677 247 662.0 257.0Q647 267 647 288V736Q647 758 662.0 768.0Q677 778 696 778ZM220 203Q238 203 253.0 193.5Q268 184 268 164V97H649V164Q649 184 664.5 193.5Q680 203 697 203Q716 203 731.0 193.5Q746 184 746 164V-64Q746 -107 729.5 -123.0Q713 -139 669 -139H249Q205 -139 188.5 -123.0Q172 -107 172 -64V164Q172 184 187.0 193.5Q202 203 220 203ZM268 -44Q268 -59 284 -59H634Q649 -59 649 -44V18H268Z" transform="translate(98.380 184.940) scale(0.018000 -0.018000)"/><path d="M758 679Q758 662 749.5 649.0Q741 636 723 636H270Q249 636 249 616V389Q249 369 270 369H733Q751 369 759.5 356.0Q768 343 768 326Q768 309 759.5 296.0Q751 283 733 283H225Q181 283 165.0 299.0Q149 315 149 358V647Q149 690 165.0 706.0Q181 722 225 722H723Q741 722 749.5 709.0Q758 696 758 679ZM505 86H840Q858 86 866.5 73.5Q875 61 875 44Q875 27 866.5 14.0Q858 1 840 1H70Q52 1 43.5 14.0Q35 27 35 44Q35 61 43.5 73.5Q52 86 70 86H405V319H505Z" transform="translate(114.760 184.940) scale(0.018000 -0.018000)"/><path d="M199 757Q218 757 233.0 747.0Q248 737 248 716V642H662V716Q662 737 677.0 747.0Q692 757 710 757Q729 757 744.5 747.0Q760 737 760 716V465Q760 422 743.5 406.0Q727 390 683 390H227Q183 390 167.0 406.0Q151 422 151 465V716Q151 737 166.0 747.0Q181 757 199 757ZM248 488Q248 473 264 473H646Q662 473 662 488V560H248ZM875 260Q875 243 866.5 231.0Q858 219 840 219H516V88Q516 68 501.5 59.0Q487 50 466 50Q446 50 431.5 59.0Q417 68 417 88V219H70Q52 219 43.5 231.0Q35 243 35 260Q35 277 43.5 290.0Q52 303 70 303H840Q858 303 866.5 290.0Q875 277 875 260ZM199 140Q219 140 234.0 130.0Q249 120 249 98V-30Q249 -51 270 -51H743Q761 -51 769.5 -63.5Q778 -76 778 -93Q778 -110 769.5 -123.0Q761 -136 743 -136H225Q181 -136 165.0 -120.0Q149 -104 149 -61V98Q149 120 164.0 130.0Q179 140 199 140Z" transform="translate(135.640 184.940) scale(0.018000 -0.018000)"/><path d="M319 748Q339 748 354.5 738.0Q370 728 370 706V608Q370 560 385.0 526.0Q400 492 435 462Q470 433 501.0 409.0Q532 385 556 368Q573 356 573.5 338.5Q574 321 563 307Q553 294 536.0 288.0Q519 282 501 295Q482 309 453.5 331.5Q425 354 393 380Q356 409 340.5 428.5Q325 448 321 463H320Q316 446 299.5 425.5Q283 405 247 375Q215 349 184.0 325.0Q153 301 122 279Q105 267 87.5 272.5Q70 278 60 291Q50 305 50.0 323.5Q50 342 68 355Q103 380 136.0 405.0Q169 430 204 459Q239 489 254.0 523.5Q269 558 269 606V706Q269 728 284.0 738.0Q299 748 319 748ZM746 778Q765 778 780.0 768.0Q795 758 795 736V279Q795 257 780.0 247.0Q765 237 746 237Q726 237 711.0 247.0Q696 257 696 279V508H544Q525 508 516.5 520.5Q508 533 508 550Q508 568 516.5 580.5Q525 593 544 593H696V736Q696 758 711.0 768.0Q726 778 746 778ZM718 194Q762 194 778.5 178.0Q795 162 795 119V-110Q795 -132 780.0 -142.0Q765 -152 745 -152Q725 -152 710.0 -142.0Q695 -132 695 -110V88Q695 108 674 108H225Q206 108 197.5 121.0Q189 134 189 151Q189 168 197.5 181.0Q206 194 225 194Z" transform="translate(152.020 184.940) scale(0.018000 -0.018000)"/></g><rect x="60" y="216" width="16" height="34" rx="4" fill="#2FA86A" stroke-width="1" opacity="1"/><rect x="88" y="196" width="16" height="54" rx="4" fill="#2FA86A" stroke-width="1" opacity="1"/><rect x="116" y="174" width="16" height="76" rx="4" fill="#2FA86A" stroke-width="1" opacity="1"/><rect x="144" y="145" width="16" height="105" rx="4" fill="#2FA86A" stroke-width="1" opacity="1"/><path d="M172 289 C168.6 272.76 178.12 261 194.44 261 C206 265.2 206 280.04 172 289Z" fill="#75C94A" stroke-width="1" stroke-linecap="round" stroke-linejoin="round" opacity="1" transform="rotate(18 189.0 275.0)"/><path d="M176.08 283.4 Q187.3 274.44 197.16 266.04" fill="none" stroke="#F4FFF6" stroke-width="1.36" stroke-linecap="round" stroke-linejoin="round" opacity="0.75" transform="rotate(18 189.0 275.0)"/></svg>