<svg xmlns="http://www.w3.org/2000/svg" width="180" height="170" viewBox="0 0 180 170" role="img" aria-label="Sprout in soil"><title>Sprout in soil</title><ellipse cx="90" cy="135" rx="52" ry="15" fill="#8B5A33" stroke-width="1" opacity="1"/><ellipse cx="90" cy="129" rx="43" ry="12" fill="#B77A45" stroke-width="1" opacity="1"/><path d="M90 130 C87 101 91 79 90 62" fill="none" stroke="#398F42" stroke-width="5" stroke-linecap="round" stroke-linejoin="round" opacity="1"/><path d="M39 93 C33.8 66.9 48.36 48 73.32 48 C91 54.75 91 78.6 39 93Z" fill="#54B84C" stroke-width="1" stroke-linecap="round" stroke-linejoin="round" opacity="1" transform="rotate(-20 65.0 70.5)"/><path d="M45.24 84.0 Q62.400000000000006 69.6 77.47999999999999 56.1" fill="none" stroke="#F4FFF6" stroke-width="2.08" stroke-linecap="round" stroke-linejoin="round" opacity="0.75" transform="rotate(-20 65.0 70.5)"/><path d="M88 83 C83.0 57.480000000000004 97.0 39 121.0 39 C138 45.6 138 68.92 88 83Z" fill="#3EA845" stroke-width="1" stroke-linecap="round" stroke-linejoin="round" opacity="1" transform="rotate(18 113.0 61.0)"/><path d="M94.0 74.2 Q110.5 60.12 125.0 46.92" fill="none" stroke="#F4FFF6" stroke-width="2.0" stroke-linecap="round" stroke-linejoin="round" opacity="0.75" transform="rotate(18 113.0 61.0)"/></svg>