<svg xmlns="http://www.w3.org/2000/svg" width="120" height="120" viewBox="0 0 120 120" role="img" aria-label="Mascot face basic"><title>Mascot face basic</title><defs><linearGradient id="face-basic-hood" x1="0%" y1="0%" x2="100%" y2="100%"><stop offset="0%" stop-color="#4CC48B" stop-opacity="1"/><stop offset="100%" stop-color="#1E5E3E" stop-opacity="1"/></linearGradient></defs><ellipse cx="60.400000000000006" cy="97.45" rx="16.43" ry="3.18" fill="#DDE8E1" stroke-width="1" opacity="0.8"/><ellipse cx="53.775" cy="94.80000000000001" rx="6.36" ry="2.3850000000000002" fill="#6C4930" stroke-width="1" opacity="1"/><ellipse cx="67.025" cy="94.80000000000001" rx="6.36" ry="2.3850000000000002" fill="#6C4930" stroke-width="1" opacity="1"/><rect x="50.86" y="83.67" width="5.83" height="11.13" rx="2.915" fill="#FFB04D" stroke-width="1" opacity="1"/><rect x="64.11" y="83.67" width="5.83" height="11.13" rx="2.915" fill="#FFB04D" stroke-width="1" opacity="1"/><path d="M45.56 61.940000000000005 Q60.400000000000006 54.52 75.24000000000001 61.940000000000005 L73.12 85.79 Q60.400000000000006 91.09 47.68 85.79Z" fill="#FFB04D" stroke-width="1" stroke-linecap="round" stroke-linejoin="round" opacity="1"/><path d="M49.535 65.65 Q60.400000000000006 60.35 71.265 65.65 L69.94 81.55 Q60.400000000000006 85.79 50.86 81.55Z" fill="#F5A916" stroke-width="1" stroke-linecap="round" stroke-linejoin="round" opacity="0.78"/><path d="M55.1 76.515 Q60.400000000000006 80.22500000000001 65.7 76.515 L65.17 83.935 Q60.400000000000006 86.58500000000001 55.63 83.935Z" fill="#FFC62F" stroke-width="1" stroke-linecap="round" stroke-linejoin="round" opacity="0.9"/><path d="M46.355000000000004 68.035 Q41.9825 65.51750000000001 37.61 63.0" fill="none" stroke="#FFB04D" stroke-width="5.300000000000001" stroke-linecap="round" stroke-linejoin="round" opacity="1"/><path d="M74.445 68.035 Q78.8175 65.51750000000001 83.19 63.0" fill="none" stroke="#FFB04D" stroke-width="5.300000000000001" stroke-linecap="round" stroke-linejoin="round" opacity="1"/><circle cx="37.61" cy="63.0" r="2.12" fill="#FFD8BF" stroke-width="1" opacity="1"/><circle cx="83.19" cy="63.0" r="2.12" fill="#FFD8BF" stroke-width="1" opacity="1"/><circle cx="60.400000000000006" cy="46.305" r="24.115000000000002" fill="url(#face-basic-hood)" stroke-width="1" opacity="1"/><path d="M44.765 48.160000000000004 C45.295 33.85 53.245000000000005 25.37 64.64 23.515 C54.305 26.43 47.68 34.644999999999996 46.885000000000005 47.365 C46.620000000000005 54.52 49.005 60.615 53.775 64.06 C47.415000000000006 61.145 44.235 54.785000000000004 44.765 48.160000000000004Z" fill="#0B6336" stroke-width="1" stroke-linecap="round" stroke-linejoin="round" opacity="0.28"/><path d="M56.425000000000004 22.72 C53.245000000000005 15.035 58.28 12.385 63.315000000000005 17.155 C63.315000000000005 22.455 59.605000000000004 24.84 56.425000000000004 22.72Z" fill="#2D8A43" stroke-width="1" stroke-linecap="round" stroke-linejoin="round" opacity="1"/><path d="M61.725 19.54 C66.76 13.18 71.795 16.095 71.53 21.395000000000003 C67.82 23.78 64.64 23.515 61.725 19.54Z" fill="#54B858" stroke-width="1" stroke-linecap="round" stroke-linejoin="round" opacity="1"/><circle cx="60.400000000000006" cy="48.160000000000004" r="16.96" fill="#FFF8EC" stroke-width="1" opacity="1"/><ellipse cx="50.595" cy="51.075" rx="2.6500000000000004" ry="1.4575" fill="#FF9E99" stroke-width="1" opacity="0.5"/><ellipse cx="70.20500000000001" cy="51.075" rx="2.6500000000000004" ry="1.4575" fill="#FF9E99" stroke-width="1" opacity="0.5"/><circle cx="54.57" cy="46.57" r="1.1925000000000001" fill="#1F2937" stroke-width="1" opacity="1"/><circle cx="66.23" cy="46.57" r="1.1925000000000001" fill="#1F2937" stroke-width="1" opacity="1"/><path d="M58.015 51.605000000000004 Q60.400000000000006 54.255 62.785000000000004 51.605000000000004" fill="none" stroke="#1F2937" stroke-width="0.795" stroke-linecap="round" stroke-linejoin="round" opacity="1"/><path d="M 34.165 41.27 C 36.165 40.39 37.165 41.39 36.285 43.39 C 37.165 45.39 36.165 46.39 34.165 45.51 C 32.165 46.39 31.165 45.39 32.045 43.39 C 31.165 41.39 32.165 40.39 34.165 41.27Z" fill="#FFD84D" stroke-width="1" stroke-linecap="round" stroke-linejoin="round" opacity="1"/><path d="M 87.43 45.775000000000006 C 89.43 44.63 90.43 45.63 89.28500000000001 47.63 C 90.43 49.63 89.43 50.63 87.43 49.485 C 85.43 50.63 84.43 49.63 85.575 47.63 C 84.43 45.63 85.43 44.63 87.43 45.775000000000006Z" fill="#7ED7F2" stroke-width="1" stroke-linecap="round" stroke-linejoin="round" opacity="1"/></svg>