<svg xmlns="http://www.w3.org/2000/svg" width="430" height="68" viewBox="0 0 430 68" role="img" aria-label="상추밭 물 주기"><title>상추밭 물 주기</title><rect x="1" y="1" width="428" height="66" rx="15" fill="#fff" stroke="#E1E8E4" stroke-width="1" opacity="1"/><path d="M28.8 33.72 C28.02 26.18 29.060000000000002 20.46 28.8 16.04" fill="none" stroke="#398F42" stroke-width="1.3" stroke-linecap="round" stroke-linejoin="round" opacity="1"/><path d="M15.54 24.1 C14.187999999999999 17.314 17.973599999999998 12.4 24.4632 12.4 C29.06 14.155000000000001 29.06 20.356 15.54 24.1Z" fill="#54B84C" stroke-width="1" stroke-linecap="round" stroke-linejoin="round" opacity="1" transform="rotate(-20 22.299999999999997 18.25)"/><path d="M17.162399999999998 21.76 Q21.624 18.016000000000002 25.5448 14.506" fill="none" stroke="#F4FFF6" stroke-width="1" stroke-linecap="round" stroke-linejoin="round" opacity="0.75" transform="rotate(-20 22.299999999999997 18.25)"/><path d="M28.28 21.5 C26.98 14.8648 30.62 10.06 36.86 10.06 C41.28 11.776 41.28 17.8392 28.28 21.5Z" fill="#3EA845" stroke-width="1" stroke-linecap="round" stroke-linejoin="round" opacity="1" transform="rotate(18 34.78 15.780000000000001)"/><path d="M29.84 19.212000000000003 Q34.13 15.551200000000001 37.9 12.119200000000001" fill="none" stroke="#F4FFF6" stroke-width="1" stroke-linecap="round" stroke-linejoin="round" opacity="0.75" transform="rotate(18 34.78 15.780000000000001)"/><g fill="#1F2937" opacity="1"><path d="M308 748Q328 748 343.5 738.0Q359 728 359 706V614Q359 566 374.5 531.5Q390 497 425 467Q460 438 491.0 414.0Q522 390 547 372Q564 360 564.5 342.5Q565 325 554 311Q544 297 527.0 291.5Q510 286 493 299Q473 313 444.0 335.5Q415 358 383 384Q345 414 329.5 434.0Q314 454 310 469H309Q305 452 288.0 431.0Q271 410 234 380Q202 354 171.5 330.0Q141 306 109 283Q92 271 74.5 276.5Q57 282 47 295Q37 309 37.0 327.5Q37 346 55 359Q90 385 123.0 410.0Q156 435 191 464Q226 494 241.5 528.5Q257 563 257 612V706Q257 728 272.5 738.0Q288 748 308 748ZM696 778Q716 778 731.0 768.0Q746 758 746 736V557H856Q876 557 884.5 544.0Q893 531 893 514Q893 495 884.5 482.5Q876 470 856 470H746V271Q746 250 731.0 240.0Q716 230 696 230Q676 230 661.0 240.0Q646 250 646 271V736Q646 758 661.0 768.0Q676 778 696 778ZM465 221Q602 221 676.5 173.5Q751 126 751 32Q751 -62 676.5 -109.5Q602 -157 465 -157Q328 -157 253.5 -109.5Q179 -62 179 32Q179 126 253.5 173.5Q328 221 465 221ZM465 140Q366 140 322.0 110.5Q278 81 278 32Q278 -18 322.0 -47.0Q366 -76 465 -76Q564 -76 608.0 -47.0Q652 -18 652 32Q652 82 608.0 111.0Q564 140 465 140Z" transform="translate(66.000 32.450) scale(0.015000 -0.015000)"/><path d="M455 790Q475 790 490.5 780.0Q506 770 506 748V689H745Q764 689 772.5 676.5Q781 664 781 646Q781 629 772.5 616.5Q764 604 745 604H505V589Q505 549 525.0 522.0Q545 495 589 475Q640 452 686.5 433.0Q733 414 778 397Q795 391 799.0 374.0Q803 357 796 340Q789 323 773.5 316.0Q758 309 741 316Q701 331 658.5 348.5Q616 366 575 384Q541 398 519.0 410.5Q497 423 484.0 434.5Q471 446 464.5 455.5Q458 465 456 474H455Q452 465 446.0 454.5Q440 444 426.5 433.0Q413 422 391.0 409.0Q369 396 336 382Q294 364 252.0 346.5Q210 329 170 314Q152 307 136.5 314.5Q121 322 114 339Q107 356 111.0 373.5Q115 391 132 397Q177 414 223.5 433.0Q270 452 321 475Q365 495 385.0 522.0Q405 549 405 589V604H165Q146 604 137.5 616.5Q129 629 129 646Q129 664 137.5 676.5Q146 689 165 689H404V748Q404 770 419.5 780.0Q435 790 455 790ZM875 201Q875 184 866.5 171.5Q858 159 840 159H505V-114Q505 -136 490.0 -146.0Q475 -156 455 -156Q435 -156 420.0 -146.0Q405 -136 405 -114V159H70Q52 159 43.5 171.5Q35 184 35 201Q35 218 43.5 231.0Q52 244 70 244H840Q858 244 866.5 231.0Q875 218 875 201Z" transform="translate(79.650 32.450) scale(0.015000 -0.015000)"/><path d="M118 747Q137 747 152.5 737.0Q168 727 168 705V609H398V705Q398 727 413.0 737.0Q428 747 447 747Q466 747 481.5 737.0Q497 727 497 705V415Q497 372 480.5 356.0Q464 340 420 340H146Q102 340 85.5 356.0Q69 372 69 415V705Q69 727 84.0 737.0Q99 747 118 747ZM168 442Q168 430 172.5 425.5Q177 421 189 421H377Q388 421 393.0 425.5Q398 430 398 442V528H168ZM696 778Q716 778 731.0 768.0Q746 758 746 736V586H856Q876 586 884.5 573.0Q893 560 893 543Q893 524 884.5 511.5Q876 499 856 499H746V342Q746 320 731.0 310.0Q716 300 696 300Q676 300 661.0 310.0Q646 320 646 342V736Q646 758 661.0 768.0Q676 778 696 778ZM758 211Q758 194 750.0 182.0Q742 170 725 170H290Q269 170 269 150V92H716Q733 92 740.5 80.5Q748 69 748 54Q748 38 740.5 26.5Q733 15 716 15H269V-43Q269 -64 290 -64H735Q752 -64 760.0 -76.0Q768 -88 768 -104Q768 -120 760.0 -132.0Q752 -144 735 -144H251Q207 -144 190.5 -128.0Q174 -112 174 -69V176Q174 219 190.5 235.0Q207 251 251 251H725Q742 251 750.0 239.0Q758 227 758 211Z" transform="translate(93.300 32.450) scale(0.015000 -0.015000)"/><path d="M683 757Q727 757 743.5 741.0Q760 725 760 682V533Q760 490 743.5 474.0Q727 458 683 458H227Q183 458 167.0 474.0Q151 490 151 533V682Q151 725 167.0 741.0Q183 757 227 757ZM271 676Q259 676 254.5 671.5Q250 667 250 655V560Q250 548 254.5 543.5Q259 539 271 539H639Q651 539 655.5 543.5Q660 548 660 560V655Q660 667 655.5 671.5Q651 676 639 676ZM875 348Q875 331 866.5 319.0Q858 307 841 307H504V182H406V307H69Q52 307 43.5 319.0Q35 331 35 348Q35 365 43.5 376.5Q52 388 69 388H841Q858 388 866.5 376.5Q875 365 875 348ZM761 150V76Q761 33 744.5 17.0Q728 1 684 1H261Q245 1 245 -14V-55Q245 -70 261 -70H750Q767 -70 775.0 -82.0Q783 -94 783 -109Q783 -125 775.0 -136.5Q767 -148 750 -148H225Q181 -148 164.5 -132.0Q148 -116 148 -73V1Q148 44 164.5 60.0Q181 76 225 76H648Q664 76 664 91V131Q664 147 648 147H178Q161 147 153.5 158.5Q146 170 146 186Q146 201 153.5 213.0Q161 225 178 225H684Q728 225 744.5 209.0Q761 193 761 150Z" transform="translate(110.700 32.450) scale(0.015000 -0.015000)"/><path d="M773 690Q773 673 764.5 660.5Q756 648 737 648H506V636Q506 612 510.0 594.0Q514 576 524.0 561.0Q534 546 551.5 533.0Q569 520 595 507Q645 481 688.0 460.5Q731 440 778 419Q795 411 798.0 394.5Q801 378 793 361Q785 344 769.5 337.0Q754 330 738 337Q687 360 645.0 380.0Q603 400 556 424Q503 451 481.5 471.0Q460 491 456 509H455Q450 489 429.0 469.0Q408 449 355 422Q307 398 265.0 378.0Q223 358 173 335Q156 328 140.5 335.5Q125 343 117 360Q108 377 111.5 394.0Q115 411 132 419Q179 440 222.0 460.5Q265 481 316 507Q342 520 359.0 533.0Q376 546 386.0 561.0Q396 576 400.0 594.0Q404 612 404 636V648H173Q154 648 145.5 660.5Q137 673 137 690Q137 708 145.5 720.5Q154 733 173 733H737Q756 733 764.5 720.5Q773 708 773 690ZM875 209Q875 192 866.5 179.5Q858 167 840 167H505V-114Q505 -136 490.0 -146.0Q475 -156 455 -156Q435 -156 420.0 -146.0Q405 -136 405 -114V167H70Q52 167 43.5 179.5Q35 192 35 209Q35 226 43.5 239.0Q52 252 70 252H840Q858 252 866.5 239.0Q875 226 875 209Z" transform="translate(128.100 32.450) scale(0.015000 -0.015000)"/><path d="M505 635V522Q505 480 500.0 446.5Q495 413 481.0 383.0Q467 353 442.0 324.5Q417 296 377.5 264.5Q338 233 282.0 196.0Q226 159 149 112Q132 102 115.0 108.5Q98 115 88 129Q78 143 78.5 162.0Q79 181 96 192Q167 235 217.5 267.5Q268 300 302.0 326.5Q336 353 356.5 375.5Q377 398 388.0 420.5Q399 443 402.0 468.5Q405 494 405 526V603Q405 614 400.5 618.5Q396 623 384 623H124Q105 623 96.5 636.0Q88 649 88 666Q88 684 96.5 697.0Q105 710 124 710H428Q472 710 488.5 694.0Q505 678 505 635ZM738 778Q758 778 773.5 768.0Q789 758 789 736V-44Q789 -66 773.5 -76.0Q758 -86 738 -86Q719 -86 703.5 -76.0Q688 -66 688 -44V736Q688 758 703.5 768.0Q719 778 738 778Z" transform="translate(141.750 32.450) scale(0.015000 -0.015000)"/></g><g fill="#6B7280" opacity="1"><path d="M455 737Q599 737 676.5 673.5Q754 610 754 500Q754 390 676.5 326.5Q599 263 455 263Q311 263 233.5 326.5Q156 390 156 500Q156 610 233.5 673.5Q311 737 455 737ZM455 675Q398 675 355.5 661.5Q313 648 285.0 625.0Q257 602 243.0 569.5Q229 537 229 500Q229 462 243.0 430.0Q257 398 285.0 375.0Q313 352 355.5 338.5Q398 325 455 325Q512 325 554.5 338.5Q597 352 625.0 375.0Q653 398 667.0 430.0Q681 462 681 500Q681 537 667.0 569.5Q653 602 625.0 625.0Q597 648 554.5 661.5Q512 675 455 675ZM492 74H846Q860 74 866.0 65.0Q872 56 872 42Q872 29 866.0 20.0Q860 11 846 11H64Q50 11 44.0 20.0Q38 29 38 42Q38 56 44.0 65.0Q50 74 64 74H419V319H492Z" transform="translate(332.000 31.790) scale(0.013000 -0.013000)"/><path d="M542 712Q555 712 561.0 703.0Q567 694 567 680Q567 667 561.0 657.5Q555 648 542 648H361V570Q361 516 379.0 478.5Q397 441 436 407Q470 379 503.0 353.5Q536 328 560 309Q572 300 573.0 287.5Q574 275 566 263Q558 252 545.5 249.5Q533 247 520 256Q497 274 468.5 296.0Q440 318 405 346Q365 378 347.0 402.5Q329 427 325 444H324Q320 426 301.5 401.0Q283 376 243 344Q209 315 176.0 290.0Q143 265 112 242Q99 233 87.0 236.5Q75 240 67 250Q59 261 59.0 274.0Q59 287 72 297Q105 321 141.5 349.0Q178 377 212 406Q251 439 269.0 477.0Q287 515 287 569V648H100Q87 648 81.0 657.5Q75 667 75 680Q75 694 81.0 703.0Q87 712 100 712H542ZM750 774Q764 774 775.0 767.0Q786 760 786 744V134Q786 118 775.0 111.0Q764 104 750 104Q736 104 725.0 111.0Q714 118 714 134V458H543Q530 458 524.0 467.0Q518 476 518 490Q518 503 524.0 512.5Q530 522 543 522H714V744Q714 760 725.0 767.0Q736 774 750 774ZM252 182Q266 182 277.5 175.0Q289 168 289 152V-44Q289 -62 308 -62H786Q800 -62 806.0 -71.5Q812 -81 812 -94Q812 -107 806.0 -116.5Q800 -126 786 -126H284Q245 -126 230.0 -111.5Q215 -97 215 -59V152Q215 168 226.5 175.0Q238 182 252 182Z" transform="translate(343.830 31.790) scale(0.013000 -0.013000)"/><path d="M742 737Q754 737 760.0 728.0Q766 719 766 706Q766 693 760.0 684.0Q754 675 742 675H492V652Q492 616 512.5 590.0Q533 564 589 540Q643 518 688.0 500.5Q733 483 776 467Q790 462 794.0 449.5Q798 437 793 426Q788 414 778.0 408.0Q768 402 753 407Q711 422 666.5 439.5Q622 457 572 478Q541 490 520.5 502.0Q500 514 486.5 524.5Q473 535 466.0 545.5Q459 556 456 565H455Q450 545 425.0 523.5Q400 502 339 477Q288 456 244.0 438.5Q200 421 158 406Q143 401 132.5 407.0Q122 413 117 425Q112 436 116.0 449.0Q120 462 134 467Q177 483 222.0 500.5Q267 518 321 540Q377 564 397.5 590.0Q418 616 418 652V675H168Q156 675 150.0 684.0Q144 693 144 706Q144 719 150.0 728.0Q156 737 168 737H742ZM847 340Q860 340 866.0 331.0Q872 322 872 309Q872 296 866.0 287.0Q860 278 847 278H491V138H419V278H63Q50 278 44.0 287.0Q38 296 38 309Q38 322 44.0 331.0Q50 340 63 340H847ZM455 177Q598 177 675.5 136.5Q753 96 753 11Q753 -74 675.5 -114.5Q598 -155 455 -155Q312 -155 234.5 -114.5Q157 -74 157 11Q157 96 234.5 136.5Q312 177 455 177ZM455 118Q340 118 285.0 90.5Q230 63 230 11Q230 -41 285.0 -68.5Q340 -96 455 -96Q570 -96 625.0 -68.5Q680 -41 680 11Q680 63 625.0 90.5Q570 118 455 118Z" transform="translate(358.910 31.790) scale(0.013000 -0.013000)"/></g><circle cx="397" cy="34" r="11" fill="none" stroke="#9AA4AD" stroke-width="1.5" opacity="1"/></svg>