<svg xmlns="http://www.w3.org/2000/svg" width="430" height="68" viewBox="0 0 430 68" role="img" aria-label="비닐하우스 온도 점검"><title>비닐하우스 온도 점검</title><rect x="1" y="1" width="428" height="66" rx="15" fill="#fff" stroke="#E1E8E4" stroke-width="1" opacity="1"/><circle cx="32" cy="34" r="10" fill="none" stroke="#2FA86A" stroke-width="1.8" opacity="1"/><path d="M27 34 L31 38 L38 30" fill="none" stroke="#2FA86A" stroke-width="2.3" stroke-linecap="round" stroke-linejoin="round" opacity="1"/><g fill="#1F2937" opacity="1"><path d="M138 720Q157 720 172.5 710.0Q188 700 188 678V505H423V678Q423 700 438.0 710.0Q453 720 472 720Q491 720 506.0 710.0Q521 700 521 678V217Q521 174 504.5 158.0Q488 142 444 142H166Q122 142 105.5 158.0Q89 174 89 217V678Q89 700 104.0 710.0Q119 720 138 720ZM188 248Q188 236 192.5 231.5Q197 227 209 227H402Q413 227 418.0 231.5Q423 236 423 248V420H188ZM738 778Q758 778 773.5 768.0Q789 758 789 736V-44Q789 -66 773.5 -76.0Q758 -86 738 -86Q719 -86 703.5 -76.0Q688 -66 688 -44V736Q688 758 703.5 768.0Q719 778 738 778Z" transform="translate(66.000 32.450) scale(0.015000 -0.015000)"/><path d="M145 747Q165 747 180.0 737.0Q195 727 195 704V467Q195 447 216 447Q320 447 406.0 452.0Q492 457 573 468Q590 470 600.5 459.0Q611 448 613 431Q615 413 608.5 399.0Q602 385 585 383Q550 378 509.5 374.0Q469 370 419.0 367.0Q369 364 308.0 362.5Q247 361 171 361Q127 361 111.0 377.0Q95 393 95 436V704Q95 727 110.0 737.0Q125 747 145 747ZM739 778Q759 778 774.0 768.0Q789 758 789 736V348Q789 326 774.0 316.0Q759 306 739 306Q719 306 704.0 316.0Q689 326 689 348V736Q689 758 704.0 768.0Q719 778 739 778ZM789 188V96Q789 53 772.5 37.0Q756 21 712 21H325Q314 21 309.0 16.5Q304 12 304 0V-43Q304 -64 325 -64H778Q795 -64 803.0 -76.0Q811 -88 811 -104Q811 -120 803.0 -132.0Q795 -144 778 -144H284Q240 -144 223.5 -128.0Q207 -112 207 -69V23Q207 66 223.5 82.0Q240 98 284 98H670Q682 98 686.5 102.5Q691 107 691 119V162Q691 173 686.5 177.5Q682 182 670 182H238Q221 182 213.0 194.0Q205 206 205 223Q205 239 213.0 251.0Q221 263 238 263H712Q756 263 772.5 247.0Q789 231 789 188Z" transform="translate(79.650 32.450) scale(0.015000 -0.015000)"/><path d="M308 502Q358 502 398.0 487.5Q438 473 465.5 447.0Q493 421 508.0 385.0Q523 349 523 305Q523 261 508.0 225.0Q493 189 465.5 163.0Q438 137 398.0 122.5Q358 108 308 108Q258 108 218.0 122.5Q178 137 150.0 163.0Q122 189 107.5 225.0Q93 261 93 305Q93 349 107.5 385.0Q122 421 150.0 447.0Q178 473 218.0 487.5Q258 502 308 502ZM308 780Q328 780 343.0 770.0Q358 760 358 738V652H538Q556 652 564.5 639.5Q573 627 573 610Q573 593 564.5 580.0Q556 567 538 567H67Q49 567 40.5 580.0Q32 593 32 610Q32 627 40.5 639.5Q49 652 67 652H258V738Q258 760 273.5 770.0Q289 780 308 780ZM308 421Q251 421 217.5 389.5Q184 358 184 305Q184 253 217.5 221.0Q251 189 308 189Q365 189 398.5 221.0Q432 253 432 305Q432 358 398.5 389.5Q365 421 308 421ZM696 778Q716 778 731.0 768.0Q746 758 746 736V466H856Q876 466 884.5 453.5Q893 441 893 423Q893 405 884.5 392.0Q876 379 856 379H746V-44Q746 -66 731.0 -76.0Q716 -86 696 -86Q677 -86 662.0 -76.0Q647 -66 647 -44V736Q647 758 662.0 768.0Q677 778 696 778Z" transform="translate(93.300 32.450) scale(0.015000 -0.015000)"/><path d="M455 753Q601 753 681.0 700.5Q761 648 761 548Q761 448 681.0 395.5Q601 343 455 343Q309 343 229.0 395.5Q149 448 149 548Q149 648 229.0 700.5Q309 753 455 753ZM455 668Q347 668 298.0 635.0Q249 602 249 548Q249 494 298.0 461.0Q347 428 455 428Q563 428 612.0 461.0Q661 494 661 548Q661 602 612.0 635.0Q563 668 455 668ZM875 209Q875 192 866.5 179.5Q858 167 840 167H505V-114Q505 -136 490.0 -146.0Q475 -156 455 -156Q435 -156 420.0 -146.0Q405 -136 405 -114V167H70Q52 167 43.5 179.5Q35 192 35 209Q35 226 43.5 239.0Q52 252 70 252H840Q858 252 866.5 239.0Q875 226 875 209Z" transform="translate(106.950 32.450) scale(0.015000 -0.015000)"/><path d="M455 736Q475 736 490.5 726.0Q506 716 506 693V635Q506 603 511.0 578.0Q516 553 527.5 531.5Q539 510 557.5 491.5Q576 473 604 455Q649 426 696.0 398.5Q743 371 792 343Q807 335 808.0 316.5Q809 298 801 284Q791 268 775.0 262.0Q759 256 742 264Q694 290 647.0 318.0Q600 346 558 374Q507 406 484.0 431.5Q461 457 456 476H455Q450 456 426.5 430.0Q403 404 352 372Q310 345 263.0 316.5Q216 288 168 262Q152 254 135.5 260.0Q119 266 109 282Q100 297 101.5 316.0Q103 335 118 343Q167 371 214.0 398.5Q261 426 306 455Q334 473 352.5 491.5Q371 510 382.5 531.5Q394 553 399.0 578.0Q404 603 404 635V693Q404 716 419.5 726.0Q435 736 455 736ZM875 44Q875 27 866.5 14.0Q858 1 840 1H70Q52 1 43.5 14.0Q35 27 35 44Q35 62 43.5 74.5Q52 87 70 87H840Q858 87 866.5 74.5Q875 62 875 44Z" transform="translate(120.600 32.450) scale(0.015000 -0.015000)"/><path d="M455 755Q600 755 679.5 710.0Q759 665 759 573Q759 481 679.5 436.0Q600 391 455 391Q310 391 230.5 436.0Q151 481 151 573Q151 665 230.5 710.0Q310 755 455 755ZM455 673Q347 673 298.5 646.5Q250 620 250 573Q250 526 298.5 499.5Q347 473 455 473Q563 473 611.5 499.5Q660 526 660 573Q660 620 611.5 646.5Q563 673 455 673ZM504 293H840Q858 293 866.5 280.5Q875 268 875 251Q875 234 866.5 221.5Q858 209 840 209H70Q52 209 43.5 221.5Q35 234 35 251Q35 268 43.5 280.5Q52 293 70 293H406V437H504ZM199 148Q219 148 234.0 138.0Q249 128 249 106V-30Q249 -51 270 -51H743Q761 -51 769.5 -63.5Q778 -76 778 -93Q778 -110 769.5 -123.0Q761 -136 743 -136H225Q181 -136 165.0 -120.0Q149 -104 149 -61V106Q149 128 164.0 138.0Q179 148 199 148Z" transform="translate(138.000 32.450) scale(0.015000 -0.015000)"/><path d="M758 679Q758 662 749.5 649.0Q741 636 723 636H270Q249 636 249 616V389Q249 369 270 369H733Q751 369 759.5 356.0Q768 343 768 326Q768 309 759.5 296.0Q751 283 733 283H225Q181 283 165.0 299.0Q149 315 149 358V647Q149 690 165.0 706.0Q181 722 225 722H723Q741 722 749.5 709.0Q758 696 758 679ZM505 86H840Q858 86 866.5 73.5Q875 61 875 44Q875 27 866.5 14.0Q858 1 840 1H70Q52 1 43.5 14.0Q35 27 35 44Q35 61 43.5 73.5Q52 86 70 86H405V319H505Z" transform="translate(151.650 32.450) scale(0.015000 -0.015000)"/><path d="M567 683Q567 666 558.5 653.5Q550 641 532 641H372V589Q372 541 386.5 510.0Q401 479 438 450Q473 423 503.0 401.5Q533 380 557 363Q574 351 575.0 333.5Q576 316 565 302Q555 288 538.5 283.0Q522 278 504 290Q487 302 457.0 323.5Q427 345 397 368Q359 397 343.5 416.5Q328 436 324 450H323Q319 434 302.0 413.0Q285 392 247 363Q216 340 183.5 316.5Q151 293 123 274Q106 262 89.0 267.5Q72 273 63 286Q52 300 52.5 318.0Q53 336 71 349Q105 372 138.0 395.5Q171 419 206 448Q243 476 257.5 507.0Q272 538 272 586V641H105Q86 641 77.5 653.5Q69 666 69 683Q69 700 77.5 713.0Q86 726 105 726H532Q550 726 558.5 713.0Q567 700 567 683ZM746 778Q765 778 780.0 768.0Q795 758 795 736V299Q795 277 780.0 267.0Q765 257 746 257Q726 257 711.0 267.0Q696 277 696 299V469H552Q533 469 524.5 482.0Q516 495 516 512Q516 530 524.5 542.5Q533 555 552 555H696V736Q696 758 711.0 768.0Q726 778 746 778ZM718 214Q762 214 778.5 198.0Q795 182 795 139V-64Q795 -107 778.5 -123.0Q762 -139 718 -139H284Q240 -139 223.5 -123.0Q207 -107 207 -64V139Q207 182 223.5 198.0Q240 214 284 214ZM327 130Q306 130 306 109V-34Q306 -55 327 -55H675Q696 -55 696 -34V109Q696 130 675 130Z" transform="translate(169.050 32.450) scale(0.015000 -0.015000)"/><path d="M416 727Q460 727 476.5 711.0Q493 695 493 652V580Q493 545 488.0 517.5Q483 490 469.0 466.0Q455 442 430.5 420.0Q406 398 366.0 374.0Q326 350 269.5 322.5Q213 295 136 260Q119 252 102.5 260.0Q86 268 78 285Q71 299 73.5 317.5Q76 336 96 344Q165 375 214.5 398.5Q264 422 297.0 441.0Q330 460 349.0 476.0Q368 492 378.0 508.5Q388 525 390.5 543.0Q393 561 393 584V620Q393 631 388.5 636.0Q384 641 372 641H117Q99 641 90.5 653.5Q82 666 82 683Q82 701 90.5 714.0Q99 727 117 727ZM746 778Q765 778 780.0 768.0Q795 758 795 736V299Q795 277 780.0 267.0Q765 257 746 257Q726 257 711.0 267.0Q696 277 696 299V481H460V566H696V736Q696 758 711.0 768.0Q726 778 746 778ZM718 214Q762 214 778.5 198.0Q795 182 795 139V-64Q795 -107 778.5 -123.0Q762 -139 718 -139H284Q240 -139 223.5 -123.0Q207 -107 207 -64V139Q207 182 223.5 198.0Q240 214 284 214ZM327 130Q306 130 306 109V-34Q306 -55 327 -55H675Q696 -55 696 -34V109Q696 130 675 130Z" transform="translate(182.700 32.450) scale(0.015000 -0.015000)"/></g><g fill="#6B7280" opacity="1"><path d="M455 737Q599 737 676.5 673.5Q754 610 754 500Q754 390 676.5 326.5Q599 263 455 263Q311 263 233.5 326.5Q156 390 156 500Q156 610 233.5 673.5Q311 737 455 737ZM455 675Q398 675 355.5 661.5Q313 648 285.0 625.0Q257 602 243.0 569.5Q229 537 229 500Q229 462 243.0 430.0Q257 398 285.0 375.0Q313 352 355.5 338.5Q398 325 455 325Q512 325 554.5 338.5Q597 352 625.0 375.0Q653 398 667.0 430.0Q681 462 681 500Q681 537 667.0 569.5Q653 602 625.0 625.0Q597 648 554.5 661.5Q512 675 455 675ZM492 74H846Q860 74 866.0 65.0Q872 56 872 42Q872 29 866.0 20.0Q860 11 846 11H64Q50 11 44.0 20.0Q38 29 38 42Q38 56 44.0 65.0Q50 74 64 74H419V319H492Z" transform="translate(332.000 31.790) scale(0.013000 -0.013000)"/><path d="M542 712Q555 712 561.0 703.0Q567 694 567 680Q567 667 561.0 657.5Q555 648 542 648H361V570Q361 516 379.0 478.5Q397 441 436 407Q470 379 503.0 353.5Q536 328 560 309Q572 300 573.0 287.5Q574 275 566 263Q558 252 545.5 249.5Q533 247 520 256Q497 274 468.5 296.0Q440 318 405 346Q365 378 347.0 402.5Q329 427 325 444H324Q320 426 301.5 401.0Q283 376 243 344Q209 315 176.0 290.0Q143 265 112 242Q99 233 87.0 236.5Q75 240 67 250Q59 261 59.0 274.0Q59 287 72 297Q105 321 141.5 349.0Q178 377 212 406Q251 439 269.0 477.0Q287 515 287 569V648H100Q87 648 81.0 657.5Q75 667 75 680Q75 694 81.0 703.0Q87 712 100 712H542ZM750 774Q764 774 775.0 767.0Q786 760 786 744V134Q786 118 775.0 111.0Q764 104 750 104Q736 104 725.0 111.0Q714 118 714 134V458H543Q530 458 524.0 467.0Q518 476 518 490Q518 503 524.0 512.5Q530 522 543 522H714V744Q714 760 725.0 767.0Q736 774 750 774ZM252 182Q266 182 277.5 175.0Q289 168 289 152V-44Q289 -62 308 -62H786Q800 -62 806.0 -71.5Q812 -81 812 -94Q812 -107 806.0 -116.5Q800 -126 786 -126H284Q245 -126 230.0 -111.5Q215 -97 215 -59V152Q215 168 226.5 175.0Q238 182 252 182Z" transform="translate(343.830 31.790) scale(0.013000 -0.013000)"/><path d="M742 737Q754 737 760.0 728.0Q766 719 766 706Q766 693 760.0 684.0Q754 675 742 675H492V652Q492 616 512.5 590.0Q533 564 589 540Q643 518 688.0 500.5Q733 483 776 467Q790 462 794.0 449.5Q798 437 793 426Q788 414 778.0 408.0Q768 402 753 407Q711 422 666.5 439.5Q622 457 572 478Q541 490 520.5 502.0Q500 514 486.5 524.5Q473 535 466.0 545.5Q459 556 456 565H455Q450 545 425.0 523.5Q400 502 339 477Q288 456 244.0 438.5Q200 421 158 406Q143 401 132.5 407.0Q122 413 117 425Q112 436 116.0 449.0Q120 462 134 467Q177 483 222.0 500.5Q267 518 321 540Q377 564 397.5 590.0Q418 616 418 652V675H168Q156 675 150.0 684.0Q144 693 144 706Q144 719 150.0 728.0Q156 737 168 737H742ZM847 340Q860 340 866.0 331.0Q872 322 872 309Q872 296 866.0 287.0Q860 278 847 278H491V138H419V278H63Q50 278 44.0 287.0Q38 296 38 309Q38 322 44.0 331.0Q50 340 63 340H847ZM455 177Q598 177 675.5 136.5Q753 96 753 11Q753 -74 675.5 -114.5Q598 -155 455 -155Q312 -155 234.5 -114.5Q157 -74 157 11Q157 96 234.5 136.5Q312 177 455 177ZM455 118Q340 118 285.0 90.5Q230 63 230 11Q230 -41 285.0 -68.5Q340 -96 455 -96Q570 -96 625.0 -68.5Q680 -41 680 11Q680 63 625.0 90.5Q570 118 455 118Z" transform="translate(358.910 31.790) scale(0.013000 -0.013000)"/></g><circle cx="397" cy="34" r="11" fill="#2FA86A" stroke-width="1" opacity="1"/><path d="M392 34 L396 38 L403 30" fill="none" stroke="#fff" stroke-width="2.3" stroke-linecap="round" stroke-linejoin="round" opacity="1"/></svg>