<svg xmlns="http://www.w3.org/2000/svg" width="120" height="120" viewBox="0 0 120 120" role="img" aria-label="greenhouse"><title>greenhouse</title><rect x="6" y="6" width="108" height="108" rx="22" fill="#FFFFFF" stroke="#E1E8E4" stroke-width="2" opacity="1"/><path d="M27 88 V51 Q60 16 93 51 V88Z" fill="none" stroke="#2FA86A" stroke-width="4" stroke-linecap="round" stroke-linejoin="round" opacity="1"/><line x1="60" y1="27" x2="60" y2="88" stroke="#2FA86A" stroke-width="3" stroke-linecap="round" opacity="1"/><line x1="27" y1="56" x2="93" y2="56" stroke="#2FA86A" stroke-width="3" stroke-linecap="round" opacity="1"/><rect x="45" y="63" width="30" height="25" rx="3" fill="#BFEACC" stroke-width="1" opacity="1"/><path d="M41.0 54.5 C40.25 47.25 41.25 41.75 41.0 37.5" fill="none" stroke="#398F42" stroke-width="1.25" stroke-linecap="round" stroke-linejoin="round" opacity="1"/><path d="M28.25 45.25 C26.95 38.725 30.59 34.0 36.83 34.0 C41.25 35.6875 41.25 41.65 28.25 45.25Z" fill="#54B84C" stroke-width="1" stroke-linecap="round" stroke-linejoin="round" opacity="1" transform="rotate(-20 34.75 39.625)"/><path d="M29.81 43.0 Q34.1 39.4 37.87 36.025" fill="none" stroke="#F4FFF6" stroke-width="1" stroke-linecap="round" stroke-linejoin="round" opacity="0.75" transform="rotate(-20 34.75 39.625)"/><path d="M40.5 42.75 C39.25 36.37 42.75 31.75 48.75 31.75 C53.0 33.4 53.0 39.230000000000004 40.5 42.75Z" fill="#3EA845" stroke-width="1" stroke-linecap="round" stroke-linejoin="round" opacity="1" transform="rotate(18 46.75 37.25)"/><path d="M42.0 40.55 Q46.125 37.03 49.75 33.73" fill="none" stroke="#F4FFF6" stroke-width="1" stroke-linecap="round" stroke-linejoin="round" opacity="0.75" transform="rotate(18 46.75 37.25)"/></svg>