<svg xmlns="http://www.w3.org/2000/svg" width="120" height="120" viewBox="0 0 120 120" role="img" aria-label="soil"><title>soil</title><rect x="6" y="6" width="108" height="108" rx="22" fill="#FFFFFF" stroke="#E1E8E4" stroke-width="2" opacity="1"/><ellipse cx="61.2" cy="85.28" rx="33.28" ry="9.6" fill="#8B5A33" stroke-width="1" opacity="1"/><ellipse cx="61.2" cy="81.44" rx="27.52" ry="7.68" fill="#B77A45" stroke-width="1" opacity="1"/><path d="M61.2 82.08 C59.28 63.52 61.84 49.44 61.2 38.56" fill="none" stroke="#398F42" stroke-width="3.2" stroke-linecap="round" stroke-linejoin="round" opacity="1"/><path d="M28.56 58.400000000000006 C25.232 41.696 34.550399999999996 29.6 50.5248 29.6 C61.84 33.92 61.84 49.184000000000005 28.56 58.400000000000006Z" fill="#54B84C" stroke-width="1" stroke-linecap="round" stroke-linejoin="round" opacity="1" transform="rotate(-20 45.2 44.0)"/><path d="M32.553599999999996 52.64 Q43.536 43.424 53.187200000000004 34.784" fill="none" stroke="#F4FFF6" stroke-width="1.3312000000000002" stroke-linecap="round" stroke-linejoin="round" opacity="0.75" transform="rotate(-20 45.2 44.0)"/><path d="M59.92 52.0 C56.72 35.6672 65.68 23.84 81.04 23.84 C91.92 28.064 91.92 42.9888 59.92 52.0Z" fill="#3EA845" stroke-width="1" stroke-linecap="round" stroke-linejoin="round" opacity="1" transform="rotate(18 75.92 37.92)"/><path d="M63.760000000000005 46.368 Q74.32000000000001 37.3568 83.6 28.9088" fill="none" stroke="#F4FFF6" stroke-width="1.28" stroke-linecap="round" stroke-linejoin="round" opacity="0.75" transform="rotate(18 75.92 37.92)"/></svg>