<svg xmlns="http://www.w3.org/2000/svg" width="720" height="220" viewBox="0 0 720 220" role="img" aria-label="Color palette"><title>Color palette</title><rect x="0" y="0" width="720" height="220" rx="0" fill="#fff" stroke-width="1" opacity="1"/><circle cx="62" cy="55" r="28" fill="#1E5E3E" stroke-width="1" opacity="1"/><g fill="#1F2937" opacity="1"><path d="M348 715Q463 715 518.0 672.0Q573 629 573 538V524Q573 475 547.5 434.5Q522 394 458 378Q526 368 566.0 329.0Q606 290 606 213V195Q606 104 551.5 54.0Q497 4 380 4H163Q119 4 102.5 20.0Q86 36 86 78V641Q86 683 102.5 699.0Q119 715 163 715ZM319 416Q403 416 437.5 439.5Q472 463 472 522V533Q472 587 435.5 609.0Q399 631 313 631H186V416ZM337 88Q379 88 410.5 93.0Q442 98 463.0 111.5Q484 125 494.0 147.0Q504 169 504 204V219Q504 248 495.0 269.5Q486 291 464.5 305.5Q443 320 408.0 327.0Q373 334 321 334H186V88Z" transform="translate(46.347 99.130) scale(0.011000 -0.011000)"/><path d="M325 541Q359 541 381 530Q410 516 402 479Q397 458 383.5 446.5Q370 435 352 439Q340 441 328.0 443.5Q316 446 302 446Q274 446 251.5 435.0Q229 424 213.0 404.5Q197 385 188.5 359.0Q180 333 180 302V40Q180 19 165.0 9.0Q150 -1 130 -1Q111 -1 96.0 9.0Q81 19 81 40V494Q81 515 95.5 524.5Q110 534 128 534Q147 534 161.5 524.5Q176 515 176 494V441H178Q195 481 233.0 511.0Q271 541 325 541Z" transform="translate(53.497 99.130) scale(0.011000 -0.011000)"/><path d="M279 541Q326 541 364.5 529.0Q403 517 430.5 494.5Q458 472 473.0 439.5Q488 407 488 366V37Q488 17 474.0 8.0Q460 -1 443 -1Q426 -1 412.0 8.0Q398 17 398 37V75H397Q389 58 374.0 44.0Q359 30 339 20Q319 9 292.0 2.5Q265 -4 235 -4Q148 -4 100.0 37.0Q52 78 52 152V165Q52 198 62.5 226.0Q73 254 96.5 275.0Q120 296 158.0 307.5Q196 319 251 319H390V344Q390 402 363.0 428.5Q336 455 277 455Q206 455 143 415Q127 405 112.0 410.0Q97 415 87 430Q78 445 80.0 461.0Q82 477 98 488Q132 511 179.0 526.0Q226 541 279 541ZM254 242Q195 242 171.5 219.0Q148 196 148 160V156Q148 119 172.0 99.0Q196 79 243 79Q301 79 338 99Q364 114 377.5 136.0Q391 158 391 191V242Z" transform="translate(58.150 99.130) scale(0.011000 -0.011000)"/><path d="M343 541Q433 541 483.0 490.5Q533 440 533 346V40Q533 19 518.0 9.0Q503 -1 484 -1Q465 -1 450.0 9.0Q435 19 435 40V323Q435 395 403.5 424.5Q372 454 315 454Q288 454 263.5 444.5Q239 435 220.5 418.0Q202 401 191.0 376.5Q180 352 180 321V40Q180 19 165.0 9.0Q150 -1 130 -1Q111 -1 96.0 9.0Q81 19 81 40V494Q81 515 95.5 524.5Q110 534 128 534Q146 534 160.5 524.5Q175 515 175 494V459H177Q196 494 241.0 517.5Q286 541 343 541Z" transform="translate(64.332 99.130) scale(0.011000 -0.011000)"/><path d="M472 745Q491 745 506.0 735.0Q521 725 521 704V39Q521 18 506.5 8.5Q492 -1 474 -1Q456 -1 441.5 8.5Q427 18 427 39V77H425Q404 37 360.0 16.5Q316 -4 262 -4Q159 -4 105.5 60.5Q52 125 52 251V285Q52 413 111.5 477.0Q171 541 271 541Q331 541 368.5 520.5Q406 500 422 475V704Q422 725 437.0 735.0Q452 745 472 745ZM284 455Q219 455 184.5 412.5Q150 370 150 281V255Q150 165 181.5 123.0Q213 81 280 81Q310 81 336.5 91.5Q363 102 382.5 121.0Q402 140 413.0 166.5Q424 193 424 225V340Q424 361 415.0 382.0Q406 403 388.0 419.0Q370 435 344.0 445.0Q318 455 284 455Z" transform="translate(71.031 99.130) scale(0.011000 -0.011000)"/></g><g fill="#6B7280" opacity="1"><path d="M242 719Q256 718 263.0 710.5Q270 703 268 689L244 518H392L418 694Q421 721 452 719Q465 718 472.0 710.5Q479 703 477 689L453 518H536Q550 518 556.0 509.0Q562 500 562 487Q562 475 556.0 466.0Q550 457 536 457H444L418 267H503Q517 267 523.0 258.0Q529 249 529 236Q529 224 523.0 215.0Q517 206 503 206H410L385 27Q382 0 351 3Q337 4 330.0 11.5Q323 19 325 33L349 206H200L176 27Q171 0 141 3Q128 4 121.0 11.5Q114 19 116 33L140 206H57Q43 206 37.0 215.0Q31 224 31 236Q31 249 37.0 258.0Q43 267 57 267H148L175 457H89Q76 457 70.0 466.0Q64 475 64 487Q64 500 70.0 509.0Q76 518 89 518H183L208 694Q210 708 219.0 714.0Q228 720 242 719ZM358 267 385 457H235L209 267Z" transform="translate(45.156 112.640) scale(0.008000 -0.008000)"/><path d="M363 719Q380 719 391.0 711.5Q402 704 402 687V30Q402 14 391.0 7.0Q380 0 365 0Q351 0 340.0 7.0Q329 14 329 30V631L159 523Q145 515 133.5 520.0Q122 525 114 537Q107 548 108.5 561.0Q110 574 123 582L312 700Q344 719 363 719Z" transform="translate(49.924 112.640) scale(0.008000 -0.008000)"/><path d="M506 715Q520 715 526.0 706.0Q532 697 532 683Q532 670 526.0 661.0Q520 652 506 652H165V400H486Q499 400 505.0 391.0Q511 382 511 369Q511 356 505.0 347.0Q499 338 486 338H165V67H513Q527 67 533.0 58.0Q539 49 539 36Q539 22 533.0 13.0Q527 4 513 4H159Q121 4 106.5 18.0Q92 32 92 70V649Q92 687 106.5 701.0Q121 715 159 715H506Z" transform="translate(54.724 112.640) scale(0.008000 -0.008000)"/><path d="M479 715Q493 715 499.0 706.0Q505 697 505 683Q505 669 499.0 660.0Q493 651 479 651H192L176 391Q202 414 241.0 430.0Q280 446 330 446Q381 446 421.5 430.0Q462 414 490.0 385.0Q518 356 532.5 316.0Q547 276 547 228V217Q547 177 534.0 137.0Q521 97 492.0 65.0Q463 33 416.0 13.0Q369 -7 302 -7Q238 -7 183.0 10.0Q128 27 87 55Q73 64 71.0 77.5Q69 91 77 104Q94 132 123 115Q161 90 205.0 75.0Q249 60 302 60Q348 60 381.0 73.5Q414 87 434.5 109.5Q455 132 464.5 160.0Q474 188 474 218V225Q474 306 432.0 344.5Q390 383 313 383Q269 383 236.0 369.0Q203 355 177 332Q166 322 158.0 318.0Q150 314 137 314Q123 314 113.0 321.5Q103 329 104 343L122 648Q124 687 137.5 701.0Q151 715 189 715H479Z" transform="translate(59.564 112.640) scale(0.008000 -0.008000)"/><path d="M506 715Q520 715 526.0 706.0Q532 697 532 683Q532 670 526.0 661.0Q520 652 506 652H165V400H486Q499 400 505.0 391.0Q511 382 511 369Q511 356 505.0 347.0Q499 338 486 338H165V67H513Q527 67 533.0 58.0Q539 49 539 36Q539 22 533.0 13.0Q527 4 513 4H159Q121 4 106.5 18.0Q92 32 92 70V649Q92 687 106.5 701.0Q121 715 159 715H506Z" transform="translate(64.364 112.640) scale(0.008000 -0.008000)"/><path d="M289 726Q341 726 381.5 712.5Q422 699 450.0 674.5Q478 650 492.5 617.0Q507 584 507 545V540Q507 517 500.5 492.5Q494 468 479.0 446.0Q464 424 439.5 405.5Q415 387 380 375Q450 364 493.0 321.5Q536 279 536 210V200Q536 160 521.5 122.5Q507 85 477.5 56.5Q448 28 402.5 10.5Q357 -7 295 -7Q235 -7 180.5 10.5Q126 28 84 57Q71 66 69.0 79.0Q67 92 75 106Q93 135 121 116Q159 89 201.5 74.0Q244 59 292 59Q337 59 369.5 71.0Q402 83 422.5 103.5Q443 124 453.0 149.5Q463 175 463 202V210Q463 250 447.0 275.5Q431 301 406.5 315.5Q382 330 351.5 335.5Q321 341 292 341H230Q216 341 210.0 350.0Q204 359 204 373Q204 387 210.0 396.5Q216 406 230 406H287Q314 406 340.5 413.5Q367 421 388.5 437.0Q410 453 423.0 478.0Q436 503 436 539V542Q436 595 398.5 628.0Q361 661 289 661Q241 661 206.5 642.5Q172 624 145 590Q135 579 122.5 579.0Q110 579 100 590Q89 600 88.5 612.0Q88 624 96 635Q125 673 173.5 699.5Q222 726 289 726Z" transform="translate(69.204 112.640) scale(0.008000 -0.008000)"/><path d="M506 715Q520 715 526.0 706.0Q532 697 532 683Q532 670 526.0 661.0Q520 652 506 652H165V400H486Q499 400 505.0 391.0Q511 382 511 369Q511 356 505.0 347.0Q499 338 486 338H165V67H513Q527 67 533.0 58.0Q539 49 539 36Q539 22 533.0 13.0Q527 4 513 4H159Q121 4 106.5 18.0Q92 32 92 70V649Q92 687 106.5 701.0Q121 715 159 715H506Z" transform="translate(74.004 112.640) scale(0.008000 -0.008000)"/></g><circle cx="177" cy="55" r="28" fill="#2FA86A" stroke-width="1" opacity="1"/><g fill="#1F2937" opacity="1"><path d="M342 715Q404 715 449.5 700.5Q495 686 525.0 659.0Q555 632 569.5 594.0Q584 556 584 510V495Q584 449 569.0 410.0Q554 371 523.5 342.5Q493 314 447.5 298.0Q402 282 341 282H187V41Q187 19 171.5 9.0Q156 -1 136 -1Q116 -1 101.0 9.0Q86 19 86 41V641Q86 683 102.5 699.0Q119 715 163 715ZM329 367Q407 367 445.5 398.0Q484 429 484 496V508Q484 573 447.0 601.5Q410 630 339 630H187V367Z" transform="translate(156.386 99.130) scale(0.011000 -0.011000)"/><path d="M325 541Q359 541 381 530Q410 516 402 479Q397 458 383.5 446.5Q370 435 352 439Q340 441 328.0 443.5Q316 446 302 446Q274 446 251.5 435.0Q229 424 213.0 404.5Q197 385 188.5 359.0Q180 333 180 302V40Q180 19 165.0 9.0Q150 -1 130 -1Q111 -1 96.0 9.0Q81 19 81 40V494Q81 515 95.5 524.5Q110 534 128 534Q147 534 161.5 524.5Q176 515 176 494V441H178Q195 481 233.0 511.0Q271 541 325 541Z" transform="translate(163.239 99.130) scale(0.011000 -0.011000)"/><path d="M133 732Q161 732 180.0 713.5Q199 695 199 669Q199 642 180.0 623.5Q161 605 133 605Q105 605 86.0 623.5Q67 642 67 669Q67 695 86.0 713.5Q105 732 133 732ZM133 534Q153 534 167.5 524.0Q182 514 182 493V40Q182 19 167.5 9.0Q153 -1 133 -1Q114 -1 99.0 9.0Q84 19 84 40V493Q84 514 99.0 524.0Q114 534 133 534Z" transform="translate(167.892 99.130) scale(0.011000 -0.011000)"/><path d="M330 541Q388 541 427.5 515.5Q467 490 481 450Q507 492 548.0 516.5Q589 541 653 541Q738 541 787.5 488.0Q837 435 837 343V40Q837 19 822.0 9.0Q807 -1 788 -1Q769 -1 754.0 9.0Q739 19 739 40V322Q739 394 709.5 423.5Q680 453 627 453Q575 453 541.5 419.5Q508 386 508 327V40Q508 19 493.5 9.0Q479 -1 459 -1Q440 -1 425.0 9.0Q410 19 410 40V323Q410 392 381.0 422.5Q352 453 298 453Q269 453 247.0 443.0Q225 433 210.0 416.5Q195 400 187.5 377.5Q180 355 180 330V40Q180 19 165.0 9.0Q150 -1 130 -1Q111 -1 96.0 9.0Q81 19 81 40V494Q81 515 95.5 524.5Q110 534 128 534Q146 534 160.5 524.5Q175 515 175 494V453Q195 491 233.5 516.0Q272 541 330 541Z" transform="translate(170.818 99.130) scale(0.011000 -0.011000)"/><path d="M279 541Q326 541 364.5 529.0Q403 517 430.5 494.5Q458 472 473.0 439.5Q488 407 488 366V37Q488 17 474.0 8.0Q460 -1 443 -1Q426 -1 412.0 8.0Q398 17 398 37V75H397Q389 58 374.0 44.0Q359 30 339 20Q319 9 292.0 2.5Q265 -4 235 -4Q148 -4 100.0 37.0Q52 78 52 152V165Q52 198 62.5 226.0Q73 254 96.5 275.0Q120 296 158.0 307.5Q196 319 251 319H390V344Q390 402 363.0 428.5Q336 455 277 455Q206 455 143 415Q127 405 112.0 410.0Q97 415 87 430Q78 445 80.0 461.0Q82 477 98 488Q132 511 179.0 526.0Q226 541 279 541ZM254 242Q195 242 171.5 219.0Q148 196 148 160V156Q148 119 172.0 99.0Q196 79 243 79Q301 79 338 99Q364 114 377.5 136.0Q391 158 391 191V242Z" transform="translate(180.861 99.130) scale(0.011000 -0.011000)"/><path d="M325 541Q359 541 381 530Q410 516 402 479Q397 458 383.5 446.5Q370 435 352 439Q340 441 328.0 443.5Q316 446 302 446Q274 446 251.5 435.0Q229 424 213.0 404.5Q197 385 188.5 359.0Q180 333 180 302V40Q180 19 165.0 9.0Q150 -1 130 -1Q111 -1 96.0 9.0Q81 19 81 40V494Q81 515 95.5 524.5Q110 534 128 534Q147 534 161.5 524.5Q176 515 176 494V441H178Q195 481 233.0 511.0Q271 541 325 541Z" transform="translate(187.043 99.130) scale(0.011000 -0.011000)"/><path d="M473 531Q492 525 501.5 509.5Q511 494 503 474L248 -175Q240 -195 223.0 -199.5Q206 -204 187 -196Q168 -188 160.5 -173.5Q153 -159 161 -141L221 5L35 471Q27 492 37.0 507.5Q47 523 65 529Q83 536 101.5 532.0Q120 528 128 505L270 117H271L411 505Q419 527 437.5 531.5Q456 536 473 531Z" transform="translate(191.696 99.130) scale(0.011000 -0.011000)"/></g><g fill="#6B7280" opacity="1"><path d="M242 719Q256 718 263.0 710.5Q270 703 268 689L244 518H392L418 694Q421 721 452 719Q465 718 472.0 710.5Q479 703 477 689L453 518H536Q550 518 556.0 509.0Q562 500 562 487Q562 475 556.0 466.0Q550 457 536 457H444L418 267H503Q517 267 523.0 258.0Q529 249 529 236Q529 224 523.0 215.0Q517 206 503 206H410L385 27Q382 0 351 3Q337 4 330.0 11.5Q323 19 325 33L349 206H200L176 27Q171 0 141 3Q128 4 121.0 11.5Q114 19 116 33L140 206H57Q43 206 37.0 215.0Q31 224 31 236Q31 249 37.0 258.0Q43 267 57 267H148L175 457H89Q76 457 70.0 466.0Q64 475 64 487Q64 500 70.0 509.0Q76 518 89 518H183L208 694Q210 708 219.0 714.0Q228 720 242 719ZM358 267 385 457H235L209 267Z" transform="translate(159.836 112.640) scale(0.008000 -0.008000)"/><path d="M300 726Q352 726 392.0 712.5Q432 699 459.0 675.0Q486 651 499.5 619.0Q513 587 513 550V541Q513 513 507.5 488.5Q502 464 490.5 440.0Q479 416 461.0 392.0Q443 368 418 341L169 67H517Q531 67 537.5 58.0Q544 49 544 36Q544 22 537.5 13.0Q531 4 517 4H128Q98 4 85.5 13.5Q73 23 73 43Q73 53 78.5 63.0Q84 73 100 91L355 371Q380 399 396.5 421.0Q413 443 423.0 462.5Q433 482 436.5 500.0Q440 518 440 539V545Q440 598 405.0 629.0Q370 660 302 660Q246 660 209.0 636.0Q172 612 143 568Q135 557 122.5 554.5Q110 552 98 560Q86 568 82.5 580.5Q79 593 87 606Q119 657 171.0 691.5Q223 726 300 726Z" transform="translate(164.604 112.640) scale(0.008000 -0.008000)"/><path d="M499 715Q513 715 519.0 706.0Q525 697 525 683Q525 669 519.0 660.0Q513 651 499 651H165V388H478Q492 388 498.0 379.0Q504 370 504 357Q504 343 498.0 334.0Q492 325 478 325H165V30Q165 14 154.0 7.0Q143 0 128 0Q114 0 103.0 7.0Q92 14 92 30V649Q92 687 106.5 701.0Q121 715 159 715H499Z" transform="translate(169.404 112.640) scale(0.008000 -0.008000)"/><path d="M331 719Q346 719 357.0 712.0Q368 705 375 687L623 47Q629 31 622.5 19.5Q616 8 602 3Q587 -2 573.5 1.5Q560 5 554 22L479 221H179L103 21Q97 5 84.0 1.5Q71 -2 56 3Q42 8 36.5 19.0Q31 30 37 46L286 687Q293 705 304.5 712.0Q316 719 331 719ZM330 632Q319 596 307.0 560.5Q295 525 278 483L202 283H457L383 483Q367 524 354.0 561.0Q341 598 330 632Z" transform="translate(174.004 112.640) scale(0.008000 -0.008000)"/><path d="M300 726Q349 726 388.5 712.0Q428 698 456.0 673.0Q484 648 499.0 615.0Q514 582 514 543V532Q514 477 483.5 434.5Q453 392 400 368Q463 351 499.5 304.5Q536 258 536 199V187Q536 144 519.0 108.0Q502 72 471.5 46.5Q441 21 397.5 7.0Q354 -7 301 -7Q247 -7 203.0 7.0Q159 21 128.5 46.5Q98 72 81.0 108.0Q64 144 64 187V199Q64 259 100.5 305.0Q137 351 199 368Q147 391 116.5 434.0Q86 477 86 532V543Q86 582 101.0 615.0Q116 648 143.5 673.0Q171 698 210.5 712.0Q250 726 300 726ZM300 661Q232 661 194.5 626.0Q157 591 157 536V529Q157 500 167.5 476.5Q178 453 197.0 436.0Q216 419 242.5 409.5Q269 400 301 400Q365 400 404.0 436.0Q443 472 443 529V536Q443 591 404.5 626.0Q366 661 300 661ZM301 335Q266 335 236.5 326.0Q207 317 184.5 299.0Q162 281 149.5 255.0Q137 229 137 196V189Q137 134 180.0 96.0Q223 58 301 58Q379 58 421.0 96.0Q463 134 463 189V196Q463 228 451.0 254.0Q439 280 417.0 298.0Q395 316 365.5 325.5Q336 335 301 335Z" transform="translate(179.284 112.640) scale(0.008000 -0.008000)"/><path d="M337 726Q386 726 428.0 715.0Q470 704 498 688Q511 680 514.0 668.5Q517 657 511 643Q505 630 493.5 626.0Q482 622 468 629Q439 643 407.5 651.0Q376 659 336 659Q286 659 251.0 638.5Q216 618 192.0 580.0Q168 542 155.0 486.5Q142 431 138 362Q150 386 169.5 404.0Q189 422 214.0 435.0Q239 448 267.0 454.5Q295 461 325 461Q376 461 417.0 445.5Q458 430 487.5 401.0Q517 372 532.5 330.5Q548 289 548 238V222Q548 169 530.0 126.5Q512 84 480.5 54.5Q449 25 405.5 9.0Q362 -7 311 -7Q257 -7 212.5 11.5Q168 30 135.5 67.0Q103 104 85.0 160.5Q67 217 67 293V314Q67 428 86.5 507.0Q106 586 141.0 634.5Q176 683 226.0 704.5Q276 726 337 726ZM313 397Q274 397 242.5 384.5Q211 372 189.5 351.0Q168 330 156.5 301.5Q145 273 145 241V236Q145 196 157.0 163.5Q169 131 191.0 108.0Q213 85 243.5 72.5Q274 60 310 60Q383 60 429.5 101.5Q476 143 476 224V231Q476 312 435.0 354.5Q394 397 313 397Z" transform="translate(184.084 112.640) scale(0.008000 -0.008000)"/><path d="M331 719Q346 719 357.0 712.0Q368 705 375 687L623 47Q629 31 622.5 19.5Q616 8 602 3Q587 -2 573.5 1.5Q560 5 554 22L479 221H179L103 21Q97 5 84.0 1.5Q71 -2 56 3Q42 8 36.5 19.0Q31 30 37 46L286 687Q293 705 304.5 712.0Q316 719 331 719ZM330 632Q319 596 307.0 560.5Q295 525 278 483L202 283H457L383 483Q367 524 354.0 561.0Q341 598 330 632Z" transform="translate(188.884 112.640) scale(0.008000 -0.008000)"/></g><circle cx="292" cy="55" r="28" fill="#4CC48B" stroke-width="1" opacity="1"/><g fill="#1F2937" opacity="1"><path d="M315 726Q429 726 502 685Q519 676 524.0 658.5Q529 641 519 624Q509 606 494.0 601.5Q479 597 462 605Q430 621 395.5 628.5Q361 636 317 636Q282 636 254.5 628.0Q227 620 208.0 606.0Q189 592 178.5 573.5Q168 555 168 534V524Q168 502 175.0 485.5Q182 469 200.0 455.5Q218 442 248.5 431.5Q279 421 326 411Q392 397 437.0 379.0Q482 361 510.0 336.5Q538 312 550.0 280.0Q562 248 562 208V194Q562 100 496.0 46.5Q430 -7 306 -7Q243 -7 184.5 9.5Q126 26 85 53Q66 64 63.5 82.5Q61 101 72 118Q83 135 99.0 139.5Q115 144 132 133Q170 110 215.0 96.5Q260 83 311 83Q386 83 424.0 113.0Q462 143 462 188V199Q462 224 454.0 242.5Q446 261 427.0 275.0Q408 289 377.0 299.5Q346 310 300 320Q241 332 197.5 347.5Q154 363 125.5 386.0Q97 409 83.0 441.5Q69 474 69 521V533Q69 574 85.5 609.5Q102 645 133.5 671.0Q165 697 211.0 711.5Q257 726 315 726Z" transform="translate(264.252 99.130) scale(0.011000 -0.011000)"/><path d="M292 541Q344 541 386.5 525.0Q429 509 459.5 478.5Q490 448 506.5 404.0Q523 360 523 304V302Q523 264 507.0 248.5Q491 233 452 233H150V229Q150 157 188.0 118.0Q226 79 298 79Q343 79 376.5 87.0Q410 95 442 112Q459 120 473.5 115.5Q488 111 496 94Q504 77 500.0 61.5Q496 46 481 38Q445 18 399.5 7.0Q354 -4 294 -4Q181 -4 117.0 59.5Q53 123 53 251V285Q53 412 117.5 476.5Q182 541 292 541ZM290 458Q222 458 186.0 419.5Q150 381 150 314V308H428V317Q428 382 394.0 420.0Q360 458 290 458Z" transform="translate(271.039 99.130) scale(0.011000 -0.011000)"/><path d="M291 541Q348 541 388.5 528.5Q429 516 458 497Q474 486 476.5 469.0Q479 452 468 436Q458 422 443.5 417.5Q429 413 413 423Q387 438 357.0 446.0Q327 454 291 454Q225 454 188.5 413.0Q152 372 152 283V253Q152 167 189.5 125.0Q227 83 293 83Q370 83 424 117Q441 127 457.0 123.0Q473 119 481 103Q491 87 489.0 70.0Q487 53 470 42Q439 22 394.0 9.0Q349 -4 292 -4Q180 -4 116.5 59.5Q53 123 53 252V285Q53 414 116.0 477.5Q179 541 291 541Z" transform="translate(277.353 99.130) scale(0.011000 -0.011000)"/><path d="M299 541Q414 541 479.5 476.5Q545 412 545 285V252Q545 125 479.5 60.5Q414 -4 299 -4Q184 -4 118.5 60.5Q53 125 53 252V285Q53 412 118.5 476.5Q184 541 299 541ZM299 454Q227 454 189.5 413.0Q152 372 152 282V255Q152 164 189.5 123.5Q227 83 299 83Q372 83 409.0 123.5Q446 164 446 255V282Q446 372 409.0 413.0Q372 454 299 454Z" transform="translate(283.096 99.130) scale(0.011000 -0.011000)"/><path d="M343 541Q433 541 483.0 490.5Q533 440 533 346V40Q533 19 518.0 9.0Q503 -1 484 -1Q465 -1 450.0 9.0Q435 19 435 40V323Q435 395 403.5 424.5Q372 454 315 454Q288 454 263.5 444.5Q239 435 220.5 418.0Q202 401 191.0 376.5Q180 352 180 321V40Q180 19 165.0 9.0Q150 -1 130 -1Q111 -1 96.0 9.0Q81 19 81 40V494Q81 515 95.5 524.5Q110 534 128 534Q146 534 160.5 524.5Q175 515 175 494V459H177Q196 494 241.0 517.5Q286 541 343 541Z" transform="translate(289.673 99.130) scale(0.011000 -0.011000)"/><path d="M472 745Q491 745 506.0 735.0Q521 725 521 704V39Q521 18 506.5 8.5Q492 -1 474 -1Q456 -1 441.5 8.5Q427 18 427 39V77H425Q404 37 360.0 16.5Q316 -4 262 -4Q159 -4 105.5 60.5Q52 125 52 251V285Q52 413 111.5 477.0Q171 541 271 541Q331 541 368.5 520.5Q406 500 422 475V704Q422 725 437.0 735.0Q452 745 472 745ZM284 455Q219 455 184.5 412.5Q150 370 150 281V255Q150 165 181.5 123.0Q213 81 280 81Q310 81 336.5 91.5Q363 102 382.5 121.0Q402 140 413.0 166.5Q424 193 424 225V340Q424 361 415.0 382.0Q406 403 388.0 419.0Q370 435 344.0 445.0Q318 455 284 455Z" transform="translate(296.373 99.130) scale(0.011000 -0.011000)"/><path d="M279 541Q326 541 364.5 529.0Q403 517 430.5 494.5Q458 472 473.0 439.5Q488 407 488 366V37Q488 17 474.0 8.0Q460 -1 443 -1Q426 -1 412.0 8.0Q398 17 398 37V75H397Q389 58 374.0 44.0Q359 30 339 20Q319 9 292.0 2.5Q265 -4 235 -4Q148 -4 100.0 37.0Q52 78 52 152V165Q52 198 62.5 226.0Q73 254 96.5 275.0Q120 296 158.0 307.5Q196 319 251 319H390V344Q390 402 363.0 428.5Q336 455 277 455Q206 455 143 415Q127 405 112.0 410.0Q97 415 87 430Q78 445 80.0 461.0Q82 477 98 488Q132 511 179.0 526.0Q226 541 279 541ZM254 242Q195 242 171.5 219.0Q148 196 148 160V156Q148 119 172.0 99.0Q196 79 243 79Q301 79 338 99Q364 114 377.5 136.0Q391 158 391 191V242Z" transform="translate(302.995 99.130) scale(0.011000 -0.011000)"/><path d="M325 541Q359 541 381 530Q410 516 402 479Q397 458 383.5 446.5Q370 435 352 439Q340 441 328.0 443.5Q316 446 302 446Q274 446 251.5 435.0Q229 424 213.0 404.5Q197 385 188.5 359.0Q180 333 180 302V40Q180 19 165.0 9.0Q150 -1 130 -1Q111 -1 96.0 9.0Q81 19 81 40V494Q81 515 95.5 524.5Q110 534 128 534Q147 534 161.5 524.5Q176 515 176 494V441H178Q195 481 233.0 511.0Q271 541 325 541Z" transform="translate(309.177 99.130) scale(0.011000 -0.011000)"/><path d="M473 531Q492 525 501.5 509.5Q511 494 503 474L248 -175Q240 -195 223.0 -199.5Q206 -204 187 -196Q168 -188 160.5 -173.5Q153 -159 161 -141L221 5L35 471Q27 492 37.0 507.5Q47 523 65 529Q83 536 101.5 532.0Q120 528 128 505L270 117H271L411 505Q419 527 437.5 531.5Q456 536 473 531Z" transform="translate(313.830 99.130) scale(0.011000 -0.011000)"/></g><g fill="#6B7280" opacity="1"><path d="M242 719Q256 718 263.0 710.5Q270 703 268 689L244 518H392L418 694Q421 721 452 719Q465 718 472.0 710.5Q479 703 477 689L453 518H536Q550 518 556.0 509.0Q562 500 562 487Q562 475 556.0 466.0Q550 457 536 457H444L418 267H503Q517 267 523.0 258.0Q529 249 529 236Q529 224 523.0 215.0Q517 206 503 206H410L385 27Q382 0 351 3Q337 4 330.0 11.5Q323 19 325 33L349 206H200L176 27Q171 0 141 3Q128 4 121.0 11.5Q114 19 116 33L140 206H57Q43 206 37.0 215.0Q31 224 31 236Q31 249 37.0 258.0Q43 267 57 267H148L175 457H89Q76 457 70.0 466.0Q64 475 64 487Q64 500 70.0 509.0Q76 518 89 518H183L208 694Q210 708 219.0 714.0Q228 720 242 719ZM358 267 385 457H235L209 267Z" transform="translate(274.696 112.640) scale(0.008000 -0.008000)"/><path d="M422 712Q435 704 438.5 692.0Q442 680 432 665L126 225H403V427Q403 443 414.0 450.0Q425 457 439 457Q453 457 464.5 450.0Q476 443 476 427V225H561Q575 225 580.5 216.0Q586 207 586 194Q586 181 580.5 172.0Q575 163 561 163H476V30Q476 14 464.5 7.0Q453 0 439 0Q425 0 414.0 7.0Q403 14 403 30V163H89Q60 163 48.5 172.0Q37 181 37 200Q37 208 41.0 217.0Q45 226 62 250L377 705Q386 718 398.5 719.0Q411 720 422 712Z" transform="translate(279.464 112.640) scale(0.008000 -0.008000)"/><path d="M351 726Q418 726 468.0 711.5Q518 697 556 673Q569 664 570.5 651.0Q572 638 564 625Q556 614 544.5 610.5Q533 607 520 615Q485 637 446.0 647.5Q407 658 349 658Q138 658 138 379V340Q138 202 189.5 132.0Q241 62 351 62Q411 62 456.5 76.5Q502 91 539 120Q550 128 563.0 126.0Q576 124 585 112Q595 99 593.5 85.0Q592 71 578 61Q537 29 481.0 11.0Q425 -7 350 -7Q207 -7 135.5 78.5Q64 164 64 332V387Q64 555 136.0 640.5Q208 726 351 726Z" transform="translate(284.264 112.640) scale(0.008000 -0.008000)"/><path d="M351 726Q418 726 468.0 711.5Q518 697 556 673Q569 664 570.5 651.0Q572 638 564 625Q556 614 544.5 610.5Q533 607 520 615Q485 637 446.0 647.5Q407 658 349 658Q138 658 138 379V340Q138 202 189.5 132.0Q241 62 351 62Q411 62 456.5 76.5Q502 91 539 120Q550 128 563.0 126.0Q576 124 585 112Q595 99 593.5 85.0Q592 71 578 61Q537 29 481.0 11.0Q425 -7 350 -7Q207 -7 135.5 78.5Q64 164 64 332V387Q64 555 136.0 640.5Q208 726 351 726Z" transform="translate(289.424 112.640) scale(0.008000 -0.008000)"/><path d="M422 712Q435 704 438.5 692.0Q442 680 432 665L126 225H403V427Q403 443 414.0 450.0Q425 457 439 457Q453 457 464.5 450.0Q476 443 476 427V225H561Q575 225 580.5 216.0Q586 207 586 194Q586 181 580.5 172.0Q575 163 561 163H476V30Q476 14 464.5 7.0Q453 0 439 0Q425 0 414.0 7.0Q403 14 403 30V163H89Q60 163 48.5 172.0Q37 181 37 200Q37 208 41.0 217.0Q45 226 62 250L377 705Q386 718 398.5 719.0Q411 720 422 712Z" transform="translate(294.584 112.640) scale(0.008000 -0.008000)"/><path d="M300 726Q349 726 388.5 712.0Q428 698 456.0 673.0Q484 648 499.0 615.0Q514 582 514 543V532Q514 477 483.5 434.5Q453 392 400 368Q463 351 499.5 304.5Q536 258 536 199V187Q536 144 519.0 108.0Q502 72 471.5 46.5Q441 21 397.5 7.0Q354 -7 301 -7Q247 -7 203.0 7.0Q159 21 128.5 46.5Q98 72 81.0 108.0Q64 144 64 187V199Q64 259 100.5 305.0Q137 351 199 368Q147 391 116.5 434.0Q86 477 86 532V543Q86 582 101.0 615.0Q116 648 143.5 673.0Q171 698 210.5 712.0Q250 726 300 726ZM300 661Q232 661 194.5 626.0Q157 591 157 536V529Q157 500 167.5 476.5Q178 453 197.0 436.0Q216 419 242.5 409.5Q269 400 301 400Q365 400 404.0 436.0Q443 472 443 529V536Q443 591 404.5 626.0Q366 661 300 661ZM301 335Q266 335 236.5 326.0Q207 317 184.5 299.0Q162 281 149.5 255.0Q137 229 137 196V189Q137 134 180.0 96.0Q223 58 301 58Q379 58 421.0 96.0Q463 134 463 189V196Q463 228 451.0 254.0Q439 280 417.0 298.0Q395 316 365.5 325.5Q336 335 301 335Z" transform="translate(299.384 112.640) scale(0.008000 -0.008000)"/><path d="M336 715Q451 715 505.0 672.0Q559 629 559 539V523Q559 499 553.0 476.5Q547 454 533.0 434.5Q519 415 496.5 400.5Q474 386 442 378Q512 368 552.0 329.0Q592 290 592 214V194Q592 105 538.5 54.5Q485 4 369 4H159Q121 4 106.5 18.0Q92 32 92 70V649Q92 687 106.5 701.0Q121 715 159 715ZM326 407Q405 407 445.0 434.0Q485 461 485 524V537Q485 595 447.5 623.5Q410 652 321 652H164V407ZM349 67Q434 67 475.5 97.0Q517 127 517 199V216Q517 247 507.5 271.5Q498 296 475.5 312.0Q453 328 417.0 336.5Q381 345 328 345H164V67Z" transform="translate(304.184 112.640) scale(0.008000 -0.008000)"/></g><circle cx="407" cy="55" r="28" fill="#A8DCC8" stroke-width="1" opacity="1"/><g fill="#1F2937" opacity="1"><path d="M168 717Q184 717 196.0 714.5Q208 712 217.5 704.0Q227 696 236.0 681.0Q245 666 255 641L433 239L606 640Q615 664 624.0 679.0Q633 694 643.0 702.5Q653 711 665.0 714.0Q677 717 694 717H709Q746 717 760.5 701.5Q775 686 775 646V39Q775 18 761.0 8.5Q747 -1 728 -1Q709 -1 694.5 8.5Q680 18 680 39V619Q669 583 660.5 558.0Q652 533 641 508L487 160Q477 136 465.0 127.5Q453 119 433 119Q410 119 397.0 128.0Q384 137 374 162L222 508Q211 532 201.5 557.5Q192 583 181 619V39Q181 18 166.5 8.5Q152 -1 133 -1Q115 -1 100.5 8.5Q86 18 86 39V646Q86 686 101.0 701.5Q116 717 153 717H168Z" transform="translate(395.241 99.130) scale(0.011000 -0.011000)"/><path d="M133 732Q161 732 180.0 713.5Q199 695 199 669Q199 642 180.0 623.5Q161 605 133 605Q105 605 86.0 623.5Q67 642 67 669Q67 695 86.0 713.5Q105 732 133 732ZM133 534Q153 534 167.5 524.0Q182 514 182 493V40Q182 19 167.5 9.0Q153 -1 133 -1Q114 -1 99.0 9.0Q84 19 84 40V493Q84 514 99.0 524.0Q114 534 133 534Z" transform="translate(404.723 99.130) scale(0.011000 -0.011000)"/><path d="M343 541Q433 541 483.0 490.5Q533 440 533 346V40Q533 19 518.0 9.0Q503 -1 484 -1Q465 -1 450.0 9.0Q435 19 435 40V323Q435 395 403.5 424.5Q372 454 315 454Q288 454 263.5 444.5Q239 435 220.5 418.0Q202 401 191.0 376.5Q180 352 180 321V40Q180 19 165.0 9.0Q150 -1 130 -1Q111 -1 96.0 9.0Q81 19 81 40V494Q81 515 95.5 524.5Q110 534 128 534Q146 534 160.5 524.5Q175 515 175 494V459H177Q196 494 241.0 517.5Q286 541 343 541Z" transform="translate(407.649 99.130) scale(0.011000 -0.011000)"/><path d="M163 674Q183 674 198.0 664.0Q213 654 213 632V529H329Q346 529 354.5 517.0Q363 505 363 488Q363 471 354.5 459.5Q346 448 329 448H213V162Q213 117 227.0 98.5Q241 80 274 80Q299 80 323 89Q337 94 350.0 88.5Q363 83 369 64Q375 47 369.5 33.0Q364 19 349 12Q314 -4 267 -4Q186 -4 150.0 35.0Q114 74 114 162V448H54Q37 448 28.5 459.5Q20 471 20 488Q20 505 28.5 517.0Q37 529 54 529H114V632Q114 654 129.0 664.0Q144 674 163 674Z" transform="translate(414.348 99.130) scale(0.011000 -0.011000)"/></g><g fill="#6B7280" opacity="1"><path d="M242 719Q256 718 263.0 710.5Q270 703 268 689L244 518H392L418 694Q421 721 452 719Q465 718 472.0 710.5Q479 703 477 689L453 518H536Q550 518 556.0 509.0Q562 500 562 487Q562 475 556.0 466.0Q550 457 536 457H444L418 267H503Q517 267 523.0 258.0Q529 249 529 236Q529 224 523.0 215.0Q517 206 503 206H410L385 27Q382 0 351 3Q337 4 330.0 11.5Q323 19 325 33L349 206H200L176 27Q171 0 141 3Q128 4 121.0 11.5Q114 19 116 33L140 206H57Q43 206 37.0 215.0Q31 224 31 236Q31 249 37.0 258.0Q43 267 57 267H148L175 457H89Q76 457 70.0 466.0Q64 475 64 487Q64 500 70.0 509.0Q76 518 89 518H183L208 694Q210 708 219.0 714.0Q228 720 242 719ZM358 267 385 457H235L209 267Z" transform="translate(389.284 112.640) scale(0.008000 -0.008000)"/><path d="M331 719Q346 719 357.0 712.0Q368 705 375 687L623 47Q629 31 622.5 19.5Q616 8 602 3Q587 -2 573.5 1.5Q560 5 554 22L479 221H179L103 21Q97 5 84.0 1.5Q71 -2 56 3Q42 8 36.5 19.0Q31 30 37 46L286 687Q293 705 304.5 712.0Q316 719 331 719ZM330 632Q319 596 307.0 560.5Q295 525 278 483L202 283H457L383 483Q367 524 354.0 561.0Q341 598 330 632Z" transform="translate(394.052 112.640) scale(0.008000 -0.008000)"/><path d="M300 726Q349 726 388.5 712.0Q428 698 456.0 673.0Q484 648 499.0 615.0Q514 582 514 543V532Q514 477 483.5 434.5Q453 392 400 368Q463 351 499.5 304.5Q536 258 536 199V187Q536 144 519.0 108.0Q502 72 471.5 46.5Q441 21 397.5 7.0Q354 -7 301 -7Q247 -7 203.0 7.0Q159 21 128.5 46.5Q98 72 81.0 108.0Q64 144 64 187V199Q64 259 100.5 305.0Q137 351 199 368Q147 391 116.5 434.0Q86 477 86 532V543Q86 582 101.0 615.0Q116 648 143.5 673.0Q171 698 210.5 712.0Q250 726 300 726ZM300 661Q232 661 194.5 626.0Q157 591 157 536V529Q157 500 167.5 476.5Q178 453 197.0 436.0Q216 419 242.5 409.5Q269 400 301 400Q365 400 404.0 436.0Q443 472 443 529V536Q443 591 404.5 626.0Q366 661 300 661ZM301 335Q266 335 236.5 326.0Q207 317 184.5 299.0Q162 281 149.5 255.0Q137 229 137 196V189Q137 134 180.0 96.0Q223 58 301 58Q379 58 421.0 96.0Q463 134 463 189V196Q463 228 451.0 254.0Q439 280 417.0 298.0Q395 316 365.5 325.5Q336 335 301 335Z" transform="translate(399.332 112.640) scale(0.008000 -0.008000)"/><path d="M320 715Q471 715 545.5 635.0Q620 555 620 397V322Q620 164 542.0 84.0Q464 4 320 4H159Q121 4 106.5 18.0Q92 32 92 70V649Q92 687 106.5 701.0Q121 715 159 715ZM313 68Q428 68 487.0 132.0Q546 196 546 326V390Q546 521 491.5 586.0Q437 651 312 651H165V68Z" transform="translate(404.132 112.640) scale(0.008000 -0.008000)"/><path d="M351 726Q418 726 468.0 711.5Q518 697 556 673Q569 664 570.5 651.0Q572 638 564 625Q556 614 544.5 610.5Q533 607 520 615Q485 637 446.0 647.5Q407 658 349 658Q138 658 138 379V340Q138 202 189.5 132.0Q241 62 351 62Q411 62 456.5 76.5Q502 91 539 120Q550 128 563.0 126.0Q576 124 585 112Q595 99 593.5 85.0Q592 71 578 61Q537 29 481.0 11.0Q425 -7 350 -7Q207 -7 135.5 78.5Q64 164 64 332V387Q64 555 136.0 640.5Q208 726 351 726Z" transform="translate(409.596 112.640) scale(0.008000 -0.008000)"/><path d="M351 726Q418 726 468.0 711.5Q518 697 556 673Q569 664 570.5 651.0Q572 638 564 625Q556 614 544.5 610.5Q533 607 520 615Q485 637 446.0 647.5Q407 658 349 658Q138 658 138 379V340Q138 202 189.5 132.0Q241 62 351 62Q411 62 456.5 76.5Q502 91 539 120Q550 128 563.0 126.0Q576 124 585 112Q595 99 593.5 85.0Q592 71 578 61Q537 29 481.0 11.0Q425 -7 350 -7Q207 -7 135.5 78.5Q64 164 64 332V387Q64 555 136.0 640.5Q208 726 351 726Z" transform="translate(414.756 112.640) scale(0.008000 -0.008000)"/><path d="M300 726Q349 726 388.5 712.0Q428 698 456.0 673.0Q484 648 499.0 615.0Q514 582 514 543V532Q514 477 483.5 434.5Q453 392 400 368Q463 351 499.5 304.5Q536 258 536 199V187Q536 144 519.0 108.0Q502 72 471.5 46.5Q441 21 397.5 7.0Q354 -7 301 -7Q247 -7 203.0 7.0Q159 21 128.5 46.5Q98 72 81.0 108.0Q64 144 64 187V199Q64 259 100.5 305.0Q137 351 199 368Q147 391 116.5 434.0Q86 477 86 532V543Q86 582 101.0 615.0Q116 648 143.5 673.0Q171 698 210.5 712.0Q250 726 300 726ZM300 661Q232 661 194.5 626.0Q157 591 157 536V529Q157 500 167.5 476.5Q178 453 197.0 436.0Q216 419 242.5 409.5Q269 400 301 400Q365 400 404.0 436.0Q443 472 443 529V536Q443 591 404.5 626.0Q366 661 300 661ZM301 335Q266 335 236.5 326.0Q207 317 184.5 299.0Q162 281 149.5 255.0Q137 229 137 196V189Q137 134 180.0 96.0Q223 58 301 58Q379 58 421.0 96.0Q463 134 463 189V196Q463 228 451.0 254.0Q439 280 417.0 298.0Q395 316 365.5 325.5Q336 335 301 335Z" transform="translate(419.916 112.640) scale(0.008000 -0.008000)"/></g><circle cx="522" cy="55" r="28" fill="#E9F7EC" stroke-width="1" opacity="1"/><g fill="#1F2937" opacity="1"><path d="M342 715Q404 715 449.5 700.5Q495 686 525.0 659.0Q555 632 569.5 594.0Q584 556 584 510V495Q584 449 569.0 410.0Q554 371 523.5 342.5Q493 314 447.5 298.0Q402 282 341 282H187V41Q187 19 171.5 9.0Q156 -1 136 -1Q116 -1 101.0 9.0Q86 19 86 41V641Q86 683 102.5 699.0Q119 715 163 715ZM329 367Q407 367 445.5 398.0Q484 429 484 496V508Q484 573 447.0 601.5Q410 630 339 630H187V367Z" transform="translate(510.890 99.130) scale(0.011000 -0.011000)"/><path d="M279 541Q326 541 364.5 529.0Q403 517 430.5 494.5Q458 472 473.0 439.5Q488 407 488 366V37Q488 17 474.0 8.0Q460 -1 443 -1Q426 -1 412.0 8.0Q398 17 398 37V75H397Q389 58 374.0 44.0Q359 30 339 20Q319 9 292.0 2.5Q265 -4 235 -4Q148 -4 100.0 37.0Q52 78 52 152V165Q52 198 62.5 226.0Q73 254 96.5 275.0Q120 296 158.0 307.5Q196 319 251 319H390V344Q390 402 363.0 428.5Q336 455 277 455Q206 455 143 415Q127 405 112.0 410.0Q97 415 87 430Q78 445 80.0 461.0Q82 477 98 488Q132 511 179.0 526.0Q226 541 279 541ZM254 242Q195 242 171.5 219.0Q148 196 148 160V156Q148 119 172.0 99.0Q196 79 243 79Q301 79 338 99Q364 114 377.5 136.0Q391 158 391 191V242Z" transform="translate(517.743 99.130) scale(0.011000 -0.011000)"/><path d="M130 745Q150 745 165.0 735.0Q180 725 180 703V41Q180 19 165.0 9.0Q150 -1 130 -1Q111 -1 96.0 9.0Q81 19 81 41V703Q81 725 96.0 735.0Q111 745 130 745Z" transform="translate(523.925 99.130) scale(0.011000 -0.011000)"/><path d="M292 541Q344 541 386.5 525.0Q429 509 459.5 478.5Q490 448 506.5 404.0Q523 360 523 304V302Q523 264 507.0 248.5Q491 233 452 233H150V229Q150 157 188.0 118.0Q226 79 298 79Q343 79 376.5 87.0Q410 95 442 112Q459 120 473.5 115.5Q488 111 496 94Q504 77 500.0 61.5Q496 46 481 38Q445 18 399.5 7.0Q354 -4 294 -4Q181 -4 117.0 59.5Q53 123 53 251V285Q53 412 117.5 476.5Q182 541 292 541ZM290 458Q222 458 186.0 419.5Q150 381 150 314V308H428V317Q428 382 394.0 420.0Q360 458 290 458Z" transform="translate(526.796 99.130) scale(0.011000 -0.011000)"/></g><g fill="#6B7280" opacity="1"><path d="M242 719Q256 718 263.0 710.5Q270 703 268 689L244 518H392L418 694Q421 721 452 719Q465 718 472.0 710.5Q479 703 477 689L453 518H536Q550 518 556.0 509.0Q562 500 562 487Q562 475 556.0 466.0Q550 457 536 457H444L418 267H503Q517 267 523.0 258.0Q529 249 529 236Q529 224 523.0 215.0Q517 206 503 206H410L385 27Q382 0 351 3Q337 4 330.0 11.5Q323 19 325 33L349 206H200L176 27Q171 0 141 3Q128 4 121.0 11.5Q114 19 116 33L140 206H57Q43 206 37.0 215.0Q31 224 31 236Q31 249 37.0 258.0Q43 267 57 267H148L175 457H89Q76 457 70.0 466.0Q64 475 64 487Q64 500 70.0 509.0Q76 518 89 518H183L208 694Q210 708 219.0 714.0Q228 720 242 719ZM358 267 385 457H235L209 267Z" transform="translate(505.096 112.640) scale(0.008000 -0.008000)"/><path d="M506 715Q520 715 526.0 706.0Q532 697 532 683Q532 670 526.0 661.0Q520 652 506 652H165V400H486Q499 400 505.0 391.0Q511 382 511 369Q511 356 505.0 347.0Q499 338 486 338H165V67H513Q527 67 533.0 58.0Q539 49 539 36Q539 22 533.0 13.0Q527 4 513 4H159Q121 4 106.5 18.0Q92 32 92 70V649Q92 687 106.5 701.0Q121 715 159 715H506Z" transform="translate(509.864 112.640) scale(0.008000 -0.008000)"/><path d="M294 726Q349 726 394.0 708.0Q439 690 471.0 653.0Q503 616 520.5 559.5Q538 503 538 427V405Q538 285 519.5 206.0Q501 127 466.0 79.5Q431 32 381.0 12.5Q331 -7 268 -7Q219 -7 177.5 4.0Q136 15 107 32Q81 49 95 78Q101 92 113.0 96.0Q125 100 139 93Q167 77 199.5 68.5Q232 60 271 60Q319 60 354.5 76.5Q390 93 414.0 128.0Q438 163 451.0 219.0Q464 275 467 355Q455 331 435.5 313.0Q416 295 391.0 282.0Q366 269 338.0 262.5Q310 256 280 256Q229 256 188.0 271.5Q147 287 117.5 316.0Q88 345 72.5 386.0Q57 427 57 479V497Q57 550 75.0 592.5Q93 635 124.5 664.5Q156 694 199.5 710.0Q243 726 294 726ZM295 659Q222 659 175.5 617.5Q129 576 129 495V486Q129 405 170.0 362.5Q211 320 292 320Q331 320 362.5 332.5Q394 345 415.5 366.5Q437 388 448.5 416.5Q460 445 460 477V483Q460 523 448.0 556.0Q436 589 414.5 611.5Q393 634 362.5 646.5Q332 659 295 659Z" transform="translate(514.704 112.640) scale(0.008000 -0.008000)"/><path d="M499 715Q513 715 519.0 706.0Q525 697 525 683Q525 669 519.0 660.0Q513 651 499 651H165V388H478Q492 388 498.0 379.0Q504 370 504 357Q504 343 498.0 334.0Q492 325 478 325H165V30Q165 14 154.0 7.0Q143 0 128 0Q114 0 103.0 7.0Q92 14 92 30V649Q92 687 106.5 701.0Q121 715 159 715H499Z" transform="translate(519.504 112.640) scale(0.008000 -0.008000)"/><path d="M495 715Q524 715 536.0 705.5Q548 696 548 676Q548 665 544.0 652.0Q540 639 527 611L258 19Q251 4 237.5 1.5Q224 -1 211 4Q199 9 192.5 20.5Q186 32 194 48L470 651H84Q70 651 63.5 660.0Q57 669 57 683Q57 697 63.5 706.0Q70 715 84 715H495Z" transform="translate(524.104 112.640) scale(0.008000 -0.008000)"/><path d="M506 715Q520 715 526.0 706.0Q532 697 532 683Q532 670 526.0 661.0Q520 652 506 652H165V400H486Q499 400 505.0 391.0Q511 382 511 369Q511 356 505.0 347.0Q499 338 486 338H165V67H513Q527 67 533.0 58.0Q539 49 539 36Q539 22 533.0 13.0Q527 4 513 4H159Q121 4 106.5 18.0Q92 32 92 70V649Q92 687 106.5 701.0Q121 715 159 715H506Z" transform="translate(528.904 112.640) scale(0.008000 -0.008000)"/><path d="M351 726Q418 726 468.0 711.5Q518 697 556 673Q569 664 570.5 651.0Q572 638 564 625Q556 614 544.5 610.5Q533 607 520 615Q485 637 446.0 647.5Q407 658 349 658Q138 658 138 379V340Q138 202 189.5 132.0Q241 62 351 62Q411 62 456.5 76.5Q502 91 539 120Q550 128 563.0 126.0Q576 124 585 112Q595 99 593.5 85.0Q592 71 578 61Q537 29 481.0 11.0Q425 -7 350 -7Q207 -7 135.5 78.5Q64 164 64 332V387Q64 555 136.0 640.5Q208 726 351 726Z" transform="translate(533.744 112.640) scale(0.008000 -0.008000)"/></g><circle cx="637" cy="55" r="28" fill="#FFF2C6" stroke-width="1" opacity="1"/><g fill="#1F2937" opacity="1"><path d="M560 714Q578 706 585.5 690.0Q593 674 580 652L367 289V41Q367 19 352.0 9.0Q337 -1 317 -1Q297 -1 282.0 9.0Q267 19 267 41V289L54 651Q43 670 48.5 686.5Q54 703 73 713Q90 723 109.0 719.0Q128 715 139 695L320 381L495 694Q506 714 523.5 718.5Q541 723 560 714Z" transform="translate(619.933 99.130) scale(0.011000 -0.011000)"/><path d="M292 541Q344 541 386.5 525.0Q429 509 459.5 478.5Q490 448 506.5 404.0Q523 360 523 304V302Q523 264 507.0 248.5Q491 233 452 233H150V229Q150 157 188.0 118.0Q226 79 298 79Q343 79 376.5 87.0Q410 95 442 112Q459 120 473.5 115.5Q488 111 496 94Q504 77 500.0 61.5Q496 46 481 38Q445 18 399.5 7.0Q354 -4 294 -4Q181 -4 117.0 59.5Q53 123 53 251V285Q53 412 117.5 476.5Q182 541 292 541ZM290 458Q222 458 186.0 419.5Q150 381 150 314V308H428V317Q428 382 394.0 420.0Q360 458 290 458Z" transform="translate(626.885 99.130) scale(0.011000 -0.011000)"/><path d="M130 745Q150 745 165.0 735.0Q180 725 180 703V41Q180 19 165.0 9.0Q150 -1 130 -1Q111 -1 96.0 9.0Q81 19 81 41V703Q81 725 96.0 735.0Q111 745 130 745Z" transform="translate(633.199 99.130) scale(0.011000 -0.011000)"/><path d="M130 745Q150 745 165.0 735.0Q180 725 180 703V41Q180 19 165.0 9.0Q150 -1 130 -1Q111 -1 96.0 9.0Q81 19 81 41V703Q81 725 96.0 735.0Q111 745 130 745Z" transform="translate(636.070 99.130) scale(0.011000 -0.011000)"/><path d="M299 541Q414 541 479.5 476.5Q545 412 545 285V252Q545 125 479.5 60.5Q414 -4 299 -4Q184 -4 118.5 60.5Q53 125 53 252V285Q53 412 118.5 476.5Q184 541 299 541ZM299 454Q227 454 189.5 413.0Q152 372 152 282V255Q152 164 189.5 123.5Q227 83 299 83Q372 83 409.0 123.5Q446 164 446 255V282Q446 372 409.0 413.0Q372 454 299 454Z" transform="translate(638.941 99.130) scale(0.011000 -0.011000)"/><path d="M391 534Q410 534 426.0 523.0Q442 512 449 486L553 104H556L650 497Q656 523 672.0 530.0Q688 537 708 532Q729 527 738.5 512.5Q748 498 742 475L628 52Q620 23 603.0 11.0Q586 -1 559 -1Q504 -1 490 51L391 403H388L289 51Q276 -1 220 -1Q165 -1 151 51L36 473Q30 496 40.0 511.5Q50 527 71 532Q92 537 110.0 529.5Q128 522 133 495L224 104H227L333 485Q339 512 355.5 523.0Q372 534 391 534Z" transform="translate(645.519 99.130) scale(0.011000 -0.011000)"/></g><g fill="#6B7280" opacity="1"><path d="M242 719Q256 718 263.0 710.5Q270 703 268 689L244 518H392L418 694Q421 721 452 719Q465 718 472.0 710.5Q479 703 477 689L453 518H536Q550 518 556.0 509.0Q562 500 562 487Q562 475 556.0 466.0Q550 457 536 457H444L418 267H503Q517 267 523.0 258.0Q529 249 529 236Q529 224 523.0 215.0Q517 206 503 206H410L385 27Q382 0 351 3Q337 4 330.0 11.5Q323 19 325 33L349 206H200L176 27Q171 0 141 3Q128 4 121.0 11.5Q114 19 116 33L140 206H57Q43 206 37.0 215.0Q31 224 31 236Q31 249 37.0 258.0Q43 267 57 267H148L175 457H89Q76 457 70.0 466.0Q64 475 64 487Q64 500 70.0 509.0Q76 518 89 518H183L208 694Q210 708 219.0 714.0Q228 720 242 719ZM358 267 385 457H235L209 267Z" transform="translate(620.336 112.640) scale(0.008000 -0.008000)"/><path d="M499 715Q513 715 519.0 706.0Q525 697 525 683Q525 669 519.0 660.0Q513 651 499 651H165V388H478Q492 388 498.0 379.0Q504 370 504 357Q504 343 498.0 334.0Q492 325 478 325H165V30Q165 14 154.0 7.0Q143 0 128 0Q114 0 103.0 7.0Q92 14 92 30V649Q92 687 106.5 701.0Q121 715 159 715H499Z" transform="translate(625.104 112.640) scale(0.008000 -0.008000)"/><path d="M499 715Q513 715 519.0 706.0Q525 697 525 683Q525 669 519.0 660.0Q513 651 499 651H165V388H478Q492 388 498.0 379.0Q504 370 504 357Q504 343 498.0 334.0Q492 325 478 325H165V30Q165 14 154.0 7.0Q143 0 128 0Q114 0 103.0 7.0Q92 14 92 30V649Q92 687 106.5 701.0Q121 715 159 715H499Z" transform="translate(629.704 112.640) scale(0.008000 -0.008000)"/><path d="M499 715Q513 715 519.0 706.0Q525 697 525 683Q525 669 519.0 660.0Q513 651 499 651H165V388H478Q492 388 498.0 379.0Q504 370 504 357Q504 343 498.0 334.0Q492 325 478 325H165V30Q165 14 154.0 7.0Q143 0 128 0Q114 0 103.0 7.0Q92 14 92 30V649Q92 687 106.5 701.0Q121 715 159 715H499Z" transform="translate(634.304 112.640) scale(0.008000 -0.008000)"/><path d="M300 726Q352 726 392.0 712.5Q432 699 459.0 675.0Q486 651 499.5 619.0Q513 587 513 550V541Q513 513 507.5 488.5Q502 464 490.5 440.0Q479 416 461.0 392.0Q443 368 418 341L169 67H517Q531 67 537.5 58.0Q544 49 544 36Q544 22 537.5 13.0Q531 4 517 4H128Q98 4 85.5 13.5Q73 23 73 43Q73 53 78.5 63.0Q84 73 100 91L355 371Q380 399 396.5 421.0Q413 443 423.0 462.5Q433 482 436.5 500.0Q440 518 440 539V545Q440 598 405.0 629.0Q370 660 302 660Q246 660 209.0 636.0Q172 612 143 568Q135 557 122.5 554.5Q110 552 98 560Q86 568 82.5 580.5Q79 593 87 606Q119 657 171.0 691.5Q223 726 300 726Z" transform="translate(638.904 112.640) scale(0.008000 -0.008000)"/><path d="M351 726Q418 726 468.0 711.5Q518 697 556 673Q569 664 570.5 651.0Q572 638 564 625Q556 614 544.5 610.5Q533 607 520 615Q485 637 446.0 647.5Q407 658 349 658Q138 658 138 379V340Q138 202 189.5 132.0Q241 62 351 62Q411 62 456.5 76.5Q502 91 539 120Q550 128 563.0 126.0Q576 124 585 112Q595 99 593.5 85.0Q592 71 578 61Q537 29 481.0 11.0Q425 -7 350 -7Q207 -7 135.5 78.5Q64 164 64 332V387Q64 555 136.0 640.5Q208 726 351 726Z" transform="translate(643.704 112.640) scale(0.008000 -0.008000)"/><path d="M337 726Q386 726 428.0 715.0Q470 704 498 688Q511 680 514.0 668.5Q517 657 511 643Q505 630 493.5 626.0Q482 622 468 629Q439 643 407.5 651.0Q376 659 336 659Q286 659 251.0 638.5Q216 618 192.0 580.0Q168 542 155.0 486.5Q142 431 138 362Q150 386 169.5 404.0Q189 422 214.0 435.0Q239 448 267.0 454.5Q295 461 325 461Q376 461 417.0 445.5Q458 430 487.5 401.0Q517 372 532.5 330.5Q548 289 548 238V222Q548 169 530.0 126.5Q512 84 480.5 54.5Q449 25 405.5 9.0Q362 -7 311 -7Q257 -7 212.5 11.5Q168 30 135.5 67.0Q103 104 85.0 160.5Q67 217 67 293V314Q67 428 86.5 507.0Q106 586 141.0 634.5Q176 683 226.0 704.5Q276 726 337 726ZM313 397Q274 397 242.5 384.5Q211 372 189.5 351.0Q168 330 156.5 301.5Q145 273 145 241V236Q145 196 157.0 163.5Q169 131 191.0 108.0Q213 85 243.5 72.5Q274 60 310 60Q383 60 429.5 101.5Q476 143 476 224V231Q476 312 435.0 354.5Q394 397 313 397Z" transform="translate(648.864 112.640) scale(0.008000 -0.008000)"/></g><circle cx="62" cy="155" r="28" fill="#FFB04D" stroke-width="1" opacity="1"/><g fill="#1F2937" opacity="1"><path d="M356 726Q500 726 576.5 642.0Q653 558 653 383V336Q653 161 576.5 77.0Q500 -7 356 -7Q212 -7 135.5 77.0Q59 161 59 336V383Q59 558 135.5 642.0Q212 726 356 726ZM356 635Q257 635 208.5 574.5Q160 514 160 375V344Q160 205 208.5 145.0Q257 85 356 85Q455 85 503.5 145.0Q552 205 552 344V375Q552 514 503.5 574.5Q455 635 356 635Z" transform="translate(42.849 199.130) scale(0.011000 -0.011000)"/><path d="M325 541Q359 541 381 530Q410 516 402 479Q397 458 383.5 446.5Q370 435 352 439Q340 441 328.0 443.5Q316 446 302 446Q274 446 251.5 435.0Q229 424 213.0 404.5Q197 385 188.5 359.0Q180 333 180 302V40Q180 19 165.0 9.0Q150 -1 130 -1Q111 -1 96.0 9.0Q81 19 81 40V494Q81 515 95.5 524.5Q110 534 128 534Q147 534 161.5 524.5Q176 515 176 494V441H178Q195 481 233.0 511.0Q271 541 325 541Z" transform="translate(50.681 199.130) scale(0.011000 -0.011000)"/><path d="M279 541Q326 541 364.5 529.0Q403 517 430.5 494.5Q458 472 473.0 439.5Q488 407 488 366V37Q488 17 474.0 8.0Q460 -1 443 -1Q426 -1 412.0 8.0Q398 17 398 37V75H397Q389 58 374.0 44.0Q359 30 339 20Q319 9 292.0 2.5Q265 -4 235 -4Q148 -4 100.0 37.0Q52 78 52 152V165Q52 198 62.5 226.0Q73 254 96.5 275.0Q120 296 158.0 307.5Q196 319 251 319H390V344Q390 402 363.0 428.5Q336 455 277 455Q206 455 143 415Q127 405 112.0 410.0Q97 415 87 430Q78 445 80.0 461.0Q82 477 98 488Q132 511 179.0 526.0Q226 541 279 541ZM254 242Q195 242 171.5 219.0Q148 196 148 160V156Q148 119 172.0 99.0Q196 79 243 79Q301 79 338 99Q364 114 377.5 136.0Q391 158 391 191V242Z" transform="translate(55.334 199.130) scale(0.011000 -0.011000)"/><path d="M343 541Q433 541 483.0 490.5Q533 440 533 346V40Q533 19 518.0 9.0Q503 -1 484 -1Q465 -1 450.0 9.0Q435 19 435 40V323Q435 395 403.5 424.5Q372 454 315 454Q288 454 263.5 444.5Q239 435 220.5 418.0Q202 401 191.0 376.5Q180 352 180 321V40Q180 19 165.0 9.0Q150 -1 130 -1Q111 -1 96.0 9.0Q81 19 81 40V494Q81 515 95.5 524.5Q110 534 128 534Q146 534 160.5 524.5Q175 515 175 494V459H177Q196 494 241.0 517.5Q286 541 343 541Z" transform="translate(61.516 199.130) scale(0.011000 -0.011000)"/><path d="M271 541Q331 541 370.0 520.0Q409 499 425 474H426V494Q426 515 440.5 524.5Q455 534 474 534Q492 534 506.5 524.5Q521 515 521 494V19Q521 -96 460.0 -150.5Q399 -205 280 -205Q233 -205 192.0 -193.5Q151 -182 121 -164Q104 -154 102.5 -136.5Q101 -119 109 -104Q119 -87 133.0 -82.0Q147 -77 165 -86Q188 -100 218.0 -109.5Q248 -119 280 -119Q349 -119 386.5 -86.5Q424 -54 424 20V91H422Q401 50 358.5 30.0Q316 10 262 10Q159 10 105.5 74.0Q52 138 52 261V289Q52 414 111.5 477.5Q171 541 271 541ZM284 455Q219 455 184.5 413.0Q150 371 150 285V265Q150 178 181.5 136.5Q213 95 280 95Q310 95 336.5 105.5Q363 116 382.5 135.0Q402 154 413.0 180.5Q424 207 424 239V340Q424 361 415.0 382.0Q406 403 388.0 419.0Q370 435 344.0 445.0Q318 455 284 455Z" transform="translate(68.215 199.130) scale(0.011000 -0.011000)"/><path d="M292 541Q344 541 386.5 525.0Q429 509 459.5 478.5Q490 448 506.5 404.0Q523 360 523 304V302Q523 264 507.0 248.5Q491 233 452 233H150V229Q150 157 188.0 118.0Q226 79 298 79Q343 79 376.5 87.0Q410 95 442 112Q459 120 473.5 115.5Q488 111 496 94Q504 77 500.0 61.5Q496 46 481 38Q445 18 399.5 7.0Q354 -4 294 -4Q181 -4 117.0 59.5Q53 123 53 251V285Q53 412 117.5 476.5Q182 541 292 541ZM290 458Q222 458 186.0 419.5Q150 381 150 314V308H428V317Q428 382 394.0 420.0Q360 458 290 458Z" transform="translate(74.837 199.130) scale(0.011000 -0.011000)"/></g><g fill="#6B7280" opacity="1"><path d="M242 719Q256 718 263.0 710.5Q270 703 268 689L244 518H392L418 694Q421 721 452 719Q465 718 472.0 710.5Q479 703 477 689L453 518H536Q550 518 556.0 509.0Q562 500 562 487Q562 475 556.0 466.0Q550 457 536 457H444L418 267H503Q517 267 523.0 258.0Q529 249 529 236Q529 224 523.0 215.0Q517 206 503 206H410L385 27Q382 0 351 3Q337 4 330.0 11.5Q323 19 325 33L349 206H200L176 27Q171 0 141 3Q128 4 121.0 11.5Q114 19 116 33L140 206H57Q43 206 37.0 215.0Q31 224 31 236Q31 249 37.0 258.0Q43 267 57 267H148L175 457H89Q76 457 70.0 466.0Q64 475 64 487Q64 500 70.0 509.0Q76 518 89 518H183L208 694Q210 708 219.0 714.0Q228 720 242 719ZM358 267 385 457H235L209 267Z" transform="translate(44.924 212.640) scale(0.008000 -0.008000)"/><path d="M499 715Q513 715 519.0 706.0Q525 697 525 683Q525 669 519.0 660.0Q513 651 499 651H165V388H478Q492 388 498.0 379.0Q504 370 504 357Q504 343 498.0 334.0Q492 325 478 325H165V30Q165 14 154.0 7.0Q143 0 128 0Q114 0 103.0 7.0Q92 14 92 30V649Q92 687 106.5 701.0Q121 715 159 715H499Z" transform="translate(49.692 212.640) scale(0.008000 -0.008000)"/><path d="M499 715Q513 715 519.0 706.0Q525 697 525 683Q525 669 519.0 660.0Q513 651 499 651H165V388H478Q492 388 498.0 379.0Q504 370 504 357Q504 343 498.0 334.0Q492 325 478 325H165V30Q165 14 154.0 7.0Q143 0 128 0Q114 0 103.0 7.0Q92 14 92 30V649Q92 687 106.5 701.0Q121 715 159 715H499Z" transform="translate(54.292 212.640) scale(0.008000 -0.008000)"/><path d="M336 715Q451 715 505.0 672.0Q559 629 559 539V523Q559 499 553.0 476.5Q547 454 533.0 434.5Q519 415 496.5 400.5Q474 386 442 378Q512 368 552.0 329.0Q592 290 592 214V194Q592 105 538.5 54.5Q485 4 369 4H159Q121 4 106.5 18.0Q92 32 92 70V649Q92 687 106.5 701.0Q121 715 159 715ZM326 407Q405 407 445.0 434.0Q485 461 485 524V537Q485 595 447.5 623.5Q410 652 321 652H164V407ZM349 67Q434 67 475.5 97.0Q517 127 517 199V216Q517 247 507.5 271.5Q498 296 475.5 312.0Q453 328 417.0 336.5Q381 345 328 345H164V67Z" transform="translate(58.892 212.640) scale(0.008000 -0.008000)"/><path d="M300 726Q432 726 489.0 639.5Q546 553 546 387V332Q546 165 489.0 79.0Q432 -7 300 -7Q168 -7 111.0 79.0Q54 165 54 332V387Q54 553 111.0 639.5Q168 726 300 726ZM300 658Q251 658 218.0 641.5Q185 625 164.5 590.5Q144 556 135.5 503.5Q127 451 127 380V339Q127 268 135.5 215.5Q144 163 164.5 128.5Q185 94 218.0 77.5Q251 61 300 61Q349 61 382.0 77.5Q415 94 435.5 128.5Q456 163 464.5 215.5Q473 268 473 339V380Q473 451 464.5 503.5Q456 556 435.5 590.5Q415 625 382.0 641.5Q349 658 300 658Z" transform="translate(64.012 212.640) scale(0.008000 -0.008000)"/><path d="M422 712Q435 704 438.5 692.0Q442 680 432 665L126 225H403V427Q403 443 414.0 450.0Q425 457 439 457Q453 457 464.5 450.0Q476 443 476 427V225H561Q575 225 580.5 216.0Q586 207 586 194Q586 181 580.5 172.0Q575 163 561 163H476V30Q476 14 464.5 7.0Q453 0 439 0Q425 0 414.0 7.0Q403 14 403 30V163H89Q60 163 48.5 172.0Q37 181 37 200Q37 208 41.0 217.0Q45 226 62 250L377 705Q386 718 398.5 719.0Q411 720 422 712Z" transform="translate(68.812 212.640) scale(0.008000 -0.008000)"/><path d="M320 715Q471 715 545.5 635.0Q620 555 620 397V322Q620 164 542.0 84.0Q464 4 320 4H159Q121 4 106.5 18.0Q92 32 92 70V649Q92 687 106.5 701.0Q121 715 159 715ZM313 68Q428 68 487.0 132.0Q546 196 546 326V390Q546 521 491.5 586.0Q437 651 312 651H165V68Z" transform="translate(73.612 212.640) scale(0.008000 -0.008000)"/></g><circle cx="177" cy="155" r="28" fill="#7ED7F2" stroke-width="1" opacity="1"/><g fill="#1F2937" opacity="1"><path d="M348 715Q463 715 518.0 672.0Q573 629 573 538V524Q573 475 547.5 434.5Q522 394 458 378Q526 368 566.0 329.0Q606 290 606 213V195Q606 104 551.5 54.0Q497 4 380 4H163Q119 4 102.5 20.0Q86 36 86 78V641Q86 683 102.5 699.0Q119 715 163 715ZM319 416Q403 416 437.5 439.5Q472 463 472 522V533Q472 587 435.5 609.0Q399 631 313 631H186V416ZM337 88Q379 88 410.5 93.0Q442 98 463.0 111.5Q484 125 494.0 147.0Q504 169 504 204V219Q504 248 495.0 269.5Q486 291 464.5 305.5Q443 320 408.0 327.0Q373 334 321 334H186V88Z" transform="translate(165.500 199.130) scale(0.011000 -0.011000)"/><path d="M130 745Q150 745 165.0 735.0Q180 725 180 703V41Q180 19 165.0 9.0Q150 -1 130 -1Q111 -1 96.0 9.0Q81 19 81 41V703Q81 725 96.0 735.0Q111 745 130 745Z" transform="translate(172.650 199.130) scale(0.011000 -0.011000)"/><path d="M125 534Q144 534 159.0 524.0Q174 514 174 493V212Q174 140 205.0 111.0Q236 82 290 82Q318 82 342.5 91.5Q367 101 386.0 118.0Q405 135 416.0 159.0Q427 183 427 213V493Q427 514 441.5 524.0Q456 534 476 534Q495 534 510.0 524.0Q525 514 525 493V39Q525 18 510.5 8.5Q496 -1 478 -1Q460 -1 445.5 8.5Q431 18 431 39V76H429Q410 41 364.5 18.0Q319 -5 265 -5Q175 -5 125.5 45.5Q76 96 76 190V493Q76 514 90.5 524.0Q105 534 125 534Z" transform="translate(175.521 199.130) scale(0.011000 -0.011000)"/><path d="M292 541Q344 541 386.5 525.0Q429 509 459.5 478.5Q490 448 506.5 404.0Q523 360 523 304V302Q523 264 507.0 248.5Q491 233 452 233H150V229Q150 157 188.0 118.0Q226 79 298 79Q343 79 376.5 87.0Q410 95 442 112Q459 120 473.5 115.5Q488 111 496 94Q504 77 500.0 61.5Q496 46 481 38Q445 18 399.5 7.0Q354 -4 294 -4Q181 -4 117.0 59.5Q53 123 53 251V285Q53 412 117.5 476.5Q182 541 292 541ZM290 458Q222 458 186.0 419.5Q150 381 150 314V308H428V317Q428 382 394.0 420.0Q360 458 290 458Z" transform="translate(182.187 199.130) scale(0.011000 -0.011000)"/></g><g fill="#6B7280" opacity="1"><path d="M242 719Q256 718 263.0 710.5Q270 703 268 689L244 518H392L418 694Q421 721 452 719Q465 718 472.0 710.5Q479 703 477 689L453 518H536Q550 518 556.0 509.0Q562 500 562 487Q562 475 556.0 466.0Q550 457 536 457H444L418 267H503Q517 267 523.0 258.0Q529 249 529 236Q529 224 523.0 215.0Q517 206 503 206H410L385 27Q382 0 351 3Q337 4 330.0 11.5Q323 19 325 33L349 206H200L176 27Q171 0 141 3Q128 4 121.0 11.5Q114 19 116 33L140 206H57Q43 206 37.0 215.0Q31 224 31 236Q31 249 37.0 258.0Q43 267 57 267H148L175 457H89Q76 457 70.0 466.0Q64 475 64 487Q64 500 70.0 509.0Q76 518 89 518H183L208 694Q210 708 219.0 714.0Q228 720 242 719ZM358 267 385 457H235L209 267Z" transform="translate(159.964 212.640) scale(0.008000 -0.008000)"/><path d="M495 715Q524 715 536.0 705.5Q548 696 548 676Q548 665 544.0 652.0Q540 639 527 611L258 19Q251 4 237.5 1.5Q224 -1 211 4Q199 9 192.5 20.5Q186 32 194 48L470 651H84Q70 651 63.5 660.0Q57 669 57 683Q57 697 63.5 706.0Q70 715 84 715H495Z" transform="translate(164.732 212.640) scale(0.008000 -0.008000)"/><path d="M506 715Q520 715 526.0 706.0Q532 697 532 683Q532 670 526.0 661.0Q520 652 506 652H165V400H486Q499 400 505.0 391.0Q511 382 511 369Q511 356 505.0 347.0Q499 338 486 338H165V67H513Q527 67 533.0 58.0Q539 49 539 36Q539 22 533.0 13.0Q527 4 513 4H159Q121 4 106.5 18.0Q92 32 92 70V649Q92 687 106.5 701.0Q121 715 159 715H506Z" transform="translate(169.532 212.640) scale(0.008000 -0.008000)"/><path d="M320 715Q471 715 545.5 635.0Q620 555 620 397V322Q620 164 542.0 84.0Q464 4 320 4H159Q121 4 106.5 18.0Q92 32 92 70V649Q92 687 106.5 701.0Q121 715 159 715ZM313 68Q428 68 487.0 132.0Q546 196 546 326V390Q546 521 491.5 586.0Q437 651 312 651H165V68Z" transform="translate(174.372 212.640) scale(0.008000 -0.008000)"/><path d="M495 715Q524 715 536.0 705.5Q548 696 548 676Q548 665 544.0 652.0Q540 639 527 611L258 19Q251 4 237.5 1.5Q224 -1 211 4Q199 9 192.5 20.5Q186 32 194 48L470 651H84Q70 651 63.5 660.0Q57 669 57 683Q57 697 63.5 706.0Q70 715 84 715H495Z" transform="translate(179.836 212.640) scale(0.008000 -0.008000)"/><path d="M499 715Q513 715 519.0 706.0Q525 697 525 683Q525 669 519.0 660.0Q513 651 499 651H165V388H478Q492 388 498.0 379.0Q504 370 504 357Q504 343 498.0 334.0Q492 325 478 325H165V30Q165 14 154.0 7.0Q143 0 128 0Q114 0 103.0 7.0Q92 14 92 30V649Q92 687 106.5 701.0Q121 715 159 715H499Z" transform="translate(184.636 212.640) scale(0.008000 -0.008000)"/><path d="M300 726Q352 726 392.0 712.5Q432 699 459.0 675.0Q486 651 499.5 619.0Q513 587 513 550V541Q513 513 507.5 488.5Q502 464 490.5 440.0Q479 416 461.0 392.0Q443 368 418 341L169 67H517Q531 67 537.5 58.0Q544 49 544 36Q544 22 537.5 13.0Q531 4 517 4H128Q98 4 85.5 13.5Q73 23 73 43Q73 53 78.5 63.0Q84 73 100 91L355 371Q380 399 396.5 421.0Q413 443 423.0 462.5Q433 482 436.5 500.0Q440 518 440 539V545Q440 598 405.0 629.0Q370 660 302 660Q246 660 209.0 636.0Q172 612 143 568Q135 557 122.5 554.5Q110 552 98 560Q86 568 82.5 580.5Q79 593 87 606Q119 657 171.0 691.5Q223 726 300 726Z" transform="translate(189.236 212.640) scale(0.008000 -0.008000)"/></g><circle cx="292" cy="155" r="28" fill="#1F2937" stroke-width="1" opacity="1"/><g fill="#1F2937" opacity="1"><path d="M566 672Q566 655 557.5 642.0Q549 629 531 629H339V41Q339 19 324.0 9.0Q309 -1 289 -1Q269 -1 254.0 9.0Q239 19 239 41V629H48Q29 629 20.5 642.0Q12 655 12 672Q12 689 20.5 702.0Q29 715 48 715H531Q549 715 557.5 702.0Q566 689 566 672Z" transform="translate(280.593 199.130) scale(0.011000 -0.011000)"/><path d="M292 541Q344 541 386.5 525.0Q429 509 459.5 478.5Q490 448 506.5 404.0Q523 360 523 304V302Q523 264 507.0 248.5Q491 233 452 233H150V229Q150 157 188.0 118.0Q226 79 298 79Q343 79 376.5 87.0Q410 95 442 112Q459 120 473.5 115.5Q488 111 496 94Q504 77 500.0 61.5Q496 46 481 38Q445 18 399.5 7.0Q354 -4 294 -4Q181 -4 117.0 59.5Q53 123 53 251V285Q53 412 117.5 476.5Q182 541 292 541ZM290 458Q222 458 186.0 419.5Q150 381 150 314V308H428V317Q428 382 394.0 420.0Q360 458 290 458Z" transform="translate(286.951 199.130) scale(0.011000 -0.011000)"/><path d="M69 523Q84 536 103.5 534.0Q123 532 137 514L263 339L389 513Q403 533 421.5 534.0Q440 535 455 524Q471 512 475.0 495.0Q479 478 465 460L322 273L475 76Q503 40 466 10Q452 -3 431.5 -1.0Q411 1 398 19L260 205L121 20Q107 0 88.5 -1.0Q70 -2 55 9Q39 22 35.0 38.5Q31 55 45 73L201 272L59 457Q46 474 48.5 491.5Q51 509 69 523Z" transform="translate(293.265 199.130) scale(0.011000 -0.011000)"/><path d="M163 674Q183 674 198.0 664.0Q213 654 213 632V529H329Q346 529 354.5 517.0Q363 505 363 488Q363 471 354.5 459.5Q346 448 329 448H213V162Q213 117 227.0 98.5Q241 80 274 80Q299 80 323 89Q337 94 350.0 88.5Q363 83 369 64Q375 47 369.5 33.0Q364 19 349 12Q314 -4 267 -4Q186 -4 150.0 35.0Q114 74 114 162V448H54Q37 448 28.5 459.5Q20 471 20 488Q20 505 28.5 517.0Q37 529 54 529H114V632Q114 654 129.0 664.0Q144 674 163 674Z" transform="translate(298.996 199.130) scale(0.011000 -0.011000)"/></g><g fill="#6B7280" opacity="1"><path d="M242 719Q256 718 263.0 710.5Q270 703 268 689L244 518H392L418 694Q421 721 452 719Q465 718 472.0 710.5Q479 703 477 689L453 518H536Q550 518 556.0 509.0Q562 500 562 487Q562 475 556.0 466.0Q550 457 536 457H444L418 267H503Q517 267 523.0 258.0Q529 249 529 236Q529 224 523.0 215.0Q517 206 503 206H410L385 27Q382 0 351 3Q337 4 330.0 11.5Q323 19 325 33L349 206H200L176 27Q171 0 141 3Q128 4 121.0 11.5Q114 19 116 33L140 206H57Q43 206 37.0 215.0Q31 224 31 236Q31 249 37.0 258.0Q43 267 57 267H148L175 457H89Q76 457 70.0 466.0Q64 475 64 487Q64 500 70.0 509.0Q76 518 89 518H183L208 694Q210 708 219.0 714.0Q228 720 242 719ZM358 267 385 457H235L209 267Z" transform="translate(275.316 212.640) scale(0.008000 -0.008000)"/><path d="M363 719Q380 719 391.0 711.5Q402 704 402 687V30Q402 14 391.0 7.0Q380 0 365 0Q351 0 340.0 7.0Q329 14 329 30V631L159 523Q145 515 133.5 520.0Q122 525 114 537Q107 548 108.5 561.0Q110 574 123 582L312 700Q344 719 363 719Z" transform="translate(280.084 212.640) scale(0.008000 -0.008000)"/><path d="M499 715Q513 715 519.0 706.0Q525 697 525 683Q525 669 519.0 660.0Q513 651 499 651H165V388H478Q492 388 498.0 379.0Q504 370 504 357Q504 343 498.0 334.0Q492 325 478 325H165V30Q165 14 154.0 7.0Q143 0 128 0Q114 0 103.0 7.0Q92 14 92 30V649Q92 687 106.5 701.0Q121 715 159 715H499Z" transform="translate(284.884 212.640) scale(0.008000 -0.008000)"/><path d="M300 726Q352 726 392.0 712.5Q432 699 459.0 675.0Q486 651 499.5 619.0Q513 587 513 550V541Q513 513 507.5 488.5Q502 464 490.5 440.0Q479 416 461.0 392.0Q443 368 418 341L169 67H517Q531 67 537.5 58.0Q544 49 544 36Q544 22 537.5 13.0Q531 4 517 4H128Q98 4 85.5 13.5Q73 23 73 43Q73 53 78.5 63.0Q84 73 100 91L355 371Q380 399 396.5 421.0Q413 443 423.0 462.5Q433 482 436.5 500.0Q440 518 440 539V545Q440 598 405.0 629.0Q370 660 302 660Q246 660 209.0 636.0Q172 612 143 568Q135 557 122.5 554.5Q110 552 98 560Q86 568 82.5 580.5Q79 593 87 606Q119 657 171.0 691.5Q223 726 300 726Z" transform="translate(289.484 212.640) scale(0.008000 -0.008000)"/><path d="M294 726Q349 726 394.0 708.0Q439 690 471.0 653.0Q503 616 520.5 559.5Q538 503 538 427V405Q538 285 519.5 206.0Q501 127 466.0 79.5Q431 32 381.0 12.5Q331 -7 268 -7Q219 -7 177.5 4.0Q136 15 107 32Q81 49 95 78Q101 92 113.0 96.0Q125 100 139 93Q167 77 199.5 68.5Q232 60 271 60Q319 60 354.5 76.5Q390 93 414.0 128.0Q438 163 451.0 219.0Q464 275 467 355Q455 331 435.5 313.0Q416 295 391.0 282.0Q366 269 338.0 262.5Q310 256 280 256Q229 256 188.0 271.5Q147 287 117.5 316.0Q88 345 72.5 386.0Q57 427 57 479V497Q57 550 75.0 592.5Q93 635 124.5 664.5Q156 694 199.5 710.0Q243 726 294 726ZM295 659Q222 659 175.5 617.5Q129 576 129 495V486Q129 405 170.0 362.5Q211 320 292 320Q331 320 362.5 332.5Q394 345 415.5 366.5Q437 388 448.5 416.5Q460 445 460 477V483Q460 523 448.0 556.0Q436 589 414.5 611.5Q393 634 362.5 646.5Q332 659 295 659Z" transform="translate(294.284 212.640) scale(0.008000 -0.008000)"/><path d="M289 726Q341 726 381.5 712.5Q422 699 450.0 674.5Q478 650 492.5 617.0Q507 584 507 545V540Q507 517 500.5 492.5Q494 468 479.0 446.0Q464 424 439.5 405.5Q415 387 380 375Q450 364 493.0 321.5Q536 279 536 210V200Q536 160 521.5 122.5Q507 85 477.5 56.5Q448 28 402.5 10.5Q357 -7 295 -7Q235 -7 180.5 10.5Q126 28 84 57Q71 66 69.0 79.0Q67 92 75 106Q93 135 121 116Q159 89 201.5 74.0Q244 59 292 59Q337 59 369.5 71.0Q402 83 422.5 103.5Q443 124 453.0 149.5Q463 175 463 202V210Q463 250 447.0 275.5Q431 301 406.5 315.5Q382 330 351.5 335.5Q321 341 292 341H230Q216 341 210.0 350.0Q204 359 204 373Q204 387 210.0 396.5Q216 406 230 406H287Q314 406 340.5 413.5Q367 421 388.5 437.0Q410 453 423.0 478.0Q436 503 436 539V542Q436 595 398.5 628.0Q361 661 289 661Q241 661 206.5 642.5Q172 624 145 590Q135 579 122.5 579.0Q110 579 100 590Q89 600 88.5 612.0Q88 624 96 635Q125 673 173.5 699.5Q222 726 289 726Z" transform="translate(299.084 212.640) scale(0.008000 -0.008000)"/><path d="M495 715Q524 715 536.0 705.5Q548 696 548 676Q548 665 544.0 652.0Q540 639 527 611L258 19Q251 4 237.5 1.5Q224 -1 211 4Q199 9 192.5 20.5Q186 32 194 48L470 651H84Q70 651 63.5 660.0Q57 669 57 683Q57 697 63.5 706.0Q70 715 84 715H495Z" transform="translate(303.884 212.640) scale(0.008000 -0.008000)"/></g><circle cx="407" cy="155" r="28" fill="#6B7280" stroke-width="1" opacity="1"/><g fill="#1F2937" opacity="1"><path d="M168 717Q184 717 196.0 714.5Q208 712 217.5 704.0Q227 696 236.0 681.0Q245 666 255 641L433 239L606 640Q615 664 624.0 679.0Q633 694 643.0 702.5Q653 711 665.0 714.0Q677 717 694 717H709Q746 717 760.5 701.5Q775 686 775 646V39Q775 18 761.0 8.5Q747 -1 728 -1Q709 -1 694.5 8.5Q680 18 680 39V619Q669 583 660.5 558.0Q652 533 641 508L487 160Q477 136 465.0 127.5Q453 119 433 119Q410 119 397.0 128.0Q384 137 374 162L222 508Q211 532 201.5 557.5Q192 583 181 619V39Q181 18 166.5 8.5Q152 -1 133 -1Q115 -1 100.5 8.5Q86 18 86 39V646Q86 686 101.0 701.5Q116 717 153 717H168Z" transform="translate(390.252 199.130) scale(0.011000 -0.011000)"/><path d="M125 534Q144 534 159.0 524.0Q174 514 174 493V212Q174 140 205.0 111.0Q236 82 290 82Q318 82 342.5 91.5Q367 101 386.0 118.0Q405 135 416.0 159.0Q427 183 427 213V493Q427 514 441.5 524.0Q456 534 476 534Q495 534 510.0 524.0Q525 514 525 493V39Q525 18 510.5 8.5Q496 -1 478 -1Q460 -1 445.5 8.5Q431 18 431 39V76H429Q410 41 364.5 18.0Q319 -5 265 -5Q175 -5 125.5 45.5Q76 96 76 190V493Q76 514 90.5 524.0Q105 534 125 534Z" transform="translate(399.735 199.130) scale(0.011000 -0.011000)"/><path d="M163 674Q183 674 198.0 664.0Q213 654 213 632V529H329Q346 529 354.5 517.0Q363 505 363 488Q363 471 354.5 459.5Q346 448 329 448H213V162Q213 117 227.0 98.5Q241 80 274 80Q299 80 323 89Q337 94 350.0 88.5Q363 83 369 64Q375 47 369.5 33.0Q364 19 349 12Q314 -4 267 -4Q186 -4 150.0 35.0Q114 74 114 162V448H54Q37 448 28.5 459.5Q20 471 20 488Q20 505 28.5 517.0Q37 529 54 529H114V632Q114 654 129.0 664.0Q144 674 163 674Z" transform="translate(406.401 199.130) scale(0.011000 -0.011000)"/><path d="M292 541Q344 541 386.5 525.0Q429 509 459.5 478.5Q490 448 506.5 404.0Q523 360 523 304V302Q523 264 507.0 248.5Q491 233 452 233H150V229Q150 157 188.0 118.0Q226 79 298 79Q343 79 376.5 87.0Q410 95 442 112Q459 120 473.5 115.5Q488 111 496 94Q504 77 500.0 61.5Q496 46 481 38Q445 18 399.5 7.0Q354 -4 294 -4Q181 -4 117.0 59.5Q53 123 53 251V285Q53 412 117.5 476.5Q182 541 292 541ZM290 458Q222 458 186.0 419.5Q150 381 150 314V308H428V317Q428 382 394.0 420.0Q360 458 290 458Z" transform="translate(410.812 199.130) scale(0.011000 -0.011000)"/><path d="M472 745Q491 745 506.0 735.0Q521 725 521 704V39Q521 18 506.5 8.5Q492 -1 474 -1Q456 -1 441.5 8.5Q427 18 427 39V77H425Q404 37 360.0 16.5Q316 -4 262 -4Q159 -4 105.5 60.5Q52 125 52 251V285Q52 413 111.5 477.0Q171 541 271 541Q331 541 368.5 520.5Q406 500 422 475V704Q422 725 437.0 735.0Q452 745 472 745ZM284 455Q219 455 184.5 412.5Q150 370 150 281V255Q150 165 181.5 123.0Q213 81 280 81Q310 81 336.5 91.5Q363 102 382.5 121.0Q402 140 413.0 166.5Q424 193 424 225V340Q424 361 415.0 382.0Q406 403 388.0 419.0Q370 435 344.0 445.0Q318 455 284 455Z" transform="translate(417.126 199.130) scale(0.011000 -0.011000)"/></g><g fill="#6B7280" opacity="1"><path d="M242 719Q256 718 263.0 710.5Q270 703 268 689L244 518H392L418 694Q421 721 452 719Q465 718 472.0 710.5Q479 703 477 689L453 518H536Q550 518 556.0 509.0Q562 500 562 487Q562 475 556.0 466.0Q550 457 536 457H444L418 267H503Q517 267 523.0 258.0Q529 249 529 236Q529 224 523.0 215.0Q517 206 503 206H410L385 27Q382 0 351 3Q337 4 330.0 11.5Q323 19 325 33L349 206H200L176 27Q171 0 141 3Q128 4 121.0 11.5Q114 19 116 33L140 206H57Q43 206 37.0 215.0Q31 224 31 236Q31 249 37.0 258.0Q43 267 57 267H148L175 457H89Q76 457 70.0 466.0Q64 475 64 487Q64 500 70.0 509.0Q76 518 89 518H183L208 694Q210 708 219.0 714.0Q228 720 242 719ZM358 267 385 457H235L209 267Z" transform="translate(390.056 212.640) scale(0.008000 -0.008000)"/><path d="M337 726Q386 726 428.0 715.0Q470 704 498 688Q511 680 514.0 668.5Q517 657 511 643Q505 630 493.5 626.0Q482 622 468 629Q439 643 407.5 651.0Q376 659 336 659Q286 659 251.0 638.5Q216 618 192.0 580.0Q168 542 155.0 486.5Q142 431 138 362Q150 386 169.5 404.0Q189 422 214.0 435.0Q239 448 267.0 454.5Q295 461 325 461Q376 461 417.0 445.5Q458 430 487.5 401.0Q517 372 532.5 330.5Q548 289 548 238V222Q548 169 530.0 126.5Q512 84 480.5 54.5Q449 25 405.5 9.0Q362 -7 311 -7Q257 -7 212.5 11.5Q168 30 135.5 67.0Q103 104 85.0 160.5Q67 217 67 293V314Q67 428 86.5 507.0Q106 586 141.0 634.5Q176 683 226.0 704.5Q276 726 337 726ZM313 397Q274 397 242.5 384.5Q211 372 189.5 351.0Q168 330 156.5 301.5Q145 273 145 241V236Q145 196 157.0 163.5Q169 131 191.0 108.0Q213 85 243.5 72.5Q274 60 310 60Q383 60 429.5 101.5Q476 143 476 224V231Q476 312 435.0 354.5Q394 397 313 397Z" transform="translate(394.824 212.640) scale(0.008000 -0.008000)"/><path d="M336 715Q451 715 505.0 672.0Q559 629 559 539V523Q559 499 553.0 476.5Q547 454 533.0 434.5Q519 415 496.5 400.5Q474 386 442 378Q512 368 552.0 329.0Q592 290 592 214V194Q592 105 538.5 54.5Q485 4 369 4H159Q121 4 106.5 18.0Q92 32 92 70V649Q92 687 106.5 701.0Q121 715 159 715ZM326 407Q405 407 445.0 434.0Q485 461 485 524V537Q485 595 447.5 623.5Q410 652 321 652H164V407ZM349 67Q434 67 475.5 97.0Q517 127 517 199V216Q517 247 507.5 271.5Q498 296 475.5 312.0Q453 328 417.0 336.5Q381 345 328 345H164V67Z" transform="translate(399.624 212.640) scale(0.008000 -0.008000)"/><path d="M495 715Q524 715 536.0 705.5Q548 696 548 676Q548 665 544.0 652.0Q540 639 527 611L258 19Q251 4 237.5 1.5Q224 -1 211 4Q199 9 192.5 20.5Q186 32 194 48L470 651H84Q70 651 63.5 660.0Q57 669 57 683Q57 697 63.5 706.0Q70 715 84 715H495Z" transform="translate(404.744 212.640) scale(0.008000 -0.008000)"/><path d="M300 726Q352 726 392.0 712.5Q432 699 459.0 675.0Q486 651 499.5 619.0Q513 587 513 550V541Q513 513 507.5 488.5Q502 464 490.5 440.0Q479 416 461.0 392.0Q443 368 418 341L169 67H517Q531 67 537.5 58.0Q544 49 544 36Q544 22 537.5 13.0Q531 4 517 4H128Q98 4 85.5 13.5Q73 23 73 43Q73 53 78.5 63.0Q84 73 100 91L355 371Q380 399 396.5 421.0Q413 443 423.0 462.5Q433 482 436.5 500.0Q440 518 440 539V545Q440 598 405.0 629.0Q370 660 302 660Q246 660 209.0 636.0Q172 612 143 568Q135 557 122.5 554.5Q110 552 98 560Q86 568 82.5 580.5Q79 593 87 606Q119 657 171.0 691.5Q223 726 300 726Z" transform="translate(409.544 212.640) scale(0.008000 -0.008000)"/><path d="M300 726Q349 726 388.5 712.0Q428 698 456.0 673.0Q484 648 499.0 615.0Q514 582 514 543V532Q514 477 483.5 434.5Q453 392 400 368Q463 351 499.5 304.5Q536 258 536 199V187Q536 144 519.0 108.0Q502 72 471.5 46.5Q441 21 397.5 7.0Q354 -7 301 -7Q247 -7 203.0 7.0Q159 21 128.5 46.5Q98 72 81.0 108.0Q64 144 64 187V199Q64 259 100.5 305.0Q137 351 199 368Q147 391 116.5 434.0Q86 477 86 532V543Q86 582 101.0 615.0Q116 648 143.5 673.0Q171 698 210.5 712.0Q250 726 300 726ZM300 661Q232 661 194.5 626.0Q157 591 157 536V529Q157 500 167.5 476.5Q178 453 197.0 436.0Q216 419 242.5 409.5Q269 400 301 400Q365 400 404.0 436.0Q443 472 443 529V536Q443 591 404.5 626.0Q366 661 300 661ZM301 335Q266 335 236.5 326.0Q207 317 184.5 299.0Q162 281 149.5 255.0Q137 229 137 196V189Q137 134 180.0 96.0Q223 58 301 58Q379 58 421.0 96.0Q463 134 463 189V196Q463 228 451.0 254.0Q439 280 417.0 298.0Q395 316 365.5 325.5Q336 335 301 335Z" transform="translate(414.344 212.640) scale(0.008000 -0.008000)"/><path d="M300 726Q432 726 489.0 639.5Q546 553 546 387V332Q546 165 489.0 79.0Q432 -7 300 -7Q168 -7 111.0 79.0Q54 165 54 332V387Q54 553 111.0 639.5Q168 726 300 726ZM300 658Q251 658 218.0 641.5Q185 625 164.5 590.5Q144 556 135.5 503.5Q127 451 127 380V339Q127 268 135.5 215.5Q144 163 164.5 128.5Q185 94 218.0 77.5Q251 61 300 61Q349 61 382.0 77.5Q415 94 435.5 128.5Q456 163 464.5 215.5Q473 268 473 339V380Q473 451 464.5 503.5Q456 556 435.5 590.5Q415 625 382.0 641.5Q349 658 300 658Z" transform="translate(419.144 212.640) scale(0.008000 -0.008000)"/></g><circle cx="522" cy="155" r="28" fill="#E1E8E4" stroke-width="1" opacity="1"/><g fill="#1F2937" opacity="1"><path d="M348 715Q463 715 518.0 672.0Q573 629 573 538V524Q573 475 547.5 434.5Q522 394 458 378Q526 368 566.0 329.0Q606 290 606 213V195Q606 104 551.5 54.0Q497 4 380 4H163Q119 4 102.5 20.0Q86 36 86 78V641Q86 683 102.5 699.0Q119 715 163 715ZM319 416Q403 416 437.5 439.5Q472 463 472 522V533Q472 587 435.5 609.0Q399 631 313 631H186V416ZM337 88Q379 88 410.5 93.0Q442 98 463.0 111.5Q484 125 494.0 147.0Q504 169 504 204V219Q504 248 495.0 269.5Q486 291 464.5 305.5Q443 320 408.0 327.0Q373 334 321 334H186V88Z" transform="translate(504.015 199.130) scale(0.011000 -0.011000)"/><path d="M299 541Q414 541 479.5 476.5Q545 412 545 285V252Q545 125 479.5 60.5Q414 -4 299 -4Q184 -4 118.5 60.5Q53 125 53 252V285Q53 412 118.5 476.5Q184 541 299 541ZM299 454Q227 454 189.5 413.0Q152 372 152 282V255Q152 164 189.5 123.5Q227 83 299 83Q372 83 409.0 123.5Q446 164 446 255V282Q446 372 409.0 413.0Q372 454 299 454Z" transform="translate(511.165 199.130) scale(0.011000 -0.011000)"/><path d="M325 541Q359 541 381 530Q410 516 402 479Q397 458 383.5 446.5Q370 435 352 439Q340 441 328.0 443.5Q316 446 302 446Q274 446 251.5 435.0Q229 424 213.0 404.5Q197 385 188.5 359.0Q180 333 180 302V40Q180 19 165.0 9.0Q150 -1 130 -1Q111 -1 96.0 9.0Q81 19 81 40V494Q81 515 95.5 524.5Q110 534 128 534Q147 534 161.5 524.5Q176 515 176 494V441H178Q195 481 233.0 511.0Q271 541 325 541Z" transform="translate(517.743 199.130) scale(0.011000 -0.011000)"/><path d="M472 745Q491 745 506.0 735.0Q521 725 521 704V39Q521 18 506.5 8.5Q492 -1 474 -1Q456 -1 441.5 8.5Q427 18 427 39V77H425Q404 37 360.0 16.5Q316 -4 262 -4Q159 -4 105.5 60.5Q52 125 52 251V285Q52 413 111.5 477.0Q171 541 271 541Q331 541 368.5 520.5Q406 500 422 475V704Q422 725 437.0 735.0Q452 745 472 745ZM284 455Q219 455 184.5 412.5Q150 370 150 281V255Q150 165 181.5 123.0Q213 81 280 81Q310 81 336.5 91.5Q363 102 382.5 121.0Q402 140 413.0 166.5Q424 193 424 225V340Q424 361 415.0 382.0Q406 403 388.0 419.0Q370 435 344.0 445.0Q318 455 284 455Z" transform="translate(522.396 199.130) scale(0.011000 -0.011000)"/><path d="M292 541Q344 541 386.5 525.0Q429 509 459.5 478.5Q490 448 506.5 404.0Q523 360 523 304V302Q523 264 507.0 248.5Q491 233 452 233H150V229Q150 157 188.0 118.0Q226 79 298 79Q343 79 376.5 87.0Q410 95 442 112Q459 120 473.5 115.5Q488 111 496 94Q504 77 500.0 61.5Q496 46 481 38Q445 18 399.5 7.0Q354 -4 294 -4Q181 -4 117.0 59.5Q53 123 53 251V285Q53 412 117.5 476.5Q182 541 292 541ZM290 458Q222 458 186.0 419.5Q150 381 150 314V308H428V317Q428 382 394.0 420.0Q360 458 290 458Z" transform="translate(529.018 199.130) scale(0.011000 -0.011000)"/><path d="M325 541Q359 541 381 530Q410 516 402 479Q397 458 383.5 446.5Q370 435 352 439Q340 441 328.0 443.5Q316 446 302 446Q274 446 251.5 435.0Q229 424 213.0 404.5Q197 385 188.5 359.0Q180 333 180 302V40Q180 19 165.0 9.0Q150 -1 130 -1Q111 -1 96.0 9.0Q81 19 81 40V494Q81 515 95.5 524.5Q110 534 128 534Q147 534 161.5 524.5Q176 515 176 494V441H178Q195 481 233.0 511.0Q271 541 325 541Z" transform="translate(535.332 199.130) scale(0.011000 -0.011000)"/></g><g fill="#6B7280" opacity="1"><path d="M242 719Q256 718 263.0 710.5Q270 703 268 689L244 518H392L418 694Q421 721 452 719Q465 718 472.0 710.5Q479 703 477 689L453 518H536Q550 518 556.0 509.0Q562 500 562 487Q562 475 556.0 466.0Q550 457 536 457H444L418 267H503Q517 267 523.0 258.0Q529 249 529 236Q529 224 523.0 215.0Q517 206 503 206H410L385 27Q382 0 351 3Q337 4 330.0 11.5Q323 19 325 33L349 206H200L176 27Q171 0 141 3Q128 4 121.0 11.5Q114 19 116 33L140 206H57Q43 206 37.0 215.0Q31 224 31 236Q31 249 37.0 258.0Q43 267 57 267H148L175 457H89Q76 457 70.0 466.0Q64 475 64 487Q64 500 70.0 509.0Q76 518 89 518H183L208 694Q210 708 219.0 714.0Q228 720 242 719ZM358 267 385 457H235L209 267Z" transform="translate(505.156 212.640) scale(0.008000 -0.008000)"/><path d="M506 715Q520 715 526.0 706.0Q532 697 532 683Q532 670 526.0 661.0Q520 652 506 652H165V400H486Q499 400 505.0 391.0Q511 382 511 369Q511 356 505.0 347.0Q499 338 486 338H165V67H513Q527 67 533.0 58.0Q539 49 539 36Q539 22 533.0 13.0Q527 4 513 4H159Q121 4 106.5 18.0Q92 32 92 70V649Q92 687 106.5 701.0Q121 715 159 715H506Z" transform="translate(509.924 212.640) scale(0.008000 -0.008000)"/><path d="M363 719Q380 719 391.0 711.5Q402 704 402 687V30Q402 14 391.0 7.0Q380 0 365 0Q351 0 340.0 7.0Q329 14 329 30V631L159 523Q145 515 133.5 520.0Q122 525 114 537Q107 548 108.5 561.0Q110 574 123 582L312 700Q344 719 363 719Z" transform="translate(514.764 212.640) scale(0.008000 -0.008000)"/><path d="M506 715Q520 715 526.0 706.0Q532 697 532 683Q532 670 526.0 661.0Q520 652 506 652H165V400H486Q499 400 505.0 391.0Q511 382 511 369Q511 356 505.0 347.0Q499 338 486 338H165V67H513Q527 67 533.0 58.0Q539 49 539 36Q539 22 533.0 13.0Q527 4 513 4H159Q121 4 106.5 18.0Q92 32 92 70V649Q92 687 106.5 701.0Q121 715 159 715H506Z" transform="translate(519.564 212.640) scale(0.008000 -0.008000)"/><path d="M300 726Q349 726 388.5 712.0Q428 698 456.0 673.0Q484 648 499.0 615.0Q514 582 514 543V532Q514 477 483.5 434.5Q453 392 400 368Q463 351 499.5 304.5Q536 258 536 199V187Q536 144 519.0 108.0Q502 72 471.5 46.5Q441 21 397.5 7.0Q354 -7 301 -7Q247 -7 203.0 7.0Q159 21 128.5 46.5Q98 72 81.0 108.0Q64 144 64 187V199Q64 259 100.5 305.0Q137 351 199 368Q147 391 116.5 434.0Q86 477 86 532V543Q86 582 101.0 615.0Q116 648 143.5 673.0Q171 698 210.5 712.0Q250 726 300 726ZM300 661Q232 661 194.5 626.0Q157 591 157 536V529Q157 500 167.5 476.5Q178 453 197.0 436.0Q216 419 242.5 409.5Q269 400 301 400Q365 400 404.0 436.0Q443 472 443 529V536Q443 591 404.5 626.0Q366 661 300 661ZM301 335Q266 335 236.5 326.0Q207 317 184.5 299.0Q162 281 149.5 255.0Q137 229 137 196V189Q137 134 180.0 96.0Q223 58 301 58Q379 58 421.0 96.0Q463 134 463 189V196Q463 228 451.0 254.0Q439 280 417.0 298.0Q395 316 365.5 325.5Q336 335 301 335Z" transform="translate(524.404 212.640) scale(0.008000 -0.008000)"/><path d="M506 715Q520 715 526.0 706.0Q532 697 532 683Q532 670 526.0 661.0Q520 652 506 652H165V400H486Q499 400 505.0 391.0Q511 382 511 369Q511 356 505.0 347.0Q499 338 486 338H165V67H513Q527 67 533.0 58.0Q539 49 539 36Q539 22 533.0 13.0Q527 4 513 4H159Q121 4 106.5 18.0Q92 32 92 70V649Q92 687 106.5 701.0Q121 715 159 715H506Z" transform="translate(529.204 212.640) scale(0.008000 -0.008000)"/><path d="M422 712Q435 704 438.5 692.0Q442 680 432 665L126 225H403V427Q403 443 414.0 450.0Q425 457 439 457Q453 457 464.5 450.0Q476 443 476 427V225H561Q575 225 580.5 216.0Q586 207 586 194Q586 181 580.5 172.0Q575 163 561 163H476V30Q476 14 464.5 7.0Q453 0 439 0Q425 0 414.0 7.0Q403 14 403 30V163H89Q60 163 48.5 172.0Q37 181 37 200Q37 208 41.0 217.0Q45 226 62 250L377 705Q386 718 398.5 719.0Q411 720 422 712Z" transform="translate(534.044 212.640) scale(0.008000 -0.008000)"/></g><circle cx="637" cy="155" r="28" fill="#F5F8F6" stroke-width="1" opacity="1"/><g fill="#1F2937" opacity="1"><path d="M315 726Q429 726 502 685Q519 676 524.0 658.5Q529 641 519 624Q509 606 494.0 601.5Q479 597 462 605Q430 621 395.5 628.5Q361 636 317 636Q282 636 254.5 628.0Q227 620 208.0 606.0Q189 592 178.5 573.5Q168 555 168 534V524Q168 502 175.0 485.5Q182 469 200.0 455.5Q218 442 248.5 431.5Q279 421 326 411Q392 397 437.0 379.0Q482 361 510.0 336.5Q538 312 550.0 280.0Q562 248 562 208V194Q562 100 496.0 46.5Q430 -7 306 -7Q243 -7 184.5 9.5Q126 26 85 53Q66 64 63.5 82.5Q61 101 72 118Q83 135 99.0 139.5Q115 144 132 133Q170 110 215.0 96.5Q260 83 311 83Q386 83 424.0 113.0Q462 143 462 188V199Q462 224 454.0 242.5Q446 261 427.0 275.0Q408 289 377.0 299.5Q346 310 300 320Q241 332 197.5 347.5Q154 363 125.5 386.0Q97 409 83.0 441.5Q69 474 69 521V533Q69 574 85.5 609.5Q102 645 133.5 671.0Q165 697 211.0 711.5Q257 726 315 726Z" transform="translate(616.688 199.130) scale(0.011000 -0.011000)"/><path d="M125 534Q144 534 159.0 524.0Q174 514 174 493V212Q174 140 205.0 111.0Q236 82 290 82Q318 82 342.5 91.5Q367 101 386.0 118.0Q405 135 416.0 159.0Q427 183 427 213V493Q427 514 441.5 524.0Q456 534 476 534Q495 534 510.0 524.0Q525 514 525 493V39Q525 18 510.5 8.5Q496 -1 478 -1Q460 -1 445.5 8.5Q431 18 431 39V76H429Q410 41 364.5 18.0Q319 -5 265 -5Q175 -5 125.5 45.5Q76 96 76 190V493Q76 514 90.5 524.0Q105 534 125 534Z" transform="translate(623.476 199.130) scale(0.011000 -0.011000)"/><path d="M325 541Q359 541 381 530Q410 516 402 479Q397 458 383.5 446.5Q370 435 352 439Q340 441 328.0 443.5Q316 446 302 446Q274 446 251.5 435.0Q229 424 213.0 404.5Q197 385 188.5 359.0Q180 333 180 302V40Q180 19 165.0 9.0Q150 -1 130 -1Q111 -1 96.0 9.0Q81 19 81 40V494Q81 515 95.5 524.5Q110 534 128 534Q147 534 161.5 524.5Q176 515 176 494V441H178Q195 481 233.0 511.0Q271 541 325 541Z" transform="translate(630.142 199.130) scale(0.011000 -0.011000)"/><path d="M280 746Q317 746 346 736Q380 725 373 689Q369 672 359.0 663.0Q349 654 332 657Q319 660 309.5 661.0Q300 662 289 662Q249 662 231.5 641.5Q214 621 214 579V529H328Q345 529 353.5 517.0Q362 505 362 488Q362 471 353.5 459.5Q345 448 328 448H214V40Q214 19 199.0 9.0Q184 -1 164 -1Q145 -1 130.0 9.0Q115 19 115 40V448H54Q37 448 28.5 459.5Q20 471 20 488Q20 505 28.5 517.0Q37 529 54 529H115V581Q115 662 156.0 704.0Q197 746 280 746Z" transform="translate(634.795 199.130) scale(0.011000 -0.011000)"/><path d="M279 541Q326 541 364.5 529.0Q403 517 430.5 494.5Q458 472 473.0 439.5Q488 407 488 366V37Q488 17 474.0 8.0Q460 -1 443 -1Q426 -1 412.0 8.0Q398 17 398 37V75H397Q389 58 374.0 44.0Q359 30 339 20Q319 9 292.0 2.5Q265 -4 235 -4Q148 -4 100.0 37.0Q52 78 52 152V165Q52 198 62.5 226.0Q73 254 96.5 275.0Q120 296 158.0 307.5Q196 319 251 319H390V344Q390 402 363.0 428.5Q336 455 277 455Q206 455 143 415Q127 405 112.0 410.0Q97 415 87 430Q78 445 80.0 461.0Q82 477 98 488Q132 511 179.0 526.0Q226 541 279 541ZM254 242Q195 242 171.5 219.0Q148 196 148 160V156Q148 119 172.0 99.0Q196 79 243 79Q301 79 338 99Q364 114 377.5 136.0Q391 158 391 191V242Z" transform="translate(639.074 199.130) scale(0.011000 -0.011000)"/><path d="M291 541Q348 541 388.5 528.5Q429 516 458 497Q474 486 476.5 469.0Q479 452 468 436Q458 422 443.5 417.5Q429 413 413 423Q387 438 357.0 446.0Q327 454 291 454Q225 454 188.5 413.0Q152 372 152 283V253Q152 167 189.5 125.0Q227 83 293 83Q370 83 424 117Q441 127 457.0 123.0Q473 119 481 103Q491 87 489.0 70.0Q487 53 470 42Q439 22 394.0 9.0Q349 -4 292 -4Q180 -4 116.5 59.5Q53 123 53 252V285Q53 414 116.0 477.5Q179 541 291 541Z" transform="translate(645.256 199.130) scale(0.011000 -0.011000)"/><path d="M292 541Q344 541 386.5 525.0Q429 509 459.5 478.5Q490 448 506.5 404.0Q523 360 523 304V302Q523 264 507.0 248.5Q491 233 452 233H150V229Q150 157 188.0 118.0Q226 79 298 79Q343 79 376.5 87.0Q410 95 442 112Q459 120 473.5 115.5Q488 111 496 94Q504 77 500.0 61.5Q496 46 481 38Q445 18 399.5 7.0Q354 -4 294 -4Q181 -4 117.0 59.5Q53 123 53 251V285Q53 412 117.5 476.5Q182 541 292 541ZM290 458Q222 458 186.0 419.5Q150 381 150 314V308H428V317Q428 382 394.0 420.0Q360 458 290 458Z" transform="translate(650.998 199.130) scale(0.011000 -0.011000)"/></g><g fill="#6B7280" opacity="1"><path d="M242 719Q256 718 263.0 710.5Q270 703 268 689L244 518H392L418 694Q421 721 452 719Q465 718 472.0 710.5Q479 703 477 689L453 518H536Q550 518 556.0 509.0Q562 500 562 487Q562 475 556.0 466.0Q550 457 536 457H444L418 267H503Q517 267 523.0 258.0Q529 249 529 236Q529 224 523.0 215.0Q517 206 503 206H410L385 27Q382 0 351 3Q337 4 330.0 11.5Q323 19 325 33L349 206H200L176 27Q171 0 141 3Q128 4 121.0 11.5Q114 19 116 33L140 206H57Q43 206 37.0 215.0Q31 224 31 236Q31 249 37.0 258.0Q43 267 57 267H148L175 457H89Q76 457 70.0 466.0Q64 475 64 487Q64 500 70.0 509.0Q76 518 89 518H183L208 694Q210 708 219.0 714.0Q228 720 242 719ZM358 267 385 457H235L209 267Z" transform="translate(620.516 212.640) scale(0.008000 -0.008000)"/><path d="M499 715Q513 715 519.0 706.0Q525 697 525 683Q525 669 519.0 660.0Q513 651 499 651H165V388H478Q492 388 498.0 379.0Q504 370 504 357Q504 343 498.0 334.0Q492 325 478 325H165V30Q165 14 154.0 7.0Q143 0 128 0Q114 0 103.0 7.0Q92 14 92 30V649Q92 687 106.5 701.0Q121 715 159 715H499Z" transform="translate(625.284 212.640) scale(0.008000 -0.008000)"/><path d="M479 715Q493 715 499.0 706.0Q505 697 505 683Q505 669 499.0 660.0Q493 651 479 651H192L176 391Q202 414 241.0 430.0Q280 446 330 446Q381 446 421.5 430.0Q462 414 490.0 385.0Q518 356 532.5 316.0Q547 276 547 228V217Q547 177 534.0 137.0Q521 97 492.0 65.0Q463 33 416.0 13.0Q369 -7 302 -7Q238 -7 183.0 10.0Q128 27 87 55Q73 64 71.0 77.5Q69 91 77 104Q94 132 123 115Q161 90 205.0 75.0Q249 60 302 60Q348 60 381.0 73.5Q414 87 434.5 109.5Q455 132 464.5 160.0Q474 188 474 218V225Q474 306 432.0 344.5Q390 383 313 383Q269 383 236.0 369.0Q203 355 177 332Q166 322 158.0 318.0Q150 314 137 314Q123 314 113.0 321.5Q103 329 104 343L122 648Q124 687 137.5 701.0Q151 715 189 715H479Z" transform="translate(629.884 212.640) scale(0.008000 -0.008000)"/><path d="M499 715Q513 715 519.0 706.0Q525 697 525 683Q525 669 519.0 660.0Q513 651 499 651H165V388H478Q492 388 498.0 379.0Q504 370 504 357Q504 343 498.0 334.0Q492 325 478 325H165V30Q165 14 154.0 7.0Q143 0 128 0Q114 0 103.0 7.0Q92 14 92 30V649Q92 687 106.5 701.0Q121 715 159 715H499Z" transform="translate(634.684 212.640) scale(0.008000 -0.008000)"/><path d="M300 726Q349 726 388.5 712.0Q428 698 456.0 673.0Q484 648 499.0 615.0Q514 582 514 543V532Q514 477 483.5 434.5Q453 392 400 368Q463 351 499.5 304.5Q536 258 536 199V187Q536 144 519.0 108.0Q502 72 471.5 46.5Q441 21 397.5 7.0Q354 -7 301 -7Q247 -7 203.0 7.0Q159 21 128.5 46.5Q98 72 81.0 108.0Q64 144 64 187V199Q64 259 100.5 305.0Q137 351 199 368Q147 391 116.5 434.0Q86 477 86 532V543Q86 582 101.0 615.0Q116 648 143.5 673.0Q171 698 210.5 712.0Q250 726 300 726ZM300 661Q232 661 194.5 626.0Q157 591 157 536V529Q157 500 167.5 476.5Q178 453 197.0 436.0Q216 419 242.5 409.5Q269 400 301 400Q365 400 404.0 436.0Q443 472 443 529V536Q443 591 404.5 626.0Q366 661 300 661ZM301 335Q266 335 236.5 326.0Q207 317 184.5 299.0Q162 281 149.5 255.0Q137 229 137 196V189Q137 134 180.0 96.0Q223 58 301 58Q379 58 421.0 96.0Q463 134 463 189V196Q463 228 451.0 254.0Q439 280 417.0 298.0Q395 316 365.5 325.5Q336 335 301 335Z" transform="translate(639.284 212.640) scale(0.008000 -0.008000)"/><path d="M499 715Q513 715 519.0 706.0Q525 697 525 683Q525 669 519.0 660.0Q513 651 499 651H165V388H478Q492 388 498.0 379.0Q504 370 504 357Q504 343 498.0 334.0Q492 325 478 325H165V30Q165 14 154.0 7.0Q143 0 128 0Q114 0 103.0 7.0Q92 14 92 30V649Q92 687 106.5 701.0Q121 715 159 715H499Z" transform="translate(644.084 212.640) scale(0.008000 -0.008000)"/><path d="M337 726Q386 726 428.0 715.0Q470 704 498 688Q511 680 514.0 668.5Q517 657 511 643Q505 630 493.5 626.0Q482 622 468 629Q439 643 407.5 651.0Q376 659 336 659Q286 659 251.0 638.5Q216 618 192.0 580.0Q168 542 155.0 486.5Q142 431 138 362Q150 386 169.5 404.0Q189 422 214.0 435.0Q239 448 267.0 454.5Q295 461 325 461Q376 461 417.0 445.5Q458 430 487.5 401.0Q517 372 532.5 330.5Q548 289 548 238V222Q548 169 530.0 126.5Q512 84 480.5 54.5Q449 25 405.5 9.0Q362 -7 311 -7Q257 -7 212.5 11.5Q168 30 135.5 67.0Q103 104 85.0 160.5Q67 217 67 293V314Q67 428 86.5 507.0Q106 586 141.0 634.5Q176 683 226.0 704.5Q276 726 337 726ZM313 397Q274 397 242.5 384.5Q211 372 189.5 351.0Q168 330 156.5 301.5Q145 273 145 241V236Q145 196 157.0 163.5Q169 131 191.0 108.0Q213 85 243.5 72.5Q274 60 310 60Q383 60 429.5 101.5Q476 143 476 224V231Q476 312 435.0 354.5Q394 397 313 397Z" transform="translate(648.684 212.640) scale(0.008000 -0.008000)"/></g></svg>