<svg xmlns="http://www.w3.org/2000/svg" width="580" height="130" viewBox="0 0 580 130" role="img" aria-label="Radius scale"><title>Radius scale</title><rect x="0" y="0" width="580" height="130" rx="0" fill="#fff" stroke-width="1" opacity="1"/><rect x="18" y="20" width="48" height="48" rx="4" fill="#fff" stroke="#E1E8E4" stroke-width="1.5" opacity="1"/><g fill="#6B7280" opacity="1"><path d="M422 712Q435 704 438.5 692.0Q442 680 432 665L126 225H403V427Q403 443 414.0 450.0Q425 457 439 457Q453 457 464.5 450.0Q476 443 476 427V225H561Q575 225 580.5 216.0Q586 207 586 194Q586 181 580.5 172.0Q575 163 561 163H476V30Q476 14 464.5 7.0Q453 0 439 0Q425 0 414.0 7.0Q403 14 403 30V163H89Q60 163 48.5 172.0Q37 181 37 200Q37 208 41.0 217.0Q45 226 62 250L377 705Q386 718 398.5 719.0Q411 720 422 712Z" transform="translate(39.000 90.300) scale(0.010000 -0.010000)"/></g><rect x="88" y="20" width="48" height="48" rx="8" fill="#fff" stroke="#E1E8E4" stroke-width="1.5" opacity="1"/><g fill="#6B7280" opacity="1"><path d="M300 726Q349 726 388.5 712.0Q428 698 456.0 673.0Q484 648 499.0 615.0Q514 582 514 543V532Q514 477 483.5 434.5Q453 392 400 368Q463 351 499.5 304.5Q536 258 536 199V187Q536 144 519.0 108.0Q502 72 471.5 46.5Q441 21 397.5 7.0Q354 -7 301 -7Q247 -7 203.0 7.0Q159 21 128.5 46.5Q98 72 81.0 108.0Q64 144 64 187V199Q64 259 100.5 305.0Q137 351 199 368Q147 391 116.5 434.0Q86 477 86 532V543Q86 582 101.0 615.0Q116 648 143.5 673.0Q171 698 210.5 712.0Q250 726 300 726ZM300 661Q232 661 194.5 626.0Q157 591 157 536V529Q157 500 167.5 476.5Q178 453 197.0 436.0Q216 419 242.5 409.5Q269 400 301 400Q365 400 404.0 436.0Q443 472 443 529V536Q443 591 404.5 626.0Q366 661 300 661ZM301 335Q266 335 236.5 326.0Q207 317 184.5 299.0Q162 281 149.5 255.0Q137 229 137 196V189Q137 134 180.0 96.0Q223 58 301 58Q379 58 421.0 96.0Q463 134 463 189V196Q463 228 451.0 254.0Q439 280 417.0 298.0Q395 316 365.5 325.5Q336 335 301 335Z" transform="translate(109.000 90.300) scale(0.010000 -0.010000)"/></g><rect x="158" y="20" width="48" height="48" rx="12" fill="#fff" stroke="#E1E8E4" stroke-width="1.5" opacity="1"/><g fill="#6B7280" opacity="1"><path d="M363 719Q380 719 391.0 711.5Q402 704 402 687V30Q402 14 391.0 7.0Q380 0 365 0Q351 0 340.0 7.0Q329 14 329 30V631L159 523Q145 515 133.5 520.0Q122 525 114 537Q107 548 108.5 561.0Q110 574 123 582L312 700Q344 719 363 719Z" transform="translate(176.000 90.300) scale(0.010000 -0.010000)"/><path d="M300 726Q352 726 392.0 712.5Q432 699 459.0 675.0Q486 651 499.5 619.0Q513 587 513 550V541Q513 513 507.5 488.5Q502 464 490.5 440.0Q479 416 461.0 392.0Q443 368 418 341L169 67H517Q531 67 537.5 58.0Q544 49 544 36Q544 22 537.5 13.0Q531 4 517 4H128Q98 4 85.5 13.5Q73 23 73 43Q73 53 78.5 63.0Q84 73 100 91L355 371Q380 399 396.5 421.0Q413 443 423.0 462.5Q433 482 436.5 500.0Q440 518 440 539V545Q440 598 405.0 629.0Q370 660 302 660Q246 660 209.0 636.0Q172 612 143 568Q135 557 122.5 554.5Q110 552 98 560Q86 568 82.5 580.5Q79 593 87 606Q119 657 171.0 691.5Q223 726 300 726Z" transform="translate(182.000 90.300) scale(0.010000 -0.010000)"/></g><rect x="228" y="20" width="48" height="48" rx="16" fill="#fff" stroke="#E1E8E4" stroke-width="1.5" opacity="1"/><g fill="#6B7280" opacity="1"><path d="M363 719Q380 719 391.0 711.5Q402 704 402 687V30Q402 14 391.0 7.0Q380 0 365 0Q351 0 340.0 7.0Q329 14 329 30V631L159 523Q145 515 133.5 520.0Q122 525 114 537Q107 548 108.5 561.0Q110 574 123 582L312 700Q344 719 363 719Z" transform="translate(246.000 90.300) scale(0.010000 -0.010000)"/><path d="M337 726Q386 726 428.0 715.0Q470 704 498 688Q511 680 514.0 668.5Q517 657 511 643Q505 630 493.5 626.0Q482 622 468 629Q439 643 407.5 651.0Q376 659 336 659Q286 659 251.0 638.5Q216 618 192.0 580.0Q168 542 155.0 486.5Q142 431 138 362Q150 386 169.5 404.0Q189 422 214.0 435.0Q239 448 267.0 454.5Q295 461 325 461Q376 461 417.0 445.5Q458 430 487.5 401.0Q517 372 532.5 330.5Q548 289 548 238V222Q548 169 530.0 126.5Q512 84 480.5 54.5Q449 25 405.5 9.0Q362 -7 311 -7Q257 -7 212.5 11.5Q168 30 135.5 67.0Q103 104 85.0 160.5Q67 217 67 293V314Q67 428 86.5 507.0Q106 586 141.0 634.5Q176 683 226.0 704.5Q276 726 337 726ZM313 397Q274 397 242.5 384.5Q211 372 189.5 351.0Q168 330 156.5 301.5Q145 273 145 241V236Q145 196 157.0 163.5Q169 131 191.0 108.0Q213 85 243.5 72.5Q274 60 310 60Q383 60 429.5 101.5Q476 143 476 224V231Q476 312 435.0 354.5Q394 397 313 397Z" transform="translate(252.000 90.300) scale(0.010000 -0.010000)"/></g><rect x="298" y="20" width="48" height="48" rx="20" fill="#fff" stroke="#E1E8E4" stroke-width="1.5" opacity="1"/><g fill="#6B7280" opacity="1"><path d="M300 726Q352 726 392.0 712.5Q432 699 459.0 675.0Q486 651 499.5 619.0Q513 587 513 550V541Q513 513 507.5 488.5Q502 464 490.5 440.0Q479 416 461.0 392.0Q443 368 418 341L169 67H517Q531 67 537.5 58.0Q544 49 544 36Q544 22 537.5 13.0Q531 4 517 4H128Q98 4 85.5 13.5Q73 23 73 43Q73 53 78.5 63.0Q84 73 100 91L355 371Q380 399 396.5 421.0Q413 443 423.0 462.5Q433 482 436.5 500.0Q440 518 440 539V545Q440 598 405.0 629.0Q370 660 302 660Q246 660 209.0 636.0Q172 612 143 568Q135 557 122.5 554.5Q110 552 98 560Q86 568 82.5 580.5Q79 593 87 606Q119 657 171.0 691.5Q223 726 300 726Z" transform="translate(316.000 90.300) scale(0.010000 -0.010000)"/><path d="M300 726Q432 726 489.0 639.5Q546 553 546 387V332Q546 165 489.0 79.0Q432 -7 300 -7Q168 -7 111.0 79.0Q54 165 54 332V387Q54 553 111.0 639.5Q168 726 300 726ZM300 658Q251 658 218.0 641.5Q185 625 164.5 590.5Q144 556 135.5 503.5Q127 451 127 380V339Q127 268 135.5 215.5Q144 163 164.5 128.5Q185 94 218.0 77.5Q251 61 300 61Q349 61 382.0 77.5Q415 94 435.5 128.5Q456 163 464.5 215.5Q473 268 473 339V380Q473 451 464.5 503.5Q456 556 435.5 590.5Q415 625 382.0 641.5Q349 658 300 658Z" transform="translate(322.000 90.300) scale(0.010000 -0.010000)"/></g><rect x="368" y="20" width="48" height="48" rx="24" fill="#fff" stroke="#E1E8E4" stroke-width="1.5" opacity="1"/><g fill="#6B7280" opacity="1"><path d="M300 726Q352 726 392.0 712.5Q432 699 459.0 675.0Q486 651 499.5 619.0Q513 587 513 550V541Q513 513 507.5 488.5Q502 464 490.5 440.0Q479 416 461.0 392.0Q443 368 418 341L169 67H517Q531 67 537.5 58.0Q544 49 544 36Q544 22 537.5 13.0Q531 4 517 4H128Q98 4 85.5 13.5Q73 23 73 43Q73 53 78.5 63.0Q84 73 100 91L355 371Q380 399 396.5 421.0Q413 443 423.0 462.5Q433 482 436.5 500.0Q440 518 440 539V545Q440 598 405.0 629.0Q370 660 302 660Q246 660 209.0 636.0Q172 612 143 568Q135 557 122.5 554.5Q110 552 98 560Q86 568 82.5 580.5Q79 593 87 606Q119 657 171.0 691.5Q223 726 300 726Z" transform="translate(386.000 90.300) scale(0.010000 -0.010000)"/><path d="M422 712Q435 704 438.5 692.0Q442 680 432 665L126 225H403V427Q403 443 414.0 450.0Q425 457 439 457Q453 457 464.5 450.0Q476 443 476 427V225H561Q575 225 580.5 216.0Q586 207 586 194Q586 181 580.5 172.0Q575 163 561 163H476V30Q476 14 464.5 7.0Q453 0 439 0Q425 0 414.0 7.0Q403 14 403 30V163H89Q60 163 48.5 172.0Q37 181 37 200Q37 208 41.0 217.0Q45 226 62 250L377 705Q386 718 398.5 719.0Q411 720 422 712Z" transform="translate(392.000 90.300) scale(0.010000 -0.010000)"/></g><rect x="438" y="20" width="48" height="48" rx="28" fill="#fff" stroke="#E1E8E4" stroke-width="1.5" opacity="1"/><g fill="#6B7280" opacity="1"><path d="M300 726Q352 726 392.0 712.5Q432 699 459.0 675.0Q486 651 499.5 619.0Q513 587 513 550V541Q513 513 507.5 488.5Q502 464 490.5 440.0Q479 416 461.0 392.0Q443 368 418 341L169 67H517Q531 67 537.5 58.0Q544 49 544 36Q544 22 537.5 13.0Q531 4 517 4H128Q98 4 85.5 13.5Q73 23 73 43Q73 53 78.5 63.0Q84 73 100 91L355 371Q380 399 396.5 421.0Q413 443 423.0 462.5Q433 482 436.5 500.0Q440 518 440 539V545Q440 598 405.0 629.0Q370 660 302 660Q246 660 209.0 636.0Q172 612 143 568Q135 557 122.5 554.5Q110 552 98 560Q86 568 82.5 580.5Q79 593 87 606Q119 657 171.0 691.5Q223 726 300 726Z" transform="translate(456.000 90.300) scale(0.010000 -0.010000)"/><path d="M300 726Q349 726 388.5 712.0Q428 698 456.0 673.0Q484 648 499.0 615.0Q514 582 514 543V532Q514 477 483.5 434.5Q453 392 400 368Q463 351 499.5 304.5Q536 258 536 199V187Q536 144 519.0 108.0Q502 72 471.5 46.5Q441 21 397.5 7.0Q354 -7 301 -7Q247 -7 203.0 7.0Q159 21 128.5 46.5Q98 72 81.0 108.0Q64 144 64 187V199Q64 259 100.5 305.0Q137 351 199 368Q147 391 116.5 434.0Q86 477 86 532V543Q86 582 101.0 615.0Q116 648 143.5 673.0Q171 698 210.5 712.0Q250 726 300 726ZM300 661Q232 661 194.5 626.0Q157 591 157 536V529Q157 500 167.5 476.5Q178 453 197.0 436.0Q216 419 242.5 409.5Q269 400 301 400Q365 400 404.0 436.0Q443 472 443 529V536Q443 591 404.5 626.0Q366 661 300 661ZM301 335Q266 335 236.5 326.0Q207 317 184.5 299.0Q162 281 149.5 255.0Q137 229 137 196V189Q137 134 180.0 96.0Q223 58 301 58Q379 58 421.0 96.0Q463 134 463 189V196Q463 228 451.0 254.0Q439 280 417.0 298.0Q395 316 365.5 325.5Q336 335 301 335Z" transform="translate(462.000 90.300) scale(0.010000 -0.010000)"/></g><rect x="508" y="20" width="48" height="48" rx="24" fill="#fff" stroke="#E1E8E4" stroke-width="1.5" opacity="1"/><g fill="#6B7280" opacity="1"><path d="M350 755Q408 755 451.0 743.0Q494 731 522.5 709.5Q551 688 565.5 658.0Q580 628 580 593Q580 558 565.5 528.0Q551 498 522.5 476.5Q494 455 451.0 443.0Q408 431 350 431Q292 431 248.5 443.0Q205 455 176.5 476.5Q148 498 134.0 528.0Q120 558 120 593Q120 628 134.0 658.0Q148 688 176.5 709.5Q205 731 248.5 743.0Q292 755 350 755ZM350 695Q267 695 228.5 665.5Q190 636 190 593Q190 549 228.5 520.0Q267 491 350 491Q433 491 471.5 520.0Q510 549 510 593Q510 637 471.5 666.0Q433 695 350 695ZM762 774Q776 774 787.0 767.0Q798 760 798 744V104Q798 88 787.0 81.0Q776 74 762 74Q748 74 737.0 81.0Q726 88 726 104V173H542Q530 173 524.0 182.0Q518 191 518 204Q518 216 524.0 225.0Q530 234 542 234H726V744Q726 760 737.0 767.0Q748 774 762 774ZM632 376Q644 378 651.5 370.0Q659 362 661 349Q662 335 656.5 326.0Q651 317 639 315Q579 307 513.0 302.5Q447 298 377 295V156Q377 141 366.0 134.5Q355 128 340 128Q326 128 315.0 134.5Q304 141 304 156V292Q247 290 189.5 289.5Q132 289 76 289Q63 289 57.0 298.0Q51 307 51 320Q51 333 57.0 342.0Q63 351 76 351Q207 351 349.0 355.0Q491 359 632 376ZM239 108Q253 108 264.5 101.0Q276 94 276 78V-47Q276 -66 295 -66H799Q812 -66 818.0 -75.0Q824 -84 824 -97Q824 -110 818.0 -119.0Q812 -128 799 -128H271Q232 -128 217.0 -113.5Q202 -99 202 -61V78Q202 94 213.5 101.0Q225 108 239 108Z" transform="translate(522.900 90.300) scale(0.010000 -0.010000)"/><path d="M317 547Q414 547 466.5 504.5Q519 462 519 391Q519 320 466.5 277.5Q414 235 317 235Q220 235 167.5 277.5Q115 320 115 391Q115 462 167.5 504.5Q220 547 317 547ZM317 784Q331 784 342.5 777.0Q354 770 354 754V675H548Q562 675 568.0 666.0Q574 657 574 644Q574 631 568.0 621.5Q562 612 548 612H76Q62 612 56.0 621.5Q50 631 50 644Q50 657 56.0 666.0Q62 675 76 675H280V754Q280 770 291.5 777.0Q303 784 317 784ZM317 488Q251 488 216.5 461.5Q182 435 182 391Q182 347 216.5 320.5Q251 294 317 294Q383 294 417.5 320.5Q452 347 452 391Q452 435 417.5 461.5Q383 488 317 488ZM751 774Q765 774 775.5 767.0Q786 760 786 744V218Q786 203 775.5 196.0Q765 189 751 189Q737 189 725.5 196.0Q714 203 714 218V309H590Q577 309 571.0 317.5Q565 326 565 340Q565 353 571.0 362.0Q577 371 590 371H714V474H585Q572 474 566.0 482.5Q560 491 560 505Q560 517 566.0 526.0Q572 535 585 535H714V744Q714 760 725.5 767.0Q737 774 751 774ZM509 177Q646 177 719.5 136.0Q793 95 793 13Q793 -70 719.5 -110.5Q646 -151 509 -151Q372 -151 298.5 -110.5Q225 -70 225 13Q225 95 298.5 136.0Q372 177 509 177ZM509 117Q400 117 348.5 89.5Q297 62 297 13Q297 -37 348.5 -64.5Q400 -92 509 -92Q618 -92 669.5 -64.5Q721 -37 721 13Q721 62 669.5 89.5Q618 117 509 117Z" transform="translate(532.000 90.300) scale(0.010000 -0.010000)"/></g></svg>