<svg xmlns="http://www.w3.org/2000/svg" width="560" height="130" viewBox="0 0 560 130" role="img" aria-label="Spacing scale"><title>Spacing scale</title><rect x="0" y="0" width="560" height="130" rx="0" fill="#fff" stroke-width="1" opacity="1"/><rect x="22" y="56" width="4" height="4" rx="3" fill="#E9F7EC" stroke="#A8DCC8" stroke-width="1" opacity="1"/><g fill="#6B7280" opacity="1"><path d="M422 712Q435 704 438.5 692.0Q442 680 432 665L126 225H403V427Q403 443 414.0 450.0Q425 457 439 457Q453 457 464.5 450.0Q476 443 476 427V225H561Q575 225 580.5 216.0Q586 207 586 194Q586 181 580.5 172.0Q575 163 561 163H476V30Q476 14 464.5 7.0Q453 0 439 0Q425 0 414.0 7.0Q403 14 403 30V163H89Q60 163 48.5 172.0Q37 181 37 200Q37 208 41.0 217.0Q45 226 62 250L377 705Q386 718 398.5 719.0Q411 720 422 712Z" transform="translate(21.000 91.300) scale(0.010000 -0.010000)"/></g><rect x="88" y="52" width="8" height="8" rx="3" fill="#E9F7EC" stroke="#A8DCC8" stroke-width="1" opacity="1"/><g fill="#6B7280" opacity="1"><path d="M300 726Q349 726 388.5 712.0Q428 698 456.0 673.0Q484 648 499.0 615.0Q514 582 514 543V532Q514 477 483.5 434.5Q453 392 400 368Q463 351 499.5 304.5Q536 258 536 199V187Q536 144 519.0 108.0Q502 72 471.5 46.5Q441 21 397.5 7.0Q354 -7 301 -7Q247 -7 203.0 7.0Q159 21 128.5 46.5Q98 72 81.0 108.0Q64 144 64 187V199Q64 259 100.5 305.0Q137 351 199 368Q147 391 116.5 434.0Q86 477 86 532V543Q86 582 101.0 615.0Q116 648 143.5 673.0Q171 698 210.5 712.0Q250 726 300 726ZM300 661Q232 661 194.5 626.0Q157 591 157 536V529Q157 500 167.5 476.5Q178 453 197.0 436.0Q216 419 242.5 409.5Q269 400 301 400Q365 400 404.0 436.0Q443 472 443 529V536Q443 591 404.5 626.0Q366 661 300 661ZM301 335Q266 335 236.5 326.0Q207 317 184.5 299.0Q162 281 149.5 255.0Q137 229 137 196V189Q137 134 180.0 96.0Q223 58 301 58Q379 58 421.0 96.0Q463 134 463 189V196Q463 228 451.0 254.0Q439 280 417.0 298.0Q395 316 365.5 325.5Q336 335 301 335Z" transform="translate(89.000 91.300) scale(0.010000 -0.010000)"/></g><rect x="154" y="48" width="12" height="12" rx="3" fill="#E9F7EC" stroke="#A8DCC8" stroke-width="1" opacity="1"/><g fill="#6B7280" opacity="1"><path d="M363 719Q380 719 391.0 711.5Q402 704 402 687V30Q402 14 391.0 7.0Q380 0 365 0Q351 0 340.0 7.0Q329 14 329 30V631L159 523Q145 515 133.5 520.0Q122 525 114 537Q107 548 108.5 561.0Q110 574 123 582L312 700Q344 719 363 719Z" transform="translate(154.000 91.300) scale(0.010000 -0.010000)"/><path d="M300 726Q352 726 392.0 712.5Q432 699 459.0 675.0Q486 651 499.5 619.0Q513 587 513 550V541Q513 513 507.5 488.5Q502 464 490.5 440.0Q479 416 461.0 392.0Q443 368 418 341L169 67H517Q531 67 537.5 58.0Q544 49 544 36Q544 22 537.5 13.0Q531 4 517 4H128Q98 4 85.5 13.5Q73 23 73 43Q73 53 78.5 63.0Q84 73 100 91L355 371Q380 399 396.5 421.0Q413 443 423.0 462.5Q433 482 436.5 500.0Q440 518 440 539V545Q440 598 405.0 629.0Q370 660 302 660Q246 660 209.0 636.0Q172 612 143 568Q135 557 122.5 554.5Q110 552 98 560Q86 568 82.5 580.5Q79 593 87 606Q119 657 171.0 691.5Q223 726 300 726Z" transform="translate(160.000 91.300) scale(0.010000 -0.010000)"/></g><rect x="220" y="44" width="16" height="16" rx="3" fill="#E9F7EC" stroke="#A8DCC8" stroke-width="1" opacity="1"/><g fill="#6B7280" opacity="1"><path d="M363 719Q380 719 391.0 711.5Q402 704 402 687V30Q402 14 391.0 7.0Q380 0 365 0Q351 0 340.0 7.0Q329 14 329 30V631L159 523Q145 515 133.5 520.0Q122 525 114 537Q107 548 108.5 561.0Q110 574 123 582L312 700Q344 719 363 719Z" transform="translate(222.000 91.300) scale(0.010000 -0.010000)"/><path d="M337 726Q386 726 428.0 715.0Q470 704 498 688Q511 680 514.0 668.5Q517 657 511 643Q505 630 493.5 626.0Q482 622 468 629Q439 643 407.5 651.0Q376 659 336 659Q286 659 251.0 638.5Q216 618 192.0 580.0Q168 542 155.0 486.5Q142 431 138 362Q150 386 169.5 404.0Q189 422 214.0 435.0Q239 448 267.0 454.5Q295 461 325 461Q376 461 417.0 445.5Q458 430 487.5 401.0Q517 372 532.5 330.5Q548 289 548 238V222Q548 169 530.0 126.5Q512 84 480.5 54.5Q449 25 405.5 9.0Q362 -7 311 -7Q257 -7 212.5 11.5Q168 30 135.5 67.0Q103 104 85.0 160.5Q67 217 67 293V314Q67 428 86.5 507.0Q106 586 141.0 634.5Q176 683 226.0 704.5Q276 726 337 726ZM313 397Q274 397 242.5 384.5Q211 372 189.5 351.0Q168 330 156.5 301.5Q145 273 145 241V236Q145 196 157.0 163.5Q169 131 191.0 108.0Q213 85 243.5 72.5Q274 60 310 60Q383 60 429.5 101.5Q476 143 476 224V231Q476 312 435.0 354.5Q394 397 313 397Z" transform="translate(228.000 91.300) scale(0.010000 -0.010000)"/></g><rect x="286" y="40" width="20" height="20" rx="3" fill="#E9F7EC" stroke="#A8DCC8" stroke-width="1" opacity="1"/><g fill="#6B7280" opacity="1"><path d="M300 726Q352 726 392.0 712.5Q432 699 459.0 675.0Q486 651 499.5 619.0Q513 587 513 550V541Q513 513 507.5 488.5Q502 464 490.5 440.0Q479 416 461.0 392.0Q443 368 418 341L169 67H517Q531 67 537.5 58.0Q544 49 544 36Q544 22 537.5 13.0Q531 4 517 4H128Q98 4 85.5 13.5Q73 23 73 43Q73 53 78.5 63.0Q84 73 100 91L355 371Q380 399 396.5 421.0Q413 443 423.0 462.5Q433 482 436.5 500.0Q440 518 440 539V545Q440 598 405.0 629.0Q370 660 302 660Q246 660 209.0 636.0Q172 612 143 568Q135 557 122.5 554.5Q110 552 98 560Q86 568 82.5 580.5Q79 593 87 606Q119 657 171.0 691.5Q223 726 300 726Z" transform="translate(290.000 91.300) scale(0.010000 -0.010000)"/><path d="M300 726Q432 726 489.0 639.5Q546 553 546 387V332Q546 165 489.0 79.0Q432 -7 300 -7Q168 -7 111.0 79.0Q54 165 54 332V387Q54 553 111.0 639.5Q168 726 300 726ZM300 658Q251 658 218.0 641.5Q185 625 164.5 590.5Q144 556 135.5 503.5Q127 451 127 380V339Q127 268 135.5 215.5Q144 163 164.5 128.5Q185 94 218.0 77.5Q251 61 300 61Q349 61 382.0 77.5Q415 94 435.5 128.5Q456 163 464.5 215.5Q473 268 473 339V380Q473 451 464.5 503.5Q456 556 435.5 590.5Q415 625 382.0 641.5Q349 658 300 658Z" transform="translate(296.000 91.300) scale(0.010000 -0.010000)"/></g><rect x="352" y="36" width="24" height="24" rx="3" fill="#E9F7EC" stroke="#A8DCC8" stroke-width="1" opacity="1"/><g fill="#6B7280" opacity="1"><path d="M300 726Q352 726 392.0 712.5Q432 699 459.0 675.0Q486 651 499.5 619.0Q513 587 513 550V541Q513 513 507.5 488.5Q502 464 490.5 440.0Q479 416 461.0 392.0Q443 368 418 341L169 67H517Q531 67 537.5 58.0Q544 49 544 36Q544 22 537.5 13.0Q531 4 517 4H128Q98 4 85.5 13.5Q73 23 73 43Q73 53 78.5 63.0Q84 73 100 91L355 371Q380 399 396.5 421.0Q413 443 423.0 462.5Q433 482 436.5 500.0Q440 518 440 539V545Q440 598 405.0 629.0Q370 660 302 660Q246 660 209.0 636.0Q172 612 143 568Q135 557 122.5 554.5Q110 552 98 560Q86 568 82.5 580.5Q79 593 87 606Q119 657 171.0 691.5Q223 726 300 726Z" transform="translate(358.000 91.300) scale(0.010000 -0.010000)"/><path d="M422 712Q435 704 438.5 692.0Q442 680 432 665L126 225H403V427Q403 443 414.0 450.0Q425 457 439 457Q453 457 464.5 450.0Q476 443 476 427V225H561Q575 225 580.5 216.0Q586 207 586 194Q586 181 580.5 172.0Q575 163 561 163H476V30Q476 14 464.5 7.0Q453 0 439 0Q425 0 414.0 7.0Q403 14 403 30V163H89Q60 163 48.5 172.0Q37 181 37 200Q37 208 41.0 217.0Q45 226 62 250L377 705Q386 718 398.5 719.0Q411 720 422 712Z" transform="translate(364.000 91.300) scale(0.010000 -0.010000)"/></g><rect x="418" y="28" width="32" height="32" rx="3" fill="#E9F7EC" stroke="#A8DCC8" stroke-width="1" opacity="1"/><g fill="#6B7280" opacity="1"><path d="M289 726Q341 726 381.5 712.5Q422 699 450.0 674.5Q478 650 492.5 617.0Q507 584 507 545V540Q507 517 500.5 492.5Q494 468 479.0 446.0Q464 424 439.5 405.5Q415 387 380 375Q450 364 493.0 321.5Q536 279 536 210V200Q536 160 521.5 122.5Q507 85 477.5 56.5Q448 28 402.5 10.5Q357 -7 295 -7Q235 -7 180.5 10.5Q126 28 84 57Q71 66 69.0 79.0Q67 92 75 106Q93 135 121 116Q159 89 201.5 74.0Q244 59 292 59Q337 59 369.5 71.0Q402 83 422.5 103.5Q443 124 453.0 149.5Q463 175 463 202V210Q463 250 447.0 275.5Q431 301 406.5 315.5Q382 330 351.5 335.5Q321 341 292 341H230Q216 341 210.0 350.0Q204 359 204 373Q204 387 210.0 396.5Q216 406 230 406H287Q314 406 340.5 413.5Q367 421 388.5 437.0Q410 453 423.0 478.0Q436 503 436 539V542Q436 595 398.5 628.0Q361 661 289 661Q241 661 206.5 642.5Q172 624 145 590Q135 579 122.5 579.0Q110 579 100 590Q89 600 88.5 612.0Q88 624 96 635Q125 673 173.5 699.5Q222 726 289 726Z" transform="translate(428.000 91.300) scale(0.010000 -0.010000)"/><path d="M300 726Q352 726 392.0 712.5Q432 699 459.0 675.0Q486 651 499.5 619.0Q513 587 513 550V541Q513 513 507.5 488.5Q502 464 490.5 440.0Q479 416 461.0 392.0Q443 368 418 341L169 67H517Q531 67 537.5 58.0Q544 49 544 36Q544 22 537.5 13.0Q531 4 517 4H128Q98 4 85.5 13.5Q73 23 73 43Q73 53 78.5 63.0Q84 73 100 91L355 371Q380 399 396.5 421.0Q413 443 423.0 462.5Q433 482 436.5 500.0Q440 518 440 539V545Q440 598 405.0 629.0Q370 660 302 660Q246 660 209.0 636.0Q172 612 143 568Q135 557 122.5 554.5Q110 552 98 560Q86 568 82.5 580.5Q79 593 87 606Q119 657 171.0 691.5Q223 726 300 726Z" transform="translate(434.000 91.300) scale(0.010000 -0.010000)"/></g><rect x="484" y="20" width="40" height="40" rx="3" fill="#E9F7EC" stroke="#A8DCC8" stroke-width="1" opacity="1"/><g fill="#6B7280" opacity="1"><path d="M422 712Q435 704 438.5 692.0Q442 680 432 665L126 225H403V427Q403 443 414.0 450.0Q425 457 439 457Q453 457 464.5 450.0Q476 443 476 427V225H561Q575 225 580.5 216.0Q586 207 586 194Q586 181 580.5 172.0Q575 163 561 163H476V30Q476 14 464.5 7.0Q453 0 439 0Q425 0 414.0 7.0Q403 14 403 30V163H89Q60 163 48.5 172.0Q37 181 37 200Q37 208 41.0 217.0Q45 226 62 250L377 705Q386 718 398.5 719.0Q411 720 422 712Z" transform="translate(498.000 91.300) scale(0.010000 -0.010000)"/><path d="M300 726Q432 726 489.0 639.5Q546 553 546 387V332Q546 165 489.0 79.0Q432 -7 300 -7Q168 -7 111.0 79.0Q54 165 54 332V387Q54 553 111.0 639.5Q168 726 300 726ZM300 658Q251 658 218.0 641.5Q185 625 164.5 590.5Q144 556 135.5 503.5Q127 451 127 380V339Q127 268 135.5 215.5Q144 163 164.5 128.5Q185 94 218.0 77.5Q251 61 300 61Q349 61 382.0 77.5Q415 94 435.5 128.5Q456 163 464.5 215.5Q473 268 473 339V380Q473 451 464.5 503.5Q456 556 435.5 590.5Q415 625 382.0 641.5Q349 658 300 658Z" transform="translate(504.000 91.300) scale(0.010000 -0.010000)"/></g></svg>