<svg xmlns="http://www.w3.org/2000/svg" width="170" height="170" viewBox="0 0 170 170" role="img" aria-label="mulch pot"><title>mulch pot</title><ellipse cx="85" cy="132" rx="45" ry="14" fill="#8B5A33" stroke-width="1" opacity="1"/><rect x="51" y="80" width="68" height="50" rx="10" fill="#9B633B" stroke-width="1" opacity="1"/><ellipse cx="85" cy="83" rx="34" ry="10" fill="#5B3B24" stroke-width="1" opacity="1"/><path d="M79.0 109.8 C76.3 83.7 79.9 63.9 79.0 48.6" fill="none" stroke="#398F42" stroke-width="4.5" stroke-linecap="round" stroke-linejoin="round" opacity="1"/><path d="M33.1 76.5 C28.42 53.01 41.524 36.0 63.98800000000001 36.0 C79.9 42.075 79.9 63.540000000000006 33.1 76.5Z" fill="#54B84C" stroke-width="1" stroke-linecap="round" stroke-linejoin="round" opacity="1" transform="rotate(-20 56.5 56.25)"/><path d="M38.716 68.4 Q54.160000000000004 55.44 67.732 43.29" fill="none" stroke="#F4FFF6" stroke-width="1.872" stroke-linecap="round" stroke-linejoin="round" opacity="0.75" transform="rotate(-20 56.5 56.25)"/><path d="M77.2 67.5 C72.7 44.532000000000004 85.3 27.900000000000002 106.9 27.900000000000002 C122.2 33.84 122.2 54.828 77.2 67.5Z" fill="#3EA845" stroke-width="1" stroke-linecap="round" stroke-linejoin="round" opacity="1" transform="rotate(18 99.7 47.7)"/><path d="M82.60000000000001 59.580000000000005 Q97.45 46.908 110.5 35.028000000000006" fill="none" stroke="#F4FFF6" stroke-width="1.8" stroke-linecap="round" stroke-linejoin="round" opacity="0.75" transform="rotate(18 99.7 47.7)"/></svg>