<svg xmlns="http://www.w3.org/2000/svg" width="170" height="170" viewBox="0 0 170 170" role="img" aria-label="pear"><title>pear</title><defs><linearGradient id="crop-pear-pear" x1="0%" y1="0%" x2="100%" y2="100%"><stop offset="0%" stop-color="#CDE44D" stop-opacity="1"/><stop offset="100%" stop-color="#72AE32" stop-opacity="1"/></linearGradient></defs><path d="M85 48 C62 60 56 87 46 110 C33 140 54 155 85 155 C116 155 137 140 124 110 C114 87 108 60 85 48Z" fill="url(#crop-pear-pear)" stroke-width="1" stroke-linecap="round" stroke-linejoin="round" opacity="1"/><path d="M85 48 Q83 30 95 23" fill="none" stroke="#6C5B2C" stroke-width="6" stroke-linecap="round" stroke-linejoin="round" opacity="1"/><path d="M90 46 C86.5 32.08 96.3 22 113.1 22 C125 25.6 125 38.32 90 46Z" fill="#4DA842" stroke-width="1" stroke-linecap="round" stroke-linejoin="round" opacity="1" transform="rotate(-5 107.5 34.0)"/><path d="M94.2 41.2 Q105.75 33.519999999999996 115.9 26.32" fill="none" stroke="#F4FFF6" stroke-width="1.4000000000000001" stroke-linecap="round" stroke-linejoin="round" opacity="0.75" transform="rotate(-5 107.5 34.0)"/></svg>