<svg xmlns="http://www.w3.org/2000/svg" width="170" height="170" viewBox="0 0 170 170" role="img" aria-label="potato"><title>potato</title><defs><linearGradient id="crop-potato-potato" x1="0%" y1="0%" x2="100%" y2="100%"><stop offset="0%" stop-color="#E8B36F" stop-opacity="1"/><stop offset="100%" stop-color="#B97A3E" stop-opacity="1"/></linearGradient></defs><path d="M38 73 C43 36 83 31 107 48 C143 43 161 75 150 104 C156 133 125 151 96 141 C71 156 40 136 44 111 C21 98 25 81 38 73Z" fill="url(#crop-potato-potato)" stroke-width="1" stroke-linecap="round" stroke-linejoin="round" opacity="1"/><ellipse cx="65" cy="70" rx="5" ry="3" fill="#8F5D34" stroke-width="1" opacity="0.7"/><ellipse cx="108" cy="63" rx="5" ry="3" fill="#8F5D34" stroke-width="1" opacity="0.7"/><ellipse cx="84" cy="101" rx="5" ry="3" fill="#8F5D34" stroke-width="1" opacity="0.7"/><ellipse cx="131" cy="109" rx="5" ry="3" fill="#8F5D34" stroke-width="1" opacity="0.7"/><ellipse cx="59" cy="116" rx="5" ry="3" fill="#8F5D34" stroke-width="1" opacity="0.7"/><ellipse cx="102" cy="131" rx="5" ry="3" fill="#8F5D34" stroke-width="1" opacity="0.7"/><path d="M54 84 C71 63 91 50 116 50" fill="none" stroke="#F5CE91" stroke-width="6" stroke-linecap="round" stroke-linejoin="round" opacity="0.45"/></svg>