<svg xmlns="http://www.w3.org/2000/svg" width="170" height="170" viewBox="0 0 170 170" role="img" aria-label="seed potato"><title>seed potato</title><defs><linearGradient id="crop-seed-potato-potato" x1="0%" y1="0%" x2="100%" y2="100%"><stop offset="0%" stop-color="#E8B36F" stop-opacity="1"/><stop offset="100%" stop-color="#B97A3E" stop-opacity="1"/></linearGradient></defs><path d="M38 73 C43 36 83 31 107 48 C143 43 161 75 150 104 C156 133 125 151 96 141 C71 156 40 136 44 111 C21 98 25 81 38 73Z" fill="url(#crop-seed-potato-potato)" stroke-width="1" stroke-linecap="round" stroke-linejoin="round" opacity="1"/><ellipse cx="65" cy="70" rx="5" ry="3" fill="#8F5D34" stroke-width="1" opacity="0.7"/><ellipse cx="108" cy="63" rx="5" ry="3" fill="#8F5D34" stroke-width="1" opacity="0.7"/><ellipse cx="84" cy="101" rx="5" ry="3" fill="#8F5D34" stroke-width="1" opacity="0.7"/><ellipse cx="131" cy="109" rx="5" ry="3" fill="#8F5D34" stroke-width="1" opacity="0.7"/><ellipse cx="59" cy="116" rx="5" ry="3" fill="#8F5D34" stroke-width="1" opacity="0.7"/><ellipse cx="102" cy="131" rx="5" ry="3" fill="#8F5D34" stroke-width="1" opacity="0.7"/><path d="M54 84 C71 63 91 50 116 50" fill="none" stroke="#F5CE91" stroke-width="6" stroke-linecap="round" stroke-linejoin="round" opacity="0.45"/><path d="M100 54 C95.8 35.44 107.56 22 127.72 22 C142 26.8 142 43.760000000000005 100 54Z" fill="#4CC48B" stroke-width="1" stroke-linecap="round" stroke-linejoin="round" opacity="1" transform="rotate(-10 121.0 38.0)"/><path d="M105.04 47.6 Q118.9 37.36 131.07999999999998 27.759999999999998" fill="none" stroke="#F4FFF6" stroke-width="1.68" stroke-linecap="round" stroke-linejoin="round" opacity="0.75" transform="rotate(-10 121.0 38.0)"/></svg>