<svg xmlns="http://www.w3.org/2000/svg" width="170" height="170" viewBox="0 0 170 170" role="img" aria-label="soil sprout"><title>soil sprout</title><ellipse cx="85" cy="132" rx="52" ry="15" fill="#8B5A33" stroke-width="1" opacity="1"/><ellipse cx="85" cy="126" rx="43" ry="12" fill="#B77A45" stroke-width="1" opacity="1"/><path d="M85 127 C82 98 86 76 85 59" fill="none" stroke="#398F42" stroke-width="5" stroke-linecap="round" stroke-linejoin="round" opacity="1"/><path d="M34 90 C28.8 63.9 43.36 45 68.32 45 C86 51.75 86 75.6 34 90Z" fill="#54B84C" stroke-width="1" stroke-linecap="round" stroke-linejoin="round" opacity="1" transform="rotate(-20 60.0 67.5)"/><path d="M40.24 81.0 Q57.400000000000006 66.6 72.47999999999999 53.1" fill="none" stroke="#F4FFF6" stroke-width="2.08" stroke-linecap="round" stroke-linejoin="round" opacity="0.75" transform="rotate(-20 60.0 67.5)"/><path d="M83 80 C78.0 54.480000000000004 92.0 36 116.0 36 C133 42.6 133 65.92 83 80Z" fill="#3EA845" stroke-width="1" stroke-linecap="round" stroke-linejoin="round" opacity="1" transform="rotate(18 108.0 58.0)"/><path d="M89.0 71.2 Q105.5 57.12 120.0 43.92" fill="none" stroke="#F4FFF6" stroke-width="2.0" stroke-linecap="round" stroke-linejoin="round" opacity="0.75" transform="rotate(18 108.0 58.0)"/></svg>