<svg xmlns="http://www.w3.org/2000/svg" width="24" height="24" viewBox="0 0 24 24" role="img" aria-label="info"><title>info</title><circle cx="12" cy="12" r="10" fill="none" stroke="#1F2937" stroke-width="1.8" opacity="1"/><g fill="#1F2937" opacity="1"><path d="M133 732Q161 732 180.0 713.5Q199 695 199 669Q199 642 180.0 623.5Q161 605 133 605Q105 605 86.0 623.5Q67 642 67 669Q67 695 86.0 713.5Q105 732 133 732ZM133 534Q153 534 167.5 524.0Q182 514 182 493V40Q182 19 167.5 9.0Q153 -1 133 -1Q114 -1 99.0 9.0Q84 19 84 40V493Q84 514 99.0 524.0Q114 534 133 534Z" transform="translate(10.138 16.620) scale(0.014000 -0.014000)"/></g></svg>