<svg xmlns="http://www.w3.org/2000/svg" style="display:none"><symbol id="ff-home" viewBox="0 0 24 24"><ns0:path xmlns:ns0="http://www.w3.org/2000/svg" d="M3 11 L12 3 L21 11 V21 H15 V15 H9 V21 H3Z" fill="none" stroke="#1F2937" stroke-width="1.8" stroke-linecap="round" stroke-linejoin="round" opacity="1" /></symbol><symbol id="ff-user" viewBox="0 0 24 24"><ns0:circle xmlns:ns0="http://www.w3.org/2000/svg" cx="12" cy="7" r="4" fill="none" stroke="#1F2937" stroke-width="1.8" opacity="1" /><ns0:path xmlns:ns0="http://www.w3.org/2000/svg" d="M4 22 Q4 14 12 14 Q20 14 20 22" fill="none" stroke="#1F2937" stroke-width="1.8" stroke-linecap="round" stroke-linejoin="round" opacity="1" /></symbol><symbol id="ff-chat" viewBox="0 0 24 24"><ns0:path xmlns:ns0="http://www.w3.org/2000/svg" d="M3 4 H21 Q23 4 23 6 V16 Q23 18 21 18 H13 L7 23 V18 H3 Q1 18 1 16 V6 Q1 4 3 4Z" fill="none" stroke="#1F2937" stroke-width="1.8" stroke-linecap="round" stroke-linejoin="round" opacity="1" /><ns0:circle xmlns:ns0="http://www.w3.org/2000/svg" cx="8" cy="11" r="1.3" fill="#1F2937" stroke-width="1" opacity="1" /><ns0:circle xmlns:ns0="http://www.w3.org/2000/svg" cx="12" cy="11" r="1.3" fill="#1F2937" stroke-width="1" opacity="1" /><ns0:circle xmlns:ns0="http://www.w3.org/2000/svg" cx="16" cy="11" r="1.3" fill="#1F2937" stroke-width="1" opacity="1" /></symbol><symbol id="ff-ai-chat" viewBox="0 0 24 24"><ns0:path xmlns:ns0="http://www.w3.org/2000/svg" d="M3 4 H21 Q23 4 23 6 V16 Q23 18 21 18 H13 L7 23 V18 H3 Q1 18 1 16 V6 Q1 4 3 4Z" fill="#2FA86A" stroke-width="1" stroke-linecap="round" stroke-linejoin="round" opacity="1" /><ns0:circle xmlns:ns0="http://www.w3.org/2000/svg" cx="8" cy="11" r="1.3" fill="#fff" stroke-width="1" opacity="1" /><ns0:circle xmlns:ns0="http://www.w3.org/2000/svg" cx="12" cy="11" r="1.3" fill="#fff" stroke-width="1" opacity="1" /><ns0:circle xmlns:ns0="http://www.w3.org/2000/svg" cx="16" cy="11" r="1.3" fill="#fff" stroke-width="1" opacity="1" /></symbol><symbol id="ff-settings" viewBox="0 0 24 24"><ns0:circle xmlns:ns0="http://www.w3.org/2000/svg" cx="12" cy="12" r="3.2" fill="none" stroke="#1F2937" stroke-width="1.8" opacity="1" /><ns0:line xmlns:ns0="http://www.w3.org/2000/svg" x1="19.0" y1="12.0" x2="22.0" y2="12.0" stroke="#1F2937" stroke-width="2" stroke-linecap="round" opacity="1" /><ns0:line xmlns:ns0="http://www.w3.org/2000/svg" x1="16.949747468305834" y1="16.94974746830583" x2="19.071067811865476" y2="19.071067811865476" stroke="#1F2937" stroke-width="2" stroke-linecap="round" opacity="1" /><ns0:line xmlns:ns0="http://www.w3.org/2000/svg" x1="12.0" y1="19.0" x2="12.0" y2="22.0" stroke="#1F2937" stroke-width="2" stroke-linecap="round" opacity="1" /><ns0:line xmlns:ns0="http://www.w3.org/2000/svg" x1="7.050252531694168" y1="16.949747468305834" x2="4.928932188134525" y2="19.071067811865476" stroke="#1F2937" stroke-width="2" stroke-linecap="round" opacity="1" /><ns0:line xmlns:ns0="http://www.w3.org/2000/svg" x1="5.0" y1="12.0" x2="2.0" y2="12.000000000000002" stroke="#1F2937" stroke-width="2" stroke-linecap="round" opacity="1" /><ns0:line xmlns:ns0="http://www.w3.org/2000/svg" x1="7.050252531694166" y1="7.050252531694168" x2="4.928932188134523" y2="4.928932188134525" stroke="#1F2937" stroke-width="2" stroke-linecap="round" opacity="1" /><ns0:line xmlns:ns0="http://www.w3.org/2000/svg" x1="11.999999999999998" y1="5.0" x2="11.999999999999998" y2="2.0" stroke="#1F2937" stroke-width="2" stroke-linecap="round" opacity="1" /><ns0:line xmlns:ns0="http://www.w3.org/2000/svg" x1="16.94974746830583" y1="7.050252531694166" x2="19.071067811865476" y2="4.928932188134523" stroke="#1F2937" stroke-width="2" stroke-linecap="round" opacity="1" /><ns0:circle xmlns:ns0="http://www.w3.org/2000/svg" cx="12" cy="12" r="8" fill="none" stroke="#1F2937" stroke-width="1.5" opacity="1" /></symbol><symbol id="ff-bell" viewBox="0 0 24 24"><ns0:path xmlns:ns0="http://www.w3.org/2000/svg" d="M6 17 H18 C17 15 17 13 17 9 C17 2 7 2 7 9 C7 13 7 15 6 17Z" fill="none" stroke="#1F2937" stroke-width="1.7" stroke-linecap="round" stroke-linejoin="round" opacity="1" /><ns0:path xmlns:ns0="http://www.w3.org/2000/svg" d="M10 20 Q12 22 14 20" fill="none" stroke="#1F2937" stroke-width="1.7" stroke-linecap="round" stroke-linejoin="round" opacity="1" /></symbol><symbol id="ff-location" viewBox="0 0 24 24"><ns0:path xmlns:ns0="http://www.w3.org/2000/svg" d="M12 22 C8 17 5 13 5 9 C5 1 19 1 19 9 C19 13 16 17 12 22Z" fill="#2FA86A" stroke-width="1" stroke-linecap="round" stroke-linejoin="round" opacity="1" /><ns0:circle xmlns:ns0="http://www.w3.org/2000/svg" cx="12" cy="9" r="3" fill="#fff" stroke-width="1" opacity="1" /></symbol><symbol id="ff-back" viewBox="0 0 24 24"><ns0:path xmlns:ns0="http://www.w3.org/2000/svg" d="M18 4 L8 12 L18 20" fill="none" stroke="#1F2937" stroke-width="2" stroke-linecap="round" stroke-linejoin="round" opacity="1" /></symbol><symbol id="ff-chevron-right" viewBox="0 0 24 24"><ns0:polyline xmlns:ns0="http://www.w3.org/2000/svg" points="8,4 16,12 8,20" fill="none" stroke="#1F2937" stroke-width="2" stroke-linecap="round" stroke-linejoin="round" opacity="1" /></symbol><symbol id="ff-chevron-left" viewBox="0 0 24 24"><ns0:polyline xmlns:ns0="http://www.w3.org/2000/svg" points="16,4 8,12 16,20" fill="none" stroke="#1F2937" stroke-width="2" stroke-linecap="round" stroke-linejoin="round" opacity="1" /></symbol><symbol id="ff-chevron-down" viewBox="0 0 24 24"><ns0:polyline xmlns:ns0="http://www.w3.org/2000/svg" points="4,8 12,16 20,8" fill="none" stroke="#1F2937" stroke-width="2" stroke-linecap="round" stroke-linejoin="round" opacity="1" /></symbol><symbol id="ff-chevron-up" viewBox="0 0 24 24"><ns0:polyline xmlns:ns0="http://www.w3.org/2000/svg" points="4,16 12,8 20,16" fill="none" stroke="#1F2937" stroke-width="2" stroke-linecap="round" stroke-linejoin="round" opacity="1" /></symbol><symbol id="ff-check-circle" viewBox="0 0 24 24"><ns0:circle xmlns:ns0="http://www.w3.org/2000/svg" cx="12" cy="12" r="10" fill="none" stroke="#2FA86A" stroke-width="1.8" opacity="1" /><ns0:path xmlns:ns0="http://www.w3.org/2000/svg" d="M7 12 L11 16 L18 8" fill="none" stroke="#2FA86A" stroke-width="2.3" stroke-linecap="round" stroke-linejoin="round" opacity="1" /></symbol><symbol id="ff-check" viewBox="0 0 24 24"><ns0:path xmlns:ns0="http://www.w3.org/2000/svg" d="M7 12 L11 16 L18 8" fill="none" stroke="#2FA86A" stroke-width="2.3" stroke-linecap="round" stroke-linejoin="round" opacity="1" /></symbol><symbol id="ff-warning-triangle" viewBox="0 0 24 24"><ns0:polygon xmlns:ns0="http://www.w3.org/2000/svg" points="12,2 22,21 2,21" fill="#FF7A45" stroke-width="1" opacity="1" /><ns0:line xmlns:ns0="http://www.w3.org/2000/svg" x1="12" y1="8" x2="12" y2="14" stroke="#fff" stroke-width="2" stroke-linecap="round" opacity="1" /><ns0:circle xmlns:ns0="http://www.w3.org/2000/svg" cx="12" cy="17.5" r="1.3" fill="#fff" stroke-width="1" opacity="1" /></symbol><symbol id="ff-calendar" viewBox="0 0 24 24"><ns0:rect xmlns:ns0="http://www.w3.org/2000/svg" x="3" y="5" width="18" height="16" rx="3" fill="none" stroke="#1F2937" stroke-width="1.7" opacity="1" /><ns0:line xmlns:ns0="http://www.w3.org/2000/svg" x1="3" y1="9" x2="21" y2="9" stroke="#1F2937" stroke-width="1.7" stroke-linecap="round" opacity="1" /><ns0:line xmlns:ns0="http://www.w3.org/2000/svg" x1="8" y1="2" x2="8" y2="7" stroke="#1F2937" stroke-width="1.7" stroke-linecap="round" opacity="1" /><ns0:line xmlns:ns0="http://www.w3.org/2000/svg" x1="16" y1="2" x2="16" y2="7" stroke="#1F2937" stroke-width="1.7" stroke-linecap="round" opacity="1" /></symbol><symbol id="ff-search" viewBox="0 0 24 24"><ns0:circle xmlns:ns0="http://www.w3.org/2000/svg" cx="10" cy="10" r="7" fill="none" stroke="#1F2937" stroke-width="1.8" opacity="1" /><ns0:line xmlns:ns0="http://www.w3.org/2000/svg" x1="15" y1="15" x2="21" y2="21" stroke="#1F2937" stroke-width="2" stroke-linecap="round" opacity="1" /></symbol><symbol id="ff-leaf" viewBox="0 0 24 24"><ns0:path xmlns:ns0="http://www.w3.org/2000/svg" d="M3 20 C3 8 11 3 21 4 C21 14 16 21 3 20Z" fill="#2FA86A" stroke-width="1" stroke-linecap="round" stroke-linejoin="round" opacity="1" /><ns0:path xmlns:ns0="http://www.w3.org/2000/svg" d="M6 18 Q12 12 18 7" fill="none" stroke="#fff" stroke-width="1.4" stroke-linecap="round" stroke-linejoin="round" opacity="0.75" /></symbol><symbol id="ff-share" viewBox="0 0 24 24"><ns0:rect xmlns:ns0="http://www.w3.org/2000/svg" x="5" y="9" width="14" height="12" rx="2" fill="none" stroke="#1F2937" stroke-width="1.7" opacity="1" /><ns0:path xmlns:ns0="http://www.w3.org/2000/svg" d="M12 15 V3 M7 8 L12 3 L17 8" fill="none" stroke="#1F2937" stroke-width="1.8" stroke-linecap="round" stroke-linejoin="round" opacity="1" /></symbol><symbol id="ff-plus" viewBox="0 0 24 24"><ns0:line xmlns:ns0="http://www.w3.org/2000/svg" x1="4" y1="12" x2="20" y2="12" stroke="#2FA86A" stroke-width="2" stroke-linecap="round" opacity="1" /><ns0:line xmlns:ns0="http://www.w3.org/2000/svg" x1="12" y1="4" x2="12" y2="20" stroke="#2FA86A" stroke-width="2" stroke-linecap="round" opacity="1" /></symbol><symbol id="ff-info" viewBox="0 0 24 24"><ns0:circle xmlns:ns0="http://www.w3.org/2000/svg" cx="12" cy="12" r="10" fill="none" stroke="#1F2937" stroke-width="1.8" opacity="1" /><ns0:g xmlns:ns0="http://www.w3.org/2000/svg" fill="#1F2937" opacity="1"><ns0:path d="M133 732Q161 732 180.0 713.5Q199 695 199 669Q199 642 180.0 623.5Q161 605 133 605Q105 605 86.0 623.5Q67 642 67 669Q67 695 86.0 713.5Q105 732 133 732ZM133 534Q153 534 167.5 524.0Q182 514 182 493V40Q182 19 167.5 9.0Q153 -1 133 -1Q114 -1 99.0 9.0Q84 19 84 40V493Q84 514 99.0 524.0Q114 534 133 534Z" transform="translate(10.138 16.620) scale(0.014000 -0.014000)" /></ns0:g></symbol><symbol id="ff-circle" viewBox="0 0 24 24"><ns0:circle xmlns:ns0="http://www.w3.org/2000/svg" cx="12" cy="12" r="9" fill="none" stroke="#6B7280" stroke-width="1.8" opacity="1" /></symbol><symbol id="ff-selected-circle" viewBox="0 0 24 24"><ns0:circle xmlns:ns0="http://www.w3.org/2000/svg" cx="12" cy="12" r="10" fill="#2FA86A" stroke-width="1" opacity="1" /><ns0:path xmlns:ns0="http://www.w3.org/2000/svg" d="M5.95 10.2 L9.35 13.6 L15.299999999999999 6.8" fill="none" stroke="#fff" stroke-width="1.9549999999999998" stroke-linecap="round" stroke-linejoin="round" opacity="1" /></symbol><symbol id="ff-droplet" viewBox="0 0 24 24"><ns0:path xmlns:ns0="http://www.w3.org/2000/svg" d="M12 2 C8 8 4 12 4 16 C4 21 8 24 12 24 C16 24 20 21 20 16 C20 12 16 8 12 2Z" fill="none" stroke="#1F2937" stroke-width="1.7" stroke-linecap="round" stroke-linejoin="round" opacity="1" /></symbol><symbol id="ff-thermometer" viewBox="0 0 24 24"><ns0:rect xmlns:ns0="http://www.w3.org/2000/svg" x="9" y="3" width="6" height="14" rx="3" fill="none" stroke="#1F2937" stroke-width="1.6" opacity="1" /><ns0:circle xmlns:ns0="http://www.w3.org/2000/svg" cx="12" cy="19" r="5" fill="none" stroke="#1F2937" stroke-width="1.6" opacity="1" /><ns0:line xmlns:ns0="http://www.w3.org/2000/svg" x1="12" y1="7" x2="12" y2="18" stroke="#1F2937" stroke-width="2" stroke-linecap="round" opacity="1" /></symbol><symbol id="ff-wind" viewBox="0 0 24 24"><ns0:path xmlns:ns0="http://www.w3.org/2000/svg" d="M2 8 H16 Q21 8 21 4 Q21 1 18 1 Q15 1 15 4" fill="none" stroke="#1F2937" stroke-width="1.7" stroke-linecap="round" stroke-linejoin="round" opacity="1" /><ns0:path xmlns:ns0="http://www.w3.org/2000/svg" d="M2 14 H20 Q23 14 23 17 Q23 20 20 20 Q17 20 17 17" fill="none" stroke="#1F2937" stroke-width="1.7" stroke-linecap="round" stroke-linejoin="round" opacity="1" /></symbol><symbol id="ff-send" viewBox="0 0 24 24"><ns0:circle xmlns:ns0="http://www.w3.org/2000/svg" cx="12" cy="12" r="11" fill="#2FA86A" stroke-width="1" opacity="1" /><ns0:polygon xmlns:ns0="http://www.w3.org/2000/svg" points="6,12 19,5 15,20 11,14" fill="#fff" stroke-width="1" opacity="1" /></symbol><symbol id="ff-star" viewBox="0 0 24 24"><ns0:polygon xmlns:ns0="http://www.w3.org/2000/svg" points="12,2 15,9 23,9 17,14 19,22 12,17 5,22 7,14 1,9 9,9" fill="none" stroke="#1F2937" stroke-width="1.5" opacity="1" /></symbol><symbol id="ff-menu" viewBox="0 0 24 24"><ns0:line xmlns:ns0="http://www.w3.org/2000/svg" x1="4" y1="6" x2="20" y2="6" stroke="#1F2937" stroke-width="2" stroke-linecap="round" opacity="1" /><ns0:line xmlns:ns0="http://www.w3.org/2000/svg" x1="4" y1="12" x2="20" y2="12" stroke="#1F2937" stroke-width="2" stroke-linecap="round" opacity="1" /><ns0:line xmlns:ns0="http://www.w3.org/2000/svg" x1="4" y1="18" x2="20" y2="18" stroke="#1F2937" stroke-width="2" stroke-linecap="round" opacity="1" /></symbol><symbol id="ff-filter" viewBox="0 0 24 24"><ns0:path xmlns:ns0="http://www.w3.org/2000/svg" d="M3 5 H21 L14 13 V21 L10 19 V13Z" fill="none" stroke="#1F2937" stroke-width="1.7" stroke-linecap="round" stroke-linejoin="round" opacity="1" /></symbol><symbol id="ff-logout" viewBox="0 0 24 24"><ns0:rect xmlns:ns0="http://www.w3.org/2000/svg" x="3" y="4" width="11" height="16" rx="2" fill="none" stroke="#1F2937" stroke-width="1.7" opacity="1" /><ns0:path xmlns:ns0="http://www.w3.org/2000/svg" d="M10 12 H22 M17 7 L22 12 L17 17" fill="none" stroke="#1F2937" stroke-width="1.8" stroke-linecap="round" stroke-linejoin="round" opacity="1" /></symbol><symbol id="ff-field" viewBox="0 0 24 24"><ns0:path xmlns:ns0="http://www.w3.org/2000/svg" d="M4 22 V8 H20 V22 M2 8 H22 M7 8 V5 Q12 0 17 5 V8 M8 14 Q12 11 16 14 M8 18 Q12 15 16 18" fill="none" stroke="#1F2937" stroke-width="1.7" stroke-linecap="round" stroke-linejoin="round" opacity="1" /></symbol><symbol id="ff-community" viewBox="0 0 24 24"><ns0:path xmlns:ns0="http://www.w3.org/2000/svg" d="M2 4 H16 Q18 4 18 6 V14 Q18 16 16 16 H9 L5 19 V16 H2 Q0 16 0 14 V6 Q0 4 2 4Z" fill="none" stroke="#1F2937" stroke-width="1.6" stroke-linecap="round" stroke-linejoin="round" opacity="1" /><ns0:path xmlns:ns0="http://www.w3.org/2000/svg" d="M17 8 H22 Q24 8 24 10 V17 Q24 19 22 19 H20 V22 L16 19 H13" fill="none" stroke="#1F2937" stroke-width="1.6" stroke-linecap="round" stroke-linejoin="round" opacity="1" /></symbol></svg>