<svg xmlns="http://www.w3.org/2000/svg">
  <symbol id="bell" viewBox="0 0 24 24"><path d="M18 8a6 6 0 0 0-12 0c0 7-3 7-3 9h18c0-2-3-2-3-9" fill="none" stroke="currentColor" stroke-width="1.8" stroke-linecap="round" stroke-linejoin="round"/><path d="M10 21h4" fill="none" stroke="currentColor" stroke-width="1.8" stroke-linecap="round"/></symbol>
  <symbol id="home" viewBox="0 0 24 24"><path d="M3 10.8 12 3l9 7.8v9.2a1 1 0 0 1-1 1h-5.5v-6h-5v6H4a1 1 0 0 1-1-1z" fill="none" stroke="currentColor" stroke-width="1.8" stroke-linecap="round" stroke-linejoin="round"/></symbol>
  <symbol id="plant" viewBox="0 0 24 24"><path d="M12 21V10" fill="none" stroke="currentColor" stroke-width="1.8" stroke-linecap="round"/><path d="M12 12C5 12 4 7 4 4c5 0 8 2 8 8Z" fill="none" stroke="currentColor" stroke-width="1.8" stroke-linejoin="round"/><path d="M12 15c7 0 8-5 8-8-5 0-8 2-8 8Z" fill="none" stroke="currentColor" stroke-width="1.8" stroke-linejoin="round"/></symbol>
  <symbol id="bot" viewBox="0 0 24 24"><path d="M9 3h6l1 3h2a3 3 0 0 1 3 3v8a3 3 0 0 1-3 3H6a3 3 0 0 1-3-3V9a3 3 0 0 1 3-3h2z" fill="none" stroke="currentColor" stroke-width="1.8" stroke-linejoin="round"/><circle cx="9" cy="13" r="1" fill="currentColor"/><circle cx="15" cy="13" r="1" fill="currentColor"/><path d="M9 17h6" fill="none" stroke="currentColor" stroke-width="1.8" stroke-linecap="round"/></symbol>
  <symbol id="chat" viewBox="0 0 24 24"><path d="M21 12a8 8 0 0 1-8 8H7l-4 2 1.5-4.5A8 8 0 1 1 21 12Z" fill="none" stroke="currentColor" stroke-width="1.8" stroke-linejoin="round"/><circle cx="8" cy="12" r="1" fill="currentColor"/><circle cx="12" cy="12" r="1" fill="currentColor"/><circle cx="16" cy="12" r="1" fill="currentColor"/></symbol>
  <symbol id="community" viewBox="0 0 24 24"><path d="M4 4h16v12H8l-4 4z" fill="none" stroke="currentColor" stroke-width="1.8" stroke-linejoin="round"/><circle cx="9" cy="10" r="1" fill="currentColor"/><circle cx="13" cy="10" r="1" fill="currentColor"/><circle cx="17" cy="10" r="1" fill="currentColor"/></symbol>
  <symbol id="settings" viewBox="0 0 24 24"><circle cx="12" cy="12" r="3" fill="none" stroke="currentColor" stroke-width="1.8"/><path d="M19.4 15a1.7 1.7 0 0 0 .34 1.88l.06.06-2.83 2.83-.06-.06a1.7 1.7 0 0 0-1.88-.34 1.7 1.7 0 0 0-1.03 1.56V21h-4v-.08A1.7 1.7 0 0 0 9 19.36a1.7 1.7 0 0 0-1.88.34l-.06.06-2.83-2.83.06-.06A1.7 1.7 0 0 0 4.63 15 1.7 1.7 0 0 0 3.08 14H3v-4h.08A1.7 1.7 0 0 0 4.64 9a1.7 1.7 0 0 0-.34-1.88l-.06-.06 2.83-2.83.06.06A1.7 1.7 0 0 0 9 4.63 1.7 1.7 0 0 0 10 3.08V3h4v.08A1.7 1.7 0 0 0 15 4.64a1.7 1.7 0 0 0 1.88-.34l.06-.06 2.83 2.83-.06.06A1.7 1.7 0 0 0 19.37 9 1.7 1.7 0 0 0 20.92 10H21v4h-.08A1.7 1.7 0 0 0 19.4 15Z" fill="none" stroke="currentColor" stroke-width="1.5" stroke-linecap="round" stroke-linejoin="round"/></symbol>
  <symbol id="arrow-left" viewBox="0 0 24 24"><path d="m15 18-6-6 6-6" fill="none" stroke="currentColor" stroke-width="1.9" stroke-linecap="round" stroke-linejoin="round"/></symbol>
  <symbol id="share" viewBox="0 0 24 24"><path d="M12 3v12m0-12-4 4m4-4 4 4" fill="none" stroke="currentColor" stroke-width="1.8" stroke-linecap="round" stroke-linejoin="round"/><path d="M5 11v8a2 2 0 0 0 2 2h10a2 2 0 0 0 2-2v-8" fill="none" stroke="currentColor" stroke-width="1.8" stroke-linecap="round"/></symbol>
  <symbol id="warning" viewBox="0 0 24 24"><path d="M12 3 2.5 20h19z" fill="currentColor"/><path d="M12 8v6" stroke="white" stroke-width="1.8" stroke-linecap="round"/><circle cx="12" cy="17" r="1" fill="white"/></symbol>
  <symbol id="arrow-right" viewBox="0 0 24 24"><path d="m9 18 6-6-6-6" fill="none" stroke="currentColor" stroke-width="1.8" stroke-linecap="round" stroke-linejoin="round"/></symbol>
  <symbol id="send" viewBox="0 0 24 24"><path d="M12 18V6m0 0-5 5m5-5 5 5" fill="none" stroke="currentColor" stroke-width="2" stroke-linecap="round" stroke-linejoin="round"/></symbol>
  <symbol id="kakao" viewBox="0 0 24 24"><path d="M12 4C6.5 4 2 7.5 2 11.7c0 2.7 1.9 5.1 4.8 6.4L6 21l3.6-2c.8.1 1.6.2 2.4.2 5.5 0 10-3.4 10-7.5S17.5 4 12 4Z" fill="currentColor"/><circle cx="8.6" cy="11.7" r=".8" fill="white"/><circle cx="12" cy="11.7" r=".8" fill="white"/><circle cx="15.4" cy="11.7" r=".8" fill="white"/></symbol>
</svg>
