<svg xmlns="http://www.w3.org/2000/svg" width="320" height="350" viewBox="0 0 320 350" role="img" aria-label="Farmflate mascot basic"><title>Farmflate mascot basic</title><defs><linearGradient id="mascot-basic-hood" x1="0%" y1="0%" x2="100%" y2="100%"><stop offset="0%" stop-color="#4CC48B" stop-opacity="1"/><stop offset="100%" stop-color="#1E5E3E" stop-opacity="1"/></linearGradient></defs><ellipse cx="160" cy="330" rx="62" ry="12" fill="#DDE8E1" stroke-width="1" opacity="0.8"/><ellipse cx="135" cy="320" rx="24" ry="9" fill="#6C4930" stroke-width="1" opacity="1"/><ellipse cx="185" cy="320" rx="24" ry="9" fill="#6C4930" stroke-width="1" opacity="1"/><rect x="124" y="278" width="22" height="42" rx="11" fill="#FFB04D" stroke-width="1" opacity="1"/><rect x="174" y="278" width="22" height="42" rx="11" fill="#FFB04D" stroke-width="1" opacity="1"/><path d="M104 196 Q160 168 216 196 L208 286 Q160 306 112 286Z" fill="#FFB04D" stroke-width="1" stroke-linecap="round" stroke-linejoin="round" opacity="1"/><path d="M119 210 Q160 190 201 210 L196 270 Q160 286 124 270Z" fill="#F5A916" stroke-width="1" stroke-linecap="round" stroke-linejoin="round" opacity="0.78"/><path d="M140 251 Q160 265 180 251 L178 279 Q160 289 142 279Z" fill="#FFC62F" stroke-width="1" stroke-linecap="round" stroke-linejoin="round" opacity="0.9"/><path d="M107 219 Q90.5 209.5 74 200" fill="none" stroke="#FFB04D" stroke-width="20" stroke-linecap="round" stroke-linejoin="round" opacity="1"/><path d="M213 219 Q229.5 209.5 246 200" fill="none" stroke="#FFB04D" stroke-width="20" stroke-linecap="round" stroke-linejoin="round" opacity="1"/><circle cx="74" cy="200" r="8" fill="#FFD8BF" stroke-width="1" opacity="1"/><circle cx="246" cy="200" r="8" fill="#FFD8BF" stroke-width="1" opacity="1"/><circle cx="160" cy="137" r="91" fill="url(#mascot-basic-hood)" stroke-width="1" opacity="1"/><path d="M101 144 C103 90 133 58 176 51 C137 62 112 93 109 141 C108 168 117 191 135 204 C111 193 99 169 101 144Z" fill="#0B6336" stroke-width="1" stroke-linecap="round" stroke-linejoin="round" opacity="0.28"/><path d="M145 48 C133 19 152 9 171 27 C171 47 157 56 145 48Z" fill="#2D8A43" stroke-width="1" stroke-linecap="round" stroke-linejoin="round" opacity="1"/><path d="M165 36 C184 12 203 23 202 43 C188 52 176 51 165 36Z" fill="#54B858" stroke-width="1" stroke-linecap="round" stroke-linejoin="round" opacity="1"/><circle cx="160" cy="144" r="64" fill="#FFF8EC" stroke-width="1" opacity="1"/><ellipse cx="123" cy="155" rx="10" ry="5.5" fill="#FF9E99" stroke-width="1" opacity="0.5"/><ellipse cx="197" cy="155" rx="10" ry="5.5" fill="#FF9E99" stroke-width="1" opacity="0.5"/><circle cx="138" cy="138" r="4.5" fill="#1F2937" stroke-width="1" opacity="1"/><circle cx="182" cy="138" r="4.5" fill="#1F2937" stroke-width="1" opacity="1"/><path d="M151 157 Q160 167 169 157" fill="none" stroke="#1F2937" stroke-width="3" stroke-linecap="round" stroke-linejoin="round" opacity="1"/><path d="M 61 118 C 63 123 64 124 69 126 C 64 128 63 129 61 134 C 59 129 58 128 53 126 C 58 124 59 123 61 118Z" fill="#FFD84D" stroke-width="1" stroke-linecap="round" stroke-linejoin="round" opacity="1"/><path d="M 262 135 C 264 139 265 140 269 142 C 265 144 264 145 262 149 C 260 145 259 144 255 142 C 259 140 260 139 262 135Z" fill="#7ED7F2" stroke-width="1" stroke-linecap="round" stroke-linejoin="round" opacity="1"/></svg>