<svg xmlns="http://www.w3.org/2000/svg" width="320" height="350" viewBox="0 0 320 350" role="img" aria-label="Farmflate mascot thinking"><title>Farmflate mascot thinking</title><defs><linearGradient id="mascot-thinking-hood" x1="0%" y1="0%" x2="100%" y2="100%"><stop offset="0%" stop-color="#4CC48B" stop-opacity="1"/><stop offset="100%" stop-color="#1E5E3E" stop-opacity="1"/></linearGradient></defs><ellipse cx="160" cy="330" rx="62" ry="12" fill="#DDE8E1" stroke-width="1" opacity="0.8"/><ellipse cx="135" cy="320" rx="24" ry="9" fill="#6C4930" stroke-width="1" opacity="1"/><ellipse cx="185" cy="320" rx="24" ry="9" fill="#6C4930" stroke-width="1" opacity="1"/><rect x="124" y="278" width="22" height="42" rx="11" fill="#FFB04D" stroke-width="1" opacity="1"/><rect x="174" y="278" width="22" height="42" rx="11" fill="#FFB04D" stroke-width="1" opacity="1"/><path d="M104 196 Q160 168 216 196 L208 286 Q160 306 112 286Z" fill="#FFB04D" stroke-width="1" stroke-linecap="round" stroke-linejoin="round" opacity="1"/><path d="M119 210 Q160 190 201 210 L196 270 Q160 286 124 270Z" fill="#F5A916" stroke-width="1" stroke-linecap="round" stroke-linejoin="round" opacity="0.78"/><path d="M140 251 Q160 265 180 251 L178 279 Q160 289 142 279Z" fill="#FFC62F" stroke-width="1" stroke-linecap="round" stroke-linejoin="round" opacity="0.9"/><path d="M107 219 Q93.0 217.5 79 216" fill="none" stroke="#FFB04D" stroke-width="20" stroke-linecap="round" stroke-linejoin="round" opacity="1"/><path d="M213 219 Q222.0 201.5 231 184" fill="none" stroke="#FFB04D" stroke-width="20" stroke-linecap="round" stroke-linejoin="round" opacity="1"/><circle cx="79" cy="216" r="8" fill="#FFD8BF" stroke-width="1" opacity="1"/><circle cx="231" cy="184" r="8" fill="#FFD8BF" stroke-width="1" opacity="1"/><circle cx="160" cy="137" r="91" fill="url(#mascot-thinking-hood)" stroke-width="1" opacity="1"/><path d="M101 144 C103 90 133 58 176 51 C137 62 112 93 109 141 C108 168 117 191 135 204 C111 193 99 169 101 144Z" fill="#0B6336" stroke-width="1" stroke-linecap="round" stroke-linejoin="round" opacity="0.28"/><path d="M145 48 C133 19 152 9 171 27 C171 47 157 56 145 48Z" fill="#2D8A43" stroke-width="1" stroke-linecap="round" stroke-linejoin="round" opacity="1"/><path d="M165 36 C184 12 203 23 202 43 C188 52 176 51 165 36Z" fill="#54B858" stroke-width="1" stroke-linecap="round" stroke-linejoin="round" opacity="1"/><circle cx="160" cy="144" r="64" fill="#FFF8EC" stroke-width="1" opacity="1"/><ellipse cx="123" cy="155" rx="10" ry="5.5" fill="#FF9E99" stroke-width="1" opacity="0.5"/><ellipse cx="197" cy="155" rx="10" ry="5.5" fill="#FF9E99" stroke-width="1" opacity="0.5"/><circle cx="138" cy="138" r="4.5" fill="#1F2937" stroke-width="1" opacity="1"/><circle cx="182" cy="138" r="4.5" fill="#1F2937" stroke-width="1" opacity="1"/><path d="M151 157 Q160 167 169 157" fill="none" stroke="#1F2937" stroke-width="3" stroke-linecap="round" stroke-linejoin="round" opacity="1"/><g fill="#2FA86A" opacity="1"><path d="M263 726Q315 726 356.0 712.5Q397 699 425.5 675.0Q454 651 469.5 617.5Q485 584 485 543V533Q485 508 479.0 486.5Q473 465 459.5 443.5Q446 422 424.5 399.0Q403 376 373 349Q347 325 331.0 307.5Q315 290 307.0 275.5Q299 261 296.5 247.0Q294 233 294 216Q294 197 280.0 187.0Q266 177 248 177Q229 177 214.5 186.5Q200 196 200 218Q200 243 203.0 264.0Q206 285 215.5 304.5Q225 324 243.0 345.0Q261 366 290 392Q319 417 337.5 436.0Q356 455 366.5 471.0Q377 487 381.0 501.0Q385 515 385 532V539Q385 581 354.5 609.0Q324 637 261 637Q216 637 183.0 622.5Q150 608 122 585Q107 574 91.0 577.0Q75 580 63 595Q52 609 52.5 626.5Q53 644 68 656Q102 685 151.0 705.5Q200 726 263 726ZM247 95Q276 95 294.5 76.5Q313 58 313 30Q313 2 294.5 -17.0Q276 -36 247 -36Q219 -36 200.5 -17.0Q182 2 182 30Q182 58 200.5 76.5Q219 95 247 95Z" transform="translate(241.360 108.560) scale(0.032000 -0.032000)"/></g></svg>