<svg xmlns="http://www.w3.org/2000/svg" width="360" height="110" viewBox="0 0 360 110" role="img" aria-label="Farmflate wordmark"><title>Farmflate wordmark</title><g fill="#2FA86A" opacity="1"><path d="M502 715Q521 715 529.5 702.0Q538 689 538 672Q538 655 529.5 642.0Q521 629 502 629H187V397H482Q500 397 508.5 384.0Q517 371 517 354Q517 337 508.5 324.5Q500 312 482 312H187V41Q187 19 171.5 9.0Q156 -1 136 -1Q116 -1 101.0 9.0Q86 19 86 41V641Q86 683 102.5 699.0Q119 715 163 715H502Z" transform="translate(20.000 67.480) scale(0.056000 -0.056000)"/><path d="M279 541Q326 541 364.5 529.0Q403 517 430.5 494.5Q458 472 473.0 439.5Q488 407 488 366V37Q488 17 474.0 8.0Q460 -1 443 -1Q426 -1 412.0 8.0Q398 17 398 37V75H397Q389 58 374.0 44.0Q359 30 339 20Q319 9 292.0 2.5Q265 -4 235 -4Q148 -4 100.0 37.0Q52 78 52 152V165Q52 198 62.5 226.0Q73 254 96.5 275.0Q120 296 158.0 307.5Q196 319 251 319H390V344Q390 402 363.0 428.5Q336 455 277 455Q206 455 143 415Q127 405 112.0 410.0Q97 415 87 430Q78 445 80.0 461.0Q82 477 98 488Q132 511 179.0 526.0Q226 541 279 541ZM254 242Q195 242 171.5 219.0Q148 196 148 160V156Q148 119 172.0 99.0Q196 79 243 79Q301 79 338 99Q364 114 377.5 136.0Q391 158 391 191V242Z" transform="translate(52.368 67.480) scale(0.056000 -0.056000)"/><path d="M325 541Q359 541 381 530Q410 516 402 479Q397 458 383.5 446.5Q370 435 352 439Q340 441 328.0 443.5Q316 446 302 446Q274 446 251.5 435.0Q229 424 213.0 404.5Q197 385 188.5 359.0Q180 333 180 302V40Q180 19 165.0 9.0Q150 -1 130 -1Q111 -1 96.0 9.0Q81 19 81 40V494Q81 515 95.5 524.5Q110 534 128 534Q147 534 161.5 524.5Q176 515 176 494V441H178Q195 481 233.0 511.0Q271 541 325 541Z" transform="translate(83.840 67.480) scale(0.056000 -0.056000)"/><path d="M330 541Q388 541 427.5 515.5Q467 490 481 450Q507 492 548.0 516.5Q589 541 653 541Q738 541 787.5 488.0Q837 435 837 343V40Q837 19 822.0 9.0Q807 -1 788 -1Q769 -1 754.0 9.0Q739 19 739 40V322Q739 394 709.5 423.5Q680 453 627 453Q575 453 541.5 419.5Q508 386 508 327V40Q508 19 493.5 9.0Q479 -1 459 -1Q440 -1 425.0 9.0Q410 19 410 40V323Q410 392 381.0 422.5Q352 453 298 453Q269 453 247.0 443.0Q225 433 210.0 416.5Q195 400 187.5 377.5Q180 355 180 330V40Q180 19 165.0 9.0Q150 -1 130 -1Q111 -1 96.0 9.0Q81 19 81 40V494Q81 515 95.5 524.5Q110 534 128 534Q146 534 160.5 524.5Q175 515 175 494V453Q195 491 233.5 516.0Q272 541 330 541Z" transform="translate(107.528 67.480) scale(0.056000 -0.056000)"/><path d="M280 746Q317 746 346 736Q380 725 373 689Q369 672 359.0 663.0Q349 654 332 657Q319 660 309.5 661.0Q300 662 289 662Q249 662 231.5 641.5Q214 621 214 579V529H328Q345 529 353.5 517.0Q362 505 362 488Q362 471 353.5 459.5Q345 448 328 448H214V40Q214 19 199.0 9.0Q184 -1 164 -1Q145 -1 130.0 9.0Q115 19 115 40V448H54Q37 448 28.5 459.5Q20 471 20 488Q20 505 28.5 517.0Q37 529 54 529H115V581Q115 662 156.0 704.0Q197 746 280 746Z" transform="translate(158.656 67.480) scale(0.056000 -0.056000)"/><path d="M130 745Q150 745 165.0 735.0Q180 725 180 703V41Q180 19 165.0 9.0Q150 -1 130 -1Q111 -1 96.0 9.0Q81 19 81 41V703Q81 725 96.0 735.0Q111 745 130 745Z" transform="translate(180.440 67.480) scale(0.056000 -0.056000)"/><path d="M279 541Q326 541 364.5 529.0Q403 517 430.5 494.5Q458 472 473.0 439.5Q488 407 488 366V37Q488 17 474.0 8.0Q460 -1 443 -1Q426 -1 412.0 8.0Q398 17 398 37V75H397Q389 58 374.0 44.0Q359 30 339 20Q319 9 292.0 2.5Q265 -4 235 -4Q148 -4 100.0 37.0Q52 78 52 152V165Q52 198 62.5 226.0Q73 254 96.5 275.0Q120 296 158.0 307.5Q196 319 251 319H390V344Q390 402 363.0 428.5Q336 455 277 455Q206 455 143 415Q127 405 112.0 410.0Q97 415 87 430Q78 445 80.0 461.0Q82 477 98 488Q132 511 179.0 526.0Q226 541 279 541ZM254 242Q195 242 171.5 219.0Q148 196 148 160V156Q148 119 172.0 99.0Q196 79 243 79Q301 79 338 99Q364 114 377.5 136.0Q391 158 391 191V242Z" transform="translate(195.056 67.480) scale(0.056000 -0.056000)"/><path d="M163 674Q183 674 198.0 664.0Q213 654 213 632V529H329Q346 529 354.5 517.0Q363 505 363 488Q363 471 354.5 459.5Q346 448 329 448H213V162Q213 117 227.0 98.5Q241 80 274 80Q299 80 323 89Q337 94 350.0 88.5Q363 83 369 64Q375 47 369.5 33.0Q364 19 349 12Q314 -4 267 -4Q186 -4 150.0 35.0Q114 74 114 162V448H54Q37 448 28.5 459.5Q20 471 20 488Q20 505 28.5 517.0Q37 529 54 529H114V632Q114 654 129.0 664.0Q144 674 163 674Z" transform="translate(226.528 67.480) scale(0.056000 -0.056000)"/><path d="M292 541Q344 541 386.5 525.0Q429 509 459.5 478.5Q490 448 506.5 404.0Q523 360 523 304V302Q523 264 507.0 248.5Q491 233 452 233H150V229Q150 157 188.0 118.0Q226 79 298 79Q343 79 376.5 87.0Q410 95 442 112Q459 120 473.5 115.5Q488 111 496 94Q504 77 500.0 61.5Q496 46 481 38Q445 18 399.5 7.0Q354 -4 294 -4Q181 -4 117.0 59.5Q53 123 53 251V285Q53 412 117.5 476.5Q182 541 292 541ZM290 458Q222 458 186.0 419.5Q150 381 150 314V308H428V317Q428 382 394.0 420.0Q360 458 290 458Z" transform="translate(248.984 67.480) scale(0.056000 -0.056000)"/></g><path d="M265 35 C261.6 20.5 271.12 10 287.44 10 C299 13.75 299 27.0 265 35Z" fill="#2FA86A" stroke-width="1" stroke-linecap="round" stroke-linejoin="round" opacity="1" transform="rotate(-22 282.0 22.5)"/><path d="M269.08 30.0 Q280.3 22.0 290.16 14.5" fill="none" stroke="#F4FFF6" stroke-width="1.36" stroke-linecap="round" stroke-linejoin="round" opacity="0.75" transform="rotate(-22 282.0 22.5)"/></svg>